G04 #@! TF.GenerationSoftware,KiCad,Pcbnew,(5.1.5)-3*
G04 #@! TF.CreationDate,2020-03-16T14:14:39+10:00*
G04 #@! TF.ProjectId,ESP32-S2-Breakout,45535033-322d-4533-922d-427265616b6f,rev?*
G04 #@! TF.SameCoordinates,Original*
G04 #@! TF.FileFunction,Soldermask,Top*
G04 #@! TF.FilePolarity,Negative*
%FSLAX46Y46*%
G04 Gerber Fmt 4.6, Leading zero omitted, Abs format (unit mm)*
G04 Created by KiCad (PCBNEW (5.1.5)-3) date 2020-03-16 14:14:39*
%MOMM*%
%LPD*%
G04 APERTURE LIST*
%ADD10C,0.100000*%
G04 APERTURE END LIST*
D10*
G36*
X170293512Y-110863927D02*
G01*
X170442812Y-110893624D01*
X170606784Y-110961544D01*
X170754354Y-111060147D01*
X170879853Y-111185646D01*
X170978456Y-111333216D01*
X171046376Y-111497188D01*
X171081000Y-111671259D01*
X171081000Y-111848741D01*
X171046376Y-112022812D01*
X170978456Y-112186784D01*
X170879853Y-112334354D01*
X170754354Y-112459853D01*
X170606784Y-112558456D01*
X170442812Y-112626376D01*
X170293512Y-112656073D01*
X170268742Y-112661000D01*
X170091258Y-112661000D01*
X170066488Y-112656073D01*
X169917188Y-112626376D01*
X169753216Y-112558456D01*
X169605646Y-112459853D01*
X169480147Y-112334354D01*
X169381544Y-112186784D01*
X169313624Y-112022812D01*
X169279000Y-111848741D01*
X169279000Y-111671259D01*
X169313624Y-111497188D01*
X169381544Y-111333216D01*
X169480147Y-111185646D01*
X169605646Y-111060147D01*
X169753216Y-110961544D01*
X169917188Y-110893624D01*
X170066488Y-110863927D01*
X170091258Y-110859000D01*
X170268742Y-110859000D01*
X170293512Y-110863927D01*
G37*
G36*
X142353512Y-110863927D02*
G01*
X142502812Y-110893624D01*
X142666784Y-110961544D01*
X142814354Y-111060147D01*
X142939853Y-111185646D01*
X143038456Y-111333216D01*
X143106376Y-111497188D01*
X143141000Y-111671259D01*
X143141000Y-111848741D01*
X143106376Y-112022812D01*
X143038456Y-112186784D01*
X142939853Y-112334354D01*
X142814354Y-112459853D01*
X142666784Y-112558456D01*
X142502812Y-112626376D01*
X142353512Y-112656073D01*
X142328742Y-112661000D01*
X142151258Y-112661000D01*
X142126488Y-112656073D01*
X141977188Y-112626376D01*
X141813216Y-112558456D01*
X141665646Y-112459853D01*
X141540147Y-112334354D01*
X141441544Y-112186784D01*
X141373624Y-112022812D01*
X141339000Y-111848741D01*
X141339000Y-111671259D01*
X141373624Y-111497188D01*
X141441544Y-111333216D01*
X141540147Y-111185646D01*
X141665646Y-111060147D01*
X141813216Y-110961544D01*
X141977188Y-110893624D01*
X142126488Y-110863927D01*
X142151258Y-110859000D01*
X142328742Y-110859000D01*
X142353512Y-110863927D01*
G37*
G36*
X120281000Y-112661000D02*
G01*
X118479000Y-112661000D01*
X118479000Y-110859000D01*
X120281000Y-110859000D01*
X120281000Y-112661000D01*
G37*
G36*
X122033512Y-110863927D02*
G01*
X122182812Y-110893624D01*
X122346784Y-110961544D01*
X122494354Y-111060147D01*
X122619853Y-111185646D01*
X122718456Y-111333216D01*
X122786376Y-111497188D01*
X122821000Y-111671259D01*
X122821000Y-111848741D01*
X122786376Y-112022812D01*
X122718456Y-112186784D01*
X122619853Y-112334354D01*
X122494354Y-112459853D01*
X122346784Y-112558456D01*
X122182812Y-112626376D01*
X122033512Y-112656073D01*
X122008742Y-112661000D01*
X121831258Y-112661000D01*
X121806488Y-112656073D01*
X121657188Y-112626376D01*
X121493216Y-112558456D01*
X121345646Y-112459853D01*
X121220147Y-112334354D01*
X121121544Y-112186784D01*
X121053624Y-112022812D01*
X121019000Y-111848741D01*
X121019000Y-111671259D01*
X121053624Y-111497188D01*
X121121544Y-111333216D01*
X121220147Y-111185646D01*
X121345646Y-111060147D01*
X121493216Y-110961544D01*
X121657188Y-110893624D01*
X121806488Y-110863927D01*
X121831258Y-110859000D01*
X122008742Y-110859000D01*
X122033512Y-110863927D01*
G37*
G36*
X124573512Y-110863927D02*
G01*
X124722812Y-110893624D01*
X124886784Y-110961544D01*
X125034354Y-111060147D01*
X125159853Y-111185646D01*
X125258456Y-111333216D01*
X125326376Y-111497188D01*
X125361000Y-111671259D01*
X125361000Y-111848741D01*
X125326376Y-112022812D01*
X125258456Y-112186784D01*
X125159853Y-112334354D01*
X125034354Y-112459853D01*
X124886784Y-112558456D01*
X124722812Y-112626376D01*
X124573512Y-112656073D01*
X124548742Y-112661000D01*
X124371258Y-112661000D01*
X124346488Y-112656073D01*
X124197188Y-112626376D01*
X124033216Y-112558456D01*
X123885646Y-112459853D01*
X123760147Y-112334354D01*
X123661544Y-112186784D01*
X123593624Y-112022812D01*
X123559000Y-111848741D01*
X123559000Y-111671259D01*
X123593624Y-111497188D01*
X123661544Y-111333216D01*
X123760147Y-111185646D01*
X123885646Y-111060147D01*
X124033216Y-110961544D01*
X124197188Y-110893624D01*
X124346488Y-110863927D01*
X124371258Y-110859000D01*
X124548742Y-110859000D01*
X124573512Y-110863927D01*
G37*
G36*
X127113512Y-110863927D02*
G01*
X127262812Y-110893624D01*
X127426784Y-110961544D01*
X127574354Y-111060147D01*
X127699853Y-111185646D01*
X127798456Y-111333216D01*
X127866376Y-111497188D01*
X127901000Y-111671259D01*
X127901000Y-111848741D01*
X127866376Y-112022812D01*
X127798456Y-112186784D01*
X127699853Y-112334354D01*
X127574354Y-112459853D01*
X127426784Y-112558456D01*
X127262812Y-112626376D01*
X127113512Y-112656073D01*
X127088742Y-112661000D01*
X126911258Y-112661000D01*
X126886488Y-112656073D01*
X126737188Y-112626376D01*
X126573216Y-112558456D01*
X126425646Y-112459853D01*
X126300147Y-112334354D01*
X126201544Y-112186784D01*
X126133624Y-112022812D01*
X126099000Y-111848741D01*
X126099000Y-111671259D01*
X126133624Y-111497188D01*
X126201544Y-111333216D01*
X126300147Y-111185646D01*
X126425646Y-111060147D01*
X126573216Y-110961544D01*
X126737188Y-110893624D01*
X126886488Y-110863927D01*
X126911258Y-110859000D01*
X127088742Y-110859000D01*
X127113512Y-110863927D01*
G37*
G36*
X129653512Y-110863927D02*
G01*
X129802812Y-110893624D01*
X129966784Y-110961544D01*
X130114354Y-111060147D01*
X130239853Y-111185646D01*
X130338456Y-111333216D01*
X130406376Y-111497188D01*
X130441000Y-111671259D01*
X130441000Y-111848741D01*
X130406376Y-112022812D01*
X130338456Y-112186784D01*
X130239853Y-112334354D01*
X130114354Y-112459853D01*
X129966784Y-112558456D01*
X129802812Y-112626376D01*
X129653512Y-112656073D01*
X129628742Y-112661000D01*
X129451258Y-112661000D01*
X129426488Y-112656073D01*
X129277188Y-112626376D01*
X129113216Y-112558456D01*
X128965646Y-112459853D01*
X128840147Y-112334354D01*
X128741544Y-112186784D01*
X128673624Y-112022812D01*
X128639000Y-111848741D01*
X128639000Y-111671259D01*
X128673624Y-111497188D01*
X128741544Y-111333216D01*
X128840147Y-111185646D01*
X128965646Y-111060147D01*
X129113216Y-110961544D01*
X129277188Y-110893624D01*
X129426488Y-110863927D01*
X129451258Y-110859000D01*
X129628742Y-110859000D01*
X129653512Y-110863927D01*
G37*
G36*
X132193512Y-110863927D02*
G01*
X132342812Y-110893624D01*
X132506784Y-110961544D01*
X132654354Y-111060147D01*
X132779853Y-111185646D01*
X132878456Y-111333216D01*
X132946376Y-111497188D01*
X132981000Y-111671259D01*
X132981000Y-111848741D01*
X132946376Y-112022812D01*
X132878456Y-112186784D01*
X132779853Y-112334354D01*
X132654354Y-112459853D01*
X132506784Y-112558456D01*
X132342812Y-112626376D01*
X132193512Y-112656073D01*
X132168742Y-112661000D01*
X131991258Y-112661000D01*
X131966488Y-112656073D01*
X131817188Y-112626376D01*
X131653216Y-112558456D01*
X131505646Y-112459853D01*
X131380147Y-112334354D01*
X131281544Y-112186784D01*
X131213624Y-112022812D01*
X131179000Y-111848741D01*
X131179000Y-111671259D01*
X131213624Y-111497188D01*
X131281544Y-111333216D01*
X131380147Y-111185646D01*
X131505646Y-111060147D01*
X131653216Y-110961544D01*
X131817188Y-110893624D01*
X131966488Y-110863927D01*
X131991258Y-110859000D01*
X132168742Y-110859000D01*
X132193512Y-110863927D01*
G37*
G36*
X134733512Y-110863927D02*
G01*
X134882812Y-110893624D01*
X135046784Y-110961544D01*
X135194354Y-111060147D01*
X135319853Y-111185646D01*
X135418456Y-111333216D01*
X135486376Y-111497188D01*
X135521000Y-111671259D01*
X135521000Y-111848741D01*
X135486376Y-112022812D01*
X135418456Y-112186784D01*
X135319853Y-112334354D01*
X135194354Y-112459853D01*
X135046784Y-112558456D01*
X134882812Y-112626376D01*
X134733512Y-112656073D01*
X134708742Y-112661000D01*
X134531258Y-112661000D01*
X134506488Y-112656073D01*
X134357188Y-112626376D01*
X134193216Y-112558456D01*
X134045646Y-112459853D01*
X133920147Y-112334354D01*
X133821544Y-112186784D01*
X133753624Y-112022812D01*
X133719000Y-111848741D01*
X133719000Y-111671259D01*
X133753624Y-111497188D01*
X133821544Y-111333216D01*
X133920147Y-111185646D01*
X134045646Y-111060147D01*
X134193216Y-110961544D01*
X134357188Y-110893624D01*
X134506488Y-110863927D01*
X134531258Y-110859000D01*
X134708742Y-110859000D01*
X134733512Y-110863927D01*
G37*
G36*
X137273512Y-110863927D02*
G01*
X137422812Y-110893624D01*
X137586784Y-110961544D01*
X137734354Y-111060147D01*
X137859853Y-111185646D01*
X137958456Y-111333216D01*
X138026376Y-111497188D01*
X138061000Y-111671259D01*
X138061000Y-111848741D01*
X138026376Y-112022812D01*
X137958456Y-112186784D01*
X137859853Y-112334354D01*
X137734354Y-112459853D01*
X137586784Y-112558456D01*
X137422812Y-112626376D01*
X137273512Y-112656073D01*
X137248742Y-112661000D01*
X137071258Y-112661000D01*
X137046488Y-112656073D01*
X136897188Y-112626376D01*
X136733216Y-112558456D01*
X136585646Y-112459853D01*
X136460147Y-112334354D01*
X136361544Y-112186784D01*
X136293624Y-112022812D01*
X136259000Y-111848741D01*
X136259000Y-111671259D01*
X136293624Y-111497188D01*
X136361544Y-111333216D01*
X136460147Y-111185646D01*
X136585646Y-111060147D01*
X136733216Y-110961544D01*
X136897188Y-110893624D01*
X137046488Y-110863927D01*
X137071258Y-110859000D01*
X137248742Y-110859000D01*
X137273512Y-110863927D01*
G37*
G36*
X139813512Y-110863927D02*
G01*
X139962812Y-110893624D01*
X140126784Y-110961544D01*
X140274354Y-111060147D01*
X140399853Y-111185646D01*
X140498456Y-111333216D01*
X140566376Y-111497188D01*
X140601000Y-111671259D01*
X140601000Y-111848741D01*
X140566376Y-112022812D01*
X140498456Y-112186784D01*
X140399853Y-112334354D01*
X140274354Y-112459853D01*
X140126784Y-112558456D01*
X139962812Y-112626376D01*
X139813512Y-112656073D01*
X139788742Y-112661000D01*
X139611258Y-112661000D01*
X139586488Y-112656073D01*
X139437188Y-112626376D01*
X139273216Y-112558456D01*
X139125646Y-112459853D01*
X139000147Y-112334354D01*
X138901544Y-112186784D01*
X138833624Y-112022812D01*
X138799000Y-111848741D01*
X138799000Y-111671259D01*
X138833624Y-111497188D01*
X138901544Y-111333216D01*
X139000147Y-111185646D01*
X139125646Y-111060147D01*
X139273216Y-110961544D01*
X139437188Y-110893624D01*
X139586488Y-110863927D01*
X139611258Y-110859000D01*
X139788742Y-110859000D01*
X139813512Y-110863927D01*
G37*
G36*
X147433512Y-110863927D02*
G01*
X147582812Y-110893624D01*
X147746784Y-110961544D01*
X147894354Y-111060147D01*
X148019853Y-111185646D01*
X148118456Y-111333216D01*
X148186376Y-111497188D01*
X148221000Y-111671259D01*
X148221000Y-111848741D01*
X148186376Y-112022812D01*
X148118456Y-112186784D01*
X148019853Y-112334354D01*
X147894354Y-112459853D01*
X147746784Y-112558456D01*
X147582812Y-112626376D01*
X147433512Y-112656073D01*
X147408742Y-112661000D01*
X147231258Y-112661000D01*
X147206488Y-112656073D01*
X147057188Y-112626376D01*
X146893216Y-112558456D01*
X146745646Y-112459853D01*
X146620147Y-112334354D01*
X146521544Y-112186784D01*
X146453624Y-112022812D01*
X146419000Y-111848741D01*
X146419000Y-111671259D01*
X146453624Y-111497188D01*
X146521544Y-111333216D01*
X146620147Y-111185646D01*
X146745646Y-111060147D01*
X146893216Y-110961544D01*
X147057188Y-110893624D01*
X147206488Y-110863927D01*
X147231258Y-110859000D01*
X147408742Y-110859000D01*
X147433512Y-110863927D01*
G37*
G36*
X144893512Y-110863927D02*
G01*
X145042812Y-110893624D01*
X145206784Y-110961544D01*
X145354354Y-111060147D01*
X145479853Y-111185646D01*
X145578456Y-111333216D01*
X145646376Y-111497188D01*
X145681000Y-111671259D01*
X145681000Y-111848741D01*
X145646376Y-112022812D01*
X145578456Y-112186784D01*
X145479853Y-112334354D01*
X145354354Y-112459853D01*
X145206784Y-112558456D01*
X145042812Y-112626376D01*
X144893512Y-112656073D01*
X144868742Y-112661000D01*
X144691258Y-112661000D01*
X144666488Y-112656073D01*
X144517188Y-112626376D01*
X144353216Y-112558456D01*
X144205646Y-112459853D01*
X144080147Y-112334354D01*
X143981544Y-112186784D01*
X143913624Y-112022812D01*
X143879000Y-111848741D01*
X143879000Y-111671259D01*
X143913624Y-111497188D01*
X143981544Y-111333216D01*
X144080147Y-111185646D01*
X144205646Y-111060147D01*
X144353216Y-110961544D01*
X144517188Y-110893624D01*
X144666488Y-110863927D01*
X144691258Y-110859000D01*
X144868742Y-110859000D01*
X144893512Y-110863927D01*
G37*
G36*
X167753512Y-110863927D02*
G01*
X167902812Y-110893624D01*
X168066784Y-110961544D01*
X168214354Y-111060147D01*
X168339853Y-111185646D01*
X168438456Y-111333216D01*
X168506376Y-111497188D01*
X168541000Y-111671259D01*
X168541000Y-111848741D01*
X168506376Y-112022812D01*
X168438456Y-112186784D01*
X168339853Y-112334354D01*
X168214354Y-112459853D01*
X168066784Y-112558456D01*
X167902812Y-112626376D01*
X167753512Y-112656073D01*
X167728742Y-112661000D01*
X167551258Y-112661000D01*
X167526488Y-112656073D01*
X167377188Y-112626376D01*
X167213216Y-112558456D01*
X167065646Y-112459853D01*
X166940147Y-112334354D01*
X166841544Y-112186784D01*
X166773624Y-112022812D01*
X166739000Y-111848741D01*
X166739000Y-111671259D01*
X166773624Y-111497188D01*
X166841544Y-111333216D01*
X166940147Y-111185646D01*
X167065646Y-111060147D01*
X167213216Y-110961544D01*
X167377188Y-110893624D01*
X167526488Y-110863927D01*
X167551258Y-110859000D01*
X167728742Y-110859000D01*
X167753512Y-110863927D01*
G37*
G36*
X165213512Y-110863927D02*
G01*
X165362812Y-110893624D01*
X165526784Y-110961544D01*
X165674354Y-111060147D01*
X165799853Y-111185646D01*
X165898456Y-111333216D01*
X165966376Y-111497188D01*
X166001000Y-111671259D01*
X166001000Y-111848741D01*
X165966376Y-112022812D01*
X165898456Y-112186784D01*
X165799853Y-112334354D01*
X165674354Y-112459853D01*
X165526784Y-112558456D01*
X165362812Y-112626376D01*
X165213512Y-112656073D01*
X165188742Y-112661000D01*
X165011258Y-112661000D01*
X164986488Y-112656073D01*
X164837188Y-112626376D01*
X164673216Y-112558456D01*
X164525646Y-112459853D01*
X164400147Y-112334354D01*
X164301544Y-112186784D01*
X164233624Y-112022812D01*
X164199000Y-111848741D01*
X164199000Y-111671259D01*
X164233624Y-111497188D01*
X164301544Y-111333216D01*
X164400147Y-111185646D01*
X164525646Y-111060147D01*
X164673216Y-110961544D01*
X164837188Y-110893624D01*
X164986488Y-110863927D01*
X165011258Y-110859000D01*
X165188742Y-110859000D01*
X165213512Y-110863927D01*
G37*
G36*
X162673512Y-110863927D02*
G01*
X162822812Y-110893624D01*
X162986784Y-110961544D01*
X163134354Y-111060147D01*
X163259853Y-111185646D01*
X163358456Y-111333216D01*
X163426376Y-111497188D01*
X163461000Y-111671259D01*
X163461000Y-111848741D01*
X163426376Y-112022812D01*
X163358456Y-112186784D01*
X163259853Y-112334354D01*
X163134354Y-112459853D01*
X162986784Y-112558456D01*
X162822812Y-112626376D01*
X162673512Y-112656073D01*
X162648742Y-112661000D01*
X162471258Y-112661000D01*
X162446488Y-112656073D01*
X162297188Y-112626376D01*
X162133216Y-112558456D01*
X161985646Y-112459853D01*
X161860147Y-112334354D01*
X161761544Y-112186784D01*
X161693624Y-112022812D01*
X161659000Y-111848741D01*
X161659000Y-111671259D01*
X161693624Y-111497188D01*
X161761544Y-111333216D01*
X161860147Y-111185646D01*
X161985646Y-111060147D01*
X162133216Y-110961544D01*
X162297188Y-110893624D01*
X162446488Y-110863927D01*
X162471258Y-110859000D01*
X162648742Y-110859000D01*
X162673512Y-110863927D01*
G37*
G36*
X160133512Y-110863927D02*
G01*
X160282812Y-110893624D01*
X160446784Y-110961544D01*
X160594354Y-111060147D01*
X160719853Y-111185646D01*
X160818456Y-111333216D01*
X160886376Y-111497188D01*
X160921000Y-111671259D01*
X160921000Y-111848741D01*
X160886376Y-112022812D01*
X160818456Y-112186784D01*
X160719853Y-112334354D01*
X160594354Y-112459853D01*
X160446784Y-112558456D01*
X160282812Y-112626376D01*
X160133512Y-112656073D01*
X160108742Y-112661000D01*
X159931258Y-112661000D01*
X159906488Y-112656073D01*
X159757188Y-112626376D01*
X159593216Y-112558456D01*
X159445646Y-112459853D01*
X159320147Y-112334354D01*
X159221544Y-112186784D01*
X159153624Y-112022812D01*
X159119000Y-111848741D01*
X159119000Y-111671259D01*
X159153624Y-111497188D01*
X159221544Y-111333216D01*
X159320147Y-111185646D01*
X159445646Y-111060147D01*
X159593216Y-110961544D01*
X159757188Y-110893624D01*
X159906488Y-110863927D01*
X159931258Y-110859000D01*
X160108742Y-110859000D01*
X160133512Y-110863927D01*
G37*
G36*
X155053512Y-110863927D02*
G01*
X155202812Y-110893624D01*
X155366784Y-110961544D01*
X155514354Y-111060147D01*
X155639853Y-111185646D01*
X155738456Y-111333216D01*
X155806376Y-111497188D01*
X155841000Y-111671259D01*
X155841000Y-111848741D01*
X155806376Y-112022812D01*
X155738456Y-112186784D01*
X155639853Y-112334354D01*
X155514354Y-112459853D01*
X155366784Y-112558456D01*
X155202812Y-112626376D01*
X155053512Y-112656073D01*
X155028742Y-112661000D01*
X154851258Y-112661000D01*
X154826488Y-112656073D01*
X154677188Y-112626376D01*
X154513216Y-112558456D01*
X154365646Y-112459853D01*
X154240147Y-112334354D01*
X154141544Y-112186784D01*
X154073624Y-112022812D01*
X154039000Y-111848741D01*
X154039000Y-111671259D01*
X154073624Y-111497188D01*
X154141544Y-111333216D01*
X154240147Y-111185646D01*
X154365646Y-111060147D01*
X154513216Y-110961544D01*
X154677188Y-110893624D01*
X154826488Y-110863927D01*
X154851258Y-110859000D01*
X155028742Y-110859000D01*
X155053512Y-110863927D01*
G37*
G36*
X152513512Y-110863927D02*
G01*
X152662812Y-110893624D01*
X152826784Y-110961544D01*
X152974354Y-111060147D01*
X153099853Y-111185646D01*
X153198456Y-111333216D01*
X153266376Y-111497188D01*
X153301000Y-111671259D01*
X153301000Y-111848741D01*
X153266376Y-112022812D01*
X153198456Y-112186784D01*
X153099853Y-112334354D01*
X152974354Y-112459853D01*
X152826784Y-112558456D01*
X152662812Y-112626376D01*
X152513512Y-112656073D01*
X152488742Y-112661000D01*
X152311258Y-112661000D01*
X152286488Y-112656073D01*
X152137188Y-112626376D01*
X151973216Y-112558456D01*
X151825646Y-112459853D01*
X151700147Y-112334354D01*
X151601544Y-112186784D01*
X151533624Y-112022812D01*
X151499000Y-111848741D01*
X151499000Y-111671259D01*
X151533624Y-111497188D01*
X151601544Y-111333216D01*
X151700147Y-111185646D01*
X151825646Y-111060147D01*
X151973216Y-110961544D01*
X152137188Y-110893624D01*
X152286488Y-110863927D01*
X152311258Y-110859000D01*
X152488742Y-110859000D01*
X152513512Y-110863927D01*
G37*
G36*
X149973512Y-110863927D02*
G01*
X150122812Y-110893624D01*
X150286784Y-110961544D01*
X150434354Y-111060147D01*
X150559853Y-111185646D01*
X150658456Y-111333216D01*
X150726376Y-111497188D01*
X150761000Y-111671259D01*
X150761000Y-111848741D01*
X150726376Y-112022812D01*
X150658456Y-112186784D01*
X150559853Y-112334354D01*
X150434354Y-112459853D01*
X150286784Y-112558456D01*
X150122812Y-112626376D01*
X149973512Y-112656073D01*
X149948742Y-112661000D01*
X149771258Y-112661000D01*
X149746488Y-112656073D01*
X149597188Y-112626376D01*
X149433216Y-112558456D01*
X149285646Y-112459853D01*
X149160147Y-112334354D01*
X149061544Y-112186784D01*
X148993624Y-112022812D01*
X148959000Y-111848741D01*
X148959000Y-111671259D01*
X148993624Y-111497188D01*
X149061544Y-111333216D01*
X149160147Y-111185646D01*
X149285646Y-111060147D01*
X149433216Y-110961544D01*
X149597188Y-110893624D01*
X149746488Y-110863927D01*
X149771258Y-110859000D01*
X149948742Y-110859000D01*
X149973512Y-110863927D01*
G37*
G36*
X157593512Y-110863927D02*
G01*
X157742812Y-110893624D01*
X157906784Y-110961544D01*
X158054354Y-111060147D01*
X158179853Y-111185646D01*
X158278456Y-111333216D01*
X158346376Y-111497188D01*
X158381000Y-111671259D01*
X158381000Y-111848741D01*
X158346376Y-112022812D01*
X158278456Y-112186784D01*
X158179853Y-112334354D01*
X158054354Y-112459853D01*
X157906784Y-112558456D01*
X157742812Y-112626376D01*
X157593512Y-112656073D01*
X157568742Y-112661000D01*
X157391258Y-112661000D01*
X157366488Y-112656073D01*
X157217188Y-112626376D01*
X157053216Y-112558456D01*
X156905646Y-112459853D01*
X156780147Y-112334354D01*
X156681544Y-112186784D01*
X156613624Y-112022812D01*
X156579000Y-111848741D01*
X156579000Y-111671259D01*
X156613624Y-111497188D01*
X156681544Y-111333216D01*
X156780147Y-111185646D01*
X156905646Y-111060147D01*
X157053216Y-110961544D01*
X157217188Y-110893624D01*
X157366488Y-110863927D01*
X157391258Y-110859000D01*
X157568742Y-110859000D01*
X157593512Y-110863927D01*
G37*
G36*
X146888468Y-108099565D02*
G01*
X146927138Y-108111296D01*
X146962777Y-108130346D01*
X146994017Y-108155983D01*
X147019654Y-108187223D01*
X147038704Y-108222862D01*
X147050435Y-108261532D01*
X147055000Y-108307888D01*
X147055000Y-108959112D01*
X147050435Y-109005468D01*
X147038704Y-109044138D01*
X147019654Y-109079777D01*
X146994017Y-109111017D01*
X146962777Y-109136654D01*
X146927138Y-109155704D01*
X146888468Y-109167435D01*
X146842112Y-109172000D01*
X145765888Y-109172000D01*
X145719532Y-109167435D01*
X145680862Y-109155704D01*
X145645223Y-109136654D01*
X145613983Y-109111017D01*
X145588346Y-109079777D01*
X145569296Y-109044138D01*
X145557565Y-109005468D01*
X145553000Y-108959112D01*
X145553000Y-108307888D01*
X145557565Y-108261532D01*
X145569296Y-108222862D01*
X145588346Y-108187223D01*
X145613983Y-108155983D01*
X145645223Y-108130346D01*
X145680862Y-108111296D01*
X145719532Y-108099565D01*
X145765888Y-108095000D01*
X146842112Y-108095000D01*
X146888468Y-108099565D01*
G37*
G36*
X158736999Y-107530737D02*
G01*
X158746608Y-107533652D01*
X158755472Y-107538390D01*
X158763237Y-107544763D01*
X158773448Y-107557206D01*
X158780378Y-107567575D01*
X158797705Y-107584902D01*
X158818080Y-107598515D01*
X158840720Y-107607891D01*
X158864753Y-107612671D01*
X158889257Y-107612670D01*
X158913290Y-107607888D01*
X158935929Y-107598510D01*
X158956302Y-107584895D01*
X158973629Y-107567568D01*
X158980558Y-107557198D01*
X158990763Y-107544763D01*
X158998528Y-107538390D01*
X159007392Y-107533652D01*
X159017001Y-107530737D01*
X159033140Y-107529148D01*
X159520861Y-107529148D01*
X159539199Y-107530954D01*
X159551450Y-107531556D01*
X159569869Y-107531556D01*
X159592149Y-107533750D01*
X159676233Y-107550476D01*
X159697660Y-107556976D01*
X159776858Y-107589780D01*
X159782303Y-107592691D01*
X159782309Y-107592693D01*
X159791169Y-107597429D01*
X159791173Y-107597432D01*
X159796614Y-107600340D01*
X159867899Y-107647971D01*
X159885204Y-107662172D01*
X159945828Y-107722796D01*
X159960029Y-107740101D01*
X160007660Y-107811386D01*
X160010568Y-107816827D01*
X160010571Y-107816831D01*
X160015307Y-107825691D01*
X160015309Y-107825697D01*
X160018220Y-107831142D01*
X160051024Y-107910340D01*
X160057524Y-107931767D01*
X160074250Y-108015851D01*
X160076444Y-108038131D01*
X160076444Y-108056550D01*
X160077046Y-108068801D01*
X160078852Y-108087139D01*
X160078852Y-108574862D01*
X160077046Y-108593199D01*
X160076444Y-108605450D01*
X160076444Y-108623869D01*
X160074250Y-108646149D01*
X160057524Y-108730233D01*
X160051024Y-108751660D01*
X160018220Y-108830858D01*
X160015309Y-108836303D01*
X160015307Y-108836309D01*
X160010571Y-108845169D01*
X160010568Y-108845173D01*
X160007660Y-108850614D01*
X159960029Y-108921899D01*
X159945828Y-108939204D01*
X159885204Y-108999828D01*
X159867899Y-109014029D01*
X159796614Y-109061660D01*
X159791173Y-109064568D01*
X159791169Y-109064571D01*
X159782309Y-109069307D01*
X159782303Y-109069309D01*
X159776858Y-109072220D01*
X159697660Y-109105024D01*
X159676233Y-109111524D01*
X159592149Y-109128250D01*
X159569869Y-109130444D01*
X159551450Y-109130444D01*
X159539199Y-109131046D01*
X159520862Y-109132852D01*
X159033140Y-109132852D01*
X159017001Y-109131263D01*
X159007392Y-109128348D01*
X158998528Y-109123610D01*
X158990763Y-109117237D01*
X158980552Y-109104794D01*
X158973622Y-109094425D01*
X158956295Y-109077098D01*
X158935920Y-109063485D01*
X158913280Y-109054109D01*
X158889247Y-109049329D01*
X158864743Y-109049330D01*
X158840710Y-109054112D01*
X158818071Y-109063490D01*
X158797698Y-109077105D01*
X158780371Y-109094432D01*
X158773442Y-109104802D01*
X158763237Y-109117237D01*
X158755472Y-109123610D01*
X158746608Y-109128348D01*
X158736999Y-109131263D01*
X158720860Y-109132852D01*
X158233138Y-109132852D01*
X158214801Y-109131046D01*
X158202550Y-109130444D01*
X158184131Y-109130444D01*
X158161851Y-109128250D01*
X158077767Y-109111524D01*
X158056340Y-109105024D01*
X157977142Y-109072220D01*
X157971697Y-109069309D01*
X157971691Y-109069307D01*
X157962831Y-109064571D01*
X157962827Y-109064568D01*
X157957386Y-109061660D01*
X157886101Y-109014029D01*
X157868796Y-108999828D01*
X157808172Y-108939204D01*
X157793971Y-108921899D01*
X157746340Y-108850614D01*
X157743432Y-108845173D01*
X157743429Y-108845169D01*
X157738693Y-108836309D01*
X157738691Y-108836303D01*
X157735780Y-108830858D01*
X157702976Y-108751660D01*
X157696476Y-108730233D01*
X157679750Y-108646149D01*
X157677556Y-108623869D01*
X157677556Y-108605450D01*
X157676954Y-108593199D01*
X157675148Y-108574862D01*
X157675148Y-108087139D01*
X157676954Y-108068801D01*
X157677556Y-108056550D01*
X157677556Y-108038131D01*
X157679750Y-108015851D01*
X157696476Y-107931767D01*
X157702976Y-107910340D01*
X157735780Y-107831142D01*
X157738691Y-107825697D01*
X157738693Y-107825691D01*
X157743429Y-107816831D01*
X157743432Y-107816827D01*
X157746340Y-107811386D01*
X157793971Y-107740101D01*
X157808172Y-107722796D01*
X157868796Y-107662172D01*
X157886101Y-107647971D01*
X157957386Y-107600340D01*
X157962827Y-107597432D01*
X157962831Y-107597429D01*
X157971691Y-107592693D01*
X157971697Y-107592691D01*
X157977142Y-107589780D01*
X158056340Y-107556976D01*
X158077767Y-107550476D01*
X158161851Y-107533750D01*
X158184131Y-107531556D01*
X158202550Y-107531556D01*
X158214801Y-107530954D01*
X158233139Y-107529148D01*
X158720860Y-107529148D01*
X158736999Y-107530737D01*
G37*
G36*
X144905591Y-107999085D02*
G01*
X144939569Y-108009393D01*
X144970890Y-108026134D01*
X144998339Y-108048661D01*
X145020866Y-108076110D01*
X145037607Y-108107431D01*
X145047915Y-108141409D01*
X145052000Y-108182890D01*
X145052000Y-108784110D01*
X145047915Y-108825591D01*
X145037607Y-108859569D01*
X145020866Y-108890890D01*
X144998339Y-108918339D01*
X144970890Y-108940866D01*
X144939569Y-108957607D01*
X144905591Y-108967915D01*
X144864110Y-108972000D01*
X144187890Y-108972000D01*
X144146409Y-108967915D01*
X144112431Y-108957607D01*
X144081110Y-108940866D01*
X144053661Y-108918339D01*
X144031134Y-108890890D01*
X144014393Y-108859569D01*
X144004085Y-108825591D01*
X144000000Y-108784110D01*
X144000000Y-108182890D01*
X144004085Y-108141409D01*
X144014393Y-108107431D01*
X144031134Y-108076110D01*
X144053661Y-108048661D01*
X144081110Y-108026134D01*
X144112431Y-108009393D01*
X144146409Y-107999085D01*
X144187890Y-107995000D01*
X144864110Y-107995000D01*
X144905591Y-107999085D01*
G37*
G36*
X163181591Y-107809085D02*
G01*
X163215569Y-107819393D01*
X163246890Y-107836134D01*
X163274339Y-107858661D01*
X163296866Y-107886110D01*
X163313607Y-107917431D01*
X163323915Y-107951409D01*
X163328000Y-107992890D01*
X163328000Y-108669110D01*
X163323915Y-108710591D01*
X163313607Y-108744569D01*
X163296866Y-108775890D01*
X163274339Y-108803339D01*
X163246890Y-108825866D01*
X163215569Y-108842607D01*
X163181591Y-108852915D01*
X163140110Y-108857000D01*
X162538890Y-108857000D01*
X162497409Y-108852915D01*
X162463431Y-108842607D01*
X162432110Y-108825866D01*
X162404661Y-108803339D01*
X162382134Y-108775890D01*
X162365393Y-108744569D01*
X162355085Y-108710591D01*
X162351000Y-108669110D01*
X162351000Y-107992890D01*
X162355085Y-107951409D01*
X162365393Y-107917431D01*
X162382134Y-107886110D01*
X162404661Y-107858661D01*
X162432110Y-107836134D01*
X162463431Y-107819393D01*
X162497409Y-107809085D01*
X162538890Y-107805000D01*
X163140110Y-107805000D01*
X163181591Y-107809085D01*
G37*
G36*
X161606591Y-107809085D02*
G01*
X161640569Y-107819393D01*
X161671890Y-107836134D01*
X161699339Y-107858661D01*
X161721866Y-107886110D01*
X161738607Y-107917431D01*
X161748915Y-107951409D01*
X161753000Y-107992890D01*
X161753000Y-108669110D01*
X161748915Y-108710591D01*
X161738607Y-108744569D01*
X161721866Y-108775890D01*
X161699339Y-108803339D01*
X161671890Y-108825866D01*
X161640569Y-108842607D01*
X161606591Y-108852915D01*
X161565110Y-108857000D01*
X160963890Y-108857000D01*
X160922409Y-108852915D01*
X160888431Y-108842607D01*
X160857110Y-108825866D01*
X160829661Y-108803339D01*
X160807134Y-108775890D01*
X160790393Y-108744569D01*
X160780085Y-108710591D01*
X160776000Y-108669110D01*
X160776000Y-107992890D01*
X160780085Y-107951409D01*
X160790393Y-107917431D01*
X160807134Y-107886110D01*
X160829661Y-107858661D01*
X160857110Y-107836134D01*
X160888431Y-107819393D01*
X160922409Y-107809085D01*
X160963890Y-107805000D01*
X161565110Y-107805000D01*
X161606591Y-107809085D01*
G37*
G36*
X166229591Y-107809085D02*
G01*
X166263569Y-107819393D01*
X166294890Y-107836134D01*
X166322339Y-107858661D01*
X166344866Y-107886110D01*
X166361607Y-107917431D01*
X166371915Y-107951409D01*
X166376000Y-107992890D01*
X166376000Y-108669110D01*
X166371915Y-108710591D01*
X166361607Y-108744569D01*
X166344866Y-108775890D01*
X166322339Y-108803339D01*
X166294890Y-108825866D01*
X166263569Y-108842607D01*
X166229591Y-108852915D01*
X166188110Y-108857000D01*
X165586890Y-108857000D01*
X165545409Y-108852915D01*
X165511431Y-108842607D01*
X165480110Y-108825866D01*
X165452661Y-108803339D01*
X165430134Y-108775890D01*
X165413393Y-108744569D01*
X165403085Y-108710591D01*
X165399000Y-108669110D01*
X165399000Y-107992890D01*
X165403085Y-107951409D01*
X165413393Y-107917431D01*
X165430134Y-107886110D01*
X165452661Y-107858661D01*
X165480110Y-107836134D01*
X165511431Y-107819393D01*
X165545409Y-107809085D01*
X165586890Y-107805000D01*
X166188110Y-107805000D01*
X166229591Y-107809085D01*
G37*
G36*
X164654591Y-107809085D02*
G01*
X164688569Y-107819393D01*
X164719890Y-107836134D01*
X164747339Y-107858661D01*
X164769866Y-107886110D01*
X164786607Y-107917431D01*
X164796915Y-107951409D01*
X164801000Y-107992890D01*
X164801000Y-108669110D01*
X164796915Y-108710591D01*
X164786607Y-108744569D01*
X164769866Y-108775890D01*
X164747339Y-108803339D01*
X164719890Y-108825866D01*
X164688569Y-108842607D01*
X164654591Y-108852915D01*
X164613110Y-108857000D01*
X164011890Y-108857000D01*
X163970409Y-108852915D01*
X163936431Y-108842607D01*
X163905110Y-108825866D01*
X163877661Y-108803339D01*
X163855134Y-108775890D01*
X163838393Y-108744569D01*
X163828085Y-108710591D01*
X163824000Y-108669110D01*
X163824000Y-107992890D01*
X163828085Y-107951409D01*
X163838393Y-107917431D01*
X163855134Y-107886110D01*
X163877661Y-107858661D01*
X163905110Y-107836134D01*
X163936431Y-107819393D01*
X163970409Y-107809085D01*
X164011890Y-107805000D01*
X164613110Y-107805000D01*
X164654591Y-107809085D01*
G37*
G36*
X169439880Y-104185776D02*
G01*
X169820593Y-104261504D01*
X170230249Y-104431189D01*
X170598929Y-104677534D01*
X170912466Y-104991071D01*
X171158811Y-105359751D01*
X171328496Y-105769407D01*
X171379336Y-106025000D01*
X171414345Y-106201000D01*
X171415000Y-106204296D01*
X171415000Y-106647704D01*
X171328496Y-107082593D01*
X171158811Y-107492249D01*
X170912466Y-107860929D01*
X170598929Y-108174466D01*
X170230249Y-108420811D01*
X169820593Y-108590496D01*
X169439880Y-108666224D01*
X169385705Y-108677000D01*
X168942295Y-108677000D01*
X168888120Y-108666224D01*
X168507407Y-108590496D01*
X168097751Y-108420811D01*
X167729071Y-108174466D01*
X167415534Y-107860929D01*
X167169189Y-107492249D01*
X166999504Y-107082593D01*
X166913000Y-106647704D01*
X166913000Y-106204296D01*
X166913656Y-106201000D01*
X166948664Y-106025000D01*
X166999504Y-105769407D01*
X167169189Y-105359751D01*
X167415534Y-104991071D01*
X167729071Y-104677534D01*
X168097751Y-104431189D01*
X168507407Y-104261504D01*
X168888120Y-104185776D01*
X168942295Y-104175000D01*
X169385705Y-104175000D01*
X169439880Y-104185776D01*
G37*
G36*
X141461000Y-108501000D02*
G01*
X140459000Y-108501000D01*
X140459000Y-106899000D01*
X141461000Y-106899000D01*
X141461000Y-108501000D01*
G37*
G36*
X124961000Y-108501000D02*
G01*
X123959000Y-108501000D01*
X123959000Y-106899000D01*
X124961000Y-106899000D01*
X124961000Y-108501000D01*
G37*
G36*
X129461000Y-108501000D02*
G01*
X128459000Y-108501000D01*
X128459000Y-106899000D01*
X129461000Y-106899000D01*
X129461000Y-108501000D01*
G37*
G36*
X126461000Y-108501000D02*
G01*
X125459000Y-108501000D01*
X125459000Y-106899000D01*
X126461000Y-106899000D01*
X126461000Y-108501000D01*
G37*
G36*
X121961000Y-108501000D02*
G01*
X120959000Y-108501000D01*
X120959000Y-106899000D01*
X121961000Y-106899000D01*
X121961000Y-108501000D01*
G37*
G36*
X123461000Y-108501000D02*
G01*
X122459000Y-108501000D01*
X122459000Y-106899000D01*
X123461000Y-106899000D01*
X123461000Y-108501000D01*
G37*
G36*
X120461000Y-108501000D02*
G01*
X119459000Y-108501000D01*
X119459000Y-106899000D01*
X120461000Y-106899000D01*
X120461000Y-108501000D01*
G37*
G36*
X118961000Y-108501000D02*
G01*
X117959000Y-108501000D01*
X117959000Y-106899000D01*
X118961000Y-106899000D01*
X118961000Y-108501000D01*
G37*
G36*
X130961000Y-108501000D02*
G01*
X129959000Y-108501000D01*
X129959000Y-106899000D01*
X130961000Y-106899000D01*
X130961000Y-108501000D01*
G37*
G36*
X132461000Y-108501000D02*
G01*
X131459000Y-108501000D01*
X131459000Y-106899000D01*
X132461000Y-106899000D01*
X132461000Y-108501000D01*
G37*
G36*
X133961000Y-108501000D02*
G01*
X132959000Y-108501000D01*
X132959000Y-106899000D01*
X133961000Y-106899000D01*
X133961000Y-108501000D01*
G37*
G36*
X135461000Y-108501000D02*
G01*
X134459000Y-108501000D01*
X134459000Y-106899000D01*
X135461000Y-106899000D01*
X135461000Y-108501000D01*
G37*
G36*
X136961000Y-108501000D02*
G01*
X135959000Y-108501000D01*
X135959000Y-106899000D01*
X136961000Y-106899000D01*
X136961000Y-108501000D01*
G37*
G36*
X138461000Y-108501000D02*
G01*
X137459000Y-108501000D01*
X137459000Y-106899000D01*
X138461000Y-106899000D01*
X138461000Y-108501000D01*
G37*
G36*
X127961000Y-108501000D02*
G01*
X126959000Y-108501000D01*
X126959000Y-106899000D01*
X127961000Y-106899000D01*
X127961000Y-108501000D01*
G37*
G36*
X139961000Y-108501000D02*
G01*
X138959000Y-108501000D01*
X138959000Y-106899000D01*
X139961000Y-106899000D01*
X139961000Y-108501000D01*
G37*
G36*
X144905591Y-106424085D02*
G01*
X144939569Y-106434393D01*
X144970890Y-106451134D01*
X144998339Y-106473661D01*
X145020866Y-106501110D01*
X145037607Y-106532431D01*
X145047915Y-106566409D01*
X145052000Y-106607890D01*
X145052000Y-107209110D01*
X145047915Y-107250591D01*
X145037607Y-107284569D01*
X145020866Y-107315890D01*
X144998339Y-107343339D01*
X144970890Y-107365866D01*
X144939569Y-107382607D01*
X144905591Y-107392915D01*
X144864110Y-107397000D01*
X144187890Y-107397000D01*
X144146409Y-107392915D01*
X144112431Y-107382607D01*
X144081110Y-107365866D01*
X144053661Y-107343339D01*
X144031134Y-107315890D01*
X144014393Y-107284569D01*
X144004085Y-107250591D01*
X144000000Y-107209110D01*
X144000000Y-106607890D01*
X144004085Y-106566409D01*
X144014393Y-106532431D01*
X144031134Y-106501110D01*
X144053661Y-106473661D01*
X144081110Y-106451134D01*
X144112431Y-106434393D01*
X144146409Y-106424085D01*
X144187890Y-106420000D01*
X144864110Y-106420000D01*
X144905591Y-106424085D01*
G37*
G36*
X146888468Y-106224565D02*
G01*
X146927138Y-106236296D01*
X146962777Y-106255346D01*
X146994017Y-106280983D01*
X147019654Y-106312223D01*
X147038704Y-106347862D01*
X147050435Y-106386532D01*
X147055000Y-106432888D01*
X147055000Y-107084112D01*
X147050435Y-107130468D01*
X147038704Y-107169138D01*
X147019654Y-107204777D01*
X146994017Y-107236017D01*
X146962777Y-107261654D01*
X146927138Y-107280704D01*
X146888468Y-107292435D01*
X146842112Y-107297000D01*
X145765888Y-107297000D01*
X145719532Y-107292435D01*
X145680862Y-107280704D01*
X145645223Y-107261654D01*
X145613983Y-107236017D01*
X145588346Y-107204777D01*
X145569296Y-107169138D01*
X145557565Y-107130468D01*
X145553000Y-107084112D01*
X145553000Y-106432888D01*
X145557565Y-106386532D01*
X145569296Y-106347862D01*
X145588346Y-106312223D01*
X145613983Y-106280983D01*
X145645223Y-106255346D01*
X145680862Y-106236296D01*
X145719532Y-106224565D01*
X145765888Y-106220000D01*
X146842112Y-106220000D01*
X146888468Y-106224565D01*
G37*
G36*
X163225000Y-106355000D02*
G01*
X162063000Y-106355000D01*
X162063000Y-103703000D01*
X163225000Y-103703000D01*
X163225000Y-106355000D01*
G37*
G36*
X161025000Y-106355000D02*
G01*
X159863000Y-106355000D01*
X159863000Y-105603000D01*
X161025000Y-105603000D01*
X161025000Y-106355000D01*
G37*
G36*
X164717591Y-105332085D02*
G01*
X164751569Y-105342393D01*
X164782890Y-105359134D01*
X164810339Y-105381661D01*
X164832866Y-105409110D01*
X164849607Y-105440431D01*
X164859915Y-105474409D01*
X164864000Y-105515890D01*
X164864000Y-106117110D01*
X164859915Y-106158591D01*
X164849607Y-106192569D01*
X164832866Y-106223890D01*
X164810339Y-106251339D01*
X164782890Y-106273866D01*
X164751569Y-106290607D01*
X164717591Y-106300915D01*
X164676110Y-106305000D01*
X163999890Y-106305000D01*
X163958409Y-106300915D01*
X163924431Y-106290607D01*
X163893110Y-106273866D01*
X163865661Y-106251339D01*
X163843134Y-106223890D01*
X163826393Y-106192569D01*
X163816085Y-106158591D01*
X163812000Y-106117110D01*
X163812000Y-105515890D01*
X163816085Y-105474409D01*
X163826393Y-105440431D01*
X163843134Y-105409110D01*
X163865661Y-105381661D01*
X163893110Y-105359134D01*
X163924431Y-105342393D01*
X163958409Y-105332085D01*
X163999890Y-105328000D01*
X164676110Y-105328000D01*
X164717591Y-105332085D01*
G37*
G36*
X159129591Y-105332085D02*
G01*
X159163569Y-105342393D01*
X159194890Y-105359134D01*
X159222339Y-105381661D01*
X159244866Y-105409110D01*
X159261607Y-105440431D01*
X159271915Y-105474409D01*
X159276000Y-105515890D01*
X159276000Y-106117110D01*
X159271915Y-106158591D01*
X159261607Y-106192569D01*
X159244866Y-106223890D01*
X159222339Y-106251339D01*
X159194890Y-106273866D01*
X159163569Y-106290607D01*
X159129591Y-106300915D01*
X159088110Y-106305000D01*
X158411890Y-106305000D01*
X158370409Y-106300915D01*
X158336431Y-106290607D01*
X158305110Y-106273866D01*
X158277661Y-106251339D01*
X158255134Y-106223890D01*
X158238393Y-106192569D01*
X158228085Y-106158591D01*
X158224000Y-106117110D01*
X158224000Y-105515890D01*
X158228085Y-105474409D01*
X158238393Y-105440431D01*
X158255134Y-105409110D01*
X158277661Y-105381661D01*
X158305110Y-105359134D01*
X158336431Y-105342393D01*
X158370409Y-105332085D01*
X158411890Y-105328000D01*
X159088110Y-105328000D01*
X159129591Y-105332085D01*
G37*
G36*
X142511000Y-106201000D02*
G01*
X140909000Y-106201000D01*
X140909000Y-105199000D01*
X142511000Y-105199000D01*
X142511000Y-106201000D01*
G37*
G36*
X150557000Y-105179000D02*
G01*
X148655000Y-105179000D01*
X148655000Y-104077000D01*
X150557000Y-104077000D01*
X150557000Y-105179000D01*
G37*
G36*
X151954591Y-104126085D02*
G01*
X151988569Y-104136393D01*
X152019890Y-104153134D01*
X152047339Y-104175661D01*
X152069866Y-104203110D01*
X152086607Y-104234431D01*
X152096915Y-104268409D01*
X152101000Y-104309890D01*
X152101000Y-104986110D01*
X152096915Y-105027591D01*
X152086607Y-105061569D01*
X152069866Y-105092890D01*
X152047339Y-105120339D01*
X152019890Y-105142866D01*
X151988569Y-105159607D01*
X151954591Y-105169915D01*
X151913110Y-105174000D01*
X151311890Y-105174000D01*
X151270409Y-105169915D01*
X151236431Y-105159607D01*
X151205110Y-105142866D01*
X151177661Y-105120339D01*
X151155134Y-105092890D01*
X151138393Y-105061569D01*
X151128085Y-105027591D01*
X151124000Y-104986110D01*
X151124000Y-104309890D01*
X151128085Y-104268409D01*
X151138393Y-104234431D01*
X151155134Y-104203110D01*
X151177661Y-104175661D01*
X151205110Y-104153134D01*
X151236431Y-104136393D01*
X151270409Y-104126085D01*
X151311890Y-104122000D01*
X151913110Y-104122000D01*
X151954591Y-104126085D01*
G37*
G36*
X153529591Y-104126085D02*
G01*
X153563569Y-104136393D01*
X153594890Y-104153134D01*
X153622339Y-104175661D01*
X153644866Y-104203110D01*
X153661607Y-104234431D01*
X153671915Y-104268409D01*
X153676000Y-104309890D01*
X153676000Y-104986110D01*
X153671915Y-105027591D01*
X153661607Y-105061569D01*
X153644866Y-105092890D01*
X153622339Y-105120339D01*
X153594890Y-105142866D01*
X153563569Y-105159607D01*
X153529591Y-105169915D01*
X153488110Y-105174000D01*
X152886890Y-105174000D01*
X152845409Y-105169915D01*
X152811431Y-105159607D01*
X152780110Y-105142866D01*
X152752661Y-105120339D01*
X152730134Y-105092890D01*
X152713393Y-105061569D01*
X152703085Y-105027591D01*
X152699000Y-104986110D01*
X152699000Y-104309890D01*
X152703085Y-104268409D01*
X152713393Y-104234431D01*
X152730134Y-104203110D01*
X152752661Y-104175661D01*
X152780110Y-104153134D01*
X152811431Y-104136393D01*
X152845409Y-104126085D01*
X152886890Y-104122000D01*
X153488110Y-104122000D01*
X153529591Y-104126085D01*
G37*
G36*
X164717591Y-103757085D02*
G01*
X164751569Y-103767393D01*
X164782890Y-103784134D01*
X164810339Y-103806661D01*
X164832866Y-103834110D01*
X164849607Y-103865431D01*
X164859915Y-103899409D01*
X164864000Y-103940890D01*
X164864000Y-104542110D01*
X164859915Y-104583591D01*
X164849607Y-104617569D01*
X164832866Y-104648890D01*
X164810339Y-104676339D01*
X164782890Y-104698866D01*
X164751569Y-104715607D01*
X164717591Y-104725915D01*
X164676110Y-104730000D01*
X163999890Y-104730000D01*
X163958409Y-104725915D01*
X163924431Y-104715607D01*
X163893110Y-104698866D01*
X163865661Y-104676339D01*
X163843134Y-104648890D01*
X163826393Y-104617569D01*
X163816085Y-104583591D01*
X163812000Y-104542110D01*
X163812000Y-103940890D01*
X163816085Y-103899409D01*
X163826393Y-103865431D01*
X163843134Y-103834110D01*
X163865661Y-103806661D01*
X163893110Y-103784134D01*
X163924431Y-103767393D01*
X163958409Y-103757085D01*
X163999890Y-103753000D01*
X164676110Y-103753000D01*
X164717591Y-103757085D01*
G37*
G36*
X159129591Y-103757085D02*
G01*
X159163569Y-103767393D01*
X159194890Y-103784134D01*
X159222339Y-103806661D01*
X159244866Y-103834110D01*
X159261607Y-103865431D01*
X159271915Y-103899409D01*
X159276000Y-103940890D01*
X159276000Y-104542110D01*
X159271915Y-104583591D01*
X159261607Y-104617569D01*
X159244866Y-104648890D01*
X159222339Y-104676339D01*
X159194890Y-104698866D01*
X159163569Y-104715607D01*
X159129591Y-104725915D01*
X159088110Y-104730000D01*
X158411890Y-104730000D01*
X158370409Y-104725915D01*
X158336431Y-104715607D01*
X158305110Y-104698866D01*
X158277661Y-104676339D01*
X158255134Y-104648890D01*
X158238393Y-104617569D01*
X158228085Y-104583591D01*
X158224000Y-104542110D01*
X158224000Y-103940890D01*
X158228085Y-103899409D01*
X158238393Y-103865431D01*
X158255134Y-103834110D01*
X158277661Y-103806661D01*
X158305110Y-103784134D01*
X158336431Y-103767393D01*
X158370409Y-103757085D01*
X158411890Y-103753000D01*
X159088110Y-103753000D01*
X159129591Y-103757085D01*
G37*
G36*
X142511000Y-104701000D02*
G01*
X140909000Y-104701000D01*
X140909000Y-103699000D01*
X142511000Y-103699000D01*
X142511000Y-104701000D01*
G37*
G36*
X146417591Y-103618085D02*
G01*
X146451569Y-103628393D01*
X146482890Y-103645134D01*
X146510339Y-103667661D01*
X146532866Y-103695110D01*
X146549607Y-103726431D01*
X146559915Y-103760409D01*
X146564000Y-103801890D01*
X146564000Y-104478110D01*
X146559915Y-104519591D01*
X146549607Y-104553569D01*
X146532866Y-104584890D01*
X146510339Y-104612339D01*
X146482890Y-104634866D01*
X146451569Y-104651607D01*
X146417591Y-104661915D01*
X146376110Y-104666000D01*
X145774890Y-104666000D01*
X145733409Y-104661915D01*
X145699431Y-104651607D01*
X145668110Y-104634866D01*
X145640661Y-104612339D01*
X145618134Y-104584890D01*
X145601393Y-104553569D01*
X145591085Y-104519591D01*
X145587000Y-104478110D01*
X145587000Y-103801890D01*
X145591085Y-103760409D01*
X145601393Y-103726431D01*
X145618134Y-103695110D01*
X145640661Y-103667661D01*
X145668110Y-103645134D01*
X145699431Y-103628393D01*
X145733409Y-103618085D01*
X145774890Y-103614000D01*
X146376110Y-103614000D01*
X146417591Y-103618085D01*
G37*
G36*
X144842591Y-103618085D02*
G01*
X144876569Y-103628393D01*
X144907890Y-103645134D01*
X144935339Y-103667661D01*
X144957866Y-103695110D01*
X144974607Y-103726431D01*
X144984915Y-103760409D01*
X144989000Y-103801890D01*
X144989000Y-104478110D01*
X144984915Y-104519591D01*
X144974607Y-104553569D01*
X144957866Y-104584890D01*
X144935339Y-104612339D01*
X144907890Y-104634866D01*
X144876569Y-104651607D01*
X144842591Y-104661915D01*
X144801110Y-104666000D01*
X144199890Y-104666000D01*
X144158409Y-104661915D01*
X144124431Y-104651607D01*
X144093110Y-104634866D01*
X144065661Y-104612339D01*
X144043134Y-104584890D01*
X144026393Y-104553569D01*
X144016085Y-104519591D01*
X144012000Y-104478110D01*
X144012000Y-103801890D01*
X144016085Y-103760409D01*
X144026393Y-103726431D01*
X144043134Y-103695110D01*
X144065661Y-103667661D01*
X144093110Y-103645134D01*
X144124431Y-103628393D01*
X144158409Y-103618085D01*
X144199890Y-103614000D01*
X144801110Y-103614000D01*
X144842591Y-103618085D01*
G37*
G36*
X147953591Y-103681085D02*
G01*
X147987569Y-103691393D01*
X148018890Y-103708134D01*
X148046339Y-103730661D01*
X148068866Y-103758110D01*
X148085607Y-103789431D01*
X148095915Y-103823409D01*
X148100000Y-103864890D01*
X148100000Y-104466110D01*
X148095915Y-104507591D01*
X148085607Y-104541569D01*
X148068866Y-104572890D01*
X148046339Y-104600339D01*
X148018890Y-104622866D01*
X147987569Y-104639607D01*
X147953591Y-104649915D01*
X147912110Y-104654000D01*
X147235890Y-104654000D01*
X147194409Y-104649915D01*
X147160431Y-104639607D01*
X147129110Y-104622866D01*
X147101661Y-104600339D01*
X147079134Y-104572890D01*
X147062393Y-104541569D01*
X147052085Y-104507591D01*
X147048000Y-104466110D01*
X147048000Y-103864890D01*
X147052085Y-103823409D01*
X147062393Y-103789431D01*
X147079134Y-103758110D01*
X147101661Y-103730661D01*
X147129110Y-103708134D01*
X147160431Y-103691393D01*
X147194409Y-103681085D01*
X147235890Y-103677000D01*
X147912110Y-103677000D01*
X147953591Y-103681085D01*
G37*
G36*
X161025000Y-104455000D02*
G01*
X159863000Y-104455000D01*
X159863000Y-103703000D01*
X161025000Y-103703000D01*
X161025000Y-104455000D01*
G37*
G36*
X172164500Y-102521886D02*
G01*
X172165102Y-102534138D01*
X172167649Y-102560000D01*
X172165102Y-102585862D01*
X172164500Y-102598114D01*
X172164500Y-102671406D01*
X172155543Y-102688164D01*
X172151415Y-102699701D01*
X172132040Y-102763569D01*
X172117854Y-102810336D01*
X172057406Y-102923425D01*
X171976054Y-103022554D01*
X171876925Y-103103906D01*
X171763836Y-103164354D01*
X171731904Y-103174040D01*
X171641118Y-103201580D01*
X171577355Y-103207860D01*
X171545474Y-103211000D01*
X170781526Y-103211000D01*
X170749645Y-103207860D01*
X170685882Y-103201580D01*
X170595096Y-103174040D01*
X170563164Y-103164354D01*
X170450075Y-103103906D01*
X170350946Y-103022554D01*
X170269594Y-102923425D01*
X170209146Y-102810336D01*
X170194960Y-102763569D01*
X170175587Y-102699708D01*
X170166213Y-102677075D01*
X170162500Y-102671518D01*
X170162500Y-102598114D01*
X170161898Y-102585862D01*
X170159351Y-102560000D01*
X170161898Y-102534138D01*
X170162500Y-102521886D01*
X170162500Y-101309000D01*
X172164500Y-101309000D01*
X172164500Y-102521886D01*
G37*
G36*
X142511000Y-103201000D02*
G01*
X140909000Y-103201000D01*
X140909000Y-102199000D01*
X142511000Y-102199000D01*
X142511000Y-103201000D01*
G37*
G36*
X146417591Y-102094085D02*
G01*
X146451569Y-102104393D01*
X146482890Y-102121134D01*
X146510339Y-102143661D01*
X146532866Y-102171110D01*
X146549607Y-102202431D01*
X146559915Y-102236409D01*
X146564000Y-102277890D01*
X146564000Y-102954110D01*
X146559915Y-102995591D01*
X146549607Y-103029569D01*
X146532866Y-103060890D01*
X146510339Y-103088339D01*
X146482890Y-103110866D01*
X146451569Y-103127607D01*
X146417591Y-103137915D01*
X146376110Y-103142000D01*
X145774890Y-103142000D01*
X145733409Y-103137915D01*
X145699431Y-103127607D01*
X145668110Y-103110866D01*
X145640661Y-103088339D01*
X145618134Y-103060890D01*
X145601393Y-103029569D01*
X145591085Y-102995591D01*
X145587000Y-102954110D01*
X145587000Y-102277890D01*
X145591085Y-102236409D01*
X145601393Y-102202431D01*
X145618134Y-102171110D01*
X145640661Y-102143661D01*
X145668110Y-102121134D01*
X145699431Y-102104393D01*
X145733409Y-102094085D01*
X145774890Y-102090000D01*
X146376110Y-102090000D01*
X146417591Y-102094085D01*
G37*
G36*
X144842591Y-102094085D02*
G01*
X144876569Y-102104393D01*
X144907890Y-102121134D01*
X144935339Y-102143661D01*
X144957866Y-102171110D01*
X144974607Y-102202431D01*
X144984915Y-102236409D01*
X144989000Y-102277890D01*
X144989000Y-102954110D01*
X144984915Y-102995591D01*
X144974607Y-103029569D01*
X144957866Y-103060890D01*
X144935339Y-103088339D01*
X144907890Y-103110866D01*
X144876569Y-103127607D01*
X144842591Y-103137915D01*
X144801110Y-103142000D01*
X144199890Y-103142000D01*
X144158409Y-103137915D01*
X144124431Y-103127607D01*
X144093110Y-103110866D01*
X144065661Y-103088339D01*
X144043134Y-103060890D01*
X144026393Y-103029569D01*
X144016085Y-102995591D01*
X144012000Y-102954110D01*
X144012000Y-102277890D01*
X144016085Y-102236409D01*
X144026393Y-102202431D01*
X144043134Y-102171110D01*
X144065661Y-102143661D01*
X144093110Y-102121134D01*
X144124431Y-102104393D01*
X144158409Y-102094085D01*
X144199890Y-102090000D01*
X144801110Y-102090000D01*
X144842591Y-102094085D01*
G37*
G36*
X147953591Y-102106085D02*
G01*
X147987569Y-102116393D01*
X148018890Y-102133134D01*
X148046339Y-102155661D01*
X148068866Y-102183110D01*
X148085607Y-102214431D01*
X148095915Y-102248409D01*
X148100000Y-102289890D01*
X148100000Y-102891110D01*
X148095915Y-102932591D01*
X148085607Y-102966569D01*
X148068866Y-102997890D01*
X148046339Y-103025339D01*
X148018890Y-103047866D01*
X147987569Y-103064607D01*
X147953591Y-103074915D01*
X147912110Y-103079000D01*
X147235890Y-103079000D01*
X147194409Y-103074915D01*
X147160431Y-103064607D01*
X147129110Y-103047866D01*
X147101661Y-103025339D01*
X147079134Y-102997890D01*
X147062393Y-102966569D01*
X147052085Y-102932591D01*
X147048000Y-102891110D01*
X147048000Y-102289890D01*
X147052085Y-102248409D01*
X147062393Y-102214431D01*
X147079134Y-102183110D01*
X147101661Y-102155661D01*
X147129110Y-102133134D01*
X147160431Y-102116393D01*
X147194409Y-102106085D01*
X147235890Y-102102000D01*
X147912110Y-102102000D01*
X147953591Y-102106085D01*
G37*
G36*
X161669591Y-101903085D02*
G01*
X161703569Y-101913393D01*
X161734890Y-101930134D01*
X161762339Y-101952661D01*
X161784866Y-101980110D01*
X161801607Y-102011431D01*
X161811915Y-102045409D01*
X161816000Y-102086890D01*
X161816000Y-102688110D01*
X161811915Y-102729591D01*
X161801607Y-102763569D01*
X161784866Y-102794890D01*
X161762339Y-102822339D01*
X161734890Y-102844866D01*
X161703569Y-102861607D01*
X161669591Y-102871915D01*
X161628110Y-102876000D01*
X160951890Y-102876000D01*
X160910409Y-102871915D01*
X160876431Y-102861607D01*
X160845110Y-102844866D01*
X160817661Y-102822339D01*
X160795134Y-102794890D01*
X160778393Y-102763569D01*
X160768085Y-102729591D01*
X160764000Y-102688110D01*
X160764000Y-102086890D01*
X160768085Y-102045409D01*
X160778393Y-102011431D01*
X160795134Y-101980110D01*
X160817661Y-101952661D01*
X160845110Y-101930134D01*
X160876431Y-101913393D01*
X160910409Y-101903085D01*
X160951890Y-101899000D01*
X161628110Y-101899000D01*
X161669591Y-101903085D01*
G37*
G36*
X166293091Y-101649585D02*
G01*
X166327069Y-101659893D01*
X166358390Y-101676634D01*
X166385839Y-101699161D01*
X166408366Y-101726610D01*
X166425107Y-101757931D01*
X166435415Y-101791909D01*
X166439500Y-101833390D01*
X166439500Y-102509610D01*
X166435415Y-102551091D01*
X166425107Y-102585069D01*
X166408366Y-102616390D01*
X166385839Y-102643839D01*
X166358390Y-102666366D01*
X166327069Y-102683107D01*
X166293091Y-102693415D01*
X166251610Y-102697500D01*
X165650390Y-102697500D01*
X165608909Y-102693415D01*
X165574931Y-102683107D01*
X165543610Y-102666366D01*
X165516161Y-102643839D01*
X165493634Y-102616390D01*
X165476893Y-102585069D01*
X165466585Y-102551091D01*
X165462500Y-102509610D01*
X165462500Y-101833390D01*
X165466585Y-101791909D01*
X165476893Y-101757931D01*
X165493634Y-101726610D01*
X165516161Y-101699161D01*
X165543610Y-101676634D01*
X165574931Y-101659893D01*
X165608909Y-101649585D01*
X165650390Y-101645500D01*
X166251610Y-101645500D01*
X166293091Y-101649585D01*
G37*
G36*
X164718091Y-101649585D02*
G01*
X164752069Y-101659893D01*
X164783390Y-101676634D01*
X164810839Y-101699161D01*
X164833366Y-101726610D01*
X164850107Y-101757931D01*
X164860415Y-101791909D01*
X164864500Y-101833390D01*
X164864500Y-102509610D01*
X164860415Y-102551091D01*
X164850107Y-102585069D01*
X164833366Y-102616390D01*
X164810839Y-102643839D01*
X164783390Y-102666366D01*
X164752069Y-102683107D01*
X164718091Y-102693415D01*
X164676610Y-102697500D01*
X164075390Y-102697500D01*
X164033909Y-102693415D01*
X163999931Y-102683107D01*
X163968610Y-102666366D01*
X163941161Y-102643839D01*
X163918634Y-102616390D01*
X163901893Y-102585069D01*
X163891585Y-102551091D01*
X163887500Y-102509610D01*
X163887500Y-101833390D01*
X163891585Y-101791909D01*
X163901893Y-101757931D01*
X163918634Y-101726610D01*
X163941161Y-101699161D01*
X163968610Y-101676634D01*
X163999931Y-101659893D01*
X164033909Y-101649585D01*
X164075390Y-101645500D01*
X164676610Y-101645500D01*
X164718091Y-101649585D01*
G37*
G36*
X150557000Y-102679000D02*
G01*
X148655000Y-102679000D01*
X148655000Y-101577000D01*
X150557000Y-101577000D01*
X150557000Y-102679000D01*
G37*
G36*
X151954591Y-101586085D02*
G01*
X151988569Y-101596393D01*
X152019890Y-101613134D01*
X152047339Y-101635661D01*
X152069866Y-101663110D01*
X152086607Y-101694431D01*
X152096915Y-101728409D01*
X152101000Y-101769890D01*
X152101000Y-102446110D01*
X152096915Y-102487591D01*
X152086607Y-102521569D01*
X152069866Y-102552890D01*
X152047339Y-102580339D01*
X152019890Y-102602866D01*
X151988569Y-102619607D01*
X151954591Y-102629915D01*
X151913110Y-102634000D01*
X151311890Y-102634000D01*
X151270409Y-102629915D01*
X151236431Y-102619607D01*
X151205110Y-102602866D01*
X151177661Y-102580339D01*
X151155134Y-102552890D01*
X151138393Y-102521569D01*
X151128085Y-102487591D01*
X151124000Y-102446110D01*
X151124000Y-101769890D01*
X151128085Y-101728409D01*
X151138393Y-101694431D01*
X151155134Y-101663110D01*
X151177661Y-101635661D01*
X151205110Y-101613134D01*
X151236431Y-101596393D01*
X151270409Y-101586085D01*
X151311890Y-101582000D01*
X151913110Y-101582000D01*
X151954591Y-101586085D01*
G37*
G36*
X153529591Y-101586085D02*
G01*
X153563569Y-101596393D01*
X153594890Y-101613134D01*
X153622339Y-101635661D01*
X153644866Y-101663110D01*
X153661607Y-101694431D01*
X153671915Y-101728409D01*
X153676000Y-101769890D01*
X153676000Y-102446110D01*
X153671915Y-102487591D01*
X153661607Y-102521569D01*
X153644866Y-102552890D01*
X153622339Y-102580339D01*
X153594890Y-102602866D01*
X153563569Y-102619607D01*
X153529591Y-102629915D01*
X153488110Y-102634000D01*
X152886890Y-102634000D01*
X152845409Y-102629915D01*
X152811431Y-102619607D01*
X152780110Y-102602866D01*
X152752661Y-102580339D01*
X152730134Y-102552890D01*
X152713393Y-102521569D01*
X152703085Y-102487591D01*
X152699000Y-102446110D01*
X152699000Y-101769890D01*
X152703085Y-101728409D01*
X152713393Y-101694431D01*
X152730134Y-101663110D01*
X152752661Y-101635661D01*
X152780110Y-101613134D01*
X152811431Y-101596393D01*
X152845409Y-101586085D01*
X152886890Y-101582000D01*
X153488110Y-101582000D01*
X153529591Y-101586085D01*
G37*
G36*
X168689848Y-95813820D02*
G01*
X168689850Y-95813821D01*
X168689851Y-95813821D01*
X168831074Y-95872317D01*
X168831077Y-95872319D01*
X168958169Y-95957239D01*
X169066261Y-96065331D01*
X169144143Y-96181890D01*
X169151183Y-96192426D01*
X169175134Y-96250250D01*
X169209680Y-96333652D01*
X169239500Y-96483569D01*
X169239500Y-96636431D01*
X169211419Y-96777607D01*
X169209679Y-96786351D01*
X169151183Y-96927574D01*
X169151181Y-96927577D01*
X169066261Y-97054669D01*
X168958169Y-97162761D01*
X168900940Y-97201000D01*
X168831074Y-97247683D01*
X168780772Y-97268519D01*
X168759164Y-97280068D01*
X168740222Y-97295614D01*
X168724677Y-97314556D01*
X168713126Y-97336166D01*
X168706013Y-97359615D01*
X168703611Y-97384001D01*
X168706013Y-97408387D01*
X168713126Y-97431836D01*
X168724677Y-97453447D01*
X168740223Y-97472389D01*
X168759165Y-97487934D01*
X168780775Y-97499485D01*
X168804224Y-97506598D01*
X168828610Y-97509000D01*
X169189500Y-97509000D01*
X169189500Y-100611000D01*
X168828610Y-100611000D01*
X168804224Y-100613402D01*
X168780775Y-100620515D01*
X168759164Y-100632066D01*
X168740222Y-100647611D01*
X168724677Y-100666553D01*
X168713126Y-100688164D01*
X168706013Y-100711613D01*
X168703611Y-100735999D01*
X168706013Y-100760385D01*
X168713126Y-100783834D01*
X168724677Y-100805445D01*
X168740222Y-100824387D01*
X168759164Y-100839932D01*
X168780772Y-100851481D01*
X168831074Y-100872317D01*
X168831075Y-100872318D01*
X168958169Y-100957239D01*
X169066261Y-101065331D01*
X169148606Y-101188569D01*
X169151183Y-101192426D01*
X169194463Y-101296915D01*
X169209680Y-101333652D01*
X169239500Y-101483569D01*
X169239500Y-101636431D01*
X169212954Y-101769890D01*
X169209679Y-101786351D01*
X169151183Y-101927574D01*
X169151181Y-101927577D01*
X169066261Y-102054669D01*
X168958169Y-102162761D01*
X168880839Y-102214431D01*
X168831074Y-102247683D01*
X168689851Y-102306179D01*
X168689850Y-102306179D01*
X168689848Y-102306180D01*
X168539931Y-102336000D01*
X168387069Y-102336000D01*
X168237152Y-102306180D01*
X168237150Y-102306179D01*
X168237149Y-102306179D01*
X168095926Y-102247683D01*
X168046161Y-102214431D01*
X167968831Y-102162761D01*
X167860739Y-102054669D01*
X167775819Y-101927577D01*
X167775817Y-101927574D01*
X167717321Y-101786351D01*
X167714047Y-101769890D01*
X167687500Y-101636431D01*
X167687500Y-101483569D01*
X167717320Y-101333652D01*
X167732537Y-101296915D01*
X167775817Y-101192426D01*
X167778394Y-101188569D01*
X167860739Y-101065331D01*
X167968831Y-100957239D01*
X168095925Y-100872318D01*
X168095926Y-100872317D01*
X168146228Y-100851481D01*
X168167836Y-100839932D01*
X168186778Y-100824386D01*
X168202323Y-100805444D01*
X168213874Y-100783834D01*
X168220987Y-100760385D01*
X168223389Y-100735999D01*
X168220987Y-100711613D01*
X168213874Y-100688164D01*
X168202323Y-100666553D01*
X168186777Y-100647611D01*
X168167835Y-100632066D01*
X168146225Y-100620515D01*
X168122776Y-100613402D01*
X168098390Y-100611000D01*
X167737500Y-100611000D01*
X167737500Y-97509000D01*
X168098390Y-97509000D01*
X168122776Y-97506598D01*
X168146225Y-97499485D01*
X168167836Y-97487934D01*
X168186778Y-97472389D01*
X168202323Y-97453447D01*
X168213874Y-97431836D01*
X168220987Y-97408387D01*
X168223389Y-97384001D01*
X168220987Y-97359615D01*
X168213874Y-97336166D01*
X168202323Y-97314555D01*
X168186778Y-97295613D01*
X168167836Y-97280068D01*
X168146228Y-97268519D01*
X168095926Y-97247683D01*
X168026060Y-97201000D01*
X167968831Y-97162761D01*
X167860739Y-97054669D01*
X167775819Y-96927577D01*
X167775817Y-96927574D01*
X167717321Y-96786351D01*
X167715582Y-96777607D01*
X167687500Y-96636431D01*
X167687500Y-96483569D01*
X167717320Y-96333652D01*
X167751866Y-96250250D01*
X167775817Y-96192426D01*
X167782857Y-96181890D01*
X167860739Y-96065331D01*
X167968831Y-95957239D01*
X168095923Y-95872319D01*
X168095926Y-95872317D01*
X168237149Y-95813821D01*
X168237150Y-95813821D01*
X168237152Y-95813820D01*
X168387069Y-95784000D01*
X168539931Y-95784000D01*
X168689848Y-95813820D01*
G37*
G36*
X125611000Y-102241000D02*
G01*
X124409000Y-102241000D01*
X124409000Y-101039000D01*
X125611000Y-101039000D01*
X125611000Y-102241000D01*
G37*
G36*
X127111000Y-102241000D02*
G01*
X125909000Y-102241000D01*
X125909000Y-101039000D01*
X127111000Y-101039000D01*
X127111000Y-102241000D01*
G37*
G36*
X128611000Y-102241000D02*
G01*
X127409000Y-102241000D01*
X127409000Y-101039000D01*
X128611000Y-101039000D01*
X128611000Y-102241000D01*
G37*
G36*
X142511000Y-101701000D02*
G01*
X140909000Y-101701000D01*
X140909000Y-100699000D01*
X142511000Y-100699000D01*
X142511000Y-101701000D01*
G37*
G36*
X161669591Y-100328085D02*
G01*
X161703569Y-100338393D01*
X161734890Y-100355134D01*
X161762339Y-100377661D01*
X161784866Y-100405110D01*
X161801607Y-100436431D01*
X161811915Y-100470409D01*
X161816000Y-100511890D01*
X161816000Y-101113110D01*
X161811915Y-101154591D01*
X161801607Y-101188569D01*
X161784866Y-101219890D01*
X161762339Y-101247339D01*
X161734890Y-101269866D01*
X161703569Y-101286607D01*
X161669591Y-101296915D01*
X161628110Y-101301000D01*
X160951890Y-101301000D01*
X160910409Y-101296915D01*
X160876431Y-101286607D01*
X160845110Y-101269866D01*
X160817661Y-101247339D01*
X160795134Y-101219890D01*
X160778393Y-101188569D01*
X160768085Y-101154591D01*
X160764000Y-101113110D01*
X160764000Y-100511890D01*
X160768085Y-100470409D01*
X160778393Y-100436431D01*
X160795134Y-100405110D01*
X160817661Y-100377661D01*
X160845110Y-100355134D01*
X160876431Y-100338393D01*
X160910409Y-100328085D01*
X160951890Y-100324000D01*
X161628110Y-100324000D01*
X161669591Y-100328085D01*
G37*
G36*
X166172000Y-101058500D02*
G01*
X163520000Y-101058500D01*
X163520000Y-99896500D01*
X166172000Y-99896500D01*
X166172000Y-101058500D01*
G37*
G36*
X172164500Y-100861000D02*
G01*
X170162500Y-100861000D01*
X170162500Y-99259000D01*
X172164500Y-99259000D01*
X172164500Y-100861000D01*
G37*
G36*
X127111000Y-100741000D02*
G01*
X125909000Y-100741000D01*
X125909000Y-99539000D01*
X127111000Y-99539000D01*
X127111000Y-100741000D01*
G37*
G36*
X125611000Y-100741000D02*
G01*
X124409000Y-100741000D01*
X124409000Y-99539000D01*
X125611000Y-99539000D01*
X125611000Y-100741000D01*
G37*
G36*
X128611000Y-100741000D02*
G01*
X127409000Y-100741000D01*
X127409000Y-99539000D01*
X128611000Y-99539000D01*
X128611000Y-100741000D01*
G37*
G36*
X142511000Y-100201000D02*
G01*
X140909000Y-100201000D01*
X140909000Y-99199000D01*
X142511000Y-99199000D01*
X142511000Y-100201000D01*
G37*
G36*
X144842591Y-98792085D02*
G01*
X144876569Y-98802393D01*
X144907890Y-98819134D01*
X144935339Y-98841661D01*
X144957866Y-98869110D01*
X144974607Y-98900431D01*
X144984915Y-98934409D01*
X144989000Y-98975890D01*
X144989000Y-99652110D01*
X144984915Y-99693591D01*
X144974607Y-99727569D01*
X144957866Y-99758890D01*
X144935339Y-99786339D01*
X144907890Y-99808866D01*
X144876569Y-99825607D01*
X144842591Y-99835915D01*
X144801110Y-99840000D01*
X144199890Y-99840000D01*
X144158409Y-99835915D01*
X144124431Y-99825607D01*
X144093110Y-99808866D01*
X144065661Y-99786339D01*
X144043134Y-99758890D01*
X144026393Y-99727569D01*
X144016085Y-99693591D01*
X144012000Y-99652110D01*
X144012000Y-98975890D01*
X144016085Y-98934409D01*
X144026393Y-98900431D01*
X144043134Y-98869110D01*
X144065661Y-98841661D01*
X144093110Y-98819134D01*
X144124431Y-98802393D01*
X144158409Y-98792085D01*
X144199890Y-98788000D01*
X144801110Y-98788000D01*
X144842591Y-98792085D01*
G37*
G36*
X146417591Y-98792085D02*
G01*
X146451569Y-98802393D01*
X146482890Y-98819134D01*
X146510339Y-98841661D01*
X146532866Y-98869110D01*
X146549607Y-98900431D01*
X146559915Y-98934409D01*
X146564000Y-98975890D01*
X146564000Y-99652110D01*
X146559915Y-99693591D01*
X146549607Y-99727569D01*
X146532866Y-99758890D01*
X146510339Y-99786339D01*
X146482890Y-99808866D01*
X146451569Y-99825607D01*
X146417591Y-99835915D01*
X146376110Y-99840000D01*
X145774890Y-99840000D01*
X145733409Y-99835915D01*
X145699431Y-99825607D01*
X145668110Y-99808866D01*
X145640661Y-99786339D01*
X145618134Y-99758890D01*
X145601393Y-99727569D01*
X145591085Y-99693591D01*
X145587000Y-99652110D01*
X145587000Y-98975890D01*
X145591085Y-98934409D01*
X145601393Y-98900431D01*
X145618134Y-98869110D01*
X145640661Y-98841661D01*
X145668110Y-98819134D01*
X145699431Y-98802393D01*
X145733409Y-98792085D01*
X145774890Y-98788000D01*
X146376110Y-98788000D01*
X146417591Y-98792085D01*
G37*
G36*
X125611000Y-99241000D02*
G01*
X124409000Y-99241000D01*
X124409000Y-98039000D01*
X125611000Y-98039000D01*
X125611000Y-99241000D01*
G37*
G36*
X128611000Y-99241000D02*
G01*
X127409000Y-99241000D01*
X127409000Y-98039000D01*
X128611000Y-98039000D01*
X128611000Y-99241000D01*
G37*
G36*
X127111000Y-99241000D02*
G01*
X125909000Y-99241000D01*
X125909000Y-98039000D01*
X127111000Y-98039000D01*
X127111000Y-99241000D01*
G37*
G36*
X172164500Y-98861000D02*
G01*
X170162500Y-98861000D01*
X170162500Y-97259000D01*
X172164500Y-97259000D01*
X172164500Y-98861000D01*
G37*
G36*
X166172000Y-98858500D02*
G01*
X163520000Y-98858500D01*
X163520000Y-97696500D01*
X166172000Y-97696500D01*
X166172000Y-98858500D01*
G37*
G36*
X142511000Y-98701000D02*
G01*
X140909000Y-98701000D01*
X140909000Y-97699000D01*
X142511000Y-97699000D01*
X142511000Y-98701000D01*
G37*
G36*
X161669591Y-97585085D02*
G01*
X161703569Y-97595393D01*
X161734890Y-97612134D01*
X161762339Y-97634661D01*
X161784866Y-97662110D01*
X161801607Y-97693431D01*
X161811915Y-97727409D01*
X161816000Y-97768890D01*
X161816000Y-98370110D01*
X161811915Y-98411591D01*
X161801607Y-98445569D01*
X161784866Y-98476890D01*
X161762339Y-98504339D01*
X161734890Y-98526866D01*
X161703569Y-98543607D01*
X161669591Y-98553915D01*
X161628110Y-98558000D01*
X160951890Y-98558000D01*
X160910409Y-98553915D01*
X160876431Y-98543607D01*
X160845110Y-98526866D01*
X160817661Y-98504339D01*
X160795134Y-98476890D01*
X160778393Y-98445569D01*
X160768085Y-98411591D01*
X160764000Y-98370110D01*
X160764000Y-97768890D01*
X160768085Y-97727409D01*
X160778393Y-97693431D01*
X160795134Y-97662110D01*
X160817661Y-97634661D01*
X160845110Y-97612134D01*
X160876431Y-97595393D01*
X160910409Y-97585085D01*
X160951890Y-97581000D01*
X161628110Y-97581000D01*
X161669591Y-97585085D01*
G37*
G36*
X146417591Y-97268085D02*
G01*
X146451569Y-97278393D01*
X146482890Y-97295134D01*
X146510339Y-97317661D01*
X146532866Y-97345110D01*
X146549607Y-97376431D01*
X146559915Y-97410409D01*
X146564000Y-97451890D01*
X146564000Y-98128110D01*
X146559915Y-98169591D01*
X146549607Y-98203569D01*
X146532866Y-98234890D01*
X146510339Y-98262339D01*
X146482890Y-98284866D01*
X146451569Y-98301607D01*
X146417591Y-98311915D01*
X146376110Y-98316000D01*
X145774890Y-98316000D01*
X145733409Y-98311915D01*
X145699431Y-98301607D01*
X145668110Y-98284866D01*
X145640661Y-98262339D01*
X145618134Y-98234890D01*
X145601393Y-98203569D01*
X145591085Y-98169591D01*
X145587000Y-98128110D01*
X145587000Y-97451890D01*
X145591085Y-97410409D01*
X145601393Y-97376431D01*
X145618134Y-97345110D01*
X145640661Y-97317661D01*
X145668110Y-97295134D01*
X145699431Y-97278393D01*
X145733409Y-97268085D01*
X145774890Y-97264000D01*
X146376110Y-97264000D01*
X146417591Y-97268085D01*
G37*
G36*
X144842591Y-97268085D02*
G01*
X144876569Y-97278393D01*
X144907890Y-97295134D01*
X144935339Y-97317661D01*
X144957866Y-97345110D01*
X144974607Y-97376431D01*
X144984915Y-97410409D01*
X144989000Y-97451890D01*
X144989000Y-98128110D01*
X144984915Y-98169591D01*
X144974607Y-98203569D01*
X144957866Y-98234890D01*
X144935339Y-98262339D01*
X144907890Y-98284866D01*
X144876569Y-98301607D01*
X144842591Y-98311915D01*
X144801110Y-98316000D01*
X144199890Y-98316000D01*
X144158409Y-98311915D01*
X144124431Y-98301607D01*
X144093110Y-98284866D01*
X144065661Y-98262339D01*
X144043134Y-98234890D01*
X144026393Y-98203569D01*
X144016085Y-98169591D01*
X144012000Y-98128110D01*
X144012000Y-97451890D01*
X144016085Y-97410409D01*
X144026393Y-97376431D01*
X144043134Y-97345110D01*
X144065661Y-97317661D01*
X144093110Y-97295134D01*
X144124431Y-97278393D01*
X144158409Y-97268085D01*
X144199890Y-97264000D01*
X144801110Y-97264000D01*
X144842591Y-97268085D01*
G37*
G36*
X152779591Y-97331085D02*
G01*
X152813569Y-97341393D01*
X152844890Y-97358134D01*
X152872339Y-97380661D01*
X152894866Y-97408110D01*
X152911607Y-97439431D01*
X152921915Y-97473409D01*
X152926000Y-97514890D01*
X152926000Y-98116110D01*
X152921915Y-98157591D01*
X152911607Y-98191569D01*
X152894866Y-98222890D01*
X152872339Y-98250339D01*
X152844890Y-98272866D01*
X152813569Y-98289607D01*
X152779591Y-98299915D01*
X152738110Y-98304000D01*
X152061890Y-98304000D01*
X152020409Y-98299915D01*
X151986431Y-98289607D01*
X151955110Y-98272866D01*
X151927661Y-98250339D01*
X151905134Y-98222890D01*
X151888393Y-98191569D01*
X151878085Y-98157591D01*
X151874000Y-98116110D01*
X151874000Y-97514890D01*
X151878085Y-97473409D01*
X151888393Y-97439431D01*
X151905134Y-97408110D01*
X151927661Y-97380661D01*
X151955110Y-97358134D01*
X151986431Y-97341393D01*
X152020409Y-97331085D01*
X152061890Y-97327000D01*
X152738110Y-97327000D01*
X152779591Y-97331085D01*
G37*
G36*
X154175683Y-95980725D02*
G01*
X154206143Y-95989966D01*
X154234223Y-96004974D01*
X154258831Y-96025169D01*
X154279026Y-96049777D01*
X154294034Y-96077857D01*
X154303275Y-96108317D01*
X154307000Y-96146140D01*
X154307000Y-97909860D01*
X154303275Y-97947683D01*
X154294034Y-97978143D01*
X154279026Y-98006223D01*
X154258831Y-98030831D01*
X154234223Y-98051026D01*
X154206143Y-98066034D01*
X154175683Y-98075275D01*
X154137860Y-98079000D01*
X153574140Y-98079000D01*
X153536317Y-98075275D01*
X153505857Y-98066034D01*
X153477777Y-98051026D01*
X153453169Y-98030831D01*
X153432974Y-98006223D01*
X153417966Y-97978143D01*
X153408725Y-97947683D01*
X153405000Y-97909860D01*
X153405000Y-96146140D01*
X153408725Y-96108317D01*
X153417966Y-96077857D01*
X153432974Y-96049777D01*
X153453169Y-96025169D01*
X153477777Y-96004974D01*
X153505857Y-95989966D01*
X153536317Y-95980725D01*
X153574140Y-95977000D01*
X154137860Y-95977000D01*
X154175683Y-95980725D01*
G37*
G36*
X158375683Y-95980725D02*
G01*
X158406143Y-95989966D01*
X158434223Y-96004974D01*
X158458831Y-96025169D01*
X158479026Y-96049777D01*
X158494034Y-96077857D01*
X158503275Y-96108317D01*
X158507000Y-96146140D01*
X158507000Y-97909860D01*
X158503275Y-97947683D01*
X158494034Y-97978143D01*
X158479026Y-98006223D01*
X158458831Y-98030831D01*
X158434223Y-98051026D01*
X158406143Y-98066034D01*
X158375683Y-98075275D01*
X158337860Y-98079000D01*
X157774140Y-98079000D01*
X157736317Y-98075275D01*
X157705857Y-98066034D01*
X157677777Y-98051026D01*
X157653169Y-98030831D01*
X157632974Y-98006223D01*
X157617966Y-97978143D01*
X157608725Y-97947683D01*
X157605000Y-97909860D01*
X157605000Y-96146140D01*
X157608725Y-96108317D01*
X157617966Y-96077857D01*
X157632974Y-96049777D01*
X157653169Y-96025169D01*
X157677777Y-96004974D01*
X157705857Y-95989966D01*
X157736317Y-95980725D01*
X157774140Y-95977000D01*
X158337860Y-95977000D01*
X158375683Y-95980725D01*
G37*
G36*
X142511000Y-97201000D02*
G01*
X140909000Y-97201000D01*
X140909000Y-96199000D01*
X142511000Y-96199000D01*
X142511000Y-97201000D01*
G37*
G36*
X164400591Y-95998085D02*
G01*
X164434569Y-96008393D01*
X164465890Y-96025134D01*
X164493339Y-96047661D01*
X164515866Y-96075110D01*
X164532607Y-96106431D01*
X164542915Y-96140409D01*
X164547000Y-96181890D01*
X164547000Y-96858110D01*
X164542915Y-96899591D01*
X164532607Y-96933569D01*
X164515866Y-96964890D01*
X164493339Y-96992339D01*
X164465890Y-97014866D01*
X164434569Y-97031607D01*
X164400591Y-97041915D01*
X164359110Y-97046000D01*
X163757890Y-97046000D01*
X163716409Y-97041915D01*
X163682431Y-97031607D01*
X163651110Y-97014866D01*
X163623661Y-96992339D01*
X163601134Y-96964890D01*
X163584393Y-96933569D01*
X163574085Y-96899591D01*
X163570000Y-96858110D01*
X163570000Y-96181890D01*
X163574085Y-96140409D01*
X163584393Y-96106431D01*
X163601134Y-96075110D01*
X163623661Y-96047661D01*
X163651110Y-96025134D01*
X163682431Y-96008393D01*
X163716409Y-95998085D01*
X163757890Y-95994000D01*
X164359110Y-95994000D01*
X164400591Y-95998085D01*
G37*
G36*
X165975591Y-95998085D02*
G01*
X166009569Y-96008393D01*
X166040890Y-96025134D01*
X166068339Y-96047661D01*
X166090866Y-96075110D01*
X166107607Y-96106431D01*
X166117915Y-96140409D01*
X166122000Y-96181890D01*
X166122000Y-96858110D01*
X166117915Y-96899591D01*
X166107607Y-96933569D01*
X166090866Y-96964890D01*
X166068339Y-96992339D01*
X166040890Y-97014866D01*
X166009569Y-97031607D01*
X165975591Y-97041915D01*
X165934110Y-97046000D01*
X165332890Y-97046000D01*
X165291409Y-97041915D01*
X165257431Y-97031607D01*
X165226110Y-97014866D01*
X165198661Y-96992339D01*
X165176134Y-96964890D01*
X165159393Y-96933569D01*
X165149085Y-96899591D01*
X165145000Y-96858110D01*
X165145000Y-96181890D01*
X165149085Y-96140409D01*
X165159393Y-96106431D01*
X165176134Y-96075110D01*
X165198661Y-96047661D01*
X165226110Y-96025134D01*
X165257431Y-96008393D01*
X165291409Y-95998085D01*
X165332890Y-95994000D01*
X165934110Y-95994000D01*
X165975591Y-95998085D01*
G37*
G36*
X161669591Y-96010085D02*
G01*
X161703569Y-96020393D01*
X161734890Y-96037134D01*
X161762339Y-96059661D01*
X161784866Y-96087110D01*
X161801607Y-96118431D01*
X161811915Y-96152409D01*
X161816000Y-96193890D01*
X161816000Y-96795110D01*
X161811915Y-96836591D01*
X161801607Y-96870569D01*
X161784866Y-96901890D01*
X161762339Y-96929339D01*
X161734890Y-96951866D01*
X161703569Y-96968607D01*
X161669591Y-96978915D01*
X161628110Y-96983000D01*
X160951890Y-96983000D01*
X160910409Y-96978915D01*
X160876431Y-96968607D01*
X160845110Y-96951866D01*
X160817661Y-96929339D01*
X160795134Y-96901890D01*
X160778393Y-96870569D01*
X160768085Y-96836591D01*
X160764000Y-96795110D01*
X160764000Y-96193890D01*
X160768085Y-96152409D01*
X160778393Y-96118431D01*
X160795134Y-96087110D01*
X160817661Y-96059661D01*
X160845110Y-96037134D01*
X160876431Y-96020393D01*
X160910409Y-96010085D01*
X160951890Y-96006000D01*
X161628110Y-96006000D01*
X161669591Y-96010085D01*
G37*
G36*
X171577355Y-94912140D02*
G01*
X171641118Y-94918420D01*
X171731904Y-94945960D01*
X171763836Y-94955646D01*
X171876925Y-95016094D01*
X171976054Y-95097446D01*
X172057406Y-95196575D01*
X172117854Y-95309664D01*
X172117855Y-95309668D01*
X172151413Y-95420292D01*
X172160787Y-95442925D01*
X172164500Y-95448482D01*
X172164500Y-95521886D01*
X172165102Y-95534138D01*
X172167649Y-95560000D01*
X172165102Y-95585862D01*
X172164500Y-95598114D01*
X172164500Y-96811000D01*
X170162500Y-96811000D01*
X170162500Y-95598114D01*
X170161898Y-95585862D01*
X170159351Y-95560000D01*
X170161898Y-95534138D01*
X170162500Y-95521886D01*
X170162500Y-95448594D01*
X170171457Y-95431836D01*
X170175585Y-95420299D01*
X170209145Y-95309668D01*
X170209146Y-95309664D01*
X170269594Y-95196575D01*
X170350946Y-95097446D01*
X170450075Y-95016094D01*
X170563164Y-94955646D01*
X170595096Y-94945960D01*
X170685882Y-94918420D01*
X170749645Y-94912140D01*
X170781526Y-94909000D01*
X171545474Y-94909000D01*
X171577355Y-94912140D01*
G37*
G36*
X144842591Y-95744085D02*
G01*
X144876569Y-95754393D01*
X144907890Y-95771134D01*
X144935339Y-95793661D01*
X144957866Y-95821110D01*
X144974607Y-95852431D01*
X144984915Y-95886409D01*
X144989000Y-95927890D01*
X144989000Y-96604110D01*
X144984915Y-96645591D01*
X144974607Y-96679569D01*
X144957866Y-96710890D01*
X144935339Y-96738339D01*
X144907890Y-96760866D01*
X144876569Y-96777607D01*
X144842591Y-96787915D01*
X144801110Y-96792000D01*
X144199890Y-96792000D01*
X144158409Y-96787915D01*
X144124431Y-96777607D01*
X144093110Y-96760866D01*
X144065661Y-96738339D01*
X144043134Y-96710890D01*
X144026393Y-96679569D01*
X144016085Y-96645591D01*
X144012000Y-96604110D01*
X144012000Y-95927890D01*
X144016085Y-95886409D01*
X144026393Y-95852431D01*
X144043134Y-95821110D01*
X144065661Y-95793661D01*
X144093110Y-95771134D01*
X144124431Y-95754393D01*
X144158409Y-95744085D01*
X144199890Y-95740000D01*
X144801110Y-95740000D01*
X144842591Y-95744085D01*
G37*
G36*
X146417591Y-95744085D02*
G01*
X146451569Y-95754393D01*
X146482890Y-95771134D01*
X146510339Y-95793661D01*
X146532866Y-95821110D01*
X146549607Y-95852431D01*
X146559915Y-95886409D01*
X146564000Y-95927890D01*
X146564000Y-96604110D01*
X146559915Y-96645591D01*
X146549607Y-96679569D01*
X146532866Y-96710890D01*
X146510339Y-96738339D01*
X146482890Y-96760866D01*
X146451569Y-96777607D01*
X146417591Y-96787915D01*
X146376110Y-96792000D01*
X145774890Y-96792000D01*
X145733409Y-96787915D01*
X145699431Y-96777607D01*
X145668110Y-96760866D01*
X145640661Y-96738339D01*
X145618134Y-96710890D01*
X145601393Y-96679569D01*
X145591085Y-96645591D01*
X145587000Y-96604110D01*
X145587000Y-95927890D01*
X145591085Y-95886409D01*
X145601393Y-95852431D01*
X145618134Y-95821110D01*
X145640661Y-95793661D01*
X145668110Y-95771134D01*
X145699431Y-95754393D01*
X145733409Y-95744085D01*
X145774890Y-95740000D01*
X146376110Y-95740000D01*
X146417591Y-95744085D01*
G37*
G36*
X152779591Y-95756085D02*
G01*
X152813569Y-95766393D01*
X152844890Y-95783134D01*
X152872339Y-95805661D01*
X152894866Y-95833110D01*
X152911607Y-95864431D01*
X152921915Y-95898409D01*
X152926000Y-95939890D01*
X152926000Y-96541110D01*
X152921915Y-96582591D01*
X152911607Y-96616569D01*
X152894866Y-96647890D01*
X152872339Y-96675339D01*
X152844890Y-96697866D01*
X152813569Y-96714607D01*
X152779591Y-96724915D01*
X152738110Y-96729000D01*
X152061890Y-96729000D01*
X152020409Y-96724915D01*
X151986431Y-96714607D01*
X151955110Y-96697866D01*
X151927661Y-96675339D01*
X151905134Y-96647890D01*
X151888393Y-96616569D01*
X151878085Y-96582591D01*
X151874000Y-96541110D01*
X151874000Y-95939890D01*
X151878085Y-95898409D01*
X151888393Y-95864431D01*
X151905134Y-95833110D01*
X151927661Y-95805661D01*
X151955110Y-95783134D01*
X151986431Y-95766393D01*
X152020409Y-95756085D01*
X152061890Y-95752000D01*
X152738110Y-95752000D01*
X152779591Y-95756085D01*
G37*
G36*
X142511000Y-95701000D02*
G01*
X140909000Y-95701000D01*
X140909000Y-94699000D01*
X142511000Y-94699000D01*
X142511000Y-95701000D01*
G37*
G36*
X164400591Y-94474085D02*
G01*
X164434569Y-94484393D01*
X164465890Y-94501134D01*
X164493339Y-94523661D01*
X164515866Y-94551110D01*
X164532607Y-94582431D01*
X164542915Y-94616409D01*
X164547000Y-94657890D01*
X164547000Y-95334110D01*
X164542915Y-95375591D01*
X164532607Y-95409569D01*
X164515866Y-95440890D01*
X164493339Y-95468339D01*
X164465890Y-95490866D01*
X164434569Y-95507607D01*
X164400591Y-95517915D01*
X164359110Y-95522000D01*
X163757890Y-95522000D01*
X163716409Y-95517915D01*
X163682431Y-95507607D01*
X163651110Y-95490866D01*
X163623661Y-95468339D01*
X163601134Y-95440890D01*
X163584393Y-95409569D01*
X163574085Y-95375591D01*
X163570000Y-95334110D01*
X163570000Y-94657890D01*
X163574085Y-94616409D01*
X163584393Y-94582431D01*
X163601134Y-94551110D01*
X163623661Y-94523661D01*
X163651110Y-94501134D01*
X163682431Y-94484393D01*
X163716409Y-94474085D01*
X163757890Y-94470000D01*
X164359110Y-94470000D01*
X164400591Y-94474085D01*
G37*
G36*
X165975591Y-94474085D02*
G01*
X166009569Y-94484393D01*
X166040890Y-94501134D01*
X166068339Y-94523661D01*
X166090866Y-94551110D01*
X166107607Y-94582431D01*
X166117915Y-94616409D01*
X166122000Y-94657890D01*
X166122000Y-95334110D01*
X166117915Y-95375591D01*
X166107607Y-95409569D01*
X166090866Y-95440890D01*
X166068339Y-95468339D01*
X166040890Y-95490866D01*
X166009569Y-95507607D01*
X165975591Y-95517915D01*
X165934110Y-95522000D01*
X165332890Y-95522000D01*
X165291409Y-95517915D01*
X165257431Y-95507607D01*
X165226110Y-95490866D01*
X165198661Y-95468339D01*
X165176134Y-95440890D01*
X165159393Y-95409569D01*
X165149085Y-95375591D01*
X165145000Y-95334110D01*
X165145000Y-94657890D01*
X165149085Y-94616409D01*
X165159393Y-94582431D01*
X165176134Y-94551110D01*
X165198661Y-94523661D01*
X165226110Y-94501134D01*
X165257431Y-94484393D01*
X165291409Y-94474085D01*
X165332890Y-94470000D01*
X165934110Y-94470000D01*
X165975591Y-94474085D01*
G37*
G36*
X146417591Y-94220085D02*
G01*
X146451569Y-94230393D01*
X146482890Y-94247134D01*
X146510339Y-94269661D01*
X146532866Y-94297110D01*
X146549607Y-94328431D01*
X146559915Y-94362409D01*
X146564000Y-94403890D01*
X146564000Y-95080110D01*
X146559915Y-95121591D01*
X146549607Y-95155569D01*
X146532866Y-95186890D01*
X146510339Y-95214339D01*
X146482890Y-95236866D01*
X146451569Y-95253607D01*
X146417591Y-95263915D01*
X146376110Y-95268000D01*
X145774890Y-95268000D01*
X145733409Y-95263915D01*
X145699431Y-95253607D01*
X145668110Y-95236866D01*
X145640661Y-95214339D01*
X145618134Y-95186890D01*
X145601393Y-95155569D01*
X145591085Y-95121591D01*
X145587000Y-95080110D01*
X145587000Y-94403890D01*
X145591085Y-94362409D01*
X145601393Y-94328431D01*
X145618134Y-94297110D01*
X145640661Y-94269661D01*
X145668110Y-94247134D01*
X145699431Y-94230393D01*
X145733409Y-94220085D01*
X145774890Y-94216000D01*
X146376110Y-94216000D01*
X146417591Y-94220085D01*
G37*
G36*
X144842591Y-94220085D02*
G01*
X144876569Y-94230393D01*
X144907890Y-94247134D01*
X144935339Y-94269661D01*
X144957866Y-94297110D01*
X144974607Y-94328431D01*
X144984915Y-94362409D01*
X144989000Y-94403890D01*
X144989000Y-95080110D01*
X144984915Y-95121591D01*
X144974607Y-95155569D01*
X144957866Y-95186890D01*
X144935339Y-95214339D01*
X144907890Y-95236866D01*
X144876569Y-95253607D01*
X144842591Y-95263915D01*
X144801110Y-95268000D01*
X144199890Y-95268000D01*
X144158409Y-95263915D01*
X144124431Y-95253607D01*
X144093110Y-95236866D01*
X144065661Y-95214339D01*
X144043134Y-95186890D01*
X144026393Y-95155569D01*
X144016085Y-95121591D01*
X144012000Y-95080110D01*
X144012000Y-94403890D01*
X144016085Y-94362409D01*
X144026393Y-94328431D01*
X144043134Y-94297110D01*
X144065661Y-94269661D01*
X144093110Y-94247134D01*
X144124431Y-94230393D01*
X144158409Y-94220085D01*
X144199890Y-94216000D01*
X144801110Y-94216000D01*
X144842591Y-94220085D01*
G37*
G36*
X149465591Y-94220085D02*
G01*
X149499569Y-94230393D01*
X149530890Y-94247134D01*
X149558339Y-94269661D01*
X149580866Y-94297110D01*
X149597607Y-94328431D01*
X149607915Y-94362409D01*
X149612000Y-94403890D01*
X149612000Y-95080110D01*
X149607915Y-95121591D01*
X149597607Y-95155569D01*
X149580866Y-95186890D01*
X149558339Y-95214339D01*
X149530890Y-95236866D01*
X149499569Y-95253607D01*
X149465591Y-95263915D01*
X149424110Y-95268000D01*
X148822890Y-95268000D01*
X148781409Y-95263915D01*
X148747431Y-95253607D01*
X148716110Y-95236866D01*
X148688661Y-95214339D01*
X148666134Y-95186890D01*
X148649393Y-95155569D01*
X148639085Y-95121591D01*
X148635000Y-95080110D01*
X148635000Y-94403890D01*
X148639085Y-94362409D01*
X148649393Y-94328431D01*
X148666134Y-94297110D01*
X148688661Y-94269661D01*
X148716110Y-94247134D01*
X148747431Y-94230393D01*
X148781409Y-94220085D01*
X148822890Y-94216000D01*
X149424110Y-94216000D01*
X149465591Y-94220085D01*
G37*
G36*
X147890591Y-94220085D02*
G01*
X147924569Y-94230393D01*
X147955890Y-94247134D01*
X147983339Y-94269661D01*
X148005866Y-94297110D01*
X148022607Y-94328431D01*
X148032915Y-94362409D01*
X148037000Y-94403890D01*
X148037000Y-95080110D01*
X148032915Y-95121591D01*
X148022607Y-95155569D01*
X148005866Y-95186890D01*
X147983339Y-95214339D01*
X147955890Y-95236866D01*
X147924569Y-95253607D01*
X147890591Y-95263915D01*
X147849110Y-95268000D01*
X147247890Y-95268000D01*
X147206409Y-95263915D01*
X147172431Y-95253607D01*
X147141110Y-95236866D01*
X147113661Y-95214339D01*
X147091134Y-95186890D01*
X147074393Y-95155569D01*
X147064085Y-95121591D01*
X147060000Y-95080110D01*
X147060000Y-94403890D01*
X147064085Y-94362409D01*
X147074393Y-94328431D01*
X147091134Y-94297110D01*
X147113661Y-94269661D01*
X147141110Y-94247134D01*
X147172431Y-94230393D01*
X147206409Y-94220085D01*
X147247890Y-94216000D01*
X147849110Y-94216000D01*
X147890591Y-94220085D01*
G37*
G36*
X142511000Y-94201000D02*
G01*
X140909000Y-94201000D01*
X140909000Y-93199000D01*
X142511000Y-93199000D01*
X142511000Y-94201000D01*
G37*
G36*
X169439880Y-89453776D02*
G01*
X169820593Y-89529504D01*
X170230249Y-89699189D01*
X170598929Y-89945534D01*
X170912466Y-90259071D01*
X171158811Y-90627751D01*
X171328496Y-91037407D01*
X171415000Y-91472296D01*
X171415000Y-91915704D01*
X171328496Y-92350593D01*
X171158811Y-92760249D01*
X170912466Y-93128929D01*
X170598929Y-93442466D01*
X170230249Y-93688811D01*
X169820593Y-93858496D01*
X169439880Y-93934224D01*
X169385705Y-93945000D01*
X168942295Y-93945000D01*
X168888120Y-93934224D01*
X168507407Y-93858496D01*
X168097751Y-93688811D01*
X167729071Y-93442466D01*
X167415534Y-93128929D01*
X167169189Y-92760249D01*
X166999504Y-92350593D01*
X166913000Y-91915704D01*
X166913000Y-91472296D01*
X166999504Y-91037407D01*
X167169189Y-90627751D01*
X167415534Y-90259071D01*
X167729071Y-89945534D01*
X168097751Y-89699189D01*
X168507407Y-89529504D01*
X168888120Y-89453776D01*
X168942295Y-89443000D01*
X169385705Y-89443000D01*
X169439880Y-89453776D01*
G37*
G36*
X146417591Y-91680085D02*
G01*
X146451569Y-91690393D01*
X146482890Y-91707134D01*
X146510339Y-91729661D01*
X146532866Y-91757110D01*
X146549607Y-91788431D01*
X146559915Y-91822409D01*
X146564000Y-91863890D01*
X146564000Y-92540110D01*
X146559915Y-92581591D01*
X146549607Y-92615569D01*
X146532866Y-92646890D01*
X146510339Y-92674339D01*
X146482890Y-92696866D01*
X146451569Y-92713607D01*
X146417591Y-92723915D01*
X146376110Y-92728000D01*
X145774890Y-92728000D01*
X145733409Y-92723915D01*
X145699431Y-92713607D01*
X145668110Y-92696866D01*
X145640661Y-92674339D01*
X145618134Y-92646890D01*
X145601393Y-92615569D01*
X145591085Y-92581591D01*
X145587000Y-92540110D01*
X145587000Y-91863890D01*
X145591085Y-91822409D01*
X145601393Y-91788431D01*
X145618134Y-91757110D01*
X145640661Y-91729661D01*
X145668110Y-91707134D01*
X145699431Y-91690393D01*
X145733409Y-91680085D01*
X145774890Y-91676000D01*
X146376110Y-91676000D01*
X146417591Y-91680085D01*
G37*
G36*
X144842591Y-91680085D02*
G01*
X144876569Y-91690393D01*
X144907890Y-91707134D01*
X144935339Y-91729661D01*
X144957866Y-91757110D01*
X144974607Y-91788431D01*
X144984915Y-91822409D01*
X144989000Y-91863890D01*
X144989000Y-92540110D01*
X144984915Y-92581591D01*
X144974607Y-92615569D01*
X144957866Y-92646890D01*
X144935339Y-92674339D01*
X144907890Y-92696866D01*
X144876569Y-92713607D01*
X144842591Y-92723915D01*
X144801110Y-92728000D01*
X144199890Y-92728000D01*
X144158409Y-92723915D01*
X144124431Y-92713607D01*
X144093110Y-92696866D01*
X144065661Y-92674339D01*
X144043134Y-92646890D01*
X144026393Y-92615569D01*
X144016085Y-92581591D01*
X144012000Y-92540110D01*
X144012000Y-91863890D01*
X144016085Y-91822409D01*
X144026393Y-91788431D01*
X144043134Y-91757110D01*
X144065661Y-91729661D01*
X144093110Y-91707134D01*
X144124431Y-91690393D01*
X144158409Y-91680085D01*
X144199890Y-91676000D01*
X144801110Y-91676000D01*
X144842591Y-91680085D01*
G37*
G36*
X142511000Y-92701000D02*
G01*
X140909000Y-92701000D01*
X140909000Y-91699000D01*
X142511000Y-91699000D01*
X142511000Y-92701000D01*
G37*
G36*
X152779591Y-91489085D02*
G01*
X152813569Y-91499393D01*
X152844890Y-91516134D01*
X152872339Y-91538661D01*
X152894866Y-91566110D01*
X152911607Y-91597431D01*
X152921915Y-91631409D01*
X152926000Y-91672890D01*
X152926000Y-92274110D01*
X152921915Y-92315591D01*
X152911607Y-92349569D01*
X152894866Y-92380890D01*
X152872339Y-92408339D01*
X152844890Y-92430866D01*
X152813569Y-92447607D01*
X152779591Y-92457915D01*
X152738110Y-92462000D01*
X152061890Y-92462000D01*
X152020409Y-92457915D01*
X151986431Y-92447607D01*
X151955110Y-92430866D01*
X151927661Y-92408339D01*
X151905134Y-92380890D01*
X151888393Y-92349569D01*
X151878085Y-92315591D01*
X151874000Y-92274110D01*
X151874000Y-91672890D01*
X151878085Y-91631409D01*
X151888393Y-91597431D01*
X151905134Y-91566110D01*
X151927661Y-91538661D01*
X151955110Y-91516134D01*
X151986431Y-91499393D01*
X152020409Y-91489085D01*
X152061890Y-91485000D01*
X152738110Y-91485000D01*
X152779591Y-91489085D01*
G37*
G36*
X154175683Y-90138725D02*
G01*
X154206143Y-90147966D01*
X154234223Y-90162974D01*
X154258831Y-90183169D01*
X154279026Y-90207777D01*
X154294034Y-90235857D01*
X154303275Y-90266317D01*
X154307000Y-90304140D01*
X154307000Y-92067860D01*
X154303275Y-92105683D01*
X154294034Y-92136143D01*
X154279026Y-92164223D01*
X154258831Y-92188831D01*
X154234223Y-92209026D01*
X154206143Y-92224034D01*
X154175683Y-92233275D01*
X154137860Y-92237000D01*
X153574140Y-92237000D01*
X153536317Y-92233275D01*
X153505857Y-92224034D01*
X153477777Y-92209026D01*
X153453169Y-92188831D01*
X153432974Y-92164223D01*
X153417966Y-92136143D01*
X153408725Y-92105683D01*
X153405000Y-92067860D01*
X153405000Y-90304140D01*
X153408725Y-90266317D01*
X153417966Y-90235857D01*
X153432974Y-90207777D01*
X153453169Y-90183169D01*
X153477777Y-90162974D01*
X153505857Y-90147966D01*
X153536317Y-90138725D01*
X153574140Y-90135000D01*
X154137860Y-90135000D01*
X154175683Y-90138725D01*
G37*
G36*
X158375683Y-90138725D02*
G01*
X158406143Y-90147966D01*
X158434223Y-90162974D01*
X158458831Y-90183169D01*
X158479026Y-90207777D01*
X158494034Y-90235857D01*
X158503275Y-90266317D01*
X158507000Y-90304140D01*
X158507000Y-92067860D01*
X158503275Y-92105683D01*
X158494034Y-92136143D01*
X158479026Y-92164223D01*
X158458831Y-92188831D01*
X158434223Y-92209026D01*
X158406143Y-92224034D01*
X158375683Y-92233275D01*
X158337860Y-92237000D01*
X157774140Y-92237000D01*
X157736317Y-92233275D01*
X157705857Y-92224034D01*
X157677777Y-92209026D01*
X157653169Y-92188831D01*
X157632974Y-92164223D01*
X157617966Y-92136143D01*
X157608725Y-92105683D01*
X157605000Y-92067860D01*
X157605000Y-90304140D01*
X157608725Y-90266317D01*
X157617966Y-90235857D01*
X157632974Y-90207777D01*
X157653169Y-90183169D01*
X157677777Y-90162974D01*
X157705857Y-90147966D01*
X157736317Y-90138725D01*
X157774140Y-90135000D01*
X158337860Y-90135000D01*
X158375683Y-90138725D01*
G37*
G36*
X144842591Y-90156085D02*
G01*
X144876569Y-90166393D01*
X144907890Y-90183134D01*
X144935339Y-90205661D01*
X144957866Y-90233110D01*
X144974607Y-90264431D01*
X144984915Y-90298409D01*
X144989000Y-90339890D01*
X144989000Y-91016110D01*
X144984915Y-91057591D01*
X144974607Y-91091569D01*
X144957866Y-91122890D01*
X144935339Y-91150339D01*
X144907890Y-91172866D01*
X144876569Y-91189607D01*
X144842591Y-91199915D01*
X144801110Y-91204000D01*
X144199890Y-91204000D01*
X144158409Y-91199915D01*
X144124431Y-91189607D01*
X144093110Y-91172866D01*
X144065661Y-91150339D01*
X144043134Y-91122890D01*
X144026393Y-91091569D01*
X144016085Y-91057591D01*
X144012000Y-91016110D01*
X144012000Y-90339890D01*
X144016085Y-90298409D01*
X144026393Y-90264431D01*
X144043134Y-90233110D01*
X144065661Y-90205661D01*
X144093110Y-90183134D01*
X144124431Y-90166393D01*
X144158409Y-90156085D01*
X144199890Y-90152000D01*
X144801110Y-90152000D01*
X144842591Y-90156085D01*
G37*
G36*
X146417591Y-90156085D02*
G01*
X146451569Y-90166393D01*
X146482890Y-90183134D01*
X146510339Y-90205661D01*
X146532866Y-90233110D01*
X146549607Y-90264431D01*
X146559915Y-90298409D01*
X146564000Y-90339890D01*
X146564000Y-91016110D01*
X146559915Y-91057591D01*
X146549607Y-91091569D01*
X146532866Y-91122890D01*
X146510339Y-91150339D01*
X146482890Y-91172866D01*
X146451569Y-91189607D01*
X146417591Y-91199915D01*
X146376110Y-91204000D01*
X145774890Y-91204000D01*
X145733409Y-91199915D01*
X145699431Y-91189607D01*
X145668110Y-91172866D01*
X145640661Y-91150339D01*
X145618134Y-91122890D01*
X145601393Y-91091569D01*
X145591085Y-91057591D01*
X145587000Y-91016110D01*
X145587000Y-90339890D01*
X145591085Y-90298409D01*
X145601393Y-90264431D01*
X145618134Y-90233110D01*
X145640661Y-90205661D01*
X145668110Y-90183134D01*
X145699431Y-90166393D01*
X145733409Y-90156085D01*
X145774890Y-90152000D01*
X146376110Y-90152000D01*
X146417591Y-90156085D01*
G37*
G36*
X138461000Y-91001000D02*
G01*
X137459000Y-91001000D01*
X137459000Y-89399000D01*
X138461000Y-89399000D01*
X138461000Y-91001000D01*
G37*
G36*
X135461000Y-91001000D02*
G01*
X134459000Y-91001000D01*
X134459000Y-89399000D01*
X135461000Y-89399000D01*
X135461000Y-91001000D01*
G37*
G36*
X141461000Y-91001000D02*
G01*
X140459000Y-91001000D01*
X140459000Y-89399000D01*
X141461000Y-89399000D01*
X141461000Y-91001000D01*
G37*
G36*
X124961000Y-91001000D02*
G01*
X123959000Y-91001000D01*
X123959000Y-89399000D01*
X124961000Y-89399000D01*
X124961000Y-91001000D01*
G37*
G36*
X126461000Y-91001000D02*
G01*
X125459000Y-91001000D01*
X125459000Y-89399000D01*
X126461000Y-89399000D01*
X126461000Y-91001000D01*
G37*
G36*
X133961000Y-91001000D02*
G01*
X132959000Y-91001000D01*
X132959000Y-89399000D01*
X133961000Y-89399000D01*
X133961000Y-91001000D01*
G37*
G36*
X139961000Y-91001000D02*
G01*
X138959000Y-91001000D01*
X138959000Y-89399000D01*
X139961000Y-89399000D01*
X139961000Y-91001000D01*
G37*
G36*
X130961000Y-91001000D02*
G01*
X129959000Y-91001000D01*
X129959000Y-89399000D01*
X130961000Y-89399000D01*
X130961000Y-91001000D01*
G37*
G36*
X132461000Y-91001000D02*
G01*
X131459000Y-91001000D01*
X131459000Y-89399000D01*
X132461000Y-89399000D01*
X132461000Y-91001000D01*
G37*
G36*
X123461000Y-91001000D02*
G01*
X122459000Y-91001000D01*
X122459000Y-89399000D01*
X123461000Y-89399000D01*
X123461000Y-91001000D01*
G37*
G36*
X127961000Y-91001000D02*
G01*
X126959000Y-91001000D01*
X126959000Y-89399000D01*
X127961000Y-89399000D01*
X127961000Y-91001000D01*
G37*
G36*
X121961000Y-91001000D02*
G01*
X120959000Y-91001000D01*
X120959000Y-89399000D01*
X121961000Y-89399000D01*
X121961000Y-91001000D01*
G37*
G36*
X120461000Y-91001000D02*
G01*
X119459000Y-91001000D01*
X119459000Y-89399000D01*
X120461000Y-89399000D01*
X120461000Y-91001000D01*
G37*
G36*
X118961000Y-91001000D02*
G01*
X117959000Y-91001000D01*
X117959000Y-89399000D01*
X118961000Y-89399000D01*
X118961000Y-91001000D01*
G37*
G36*
X129461000Y-91001000D02*
G01*
X128459000Y-91001000D01*
X128459000Y-89399000D01*
X129461000Y-89399000D01*
X129461000Y-91001000D01*
G37*
G36*
X136961000Y-91001000D02*
G01*
X135959000Y-91001000D01*
X135959000Y-89399000D01*
X136961000Y-89399000D01*
X136961000Y-91001000D01*
G37*
G36*
X152779591Y-89914085D02*
G01*
X152813569Y-89924393D01*
X152844890Y-89941134D01*
X152872339Y-89963661D01*
X152894866Y-89991110D01*
X152911607Y-90022431D01*
X152921915Y-90056409D01*
X152926000Y-90097890D01*
X152926000Y-90699110D01*
X152921915Y-90740591D01*
X152911607Y-90774569D01*
X152894866Y-90805890D01*
X152872339Y-90833339D01*
X152844890Y-90855866D01*
X152813569Y-90872607D01*
X152779591Y-90882915D01*
X152738110Y-90887000D01*
X152061890Y-90887000D01*
X152020409Y-90882915D01*
X151986431Y-90872607D01*
X151955110Y-90855866D01*
X151927661Y-90833339D01*
X151905134Y-90805890D01*
X151888393Y-90774569D01*
X151878085Y-90740591D01*
X151874000Y-90699110D01*
X151874000Y-90097890D01*
X151878085Y-90056409D01*
X151888393Y-90022431D01*
X151905134Y-89991110D01*
X151927661Y-89963661D01*
X151955110Y-89941134D01*
X151986431Y-89924393D01*
X152020409Y-89914085D01*
X152061890Y-89910000D01*
X152738110Y-89910000D01*
X152779591Y-89914085D01*
G37*
G36*
X120281000Y-87261000D02*
G01*
X118479000Y-87261000D01*
X118479000Y-85459000D01*
X120281000Y-85459000D01*
X120281000Y-87261000D01*
G37*
G36*
X127113512Y-85463927D02*
G01*
X127262812Y-85493624D01*
X127426784Y-85561544D01*
X127574354Y-85660147D01*
X127699853Y-85785646D01*
X127798456Y-85933216D01*
X127866376Y-86097188D01*
X127901000Y-86271259D01*
X127901000Y-86448741D01*
X127866376Y-86622812D01*
X127798456Y-86786784D01*
X127699853Y-86934354D01*
X127574354Y-87059853D01*
X127426784Y-87158456D01*
X127262812Y-87226376D01*
X127113512Y-87256073D01*
X127088742Y-87261000D01*
X126911258Y-87261000D01*
X126886488Y-87256073D01*
X126737188Y-87226376D01*
X126573216Y-87158456D01*
X126425646Y-87059853D01*
X126300147Y-86934354D01*
X126201544Y-86786784D01*
X126133624Y-86622812D01*
X126099000Y-86448741D01*
X126099000Y-86271259D01*
X126133624Y-86097188D01*
X126201544Y-85933216D01*
X126300147Y-85785646D01*
X126425646Y-85660147D01*
X126573216Y-85561544D01*
X126737188Y-85493624D01*
X126886488Y-85463927D01*
X126911258Y-85459000D01*
X127088742Y-85459000D01*
X127113512Y-85463927D01*
G37*
G36*
X124573512Y-85463927D02*
G01*
X124722812Y-85493624D01*
X124886784Y-85561544D01*
X125034354Y-85660147D01*
X125159853Y-85785646D01*
X125258456Y-85933216D01*
X125326376Y-86097188D01*
X125361000Y-86271259D01*
X125361000Y-86448741D01*
X125326376Y-86622812D01*
X125258456Y-86786784D01*
X125159853Y-86934354D01*
X125034354Y-87059853D01*
X124886784Y-87158456D01*
X124722812Y-87226376D01*
X124573512Y-87256073D01*
X124548742Y-87261000D01*
X124371258Y-87261000D01*
X124346488Y-87256073D01*
X124197188Y-87226376D01*
X124033216Y-87158456D01*
X123885646Y-87059853D01*
X123760147Y-86934354D01*
X123661544Y-86786784D01*
X123593624Y-86622812D01*
X123559000Y-86448741D01*
X123559000Y-86271259D01*
X123593624Y-86097188D01*
X123661544Y-85933216D01*
X123760147Y-85785646D01*
X123885646Y-85660147D01*
X124033216Y-85561544D01*
X124197188Y-85493624D01*
X124346488Y-85463927D01*
X124371258Y-85459000D01*
X124548742Y-85459000D01*
X124573512Y-85463927D01*
G37*
G36*
X122033512Y-85463927D02*
G01*
X122182812Y-85493624D01*
X122346784Y-85561544D01*
X122494354Y-85660147D01*
X122619853Y-85785646D01*
X122718456Y-85933216D01*
X122786376Y-86097188D01*
X122821000Y-86271259D01*
X122821000Y-86448741D01*
X122786376Y-86622812D01*
X122718456Y-86786784D01*
X122619853Y-86934354D01*
X122494354Y-87059853D01*
X122346784Y-87158456D01*
X122182812Y-87226376D01*
X122033512Y-87256073D01*
X122008742Y-87261000D01*
X121831258Y-87261000D01*
X121806488Y-87256073D01*
X121657188Y-87226376D01*
X121493216Y-87158456D01*
X121345646Y-87059853D01*
X121220147Y-86934354D01*
X121121544Y-86786784D01*
X121053624Y-86622812D01*
X121019000Y-86448741D01*
X121019000Y-86271259D01*
X121053624Y-86097188D01*
X121121544Y-85933216D01*
X121220147Y-85785646D01*
X121345646Y-85660147D01*
X121493216Y-85561544D01*
X121657188Y-85493624D01*
X121806488Y-85463927D01*
X121831258Y-85459000D01*
X122008742Y-85459000D01*
X122033512Y-85463927D01*
G37*
G36*
X165213512Y-85463927D02*
G01*
X165362812Y-85493624D01*
X165526784Y-85561544D01*
X165674354Y-85660147D01*
X165799853Y-85785646D01*
X165898456Y-85933216D01*
X165966376Y-86097188D01*
X166001000Y-86271259D01*
X166001000Y-86448741D01*
X165966376Y-86622812D01*
X165898456Y-86786784D01*
X165799853Y-86934354D01*
X165674354Y-87059853D01*
X165526784Y-87158456D01*
X165362812Y-87226376D01*
X165213512Y-87256073D01*
X165188742Y-87261000D01*
X165011258Y-87261000D01*
X164986488Y-87256073D01*
X164837188Y-87226376D01*
X164673216Y-87158456D01*
X164525646Y-87059853D01*
X164400147Y-86934354D01*
X164301544Y-86786784D01*
X164233624Y-86622812D01*
X164199000Y-86448741D01*
X164199000Y-86271259D01*
X164233624Y-86097188D01*
X164301544Y-85933216D01*
X164400147Y-85785646D01*
X164525646Y-85660147D01*
X164673216Y-85561544D01*
X164837188Y-85493624D01*
X164986488Y-85463927D01*
X165011258Y-85459000D01*
X165188742Y-85459000D01*
X165213512Y-85463927D01*
G37*
G36*
X162673512Y-85463927D02*
G01*
X162822812Y-85493624D01*
X162986784Y-85561544D01*
X163134354Y-85660147D01*
X163259853Y-85785646D01*
X163358456Y-85933216D01*
X163426376Y-86097188D01*
X163461000Y-86271259D01*
X163461000Y-86448741D01*
X163426376Y-86622812D01*
X163358456Y-86786784D01*
X163259853Y-86934354D01*
X163134354Y-87059853D01*
X162986784Y-87158456D01*
X162822812Y-87226376D01*
X162673512Y-87256073D01*
X162648742Y-87261000D01*
X162471258Y-87261000D01*
X162446488Y-87256073D01*
X162297188Y-87226376D01*
X162133216Y-87158456D01*
X161985646Y-87059853D01*
X161860147Y-86934354D01*
X161761544Y-86786784D01*
X161693624Y-86622812D01*
X161659000Y-86448741D01*
X161659000Y-86271259D01*
X161693624Y-86097188D01*
X161761544Y-85933216D01*
X161860147Y-85785646D01*
X161985646Y-85660147D01*
X162133216Y-85561544D01*
X162297188Y-85493624D01*
X162446488Y-85463927D01*
X162471258Y-85459000D01*
X162648742Y-85459000D01*
X162673512Y-85463927D01*
G37*
G36*
X160133512Y-85463927D02*
G01*
X160282812Y-85493624D01*
X160446784Y-85561544D01*
X160594354Y-85660147D01*
X160719853Y-85785646D01*
X160818456Y-85933216D01*
X160886376Y-86097188D01*
X160921000Y-86271259D01*
X160921000Y-86448741D01*
X160886376Y-86622812D01*
X160818456Y-86786784D01*
X160719853Y-86934354D01*
X160594354Y-87059853D01*
X160446784Y-87158456D01*
X160282812Y-87226376D01*
X160133512Y-87256073D01*
X160108742Y-87261000D01*
X159931258Y-87261000D01*
X159906488Y-87256073D01*
X159757188Y-87226376D01*
X159593216Y-87158456D01*
X159445646Y-87059853D01*
X159320147Y-86934354D01*
X159221544Y-86786784D01*
X159153624Y-86622812D01*
X159119000Y-86448741D01*
X159119000Y-86271259D01*
X159153624Y-86097188D01*
X159221544Y-85933216D01*
X159320147Y-85785646D01*
X159445646Y-85660147D01*
X159593216Y-85561544D01*
X159757188Y-85493624D01*
X159906488Y-85463927D01*
X159931258Y-85459000D01*
X160108742Y-85459000D01*
X160133512Y-85463927D01*
G37*
G36*
X157593512Y-85463927D02*
G01*
X157742812Y-85493624D01*
X157906784Y-85561544D01*
X158054354Y-85660147D01*
X158179853Y-85785646D01*
X158278456Y-85933216D01*
X158346376Y-86097188D01*
X158381000Y-86271259D01*
X158381000Y-86448741D01*
X158346376Y-86622812D01*
X158278456Y-86786784D01*
X158179853Y-86934354D01*
X158054354Y-87059853D01*
X157906784Y-87158456D01*
X157742812Y-87226376D01*
X157593512Y-87256073D01*
X157568742Y-87261000D01*
X157391258Y-87261000D01*
X157366488Y-87256073D01*
X157217188Y-87226376D01*
X157053216Y-87158456D01*
X156905646Y-87059853D01*
X156780147Y-86934354D01*
X156681544Y-86786784D01*
X156613624Y-86622812D01*
X156579000Y-86448741D01*
X156579000Y-86271259D01*
X156613624Y-86097188D01*
X156681544Y-85933216D01*
X156780147Y-85785646D01*
X156905646Y-85660147D01*
X157053216Y-85561544D01*
X157217188Y-85493624D01*
X157366488Y-85463927D01*
X157391258Y-85459000D01*
X157568742Y-85459000D01*
X157593512Y-85463927D01*
G37*
G36*
X155053512Y-85463927D02*
G01*
X155202812Y-85493624D01*
X155366784Y-85561544D01*
X155514354Y-85660147D01*
X155639853Y-85785646D01*
X155738456Y-85933216D01*
X155806376Y-86097188D01*
X155841000Y-86271259D01*
X155841000Y-86448741D01*
X155806376Y-86622812D01*
X155738456Y-86786784D01*
X155639853Y-86934354D01*
X155514354Y-87059853D01*
X155366784Y-87158456D01*
X155202812Y-87226376D01*
X155053512Y-87256073D01*
X155028742Y-87261000D01*
X154851258Y-87261000D01*
X154826488Y-87256073D01*
X154677188Y-87226376D01*
X154513216Y-87158456D01*
X154365646Y-87059853D01*
X154240147Y-86934354D01*
X154141544Y-86786784D01*
X154073624Y-86622812D01*
X154039000Y-86448741D01*
X154039000Y-86271259D01*
X154073624Y-86097188D01*
X154141544Y-85933216D01*
X154240147Y-85785646D01*
X154365646Y-85660147D01*
X154513216Y-85561544D01*
X154677188Y-85493624D01*
X154826488Y-85463927D01*
X154851258Y-85459000D01*
X155028742Y-85459000D01*
X155053512Y-85463927D01*
G37*
G36*
X152513512Y-85463927D02*
G01*
X152662812Y-85493624D01*
X152826784Y-85561544D01*
X152974354Y-85660147D01*
X153099853Y-85785646D01*
X153198456Y-85933216D01*
X153266376Y-86097188D01*
X153301000Y-86271259D01*
X153301000Y-86448741D01*
X153266376Y-86622812D01*
X153198456Y-86786784D01*
X153099853Y-86934354D01*
X152974354Y-87059853D01*
X152826784Y-87158456D01*
X152662812Y-87226376D01*
X152513512Y-87256073D01*
X152488742Y-87261000D01*
X152311258Y-87261000D01*
X152286488Y-87256073D01*
X152137188Y-87226376D01*
X151973216Y-87158456D01*
X151825646Y-87059853D01*
X151700147Y-86934354D01*
X151601544Y-86786784D01*
X151533624Y-86622812D01*
X151499000Y-86448741D01*
X151499000Y-86271259D01*
X151533624Y-86097188D01*
X151601544Y-85933216D01*
X151700147Y-85785646D01*
X151825646Y-85660147D01*
X151973216Y-85561544D01*
X152137188Y-85493624D01*
X152286488Y-85463927D01*
X152311258Y-85459000D01*
X152488742Y-85459000D01*
X152513512Y-85463927D01*
G37*
G36*
X149973512Y-85463927D02*
G01*
X150122812Y-85493624D01*
X150286784Y-85561544D01*
X150434354Y-85660147D01*
X150559853Y-85785646D01*
X150658456Y-85933216D01*
X150726376Y-86097188D01*
X150761000Y-86271259D01*
X150761000Y-86448741D01*
X150726376Y-86622812D01*
X150658456Y-86786784D01*
X150559853Y-86934354D01*
X150434354Y-87059853D01*
X150286784Y-87158456D01*
X150122812Y-87226376D01*
X149973512Y-87256073D01*
X149948742Y-87261000D01*
X149771258Y-87261000D01*
X149746488Y-87256073D01*
X149597188Y-87226376D01*
X149433216Y-87158456D01*
X149285646Y-87059853D01*
X149160147Y-86934354D01*
X149061544Y-86786784D01*
X148993624Y-86622812D01*
X148959000Y-86448741D01*
X148959000Y-86271259D01*
X148993624Y-86097188D01*
X149061544Y-85933216D01*
X149160147Y-85785646D01*
X149285646Y-85660147D01*
X149433216Y-85561544D01*
X149597188Y-85493624D01*
X149746488Y-85463927D01*
X149771258Y-85459000D01*
X149948742Y-85459000D01*
X149973512Y-85463927D01*
G37*
G36*
X144893512Y-85463927D02*
G01*
X145042812Y-85493624D01*
X145206784Y-85561544D01*
X145354354Y-85660147D01*
X145479853Y-85785646D01*
X145578456Y-85933216D01*
X145646376Y-86097188D01*
X145681000Y-86271259D01*
X145681000Y-86448741D01*
X145646376Y-86622812D01*
X145578456Y-86786784D01*
X145479853Y-86934354D01*
X145354354Y-87059853D01*
X145206784Y-87158456D01*
X145042812Y-87226376D01*
X144893512Y-87256073D01*
X144868742Y-87261000D01*
X144691258Y-87261000D01*
X144666488Y-87256073D01*
X144517188Y-87226376D01*
X144353216Y-87158456D01*
X144205646Y-87059853D01*
X144080147Y-86934354D01*
X143981544Y-86786784D01*
X143913624Y-86622812D01*
X143879000Y-86448741D01*
X143879000Y-86271259D01*
X143913624Y-86097188D01*
X143981544Y-85933216D01*
X144080147Y-85785646D01*
X144205646Y-85660147D01*
X144353216Y-85561544D01*
X144517188Y-85493624D01*
X144666488Y-85463927D01*
X144691258Y-85459000D01*
X144868742Y-85459000D01*
X144893512Y-85463927D01*
G37*
G36*
X142353512Y-85463927D02*
G01*
X142502812Y-85493624D01*
X142666784Y-85561544D01*
X142814354Y-85660147D01*
X142939853Y-85785646D01*
X143038456Y-85933216D01*
X143106376Y-86097188D01*
X143141000Y-86271259D01*
X143141000Y-86448741D01*
X143106376Y-86622812D01*
X143038456Y-86786784D01*
X142939853Y-86934354D01*
X142814354Y-87059853D01*
X142666784Y-87158456D01*
X142502812Y-87226376D01*
X142353512Y-87256073D01*
X142328742Y-87261000D01*
X142151258Y-87261000D01*
X142126488Y-87256073D01*
X141977188Y-87226376D01*
X141813216Y-87158456D01*
X141665646Y-87059853D01*
X141540147Y-86934354D01*
X141441544Y-86786784D01*
X141373624Y-86622812D01*
X141339000Y-86448741D01*
X141339000Y-86271259D01*
X141373624Y-86097188D01*
X141441544Y-85933216D01*
X141540147Y-85785646D01*
X141665646Y-85660147D01*
X141813216Y-85561544D01*
X141977188Y-85493624D01*
X142126488Y-85463927D01*
X142151258Y-85459000D01*
X142328742Y-85459000D01*
X142353512Y-85463927D01*
G37*
G36*
X139813512Y-85463927D02*
G01*
X139962812Y-85493624D01*
X140126784Y-85561544D01*
X140274354Y-85660147D01*
X140399853Y-85785646D01*
X140498456Y-85933216D01*
X140566376Y-86097188D01*
X140601000Y-86271259D01*
X140601000Y-86448741D01*
X140566376Y-86622812D01*
X140498456Y-86786784D01*
X140399853Y-86934354D01*
X140274354Y-87059853D01*
X140126784Y-87158456D01*
X139962812Y-87226376D01*
X139813512Y-87256073D01*
X139788742Y-87261000D01*
X139611258Y-87261000D01*
X139586488Y-87256073D01*
X139437188Y-87226376D01*
X139273216Y-87158456D01*
X139125646Y-87059853D01*
X139000147Y-86934354D01*
X138901544Y-86786784D01*
X138833624Y-86622812D01*
X138799000Y-86448741D01*
X138799000Y-86271259D01*
X138833624Y-86097188D01*
X138901544Y-85933216D01*
X139000147Y-85785646D01*
X139125646Y-85660147D01*
X139273216Y-85561544D01*
X139437188Y-85493624D01*
X139586488Y-85463927D01*
X139611258Y-85459000D01*
X139788742Y-85459000D01*
X139813512Y-85463927D01*
G37*
G36*
X137273512Y-85463927D02*
G01*
X137422812Y-85493624D01*
X137586784Y-85561544D01*
X137734354Y-85660147D01*
X137859853Y-85785646D01*
X137958456Y-85933216D01*
X138026376Y-86097188D01*
X138061000Y-86271259D01*
X138061000Y-86448741D01*
X138026376Y-86622812D01*
X137958456Y-86786784D01*
X137859853Y-86934354D01*
X137734354Y-87059853D01*
X137586784Y-87158456D01*
X137422812Y-87226376D01*
X137273512Y-87256073D01*
X137248742Y-87261000D01*
X137071258Y-87261000D01*
X137046488Y-87256073D01*
X136897188Y-87226376D01*
X136733216Y-87158456D01*
X136585646Y-87059853D01*
X136460147Y-86934354D01*
X136361544Y-86786784D01*
X136293624Y-86622812D01*
X136259000Y-86448741D01*
X136259000Y-86271259D01*
X136293624Y-86097188D01*
X136361544Y-85933216D01*
X136460147Y-85785646D01*
X136585646Y-85660147D01*
X136733216Y-85561544D01*
X136897188Y-85493624D01*
X137046488Y-85463927D01*
X137071258Y-85459000D01*
X137248742Y-85459000D01*
X137273512Y-85463927D01*
G37*
G36*
X134733512Y-85463927D02*
G01*
X134882812Y-85493624D01*
X135046784Y-85561544D01*
X135194354Y-85660147D01*
X135319853Y-85785646D01*
X135418456Y-85933216D01*
X135486376Y-86097188D01*
X135521000Y-86271259D01*
X135521000Y-86448741D01*
X135486376Y-86622812D01*
X135418456Y-86786784D01*
X135319853Y-86934354D01*
X135194354Y-87059853D01*
X135046784Y-87158456D01*
X134882812Y-87226376D01*
X134733512Y-87256073D01*
X134708742Y-87261000D01*
X134531258Y-87261000D01*
X134506488Y-87256073D01*
X134357188Y-87226376D01*
X134193216Y-87158456D01*
X134045646Y-87059853D01*
X133920147Y-86934354D01*
X133821544Y-86786784D01*
X133753624Y-86622812D01*
X133719000Y-86448741D01*
X133719000Y-86271259D01*
X133753624Y-86097188D01*
X133821544Y-85933216D01*
X133920147Y-85785646D01*
X134045646Y-85660147D01*
X134193216Y-85561544D01*
X134357188Y-85493624D01*
X134506488Y-85463927D01*
X134531258Y-85459000D01*
X134708742Y-85459000D01*
X134733512Y-85463927D01*
G37*
G36*
X132193512Y-85463927D02*
G01*
X132342812Y-85493624D01*
X132506784Y-85561544D01*
X132654354Y-85660147D01*
X132779853Y-85785646D01*
X132878456Y-85933216D01*
X132946376Y-86097188D01*
X132981000Y-86271259D01*
X132981000Y-86448741D01*
X132946376Y-86622812D01*
X132878456Y-86786784D01*
X132779853Y-86934354D01*
X132654354Y-87059853D01*
X132506784Y-87158456D01*
X132342812Y-87226376D01*
X132193512Y-87256073D01*
X132168742Y-87261000D01*
X131991258Y-87261000D01*
X131966488Y-87256073D01*
X131817188Y-87226376D01*
X131653216Y-87158456D01*
X131505646Y-87059853D01*
X131380147Y-86934354D01*
X131281544Y-86786784D01*
X131213624Y-86622812D01*
X131179000Y-86448741D01*
X131179000Y-86271259D01*
X131213624Y-86097188D01*
X131281544Y-85933216D01*
X131380147Y-85785646D01*
X131505646Y-85660147D01*
X131653216Y-85561544D01*
X131817188Y-85493624D01*
X131966488Y-85463927D01*
X131991258Y-85459000D01*
X132168742Y-85459000D01*
X132193512Y-85463927D01*
G37*
G36*
X129653512Y-85463927D02*
G01*
X129802812Y-85493624D01*
X129966784Y-85561544D01*
X130114354Y-85660147D01*
X130239853Y-85785646D01*
X130338456Y-85933216D01*
X130406376Y-86097188D01*
X130441000Y-86271259D01*
X130441000Y-86448741D01*
X130406376Y-86622812D01*
X130338456Y-86786784D01*
X130239853Y-86934354D01*
X130114354Y-87059853D01*
X129966784Y-87158456D01*
X129802812Y-87226376D01*
X129653512Y-87256073D01*
X129628742Y-87261000D01*
X129451258Y-87261000D01*
X129426488Y-87256073D01*
X129277188Y-87226376D01*
X129113216Y-87158456D01*
X128965646Y-87059853D01*
X128840147Y-86934354D01*
X128741544Y-86786784D01*
X128673624Y-86622812D01*
X128639000Y-86448741D01*
X128639000Y-86271259D01*
X128673624Y-86097188D01*
X128741544Y-85933216D01*
X128840147Y-85785646D01*
X128965646Y-85660147D01*
X129113216Y-85561544D01*
X129277188Y-85493624D01*
X129426488Y-85463927D01*
X129451258Y-85459000D01*
X129628742Y-85459000D01*
X129653512Y-85463927D01*
G37*
G36*
X167753512Y-85463927D02*
G01*
X167902812Y-85493624D01*
X168066784Y-85561544D01*
X168214354Y-85660147D01*
X168339853Y-85785646D01*
X168438456Y-85933216D01*
X168506376Y-86097188D01*
X168541000Y-86271259D01*
X168541000Y-86448741D01*
X168506376Y-86622812D01*
X168438456Y-86786784D01*
X168339853Y-86934354D01*
X168214354Y-87059853D01*
X168066784Y-87158456D01*
X167902812Y-87226376D01*
X167753512Y-87256073D01*
X167728742Y-87261000D01*
X167551258Y-87261000D01*
X167526488Y-87256073D01*
X167377188Y-87226376D01*
X167213216Y-87158456D01*
X167065646Y-87059853D01*
X166940147Y-86934354D01*
X166841544Y-86786784D01*
X166773624Y-86622812D01*
X166739000Y-86448741D01*
X166739000Y-86271259D01*
X166773624Y-86097188D01*
X166841544Y-85933216D01*
X166940147Y-85785646D01*
X167065646Y-85660147D01*
X167213216Y-85561544D01*
X167377188Y-85493624D01*
X167526488Y-85463927D01*
X167551258Y-85459000D01*
X167728742Y-85459000D01*
X167753512Y-85463927D01*
G37*
G36*
X170293512Y-85463927D02*
G01*
X170442812Y-85493624D01*
X170606784Y-85561544D01*
X170754354Y-85660147D01*
X170879853Y-85785646D01*
X170978456Y-85933216D01*
X171046376Y-86097188D01*
X171081000Y-86271259D01*
X171081000Y-86448741D01*
X171046376Y-86622812D01*
X170978456Y-86786784D01*
X170879853Y-86934354D01*
X170754354Y-87059853D01*
X170606784Y-87158456D01*
X170442812Y-87226376D01*
X170293512Y-87256073D01*
X170268742Y-87261000D01*
X170091258Y-87261000D01*
X170066488Y-87256073D01*
X169917188Y-87226376D01*
X169753216Y-87158456D01*
X169605646Y-87059853D01*
X169480147Y-86934354D01*
X169381544Y-86786784D01*
X169313624Y-86622812D01*
X169279000Y-86448741D01*
X169279000Y-86271259D01*
X169313624Y-86097188D01*
X169381544Y-85933216D01*
X169480147Y-85785646D01*
X169605646Y-85660147D01*
X169753216Y-85561544D01*
X169917188Y-85493624D01*
X170066488Y-85463927D01*
X170091258Y-85459000D01*
X170268742Y-85459000D01*
X170293512Y-85463927D01*
G37*
G36*
X147433512Y-85463927D02*
G01*
X147582812Y-85493624D01*
X147746784Y-85561544D01*
X147894354Y-85660147D01*
X148019853Y-85785646D01*
X148118456Y-85933216D01*
X148186376Y-86097188D01*
X148221000Y-86271259D01*
X148221000Y-86448741D01*
X148186376Y-86622812D01*
X148118456Y-86786784D01*
X148019853Y-86934354D01*
X147894354Y-87059853D01*
X147746784Y-87158456D01*
X147582812Y-87226376D01*
X147433512Y-87256073D01*
X147408742Y-87261000D01*
X147231258Y-87261000D01*
X147206488Y-87256073D01*
X147057188Y-87226376D01*
X146893216Y-87158456D01*
X146745646Y-87059853D01*
X146620147Y-86934354D01*
X146521544Y-86786784D01*
X146453624Y-86622812D01*
X146419000Y-86448741D01*
X146419000Y-86271259D01*
X146453624Y-86097188D01*
X146521544Y-85933216D01*
X146620147Y-85785646D01*
X146745646Y-85660147D01*
X146893216Y-85561544D01*
X147057188Y-85493624D01*
X147206488Y-85463927D01*
X147231258Y-85459000D01*
X147408742Y-85459000D01*
X147433512Y-85463927D01*
G37*
M02*
