M48
; DRILL file {KiCad (5.1.5)-3} date 20/03/2020 1:34:44 PM
; FORMAT={2:4/ absolute / inch / suppress leading zeros}
; #@! TF.CreationDate,2020-03-20T13:34:44+10:00
; #@! TF.GenerationSoftware,Kicad,Pcbnew,(5.1.5)-3
; #@! TF.FileFunction,Plated,1,2,PTH
FMAT,2
INCH,TZ
T1C0.0118
T2C0.0236
T3C0.0335
T4C0.0394
%
G90
G05
T1
X48000Y-36700
X48600Y-38200
X48600Y-38800
X48600Y-39400
X48600Y-40000
X48600Y-40600
X49200Y-38200
X49200Y-40600
X49800Y-38200
X49800Y-40600
X50400Y-38200
X50400Y-40600
X50800Y-36100
X51000Y-38200
X51000Y-38800
X51000Y-39400
X51000Y-40000
X51000Y-40600
X51400Y-36100
X52000Y-36100
X52000Y-41800
X52600Y-36100
X52600Y-41800
X53200Y-41800
X53800Y-41800
X55100Y-36300
X55200Y-38000
X55200Y-38600
X58200Y-42000
X58800Y-35700
X59700Y-37700
X59700Y-39000
X60450Y-36300
X60600Y-40700
X61100Y-37300
X61600Y-41000
X61600Y-41350
X61600Y-41700
X61600Y-42050
X61600Y-42400
X61950Y-36250
X62400Y-38700
X62400Y-39600
X63150Y-39600
X63950Y-35650
X64600Y-38700
X64600Y-39600
X65450Y-39700
X65900Y-36100
X65900Y-41850
X66300Y-36700
X67600Y-38300
X68200Y-35700
X68200Y-42250
T3
X68250Y-38016
X68250Y-39984
T4
X47000Y-44000
X48000Y-44000
X49000Y-44000
X50000Y-44000
X51000Y-44000
X52000Y-44000
X53000Y-44000
X54000Y-44000
X55000Y-44000
X56000Y-44000
X57000Y-44000
X58000Y-44000
X59000Y-44000
X60000Y-44000
X61000Y-44000
X62000Y-44000
X63000Y-44000
X64000Y-44000
X65000Y-44000
X66000Y-44000
X67000Y-44000
X68000Y-44000
X69000Y-44000
X47000Y-34000
X48000Y-34000
X49000Y-34000
X50000Y-34000
X51000Y-34000
X52000Y-34000
X53000Y-34000
X54000Y-34000
X55000Y-34000
X56000Y-34000
X57000Y-34000
X58000Y-34000
X59000Y-34000
X60000Y-34000
X61000Y-34000
X62000Y-34000
X63000Y-34000
X64000Y-34000
X65000Y-34000
X66000Y-34000
X67000Y-34000
X68000Y-34000
X69000Y-34000
T2
G00X69175Y-37622
M15
G01X69451Y-37622
M16
G05
G00X69451Y-40378
M15
G01X69175Y-40378
M16
G05
T0
M30
