G04 #@! TF.GenerationSoftware,KiCad,Pcbnew,(5.1.5)-3*
G04 #@! TF.CreationDate,2020-03-16T14:14:39+10:00*
G04 #@! TF.ProjectId,ESP32-S2-Breakout,45535033-322d-4533-922d-427265616b6f,rev?*
G04 #@! TF.SameCoordinates,Original*
G04 #@! TF.FileFunction,Soldermask,Bot*
G04 #@! TF.FilePolarity,Negative*
%FSLAX46Y46*%
G04 Gerber Fmt 4.6, Leading zero omitted, Abs format (unit mm)*
G04 Created by KiCad (PCBNEW (5.1.5)-3) date 2020-03-16 14:14:39*
%MOMM*%
%LPD*%
G04 APERTURE LIST*
%ADD10C,0.100000*%
G04 APERTURE END LIST*
D10*
G36*
X167753512Y-110863927D02*
G01*
X167902812Y-110893624D01*
X168066784Y-110961544D01*
X168214354Y-111060147D01*
X168339853Y-111185646D01*
X168438456Y-111333216D01*
X168506376Y-111497188D01*
X168541000Y-111671259D01*
X168541000Y-111848741D01*
X168506376Y-112022812D01*
X168438456Y-112186784D01*
X168339853Y-112334354D01*
X168214354Y-112459853D01*
X168066784Y-112558456D01*
X167902812Y-112626376D01*
X167753512Y-112656073D01*
X167728742Y-112661000D01*
X167551258Y-112661000D01*
X167526488Y-112656073D01*
X167377188Y-112626376D01*
X167213216Y-112558456D01*
X167065646Y-112459853D01*
X166940147Y-112334354D01*
X166841544Y-112186784D01*
X166773624Y-112022812D01*
X166739000Y-111848741D01*
X166739000Y-111671259D01*
X166773624Y-111497188D01*
X166841544Y-111333216D01*
X166940147Y-111185646D01*
X167065646Y-111060147D01*
X167213216Y-110961544D01*
X167377188Y-110893624D01*
X167526488Y-110863927D01*
X167551258Y-110859000D01*
X167728742Y-110859000D01*
X167753512Y-110863927D01*
G37*
G36*
X144893512Y-110863927D02*
G01*
X145042812Y-110893624D01*
X145206784Y-110961544D01*
X145354354Y-111060147D01*
X145479853Y-111185646D01*
X145578456Y-111333216D01*
X145646376Y-111497188D01*
X145681000Y-111671259D01*
X145681000Y-111848741D01*
X145646376Y-112022812D01*
X145578456Y-112186784D01*
X145479853Y-112334354D01*
X145354354Y-112459853D01*
X145206784Y-112558456D01*
X145042812Y-112626376D01*
X144893512Y-112656073D01*
X144868742Y-112661000D01*
X144691258Y-112661000D01*
X144666488Y-112656073D01*
X144517188Y-112626376D01*
X144353216Y-112558456D01*
X144205646Y-112459853D01*
X144080147Y-112334354D01*
X143981544Y-112186784D01*
X143913624Y-112022812D01*
X143879000Y-111848741D01*
X143879000Y-111671259D01*
X143913624Y-111497188D01*
X143981544Y-111333216D01*
X144080147Y-111185646D01*
X144205646Y-111060147D01*
X144353216Y-110961544D01*
X144517188Y-110893624D01*
X144666488Y-110863927D01*
X144691258Y-110859000D01*
X144868742Y-110859000D01*
X144893512Y-110863927D01*
G37*
G36*
X165213512Y-110863927D02*
G01*
X165362812Y-110893624D01*
X165526784Y-110961544D01*
X165674354Y-111060147D01*
X165799853Y-111185646D01*
X165898456Y-111333216D01*
X165966376Y-111497188D01*
X166001000Y-111671259D01*
X166001000Y-111848741D01*
X165966376Y-112022812D01*
X165898456Y-112186784D01*
X165799853Y-112334354D01*
X165674354Y-112459853D01*
X165526784Y-112558456D01*
X165362812Y-112626376D01*
X165213512Y-112656073D01*
X165188742Y-112661000D01*
X165011258Y-112661000D01*
X164986488Y-112656073D01*
X164837188Y-112626376D01*
X164673216Y-112558456D01*
X164525646Y-112459853D01*
X164400147Y-112334354D01*
X164301544Y-112186784D01*
X164233624Y-112022812D01*
X164199000Y-111848741D01*
X164199000Y-111671259D01*
X164233624Y-111497188D01*
X164301544Y-111333216D01*
X164400147Y-111185646D01*
X164525646Y-111060147D01*
X164673216Y-110961544D01*
X164837188Y-110893624D01*
X164986488Y-110863927D01*
X165011258Y-110859000D01*
X165188742Y-110859000D01*
X165213512Y-110863927D01*
G37*
G36*
X162673512Y-110863927D02*
G01*
X162822812Y-110893624D01*
X162986784Y-110961544D01*
X163134354Y-111060147D01*
X163259853Y-111185646D01*
X163358456Y-111333216D01*
X163426376Y-111497188D01*
X163461000Y-111671259D01*
X163461000Y-111848741D01*
X163426376Y-112022812D01*
X163358456Y-112186784D01*
X163259853Y-112334354D01*
X163134354Y-112459853D01*
X162986784Y-112558456D01*
X162822812Y-112626376D01*
X162673512Y-112656073D01*
X162648742Y-112661000D01*
X162471258Y-112661000D01*
X162446488Y-112656073D01*
X162297188Y-112626376D01*
X162133216Y-112558456D01*
X161985646Y-112459853D01*
X161860147Y-112334354D01*
X161761544Y-112186784D01*
X161693624Y-112022812D01*
X161659000Y-111848741D01*
X161659000Y-111671259D01*
X161693624Y-111497188D01*
X161761544Y-111333216D01*
X161860147Y-111185646D01*
X161985646Y-111060147D01*
X162133216Y-110961544D01*
X162297188Y-110893624D01*
X162446488Y-110863927D01*
X162471258Y-110859000D01*
X162648742Y-110859000D01*
X162673512Y-110863927D01*
G37*
G36*
X160133512Y-110863927D02*
G01*
X160282812Y-110893624D01*
X160446784Y-110961544D01*
X160594354Y-111060147D01*
X160719853Y-111185646D01*
X160818456Y-111333216D01*
X160886376Y-111497188D01*
X160921000Y-111671259D01*
X160921000Y-111848741D01*
X160886376Y-112022812D01*
X160818456Y-112186784D01*
X160719853Y-112334354D01*
X160594354Y-112459853D01*
X160446784Y-112558456D01*
X160282812Y-112626376D01*
X160133512Y-112656073D01*
X160108742Y-112661000D01*
X159931258Y-112661000D01*
X159906488Y-112656073D01*
X159757188Y-112626376D01*
X159593216Y-112558456D01*
X159445646Y-112459853D01*
X159320147Y-112334354D01*
X159221544Y-112186784D01*
X159153624Y-112022812D01*
X159119000Y-111848741D01*
X159119000Y-111671259D01*
X159153624Y-111497188D01*
X159221544Y-111333216D01*
X159320147Y-111185646D01*
X159445646Y-111060147D01*
X159593216Y-110961544D01*
X159757188Y-110893624D01*
X159906488Y-110863927D01*
X159931258Y-110859000D01*
X160108742Y-110859000D01*
X160133512Y-110863927D01*
G37*
G36*
X157593512Y-110863927D02*
G01*
X157742812Y-110893624D01*
X157906784Y-110961544D01*
X158054354Y-111060147D01*
X158179853Y-111185646D01*
X158278456Y-111333216D01*
X158346376Y-111497188D01*
X158381000Y-111671259D01*
X158381000Y-111848741D01*
X158346376Y-112022812D01*
X158278456Y-112186784D01*
X158179853Y-112334354D01*
X158054354Y-112459853D01*
X157906784Y-112558456D01*
X157742812Y-112626376D01*
X157593512Y-112656073D01*
X157568742Y-112661000D01*
X157391258Y-112661000D01*
X157366488Y-112656073D01*
X157217188Y-112626376D01*
X157053216Y-112558456D01*
X156905646Y-112459853D01*
X156780147Y-112334354D01*
X156681544Y-112186784D01*
X156613624Y-112022812D01*
X156579000Y-111848741D01*
X156579000Y-111671259D01*
X156613624Y-111497188D01*
X156681544Y-111333216D01*
X156780147Y-111185646D01*
X156905646Y-111060147D01*
X157053216Y-110961544D01*
X157217188Y-110893624D01*
X157366488Y-110863927D01*
X157391258Y-110859000D01*
X157568742Y-110859000D01*
X157593512Y-110863927D01*
G37*
G36*
X155053512Y-110863927D02*
G01*
X155202812Y-110893624D01*
X155366784Y-110961544D01*
X155514354Y-111060147D01*
X155639853Y-111185646D01*
X155738456Y-111333216D01*
X155806376Y-111497188D01*
X155841000Y-111671259D01*
X155841000Y-111848741D01*
X155806376Y-112022812D01*
X155738456Y-112186784D01*
X155639853Y-112334354D01*
X155514354Y-112459853D01*
X155366784Y-112558456D01*
X155202812Y-112626376D01*
X155053512Y-112656073D01*
X155028742Y-112661000D01*
X154851258Y-112661000D01*
X154826488Y-112656073D01*
X154677188Y-112626376D01*
X154513216Y-112558456D01*
X154365646Y-112459853D01*
X154240147Y-112334354D01*
X154141544Y-112186784D01*
X154073624Y-112022812D01*
X154039000Y-111848741D01*
X154039000Y-111671259D01*
X154073624Y-111497188D01*
X154141544Y-111333216D01*
X154240147Y-111185646D01*
X154365646Y-111060147D01*
X154513216Y-110961544D01*
X154677188Y-110893624D01*
X154826488Y-110863927D01*
X154851258Y-110859000D01*
X155028742Y-110859000D01*
X155053512Y-110863927D01*
G37*
G36*
X152513512Y-110863927D02*
G01*
X152662812Y-110893624D01*
X152826784Y-110961544D01*
X152974354Y-111060147D01*
X153099853Y-111185646D01*
X153198456Y-111333216D01*
X153266376Y-111497188D01*
X153301000Y-111671259D01*
X153301000Y-111848741D01*
X153266376Y-112022812D01*
X153198456Y-112186784D01*
X153099853Y-112334354D01*
X152974354Y-112459853D01*
X152826784Y-112558456D01*
X152662812Y-112626376D01*
X152513512Y-112656073D01*
X152488742Y-112661000D01*
X152311258Y-112661000D01*
X152286488Y-112656073D01*
X152137188Y-112626376D01*
X151973216Y-112558456D01*
X151825646Y-112459853D01*
X151700147Y-112334354D01*
X151601544Y-112186784D01*
X151533624Y-112022812D01*
X151499000Y-111848741D01*
X151499000Y-111671259D01*
X151533624Y-111497188D01*
X151601544Y-111333216D01*
X151700147Y-111185646D01*
X151825646Y-111060147D01*
X151973216Y-110961544D01*
X152137188Y-110893624D01*
X152286488Y-110863927D01*
X152311258Y-110859000D01*
X152488742Y-110859000D01*
X152513512Y-110863927D01*
G37*
G36*
X149973512Y-110863927D02*
G01*
X150122812Y-110893624D01*
X150286784Y-110961544D01*
X150434354Y-111060147D01*
X150559853Y-111185646D01*
X150658456Y-111333216D01*
X150726376Y-111497188D01*
X150761000Y-111671259D01*
X150761000Y-111848741D01*
X150726376Y-112022812D01*
X150658456Y-112186784D01*
X150559853Y-112334354D01*
X150434354Y-112459853D01*
X150286784Y-112558456D01*
X150122812Y-112626376D01*
X149973512Y-112656073D01*
X149948742Y-112661000D01*
X149771258Y-112661000D01*
X149746488Y-112656073D01*
X149597188Y-112626376D01*
X149433216Y-112558456D01*
X149285646Y-112459853D01*
X149160147Y-112334354D01*
X149061544Y-112186784D01*
X148993624Y-112022812D01*
X148959000Y-111848741D01*
X148959000Y-111671259D01*
X148993624Y-111497188D01*
X149061544Y-111333216D01*
X149160147Y-111185646D01*
X149285646Y-111060147D01*
X149433216Y-110961544D01*
X149597188Y-110893624D01*
X149746488Y-110863927D01*
X149771258Y-110859000D01*
X149948742Y-110859000D01*
X149973512Y-110863927D01*
G37*
G36*
X147433512Y-110863927D02*
G01*
X147582812Y-110893624D01*
X147746784Y-110961544D01*
X147894354Y-111060147D01*
X148019853Y-111185646D01*
X148118456Y-111333216D01*
X148186376Y-111497188D01*
X148221000Y-111671259D01*
X148221000Y-111848741D01*
X148186376Y-112022812D01*
X148118456Y-112186784D01*
X148019853Y-112334354D01*
X147894354Y-112459853D01*
X147746784Y-112558456D01*
X147582812Y-112626376D01*
X147433512Y-112656073D01*
X147408742Y-112661000D01*
X147231258Y-112661000D01*
X147206488Y-112656073D01*
X147057188Y-112626376D01*
X146893216Y-112558456D01*
X146745646Y-112459853D01*
X146620147Y-112334354D01*
X146521544Y-112186784D01*
X146453624Y-112022812D01*
X146419000Y-111848741D01*
X146419000Y-111671259D01*
X146453624Y-111497188D01*
X146521544Y-111333216D01*
X146620147Y-111185646D01*
X146745646Y-111060147D01*
X146893216Y-110961544D01*
X147057188Y-110893624D01*
X147206488Y-110863927D01*
X147231258Y-110859000D01*
X147408742Y-110859000D01*
X147433512Y-110863927D01*
G37*
G36*
X142353512Y-110863927D02*
G01*
X142502812Y-110893624D01*
X142666784Y-110961544D01*
X142814354Y-111060147D01*
X142939853Y-111185646D01*
X143038456Y-111333216D01*
X143106376Y-111497188D01*
X143141000Y-111671259D01*
X143141000Y-111848741D01*
X143106376Y-112022812D01*
X143038456Y-112186784D01*
X142939853Y-112334354D01*
X142814354Y-112459853D01*
X142666784Y-112558456D01*
X142502812Y-112626376D01*
X142353512Y-112656073D01*
X142328742Y-112661000D01*
X142151258Y-112661000D01*
X142126488Y-112656073D01*
X141977188Y-112626376D01*
X141813216Y-112558456D01*
X141665646Y-112459853D01*
X141540147Y-112334354D01*
X141441544Y-112186784D01*
X141373624Y-112022812D01*
X141339000Y-111848741D01*
X141339000Y-111671259D01*
X141373624Y-111497188D01*
X141441544Y-111333216D01*
X141540147Y-111185646D01*
X141665646Y-111060147D01*
X141813216Y-110961544D01*
X141977188Y-110893624D01*
X142126488Y-110863927D01*
X142151258Y-110859000D01*
X142328742Y-110859000D01*
X142353512Y-110863927D01*
G37*
G36*
X139813512Y-110863927D02*
G01*
X139962812Y-110893624D01*
X140126784Y-110961544D01*
X140274354Y-111060147D01*
X140399853Y-111185646D01*
X140498456Y-111333216D01*
X140566376Y-111497188D01*
X140601000Y-111671259D01*
X140601000Y-111848741D01*
X140566376Y-112022812D01*
X140498456Y-112186784D01*
X140399853Y-112334354D01*
X140274354Y-112459853D01*
X140126784Y-112558456D01*
X139962812Y-112626376D01*
X139813512Y-112656073D01*
X139788742Y-112661000D01*
X139611258Y-112661000D01*
X139586488Y-112656073D01*
X139437188Y-112626376D01*
X139273216Y-112558456D01*
X139125646Y-112459853D01*
X139000147Y-112334354D01*
X138901544Y-112186784D01*
X138833624Y-112022812D01*
X138799000Y-111848741D01*
X138799000Y-111671259D01*
X138833624Y-111497188D01*
X138901544Y-111333216D01*
X139000147Y-111185646D01*
X139125646Y-111060147D01*
X139273216Y-110961544D01*
X139437188Y-110893624D01*
X139586488Y-110863927D01*
X139611258Y-110859000D01*
X139788742Y-110859000D01*
X139813512Y-110863927D01*
G37*
G36*
X137273512Y-110863927D02*
G01*
X137422812Y-110893624D01*
X137586784Y-110961544D01*
X137734354Y-111060147D01*
X137859853Y-111185646D01*
X137958456Y-111333216D01*
X138026376Y-111497188D01*
X138061000Y-111671259D01*
X138061000Y-111848741D01*
X138026376Y-112022812D01*
X137958456Y-112186784D01*
X137859853Y-112334354D01*
X137734354Y-112459853D01*
X137586784Y-112558456D01*
X137422812Y-112626376D01*
X137273512Y-112656073D01*
X137248742Y-112661000D01*
X137071258Y-112661000D01*
X137046488Y-112656073D01*
X136897188Y-112626376D01*
X136733216Y-112558456D01*
X136585646Y-112459853D01*
X136460147Y-112334354D01*
X136361544Y-112186784D01*
X136293624Y-112022812D01*
X136259000Y-111848741D01*
X136259000Y-111671259D01*
X136293624Y-111497188D01*
X136361544Y-111333216D01*
X136460147Y-111185646D01*
X136585646Y-111060147D01*
X136733216Y-110961544D01*
X136897188Y-110893624D01*
X137046488Y-110863927D01*
X137071258Y-110859000D01*
X137248742Y-110859000D01*
X137273512Y-110863927D01*
G37*
G36*
X134733512Y-110863927D02*
G01*
X134882812Y-110893624D01*
X135046784Y-110961544D01*
X135194354Y-111060147D01*
X135319853Y-111185646D01*
X135418456Y-111333216D01*
X135486376Y-111497188D01*
X135521000Y-111671259D01*
X135521000Y-111848741D01*
X135486376Y-112022812D01*
X135418456Y-112186784D01*
X135319853Y-112334354D01*
X135194354Y-112459853D01*
X135046784Y-112558456D01*
X134882812Y-112626376D01*
X134733512Y-112656073D01*
X134708742Y-112661000D01*
X134531258Y-112661000D01*
X134506488Y-112656073D01*
X134357188Y-112626376D01*
X134193216Y-112558456D01*
X134045646Y-112459853D01*
X133920147Y-112334354D01*
X133821544Y-112186784D01*
X133753624Y-112022812D01*
X133719000Y-111848741D01*
X133719000Y-111671259D01*
X133753624Y-111497188D01*
X133821544Y-111333216D01*
X133920147Y-111185646D01*
X134045646Y-111060147D01*
X134193216Y-110961544D01*
X134357188Y-110893624D01*
X134506488Y-110863927D01*
X134531258Y-110859000D01*
X134708742Y-110859000D01*
X134733512Y-110863927D01*
G37*
G36*
X132193512Y-110863927D02*
G01*
X132342812Y-110893624D01*
X132506784Y-110961544D01*
X132654354Y-111060147D01*
X132779853Y-111185646D01*
X132878456Y-111333216D01*
X132946376Y-111497188D01*
X132981000Y-111671259D01*
X132981000Y-111848741D01*
X132946376Y-112022812D01*
X132878456Y-112186784D01*
X132779853Y-112334354D01*
X132654354Y-112459853D01*
X132506784Y-112558456D01*
X132342812Y-112626376D01*
X132193512Y-112656073D01*
X132168742Y-112661000D01*
X131991258Y-112661000D01*
X131966488Y-112656073D01*
X131817188Y-112626376D01*
X131653216Y-112558456D01*
X131505646Y-112459853D01*
X131380147Y-112334354D01*
X131281544Y-112186784D01*
X131213624Y-112022812D01*
X131179000Y-111848741D01*
X131179000Y-111671259D01*
X131213624Y-111497188D01*
X131281544Y-111333216D01*
X131380147Y-111185646D01*
X131505646Y-111060147D01*
X131653216Y-110961544D01*
X131817188Y-110893624D01*
X131966488Y-110863927D01*
X131991258Y-110859000D01*
X132168742Y-110859000D01*
X132193512Y-110863927D01*
G37*
G36*
X129653512Y-110863927D02*
G01*
X129802812Y-110893624D01*
X129966784Y-110961544D01*
X130114354Y-111060147D01*
X130239853Y-111185646D01*
X130338456Y-111333216D01*
X130406376Y-111497188D01*
X130441000Y-111671259D01*
X130441000Y-111848741D01*
X130406376Y-112022812D01*
X130338456Y-112186784D01*
X130239853Y-112334354D01*
X130114354Y-112459853D01*
X129966784Y-112558456D01*
X129802812Y-112626376D01*
X129653512Y-112656073D01*
X129628742Y-112661000D01*
X129451258Y-112661000D01*
X129426488Y-112656073D01*
X129277188Y-112626376D01*
X129113216Y-112558456D01*
X128965646Y-112459853D01*
X128840147Y-112334354D01*
X128741544Y-112186784D01*
X128673624Y-112022812D01*
X128639000Y-111848741D01*
X128639000Y-111671259D01*
X128673624Y-111497188D01*
X128741544Y-111333216D01*
X128840147Y-111185646D01*
X128965646Y-111060147D01*
X129113216Y-110961544D01*
X129277188Y-110893624D01*
X129426488Y-110863927D01*
X129451258Y-110859000D01*
X129628742Y-110859000D01*
X129653512Y-110863927D01*
G37*
G36*
X127113512Y-110863927D02*
G01*
X127262812Y-110893624D01*
X127426784Y-110961544D01*
X127574354Y-111060147D01*
X127699853Y-111185646D01*
X127798456Y-111333216D01*
X127866376Y-111497188D01*
X127901000Y-111671259D01*
X127901000Y-111848741D01*
X127866376Y-112022812D01*
X127798456Y-112186784D01*
X127699853Y-112334354D01*
X127574354Y-112459853D01*
X127426784Y-112558456D01*
X127262812Y-112626376D01*
X127113512Y-112656073D01*
X127088742Y-112661000D01*
X126911258Y-112661000D01*
X126886488Y-112656073D01*
X126737188Y-112626376D01*
X126573216Y-112558456D01*
X126425646Y-112459853D01*
X126300147Y-112334354D01*
X126201544Y-112186784D01*
X126133624Y-112022812D01*
X126099000Y-111848741D01*
X126099000Y-111671259D01*
X126133624Y-111497188D01*
X126201544Y-111333216D01*
X126300147Y-111185646D01*
X126425646Y-111060147D01*
X126573216Y-110961544D01*
X126737188Y-110893624D01*
X126886488Y-110863927D01*
X126911258Y-110859000D01*
X127088742Y-110859000D01*
X127113512Y-110863927D01*
G37*
G36*
X124573512Y-110863927D02*
G01*
X124722812Y-110893624D01*
X124886784Y-110961544D01*
X125034354Y-111060147D01*
X125159853Y-111185646D01*
X125258456Y-111333216D01*
X125326376Y-111497188D01*
X125361000Y-111671259D01*
X125361000Y-111848741D01*
X125326376Y-112022812D01*
X125258456Y-112186784D01*
X125159853Y-112334354D01*
X125034354Y-112459853D01*
X124886784Y-112558456D01*
X124722812Y-112626376D01*
X124573512Y-112656073D01*
X124548742Y-112661000D01*
X124371258Y-112661000D01*
X124346488Y-112656073D01*
X124197188Y-112626376D01*
X124033216Y-112558456D01*
X123885646Y-112459853D01*
X123760147Y-112334354D01*
X123661544Y-112186784D01*
X123593624Y-112022812D01*
X123559000Y-111848741D01*
X123559000Y-111671259D01*
X123593624Y-111497188D01*
X123661544Y-111333216D01*
X123760147Y-111185646D01*
X123885646Y-111060147D01*
X124033216Y-110961544D01*
X124197188Y-110893624D01*
X124346488Y-110863927D01*
X124371258Y-110859000D01*
X124548742Y-110859000D01*
X124573512Y-110863927D01*
G37*
G36*
X122033512Y-110863927D02*
G01*
X122182812Y-110893624D01*
X122346784Y-110961544D01*
X122494354Y-111060147D01*
X122619853Y-111185646D01*
X122718456Y-111333216D01*
X122786376Y-111497188D01*
X122821000Y-111671259D01*
X122821000Y-111848741D01*
X122786376Y-112022812D01*
X122718456Y-112186784D01*
X122619853Y-112334354D01*
X122494354Y-112459853D01*
X122346784Y-112558456D01*
X122182812Y-112626376D01*
X122033512Y-112656073D01*
X122008742Y-112661000D01*
X121831258Y-112661000D01*
X121806488Y-112656073D01*
X121657188Y-112626376D01*
X121493216Y-112558456D01*
X121345646Y-112459853D01*
X121220147Y-112334354D01*
X121121544Y-112186784D01*
X121053624Y-112022812D01*
X121019000Y-111848741D01*
X121019000Y-111671259D01*
X121053624Y-111497188D01*
X121121544Y-111333216D01*
X121220147Y-111185646D01*
X121345646Y-111060147D01*
X121493216Y-110961544D01*
X121657188Y-110893624D01*
X121806488Y-110863927D01*
X121831258Y-110859000D01*
X122008742Y-110859000D01*
X122033512Y-110863927D01*
G37*
G36*
X120281000Y-112661000D02*
G01*
X118479000Y-112661000D01*
X118479000Y-110859000D01*
X120281000Y-110859000D01*
X120281000Y-112661000D01*
G37*
G36*
X170293512Y-110863927D02*
G01*
X170442812Y-110893624D01*
X170606784Y-110961544D01*
X170754354Y-111060147D01*
X170879853Y-111185646D01*
X170978456Y-111333216D01*
X171046376Y-111497188D01*
X171081000Y-111671259D01*
X171081000Y-111848741D01*
X171046376Y-112022812D01*
X170978456Y-112186784D01*
X170879853Y-112334354D01*
X170754354Y-112459853D01*
X170606784Y-112558456D01*
X170442812Y-112626376D01*
X170293512Y-112656073D01*
X170268742Y-112661000D01*
X170091258Y-112661000D01*
X170066488Y-112656073D01*
X169917188Y-112626376D01*
X169753216Y-112558456D01*
X169605646Y-112459853D01*
X169480147Y-112334354D01*
X169381544Y-112186784D01*
X169313624Y-112022812D01*
X169279000Y-111848741D01*
X169279000Y-111671259D01*
X169313624Y-111497188D01*
X169381544Y-111333216D01*
X169480147Y-111185646D01*
X169605646Y-111060147D01*
X169753216Y-110961544D01*
X169917188Y-110893624D01*
X170066488Y-110863927D01*
X170091258Y-110859000D01*
X170268742Y-110859000D01*
X170293512Y-110863927D01*
G37*
G36*
X169439880Y-104185776D02*
G01*
X169820593Y-104261504D01*
X170230249Y-104431189D01*
X170598929Y-104677534D01*
X170912466Y-104991071D01*
X171158811Y-105359751D01*
X171328496Y-105769407D01*
X171415000Y-106204296D01*
X171415000Y-106647704D01*
X171328496Y-107082593D01*
X171158811Y-107492249D01*
X170912466Y-107860929D01*
X170598929Y-108174466D01*
X170230249Y-108420811D01*
X169820593Y-108590496D01*
X169439880Y-108666224D01*
X169385705Y-108677000D01*
X168942295Y-108677000D01*
X168888120Y-108666224D01*
X168507407Y-108590496D01*
X168097751Y-108420811D01*
X167729071Y-108174466D01*
X167415534Y-107860929D01*
X167169189Y-107492249D01*
X166999504Y-107082593D01*
X166913000Y-106647704D01*
X166913000Y-106204296D01*
X166999504Y-105769407D01*
X167169189Y-105359751D01*
X167415534Y-104991071D01*
X167729071Y-104677534D01*
X168097751Y-104431189D01*
X168507407Y-104261504D01*
X168888120Y-104185776D01*
X168942295Y-104175000D01*
X169385705Y-104175000D01*
X169439880Y-104185776D01*
G37*
G36*
X171577355Y-101912140D02*
G01*
X171641118Y-101918420D01*
X171731904Y-101945960D01*
X171763836Y-101955646D01*
X171876925Y-102016094D01*
X171976054Y-102097446D01*
X172057406Y-102196575D01*
X172117854Y-102309664D01*
X172117855Y-102309668D01*
X172155080Y-102432382D01*
X172167649Y-102560000D01*
X172155080Y-102687618D01*
X172127540Y-102778404D01*
X172117854Y-102810336D01*
X172057406Y-102923425D01*
X171976054Y-103022554D01*
X171876925Y-103103906D01*
X171763836Y-103164354D01*
X171731904Y-103174040D01*
X171641118Y-103201580D01*
X171577355Y-103207860D01*
X171545474Y-103211000D01*
X170781526Y-103211000D01*
X170749645Y-103207860D01*
X170685882Y-103201580D01*
X170595096Y-103174040D01*
X170563164Y-103164354D01*
X170450075Y-103103906D01*
X170350946Y-103022554D01*
X170269594Y-102923425D01*
X170209146Y-102810336D01*
X170199460Y-102778404D01*
X170171920Y-102687618D01*
X170159351Y-102560000D01*
X170171920Y-102432382D01*
X170209145Y-102309668D01*
X170209146Y-102309664D01*
X170269594Y-102196575D01*
X170350946Y-102097446D01*
X170450075Y-102016094D01*
X170563164Y-101955646D01*
X170595096Y-101945960D01*
X170685882Y-101918420D01*
X170749645Y-101912140D01*
X170781526Y-101909000D01*
X171545474Y-101909000D01*
X171577355Y-101912140D01*
G37*
G36*
X168689848Y-100813820D02*
G01*
X168689850Y-100813821D01*
X168689851Y-100813821D01*
X168831074Y-100872317D01*
X168831077Y-100872319D01*
X168958169Y-100957239D01*
X169066261Y-101065331D01*
X169151181Y-101192423D01*
X169151183Y-101192426D01*
X169209679Y-101333649D01*
X169239500Y-101483571D01*
X169239500Y-101636429D01*
X169209679Y-101786351D01*
X169151183Y-101927574D01*
X169151181Y-101927577D01*
X169066261Y-102054669D01*
X168958169Y-102162761D01*
X168831077Y-102247681D01*
X168831074Y-102247683D01*
X168689851Y-102306179D01*
X168689850Y-102306179D01*
X168689848Y-102306180D01*
X168539931Y-102336000D01*
X168387069Y-102336000D01*
X168237152Y-102306180D01*
X168237150Y-102306179D01*
X168237149Y-102306179D01*
X168095926Y-102247683D01*
X168095923Y-102247681D01*
X167968831Y-102162761D01*
X167860739Y-102054669D01*
X167775819Y-101927577D01*
X167775817Y-101927574D01*
X167717321Y-101786351D01*
X167687500Y-101636429D01*
X167687500Y-101483571D01*
X167717321Y-101333649D01*
X167775817Y-101192426D01*
X167775819Y-101192423D01*
X167860739Y-101065331D01*
X167968831Y-100957239D01*
X168095923Y-100872319D01*
X168095926Y-100872317D01*
X168237149Y-100813821D01*
X168237150Y-100813821D01*
X168237152Y-100813820D01*
X168387069Y-100784000D01*
X168539931Y-100784000D01*
X168689848Y-100813820D01*
G37*
G36*
X168689848Y-95813820D02*
G01*
X168689850Y-95813821D01*
X168689851Y-95813821D01*
X168831074Y-95872317D01*
X168831077Y-95872319D01*
X168958169Y-95957239D01*
X169066261Y-96065331D01*
X169151181Y-96192423D01*
X169151183Y-96192426D01*
X169209679Y-96333649D01*
X169239500Y-96483571D01*
X169239500Y-96636429D01*
X169209679Y-96786351D01*
X169151183Y-96927574D01*
X169151181Y-96927577D01*
X169066261Y-97054669D01*
X168958169Y-97162761D01*
X168831077Y-97247681D01*
X168831074Y-97247683D01*
X168689851Y-97306179D01*
X168689850Y-97306179D01*
X168689848Y-97306180D01*
X168539931Y-97336000D01*
X168387069Y-97336000D01*
X168237152Y-97306180D01*
X168237150Y-97306179D01*
X168237149Y-97306179D01*
X168095926Y-97247683D01*
X168095923Y-97247681D01*
X167968831Y-97162761D01*
X167860739Y-97054669D01*
X167775819Y-96927577D01*
X167775817Y-96927574D01*
X167717321Y-96786351D01*
X167687500Y-96636429D01*
X167687500Y-96483571D01*
X167717321Y-96333649D01*
X167775817Y-96192426D01*
X167775819Y-96192423D01*
X167860739Y-96065331D01*
X167968831Y-95957239D01*
X168095923Y-95872319D01*
X168095926Y-95872317D01*
X168237149Y-95813821D01*
X168237150Y-95813821D01*
X168237152Y-95813820D01*
X168387069Y-95784000D01*
X168539931Y-95784000D01*
X168689848Y-95813820D01*
G37*
G36*
X171577355Y-94912140D02*
G01*
X171641118Y-94918420D01*
X171731904Y-94945960D01*
X171763836Y-94955646D01*
X171876925Y-95016094D01*
X171976054Y-95097446D01*
X172057406Y-95196575D01*
X172117854Y-95309664D01*
X172117855Y-95309668D01*
X172155080Y-95432382D01*
X172167649Y-95560000D01*
X172155080Y-95687618D01*
X172127540Y-95778404D01*
X172117854Y-95810336D01*
X172057406Y-95923425D01*
X171976054Y-96022554D01*
X171876925Y-96103906D01*
X171763836Y-96164354D01*
X171731904Y-96174040D01*
X171641118Y-96201580D01*
X171577355Y-96207860D01*
X171545474Y-96211000D01*
X170781526Y-96211000D01*
X170749645Y-96207860D01*
X170685882Y-96201580D01*
X170595096Y-96174040D01*
X170563164Y-96164354D01*
X170450075Y-96103906D01*
X170350946Y-96022554D01*
X170269594Y-95923425D01*
X170209146Y-95810336D01*
X170199460Y-95778404D01*
X170171920Y-95687618D01*
X170159351Y-95560000D01*
X170171920Y-95432382D01*
X170209145Y-95309668D01*
X170209146Y-95309664D01*
X170269594Y-95196575D01*
X170350946Y-95097446D01*
X170450075Y-95016094D01*
X170563164Y-94955646D01*
X170595096Y-94945960D01*
X170685882Y-94918420D01*
X170749645Y-94912140D01*
X170781526Y-94909000D01*
X171545474Y-94909000D01*
X171577355Y-94912140D01*
G37*
G36*
X169439880Y-89453776D02*
G01*
X169820593Y-89529504D01*
X170230249Y-89699189D01*
X170598929Y-89945534D01*
X170912466Y-90259071D01*
X171158811Y-90627751D01*
X171328496Y-91037407D01*
X171415000Y-91472296D01*
X171415000Y-91915704D01*
X171328496Y-92350593D01*
X171158811Y-92760249D01*
X170912466Y-93128929D01*
X170598929Y-93442466D01*
X170230249Y-93688811D01*
X169820593Y-93858496D01*
X169439880Y-93934224D01*
X169385705Y-93945000D01*
X168942295Y-93945000D01*
X168888120Y-93934224D01*
X168507407Y-93858496D01*
X168097751Y-93688811D01*
X167729071Y-93442466D01*
X167415534Y-93128929D01*
X167169189Y-92760249D01*
X166999504Y-92350593D01*
X166913000Y-91915704D01*
X166913000Y-91472296D01*
X166999504Y-91037407D01*
X167169189Y-90627751D01*
X167415534Y-90259071D01*
X167729071Y-89945534D01*
X168097751Y-89699189D01*
X168507407Y-89529504D01*
X168888120Y-89453776D01*
X168942295Y-89443000D01*
X169385705Y-89443000D01*
X169439880Y-89453776D01*
G37*
G36*
X124573512Y-85463927D02*
G01*
X124722812Y-85493624D01*
X124886784Y-85561544D01*
X125034354Y-85660147D01*
X125159853Y-85785646D01*
X125258456Y-85933216D01*
X125326376Y-86097188D01*
X125361000Y-86271259D01*
X125361000Y-86448741D01*
X125326376Y-86622812D01*
X125258456Y-86786784D01*
X125159853Y-86934354D01*
X125034354Y-87059853D01*
X124886784Y-87158456D01*
X124722812Y-87226376D01*
X124573512Y-87256073D01*
X124548742Y-87261000D01*
X124371258Y-87261000D01*
X124346488Y-87256073D01*
X124197188Y-87226376D01*
X124033216Y-87158456D01*
X123885646Y-87059853D01*
X123760147Y-86934354D01*
X123661544Y-86786784D01*
X123593624Y-86622812D01*
X123559000Y-86448741D01*
X123559000Y-86271259D01*
X123593624Y-86097188D01*
X123661544Y-85933216D01*
X123760147Y-85785646D01*
X123885646Y-85660147D01*
X124033216Y-85561544D01*
X124197188Y-85493624D01*
X124346488Y-85463927D01*
X124371258Y-85459000D01*
X124548742Y-85459000D01*
X124573512Y-85463927D01*
G37*
G36*
X127113512Y-85463927D02*
G01*
X127262812Y-85493624D01*
X127426784Y-85561544D01*
X127574354Y-85660147D01*
X127699853Y-85785646D01*
X127798456Y-85933216D01*
X127866376Y-86097188D01*
X127901000Y-86271259D01*
X127901000Y-86448741D01*
X127866376Y-86622812D01*
X127798456Y-86786784D01*
X127699853Y-86934354D01*
X127574354Y-87059853D01*
X127426784Y-87158456D01*
X127262812Y-87226376D01*
X127113512Y-87256073D01*
X127088742Y-87261000D01*
X126911258Y-87261000D01*
X126886488Y-87256073D01*
X126737188Y-87226376D01*
X126573216Y-87158456D01*
X126425646Y-87059853D01*
X126300147Y-86934354D01*
X126201544Y-86786784D01*
X126133624Y-86622812D01*
X126099000Y-86448741D01*
X126099000Y-86271259D01*
X126133624Y-86097188D01*
X126201544Y-85933216D01*
X126300147Y-85785646D01*
X126425646Y-85660147D01*
X126573216Y-85561544D01*
X126737188Y-85493624D01*
X126886488Y-85463927D01*
X126911258Y-85459000D01*
X127088742Y-85459000D01*
X127113512Y-85463927D01*
G37*
G36*
X129653512Y-85463927D02*
G01*
X129802812Y-85493624D01*
X129966784Y-85561544D01*
X130114354Y-85660147D01*
X130239853Y-85785646D01*
X130338456Y-85933216D01*
X130406376Y-86097188D01*
X130441000Y-86271259D01*
X130441000Y-86448741D01*
X130406376Y-86622812D01*
X130338456Y-86786784D01*
X130239853Y-86934354D01*
X130114354Y-87059853D01*
X129966784Y-87158456D01*
X129802812Y-87226376D01*
X129653512Y-87256073D01*
X129628742Y-87261000D01*
X129451258Y-87261000D01*
X129426488Y-87256073D01*
X129277188Y-87226376D01*
X129113216Y-87158456D01*
X128965646Y-87059853D01*
X128840147Y-86934354D01*
X128741544Y-86786784D01*
X128673624Y-86622812D01*
X128639000Y-86448741D01*
X128639000Y-86271259D01*
X128673624Y-86097188D01*
X128741544Y-85933216D01*
X128840147Y-85785646D01*
X128965646Y-85660147D01*
X129113216Y-85561544D01*
X129277188Y-85493624D01*
X129426488Y-85463927D01*
X129451258Y-85459000D01*
X129628742Y-85459000D01*
X129653512Y-85463927D01*
G37*
G36*
X132193512Y-85463927D02*
G01*
X132342812Y-85493624D01*
X132506784Y-85561544D01*
X132654354Y-85660147D01*
X132779853Y-85785646D01*
X132878456Y-85933216D01*
X132946376Y-86097188D01*
X132981000Y-86271259D01*
X132981000Y-86448741D01*
X132946376Y-86622812D01*
X132878456Y-86786784D01*
X132779853Y-86934354D01*
X132654354Y-87059853D01*
X132506784Y-87158456D01*
X132342812Y-87226376D01*
X132193512Y-87256073D01*
X132168742Y-87261000D01*
X131991258Y-87261000D01*
X131966488Y-87256073D01*
X131817188Y-87226376D01*
X131653216Y-87158456D01*
X131505646Y-87059853D01*
X131380147Y-86934354D01*
X131281544Y-86786784D01*
X131213624Y-86622812D01*
X131179000Y-86448741D01*
X131179000Y-86271259D01*
X131213624Y-86097188D01*
X131281544Y-85933216D01*
X131380147Y-85785646D01*
X131505646Y-85660147D01*
X131653216Y-85561544D01*
X131817188Y-85493624D01*
X131966488Y-85463927D01*
X131991258Y-85459000D01*
X132168742Y-85459000D01*
X132193512Y-85463927D01*
G37*
G36*
X120281000Y-87261000D02*
G01*
X118479000Y-87261000D01*
X118479000Y-85459000D01*
X120281000Y-85459000D01*
X120281000Y-87261000D01*
G37*
G36*
X122033512Y-85463927D02*
G01*
X122182812Y-85493624D01*
X122346784Y-85561544D01*
X122494354Y-85660147D01*
X122619853Y-85785646D01*
X122718456Y-85933216D01*
X122786376Y-86097188D01*
X122821000Y-86271259D01*
X122821000Y-86448741D01*
X122786376Y-86622812D01*
X122718456Y-86786784D01*
X122619853Y-86934354D01*
X122494354Y-87059853D01*
X122346784Y-87158456D01*
X122182812Y-87226376D01*
X122033512Y-87256073D01*
X122008742Y-87261000D01*
X121831258Y-87261000D01*
X121806488Y-87256073D01*
X121657188Y-87226376D01*
X121493216Y-87158456D01*
X121345646Y-87059853D01*
X121220147Y-86934354D01*
X121121544Y-86786784D01*
X121053624Y-86622812D01*
X121019000Y-86448741D01*
X121019000Y-86271259D01*
X121053624Y-86097188D01*
X121121544Y-85933216D01*
X121220147Y-85785646D01*
X121345646Y-85660147D01*
X121493216Y-85561544D01*
X121657188Y-85493624D01*
X121806488Y-85463927D01*
X121831258Y-85459000D01*
X122008742Y-85459000D01*
X122033512Y-85463927D01*
G37*
G36*
X170293512Y-85463927D02*
G01*
X170442812Y-85493624D01*
X170606784Y-85561544D01*
X170754354Y-85660147D01*
X170879853Y-85785646D01*
X170978456Y-85933216D01*
X171046376Y-86097188D01*
X171081000Y-86271259D01*
X171081000Y-86448741D01*
X171046376Y-86622812D01*
X170978456Y-86786784D01*
X170879853Y-86934354D01*
X170754354Y-87059853D01*
X170606784Y-87158456D01*
X170442812Y-87226376D01*
X170293512Y-87256073D01*
X170268742Y-87261000D01*
X170091258Y-87261000D01*
X170066488Y-87256073D01*
X169917188Y-87226376D01*
X169753216Y-87158456D01*
X169605646Y-87059853D01*
X169480147Y-86934354D01*
X169381544Y-86786784D01*
X169313624Y-86622812D01*
X169279000Y-86448741D01*
X169279000Y-86271259D01*
X169313624Y-86097188D01*
X169381544Y-85933216D01*
X169480147Y-85785646D01*
X169605646Y-85660147D01*
X169753216Y-85561544D01*
X169917188Y-85493624D01*
X170066488Y-85463927D01*
X170091258Y-85459000D01*
X170268742Y-85459000D01*
X170293512Y-85463927D01*
G37*
G36*
X167753512Y-85463927D02*
G01*
X167902812Y-85493624D01*
X168066784Y-85561544D01*
X168214354Y-85660147D01*
X168339853Y-85785646D01*
X168438456Y-85933216D01*
X168506376Y-86097188D01*
X168541000Y-86271259D01*
X168541000Y-86448741D01*
X168506376Y-86622812D01*
X168438456Y-86786784D01*
X168339853Y-86934354D01*
X168214354Y-87059853D01*
X168066784Y-87158456D01*
X167902812Y-87226376D01*
X167753512Y-87256073D01*
X167728742Y-87261000D01*
X167551258Y-87261000D01*
X167526488Y-87256073D01*
X167377188Y-87226376D01*
X167213216Y-87158456D01*
X167065646Y-87059853D01*
X166940147Y-86934354D01*
X166841544Y-86786784D01*
X166773624Y-86622812D01*
X166739000Y-86448741D01*
X166739000Y-86271259D01*
X166773624Y-86097188D01*
X166841544Y-85933216D01*
X166940147Y-85785646D01*
X167065646Y-85660147D01*
X167213216Y-85561544D01*
X167377188Y-85493624D01*
X167526488Y-85463927D01*
X167551258Y-85459000D01*
X167728742Y-85459000D01*
X167753512Y-85463927D01*
G37*
G36*
X165213512Y-85463927D02*
G01*
X165362812Y-85493624D01*
X165526784Y-85561544D01*
X165674354Y-85660147D01*
X165799853Y-85785646D01*
X165898456Y-85933216D01*
X165966376Y-86097188D01*
X166001000Y-86271259D01*
X166001000Y-86448741D01*
X165966376Y-86622812D01*
X165898456Y-86786784D01*
X165799853Y-86934354D01*
X165674354Y-87059853D01*
X165526784Y-87158456D01*
X165362812Y-87226376D01*
X165213512Y-87256073D01*
X165188742Y-87261000D01*
X165011258Y-87261000D01*
X164986488Y-87256073D01*
X164837188Y-87226376D01*
X164673216Y-87158456D01*
X164525646Y-87059853D01*
X164400147Y-86934354D01*
X164301544Y-86786784D01*
X164233624Y-86622812D01*
X164199000Y-86448741D01*
X164199000Y-86271259D01*
X164233624Y-86097188D01*
X164301544Y-85933216D01*
X164400147Y-85785646D01*
X164525646Y-85660147D01*
X164673216Y-85561544D01*
X164837188Y-85493624D01*
X164986488Y-85463927D01*
X165011258Y-85459000D01*
X165188742Y-85459000D01*
X165213512Y-85463927D01*
G37*
G36*
X134733512Y-85463927D02*
G01*
X134882812Y-85493624D01*
X135046784Y-85561544D01*
X135194354Y-85660147D01*
X135319853Y-85785646D01*
X135418456Y-85933216D01*
X135486376Y-86097188D01*
X135521000Y-86271259D01*
X135521000Y-86448741D01*
X135486376Y-86622812D01*
X135418456Y-86786784D01*
X135319853Y-86934354D01*
X135194354Y-87059853D01*
X135046784Y-87158456D01*
X134882812Y-87226376D01*
X134733512Y-87256073D01*
X134708742Y-87261000D01*
X134531258Y-87261000D01*
X134506488Y-87256073D01*
X134357188Y-87226376D01*
X134193216Y-87158456D01*
X134045646Y-87059853D01*
X133920147Y-86934354D01*
X133821544Y-86786784D01*
X133753624Y-86622812D01*
X133719000Y-86448741D01*
X133719000Y-86271259D01*
X133753624Y-86097188D01*
X133821544Y-85933216D01*
X133920147Y-85785646D01*
X134045646Y-85660147D01*
X134193216Y-85561544D01*
X134357188Y-85493624D01*
X134506488Y-85463927D01*
X134531258Y-85459000D01*
X134708742Y-85459000D01*
X134733512Y-85463927D01*
G37*
G36*
X160133512Y-85463927D02*
G01*
X160282812Y-85493624D01*
X160446784Y-85561544D01*
X160594354Y-85660147D01*
X160719853Y-85785646D01*
X160818456Y-85933216D01*
X160886376Y-86097188D01*
X160921000Y-86271259D01*
X160921000Y-86448741D01*
X160886376Y-86622812D01*
X160818456Y-86786784D01*
X160719853Y-86934354D01*
X160594354Y-87059853D01*
X160446784Y-87158456D01*
X160282812Y-87226376D01*
X160133512Y-87256073D01*
X160108742Y-87261000D01*
X159931258Y-87261000D01*
X159906488Y-87256073D01*
X159757188Y-87226376D01*
X159593216Y-87158456D01*
X159445646Y-87059853D01*
X159320147Y-86934354D01*
X159221544Y-86786784D01*
X159153624Y-86622812D01*
X159119000Y-86448741D01*
X159119000Y-86271259D01*
X159153624Y-86097188D01*
X159221544Y-85933216D01*
X159320147Y-85785646D01*
X159445646Y-85660147D01*
X159593216Y-85561544D01*
X159757188Y-85493624D01*
X159906488Y-85463927D01*
X159931258Y-85459000D01*
X160108742Y-85459000D01*
X160133512Y-85463927D01*
G37*
G36*
X157593512Y-85463927D02*
G01*
X157742812Y-85493624D01*
X157906784Y-85561544D01*
X158054354Y-85660147D01*
X158179853Y-85785646D01*
X158278456Y-85933216D01*
X158346376Y-86097188D01*
X158381000Y-86271259D01*
X158381000Y-86448741D01*
X158346376Y-86622812D01*
X158278456Y-86786784D01*
X158179853Y-86934354D01*
X158054354Y-87059853D01*
X157906784Y-87158456D01*
X157742812Y-87226376D01*
X157593512Y-87256073D01*
X157568742Y-87261000D01*
X157391258Y-87261000D01*
X157366488Y-87256073D01*
X157217188Y-87226376D01*
X157053216Y-87158456D01*
X156905646Y-87059853D01*
X156780147Y-86934354D01*
X156681544Y-86786784D01*
X156613624Y-86622812D01*
X156579000Y-86448741D01*
X156579000Y-86271259D01*
X156613624Y-86097188D01*
X156681544Y-85933216D01*
X156780147Y-85785646D01*
X156905646Y-85660147D01*
X157053216Y-85561544D01*
X157217188Y-85493624D01*
X157366488Y-85463927D01*
X157391258Y-85459000D01*
X157568742Y-85459000D01*
X157593512Y-85463927D01*
G37*
G36*
X155053512Y-85463927D02*
G01*
X155202812Y-85493624D01*
X155366784Y-85561544D01*
X155514354Y-85660147D01*
X155639853Y-85785646D01*
X155738456Y-85933216D01*
X155806376Y-86097188D01*
X155841000Y-86271259D01*
X155841000Y-86448741D01*
X155806376Y-86622812D01*
X155738456Y-86786784D01*
X155639853Y-86934354D01*
X155514354Y-87059853D01*
X155366784Y-87158456D01*
X155202812Y-87226376D01*
X155053512Y-87256073D01*
X155028742Y-87261000D01*
X154851258Y-87261000D01*
X154826488Y-87256073D01*
X154677188Y-87226376D01*
X154513216Y-87158456D01*
X154365646Y-87059853D01*
X154240147Y-86934354D01*
X154141544Y-86786784D01*
X154073624Y-86622812D01*
X154039000Y-86448741D01*
X154039000Y-86271259D01*
X154073624Y-86097188D01*
X154141544Y-85933216D01*
X154240147Y-85785646D01*
X154365646Y-85660147D01*
X154513216Y-85561544D01*
X154677188Y-85493624D01*
X154826488Y-85463927D01*
X154851258Y-85459000D01*
X155028742Y-85459000D01*
X155053512Y-85463927D01*
G37*
G36*
X152513512Y-85463927D02*
G01*
X152662812Y-85493624D01*
X152826784Y-85561544D01*
X152974354Y-85660147D01*
X153099853Y-85785646D01*
X153198456Y-85933216D01*
X153266376Y-86097188D01*
X153301000Y-86271259D01*
X153301000Y-86448741D01*
X153266376Y-86622812D01*
X153198456Y-86786784D01*
X153099853Y-86934354D01*
X152974354Y-87059853D01*
X152826784Y-87158456D01*
X152662812Y-87226376D01*
X152513512Y-87256073D01*
X152488742Y-87261000D01*
X152311258Y-87261000D01*
X152286488Y-87256073D01*
X152137188Y-87226376D01*
X151973216Y-87158456D01*
X151825646Y-87059853D01*
X151700147Y-86934354D01*
X151601544Y-86786784D01*
X151533624Y-86622812D01*
X151499000Y-86448741D01*
X151499000Y-86271259D01*
X151533624Y-86097188D01*
X151601544Y-85933216D01*
X151700147Y-85785646D01*
X151825646Y-85660147D01*
X151973216Y-85561544D01*
X152137188Y-85493624D01*
X152286488Y-85463927D01*
X152311258Y-85459000D01*
X152488742Y-85459000D01*
X152513512Y-85463927D01*
G37*
G36*
X149973512Y-85463927D02*
G01*
X150122812Y-85493624D01*
X150286784Y-85561544D01*
X150434354Y-85660147D01*
X150559853Y-85785646D01*
X150658456Y-85933216D01*
X150726376Y-86097188D01*
X150761000Y-86271259D01*
X150761000Y-86448741D01*
X150726376Y-86622812D01*
X150658456Y-86786784D01*
X150559853Y-86934354D01*
X150434354Y-87059853D01*
X150286784Y-87158456D01*
X150122812Y-87226376D01*
X149973512Y-87256073D01*
X149948742Y-87261000D01*
X149771258Y-87261000D01*
X149746488Y-87256073D01*
X149597188Y-87226376D01*
X149433216Y-87158456D01*
X149285646Y-87059853D01*
X149160147Y-86934354D01*
X149061544Y-86786784D01*
X148993624Y-86622812D01*
X148959000Y-86448741D01*
X148959000Y-86271259D01*
X148993624Y-86097188D01*
X149061544Y-85933216D01*
X149160147Y-85785646D01*
X149285646Y-85660147D01*
X149433216Y-85561544D01*
X149597188Y-85493624D01*
X149746488Y-85463927D01*
X149771258Y-85459000D01*
X149948742Y-85459000D01*
X149973512Y-85463927D01*
G37*
G36*
X147433512Y-85463927D02*
G01*
X147582812Y-85493624D01*
X147746784Y-85561544D01*
X147894354Y-85660147D01*
X148019853Y-85785646D01*
X148118456Y-85933216D01*
X148186376Y-86097188D01*
X148221000Y-86271259D01*
X148221000Y-86448741D01*
X148186376Y-86622812D01*
X148118456Y-86786784D01*
X148019853Y-86934354D01*
X147894354Y-87059853D01*
X147746784Y-87158456D01*
X147582812Y-87226376D01*
X147433512Y-87256073D01*
X147408742Y-87261000D01*
X147231258Y-87261000D01*
X147206488Y-87256073D01*
X147057188Y-87226376D01*
X146893216Y-87158456D01*
X146745646Y-87059853D01*
X146620147Y-86934354D01*
X146521544Y-86786784D01*
X146453624Y-86622812D01*
X146419000Y-86448741D01*
X146419000Y-86271259D01*
X146453624Y-86097188D01*
X146521544Y-85933216D01*
X146620147Y-85785646D01*
X146745646Y-85660147D01*
X146893216Y-85561544D01*
X147057188Y-85493624D01*
X147206488Y-85463927D01*
X147231258Y-85459000D01*
X147408742Y-85459000D01*
X147433512Y-85463927D01*
G37*
G36*
X144893512Y-85463927D02*
G01*
X145042812Y-85493624D01*
X145206784Y-85561544D01*
X145354354Y-85660147D01*
X145479853Y-85785646D01*
X145578456Y-85933216D01*
X145646376Y-86097188D01*
X145681000Y-86271259D01*
X145681000Y-86448741D01*
X145646376Y-86622812D01*
X145578456Y-86786784D01*
X145479853Y-86934354D01*
X145354354Y-87059853D01*
X145206784Y-87158456D01*
X145042812Y-87226376D01*
X144893512Y-87256073D01*
X144868742Y-87261000D01*
X144691258Y-87261000D01*
X144666488Y-87256073D01*
X144517188Y-87226376D01*
X144353216Y-87158456D01*
X144205646Y-87059853D01*
X144080147Y-86934354D01*
X143981544Y-86786784D01*
X143913624Y-86622812D01*
X143879000Y-86448741D01*
X143879000Y-86271259D01*
X143913624Y-86097188D01*
X143981544Y-85933216D01*
X144080147Y-85785646D01*
X144205646Y-85660147D01*
X144353216Y-85561544D01*
X144517188Y-85493624D01*
X144666488Y-85463927D01*
X144691258Y-85459000D01*
X144868742Y-85459000D01*
X144893512Y-85463927D01*
G37*
G36*
X142353512Y-85463927D02*
G01*
X142502812Y-85493624D01*
X142666784Y-85561544D01*
X142814354Y-85660147D01*
X142939853Y-85785646D01*
X143038456Y-85933216D01*
X143106376Y-86097188D01*
X143141000Y-86271259D01*
X143141000Y-86448741D01*
X143106376Y-86622812D01*
X143038456Y-86786784D01*
X142939853Y-86934354D01*
X142814354Y-87059853D01*
X142666784Y-87158456D01*
X142502812Y-87226376D01*
X142353512Y-87256073D01*
X142328742Y-87261000D01*
X142151258Y-87261000D01*
X142126488Y-87256073D01*
X141977188Y-87226376D01*
X141813216Y-87158456D01*
X141665646Y-87059853D01*
X141540147Y-86934354D01*
X141441544Y-86786784D01*
X141373624Y-86622812D01*
X141339000Y-86448741D01*
X141339000Y-86271259D01*
X141373624Y-86097188D01*
X141441544Y-85933216D01*
X141540147Y-85785646D01*
X141665646Y-85660147D01*
X141813216Y-85561544D01*
X141977188Y-85493624D01*
X142126488Y-85463927D01*
X142151258Y-85459000D01*
X142328742Y-85459000D01*
X142353512Y-85463927D01*
G37*
G36*
X139813512Y-85463927D02*
G01*
X139962812Y-85493624D01*
X140126784Y-85561544D01*
X140274354Y-85660147D01*
X140399853Y-85785646D01*
X140498456Y-85933216D01*
X140566376Y-86097188D01*
X140601000Y-86271259D01*
X140601000Y-86448741D01*
X140566376Y-86622812D01*
X140498456Y-86786784D01*
X140399853Y-86934354D01*
X140274354Y-87059853D01*
X140126784Y-87158456D01*
X139962812Y-87226376D01*
X139813512Y-87256073D01*
X139788742Y-87261000D01*
X139611258Y-87261000D01*
X139586488Y-87256073D01*
X139437188Y-87226376D01*
X139273216Y-87158456D01*
X139125646Y-87059853D01*
X139000147Y-86934354D01*
X138901544Y-86786784D01*
X138833624Y-86622812D01*
X138799000Y-86448741D01*
X138799000Y-86271259D01*
X138833624Y-86097188D01*
X138901544Y-85933216D01*
X139000147Y-85785646D01*
X139125646Y-85660147D01*
X139273216Y-85561544D01*
X139437188Y-85493624D01*
X139586488Y-85463927D01*
X139611258Y-85459000D01*
X139788742Y-85459000D01*
X139813512Y-85463927D01*
G37*
G36*
X137273512Y-85463927D02*
G01*
X137422812Y-85493624D01*
X137586784Y-85561544D01*
X137734354Y-85660147D01*
X137859853Y-85785646D01*
X137958456Y-85933216D01*
X138026376Y-86097188D01*
X138061000Y-86271259D01*
X138061000Y-86448741D01*
X138026376Y-86622812D01*
X137958456Y-86786784D01*
X137859853Y-86934354D01*
X137734354Y-87059853D01*
X137586784Y-87158456D01*
X137422812Y-87226376D01*
X137273512Y-87256073D01*
X137248742Y-87261000D01*
X137071258Y-87261000D01*
X137046488Y-87256073D01*
X136897188Y-87226376D01*
X136733216Y-87158456D01*
X136585646Y-87059853D01*
X136460147Y-86934354D01*
X136361544Y-86786784D01*
X136293624Y-86622812D01*
X136259000Y-86448741D01*
X136259000Y-86271259D01*
X136293624Y-86097188D01*
X136361544Y-85933216D01*
X136460147Y-85785646D01*
X136585646Y-85660147D01*
X136733216Y-85561544D01*
X136897188Y-85493624D01*
X137046488Y-85463927D01*
X137071258Y-85459000D01*
X137248742Y-85459000D01*
X137273512Y-85463927D01*
G37*
G36*
X162673512Y-85463927D02*
G01*
X162822812Y-85493624D01*
X162986784Y-85561544D01*
X163134354Y-85660147D01*
X163259853Y-85785646D01*
X163358456Y-85933216D01*
X163426376Y-86097188D01*
X163461000Y-86271259D01*
X163461000Y-86448741D01*
X163426376Y-86622812D01*
X163358456Y-86786784D01*
X163259853Y-86934354D01*
X163134354Y-87059853D01*
X162986784Y-87158456D01*
X162822812Y-87226376D01*
X162673512Y-87256073D01*
X162648742Y-87261000D01*
X162471258Y-87261000D01*
X162446488Y-87256073D01*
X162297188Y-87226376D01*
X162133216Y-87158456D01*
X161985646Y-87059853D01*
X161860147Y-86934354D01*
X161761544Y-86786784D01*
X161693624Y-86622812D01*
X161659000Y-86448741D01*
X161659000Y-86271259D01*
X161693624Y-86097188D01*
X161761544Y-85933216D01*
X161860147Y-85785646D01*
X161985646Y-85660147D01*
X162133216Y-85561544D01*
X162297188Y-85493624D01*
X162446488Y-85463927D01*
X162471258Y-85459000D01*
X162648742Y-85459000D01*
X162673512Y-85463927D01*
G37*
M02*
