G04 #@! TF.GenerationSoftware,KiCad,Pcbnew,(5.1.6)-1*
G04 #@! TF.CreationDate,2020-08-30T12:06:01+10:00*
G04 #@! TF.ProjectId,ESP32-S2-Breakout,45535033-322d-4533-922d-427265616b6f,rev?*
G04 #@! TF.SameCoordinates,Original*
G04 #@! TF.FileFunction,Legend,Bot*
G04 #@! TF.FilePolarity,Positive*
%FSLAX46Y46*%
G04 Gerber Fmt 4.6, Leading zero omitted, Abs format (unit mm)*
G04 Created by KiCad (PCBNEW (5.1.6)-1) date 2020-08-30 12:06:01*
%MOMM*%
%LPD*%
G01*
G04 APERTURE LIST*
%ADD10C,0.150000*%
%ADD11C,0.120000*%
G04 APERTURE END LIST*
D10*
X175717142Y-109555000D02*
X175774285Y-109526428D01*
X175860000Y-109526428D01*
X175945714Y-109555000D01*
X176002857Y-109612142D01*
X176031428Y-109669285D01*
X176060000Y-109783571D01*
X176060000Y-109869285D01*
X176031428Y-109983571D01*
X176002857Y-110040714D01*
X175945714Y-110097857D01*
X175860000Y-110126428D01*
X175802857Y-110126428D01*
X175717142Y-110097857D01*
X175688571Y-110069285D01*
X175688571Y-109869285D01*
X175802857Y-109869285D01*
X175431428Y-110126428D02*
X175431428Y-109526428D01*
X175088571Y-110126428D01*
X175088571Y-109526428D01*
X174802857Y-110126428D02*
X174802857Y-109526428D01*
X174660000Y-109526428D01*
X174574285Y-109555000D01*
X174517142Y-109612142D01*
X174488571Y-109669285D01*
X174460000Y-109783571D01*
X174460000Y-109869285D01*
X174488571Y-109983571D01*
X174517142Y-110040714D01*
X174574285Y-110097857D01*
X174660000Y-110126428D01*
X174802857Y-110126428D01*
X172834285Y-109526428D02*
X173120000Y-109526428D01*
X173148571Y-109812142D01*
X173120000Y-109783571D01*
X173062857Y-109755000D01*
X172920000Y-109755000D01*
X172862857Y-109783571D01*
X172834285Y-109812142D01*
X172805714Y-109869285D01*
X172805714Y-110012142D01*
X172834285Y-110069285D01*
X172862857Y-110097857D01*
X172920000Y-110126428D01*
X173062857Y-110126428D01*
X173120000Y-110097857D01*
X173148571Y-110069285D01*
X172634285Y-109526428D02*
X172434285Y-110126428D01*
X172234285Y-109526428D01*
X174802857Y-88565000D02*
X174745714Y-88593571D01*
X174660000Y-88593571D01*
X174574285Y-88565000D01*
X174517142Y-88507857D01*
X174488571Y-88450714D01*
X174460000Y-88336428D01*
X174460000Y-88250714D01*
X174488571Y-88136428D01*
X174517142Y-88079285D01*
X174574285Y-88022142D01*
X174660000Y-87993571D01*
X174717142Y-87993571D01*
X174802857Y-88022142D01*
X174831428Y-88050714D01*
X174831428Y-88250714D01*
X174717142Y-88250714D01*
X175088571Y-87993571D02*
X175088571Y-88593571D01*
X175431428Y-87993571D01*
X175431428Y-88593571D01*
X175717142Y-87993571D02*
X175717142Y-88593571D01*
X175860000Y-88593571D01*
X175945714Y-88565000D01*
X176002857Y-88507857D01*
X176031428Y-88450714D01*
X176060000Y-88336428D01*
X176060000Y-88250714D01*
X176031428Y-88136428D01*
X176002857Y-88079285D01*
X175945714Y-88022142D01*
X175860000Y-87993571D01*
X175717142Y-87993571D01*
X172605714Y-88593571D02*
X172320000Y-88593571D01*
X172291428Y-88307857D01*
X172320000Y-88336428D01*
X172377142Y-88365000D01*
X172520000Y-88365000D01*
X172577142Y-88336428D01*
X172605714Y-88307857D01*
X172634285Y-88250714D01*
X172634285Y-88107857D01*
X172605714Y-88050714D01*
X172577142Y-88022142D01*
X172520000Y-87993571D01*
X172377142Y-87993571D01*
X172320000Y-88022142D01*
X172291428Y-88050714D01*
X172805714Y-88593571D02*
X173005714Y-87993571D01*
X173205714Y-88593571D01*
X124488571Y-109526428D02*
X124431428Y-109526428D01*
X124374285Y-109555000D01*
X124345714Y-109583571D01*
X124317142Y-109640714D01*
X124288571Y-109755000D01*
X124288571Y-109897857D01*
X124317142Y-110012142D01*
X124345714Y-110069285D01*
X124374285Y-110097857D01*
X124431428Y-110126428D01*
X124488571Y-110126428D01*
X124545714Y-110097857D01*
X124574285Y-110069285D01*
X124602857Y-110012142D01*
X124631428Y-109897857D01*
X124631428Y-109755000D01*
X124602857Y-109640714D01*
X124574285Y-109583571D01*
X124545714Y-109555000D01*
X124488571Y-109526428D01*
X155054285Y-110126428D02*
X155397142Y-110126428D01*
X155225714Y-110126428D02*
X155225714Y-109526428D01*
X155282857Y-109612142D01*
X155340000Y-109669285D01*
X155397142Y-109697857D01*
X154825714Y-109583571D02*
X154797142Y-109555000D01*
X154740000Y-109526428D01*
X154597142Y-109526428D01*
X154540000Y-109555000D01*
X154511428Y-109583571D01*
X154482857Y-109640714D01*
X154482857Y-109697857D01*
X154511428Y-109783571D01*
X154854285Y-110126428D01*
X154482857Y-110126428D01*
X152514285Y-110126428D02*
X152857142Y-110126428D01*
X152685714Y-110126428D02*
X152685714Y-109526428D01*
X152742857Y-109612142D01*
X152800000Y-109669285D01*
X152857142Y-109697857D01*
X151942857Y-110126428D02*
X152285714Y-110126428D01*
X152114285Y-110126428D02*
X152114285Y-109526428D01*
X152171428Y-109612142D01*
X152228571Y-109669285D01*
X152285714Y-109697857D01*
X160134285Y-110126428D02*
X160477142Y-110126428D01*
X160305714Y-110126428D02*
X160305714Y-109526428D01*
X160362857Y-109612142D01*
X160420000Y-109669285D01*
X160477142Y-109697857D01*
X159620000Y-109726428D02*
X159620000Y-110126428D01*
X159762857Y-109497857D02*
X159905714Y-109926428D01*
X159534285Y-109926428D01*
X157594285Y-110126428D02*
X157937142Y-110126428D01*
X157765714Y-110126428D02*
X157765714Y-109526428D01*
X157822857Y-109612142D01*
X157880000Y-109669285D01*
X157937142Y-109697857D01*
X157394285Y-109526428D02*
X157022857Y-109526428D01*
X157222857Y-109755000D01*
X157137142Y-109755000D01*
X157080000Y-109783571D01*
X157051428Y-109812142D01*
X157022857Y-109869285D01*
X157022857Y-110012142D01*
X157051428Y-110069285D01*
X157080000Y-110097857D01*
X157137142Y-110126428D01*
X157308571Y-110126428D01*
X157365714Y-110097857D01*
X157394285Y-110069285D01*
X147434285Y-110126428D02*
X147320000Y-110126428D01*
X147262857Y-110097857D01*
X147234285Y-110069285D01*
X147177142Y-109983571D01*
X147148571Y-109869285D01*
X147148571Y-109640714D01*
X147177142Y-109583571D01*
X147205714Y-109555000D01*
X147262857Y-109526428D01*
X147377142Y-109526428D01*
X147434285Y-109555000D01*
X147462857Y-109583571D01*
X147491428Y-109640714D01*
X147491428Y-109783571D01*
X147462857Y-109840714D01*
X147434285Y-109869285D01*
X147377142Y-109897857D01*
X147262857Y-109897857D01*
X147205714Y-109869285D01*
X147177142Y-109840714D01*
X147148571Y-109783571D01*
X129711428Y-109583571D02*
X129682857Y-109555000D01*
X129625714Y-109526428D01*
X129482857Y-109526428D01*
X129425714Y-109555000D01*
X129397142Y-109583571D01*
X129368571Y-109640714D01*
X129368571Y-109697857D01*
X129397142Y-109783571D01*
X129740000Y-110126428D01*
X129368571Y-110126428D01*
X144837142Y-109783571D02*
X144894285Y-109755000D01*
X144922857Y-109726428D01*
X144951428Y-109669285D01*
X144951428Y-109640714D01*
X144922857Y-109583571D01*
X144894285Y-109555000D01*
X144837142Y-109526428D01*
X144722857Y-109526428D01*
X144665714Y-109555000D01*
X144637142Y-109583571D01*
X144608571Y-109640714D01*
X144608571Y-109669285D01*
X144637142Y-109726428D01*
X144665714Y-109755000D01*
X144722857Y-109783571D01*
X144837142Y-109783571D01*
X144894285Y-109812142D01*
X144922857Y-109840714D01*
X144951428Y-109897857D01*
X144951428Y-110012142D01*
X144922857Y-110069285D01*
X144894285Y-110097857D01*
X144837142Y-110126428D01*
X144722857Y-110126428D01*
X144665714Y-110097857D01*
X144637142Y-110069285D01*
X144608571Y-110012142D01*
X144608571Y-109897857D01*
X144637142Y-109840714D01*
X144665714Y-109812142D01*
X144722857Y-109783571D01*
X162674285Y-110126428D02*
X163017142Y-110126428D01*
X162845714Y-110126428D02*
X162845714Y-109526428D01*
X162902857Y-109612142D01*
X162960000Y-109669285D01*
X163017142Y-109697857D01*
X162131428Y-109526428D02*
X162417142Y-109526428D01*
X162445714Y-109812142D01*
X162417142Y-109783571D01*
X162360000Y-109755000D01*
X162217142Y-109755000D01*
X162160000Y-109783571D01*
X162131428Y-109812142D01*
X162102857Y-109869285D01*
X162102857Y-110012142D01*
X162131428Y-110069285D01*
X162160000Y-110097857D01*
X162217142Y-110126428D01*
X162360000Y-110126428D01*
X162417142Y-110097857D01*
X162445714Y-110069285D01*
X170294285Y-110126428D02*
X170637142Y-110126428D01*
X170465714Y-110126428D02*
X170465714Y-109526428D01*
X170522857Y-109612142D01*
X170580000Y-109669285D01*
X170637142Y-109697857D01*
X169951428Y-109783571D02*
X170008571Y-109755000D01*
X170037142Y-109726428D01*
X170065714Y-109669285D01*
X170065714Y-109640714D01*
X170037142Y-109583571D01*
X170008571Y-109555000D01*
X169951428Y-109526428D01*
X169837142Y-109526428D01*
X169780000Y-109555000D01*
X169751428Y-109583571D01*
X169722857Y-109640714D01*
X169722857Y-109669285D01*
X169751428Y-109726428D01*
X169780000Y-109755000D01*
X169837142Y-109783571D01*
X169951428Y-109783571D01*
X170008571Y-109812142D01*
X170037142Y-109840714D01*
X170065714Y-109897857D01*
X170065714Y-110012142D01*
X170037142Y-110069285D01*
X170008571Y-110097857D01*
X169951428Y-110126428D01*
X169837142Y-110126428D01*
X169780000Y-110097857D01*
X169751428Y-110069285D01*
X169722857Y-110012142D01*
X169722857Y-109897857D01*
X169751428Y-109840714D01*
X169780000Y-109812142D01*
X169837142Y-109783571D01*
X132280000Y-109526428D02*
X131908571Y-109526428D01*
X132108571Y-109755000D01*
X132022857Y-109755000D01*
X131965714Y-109783571D01*
X131937142Y-109812142D01*
X131908571Y-109869285D01*
X131908571Y-110012142D01*
X131937142Y-110069285D01*
X131965714Y-110097857D01*
X132022857Y-110126428D01*
X132194285Y-110126428D01*
X132251428Y-110097857D01*
X132280000Y-110069285D01*
X119837142Y-109555000D02*
X119894285Y-109526428D01*
X119980000Y-109526428D01*
X120065714Y-109555000D01*
X120122857Y-109612142D01*
X120151428Y-109669285D01*
X120180000Y-109783571D01*
X120180000Y-109869285D01*
X120151428Y-109983571D01*
X120122857Y-110040714D01*
X120065714Y-110097857D01*
X119980000Y-110126428D01*
X119922857Y-110126428D01*
X119837142Y-110097857D01*
X119808571Y-110069285D01*
X119808571Y-109869285D01*
X119922857Y-109869285D01*
X119551428Y-110126428D02*
X119551428Y-109526428D01*
X119208571Y-110126428D01*
X119208571Y-109526428D01*
X118922857Y-110126428D02*
X118922857Y-109526428D01*
X118780000Y-109526428D01*
X118694285Y-109555000D01*
X118637142Y-109612142D01*
X118608571Y-109669285D01*
X118580000Y-109783571D01*
X118580000Y-109869285D01*
X118608571Y-109983571D01*
X118637142Y-110040714D01*
X118694285Y-110097857D01*
X118780000Y-110126428D01*
X118922857Y-110126428D01*
X122662857Y-109526428D02*
X122291428Y-109526428D01*
X122491428Y-109755000D01*
X122405714Y-109755000D01*
X122348571Y-109783571D01*
X122320000Y-109812142D01*
X122291428Y-109869285D01*
X122291428Y-110012142D01*
X122320000Y-110069285D01*
X122348571Y-110097857D01*
X122405714Y-110126428D01*
X122577142Y-110126428D01*
X122634285Y-110097857D01*
X122662857Y-110069285D01*
X122120000Y-109526428D02*
X121920000Y-110126428D01*
X121720000Y-109526428D01*
X121577142Y-109526428D02*
X121205714Y-109526428D01*
X121405714Y-109755000D01*
X121320000Y-109755000D01*
X121262857Y-109783571D01*
X121234285Y-109812142D01*
X121205714Y-109869285D01*
X121205714Y-110012142D01*
X121234285Y-110069285D01*
X121262857Y-110097857D01*
X121320000Y-110126428D01*
X121491428Y-110126428D01*
X121548571Y-110097857D01*
X121577142Y-110069285D01*
X126828571Y-110126428D02*
X127171428Y-110126428D01*
X127000000Y-110126428D02*
X127000000Y-109526428D01*
X127057142Y-109612142D01*
X127114285Y-109669285D01*
X127171428Y-109697857D01*
X149974285Y-110126428D02*
X150317142Y-110126428D01*
X150145714Y-110126428D02*
X150145714Y-109526428D01*
X150202857Y-109612142D01*
X150260000Y-109669285D01*
X150317142Y-109697857D01*
X149602857Y-109526428D02*
X149545714Y-109526428D01*
X149488571Y-109555000D01*
X149460000Y-109583571D01*
X149431428Y-109640714D01*
X149402857Y-109755000D01*
X149402857Y-109897857D01*
X149431428Y-110012142D01*
X149460000Y-110069285D01*
X149488571Y-110097857D01*
X149545714Y-110126428D01*
X149602857Y-110126428D01*
X149660000Y-110097857D01*
X149688571Y-110069285D01*
X149717142Y-110012142D01*
X149745714Y-109897857D01*
X149745714Y-109755000D01*
X149717142Y-109640714D01*
X149688571Y-109583571D01*
X149660000Y-109555000D01*
X149602857Y-109526428D01*
X134505714Y-109726428D02*
X134505714Y-110126428D01*
X134648571Y-109497857D02*
X134791428Y-109926428D01*
X134420000Y-109926428D01*
X137017142Y-109526428D02*
X137302857Y-109526428D01*
X137331428Y-109812142D01*
X137302857Y-109783571D01*
X137245714Y-109755000D01*
X137102857Y-109755000D01*
X137045714Y-109783571D01*
X137017142Y-109812142D01*
X136988571Y-109869285D01*
X136988571Y-110012142D01*
X137017142Y-110069285D01*
X137045714Y-110097857D01*
X137102857Y-110126428D01*
X137245714Y-110126428D01*
X137302857Y-110097857D01*
X137331428Y-110069285D01*
X139585714Y-109526428D02*
X139700000Y-109526428D01*
X139757142Y-109555000D01*
X139785714Y-109583571D01*
X139842857Y-109669285D01*
X139871428Y-109783571D01*
X139871428Y-110012142D01*
X139842857Y-110069285D01*
X139814285Y-110097857D01*
X139757142Y-110126428D01*
X139642857Y-110126428D01*
X139585714Y-110097857D01*
X139557142Y-110069285D01*
X139528571Y-110012142D01*
X139528571Y-109869285D01*
X139557142Y-109812142D01*
X139585714Y-109783571D01*
X139642857Y-109755000D01*
X139757142Y-109755000D01*
X139814285Y-109783571D01*
X139842857Y-109812142D01*
X139871428Y-109869285D01*
X142440000Y-109526428D02*
X142040000Y-109526428D01*
X142297142Y-110126428D01*
X167754285Y-110126428D02*
X168097142Y-110126428D01*
X167925714Y-110126428D02*
X167925714Y-109526428D01*
X167982857Y-109612142D01*
X168040000Y-109669285D01*
X168097142Y-109697857D01*
X167554285Y-109526428D02*
X167154285Y-109526428D01*
X167411428Y-110126428D01*
X165214285Y-110126428D02*
X165557142Y-110126428D01*
X165385714Y-110126428D02*
X165385714Y-109526428D01*
X165442857Y-109612142D01*
X165500000Y-109669285D01*
X165557142Y-109697857D01*
X164700000Y-109526428D02*
X164814285Y-109526428D01*
X164871428Y-109555000D01*
X164900000Y-109583571D01*
X164957142Y-109669285D01*
X164985714Y-109783571D01*
X164985714Y-110012142D01*
X164957142Y-110069285D01*
X164928571Y-110097857D01*
X164871428Y-110126428D01*
X164757142Y-110126428D01*
X164700000Y-110097857D01*
X164671428Y-110069285D01*
X164642857Y-110012142D01*
X164642857Y-109869285D01*
X164671428Y-109812142D01*
X164700000Y-109783571D01*
X164757142Y-109755000D01*
X164871428Y-109755000D01*
X164928571Y-109783571D01*
X164957142Y-109812142D01*
X164985714Y-109869285D01*
X124017142Y-88307857D02*
X124217142Y-88307857D01*
X124302857Y-87993571D02*
X124017142Y-87993571D01*
X124017142Y-88593571D01*
X124302857Y-88593571D01*
X124560000Y-87993571D02*
X124560000Y-88593571D01*
X124902857Y-87993571D01*
X124902857Y-88593571D01*
X144294285Y-88593571D02*
X144665714Y-88593571D01*
X144465714Y-88365000D01*
X144551428Y-88365000D01*
X144608571Y-88336428D01*
X144637142Y-88307857D01*
X144665714Y-88250714D01*
X144665714Y-88107857D01*
X144637142Y-88050714D01*
X144608571Y-88022142D01*
X144551428Y-87993571D01*
X144380000Y-87993571D01*
X144322857Y-88022142D01*
X144294285Y-88050714D01*
X144951428Y-87993571D02*
X145065714Y-87993571D01*
X145122857Y-88022142D01*
X145151428Y-88050714D01*
X145208571Y-88136428D01*
X145237142Y-88250714D01*
X145237142Y-88479285D01*
X145208571Y-88536428D01*
X145180000Y-88565000D01*
X145122857Y-88593571D01*
X145008571Y-88593571D01*
X144951428Y-88565000D01*
X144922857Y-88536428D01*
X144894285Y-88479285D01*
X144894285Y-88336428D01*
X144922857Y-88279285D01*
X144951428Y-88250714D01*
X145008571Y-88222142D01*
X145122857Y-88222142D01*
X145180000Y-88250714D01*
X145208571Y-88279285D01*
X145237142Y-88336428D01*
X151914285Y-88593571D02*
X152285714Y-88593571D01*
X152085714Y-88365000D01*
X152171428Y-88365000D01*
X152228571Y-88336428D01*
X152257142Y-88307857D01*
X152285714Y-88250714D01*
X152285714Y-88107857D01*
X152257142Y-88050714D01*
X152228571Y-88022142D01*
X152171428Y-87993571D01*
X152000000Y-87993571D01*
X151942857Y-88022142D01*
X151914285Y-88050714D01*
X152800000Y-88593571D02*
X152685714Y-88593571D01*
X152628571Y-88565000D01*
X152600000Y-88536428D01*
X152542857Y-88450714D01*
X152514285Y-88336428D01*
X152514285Y-88107857D01*
X152542857Y-88050714D01*
X152571428Y-88022142D01*
X152628571Y-87993571D01*
X152742857Y-87993571D01*
X152800000Y-88022142D01*
X152828571Y-88050714D01*
X152857142Y-88107857D01*
X152857142Y-88250714D01*
X152828571Y-88307857D01*
X152800000Y-88336428D01*
X152742857Y-88365000D01*
X152628571Y-88365000D01*
X152571428Y-88336428D01*
X152542857Y-88307857D01*
X152514285Y-88250714D01*
X156994285Y-88593571D02*
X157365714Y-88593571D01*
X157165714Y-88365000D01*
X157251428Y-88365000D01*
X157308571Y-88336428D01*
X157337142Y-88307857D01*
X157365714Y-88250714D01*
X157365714Y-88107857D01*
X157337142Y-88050714D01*
X157308571Y-88022142D01*
X157251428Y-87993571D01*
X157080000Y-87993571D01*
X157022857Y-88022142D01*
X156994285Y-88050714D01*
X157880000Y-88393571D02*
X157880000Y-87993571D01*
X157737142Y-88622142D02*
X157594285Y-88193571D01*
X157965714Y-88193571D01*
X154454285Y-88593571D02*
X154825714Y-88593571D01*
X154625714Y-88365000D01*
X154711428Y-88365000D01*
X154768571Y-88336428D01*
X154797142Y-88307857D01*
X154825714Y-88250714D01*
X154825714Y-88107857D01*
X154797142Y-88050714D01*
X154768571Y-88022142D01*
X154711428Y-87993571D01*
X154540000Y-87993571D01*
X154482857Y-88022142D01*
X154454285Y-88050714D01*
X155368571Y-88593571D02*
X155082857Y-88593571D01*
X155054285Y-88307857D01*
X155082857Y-88336428D01*
X155140000Y-88365000D01*
X155282857Y-88365000D01*
X155340000Y-88336428D01*
X155368571Y-88307857D01*
X155397142Y-88250714D01*
X155397142Y-88107857D01*
X155368571Y-88050714D01*
X155340000Y-88022142D01*
X155282857Y-87993571D01*
X155140000Y-87993571D01*
X155082857Y-88022142D01*
X155054285Y-88050714D01*
X134162857Y-88593571D02*
X134505714Y-88593571D01*
X134334285Y-87993571D02*
X134334285Y-88593571D01*
X134648571Y-88593571D02*
X135048571Y-87993571D01*
X135048571Y-88593571D02*
X134648571Y-87993571D01*
X118922857Y-88565000D02*
X118865714Y-88593571D01*
X118780000Y-88593571D01*
X118694285Y-88565000D01*
X118637142Y-88507857D01*
X118608571Y-88450714D01*
X118580000Y-88336428D01*
X118580000Y-88250714D01*
X118608571Y-88136428D01*
X118637142Y-88079285D01*
X118694285Y-88022142D01*
X118780000Y-87993571D01*
X118837142Y-87993571D01*
X118922857Y-88022142D01*
X118951428Y-88050714D01*
X118951428Y-88250714D01*
X118837142Y-88250714D01*
X119208571Y-87993571D02*
X119208571Y-88593571D01*
X119551428Y-87993571D01*
X119551428Y-88593571D01*
X119837142Y-87993571D02*
X119837142Y-88593571D01*
X119980000Y-88593571D01*
X120065714Y-88565000D01*
X120122857Y-88507857D01*
X120151428Y-88450714D01*
X120180000Y-88336428D01*
X120180000Y-88250714D01*
X120151428Y-88136428D01*
X120122857Y-88079285D01*
X120065714Y-88022142D01*
X119980000Y-87993571D01*
X119837142Y-87993571D01*
X149374285Y-88593571D02*
X149745714Y-88593571D01*
X149545714Y-88365000D01*
X149631428Y-88365000D01*
X149688571Y-88336428D01*
X149717142Y-88307857D01*
X149745714Y-88250714D01*
X149745714Y-88107857D01*
X149717142Y-88050714D01*
X149688571Y-88022142D01*
X149631428Y-87993571D01*
X149460000Y-87993571D01*
X149402857Y-88022142D01*
X149374285Y-88050714D01*
X149945714Y-88593571D02*
X150345714Y-88593571D01*
X150088571Y-87993571D01*
X126828571Y-88393571D02*
X126828571Y-87993571D01*
X126685714Y-88622142D02*
X126542857Y-88193571D01*
X126914285Y-88193571D01*
X127400000Y-88593571D02*
X127285714Y-88593571D01*
X127228571Y-88565000D01*
X127200000Y-88536428D01*
X127142857Y-88450714D01*
X127114285Y-88336428D01*
X127114285Y-88107857D01*
X127142857Y-88050714D01*
X127171428Y-88022142D01*
X127228571Y-87993571D01*
X127342857Y-87993571D01*
X127400000Y-88022142D01*
X127428571Y-88050714D01*
X127457142Y-88107857D01*
X127457142Y-88250714D01*
X127428571Y-88307857D01*
X127400000Y-88336428D01*
X127342857Y-88365000D01*
X127228571Y-88365000D01*
X127171428Y-88336428D01*
X127142857Y-88307857D01*
X127114285Y-88250714D01*
X139528571Y-88393571D02*
X139528571Y-87993571D01*
X139385714Y-88622142D02*
X139242857Y-88193571D01*
X139614285Y-88193571D01*
X140157142Y-87993571D02*
X139814285Y-87993571D01*
X139985714Y-87993571D02*
X139985714Y-88593571D01*
X139928571Y-88507857D01*
X139871428Y-88450714D01*
X139814285Y-88422142D01*
X146834285Y-88593571D02*
X147205714Y-88593571D01*
X147005714Y-88365000D01*
X147091428Y-88365000D01*
X147148571Y-88336428D01*
X147177142Y-88307857D01*
X147205714Y-88250714D01*
X147205714Y-88107857D01*
X147177142Y-88050714D01*
X147148571Y-88022142D01*
X147091428Y-87993571D01*
X146920000Y-87993571D01*
X146862857Y-88022142D01*
X146834285Y-88050714D01*
X147548571Y-88336428D02*
X147491428Y-88365000D01*
X147462857Y-88393571D01*
X147434285Y-88450714D01*
X147434285Y-88479285D01*
X147462857Y-88536428D01*
X147491428Y-88565000D01*
X147548571Y-88593571D01*
X147662857Y-88593571D01*
X147720000Y-88565000D01*
X147748571Y-88536428D01*
X147777142Y-88479285D01*
X147777142Y-88450714D01*
X147748571Y-88393571D01*
X147720000Y-88365000D01*
X147662857Y-88336428D01*
X147548571Y-88336428D01*
X147491428Y-88307857D01*
X147462857Y-88279285D01*
X147434285Y-88222142D01*
X147434285Y-88107857D01*
X147462857Y-88050714D01*
X147491428Y-88022142D01*
X147548571Y-87993571D01*
X147662857Y-87993571D01*
X147720000Y-88022142D01*
X147748571Y-88050714D01*
X147777142Y-88107857D01*
X147777142Y-88222142D01*
X147748571Y-88279285D01*
X147720000Y-88307857D01*
X147662857Y-88336428D01*
X129368571Y-88393571D02*
X129368571Y-87993571D01*
X129225714Y-88622142D02*
X129082857Y-88193571D01*
X129454285Y-88193571D01*
X129968571Y-88593571D02*
X129682857Y-88593571D01*
X129654285Y-88307857D01*
X129682857Y-88336428D01*
X129740000Y-88365000D01*
X129882857Y-88365000D01*
X129940000Y-88336428D01*
X129968571Y-88307857D01*
X129997142Y-88250714D01*
X129997142Y-88107857D01*
X129968571Y-88050714D01*
X129940000Y-88022142D01*
X129882857Y-87993571D01*
X129740000Y-87993571D01*
X129682857Y-88022142D01*
X129654285Y-88050714D01*
X142068571Y-88393571D02*
X142068571Y-87993571D01*
X141925714Y-88622142D02*
X141782857Y-88193571D01*
X142154285Y-88193571D01*
X142497142Y-88593571D02*
X142554285Y-88593571D01*
X142611428Y-88565000D01*
X142640000Y-88536428D01*
X142668571Y-88479285D01*
X142697142Y-88365000D01*
X142697142Y-88222142D01*
X142668571Y-88107857D01*
X142640000Y-88050714D01*
X142611428Y-88022142D01*
X142554285Y-87993571D01*
X142497142Y-87993571D01*
X142440000Y-88022142D01*
X142411428Y-88050714D01*
X142382857Y-88107857D01*
X142354285Y-88222142D01*
X142354285Y-88365000D01*
X142382857Y-88479285D01*
X142411428Y-88536428D01*
X142440000Y-88565000D01*
X142497142Y-88593571D01*
X136988571Y-88393571D02*
X136988571Y-87993571D01*
X136845714Y-88622142D02*
X136702857Y-88193571D01*
X137074285Y-88193571D01*
X137274285Y-88536428D02*
X137302857Y-88565000D01*
X137360000Y-88593571D01*
X137502857Y-88593571D01*
X137560000Y-88565000D01*
X137588571Y-88536428D01*
X137617142Y-88479285D01*
X137617142Y-88422142D01*
X137588571Y-88336428D01*
X137245714Y-87993571D01*
X137617142Y-87993571D01*
X121177142Y-88593571D02*
X121548571Y-88593571D01*
X121348571Y-88365000D01*
X121434285Y-88365000D01*
X121491428Y-88336428D01*
X121520000Y-88307857D01*
X121548571Y-88250714D01*
X121548571Y-88107857D01*
X121520000Y-88050714D01*
X121491428Y-88022142D01*
X121434285Y-87993571D01*
X121262857Y-87993571D01*
X121205714Y-88022142D01*
X121177142Y-88050714D01*
X121720000Y-88593571D02*
X121920000Y-87993571D01*
X122120000Y-88593571D01*
X122262857Y-88593571D02*
X122634285Y-88593571D01*
X122434285Y-88365000D01*
X122520000Y-88365000D01*
X122577142Y-88336428D01*
X122605714Y-88307857D01*
X122634285Y-88250714D01*
X122634285Y-88107857D01*
X122605714Y-88050714D01*
X122577142Y-88022142D01*
X122520000Y-87993571D01*
X122348571Y-87993571D01*
X122291428Y-88022142D01*
X122262857Y-88050714D01*
X131980000Y-87993571D02*
X131780000Y-88279285D01*
X131637142Y-87993571D02*
X131637142Y-88593571D01*
X131865714Y-88593571D01*
X131922857Y-88565000D01*
X131951428Y-88536428D01*
X131980000Y-88479285D01*
X131980000Y-88393571D01*
X131951428Y-88336428D01*
X131922857Y-88307857D01*
X131865714Y-88279285D01*
X131637142Y-88279285D01*
X132180000Y-88593571D02*
X132580000Y-87993571D01*
X132580000Y-88593571D02*
X132180000Y-87993571D01*
X159534285Y-88593571D02*
X159905714Y-88593571D01*
X159705714Y-88365000D01*
X159791428Y-88365000D01*
X159848571Y-88336428D01*
X159877142Y-88307857D01*
X159905714Y-88250714D01*
X159905714Y-88107857D01*
X159877142Y-88050714D01*
X159848571Y-88022142D01*
X159791428Y-87993571D01*
X159620000Y-87993571D01*
X159562857Y-88022142D01*
X159534285Y-88050714D01*
X160105714Y-88593571D02*
X160477142Y-88593571D01*
X160277142Y-88365000D01*
X160362857Y-88365000D01*
X160420000Y-88336428D01*
X160448571Y-88307857D01*
X160477142Y-88250714D01*
X160477142Y-88107857D01*
X160448571Y-88050714D01*
X160420000Y-88022142D01*
X160362857Y-87993571D01*
X160191428Y-87993571D01*
X160134285Y-88022142D01*
X160105714Y-88050714D01*
X162102857Y-88536428D02*
X162131428Y-88565000D01*
X162188571Y-88593571D01*
X162331428Y-88593571D01*
X162388571Y-88565000D01*
X162417142Y-88536428D01*
X162445714Y-88479285D01*
X162445714Y-88422142D01*
X162417142Y-88336428D01*
X162074285Y-87993571D01*
X162445714Y-87993571D01*
X162960000Y-88593571D02*
X162845714Y-88593571D01*
X162788571Y-88565000D01*
X162760000Y-88536428D01*
X162702857Y-88450714D01*
X162674285Y-88336428D01*
X162674285Y-88107857D01*
X162702857Y-88050714D01*
X162731428Y-88022142D01*
X162788571Y-87993571D01*
X162902857Y-87993571D01*
X162960000Y-88022142D01*
X162988571Y-88050714D01*
X163017142Y-88107857D01*
X163017142Y-88250714D01*
X162988571Y-88307857D01*
X162960000Y-88336428D01*
X162902857Y-88365000D01*
X162788571Y-88365000D01*
X162731428Y-88336428D01*
X162702857Y-88307857D01*
X162674285Y-88250714D01*
X164642857Y-88536428D02*
X164671428Y-88565000D01*
X164728571Y-88593571D01*
X164871428Y-88593571D01*
X164928571Y-88565000D01*
X164957142Y-88536428D01*
X164985714Y-88479285D01*
X164985714Y-88422142D01*
X164957142Y-88336428D01*
X164614285Y-87993571D01*
X164985714Y-87993571D01*
X165557142Y-87993571D02*
X165214285Y-87993571D01*
X165385714Y-87993571D02*
X165385714Y-88593571D01*
X165328571Y-88507857D01*
X165271428Y-88450714D01*
X165214285Y-88422142D01*
X167182857Y-88536428D02*
X167211428Y-88565000D01*
X167268571Y-88593571D01*
X167411428Y-88593571D01*
X167468571Y-88565000D01*
X167497142Y-88536428D01*
X167525714Y-88479285D01*
X167525714Y-88422142D01*
X167497142Y-88336428D01*
X167154285Y-87993571D01*
X167525714Y-87993571D01*
X167897142Y-88593571D02*
X167954285Y-88593571D01*
X168011428Y-88565000D01*
X168040000Y-88536428D01*
X168068571Y-88479285D01*
X168097142Y-88365000D01*
X168097142Y-88222142D01*
X168068571Y-88107857D01*
X168040000Y-88050714D01*
X168011428Y-88022142D01*
X167954285Y-87993571D01*
X167897142Y-87993571D01*
X167840000Y-88022142D01*
X167811428Y-88050714D01*
X167782857Y-88107857D01*
X167754285Y-88222142D01*
X167754285Y-88365000D01*
X167782857Y-88479285D01*
X167811428Y-88536428D01*
X167840000Y-88565000D01*
X167897142Y-88593571D01*
X170065714Y-87993571D02*
X169722857Y-87993571D01*
X169894285Y-87993571D02*
X169894285Y-88593571D01*
X169837142Y-88507857D01*
X169780000Y-88450714D01*
X169722857Y-88422142D01*
X170351428Y-87993571D02*
X170465714Y-87993571D01*
X170522857Y-88022142D01*
X170551428Y-88050714D01*
X170608571Y-88136428D01*
X170637142Y-88250714D01*
X170637142Y-88479285D01*
X170608571Y-88536428D01*
X170580000Y-88565000D01*
X170522857Y-88593571D01*
X170408571Y-88593571D01*
X170351428Y-88565000D01*
X170322857Y-88536428D01*
X170294285Y-88479285D01*
X170294285Y-88336428D01*
X170322857Y-88279285D01*
X170351428Y-88250714D01*
X170408571Y-88222142D01*
X170522857Y-88222142D01*
X170580000Y-88250714D01*
X170608571Y-88279285D01*
X170637142Y-88336428D01*
X165664571Y-91933047D02*
X165664571Y-92266380D01*
X166188380Y-92409238D02*
X166188380Y-91933047D01*
X165188380Y-91933047D01*
X165188380Y-92409238D01*
X166140761Y-92790190D02*
X166188380Y-92933047D01*
X166188380Y-93171142D01*
X166140761Y-93266380D01*
X166093142Y-93314000D01*
X165997904Y-93361619D01*
X165902666Y-93361619D01*
X165807428Y-93314000D01*
X165759809Y-93266380D01*
X165712190Y-93171142D01*
X165664571Y-92980666D01*
X165616952Y-92885428D01*
X165569333Y-92837809D01*
X165474095Y-92790190D01*
X165378857Y-92790190D01*
X165283619Y-92837809D01*
X165236000Y-92885428D01*
X165188380Y-92980666D01*
X165188380Y-93218761D01*
X165236000Y-93361619D01*
X166188380Y-93790190D02*
X165188380Y-93790190D01*
X165188380Y-94171142D01*
X165236000Y-94266380D01*
X165283619Y-94314000D01*
X165378857Y-94361619D01*
X165521714Y-94361619D01*
X165616952Y-94314000D01*
X165664571Y-94266380D01*
X165712190Y-94171142D01*
X165712190Y-93790190D01*
X165188380Y-94694952D02*
X165188380Y-95314000D01*
X165569333Y-94980666D01*
X165569333Y-95123523D01*
X165616952Y-95218761D01*
X165664571Y-95266380D01*
X165759809Y-95314000D01*
X165997904Y-95314000D01*
X166093142Y-95266380D01*
X166140761Y-95218761D01*
X166188380Y-95123523D01*
X166188380Y-94837809D01*
X166140761Y-94742571D01*
X166093142Y-94694952D01*
X165283619Y-95694952D02*
X165236000Y-95742571D01*
X165188380Y-95837809D01*
X165188380Y-96075904D01*
X165236000Y-96171142D01*
X165283619Y-96218761D01*
X165378857Y-96266380D01*
X165474095Y-96266380D01*
X165616952Y-96218761D01*
X166188380Y-95647333D01*
X166188380Y-96266380D01*
X165807428Y-96694952D02*
X165807428Y-97456857D01*
X166140761Y-97885428D02*
X166188380Y-98028285D01*
X166188380Y-98266380D01*
X166140761Y-98361619D01*
X166093142Y-98409238D01*
X165997904Y-98456857D01*
X165902666Y-98456857D01*
X165807428Y-98409238D01*
X165759809Y-98361619D01*
X165712190Y-98266380D01*
X165664571Y-98075904D01*
X165616952Y-97980666D01*
X165569333Y-97933047D01*
X165474095Y-97885428D01*
X165378857Y-97885428D01*
X165283619Y-97933047D01*
X165236000Y-97980666D01*
X165188380Y-98075904D01*
X165188380Y-98314000D01*
X165236000Y-98456857D01*
X165283619Y-98837809D02*
X165236000Y-98885428D01*
X165188380Y-98980666D01*
X165188380Y-99218761D01*
X165236000Y-99314000D01*
X165283619Y-99361619D01*
X165378857Y-99409238D01*
X165474095Y-99409238D01*
X165616952Y-99361619D01*
X166188380Y-98790190D01*
X166188380Y-99409238D01*
X165664571Y-100933047D02*
X165712190Y-101075904D01*
X165759809Y-101123523D01*
X165855047Y-101171142D01*
X165997904Y-101171142D01*
X166093142Y-101123523D01*
X166140761Y-101075904D01*
X166188380Y-100980666D01*
X166188380Y-100599714D01*
X165188380Y-100599714D01*
X165188380Y-100933047D01*
X165236000Y-101028285D01*
X165283619Y-101075904D01*
X165378857Y-101123523D01*
X165474095Y-101123523D01*
X165569333Y-101075904D01*
X165616952Y-101028285D01*
X165664571Y-100933047D01*
X165664571Y-100599714D01*
X166188380Y-101599714D02*
X165521714Y-101599714D01*
X165712190Y-101599714D02*
X165616952Y-101647333D01*
X165569333Y-101694952D01*
X165521714Y-101790190D01*
X165521714Y-101885428D01*
X166140761Y-102599714D02*
X166188380Y-102504476D01*
X166188380Y-102314000D01*
X166140761Y-102218761D01*
X166045523Y-102171142D01*
X165664571Y-102171142D01*
X165569333Y-102218761D01*
X165521714Y-102314000D01*
X165521714Y-102504476D01*
X165569333Y-102599714D01*
X165664571Y-102647333D01*
X165759809Y-102647333D01*
X165855047Y-102171142D01*
X166188380Y-103504476D02*
X165664571Y-103504476D01*
X165569333Y-103456857D01*
X165521714Y-103361619D01*
X165521714Y-103171142D01*
X165569333Y-103075904D01*
X166140761Y-103504476D02*
X166188380Y-103409238D01*
X166188380Y-103171142D01*
X166140761Y-103075904D01*
X166045523Y-103028285D01*
X165950285Y-103028285D01*
X165855047Y-103075904D01*
X165807428Y-103171142D01*
X165807428Y-103409238D01*
X165759809Y-103504476D01*
X166188380Y-103980666D02*
X165188380Y-103980666D01*
X165807428Y-104075904D02*
X166188380Y-104361619D01*
X165521714Y-104361619D02*
X165902666Y-103980666D01*
X166188380Y-104933047D02*
X166140761Y-104837809D01*
X166093142Y-104790190D01*
X165997904Y-104742571D01*
X165712190Y-104742571D01*
X165616952Y-104790190D01*
X165569333Y-104837809D01*
X165521714Y-104933047D01*
X165521714Y-105075904D01*
X165569333Y-105171142D01*
X165616952Y-105218761D01*
X165712190Y-105266380D01*
X165997904Y-105266380D01*
X166093142Y-105218761D01*
X166140761Y-105171142D01*
X166188380Y-105075904D01*
X166188380Y-104933047D01*
X165521714Y-106123523D02*
X166188380Y-106123523D01*
X165521714Y-105694952D02*
X166045523Y-105694952D01*
X166140761Y-105742571D01*
X166188380Y-105837809D01*
X166188380Y-105980666D01*
X166140761Y-106075904D01*
X166093142Y-106123523D01*
X165521714Y-106456857D02*
X165521714Y-106837809D01*
X165188380Y-106599714D02*
X166045523Y-106599714D01*
X166140761Y-106647333D01*
X166188380Y-106742571D01*
X166188380Y-106837809D01*
X167171714Y-92814000D02*
X167981238Y-92814000D01*
X168076476Y-92766380D01*
X168124095Y-92718761D01*
X168171714Y-92623523D01*
X168171714Y-92480666D01*
X168124095Y-92385428D01*
X167790761Y-92814000D02*
X167838380Y-92718761D01*
X167838380Y-92528285D01*
X167790761Y-92433047D01*
X167743142Y-92385428D01*
X167647904Y-92337809D01*
X167362190Y-92337809D01*
X167266952Y-92385428D01*
X167219333Y-92433047D01*
X167171714Y-92528285D01*
X167171714Y-92718761D01*
X167219333Y-92814000D01*
X167838380Y-93290190D02*
X167171714Y-93290190D01*
X166838380Y-93290190D02*
X166886000Y-93242571D01*
X166933619Y-93290190D01*
X166886000Y-93337809D01*
X166838380Y-93290190D01*
X166933619Y-93290190D01*
X167171714Y-93623523D02*
X167171714Y-94004476D01*
X166838380Y-93766380D02*
X167695523Y-93766380D01*
X167790761Y-93814000D01*
X167838380Y-93909238D01*
X167838380Y-94004476D01*
X167838380Y-94337809D02*
X166838380Y-94337809D01*
X167838380Y-94766380D02*
X167314571Y-94766380D01*
X167219333Y-94718761D01*
X167171714Y-94623523D01*
X167171714Y-94480666D01*
X167219333Y-94385428D01*
X167266952Y-94337809D01*
X167171714Y-95671142D02*
X167838380Y-95671142D01*
X167171714Y-95242571D02*
X167695523Y-95242571D01*
X167790761Y-95290190D01*
X167838380Y-95385428D01*
X167838380Y-95528285D01*
X167790761Y-95623523D01*
X167743142Y-95671142D01*
X167838380Y-96147333D02*
X166838380Y-96147333D01*
X167219333Y-96147333D02*
X167171714Y-96242571D01*
X167171714Y-96433047D01*
X167219333Y-96528285D01*
X167266952Y-96575904D01*
X167362190Y-96623523D01*
X167647904Y-96623523D01*
X167743142Y-96575904D01*
X167790761Y-96528285D01*
X167838380Y-96433047D01*
X167838380Y-96242571D01*
X167790761Y-96147333D01*
X166790761Y-97766380D02*
X168076476Y-96909238D01*
X167790761Y-98480666D02*
X167838380Y-98385428D01*
X167838380Y-98194952D01*
X167790761Y-98099714D01*
X167695523Y-98052095D01*
X167314571Y-98052095D01*
X167219333Y-98099714D01*
X167171714Y-98194952D01*
X167171714Y-98385428D01*
X167219333Y-98480666D01*
X167314571Y-98528285D01*
X167409809Y-98528285D01*
X167505047Y-98052095D01*
X167171714Y-99385428D02*
X167981238Y-99385428D01*
X168076476Y-99337809D01*
X168124095Y-99290190D01*
X168171714Y-99194952D01*
X168171714Y-99052095D01*
X168124095Y-98956857D01*
X167790761Y-99385428D02*
X167838380Y-99290190D01*
X167838380Y-99099714D01*
X167790761Y-99004476D01*
X167743142Y-98956857D01*
X167647904Y-98909238D01*
X167362190Y-98909238D01*
X167266952Y-98956857D01*
X167219333Y-99004476D01*
X167171714Y-99099714D01*
X167171714Y-99290190D01*
X167219333Y-99385428D01*
X167171714Y-100290190D02*
X167981238Y-100290190D01*
X168076476Y-100242571D01*
X168124095Y-100194952D01*
X168171714Y-100099714D01*
X168171714Y-99956857D01*
X168124095Y-99861619D01*
X167790761Y-100290190D02*
X167838380Y-100194952D01*
X167838380Y-100004476D01*
X167790761Y-99909238D01*
X167743142Y-99861619D01*
X167647904Y-99814000D01*
X167362190Y-99814000D01*
X167266952Y-99861619D01*
X167219333Y-99909238D01*
X167171714Y-100004476D01*
X167171714Y-100194952D01*
X167219333Y-100290190D01*
X167790761Y-100718761D02*
X167838380Y-100814000D01*
X167838380Y-101004476D01*
X167790761Y-101099714D01*
X167695523Y-101147333D01*
X167647904Y-101147333D01*
X167552666Y-101099714D01*
X167505047Y-101004476D01*
X167505047Y-100861619D01*
X167457428Y-100766380D01*
X167362190Y-100718761D01*
X167314571Y-100718761D01*
X167219333Y-100766380D01*
X167171714Y-100861619D01*
X167171714Y-101004476D01*
X167219333Y-101099714D01*
X167838380Y-102004476D02*
X167314571Y-102004476D01*
X167219333Y-101956857D01*
X167171714Y-101861619D01*
X167171714Y-101671142D01*
X167219333Y-101575904D01*
X167790761Y-102004476D02*
X167838380Y-101909238D01*
X167838380Y-101671142D01*
X167790761Y-101575904D01*
X167695523Y-101528285D01*
X167600285Y-101528285D01*
X167505047Y-101575904D01*
X167457428Y-101671142D01*
X167457428Y-101909238D01*
X167409809Y-102004476D01*
X167838380Y-102480666D02*
X167171714Y-102480666D01*
X167266952Y-102480666D02*
X167219333Y-102528285D01*
X167171714Y-102623523D01*
X167171714Y-102766380D01*
X167219333Y-102861619D01*
X167314571Y-102909238D01*
X167838380Y-102909238D01*
X167314571Y-102909238D02*
X167219333Y-102956857D01*
X167171714Y-103052095D01*
X167171714Y-103194952D01*
X167219333Y-103290190D01*
X167314571Y-103337809D01*
X167838380Y-103337809D01*
X167171714Y-103814000D02*
X168171714Y-103814000D01*
X167219333Y-103814000D02*
X167171714Y-103909238D01*
X167171714Y-104099714D01*
X167219333Y-104194952D01*
X167266952Y-104242571D01*
X167362190Y-104290190D01*
X167647904Y-104290190D01*
X167743142Y-104242571D01*
X167790761Y-104194952D01*
X167838380Y-104099714D01*
X167838380Y-103909238D01*
X167790761Y-103814000D01*
X167838380Y-104861619D02*
X167790761Y-104766380D01*
X167695523Y-104718761D01*
X166838380Y-104718761D01*
X167790761Y-105623523D02*
X167838380Y-105528285D01*
X167838380Y-105337809D01*
X167790761Y-105242571D01*
X167695523Y-105194952D01*
X167314571Y-105194952D01*
X167219333Y-105242571D01*
X167171714Y-105337809D01*
X167171714Y-105528285D01*
X167219333Y-105623523D01*
X167314571Y-105671142D01*
X167409809Y-105671142D01*
X167505047Y-105194952D01*
X167838380Y-106099714D02*
X167171714Y-106099714D01*
X167362190Y-106099714D02*
X167266952Y-106147333D01*
X167219333Y-106194952D01*
X167171714Y-106290190D01*
X167171714Y-106385428D01*
X168821714Y-95694952D02*
X169488380Y-95933047D01*
X168821714Y-96171142D01*
X169488380Y-97075904D02*
X169488380Y-96504476D01*
X169488380Y-96790190D02*
X168488380Y-96790190D01*
X168631238Y-96694952D01*
X168726476Y-96599714D01*
X168774095Y-96504476D01*
X168488380Y-98456857D02*
X168488380Y-98552095D01*
X168536000Y-98647333D01*
X168583619Y-98694952D01*
X168678857Y-98742571D01*
X168869333Y-98790190D01*
X169107428Y-98790190D01*
X169297904Y-98742571D01*
X169393142Y-98694952D01*
X169440761Y-98647333D01*
X169488380Y-98552095D01*
X169488380Y-98456857D01*
X169440761Y-98361619D01*
X169393142Y-98314000D01*
X169297904Y-98266380D01*
X169107428Y-98218761D01*
X168869333Y-98218761D01*
X168678857Y-98266380D01*
X168583619Y-98314000D01*
X168536000Y-98361619D01*
X168488380Y-98456857D01*
X168488380Y-99123523D02*
X168488380Y-99742571D01*
X168869333Y-99409238D01*
X168869333Y-99552095D01*
X168916952Y-99647333D01*
X168964571Y-99694952D01*
X169059809Y-99742571D01*
X169297904Y-99742571D01*
X169393142Y-99694952D01*
X169440761Y-99647333D01*
X169488380Y-99552095D01*
X169488380Y-99266380D01*
X169440761Y-99171142D01*
X169393142Y-99123523D01*
X169107428Y-100171142D02*
X169107428Y-100933047D01*
X168583619Y-101361619D02*
X168536000Y-101409238D01*
X168488380Y-101504476D01*
X168488380Y-101742571D01*
X168536000Y-101837809D01*
X168583619Y-101885428D01*
X168678857Y-101933047D01*
X168774095Y-101933047D01*
X168916952Y-101885428D01*
X169488380Y-101314000D01*
X169488380Y-101933047D01*
X168488380Y-102552095D02*
X168488380Y-102647333D01*
X168536000Y-102742571D01*
X168583619Y-102790190D01*
X168678857Y-102837809D01*
X168869333Y-102885428D01*
X169107428Y-102885428D01*
X169297904Y-102837809D01*
X169393142Y-102790190D01*
X169440761Y-102742571D01*
X169488380Y-102647333D01*
X169488380Y-102552095D01*
X169440761Y-102456857D01*
X169393142Y-102409238D01*
X169297904Y-102361619D01*
X169107428Y-102314000D01*
X168869333Y-102314000D01*
X168678857Y-102361619D01*
X168583619Y-102409238D01*
X168536000Y-102456857D01*
X168488380Y-102552095D01*
D11*
X176590000Y-85030000D02*
X176590000Y-87690000D01*
X120650000Y-85030000D02*
X176590000Y-85030000D01*
X120650000Y-87690000D02*
X176590000Y-87690000D01*
X120650000Y-85030000D02*
X120650000Y-87690000D01*
X119380000Y-85030000D02*
X118050000Y-85030000D01*
X118050000Y-85030000D02*
X118050000Y-86360000D01*
X176590000Y-110430000D02*
X176590000Y-113090000D01*
X120650000Y-110430000D02*
X176590000Y-110430000D01*
X120650000Y-113090000D02*
X176590000Y-113090000D01*
X120650000Y-110430000D02*
X120650000Y-113090000D01*
X119380000Y-110430000D02*
X118050000Y-110430000D01*
X118050000Y-110430000D02*
X118050000Y-111760000D01*
M02*
