M48
; DRILL file {KiCad (5.1.5-0-10_14)} date Thursday, 19 March 2020 at 02:51:31 pm
; FORMAT={-:-/ absolute / inch / decimal}
; #@! TF.CreationDate,2020-03-19T14:51:31+10:00
; #@! TF.GenerationSoftware,Kicad,Pcbnew,(5.1.5-0-10_14)
; #@! TF.FileFunction,Plated,1,2,PTH
FMAT,2
INCH
T1C0.0118
T2C0.0236
T3C0.0335
T4C0.0394
%
G90
G05
T1
X4.8Y-3.67
X4.86Y-3.82
X4.86Y-3.88
X4.86Y-3.94
X4.86Y-4.0
X4.86Y-4.06
X4.92Y-3.82
X4.92Y-4.06
X4.98Y-3.82
X4.98Y-4.06
X5.04Y-3.82
X5.04Y-4.06
X5.08Y-3.61
X5.1Y-3.82
X5.1Y-3.88
X5.1Y-3.94
X5.1Y-4.0
X5.1Y-4.06
X5.14Y-3.61
X5.2Y-3.61
X5.2Y-4.18
X5.26Y-3.61
X5.26Y-4.18
X5.32Y-4.18
X5.38Y-4.18
X5.52Y-3.8
X5.52Y-3.86
X5.64Y-3.63
X5.82Y-4.2
X5.88Y-3.57
X5.88Y-3.63
X5.88Y-3.915
X5.92Y-3.73
X6.03Y-4.07
X6.08Y-3.7775
X6.08Y-3.8625
X6.135Y-4.1
X6.135Y-4.135
X6.135Y-4.17
X6.135Y-4.205
X6.135Y-4.24
X6.32Y-3.98
X6.4Y-3.58
X6.46Y-3.87
X6.46Y-3.96
X6.54Y-4.145
X6.635Y-3.68
X6.76Y-3.83
X6.82Y-3.58
X6.82Y-4.215
T3
X6.825Y-3.8016
X6.825Y-3.9984
T4
X4.7Y-3.4
X4.8Y-3.4
X4.9Y-3.4
X5.0Y-3.4
X5.1Y-3.4
X5.2Y-3.4
X5.3Y-3.4
X5.4Y-3.4
X5.5Y-3.4
X5.6Y-3.4
X5.7Y-3.4
X5.8Y-3.4
X5.9Y-3.4
X6.0Y-3.4
X6.1Y-3.4
X6.2Y-3.4
X6.3Y-3.4
X6.4Y-3.4
X6.5Y-3.4
X6.6Y-3.4
X6.7Y-3.4
X6.8Y-3.4
X6.9Y-3.4
X4.7Y-4.4
X4.8Y-4.4
X4.9Y-4.4
X5.0Y-4.4
X5.1Y-4.4
X5.2Y-4.4
X5.3Y-4.4
X5.4Y-4.4
X5.5Y-4.4
X5.6Y-4.4
X5.7Y-4.4
X5.8Y-4.4
X5.9Y-4.4
X6.0Y-4.4
X6.1Y-4.4
X6.2Y-4.4
X6.3Y-4.4
X6.4Y-4.4
X6.5Y-4.4
X6.6Y-4.4
X6.7Y-4.4
X6.8Y-4.4
X6.9Y-4.4
T2
G00X6.9175Y-3.7622
M15
G01X6.9451Y-3.7622
M16
G05
G00X6.9451Y-4.0378
M15
G01X6.9175Y-4.0378
M16
G05
T0
M30
