G04 #@! TF.GenerationSoftware,KiCad,Pcbnew,(5.1.5)-3*
G04 #@! TF.CreationDate,2020-03-17T15:20:34+10:00*
G04 #@! TF.ProjectId,ESP32-S2-Breakout,45535033-322d-4533-922d-427265616b6f,rev?*
G04 #@! TF.SameCoordinates,Original*
G04 #@! TF.FileFunction,Paste,Top*
G04 #@! TF.FilePolarity,Positive*
%FSLAX46Y46*%
G04 Gerber Fmt 4.6, Leading zero omitted, Abs format (unit mm)*
G04 Created by KiCad (PCBNEW (5.1.5)-3) date 2020-03-17 15:20:34*
%MOMM*%
%LPD*%
G04 APERTURE LIST*
%ADD10C,0.100000*%
%ADD11R,0.650000X1.060000*%
%ADD12R,0.900000X1.500000*%
%ADD13R,1.500000X0.900000*%
%ADD14R,1.100000X1.100000*%
%ADD15R,1.800000X1.000000*%
%ADD16R,1.060000X0.650000*%
%ADD17R,1.900000X1.500000*%
%ADD18R,1.350000X0.400000*%
G04 APERTURE END LIST*
D10*
G36*
X164476691Y-93633053D02*
G01*
X164497926Y-93636203D01*
X164518750Y-93641419D01*
X164538962Y-93648651D01*
X164558368Y-93657830D01*
X164576781Y-93668866D01*
X164594024Y-93681654D01*
X164609930Y-93696070D01*
X164624346Y-93711976D01*
X164637134Y-93729219D01*
X164648170Y-93747632D01*
X164657349Y-93767038D01*
X164664581Y-93787250D01*
X164669797Y-93808074D01*
X164672947Y-93829309D01*
X164674000Y-93850750D01*
X164674000Y-94363250D01*
X164672947Y-94384691D01*
X164669797Y-94405926D01*
X164664581Y-94426750D01*
X164657349Y-94446962D01*
X164648170Y-94466368D01*
X164637134Y-94484781D01*
X164624346Y-94502024D01*
X164609930Y-94517930D01*
X164594024Y-94532346D01*
X164576781Y-94545134D01*
X164558368Y-94556170D01*
X164538962Y-94565349D01*
X164518750Y-94572581D01*
X164497926Y-94577797D01*
X164476691Y-94580947D01*
X164455250Y-94582000D01*
X164017750Y-94582000D01*
X163996309Y-94580947D01*
X163975074Y-94577797D01*
X163954250Y-94572581D01*
X163934038Y-94565349D01*
X163914632Y-94556170D01*
X163896219Y-94545134D01*
X163878976Y-94532346D01*
X163863070Y-94517930D01*
X163848654Y-94502024D01*
X163835866Y-94484781D01*
X163824830Y-94466368D01*
X163815651Y-94446962D01*
X163808419Y-94426750D01*
X163803203Y-94405926D01*
X163800053Y-94384691D01*
X163799000Y-94363250D01*
X163799000Y-93850750D01*
X163800053Y-93829309D01*
X163803203Y-93808074D01*
X163808419Y-93787250D01*
X163815651Y-93767038D01*
X163824830Y-93747632D01*
X163835866Y-93729219D01*
X163848654Y-93711976D01*
X163863070Y-93696070D01*
X163878976Y-93681654D01*
X163896219Y-93668866D01*
X163914632Y-93657830D01*
X163934038Y-93648651D01*
X163954250Y-93641419D01*
X163975074Y-93636203D01*
X163996309Y-93633053D01*
X164017750Y-93632000D01*
X164455250Y-93632000D01*
X164476691Y-93633053D01*
G37*
G36*
X162901691Y-93633053D02*
G01*
X162922926Y-93636203D01*
X162943750Y-93641419D01*
X162963962Y-93648651D01*
X162983368Y-93657830D01*
X163001781Y-93668866D01*
X163019024Y-93681654D01*
X163034930Y-93696070D01*
X163049346Y-93711976D01*
X163062134Y-93729219D01*
X163073170Y-93747632D01*
X163082349Y-93767038D01*
X163089581Y-93787250D01*
X163094797Y-93808074D01*
X163097947Y-93829309D01*
X163099000Y-93850750D01*
X163099000Y-94363250D01*
X163097947Y-94384691D01*
X163094797Y-94405926D01*
X163089581Y-94426750D01*
X163082349Y-94446962D01*
X163073170Y-94466368D01*
X163062134Y-94484781D01*
X163049346Y-94502024D01*
X163034930Y-94517930D01*
X163019024Y-94532346D01*
X163001781Y-94545134D01*
X162983368Y-94556170D01*
X162963962Y-94565349D01*
X162943750Y-94572581D01*
X162922926Y-94577797D01*
X162901691Y-94580947D01*
X162880250Y-94582000D01*
X162442750Y-94582000D01*
X162421309Y-94580947D01*
X162400074Y-94577797D01*
X162379250Y-94572581D01*
X162359038Y-94565349D01*
X162339632Y-94556170D01*
X162321219Y-94545134D01*
X162303976Y-94532346D01*
X162288070Y-94517930D01*
X162273654Y-94502024D01*
X162260866Y-94484781D01*
X162249830Y-94466368D01*
X162240651Y-94446962D01*
X162233419Y-94426750D01*
X162228203Y-94405926D01*
X162225053Y-94384691D01*
X162224000Y-94363250D01*
X162224000Y-93850750D01*
X162225053Y-93829309D01*
X162228203Y-93808074D01*
X162233419Y-93787250D01*
X162240651Y-93767038D01*
X162249830Y-93747632D01*
X162260866Y-93729219D01*
X162273654Y-93711976D01*
X162288070Y-93696070D01*
X162303976Y-93681654D01*
X162321219Y-93668866D01*
X162339632Y-93657830D01*
X162359038Y-93648651D01*
X162379250Y-93641419D01*
X162400074Y-93636203D01*
X162421309Y-93633053D01*
X162442750Y-93632000D01*
X162880250Y-93632000D01*
X162901691Y-93633053D01*
G37*
G36*
X162901691Y-91982053D02*
G01*
X162922926Y-91985203D01*
X162943750Y-91990419D01*
X162963962Y-91997651D01*
X162983368Y-92006830D01*
X163001781Y-92017866D01*
X163019024Y-92030654D01*
X163034930Y-92045070D01*
X163049346Y-92060976D01*
X163062134Y-92078219D01*
X163073170Y-92096632D01*
X163082349Y-92116038D01*
X163089581Y-92136250D01*
X163094797Y-92157074D01*
X163097947Y-92178309D01*
X163099000Y-92199750D01*
X163099000Y-92712250D01*
X163097947Y-92733691D01*
X163094797Y-92754926D01*
X163089581Y-92775750D01*
X163082349Y-92795962D01*
X163073170Y-92815368D01*
X163062134Y-92833781D01*
X163049346Y-92851024D01*
X163034930Y-92866930D01*
X163019024Y-92881346D01*
X163001781Y-92894134D01*
X162983368Y-92905170D01*
X162963962Y-92914349D01*
X162943750Y-92921581D01*
X162922926Y-92926797D01*
X162901691Y-92929947D01*
X162880250Y-92931000D01*
X162442750Y-92931000D01*
X162421309Y-92929947D01*
X162400074Y-92926797D01*
X162379250Y-92921581D01*
X162359038Y-92914349D01*
X162339632Y-92905170D01*
X162321219Y-92894134D01*
X162303976Y-92881346D01*
X162288070Y-92866930D01*
X162273654Y-92851024D01*
X162260866Y-92833781D01*
X162249830Y-92815368D01*
X162240651Y-92795962D01*
X162233419Y-92775750D01*
X162228203Y-92754926D01*
X162225053Y-92733691D01*
X162224000Y-92712250D01*
X162224000Y-92199750D01*
X162225053Y-92178309D01*
X162228203Y-92157074D01*
X162233419Y-92136250D01*
X162240651Y-92116038D01*
X162249830Y-92096632D01*
X162260866Y-92078219D01*
X162273654Y-92060976D01*
X162288070Y-92045070D01*
X162303976Y-92030654D01*
X162321219Y-92017866D01*
X162339632Y-92006830D01*
X162359038Y-91997651D01*
X162379250Y-91990419D01*
X162400074Y-91985203D01*
X162421309Y-91982053D01*
X162442750Y-91981000D01*
X162880250Y-91981000D01*
X162901691Y-91982053D01*
G37*
G36*
X164476691Y-91982053D02*
G01*
X164497926Y-91985203D01*
X164518750Y-91990419D01*
X164538962Y-91997651D01*
X164558368Y-92006830D01*
X164576781Y-92017866D01*
X164594024Y-92030654D01*
X164609930Y-92045070D01*
X164624346Y-92060976D01*
X164637134Y-92078219D01*
X164648170Y-92096632D01*
X164657349Y-92116038D01*
X164664581Y-92136250D01*
X164669797Y-92157074D01*
X164672947Y-92178309D01*
X164674000Y-92199750D01*
X164674000Y-92712250D01*
X164672947Y-92733691D01*
X164669797Y-92754926D01*
X164664581Y-92775750D01*
X164657349Y-92795962D01*
X164648170Y-92815368D01*
X164637134Y-92833781D01*
X164624346Y-92851024D01*
X164609930Y-92866930D01*
X164594024Y-92881346D01*
X164576781Y-92894134D01*
X164558368Y-92905170D01*
X164538962Y-92914349D01*
X164518750Y-92921581D01*
X164497926Y-92926797D01*
X164476691Y-92929947D01*
X164455250Y-92931000D01*
X164017750Y-92931000D01*
X163996309Y-92929947D01*
X163975074Y-92926797D01*
X163954250Y-92921581D01*
X163934038Y-92914349D01*
X163914632Y-92905170D01*
X163896219Y-92894134D01*
X163878976Y-92881346D01*
X163863070Y-92866930D01*
X163848654Y-92851024D01*
X163835866Y-92833781D01*
X163824830Y-92815368D01*
X163815651Y-92795962D01*
X163808419Y-92775750D01*
X163803203Y-92754926D01*
X163800053Y-92733691D01*
X163799000Y-92712250D01*
X163799000Y-92199750D01*
X163800053Y-92178309D01*
X163803203Y-92157074D01*
X163808419Y-92136250D01*
X163815651Y-92116038D01*
X163824830Y-92096632D01*
X163835866Y-92078219D01*
X163848654Y-92060976D01*
X163863070Y-92045070D01*
X163878976Y-92030654D01*
X163896219Y-92017866D01*
X163914632Y-92006830D01*
X163934038Y-91997651D01*
X163954250Y-91990419D01*
X163975074Y-91985203D01*
X163996309Y-91982053D01*
X164017750Y-91981000D01*
X164455250Y-91981000D01*
X164476691Y-91982053D01*
G37*
G36*
X152538691Y-97633553D02*
G01*
X152559926Y-97636703D01*
X152580750Y-97641919D01*
X152600962Y-97649151D01*
X152620368Y-97658330D01*
X152638781Y-97669366D01*
X152656024Y-97682154D01*
X152671930Y-97696570D01*
X152686346Y-97712476D01*
X152699134Y-97729719D01*
X152710170Y-97748132D01*
X152719349Y-97767538D01*
X152726581Y-97787750D01*
X152731797Y-97808574D01*
X152734947Y-97829809D01*
X152736000Y-97851250D01*
X152736000Y-98363750D01*
X152734947Y-98385191D01*
X152731797Y-98406426D01*
X152726581Y-98427250D01*
X152719349Y-98447462D01*
X152710170Y-98466868D01*
X152699134Y-98485281D01*
X152686346Y-98502524D01*
X152671930Y-98518430D01*
X152656024Y-98532846D01*
X152638781Y-98545634D01*
X152620368Y-98556670D01*
X152600962Y-98565849D01*
X152580750Y-98573081D01*
X152559926Y-98578297D01*
X152538691Y-98581447D01*
X152517250Y-98582500D01*
X152079750Y-98582500D01*
X152058309Y-98581447D01*
X152037074Y-98578297D01*
X152016250Y-98573081D01*
X151996038Y-98565849D01*
X151976632Y-98556670D01*
X151958219Y-98545634D01*
X151940976Y-98532846D01*
X151925070Y-98518430D01*
X151910654Y-98502524D01*
X151897866Y-98485281D01*
X151886830Y-98466868D01*
X151877651Y-98447462D01*
X151870419Y-98427250D01*
X151865203Y-98406426D01*
X151862053Y-98385191D01*
X151861000Y-98363750D01*
X151861000Y-97851250D01*
X151862053Y-97829809D01*
X151865203Y-97808574D01*
X151870419Y-97787750D01*
X151877651Y-97767538D01*
X151886830Y-97748132D01*
X151897866Y-97729719D01*
X151910654Y-97712476D01*
X151925070Y-97696570D01*
X151940976Y-97682154D01*
X151958219Y-97669366D01*
X151976632Y-97658330D01*
X151996038Y-97649151D01*
X152016250Y-97641919D01*
X152037074Y-97636703D01*
X152058309Y-97633553D01*
X152079750Y-97632500D01*
X152517250Y-97632500D01*
X152538691Y-97633553D01*
G37*
G36*
X150963691Y-97633553D02*
G01*
X150984926Y-97636703D01*
X151005750Y-97641919D01*
X151025962Y-97649151D01*
X151045368Y-97658330D01*
X151063781Y-97669366D01*
X151081024Y-97682154D01*
X151096930Y-97696570D01*
X151111346Y-97712476D01*
X151124134Y-97729719D01*
X151135170Y-97748132D01*
X151144349Y-97767538D01*
X151151581Y-97787750D01*
X151156797Y-97808574D01*
X151159947Y-97829809D01*
X151161000Y-97851250D01*
X151161000Y-98363750D01*
X151159947Y-98385191D01*
X151156797Y-98406426D01*
X151151581Y-98427250D01*
X151144349Y-98447462D01*
X151135170Y-98466868D01*
X151124134Y-98485281D01*
X151111346Y-98502524D01*
X151096930Y-98518430D01*
X151081024Y-98532846D01*
X151063781Y-98545634D01*
X151045368Y-98556670D01*
X151025962Y-98565849D01*
X151005750Y-98573081D01*
X150984926Y-98578297D01*
X150963691Y-98581447D01*
X150942250Y-98582500D01*
X150504750Y-98582500D01*
X150483309Y-98581447D01*
X150462074Y-98578297D01*
X150441250Y-98573081D01*
X150421038Y-98565849D01*
X150401632Y-98556670D01*
X150383219Y-98545634D01*
X150365976Y-98532846D01*
X150350070Y-98518430D01*
X150335654Y-98502524D01*
X150322866Y-98485281D01*
X150311830Y-98466868D01*
X150302651Y-98447462D01*
X150295419Y-98427250D01*
X150290203Y-98406426D01*
X150287053Y-98385191D01*
X150286000Y-98363750D01*
X150286000Y-97851250D01*
X150287053Y-97829809D01*
X150290203Y-97808574D01*
X150295419Y-97787750D01*
X150302651Y-97767538D01*
X150311830Y-97748132D01*
X150322866Y-97729719D01*
X150335654Y-97712476D01*
X150350070Y-97696570D01*
X150365976Y-97682154D01*
X150383219Y-97669366D01*
X150401632Y-97658330D01*
X150421038Y-97649151D01*
X150441250Y-97641919D01*
X150462074Y-97636703D01*
X150483309Y-97633553D01*
X150504750Y-97632500D01*
X150942250Y-97632500D01*
X150963691Y-97633553D01*
G37*
G36*
X150963691Y-95474553D02*
G01*
X150984926Y-95477703D01*
X151005750Y-95482919D01*
X151025962Y-95490151D01*
X151045368Y-95499330D01*
X151063781Y-95510366D01*
X151081024Y-95523154D01*
X151096930Y-95537570D01*
X151111346Y-95553476D01*
X151124134Y-95570719D01*
X151135170Y-95589132D01*
X151144349Y-95608538D01*
X151151581Y-95628750D01*
X151156797Y-95649574D01*
X151159947Y-95670809D01*
X151161000Y-95692250D01*
X151161000Y-96204750D01*
X151159947Y-96226191D01*
X151156797Y-96247426D01*
X151151581Y-96268250D01*
X151144349Y-96288462D01*
X151135170Y-96307868D01*
X151124134Y-96326281D01*
X151111346Y-96343524D01*
X151096930Y-96359430D01*
X151081024Y-96373846D01*
X151063781Y-96386634D01*
X151045368Y-96397670D01*
X151025962Y-96406849D01*
X151005750Y-96414081D01*
X150984926Y-96419297D01*
X150963691Y-96422447D01*
X150942250Y-96423500D01*
X150504750Y-96423500D01*
X150483309Y-96422447D01*
X150462074Y-96419297D01*
X150441250Y-96414081D01*
X150421038Y-96406849D01*
X150401632Y-96397670D01*
X150383219Y-96386634D01*
X150365976Y-96373846D01*
X150350070Y-96359430D01*
X150335654Y-96343524D01*
X150322866Y-96326281D01*
X150311830Y-96307868D01*
X150302651Y-96288462D01*
X150295419Y-96268250D01*
X150290203Y-96247426D01*
X150287053Y-96226191D01*
X150286000Y-96204750D01*
X150286000Y-95692250D01*
X150287053Y-95670809D01*
X150290203Y-95649574D01*
X150295419Y-95628750D01*
X150302651Y-95608538D01*
X150311830Y-95589132D01*
X150322866Y-95570719D01*
X150335654Y-95553476D01*
X150350070Y-95537570D01*
X150365976Y-95523154D01*
X150383219Y-95510366D01*
X150401632Y-95499330D01*
X150421038Y-95490151D01*
X150441250Y-95482919D01*
X150462074Y-95477703D01*
X150483309Y-95474553D01*
X150504750Y-95473500D01*
X150942250Y-95473500D01*
X150963691Y-95474553D01*
G37*
G36*
X152538691Y-95474553D02*
G01*
X152559926Y-95477703D01*
X152580750Y-95482919D01*
X152600962Y-95490151D01*
X152620368Y-95499330D01*
X152638781Y-95510366D01*
X152656024Y-95523154D01*
X152671930Y-95537570D01*
X152686346Y-95553476D01*
X152699134Y-95570719D01*
X152710170Y-95589132D01*
X152719349Y-95608538D01*
X152726581Y-95628750D01*
X152731797Y-95649574D01*
X152734947Y-95670809D01*
X152736000Y-95692250D01*
X152736000Y-96204750D01*
X152734947Y-96226191D01*
X152731797Y-96247426D01*
X152726581Y-96268250D01*
X152719349Y-96288462D01*
X152710170Y-96307868D01*
X152699134Y-96326281D01*
X152686346Y-96343524D01*
X152671930Y-96359430D01*
X152656024Y-96373846D01*
X152638781Y-96386634D01*
X152620368Y-96397670D01*
X152600962Y-96406849D01*
X152580750Y-96414081D01*
X152559926Y-96419297D01*
X152538691Y-96422447D01*
X152517250Y-96423500D01*
X152079750Y-96423500D01*
X152058309Y-96422447D01*
X152037074Y-96419297D01*
X152016250Y-96414081D01*
X151996038Y-96406849D01*
X151976632Y-96397670D01*
X151958219Y-96386634D01*
X151940976Y-96373846D01*
X151925070Y-96359430D01*
X151910654Y-96343524D01*
X151897866Y-96326281D01*
X151886830Y-96307868D01*
X151877651Y-96288462D01*
X151870419Y-96268250D01*
X151865203Y-96247426D01*
X151862053Y-96226191D01*
X151861000Y-96204750D01*
X151861000Y-95692250D01*
X151862053Y-95670809D01*
X151865203Y-95649574D01*
X151870419Y-95628750D01*
X151877651Y-95608538D01*
X151886830Y-95589132D01*
X151897866Y-95570719D01*
X151910654Y-95553476D01*
X151925070Y-95537570D01*
X151940976Y-95523154D01*
X151958219Y-95510366D01*
X151976632Y-95499330D01*
X151996038Y-95490151D01*
X152016250Y-95482919D01*
X152037074Y-95477703D01*
X152058309Y-95474553D01*
X152079750Y-95473500D01*
X152517250Y-95473500D01*
X152538691Y-95474553D01*
G37*
D11*
X169291000Y-100477500D03*
X170241000Y-100477500D03*
X168341000Y-100477500D03*
X168341000Y-98277500D03*
X169291000Y-98277500D03*
X170241000Y-98277500D03*
D10*
G36*
X170318691Y-96046053D02*
G01*
X170339926Y-96049203D01*
X170360750Y-96054419D01*
X170380962Y-96061651D01*
X170400368Y-96070830D01*
X170418781Y-96081866D01*
X170436024Y-96094654D01*
X170451930Y-96109070D01*
X170466346Y-96124976D01*
X170479134Y-96142219D01*
X170490170Y-96160632D01*
X170499349Y-96180038D01*
X170506581Y-96200250D01*
X170511797Y-96221074D01*
X170514947Y-96242309D01*
X170516000Y-96263750D01*
X170516000Y-96776250D01*
X170514947Y-96797691D01*
X170511797Y-96818926D01*
X170506581Y-96839750D01*
X170499349Y-96859962D01*
X170490170Y-96879368D01*
X170479134Y-96897781D01*
X170466346Y-96915024D01*
X170451930Y-96930930D01*
X170436024Y-96945346D01*
X170418781Y-96958134D01*
X170400368Y-96969170D01*
X170380962Y-96978349D01*
X170360750Y-96985581D01*
X170339926Y-96990797D01*
X170318691Y-96993947D01*
X170297250Y-96995000D01*
X169859750Y-96995000D01*
X169838309Y-96993947D01*
X169817074Y-96990797D01*
X169796250Y-96985581D01*
X169776038Y-96978349D01*
X169756632Y-96969170D01*
X169738219Y-96958134D01*
X169720976Y-96945346D01*
X169705070Y-96930930D01*
X169690654Y-96915024D01*
X169677866Y-96897781D01*
X169666830Y-96879368D01*
X169657651Y-96859962D01*
X169650419Y-96839750D01*
X169645203Y-96818926D01*
X169642053Y-96797691D01*
X169641000Y-96776250D01*
X169641000Y-96263750D01*
X169642053Y-96242309D01*
X169645203Y-96221074D01*
X169650419Y-96200250D01*
X169657651Y-96180038D01*
X169666830Y-96160632D01*
X169677866Y-96142219D01*
X169690654Y-96124976D01*
X169705070Y-96109070D01*
X169720976Y-96094654D01*
X169738219Y-96081866D01*
X169756632Y-96070830D01*
X169776038Y-96061651D01*
X169796250Y-96054419D01*
X169817074Y-96049203D01*
X169838309Y-96046053D01*
X169859750Y-96045000D01*
X170297250Y-96045000D01*
X170318691Y-96046053D01*
G37*
G36*
X168743691Y-96046053D02*
G01*
X168764926Y-96049203D01*
X168785750Y-96054419D01*
X168805962Y-96061651D01*
X168825368Y-96070830D01*
X168843781Y-96081866D01*
X168861024Y-96094654D01*
X168876930Y-96109070D01*
X168891346Y-96124976D01*
X168904134Y-96142219D01*
X168915170Y-96160632D01*
X168924349Y-96180038D01*
X168931581Y-96200250D01*
X168936797Y-96221074D01*
X168939947Y-96242309D01*
X168941000Y-96263750D01*
X168941000Y-96776250D01*
X168939947Y-96797691D01*
X168936797Y-96818926D01*
X168931581Y-96839750D01*
X168924349Y-96859962D01*
X168915170Y-96879368D01*
X168904134Y-96897781D01*
X168891346Y-96915024D01*
X168876930Y-96930930D01*
X168861024Y-96945346D01*
X168843781Y-96958134D01*
X168825368Y-96969170D01*
X168805962Y-96978349D01*
X168785750Y-96985581D01*
X168764926Y-96990797D01*
X168743691Y-96993947D01*
X168722250Y-96995000D01*
X168284750Y-96995000D01*
X168263309Y-96993947D01*
X168242074Y-96990797D01*
X168221250Y-96985581D01*
X168201038Y-96978349D01*
X168181632Y-96969170D01*
X168163219Y-96958134D01*
X168145976Y-96945346D01*
X168130070Y-96930930D01*
X168115654Y-96915024D01*
X168102866Y-96897781D01*
X168091830Y-96879368D01*
X168082651Y-96859962D01*
X168075419Y-96839750D01*
X168070203Y-96818926D01*
X168067053Y-96797691D01*
X168066000Y-96776250D01*
X168066000Y-96263750D01*
X168067053Y-96242309D01*
X168070203Y-96221074D01*
X168075419Y-96200250D01*
X168082651Y-96180038D01*
X168091830Y-96160632D01*
X168102866Y-96142219D01*
X168115654Y-96124976D01*
X168130070Y-96109070D01*
X168145976Y-96094654D01*
X168163219Y-96081866D01*
X168181632Y-96070830D01*
X168201038Y-96061651D01*
X168221250Y-96054419D01*
X168242074Y-96049203D01*
X168263309Y-96046053D01*
X168284750Y-96045000D01*
X168722250Y-96045000D01*
X168743691Y-96046053D01*
G37*
G36*
X168743691Y-94522053D02*
G01*
X168764926Y-94525203D01*
X168785750Y-94530419D01*
X168805962Y-94537651D01*
X168825368Y-94546830D01*
X168843781Y-94557866D01*
X168861024Y-94570654D01*
X168876930Y-94585070D01*
X168891346Y-94600976D01*
X168904134Y-94618219D01*
X168915170Y-94636632D01*
X168924349Y-94656038D01*
X168931581Y-94676250D01*
X168936797Y-94697074D01*
X168939947Y-94718309D01*
X168941000Y-94739750D01*
X168941000Y-95252250D01*
X168939947Y-95273691D01*
X168936797Y-95294926D01*
X168931581Y-95315750D01*
X168924349Y-95335962D01*
X168915170Y-95355368D01*
X168904134Y-95373781D01*
X168891346Y-95391024D01*
X168876930Y-95406930D01*
X168861024Y-95421346D01*
X168843781Y-95434134D01*
X168825368Y-95445170D01*
X168805962Y-95454349D01*
X168785750Y-95461581D01*
X168764926Y-95466797D01*
X168743691Y-95469947D01*
X168722250Y-95471000D01*
X168284750Y-95471000D01*
X168263309Y-95469947D01*
X168242074Y-95466797D01*
X168221250Y-95461581D01*
X168201038Y-95454349D01*
X168181632Y-95445170D01*
X168163219Y-95434134D01*
X168145976Y-95421346D01*
X168130070Y-95406930D01*
X168115654Y-95391024D01*
X168102866Y-95373781D01*
X168091830Y-95355368D01*
X168082651Y-95335962D01*
X168075419Y-95315750D01*
X168070203Y-95294926D01*
X168067053Y-95273691D01*
X168066000Y-95252250D01*
X168066000Y-94739750D01*
X168067053Y-94718309D01*
X168070203Y-94697074D01*
X168075419Y-94676250D01*
X168082651Y-94656038D01*
X168091830Y-94636632D01*
X168102866Y-94618219D01*
X168115654Y-94600976D01*
X168130070Y-94585070D01*
X168145976Y-94570654D01*
X168163219Y-94557866D01*
X168181632Y-94546830D01*
X168201038Y-94537651D01*
X168221250Y-94530419D01*
X168242074Y-94525203D01*
X168263309Y-94522053D01*
X168284750Y-94521000D01*
X168722250Y-94521000D01*
X168743691Y-94522053D01*
G37*
G36*
X170318691Y-94522053D02*
G01*
X170339926Y-94525203D01*
X170360750Y-94530419D01*
X170380962Y-94537651D01*
X170400368Y-94546830D01*
X170418781Y-94557866D01*
X170436024Y-94570654D01*
X170451930Y-94585070D01*
X170466346Y-94600976D01*
X170479134Y-94618219D01*
X170490170Y-94636632D01*
X170499349Y-94656038D01*
X170506581Y-94676250D01*
X170511797Y-94697074D01*
X170514947Y-94718309D01*
X170516000Y-94739750D01*
X170516000Y-95252250D01*
X170514947Y-95273691D01*
X170511797Y-95294926D01*
X170506581Y-95315750D01*
X170499349Y-95335962D01*
X170490170Y-95355368D01*
X170479134Y-95373781D01*
X170466346Y-95391024D01*
X170451930Y-95406930D01*
X170436024Y-95421346D01*
X170418781Y-95434134D01*
X170400368Y-95445170D01*
X170380962Y-95454349D01*
X170360750Y-95461581D01*
X170339926Y-95466797D01*
X170318691Y-95469947D01*
X170297250Y-95471000D01*
X169859750Y-95471000D01*
X169838309Y-95469947D01*
X169817074Y-95466797D01*
X169796250Y-95461581D01*
X169776038Y-95454349D01*
X169756632Y-95445170D01*
X169738219Y-95434134D01*
X169720976Y-95421346D01*
X169705070Y-95406930D01*
X169690654Y-95391024D01*
X169677866Y-95373781D01*
X169666830Y-95355368D01*
X169657651Y-95335962D01*
X169650419Y-95315750D01*
X169645203Y-95294926D01*
X169642053Y-95273691D01*
X169641000Y-95252250D01*
X169641000Y-94739750D01*
X169642053Y-94718309D01*
X169645203Y-94697074D01*
X169650419Y-94676250D01*
X169657651Y-94656038D01*
X169666830Y-94636632D01*
X169677866Y-94618219D01*
X169690654Y-94600976D01*
X169705070Y-94585070D01*
X169720976Y-94570654D01*
X169738219Y-94557866D01*
X169756632Y-94546830D01*
X169776038Y-94537651D01*
X169796250Y-94530419D01*
X169817074Y-94525203D01*
X169838309Y-94522053D01*
X169859750Y-94521000D01*
X170297250Y-94521000D01*
X170318691Y-94522053D01*
G37*
D12*
X118460000Y-107700000D03*
X119960000Y-107700000D03*
X122960000Y-107700000D03*
X121460000Y-107700000D03*
X125960000Y-107700000D03*
X124460000Y-107700000D03*
X128960000Y-107700000D03*
X127460000Y-107700000D03*
X131960000Y-107700000D03*
X130460000Y-107700000D03*
X134960000Y-107700000D03*
X133460000Y-107700000D03*
X137960000Y-107700000D03*
X136460000Y-107700000D03*
X140960000Y-107700000D03*
X139460000Y-107700000D03*
D13*
X141710000Y-105700000D03*
X141710000Y-104200000D03*
X141710000Y-101200000D03*
X141710000Y-102700000D03*
X141710000Y-98200000D03*
X141710000Y-99700000D03*
X141710000Y-95200000D03*
X141710000Y-96700000D03*
X141710000Y-92200000D03*
X141710000Y-93700000D03*
D12*
X121460000Y-90200000D03*
X122960000Y-90200000D03*
X128960000Y-90200000D03*
X131960000Y-90200000D03*
X127460000Y-90200000D03*
X124460000Y-90200000D03*
X137960000Y-90200000D03*
X125960000Y-90200000D03*
X133460000Y-90200000D03*
X139460000Y-90200000D03*
X130460000Y-90200000D03*
X136460000Y-90200000D03*
X119960000Y-90200000D03*
X140960000Y-90200000D03*
X118460000Y-90200000D03*
X134960000Y-90200000D03*
D14*
X126510000Y-100140000D03*
X125010000Y-100140000D03*
X128010000Y-100140000D03*
X128010000Y-98640000D03*
X126510000Y-98640000D03*
X125010000Y-98640000D03*
X128010000Y-101640000D03*
X126510000Y-101640000D03*
X125010000Y-101640000D03*
D10*
G36*
X144740691Y-94268053D02*
G01*
X144761926Y-94271203D01*
X144782750Y-94276419D01*
X144802962Y-94283651D01*
X144822368Y-94292830D01*
X144840781Y-94303866D01*
X144858024Y-94316654D01*
X144873930Y-94331070D01*
X144888346Y-94346976D01*
X144901134Y-94364219D01*
X144912170Y-94382632D01*
X144921349Y-94402038D01*
X144928581Y-94422250D01*
X144933797Y-94443074D01*
X144936947Y-94464309D01*
X144938000Y-94485750D01*
X144938000Y-94998250D01*
X144936947Y-95019691D01*
X144933797Y-95040926D01*
X144928581Y-95061750D01*
X144921349Y-95081962D01*
X144912170Y-95101368D01*
X144901134Y-95119781D01*
X144888346Y-95137024D01*
X144873930Y-95152930D01*
X144858024Y-95167346D01*
X144840781Y-95180134D01*
X144822368Y-95191170D01*
X144802962Y-95200349D01*
X144782750Y-95207581D01*
X144761926Y-95212797D01*
X144740691Y-95215947D01*
X144719250Y-95217000D01*
X144281750Y-95217000D01*
X144260309Y-95215947D01*
X144239074Y-95212797D01*
X144218250Y-95207581D01*
X144198038Y-95200349D01*
X144178632Y-95191170D01*
X144160219Y-95180134D01*
X144142976Y-95167346D01*
X144127070Y-95152930D01*
X144112654Y-95137024D01*
X144099866Y-95119781D01*
X144088830Y-95101368D01*
X144079651Y-95081962D01*
X144072419Y-95061750D01*
X144067203Y-95040926D01*
X144064053Y-95019691D01*
X144063000Y-94998250D01*
X144063000Y-94485750D01*
X144064053Y-94464309D01*
X144067203Y-94443074D01*
X144072419Y-94422250D01*
X144079651Y-94402038D01*
X144088830Y-94382632D01*
X144099866Y-94364219D01*
X144112654Y-94346976D01*
X144127070Y-94331070D01*
X144142976Y-94316654D01*
X144160219Y-94303866D01*
X144178632Y-94292830D01*
X144198038Y-94283651D01*
X144218250Y-94276419D01*
X144239074Y-94271203D01*
X144260309Y-94268053D01*
X144281750Y-94267000D01*
X144719250Y-94267000D01*
X144740691Y-94268053D01*
G37*
G36*
X146315691Y-94268053D02*
G01*
X146336926Y-94271203D01*
X146357750Y-94276419D01*
X146377962Y-94283651D01*
X146397368Y-94292830D01*
X146415781Y-94303866D01*
X146433024Y-94316654D01*
X146448930Y-94331070D01*
X146463346Y-94346976D01*
X146476134Y-94364219D01*
X146487170Y-94382632D01*
X146496349Y-94402038D01*
X146503581Y-94422250D01*
X146508797Y-94443074D01*
X146511947Y-94464309D01*
X146513000Y-94485750D01*
X146513000Y-94998250D01*
X146511947Y-95019691D01*
X146508797Y-95040926D01*
X146503581Y-95061750D01*
X146496349Y-95081962D01*
X146487170Y-95101368D01*
X146476134Y-95119781D01*
X146463346Y-95137024D01*
X146448930Y-95152930D01*
X146433024Y-95167346D01*
X146415781Y-95180134D01*
X146397368Y-95191170D01*
X146377962Y-95200349D01*
X146357750Y-95207581D01*
X146336926Y-95212797D01*
X146315691Y-95215947D01*
X146294250Y-95217000D01*
X145856750Y-95217000D01*
X145835309Y-95215947D01*
X145814074Y-95212797D01*
X145793250Y-95207581D01*
X145773038Y-95200349D01*
X145753632Y-95191170D01*
X145735219Y-95180134D01*
X145717976Y-95167346D01*
X145702070Y-95152930D01*
X145687654Y-95137024D01*
X145674866Y-95119781D01*
X145663830Y-95101368D01*
X145654651Y-95081962D01*
X145647419Y-95061750D01*
X145642203Y-95040926D01*
X145639053Y-95019691D01*
X145638000Y-94998250D01*
X145638000Y-94485750D01*
X145639053Y-94464309D01*
X145642203Y-94443074D01*
X145647419Y-94422250D01*
X145654651Y-94402038D01*
X145663830Y-94382632D01*
X145674866Y-94364219D01*
X145687654Y-94346976D01*
X145702070Y-94331070D01*
X145717976Y-94316654D01*
X145735219Y-94303866D01*
X145753632Y-94292830D01*
X145773038Y-94283651D01*
X145793250Y-94276419D01*
X145814074Y-94271203D01*
X145835309Y-94268053D01*
X145856750Y-94267000D01*
X146294250Y-94267000D01*
X146315691Y-94268053D01*
G37*
G36*
X147788691Y-94268053D02*
G01*
X147809926Y-94271203D01*
X147830750Y-94276419D01*
X147850962Y-94283651D01*
X147870368Y-94292830D01*
X147888781Y-94303866D01*
X147906024Y-94316654D01*
X147921930Y-94331070D01*
X147936346Y-94346976D01*
X147949134Y-94364219D01*
X147960170Y-94382632D01*
X147969349Y-94402038D01*
X147976581Y-94422250D01*
X147981797Y-94443074D01*
X147984947Y-94464309D01*
X147986000Y-94485750D01*
X147986000Y-94998250D01*
X147984947Y-95019691D01*
X147981797Y-95040926D01*
X147976581Y-95061750D01*
X147969349Y-95081962D01*
X147960170Y-95101368D01*
X147949134Y-95119781D01*
X147936346Y-95137024D01*
X147921930Y-95152930D01*
X147906024Y-95167346D01*
X147888781Y-95180134D01*
X147870368Y-95191170D01*
X147850962Y-95200349D01*
X147830750Y-95207581D01*
X147809926Y-95212797D01*
X147788691Y-95215947D01*
X147767250Y-95217000D01*
X147329750Y-95217000D01*
X147308309Y-95215947D01*
X147287074Y-95212797D01*
X147266250Y-95207581D01*
X147246038Y-95200349D01*
X147226632Y-95191170D01*
X147208219Y-95180134D01*
X147190976Y-95167346D01*
X147175070Y-95152930D01*
X147160654Y-95137024D01*
X147147866Y-95119781D01*
X147136830Y-95101368D01*
X147127651Y-95081962D01*
X147120419Y-95061750D01*
X147115203Y-95040926D01*
X147112053Y-95019691D01*
X147111000Y-94998250D01*
X147111000Y-94485750D01*
X147112053Y-94464309D01*
X147115203Y-94443074D01*
X147120419Y-94422250D01*
X147127651Y-94402038D01*
X147136830Y-94382632D01*
X147147866Y-94364219D01*
X147160654Y-94346976D01*
X147175070Y-94331070D01*
X147190976Y-94316654D01*
X147208219Y-94303866D01*
X147226632Y-94292830D01*
X147246038Y-94283651D01*
X147266250Y-94276419D01*
X147287074Y-94271203D01*
X147308309Y-94268053D01*
X147329750Y-94267000D01*
X147767250Y-94267000D01*
X147788691Y-94268053D01*
G37*
G36*
X149363691Y-94268053D02*
G01*
X149384926Y-94271203D01*
X149405750Y-94276419D01*
X149425962Y-94283651D01*
X149445368Y-94292830D01*
X149463781Y-94303866D01*
X149481024Y-94316654D01*
X149496930Y-94331070D01*
X149511346Y-94346976D01*
X149524134Y-94364219D01*
X149535170Y-94382632D01*
X149544349Y-94402038D01*
X149551581Y-94422250D01*
X149556797Y-94443074D01*
X149559947Y-94464309D01*
X149561000Y-94485750D01*
X149561000Y-94998250D01*
X149559947Y-95019691D01*
X149556797Y-95040926D01*
X149551581Y-95061750D01*
X149544349Y-95081962D01*
X149535170Y-95101368D01*
X149524134Y-95119781D01*
X149511346Y-95137024D01*
X149496930Y-95152930D01*
X149481024Y-95167346D01*
X149463781Y-95180134D01*
X149445368Y-95191170D01*
X149425962Y-95200349D01*
X149405750Y-95207581D01*
X149384926Y-95212797D01*
X149363691Y-95215947D01*
X149342250Y-95217000D01*
X148904750Y-95217000D01*
X148883309Y-95215947D01*
X148862074Y-95212797D01*
X148841250Y-95207581D01*
X148821038Y-95200349D01*
X148801632Y-95191170D01*
X148783219Y-95180134D01*
X148765976Y-95167346D01*
X148750070Y-95152930D01*
X148735654Y-95137024D01*
X148722866Y-95119781D01*
X148711830Y-95101368D01*
X148702651Y-95081962D01*
X148695419Y-95061750D01*
X148690203Y-95040926D01*
X148687053Y-95019691D01*
X148686000Y-94998250D01*
X148686000Y-94485750D01*
X148687053Y-94464309D01*
X148690203Y-94443074D01*
X148695419Y-94422250D01*
X148702651Y-94402038D01*
X148711830Y-94382632D01*
X148722866Y-94364219D01*
X148735654Y-94346976D01*
X148750070Y-94331070D01*
X148765976Y-94316654D01*
X148783219Y-94303866D01*
X148801632Y-94292830D01*
X148821038Y-94283651D01*
X148841250Y-94276419D01*
X148862074Y-94271203D01*
X148883309Y-94268053D01*
X148904750Y-94267000D01*
X149342250Y-94267000D01*
X149363691Y-94268053D01*
G37*
G36*
X175039603Y-106061963D02*
G01*
X175059018Y-106064843D01*
X175078057Y-106069612D01*
X175096537Y-106076224D01*
X175114279Y-106084616D01*
X175131114Y-106094706D01*
X175146879Y-106106398D01*
X175161421Y-106119579D01*
X175174602Y-106134121D01*
X175186294Y-106149886D01*
X175196384Y-106166721D01*
X175204776Y-106184463D01*
X175211388Y-106202943D01*
X175216157Y-106221982D01*
X175219037Y-106241397D01*
X175220000Y-106261000D01*
X175220000Y-107861000D01*
X175219037Y-107880603D01*
X175216157Y-107900018D01*
X175211388Y-107919057D01*
X175204776Y-107937537D01*
X175196384Y-107955279D01*
X175186294Y-107972114D01*
X175174602Y-107987879D01*
X175161421Y-108002421D01*
X175146879Y-108015602D01*
X175131114Y-108027294D01*
X175114279Y-108037384D01*
X175096537Y-108045776D01*
X175078057Y-108052388D01*
X175059018Y-108057157D01*
X175039603Y-108060037D01*
X175020000Y-108061000D01*
X174620000Y-108061000D01*
X174600397Y-108060037D01*
X174580982Y-108057157D01*
X174561943Y-108052388D01*
X174543463Y-108045776D01*
X174525721Y-108037384D01*
X174508886Y-108027294D01*
X174493121Y-108015602D01*
X174478579Y-108002421D01*
X174465398Y-107987879D01*
X174453706Y-107972114D01*
X174443616Y-107955279D01*
X174435224Y-107937537D01*
X174428612Y-107919057D01*
X174423843Y-107900018D01*
X174420963Y-107880603D01*
X174420000Y-107861000D01*
X174420000Y-106261000D01*
X174420963Y-106241397D01*
X174423843Y-106221982D01*
X174428612Y-106202943D01*
X174435224Y-106184463D01*
X174443616Y-106166721D01*
X174453706Y-106149886D01*
X174465398Y-106134121D01*
X174478579Y-106119579D01*
X174493121Y-106106398D01*
X174508886Y-106094706D01*
X174525721Y-106084616D01*
X174543463Y-106076224D01*
X174561943Y-106069612D01*
X174580982Y-106064843D01*
X174600397Y-106061963D01*
X174620000Y-106061000D01*
X175020000Y-106061000D01*
X175039603Y-106061963D01*
G37*
G36*
X170839603Y-106061963D02*
G01*
X170859018Y-106064843D01*
X170878057Y-106069612D01*
X170896537Y-106076224D01*
X170914279Y-106084616D01*
X170931114Y-106094706D01*
X170946879Y-106106398D01*
X170961421Y-106119579D01*
X170974602Y-106134121D01*
X170986294Y-106149886D01*
X170996384Y-106166721D01*
X171004776Y-106184463D01*
X171011388Y-106202943D01*
X171016157Y-106221982D01*
X171019037Y-106241397D01*
X171020000Y-106261000D01*
X171020000Y-107861000D01*
X171019037Y-107880603D01*
X171016157Y-107900018D01*
X171011388Y-107919057D01*
X171004776Y-107937537D01*
X170996384Y-107955279D01*
X170986294Y-107972114D01*
X170974602Y-107987879D01*
X170961421Y-108002421D01*
X170946879Y-108015602D01*
X170931114Y-108027294D01*
X170914279Y-108037384D01*
X170896537Y-108045776D01*
X170878057Y-108052388D01*
X170859018Y-108057157D01*
X170839603Y-108060037D01*
X170820000Y-108061000D01*
X170420000Y-108061000D01*
X170400397Y-108060037D01*
X170380982Y-108057157D01*
X170361943Y-108052388D01*
X170343463Y-108045776D01*
X170325721Y-108037384D01*
X170308886Y-108027294D01*
X170293121Y-108015602D01*
X170278579Y-108002421D01*
X170265398Y-107987879D01*
X170253706Y-107972114D01*
X170243616Y-107955279D01*
X170235224Y-107937537D01*
X170228612Y-107919057D01*
X170223843Y-107900018D01*
X170220963Y-107880603D01*
X170220000Y-107861000D01*
X170220000Y-106261000D01*
X170220963Y-106241397D01*
X170223843Y-106221982D01*
X170228612Y-106202943D01*
X170235224Y-106184463D01*
X170243616Y-106166721D01*
X170253706Y-106149886D01*
X170265398Y-106134121D01*
X170278579Y-106119579D01*
X170293121Y-106106398D01*
X170308886Y-106094706D01*
X170325721Y-106084616D01*
X170343463Y-106076224D01*
X170361943Y-106069612D01*
X170380982Y-106064843D01*
X170400397Y-106061963D01*
X170420000Y-106061000D01*
X170820000Y-106061000D01*
X170839603Y-106061963D01*
G37*
G36*
X175039603Y-89932963D02*
G01*
X175059018Y-89935843D01*
X175078057Y-89940612D01*
X175096537Y-89947224D01*
X175114279Y-89955616D01*
X175131114Y-89965706D01*
X175146879Y-89977398D01*
X175161421Y-89990579D01*
X175174602Y-90005121D01*
X175186294Y-90020886D01*
X175196384Y-90037721D01*
X175204776Y-90055463D01*
X175211388Y-90073943D01*
X175216157Y-90092982D01*
X175219037Y-90112397D01*
X175220000Y-90132000D01*
X175220000Y-91732000D01*
X175219037Y-91751603D01*
X175216157Y-91771018D01*
X175211388Y-91790057D01*
X175204776Y-91808537D01*
X175196384Y-91826279D01*
X175186294Y-91843114D01*
X175174602Y-91858879D01*
X175161421Y-91873421D01*
X175146879Y-91886602D01*
X175131114Y-91898294D01*
X175114279Y-91908384D01*
X175096537Y-91916776D01*
X175078057Y-91923388D01*
X175059018Y-91928157D01*
X175039603Y-91931037D01*
X175020000Y-91932000D01*
X174620000Y-91932000D01*
X174600397Y-91931037D01*
X174580982Y-91928157D01*
X174561943Y-91923388D01*
X174543463Y-91916776D01*
X174525721Y-91908384D01*
X174508886Y-91898294D01*
X174493121Y-91886602D01*
X174478579Y-91873421D01*
X174465398Y-91858879D01*
X174453706Y-91843114D01*
X174443616Y-91826279D01*
X174435224Y-91808537D01*
X174428612Y-91790057D01*
X174423843Y-91771018D01*
X174420963Y-91751603D01*
X174420000Y-91732000D01*
X174420000Y-90132000D01*
X174420963Y-90112397D01*
X174423843Y-90092982D01*
X174428612Y-90073943D01*
X174435224Y-90055463D01*
X174443616Y-90037721D01*
X174453706Y-90020886D01*
X174465398Y-90005121D01*
X174478579Y-89990579D01*
X174493121Y-89977398D01*
X174508886Y-89965706D01*
X174525721Y-89955616D01*
X174543463Y-89947224D01*
X174561943Y-89940612D01*
X174580982Y-89935843D01*
X174600397Y-89932963D01*
X174620000Y-89932000D01*
X175020000Y-89932000D01*
X175039603Y-89932963D01*
G37*
G36*
X170839603Y-89932963D02*
G01*
X170859018Y-89935843D01*
X170878057Y-89940612D01*
X170896537Y-89947224D01*
X170914279Y-89955616D01*
X170931114Y-89965706D01*
X170946879Y-89977398D01*
X170961421Y-89990579D01*
X170974602Y-90005121D01*
X170986294Y-90020886D01*
X170996384Y-90037721D01*
X171004776Y-90055463D01*
X171011388Y-90073943D01*
X171016157Y-90092982D01*
X171019037Y-90112397D01*
X171020000Y-90132000D01*
X171020000Y-91732000D01*
X171019037Y-91751603D01*
X171016157Y-91771018D01*
X171011388Y-91790057D01*
X171004776Y-91808537D01*
X170996384Y-91826279D01*
X170986294Y-91843114D01*
X170974602Y-91858879D01*
X170961421Y-91873421D01*
X170946879Y-91886602D01*
X170931114Y-91898294D01*
X170914279Y-91908384D01*
X170896537Y-91916776D01*
X170878057Y-91923388D01*
X170859018Y-91928157D01*
X170839603Y-91931037D01*
X170820000Y-91932000D01*
X170420000Y-91932000D01*
X170400397Y-91931037D01*
X170380982Y-91928157D01*
X170361943Y-91923388D01*
X170343463Y-91916776D01*
X170325721Y-91908384D01*
X170308886Y-91898294D01*
X170293121Y-91886602D01*
X170278579Y-91873421D01*
X170265398Y-91858879D01*
X170253706Y-91843114D01*
X170243616Y-91826279D01*
X170235224Y-91808537D01*
X170228612Y-91790057D01*
X170223843Y-91771018D01*
X170220963Y-91751603D01*
X170220000Y-91732000D01*
X170220000Y-90132000D01*
X170220963Y-90112397D01*
X170223843Y-90092982D01*
X170228612Y-90073943D01*
X170235224Y-90055463D01*
X170243616Y-90037721D01*
X170253706Y-90020886D01*
X170265398Y-90005121D01*
X170278579Y-89990579D01*
X170293121Y-89977398D01*
X170308886Y-89965706D01*
X170325721Y-89955616D01*
X170343463Y-89947224D01*
X170361943Y-89940612D01*
X170380982Y-89935843D01*
X170400397Y-89932963D01*
X170420000Y-89932000D01*
X170820000Y-89932000D01*
X170839603Y-89932963D01*
G37*
D15*
X149606000Y-102128000D03*
X149606000Y-104628000D03*
D16*
X162222000Y-104074000D03*
X162222000Y-102174000D03*
X164422000Y-102174000D03*
X164422000Y-103124000D03*
X164422000Y-104074000D03*
D10*
G36*
X144740691Y-91728053D02*
G01*
X144761926Y-91731203D01*
X144782750Y-91736419D01*
X144802962Y-91743651D01*
X144822368Y-91752830D01*
X144840781Y-91763866D01*
X144858024Y-91776654D01*
X144873930Y-91791070D01*
X144888346Y-91806976D01*
X144901134Y-91824219D01*
X144912170Y-91842632D01*
X144921349Y-91862038D01*
X144928581Y-91882250D01*
X144933797Y-91903074D01*
X144936947Y-91924309D01*
X144938000Y-91945750D01*
X144938000Y-92458250D01*
X144936947Y-92479691D01*
X144933797Y-92500926D01*
X144928581Y-92521750D01*
X144921349Y-92541962D01*
X144912170Y-92561368D01*
X144901134Y-92579781D01*
X144888346Y-92597024D01*
X144873930Y-92612930D01*
X144858024Y-92627346D01*
X144840781Y-92640134D01*
X144822368Y-92651170D01*
X144802962Y-92660349D01*
X144782750Y-92667581D01*
X144761926Y-92672797D01*
X144740691Y-92675947D01*
X144719250Y-92677000D01*
X144281750Y-92677000D01*
X144260309Y-92675947D01*
X144239074Y-92672797D01*
X144218250Y-92667581D01*
X144198038Y-92660349D01*
X144178632Y-92651170D01*
X144160219Y-92640134D01*
X144142976Y-92627346D01*
X144127070Y-92612930D01*
X144112654Y-92597024D01*
X144099866Y-92579781D01*
X144088830Y-92561368D01*
X144079651Y-92541962D01*
X144072419Y-92521750D01*
X144067203Y-92500926D01*
X144064053Y-92479691D01*
X144063000Y-92458250D01*
X144063000Y-91945750D01*
X144064053Y-91924309D01*
X144067203Y-91903074D01*
X144072419Y-91882250D01*
X144079651Y-91862038D01*
X144088830Y-91842632D01*
X144099866Y-91824219D01*
X144112654Y-91806976D01*
X144127070Y-91791070D01*
X144142976Y-91776654D01*
X144160219Y-91763866D01*
X144178632Y-91752830D01*
X144198038Y-91743651D01*
X144218250Y-91736419D01*
X144239074Y-91731203D01*
X144260309Y-91728053D01*
X144281750Y-91727000D01*
X144719250Y-91727000D01*
X144740691Y-91728053D01*
G37*
G36*
X146315691Y-91728053D02*
G01*
X146336926Y-91731203D01*
X146357750Y-91736419D01*
X146377962Y-91743651D01*
X146397368Y-91752830D01*
X146415781Y-91763866D01*
X146433024Y-91776654D01*
X146448930Y-91791070D01*
X146463346Y-91806976D01*
X146476134Y-91824219D01*
X146487170Y-91842632D01*
X146496349Y-91862038D01*
X146503581Y-91882250D01*
X146508797Y-91903074D01*
X146511947Y-91924309D01*
X146513000Y-91945750D01*
X146513000Y-92458250D01*
X146511947Y-92479691D01*
X146508797Y-92500926D01*
X146503581Y-92521750D01*
X146496349Y-92541962D01*
X146487170Y-92561368D01*
X146476134Y-92579781D01*
X146463346Y-92597024D01*
X146448930Y-92612930D01*
X146433024Y-92627346D01*
X146415781Y-92640134D01*
X146397368Y-92651170D01*
X146377962Y-92660349D01*
X146357750Y-92667581D01*
X146336926Y-92672797D01*
X146315691Y-92675947D01*
X146294250Y-92677000D01*
X145856750Y-92677000D01*
X145835309Y-92675947D01*
X145814074Y-92672797D01*
X145793250Y-92667581D01*
X145773038Y-92660349D01*
X145753632Y-92651170D01*
X145735219Y-92640134D01*
X145717976Y-92627346D01*
X145702070Y-92612930D01*
X145687654Y-92597024D01*
X145674866Y-92579781D01*
X145663830Y-92561368D01*
X145654651Y-92541962D01*
X145647419Y-92521750D01*
X145642203Y-92500926D01*
X145639053Y-92479691D01*
X145638000Y-92458250D01*
X145638000Y-91945750D01*
X145639053Y-91924309D01*
X145642203Y-91903074D01*
X145647419Y-91882250D01*
X145654651Y-91862038D01*
X145663830Y-91842632D01*
X145674866Y-91824219D01*
X145687654Y-91806976D01*
X145702070Y-91791070D01*
X145717976Y-91776654D01*
X145735219Y-91763866D01*
X145753632Y-91752830D01*
X145773038Y-91743651D01*
X145793250Y-91736419D01*
X145814074Y-91731203D01*
X145835309Y-91728053D01*
X145856750Y-91727000D01*
X146294250Y-91727000D01*
X146315691Y-91728053D01*
G37*
G36*
X144740691Y-97316053D02*
G01*
X144761926Y-97319203D01*
X144782750Y-97324419D01*
X144802962Y-97331651D01*
X144822368Y-97340830D01*
X144840781Y-97351866D01*
X144858024Y-97364654D01*
X144873930Y-97379070D01*
X144888346Y-97394976D01*
X144901134Y-97412219D01*
X144912170Y-97430632D01*
X144921349Y-97450038D01*
X144928581Y-97470250D01*
X144933797Y-97491074D01*
X144936947Y-97512309D01*
X144938000Y-97533750D01*
X144938000Y-98046250D01*
X144936947Y-98067691D01*
X144933797Y-98088926D01*
X144928581Y-98109750D01*
X144921349Y-98129962D01*
X144912170Y-98149368D01*
X144901134Y-98167781D01*
X144888346Y-98185024D01*
X144873930Y-98200930D01*
X144858024Y-98215346D01*
X144840781Y-98228134D01*
X144822368Y-98239170D01*
X144802962Y-98248349D01*
X144782750Y-98255581D01*
X144761926Y-98260797D01*
X144740691Y-98263947D01*
X144719250Y-98265000D01*
X144281750Y-98265000D01*
X144260309Y-98263947D01*
X144239074Y-98260797D01*
X144218250Y-98255581D01*
X144198038Y-98248349D01*
X144178632Y-98239170D01*
X144160219Y-98228134D01*
X144142976Y-98215346D01*
X144127070Y-98200930D01*
X144112654Y-98185024D01*
X144099866Y-98167781D01*
X144088830Y-98149368D01*
X144079651Y-98129962D01*
X144072419Y-98109750D01*
X144067203Y-98088926D01*
X144064053Y-98067691D01*
X144063000Y-98046250D01*
X144063000Y-97533750D01*
X144064053Y-97512309D01*
X144067203Y-97491074D01*
X144072419Y-97470250D01*
X144079651Y-97450038D01*
X144088830Y-97430632D01*
X144099866Y-97412219D01*
X144112654Y-97394976D01*
X144127070Y-97379070D01*
X144142976Y-97364654D01*
X144160219Y-97351866D01*
X144178632Y-97340830D01*
X144198038Y-97331651D01*
X144218250Y-97324419D01*
X144239074Y-97319203D01*
X144260309Y-97316053D01*
X144281750Y-97315000D01*
X144719250Y-97315000D01*
X144740691Y-97316053D01*
G37*
G36*
X146315691Y-97316053D02*
G01*
X146336926Y-97319203D01*
X146357750Y-97324419D01*
X146377962Y-97331651D01*
X146397368Y-97340830D01*
X146415781Y-97351866D01*
X146433024Y-97364654D01*
X146448930Y-97379070D01*
X146463346Y-97394976D01*
X146476134Y-97412219D01*
X146487170Y-97430632D01*
X146496349Y-97450038D01*
X146503581Y-97470250D01*
X146508797Y-97491074D01*
X146511947Y-97512309D01*
X146513000Y-97533750D01*
X146513000Y-98046250D01*
X146511947Y-98067691D01*
X146508797Y-98088926D01*
X146503581Y-98109750D01*
X146496349Y-98129962D01*
X146487170Y-98149368D01*
X146476134Y-98167781D01*
X146463346Y-98185024D01*
X146448930Y-98200930D01*
X146433024Y-98215346D01*
X146415781Y-98228134D01*
X146397368Y-98239170D01*
X146377962Y-98248349D01*
X146357750Y-98255581D01*
X146336926Y-98260797D01*
X146315691Y-98263947D01*
X146294250Y-98265000D01*
X145856750Y-98265000D01*
X145835309Y-98263947D01*
X145814074Y-98260797D01*
X145793250Y-98255581D01*
X145773038Y-98248349D01*
X145753632Y-98239170D01*
X145735219Y-98228134D01*
X145717976Y-98215346D01*
X145702070Y-98200930D01*
X145687654Y-98185024D01*
X145674866Y-98167781D01*
X145663830Y-98149368D01*
X145654651Y-98129962D01*
X145647419Y-98109750D01*
X145642203Y-98088926D01*
X145639053Y-98067691D01*
X145638000Y-98046250D01*
X145638000Y-97533750D01*
X145639053Y-97512309D01*
X145642203Y-97491074D01*
X145647419Y-97470250D01*
X145654651Y-97450038D01*
X145663830Y-97430632D01*
X145674866Y-97412219D01*
X145687654Y-97394976D01*
X145702070Y-97379070D01*
X145717976Y-97364654D01*
X145735219Y-97351866D01*
X145753632Y-97340830D01*
X145773038Y-97331651D01*
X145793250Y-97324419D01*
X145814074Y-97319203D01*
X145835309Y-97316053D01*
X145856750Y-97315000D01*
X146294250Y-97315000D01*
X146315691Y-97316053D01*
G37*
G36*
X144740691Y-95792053D02*
G01*
X144761926Y-95795203D01*
X144782750Y-95800419D01*
X144802962Y-95807651D01*
X144822368Y-95816830D01*
X144840781Y-95827866D01*
X144858024Y-95840654D01*
X144873930Y-95855070D01*
X144888346Y-95870976D01*
X144901134Y-95888219D01*
X144912170Y-95906632D01*
X144921349Y-95926038D01*
X144928581Y-95946250D01*
X144933797Y-95967074D01*
X144936947Y-95988309D01*
X144938000Y-96009750D01*
X144938000Y-96522250D01*
X144936947Y-96543691D01*
X144933797Y-96564926D01*
X144928581Y-96585750D01*
X144921349Y-96605962D01*
X144912170Y-96625368D01*
X144901134Y-96643781D01*
X144888346Y-96661024D01*
X144873930Y-96676930D01*
X144858024Y-96691346D01*
X144840781Y-96704134D01*
X144822368Y-96715170D01*
X144802962Y-96724349D01*
X144782750Y-96731581D01*
X144761926Y-96736797D01*
X144740691Y-96739947D01*
X144719250Y-96741000D01*
X144281750Y-96741000D01*
X144260309Y-96739947D01*
X144239074Y-96736797D01*
X144218250Y-96731581D01*
X144198038Y-96724349D01*
X144178632Y-96715170D01*
X144160219Y-96704134D01*
X144142976Y-96691346D01*
X144127070Y-96676930D01*
X144112654Y-96661024D01*
X144099866Y-96643781D01*
X144088830Y-96625368D01*
X144079651Y-96605962D01*
X144072419Y-96585750D01*
X144067203Y-96564926D01*
X144064053Y-96543691D01*
X144063000Y-96522250D01*
X144063000Y-96009750D01*
X144064053Y-95988309D01*
X144067203Y-95967074D01*
X144072419Y-95946250D01*
X144079651Y-95926038D01*
X144088830Y-95906632D01*
X144099866Y-95888219D01*
X144112654Y-95870976D01*
X144127070Y-95855070D01*
X144142976Y-95840654D01*
X144160219Y-95827866D01*
X144178632Y-95816830D01*
X144198038Y-95807651D01*
X144218250Y-95800419D01*
X144239074Y-95795203D01*
X144260309Y-95792053D01*
X144281750Y-95791000D01*
X144719250Y-95791000D01*
X144740691Y-95792053D01*
G37*
G36*
X146315691Y-95792053D02*
G01*
X146336926Y-95795203D01*
X146357750Y-95800419D01*
X146377962Y-95807651D01*
X146397368Y-95816830D01*
X146415781Y-95827866D01*
X146433024Y-95840654D01*
X146448930Y-95855070D01*
X146463346Y-95870976D01*
X146476134Y-95888219D01*
X146487170Y-95906632D01*
X146496349Y-95926038D01*
X146503581Y-95946250D01*
X146508797Y-95967074D01*
X146511947Y-95988309D01*
X146513000Y-96009750D01*
X146513000Y-96522250D01*
X146511947Y-96543691D01*
X146508797Y-96564926D01*
X146503581Y-96585750D01*
X146496349Y-96605962D01*
X146487170Y-96625368D01*
X146476134Y-96643781D01*
X146463346Y-96661024D01*
X146448930Y-96676930D01*
X146433024Y-96691346D01*
X146415781Y-96704134D01*
X146397368Y-96715170D01*
X146377962Y-96724349D01*
X146357750Y-96731581D01*
X146336926Y-96736797D01*
X146315691Y-96739947D01*
X146294250Y-96741000D01*
X145856750Y-96741000D01*
X145835309Y-96739947D01*
X145814074Y-96736797D01*
X145793250Y-96731581D01*
X145773038Y-96724349D01*
X145753632Y-96715170D01*
X145735219Y-96704134D01*
X145717976Y-96691346D01*
X145702070Y-96676930D01*
X145687654Y-96661024D01*
X145674866Y-96643781D01*
X145663830Y-96625368D01*
X145654651Y-96605962D01*
X145647419Y-96585750D01*
X145642203Y-96564926D01*
X145639053Y-96543691D01*
X145638000Y-96522250D01*
X145638000Y-96009750D01*
X145639053Y-95988309D01*
X145642203Y-95967074D01*
X145647419Y-95946250D01*
X145654651Y-95926038D01*
X145663830Y-95906632D01*
X145674866Y-95888219D01*
X145687654Y-95870976D01*
X145702070Y-95855070D01*
X145717976Y-95840654D01*
X145735219Y-95827866D01*
X145753632Y-95816830D01*
X145773038Y-95807651D01*
X145793250Y-95800419D01*
X145814074Y-95795203D01*
X145835309Y-95792053D01*
X145856750Y-95791000D01*
X146294250Y-95791000D01*
X146315691Y-95792053D01*
G37*
G36*
X144740691Y-98840053D02*
G01*
X144761926Y-98843203D01*
X144782750Y-98848419D01*
X144802962Y-98855651D01*
X144822368Y-98864830D01*
X144840781Y-98875866D01*
X144858024Y-98888654D01*
X144873930Y-98903070D01*
X144888346Y-98918976D01*
X144901134Y-98936219D01*
X144912170Y-98954632D01*
X144921349Y-98974038D01*
X144928581Y-98994250D01*
X144933797Y-99015074D01*
X144936947Y-99036309D01*
X144938000Y-99057750D01*
X144938000Y-99570250D01*
X144936947Y-99591691D01*
X144933797Y-99612926D01*
X144928581Y-99633750D01*
X144921349Y-99653962D01*
X144912170Y-99673368D01*
X144901134Y-99691781D01*
X144888346Y-99709024D01*
X144873930Y-99724930D01*
X144858024Y-99739346D01*
X144840781Y-99752134D01*
X144822368Y-99763170D01*
X144802962Y-99772349D01*
X144782750Y-99779581D01*
X144761926Y-99784797D01*
X144740691Y-99787947D01*
X144719250Y-99789000D01*
X144281750Y-99789000D01*
X144260309Y-99787947D01*
X144239074Y-99784797D01*
X144218250Y-99779581D01*
X144198038Y-99772349D01*
X144178632Y-99763170D01*
X144160219Y-99752134D01*
X144142976Y-99739346D01*
X144127070Y-99724930D01*
X144112654Y-99709024D01*
X144099866Y-99691781D01*
X144088830Y-99673368D01*
X144079651Y-99653962D01*
X144072419Y-99633750D01*
X144067203Y-99612926D01*
X144064053Y-99591691D01*
X144063000Y-99570250D01*
X144063000Y-99057750D01*
X144064053Y-99036309D01*
X144067203Y-99015074D01*
X144072419Y-98994250D01*
X144079651Y-98974038D01*
X144088830Y-98954632D01*
X144099866Y-98936219D01*
X144112654Y-98918976D01*
X144127070Y-98903070D01*
X144142976Y-98888654D01*
X144160219Y-98875866D01*
X144178632Y-98864830D01*
X144198038Y-98855651D01*
X144218250Y-98848419D01*
X144239074Y-98843203D01*
X144260309Y-98840053D01*
X144281750Y-98839000D01*
X144719250Y-98839000D01*
X144740691Y-98840053D01*
G37*
G36*
X146315691Y-98840053D02*
G01*
X146336926Y-98843203D01*
X146357750Y-98848419D01*
X146377962Y-98855651D01*
X146397368Y-98864830D01*
X146415781Y-98875866D01*
X146433024Y-98888654D01*
X146448930Y-98903070D01*
X146463346Y-98918976D01*
X146476134Y-98936219D01*
X146487170Y-98954632D01*
X146496349Y-98974038D01*
X146503581Y-98994250D01*
X146508797Y-99015074D01*
X146511947Y-99036309D01*
X146513000Y-99057750D01*
X146513000Y-99570250D01*
X146511947Y-99591691D01*
X146508797Y-99612926D01*
X146503581Y-99633750D01*
X146496349Y-99653962D01*
X146487170Y-99673368D01*
X146476134Y-99691781D01*
X146463346Y-99709024D01*
X146448930Y-99724930D01*
X146433024Y-99739346D01*
X146415781Y-99752134D01*
X146397368Y-99763170D01*
X146377962Y-99772349D01*
X146357750Y-99779581D01*
X146336926Y-99784797D01*
X146315691Y-99787947D01*
X146294250Y-99789000D01*
X145856750Y-99789000D01*
X145835309Y-99787947D01*
X145814074Y-99784797D01*
X145793250Y-99779581D01*
X145773038Y-99772349D01*
X145753632Y-99763170D01*
X145735219Y-99752134D01*
X145717976Y-99739346D01*
X145702070Y-99724930D01*
X145687654Y-99709024D01*
X145674866Y-99691781D01*
X145663830Y-99673368D01*
X145654651Y-99653962D01*
X145647419Y-99633750D01*
X145642203Y-99612926D01*
X145639053Y-99591691D01*
X145638000Y-99570250D01*
X145638000Y-99057750D01*
X145639053Y-99036309D01*
X145642203Y-99015074D01*
X145647419Y-98994250D01*
X145654651Y-98974038D01*
X145663830Y-98954632D01*
X145674866Y-98936219D01*
X145687654Y-98918976D01*
X145702070Y-98903070D01*
X145717976Y-98888654D01*
X145735219Y-98875866D01*
X145753632Y-98864830D01*
X145773038Y-98855651D01*
X145793250Y-98848419D01*
X145814074Y-98843203D01*
X145835309Y-98840053D01*
X145856750Y-98839000D01*
X146294250Y-98839000D01*
X146315691Y-98840053D01*
G37*
G36*
X146315691Y-102142053D02*
G01*
X146336926Y-102145203D01*
X146357750Y-102150419D01*
X146377962Y-102157651D01*
X146397368Y-102166830D01*
X146415781Y-102177866D01*
X146433024Y-102190654D01*
X146448930Y-102205070D01*
X146463346Y-102220976D01*
X146476134Y-102238219D01*
X146487170Y-102256632D01*
X146496349Y-102276038D01*
X146503581Y-102296250D01*
X146508797Y-102317074D01*
X146511947Y-102338309D01*
X146513000Y-102359750D01*
X146513000Y-102872250D01*
X146511947Y-102893691D01*
X146508797Y-102914926D01*
X146503581Y-102935750D01*
X146496349Y-102955962D01*
X146487170Y-102975368D01*
X146476134Y-102993781D01*
X146463346Y-103011024D01*
X146448930Y-103026930D01*
X146433024Y-103041346D01*
X146415781Y-103054134D01*
X146397368Y-103065170D01*
X146377962Y-103074349D01*
X146357750Y-103081581D01*
X146336926Y-103086797D01*
X146315691Y-103089947D01*
X146294250Y-103091000D01*
X145856750Y-103091000D01*
X145835309Y-103089947D01*
X145814074Y-103086797D01*
X145793250Y-103081581D01*
X145773038Y-103074349D01*
X145753632Y-103065170D01*
X145735219Y-103054134D01*
X145717976Y-103041346D01*
X145702070Y-103026930D01*
X145687654Y-103011024D01*
X145674866Y-102993781D01*
X145663830Y-102975368D01*
X145654651Y-102955962D01*
X145647419Y-102935750D01*
X145642203Y-102914926D01*
X145639053Y-102893691D01*
X145638000Y-102872250D01*
X145638000Y-102359750D01*
X145639053Y-102338309D01*
X145642203Y-102317074D01*
X145647419Y-102296250D01*
X145654651Y-102276038D01*
X145663830Y-102256632D01*
X145674866Y-102238219D01*
X145687654Y-102220976D01*
X145702070Y-102205070D01*
X145717976Y-102190654D01*
X145735219Y-102177866D01*
X145753632Y-102166830D01*
X145773038Y-102157651D01*
X145793250Y-102150419D01*
X145814074Y-102145203D01*
X145835309Y-102142053D01*
X145856750Y-102141000D01*
X146294250Y-102141000D01*
X146315691Y-102142053D01*
G37*
G36*
X144740691Y-102142053D02*
G01*
X144761926Y-102145203D01*
X144782750Y-102150419D01*
X144802962Y-102157651D01*
X144822368Y-102166830D01*
X144840781Y-102177866D01*
X144858024Y-102190654D01*
X144873930Y-102205070D01*
X144888346Y-102220976D01*
X144901134Y-102238219D01*
X144912170Y-102256632D01*
X144921349Y-102276038D01*
X144928581Y-102296250D01*
X144933797Y-102317074D01*
X144936947Y-102338309D01*
X144938000Y-102359750D01*
X144938000Y-102872250D01*
X144936947Y-102893691D01*
X144933797Y-102914926D01*
X144928581Y-102935750D01*
X144921349Y-102955962D01*
X144912170Y-102975368D01*
X144901134Y-102993781D01*
X144888346Y-103011024D01*
X144873930Y-103026930D01*
X144858024Y-103041346D01*
X144840781Y-103054134D01*
X144822368Y-103065170D01*
X144802962Y-103074349D01*
X144782750Y-103081581D01*
X144761926Y-103086797D01*
X144740691Y-103089947D01*
X144719250Y-103091000D01*
X144281750Y-103091000D01*
X144260309Y-103089947D01*
X144239074Y-103086797D01*
X144218250Y-103081581D01*
X144198038Y-103074349D01*
X144178632Y-103065170D01*
X144160219Y-103054134D01*
X144142976Y-103041346D01*
X144127070Y-103026930D01*
X144112654Y-103011024D01*
X144099866Y-102993781D01*
X144088830Y-102975368D01*
X144079651Y-102955962D01*
X144072419Y-102935750D01*
X144067203Y-102914926D01*
X144064053Y-102893691D01*
X144063000Y-102872250D01*
X144063000Y-102359750D01*
X144064053Y-102338309D01*
X144067203Y-102317074D01*
X144072419Y-102296250D01*
X144079651Y-102276038D01*
X144088830Y-102256632D01*
X144099866Y-102238219D01*
X144112654Y-102220976D01*
X144127070Y-102205070D01*
X144142976Y-102190654D01*
X144160219Y-102177866D01*
X144178632Y-102166830D01*
X144198038Y-102157651D01*
X144218250Y-102150419D01*
X144239074Y-102145203D01*
X144260309Y-102142053D01*
X144281750Y-102141000D01*
X144719250Y-102141000D01*
X144740691Y-102142053D01*
G37*
G36*
X144740691Y-103666053D02*
G01*
X144761926Y-103669203D01*
X144782750Y-103674419D01*
X144802962Y-103681651D01*
X144822368Y-103690830D01*
X144840781Y-103701866D01*
X144858024Y-103714654D01*
X144873930Y-103729070D01*
X144888346Y-103744976D01*
X144901134Y-103762219D01*
X144912170Y-103780632D01*
X144921349Y-103800038D01*
X144928581Y-103820250D01*
X144933797Y-103841074D01*
X144936947Y-103862309D01*
X144938000Y-103883750D01*
X144938000Y-104396250D01*
X144936947Y-104417691D01*
X144933797Y-104438926D01*
X144928581Y-104459750D01*
X144921349Y-104479962D01*
X144912170Y-104499368D01*
X144901134Y-104517781D01*
X144888346Y-104535024D01*
X144873930Y-104550930D01*
X144858024Y-104565346D01*
X144840781Y-104578134D01*
X144822368Y-104589170D01*
X144802962Y-104598349D01*
X144782750Y-104605581D01*
X144761926Y-104610797D01*
X144740691Y-104613947D01*
X144719250Y-104615000D01*
X144281750Y-104615000D01*
X144260309Y-104613947D01*
X144239074Y-104610797D01*
X144218250Y-104605581D01*
X144198038Y-104598349D01*
X144178632Y-104589170D01*
X144160219Y-104578134D01*
X144142976Y-104565346D01*
X144127070Y-104550930D01*
X144112654Y-104535024D01*
X144099866Y-104517781D01*
X144088830Y-104499368D01*
X144079651Y-104479962D01*
X144072419Y-104459750D01*
X144067203Y-104438926D01*
X144064053Y-104417691D01*
X144063000Y-104396250D01*
X144063000Y-103883750D01*
X144064053Y-103862309D01*
X144067203Y-103841074D01*
X144072419Y-103820250D01*
X144079651Y-103800038D01*
X144088830Y-103780632D01*
X144099866Y-103762219D01*
X144112654Y-103744976D01*
X144127070Y-103729070D01*
X144142976Y-103714654D01*
X144160219Y-103701866D01*
X144178632Y-103690830D01*
X144198038Y-103681651D01*
X144218250Y-103674419D01*
X144239074Y-103669203D01*
X144260309Y-103666053D01*
X144281750Y-103665000D01*
X144719250Y-103665000D01*
X144740691Y-103666053D01*
G37*
G36*
X146315691Y-103666053D02*
G01*
X146336926Y-103669203D01*
X146357750Y-103674419D01*
X146377962Y-103681651D01*
X146397368Y-103690830D01*
X146415781Y-103701866D01*
X146433024Y-103714654D01*
X146448930Y-103729070D01*
X146463346Y-103744976D01*
X146476134Y-103762219D01*
X146487170Y-103780632D01*
X146496349Y-103800038D01*
X146503581Y-103820250D01*
X146508797Y-103841074D01*
X146511947Y-103862309D01*
X146513000Y-103883750D01*
X146513000Y-104396250D01*
X146511947Y-104417691D01*
X146508797Y-104438926D01*
X146503581Y-104459750D01*
X146496349Y-104479962D01*
X146487170Y-104499368D01*
X146476134Y-104517781D01*
X146463346Y-104535024D01*
X146448930Y-104550930D01*
X146433024Y-104565346D01*
X146415781Y-104578134D01*
X146397368Y-104589170D01*
X146377962Y-104598349D01*
X146357750Y-104605581D01*
X146336926Y-104610797D01*
X146315691Y-104613947D01*
X146294250Y-104615000D01*
X145856750Y-104615000D01*
X145835309Y-104613947D01*
X145814074Y-104610797D01*
X145793250Y-104605581D01*
X145773038Y-104598349D01*
X145753632Y-104589170D01*
X145735219Y-104578134D01*
X145717976Y-104565346D01*
X145702070Y-104550930D01*
X145687654Y-104535024D01*
X145674866Y-104517781D01*
X145663830Y-104499368D01*
X145654651Y-104479962D01*
X145647419Y-104459750D01*
X145642203Y-104438926D01*
X145639053Y-104417691D01*
X145638000Y-104396250D01*
X145638000Y-103883750D01*
X145639053Y-103862309D01*
X145642203Y-103841074D01*
X145647419Y-103820250D01*
X145654651Y-103800038D01*
X145663830Y-103780632D01*
X145674866Y-103762219D01*
X145687654Y-103744976D01*
X145702070Y-103729070D01*
X145717976Y-103714654D01*
X145735219Y-103701866D01*
X145753632Y-103690830D01*
X145773038Y-103681651D01*
X145793250Y-103674419D01*
X145814074Y-103669203D01*
X145835309Y-103666053D01*
X145856750Y-103665000D01*
X146294250Y-103665000D01*
X146315691Y-103666053D01*
G37*
G36*
X147851691Y-103729053D02*
G01*
X147872926Y-103732203D01*
X147893750Y-103737419D01*
X147913962Y-103744651D01*
X147933368Y-103753830D01*
X147951781Y-103764866D01*
X147969024Y-103777654D01*
X147984930Y-103792070D01*
X147999346Y-103807976D01*
X148012134Y-103825219D01*
X148023170Y-103843632D01*
X148032349Y-103863038D01*
X148039581Y-103883250D01*
X148044797Y-103904074D01*
X148047947Y-103925309D01*
X148049000Y-103946750D01*
X148049000Y-104384250D01*
X148047947Y-104405691D01*
X148044797Y-104426926D01*
X148039581Y-104447750D01*
X148032349Y-104467962D01*
X148023170Y-104487368D01*
X148012134Y-104505781D01*
X147999346Y-104523024D01*
X147984930Y-104538930D01*
X147969024Y-104553346D01*
X147951781Y-104566134D01*
X147933368Y-104577170D01*
X147913962Y-104586349D01*
X147893750Y-104593581D01*
X147872926Y-104598797D01*
X147851691Y-104601947D01*
X147830250Y-104603000D01*
X147317750Y-104603000D01*
X147296309Y-104601947D01*
X147275074Y-104598797D01*
X147254250Y-104593581D01*
X147234038Y-104586349D01*
X147214632Y-104577170D01*
X147196219Y-104566134D01*
X147178976Y-104553346D01*
X147163070Y-104538930D01*
X147148654Y-104523024D01*
X147135866Y-104505781D01*
X147124830Y-104487368D01*
X147115651Y-104467962D01*
X147108419Y-104447750D01*
X147103203Y-104426926D01*
X147100053Y-104405691D01*
X147099000Y-104384250D01*
X147099000Y-103946750D01*
X147100053Y-103925309D01*
X147103203Y-103904074D01*
X147108419Y-103883250D01*
X147115651Y-103863038D01*
X147124830Y-103843632D01*
X147135866Y-103825219D01*
X147148654Y-103807976D01*
X147163070Y-103792070D01*
X147178976Y-103777654D01*
X147196219Y-103764866D01*
X147214632Y-103753830D01*
X147234038Y-103744651D01*
X147254250Y-103737419D01*
X147275074Y-103732203D01*
X147296309Y-103729053D01*
X147317750Y-103728000D01*
X147830250Y-103728000D01*
X147851691Y-103729053D01*
G37*
G36*
X147851691Y-102154053D02*
G01*
X147872926Y-102157203D01*
X147893750Y-102162419D01*
X147913962Y-102169651D01*
X147933368Y-102178830D01*
X147951781Y-102189866D01*
X147969024Y-102202654D01*
X147984930Y-102217070D01*
X147999346Y-102232976D01*
X148012134Y-102250219D01*
X148023170Y-102268632D01*
X148032349Y-102288038D01*
X148039581Y-102308250D01*
X148044797Y-102329074D01*
X148047947Y-102350309D01*
X148049000Y-102371750D01*
X148049000Y-102809250D01*
X148047947Y-102830691D01*
X148044797Y-102851926D01*
X148039581Y-102872750D01*
X148032349Y-102892962D01*
X148023170Y-102912368D01*
X148012134Y-102930781D01*
X147999346Y-102948024D01*
X147984930Y-102963930D01*
X147969024Y-102978346D01*
X147951781Y-102991134D01*
X147933368Y-103002170D01*
X147913962Y-103011349D01*
X147893750Y-103018581D01*
X147872926Y-103023797D01*
X147851691Y-103026947D01*
X147830250Y-103028000D01*
X147317750Y-103028000D01*
X147296309Y-103026947D01*
X147275074Y-103023797D01*
X147254250Y-103018581D01*
X147234038Y-103011349D01*
X147214632Y-103002170D01*
X147196219Y-102991134D01*
X147178976Y-102978346D01*
X147163070Y-102963930D01*
X147148654Y-102948024D01*
X147135866Y-102930781D01*
X147124830Y-102912368D01*
X147115651Y-102892962D01*
X147108419Y-102872750D01*
X147103203Y-102851926D01*
X147100053Y-102830691D01*
X147099000Y-102809250D01*
X147099000Y-102371750D01*
X147100053Y-102350309D01*
X147103203Y-102329074D01*
X147108419Y-102308250D01*
X147115651Y-102288038D01*
X147124830Y-102268632D01*
X147135866Y-102250219D01*
X147148654Y-102232976D01*
X147163070Y-102217070D01*
X147178976Y-102202654D01*
X147196219Y-102189866D01*
X147214632Y-102178830D01*
X147234038Y-102169651D01*
X147254250Y-102162419D01*
X147275074Y-102157203D01*
X147296309Y-102154053D01*
X147317750Y-102153000D01*
X147830250Y-102153000D01*
X147851691Y-102154053D01*
G37*
D17*
X176055000Y-100060000D03*
D18*
X173355000Y-99060000D03*
X173355000Y-98410000D03*
X173355000Y-97760000D03*
X173355000Y-100360000D03*
X173355000Y-99710000D03*
D17*
X176055000Y-98060000D03*
D10*
G36*
X170382191Y-101697553D02*
G01*
X170403426Y-101700703D01*
X170424250Y-101705919D01*
X170444462Y-101713151D01*
X170463868Y-101722330D01*
X170482281Y-101733366D01*
X170499524Y-101746154D01*
X170515430Y-101760570D01*
X170529846Y-101776476D01*
X170542634Y-101793719D01*
X170553670Y-101812132D01*
X170562849Y-101831538D01*
X170570081Y-101851750D01*
X170575297Y-101872574D01*
X170578447Y-101893809D01*
X170579500Y-101915250D01*
X170579500Y-102427750D01*
X170578447Y-102449191D01*
X170575297Y-102470426D01*
X170570081Y-102491250D01*
X170562849Y-102511462D01*
X170553670Y-102530868D01*
X170542634Y-102549281D01*
X170529846Y-102566524D01*
X170515430Y-102582430D01*
X170499524Y-102596846D01*
X170482281Y-102609634D01*
X170463868Y-102620670D01*
X170444462Y-102629849D01*
X170424250Y-102637081D01*
X170403426Y-102642297D01*
X170382191Y-102645447D01*
X170360750Y-102646500D01*
X169923250Y-102646500D01*
X169901809Y-102645447D01*
X169880574Y-102642297D01*
X169859750Y-102637081D01*
X169839538Y-102629849D01*
X169820132Y-102620670D01*
X169801719Y-102609634D01*
X169784476Y-102596846D01*
X169768570Y-102582430D01*
X169754154Y-102566524D01*
X169741366Y-102549281D01*
X169730330Y-102530868D01*
X169721151Y-102511462D01*
X169713919Y-102491250D01*
X169708703Y-102470426D01*
X169705553Y-102449191D01*
X169704500Y-102427750D01*
X169704500Y-101915250D01*
X169705553Y-101893809D01*
X169708703Y-101872574D01*
X169713919Y-101851750D01*
X169721151Y-101831538D01*
X169730330Y-101812132D01*
X169741366Y-101793719D01*
X169754154Y-101776476D01*
X169768570Y-101760570D01*
X169784476Y-101746154D01*
X169801719Y-101733366D01*
X169820132Y-101722330D01*
X169839538Y-101713151D01*
X169859750Y-101705919D01*
X169880574Y-101700703D01*
X169901809Y-101697553D01*
X169923250Y-101696500D01*
X170360750Y-101696500D01*
X170382191Y-101697553D01*
G37*
G36*
X168807191Y-101697553D02*
G01*
X168828426Y-101700703D01*
X168849250Y-101705919D01*
X168869462Y-101713151D01*
X168888868Y-101722330D01*
X168907281Y-101733366D01*
X168924524Y-101746154D01*
X168940430Y-101760570D01*
X168954846Y-101776476D01*
X168967634Y-101793719D01*
X168978670Y-101812132D01*
X168987849Y-101831538D01*
X168995081Y-101851750D01*
X169000297Y-101872574D01*
X169003447Y-101893809D01*
X169004500Y-101915250D01*
X169004500Y-102427750D01*
X169003447Y-102449191D01*
X169000297Y-102470426D01*
X168995081Y-102491250D01*
X168987849Y-102511462D01*
X168978670Y-102530868D01*
X168967634Y-102549281D01*
X168954846Y-102566524D01*
X168940430Y-102582430D01*
X168924524Y-102596846D01*
X168907281Y-102609634D01*
X168888868Y-102620670D01*
X168869462Y-102629849D01*
X168849250Y-102637081D01*
X168828426Y-102642297D01*
X168807191Y-102645447D01*
X168785750Y-102646500D01*
X168348250Y-102646500D01*
X168326809Y-102645447D01*
X168305574Y-102642297D01*
X168284750Y-102637081D01*
X168264538Y-102629849D01*
X168245132Y-102620670D01*
X168226719Y-102609634D01*
X168209476Y-102596846D01*
X168193570Y-102582430D01*
X168179154Y-102566524D01*
X168166366Y-102549281D01*
X168155330Y-102530868D01*
X168146151Y-102511462D01*
X168138919Y-102491250D01*
X168133703Y-102470426D01*
X168130553Y-102449191D01*
X168129500Y-102427750D01*
X168129500Y-101915250D01*
X168130553Y-101893809D01*
X168133703Y-101872574D01*
X168138919Y-101851750D01*
X168146151Y-101831538D01*
X168155330Y-101812132D01*
X168166366Y-101793719D01*
X168179154Y-101776476D01*
X168193570Y-101760570D01*
X168209476Y-101746154D01*
X168226719Y-101733366D01*
X168245132Y-101722330D01*
X168264538Y-101713151D01*
X168284750Y-101705919D01*
X168305574Y-101700703D01*
X168326809Y-101697553D01*
X168348250Y-101696500D01*
X168785750Y-101696500D01*
X168807191Y-101697553D01*
G37*
G36*
X153427691Y-101634053D02*
G01*
X153448926Y-101637203D01*
X153469750Y-101642419D01*
X153489962Y-101649651D01*
X153509368Y-101658830D01*
X153527781Y-101669866D01*
X153545024Y-101682654D01*
X153560930Y-101697070D01*
X153575346Y-101712976D01*
X153588134Y-101730219D01*
X153599170Y-101748632D01*
X153608349Y-101768038D01*
X153615581Y-101788250D01*
X153620797Y-101809074D01*
X153623947Y-101830309D01*
X153625000Y-101851750D01*
X153625000Y-102364250D01*
X153623947Y-102385691D01*
X153620797Y-102406926D01*
X153615581Y-102427750D01*
X153608349Y-102447962D01*
X153599170Y-102467368D01*
X153588134Y-102485781D01*
X153575346Y-102503024D01*
X153560930Y-102518930D01*
X153545024Y-102533346D01*
X153527781Y-102546134D01*
X153509368Y-102557170D01*
X153489962Y-102566349D01*
X153469750Y-102573581D01*
X153448926Y-102578797D01*
X153427691Y-102581947D01*
X153406250Y-102583000D01*
X152968750Y-102583000D01*
X152947309Y-102581947D01*
X152926074Y-102578797D01*
X152905250Y-102573581D01*
X152885038Y-102566349D01*
X152865632Y-102557170D01*
X152847219Y-102546134D01*
X152829976Y-102533346D01*
X152814070Y-102518930D01*
X152799654Y-102503024D01*
X152786866Y-102485781D01*
X152775830Y-102467368D01*
X152766651Y-102447962D01*
X152759419Y-102427750D01*
X152754203Y-102406926D01*
X152751053Y-102385691D01*
X152750000Y-102364250D01*
X152750000Y-101851750D01*
X152751053Y-101830309D01*
X152754203Y-101809074D01*
X152759419Y-101788250D01*
X152766651Y-101768038D01*
X152775830Y-101748632D01*
X152786866Y-101730219D01*
X152799654Y-101712976D01*
X152814070Y-101697070D01*
X152829976Y-101682654D01*
X152847219Y-101669866D01*
X152865632Y-101658830D01*
X152885038Y-101649651D01*
X152905250Y-101642419D01*
X152926074Y-101637203D01*
X152947309Y-101634053D01*
X152968750Y-101633000D01*
X153406250Y-101633000D01*
X153427691Y-101634053D01*
G37*
G36*
X151852691Y-101634053D02*
G01*
X151873926Y-101637203D01*
X151894750Y-101642419D01*
X151914962Y-101649651D01*
X151934368Y-101658830D01*
X151952781Y-101669866D01*
X151970024Y-101682654D01*
X151985930Y-101697070D01*
X152000346Y-101712976D01*
X152013134Y-101730219D01*
X152024170Y-101748632D01*
X152033349Y-101768038D01*
X152040581Y-101788250D01*
X152045797Y-101809074D01*
X152048947Y-101830309D01*
X152050000Y-101851750D01*
X152050000Y-102364250D01*
X152048947Y-102385691D01*
X152045797Y-102406926D01*
X152040581Y-102427750D01*
X152033349Y-102447962D01*
X152024170Y-102467368D01*
X152013134Y-102485781D01*
X152000346Y-102503024D01*
X151985930Y-102518930D01*
X151970024Y-102533346D01*
X151952781Y-102546134D01*
X151934368Y-102557170D01*
X151914962Y-102566349D01*
X151894750Y-102573581D01*
X151873926Y-102578797D01*
X151852691Y-102581947D01*
X151831250Y-102583000D01*
X151393750Y-102583000D01*
X151372309Y-102581947D01*
X151351074Y-102578797D01*
X151330250Y-102573581D01*
X151310038Y-102566349D01*
X151290632Y-102557170D01*
X151272219Y-102546134D01*
X151254976Y-102533346D01*
X151239070Y-102518930D01*
X151224654Y-102503024D01*
X151211866Y-102485781D01*
X151200830Y-102467368D01*
X151191651Y-102447962D01*
X151184419Y-102427750D01*
X151179203Y-102406926D01*
X151176053Y-102385691D01*
X151175000Y-102364250D01*
X151175000Y-101851750D01*
X151176053Y-101830309D01*
X151179203Y-101809074D01*
X151184419Y-101788250D01*
X151191651Y-101768038D01*
X151200830Y-101748632D01*
X151211866Y-101730219D01*
X151224654Y-101712976D01*
X151239070Y-101697070D01*
X151254976Y-101682654D01*
X151272219Y-101669866D01*
X151290632Y-101658830D01*
X151310038Y-101649651D01*
X151330250Y-101642419D01*
X151351074Y-101637203D01*
X151372309Y-101634053D01*
X151393750Y-101633000D01*
X151831250Y-101633000D01*
X151852691Y-101634053D01*
G37*
G36*
X153427691Y-104174053D02*
G01*
X153448926Y-104177203D01*
X153469750Y-104182419D01*
X153489962Y-104189651D01*
X153509368Y-104198830D01*
X153527781Y-104209866D01*
X153545024Y-104222654D01*
X153560930Y-104237070D01*
X153575346Y-104252976D01*
X153588134Y-104270219D01*
X153599170Y-104288632D01*
X153608349Y-104308038D01*
X153615581Y-104328250D01*
X153620797Y-104349074D01*
X153623947Y-104370309D01*
X153625000Y-104391750D01*
X153625000Y-104904250D01*
X153623947Y-104925691D01*
X153620797Y-104946926D01*
X153615581Y-104967750D01*
X153608349Y-104987962D01*
X153599170Y-105007368D01*
X153588134Y-105025781D01*
X153575346Y-105043024D01*
X153560930Y-105058930D01*
X153545024Y-105073346D01*
X153527781Y-105086134D01*
X153509368Y-105097170D01*
X153489962Y-105106349D01*
X153469750Y-105113581D01*
X153448926Y-105118797D01*
X153427691Y-105121947D01*
X153406250Y-105123000D01*
X152968750Y-105123000D01*
X152947309Y-105121947D01*
X152926074Y-105118797D01*
X152905250Y-105113581D01*
X152885038Y-105106349D01*
X152865632Y-105097170D01*
X152847219Y-105086134D01*
X152829976Y-105073346D01*
X152814070Y-105058930D01*
X152799654Y-105043024D01*
X152786866Y-105025781D01*
X152775830Y-105007368D01*
X152766651Y-104987962D01*
X152759419Y-104967750D01*
X152754203Y-104946926D01*
X152751053Y-104925691D01*
X152750000Y-104904250D01*
X152750000Y-104391750D01*
X152751053Y-104370309D01*
X152754203Y-104349074D01*
X152759419Y-104328250D01*
X152766651Y-104308038D01*
X152775830Y-104288632D01*
X152786866Y-104270219D01*
X152799654Y-104252976D01*
X152814070Y-104237070D01*
X152829976Y-104222654D01*
X152847219Y-104209866D01*
X152865632Y-104198830D01*
X152885038Y-104189651D01*
X152905250Y-104182419D01*
X152926074Y-104177203D01*
X152947309Y-104174053D01*
X152968750Y-104173000D01*
X153406250Y-104173000D01*
X153427691Y-104174053D01*
G37*
G36*
X151852691Y-104174053D02*
G01*
X151873926Y-104177203D01*
X151894750Y-104182419D01*
X151914962Y-104189651D01*
X151934368Y-104198830D01*
X151952781Y-104209866D01*
X151970024Y-104222654D01*
X151985930Y-104237070D01*
X152000346Y-104252976D01*
X152013134Y-104270219D01*
X152024170Y-104288632D01*
X152033349Y-104308038D01*
X152040581Y-104328250D01*
X152045797Y-104349074D01*
X152048947Y-104370309D01*
X152050000Y-104391750D01*
X152050000Y-104904250D01*
X152048947Y-104925691D01*
X152045797Y-104946926D01*
X152040581Y-104967750D01*
X152033349Y-104987962D01*
X152024170Y-105007368D01*
X152013134Y-105025781D01*
X152000346Y-105043024D01*
X151985930Y-105058930D01*
X151970024Y-105073346D01*
X151952781Y-105086134D01*
X151934368Y-105097170D01*
X151914962Y-105106349D01*
X151894750Y-105113581D01*
X151873926Y-105118797D01*
X151852691Y-105121947D01*
X151831250Y-105123000D01*
X151393750Y-105123000D01*
X151372309Y-105121947D01*
X151351074Y-105118797D01*
X151330250Y-105113581D01*
X151310038Y-105106349D01*
X151290632Y-105097170D01*
X151272219Y-105086134D01*
X151254976Y-105073346D01*
X151239070Y-105058930D01*
X151224654Y-105043024D01*
X151211866Y-105025781D01*
X151200830Y-105007368D01*
X151191651Y-104987962D01*
X151184419Y-104967750D01*
X151179203Y-104946926D01*
X151176053Y-104925691D01*
X151175000Y-104904250D01*
X151175000Y-104391750D01*
X151176053Y-104370309D01*
X151179203Y-104349074D01*
X151184419Y-104328250D01*
X151191651Y-104308038D01*
X151200830Y-104288632D01*
X151211866Y-104270219D01*
X151224654Y-104252976D01*
X151239070Y-104237070D01*
X151254976Y-104222654D01*
X151272219Y-104209866D01*
X151290632Y-104198830D01*
X151310038Y-104189651D01*
X151330250Y-104182419D01*
X151351074Y-104177203D01*
X151372309Y-104174053D01*
X151393750Y-104173000D01*
X151831250Y-104173000D01*
X151852691Y-104174053D01*
G37*
G36*
X169441691Y-105837053D02*
G01*
X169462926Y-105840203D01*
X169483750Y-105845419D01*
X169503962Y-105852651D01*
X169523368Y-105861830D01*
X169541781Y-105872866D01*
X169559024Y-105885654D01*
X169574930Y-105900070D01*
X169589346Y-105915976D01*
X169602134Y-105933219D01*
X169613170Y-105951632D01*
X169622349Y-105971038D01*
X169629581Y-105991250D01*
X169634797Y-106012074D01*
X169637947Y-106033309D01*
X169639000Y-106054750D01*
X169639000Y-106492250D01*
X169637947Y-106513691D01*
X169634797Y-106534926D01*
X169629581Y-106555750D01*
X169622349Y-106575962D01*
X169613170Y-106595368D01*
X169602134Y-106613781D01*
X169589346Y-106631024D01*
X169574930Y-106646930D01*
X169559024Y-106661346D01*
X169541781Y-106674134D01*
X169523368Y-106685170D01*
X169503962Y-106694349D01*
X169483750Y-106701581D01*
X169462926Y-106706797D01*
X169441691Y-106709947D01*
X169420250Y-106711000D01*
X168907750Y-106711000D01*
X168886309Y-106709947D01*
X168865074Y-106706797D01*
X168844250Y-106701581D01*
X168824038Y-106694349D01*
X168804632Y-106685170D01*
X168786219Y-106674134D01*
X168768976Y-106661346D01*
X168753070Y-106646930D01*
X168738654Y-106631024D01*
X168725866Y-106613781D01*
X168714830Y-106595368D01*
X168705651Y-106575962D01*
X168698419Y-106555750D01*
X168693203Y-106534926D01*
X168690053Y-106513691D01*
X168689000Y-106492250D01*
X168689000Y-106054750D01*
X168690053Y-106033309D01*
X168693203Y-106012074D01*
X168698419Y-105991250D01*
X168705651Y-105971038D01*
X168714830Y-105951632D01*
X168725866Y-105933219D01*
X168738654Y-105915976D01*
X168753070Y-105900070D01*
X168768976Y-105885654D01*
X168786219Y-105872866D01*
X168804632Y-105861830D01*
X168824038Y-105852651D01*
X168844250Y-105845419D01*
X168865074Y-105840203D01*
X168886309Y-105837053D01*
X168907750Y-105836000D01*
X169420250Y-105836000D01*
X169441691Y-105837053D01*
G37*
G36*
X169441691Y-107412053D02*
G01*
X169462926Y-107415203D01*
X169483750Y-107420419D01*
X169503962Y-107427651D01*
X169523368Y-107436830D01*
X169541781Y-107447866D01*
X169559024Y-107460654D01*
X169574930Y-107475070D01*
X169589346Y-107490976D01*
X169602134Y-107508219D01*
X169613170Y-107526632D01*
X169622349Y-107546038D01*
X169629581Y-107566250D01*
X169634797Y-107587074D01*
X169637947Y-107608309D01*
X169639000Y-107629750D01*
X169639000Y-108067250D01*
X169637947Y-108088691D01*
X169634797Y-108109926D01*
X169629581Y-108130750D01*
X169622349Y-108150962D01*
X169613170Y-108170368D01*
X169602134Y-108188781D01*
X169589346Y-108206024D01*
X169574930Y-108221930D01*
X169559024Y-108236346D01*
X169541781Y-108249134D01*
X169523368Y-108260170D01*
X169503962Y-108269349D01*
X169483750Y-108276581D01*
X169462926Y-108281797D01*
X169441691Y-108284947D01*
X169420250Y-108286000D01*
X168907750Y-108286000D01*
X168886309Y-108284947D01*
X168865074Y-108281797D01*
X168844250Y-108276581D01*
X168824038Y-108269349D01*
X168804632Y-108260170D01*
X168786219Y-108249134D01*
X168768976Y-108236346D01*
X168753070Y-108221930D01*
X168738654Y-108206024D01*
X168725866Y-108188781D01*
X168714830Y-108170368D01*
X168705651Y-108150962D01*
X168698419Y-108130750D01*
X168693203Y-108109926D01*
X168690053Y-108088691D01*
X168689000Y-108067250D01*
X168689000Y-107629750D01*
X168690053Y-107608309D01*
X168693203Y-107587074D01*
X168698419Y-107566250D01*
X168705651Y-107546038D01*
X168714830Y-107526632D01*
X168725866Y-107508219D01*
X168738654Y-107490976D01*
X168753070Y-107475070D01*
X168768976Y-107460654D01*
X168786219Y-107447866D01*
X168804632Y-107436830D01*
X168824038Y-107427651D01*
X168844250Y-107420419D01*
X168865074Y-107415203D01*
X168886309Y-107412053D01*
X168907750Y-107411000D01*
X169420250Y-107411000D01*
X169441691Y-107412053D01*
G37*
G36*
X169441691Y-91283053D02*
G01*
X169462926Y-91286203D01*
X169483750Y-91291419D01*
X169503962Y-91298651D01*
X169523368Y-91307830D01*
X169541781Y-91318866D01*
X169559024Y-91331654D01*
X169574930Y-91346070D01*
X169589346Y-91361976D01*
X169602134Y-91379219D01*
X169613170Y-91397632D01*
X169622349Y-91417038D01*
X169629581Y-91437250D01*
X169634797Y-91458074D01*
X169637947Y-91479309D01*
X169639000Y-91500750D01*
X169639000Y-91938250D01*
X169637947Y-91959691D01*
X169634797Y-91980926D01*
X169629581Y-92001750D01*
X169622349Y-92021962D01*
X169613170Y-92041368D01*
X169602134Y-92059781D01*
X169589346Y-92077024D01*
X169574930Y-92092930D01*
X169559024Y-92107346D01*
X169541781Y-92120134D01*
X169523368Y-92131170D01*
X169503962Y-92140349D01*
X169483750Y-92147581D01*
X169462926Y-92152797D01*
X169441691Y-92155947D01*
X169420250Y-92157000D01*
X168907750Y-92157000D01*
X168886309Y-92155947D01*
X168865074Y-92152797D01*
X168844250Y-92147581D01*
X168824038Y-92140349D01*
X168804632Y-92131170D01*
X168786219Y-92120134D01*
X168768976Y-92107346D01*
X168753070Y-92092930D01*
X168738654Y-92077024D01*
X168725866Y-92059781D01*
X168714830Y-92041368D01*
X168705651Y-92021962D01*
X168698419Y-92001750D01*
X168693203Y-91980926D01*
X168690053Y-91959691D01*
X168689000Y-91938250D01*
X168689000Y-91500750D01*
X168690053Y-91479309D01*
X168693203Y-91458074D01*
X168698419Y-91437250D01*
X168705651Y-91417038D01*
X168714830Y-91397632D01*
X168725866Y-91379219D01*
X168738654Y-91361976D01*
X168753070Y-91346070D01*
X168768976Y-91331654D01*
X168786219Y-91318866D01*
X168804632Y-91307830D01*
X168824038Y-91298651D01*
X168844250Y-91291419D01*
X168865074Y-91286203D01*
X168886309Y-91283053D01*
X168907750Y-91282000D01*
X169420250Y-91282000D01*
X169441691Y-91283053D01*
G37*
G36*
X169441691Y-89708053D02*
G01*
X169462926Y-89711203D01*
X169483750Y-89716419D01*
X169503962Y-89723651D01*
X169523368Y-89732830D01*
X169541781Y-89743866D01*
X169559024Y-89756654D01*
X169574930Y-89771070D01*
X169589346Y-89786976D01*
X169602134Y-89804219D01*
X169613170Y-89822632D01*
X169622349Y-89842038D01*
X169629581Y-89862250D01*
X169634797Y-89883074D01*
X169637947Y-89904309D01*
X169639000Y-89925750D01*
X169639000Y-90363250D01*
X169637947Y-90384691D01*
X169634797Y-90405926D01*
X169629581Y-90426750D01*
X169622349Y-90446962D01*
X169613170Y-90466368D01*
X169602134Y-90484781D01*
X169589346Y-90502024D01*
X169574930Y-90517930D01*
X169559024Y-90532346D01*
X169541781Y-90545134D01*
X169523368Y-90556170D01*
X169503962Y-90565349D01*
X169483750Y-90572581D01*
X169462926Y-90577797D01*
X169441691Y-90580947D01*
X169420250Y-90582000D01*
X168907750Y-90582000D01*
X168886309Y-90580947D01*
X168865074Y-90577797D01*
X168844250Y-90572581D01*
X168824038Y-90565349D01*
X168804632Y-90556170D01*
X168786219Y-90545134D01*
X168768976Y-90532346D01*
X168753070Y-90517930D01*
X168738654Y-90502024D01*
X168725866Y-90484781D01*
X168714830Y-90466368D01*
X168705651Y-90446962D01*
X168698419Y-90426750D01*
X168693203Y-90405926D01*
X168690053Y-90384691D01*
X168689000Y-90363250D01*
X168689000Y-89925750D01*
X168690053Y-89904309D01*
X168693203Y-89883074D01*
X168698419Y-89862250D01*
X168705651Y-89842038D01*
X168714830Y-89822632D01*
X168725866Y-89804219D01*
X168738654Y-89786976D01*
X168753070Y-89771070D01*
X168768976Y-89756654D01*
X168786219Y-89743866D01*
X168804632Y-89732830D01*
X168824038Y-89723651D01*
X168844250Y-89716419D01*
X168865074Y-89711203D01*
X168886309Y-89708053D01*
X168907750Y-89707000D01*
X169420250Y-89707000D01*
X169441691Y-89708053D01*
G37*
G36*
X146315691Y-90204053D02*
G01*
X146336926Y-90207203D01*
X146357750Y-90212419D01*
X146377962Y-90219651D01*
X146397368Y-90228830D01*
X146415781Y-90239866D01*
X146433024Y-90252654D01*
X146448930Y-90267070D01*
X146463346Y-90282976D01*
X146476134Y-90300219D01*
X146487170Y-90318632D01*
X146496349Y-90338038D01*
X146503581Y-90358250D01*
X146508797Y-90379074D01*
X146511947Y-90400309D01*
X146513000Y-90421750D01*
X146513000Y-90934250D01*
X146511947Y-90955691D01*
X146508797Y-90976926D01*
X146503581Y-90997750D01*
X146496349Y-91017962D01*
X146487170Y-91037368D01*
X146476134Y-91055781D01*
X146463346Y-91073024D01*
X146448930Y-91088930D01*
X146433024Y-91103346D01*
X146415781Y-91116134D01*
X146397368Y-91127170D01*
X146377962Y-91136349D01*
X146357750Y-91143581D01*
X146336926Y-91148797D01*
X146315691Y-91151947D01*
X146294250Y-91153000D01*
X145856750Y-91153000D01*
X145835309Y-91151947D01*
X145814074Y-91148797D01*
X145793250Y-91143581D01*
X145773038Y-91136349D01*
X145753632Y-91127170D01*
X145735219Y-91116134D01*
X145717976Y-91103346D01*
X145702070Y-91088930D01*
X145687654Y-91073024D01*
X145674866Y-91055781D01*
X145663830Y-91037368D01*
X145654651Y-91017962D01*
X145647419Y-90997750D01*
X145642203Y-90976926D01*
X145639053Y-90955691D01*
X145638000Y-90934250D01*
X145638000Y-90421750D01*
X145639053Y-90400309D01*
X145642203Y-90379074D01*
X145647419Y-90358250D01*
X145654651Y-90338038D01*
X145663830Y-90318632D01*
X145674866Y-90300219D01*
X145687654Y-90282976D01*
X145702070Y-90267070D01*
X145717976Y-90252654D01*
X145735219Y-90239866D01*
X145753632Y-90228830D01*
X145773038Y-90219651D01*
X145793250Y-90212419D01*
X145814074Y-90207203D01*
X145835309Y-90204053D01*
X145856750Y-90203000D01*
X146294250Y-90203000D01*
X146315691Y-90204053D01*
G37*
G36*
X144740691Y-90204053D02*
G01*
X144761926Y-90207203D01*
X144782750Y-90212419D01*
X144802962Y-90219651D01*
X144822368Y-90228830D01*
X144840781Y-90239866D01*
X144858024Y-90252654D01*
X144873930Y-90267070D01*
X144888346Y-90282976D01*
X144901134Y-90300219D01*
X144912170Y-90318632D01*
X144921349Y-90338038D01*
X144928581Y-90358250D01*
X144933797Y-90379074D01*
X144936947Y-90400309D01*
X144938000Y-90421750D01*
X144938000Y-90934250D01*
X144936947Y-90955691D01*
X144933797Y-90976926D01*
X144928581Y-90997750D01*
X144921349Y-91017962D01*
X144912170Y-91037368D01*
X144901134Y-91055781D01*
X144888346Y-91073024D01*
X144873930Y-91088930D01*
X144858024Y-91103346D01*
X144840781Y-91116134D01*
X144822368Y-91127170D01*
X144802962Y-91136349D01*
X144782750Y-91143581D01*
X144761926Y-91148797D01*
X144740691Y-91151947D01*
X144719250Y-91153000D01*
X144281750Y-91153000D01*
X144260309Y-91151947D01*
X144239074Y-91148797D01*
X144218250Y-91143581D01*
X144198038Y-91136349D01*
X144178632Y-91127170D01*
X144160219Y-91116134D01*
X144142976Y-91103346D01*
X144127070Y-91088930D01*
X144112654Y-91073024D01*
X144099866Y-91055781D01*
X144088830Y-91037368D01*
X144079651Y-91017962D01*
X144072419Y-90997750D01*
X144067203Y-90976926D01*
X144064053Y-90955691D01*
X144063000Y-90934250D01*
X144063000Y-90421750D01*
X144064053Y-90400309D01*
X144067203Y-90379074D01*
X144072419Y-90358250D01*
X144079651Y-90338038D01*
X144088830Y-90318632D01*
X144099866Y-90300219D01*
X144112654Y-90282976D01*
X144127070Y-90267070D01*
X144142976Y-90252654D01*
X144160219Y-90239866D01*
X144178632Y-90228830D01*
X144198038Y-90219651D01*
X144218250Y-90212419D01*
X144239074Y-90207203D01*
X144260309Y-90204053D01*
X144281750Y-90203000D01*
X144719250Y-90203000D01*
X144740691Y-90204053D01*
G37*
G36*
X144803691Y-106472053D02*
G01*
X144824926Y-106475203D01*
X144845750Y-106480419D01*
X144865962Y-106487651D01*
X144885368Y-106496830D01*
X144903781Y-106507866D01*
X144921024Y-106520654D01*
X144936930Y-106535070D01*
X144951346Y-106550976D01*
X144964134Y-106568219D01*
X144975170Y-106586632D01*
X144984349Y-106606038D01*
X144991581Y-106626250D01*
X144996797Y-106647074D01*
X144999947Y-106668309D01*
X145001000Y-106689750D01*
X145001000Y-107127250D01*
X144999947Y-107148691D01*
X144996797Y-107169926D01*
X144991581Y-107190750D01*
X144984349Y-107210962D01*
X144975170Y-107230368D01*
X144964134Y-107248781D01*
X144951346Y-107266024D01*
X144936930Y-107281930D01*
X144921024Y-107296346D01*
X144903781Y-107309134D01*
X144885368Y-107320170D01*
X144865962Y-107329349D01*
X144845750Y-107336581D01*
X144824926Y-107341797D01*
X144803691Y-107344947D01*
X144782250Y-107346000D01*
X144269750Y-107346000D01*
X144248309Y-107344947D01*
X144227074Y-107341797D01*
X144206250Y-107336581D01*
X144186038Y-107329349D01*
X144166632Y-107320170D01*
X144148219Y-107309134D01*
X144130976Y-107296346D01*
X144115070Y-107281930D01*
X144100654Y-107266024D01*
X144087866Y-107248781D01*
X144076830Y-107230368D01*
X144067651Y-107210962D01*
X144060419Y-107190750D01*
X144055203Y-107169926D01*
X144052053Y-107148691D01*
X144051000Y-107127250D01*
X144051000Y-106689750D01*
X144052053Y-106668309D01*
X144055203Y-106647074D01*
X144060419Y-106626250D01*
X144067651Y-106606038D01*
X144076830Y-106586632D01*
X144087866Y-106568219D01*
X144100654Y-106550976D01*
X144115070Y-106535070D01*
X144130976Y-106520654D01*
X144148219Y-106507866D01*
X144166632Y-106496830D01*
X144186038Y-106487651D01*
X144206250Y-106480419D01*
X144227074Y-106475203D01*
X144248309Y-106472053D01*
X144269750Y-106471000D01*
X144782250Y-106471000D01*
X144803691Y-106472053D01*
G37*
G36*
X144803691Y-108047053D02*
G01*
X144824926Y-108050203D01*
X144845750Y-108055419D01*
X144865962Y-108062651D01*
X144885368Y-108071830D01*
X144903781Y-108082866D01*
X144921024Y-108095654D01*
X144936930Y-108110070D01*
X144951346Y-108125976D01*
X144964134Y-108143219D01*
X144975170Y-108161632D01*
X144984349Y-108181038D01*
X144991581Y-108201250D01*
X144996797Y-108222074D01*
X144999947Y-108243309D01*
X145001000Y-108264750D01*
X145001000Y-108702250D01*
X144999947Y-108723691D01*
X144996797Y-108744926D01*
X144991581Y-108765750D01*
X144984349Y-108785962D01*
X144975170Y-108805368D01*
X144964134Y-108823781D01*
X144951346Y-108841024D01*
X144936930Y-108856930D01*
X144921024Y-108871346D01*
X144903781Y-108884134D01*
X144885368Y-108895170D01*
X144865962Y-108904349D01*
X144845750Y-108911581D01*
X144824926Y-108916797D01*
X144803691Y-108919947D01*
X144782250Y-108921000D01*
X144269750Y-108921000D01*
X144248309Y-108919947D01*
X144227074Y-108916797D01*
X144206250Y-108911581D01*
X144186038Y-108904349D01*
X144166632Y-108895170D01*
X144148219Y-108884134D01*
X144130976Y-108871346D01*
X144115070Y-108856930D01*
X144100654Y-108841024D01*
X144087866Y-108823781D01*
X144076830Y-108805368D01*
X144067651Y-108785962D01*
X144060419Y-108765750D01*
X144055203Y-108744926D01*
X144052053Y-108723691D01*
X144051000Y-108702250D01*
X144051000Y-108264750D01*
X144052053Y-108243309D01*
X144055203Y-108222074D01*
X144060419Y-108201250D01*
X144067651Y-108181038D01*
X144076830Y-108161632D01*
X144087866Y-108143219D01*
X144100654Y-108125976D01*
X144115070Y-108110070D01*
X144130976Y-108095654D01*
X144148219Y-108082866D01*
X144166632Y-108071830D01*
X144186038Y-108062651D01*
X144206250Y-108055419D01*
X144227074Y-108050203D01*
X144248309Y-108047053D01*
X144269750Y-108046000D01*
X144782250Y-108046000D01*
X144803691Y-108047053D01*
G37*
G36*
X146784142Y-106272174D02*
G01*
X146807803Y-106275684D01*
X146831007Y-106281496D01*
X146853529Y-106289554D01*
X146875153Y-106299782D01*
X146895670Y-106312079D01*
X146914883Y-106326329D01*
X146932607Y-106342393D01*
X146948671Y-106360117D01*
X146962921Y-106379330D01*
X146975218Y-106399847D01*
X146985446Y-106421471D01*
X146993504Y-106443993D01*
X146999316Y-106467197D01*
X147002826Y-106490858D01*
X147004000Y-106514750D01*
X147004000Y-107002250D01*
X147002826Y-107026142D01*
X146999316Y-107049803D01*
X146993504Y-107073007D01*
X146985446Y-107095529D01*
X146975218Y-107117153D01*
X146962921Y-107137670D01*
X146948671Y-107156883D01*
X146932607Y-107174607D01*
X146914883Y-107190671D01*
X146895670Y-107204921D01*
X146875153Y-107217218D01*
X146853529Y-107227446D01*
X146831007Y-107235504D01*
X146807803Y-107241316D01*
X146784142Y-107244826D01*
X146760250Y-107246000D01*
X145847750Y-107246000D01*
X145823858Y-107244826D01*
X145800197Y-107241316D01*
X145776993Y-107235504D01*
X145754471Y-107227446D01*
X145732847Y-107217218D01*
X145712330Y-107204921D01*
X145693117Y-107190671D01*
X145675393Y-107174607D01*
X145659329Y-107156883D01*
X145645079Y-107137670D01*
X145632782Y-107117153D01*
X145622554Y-107095529D01*
X145614496Y-107073007D01*
X145608684Y-107049803D01*
X145605174Y-107026142D01*
X145604000Y-107002250D01*
X145604000Y-106514750D01*
X145605174Y-106490858D01*
X145608684Y-106467197D01*
X145614496Y-106443993D01*
X145622554Y-106421471D01*
X145632782Y-106399847D01*
X145645079Y-106379330D01*
X145659329Y-106360117D01*
X145675393Y-106342393D01*
X145693117Y-106326329D01*
X145712330Y-106312079D01*
X145732847Y-106299782D01*
X145754471Y-106289554D01*
X145776993Y-106281496D01*
X145800197Y-106275684D01*
X145823858Y-106272174D01*
X145847750Y-106271000D01*
X146760250Y-106271000D01*
X146784142Y-106272174D01*
G37*
G36*
X146784142Y-108147174D02*
G01*
X146807803Y-108150684D01*
X146831007Y-108156496D01*
X146853529Y-108164554D01*
X146875153Y-108174782D01*
X146895670Y-108187079D01*
X146914883Y-108201329D01*
X146932607Y-108217393D01*
X146948671Y-108235117D01*
X146962921Y-108254330D01*
X146975218Y-108274847D01*
X146985446Y-108296471D01*
X146993504Y-108318993D01*
X146999316Y-108342197D01*
X147002826Y-108365858D01*
X147004000Y-108389750D01*
X147004000Y-108877250D01*
X147002826Y-108901142D01*
X146999316Y-108924803D01*
X146993504Y-108948007D01*
X146985446Y-108970529D01*
X146975218Y-108992153D01*
X146962921Y-109012670D01*
X146948671Y-109031883D01*
X146932607Y-109049607D01*
X146914883Y-109065671D01*
X146895670Y-109079921D01*
X146875153Y-109092218D01*
X146853529Y-109102446D01*
X146831007Y-109110504D01*
X146807803Y-109116316D01*
X146784142Y-109119826D01*
X146760250Y-109121000D01*
X145847750Y-109121000D01*
X145823858Y-109119826D01*
X145800197Y-109116316D01*
X145776993Y-109110504D01*
X145754471Y-109102446D01*
X145732847Y-109092218D01*
X145712330Y-109079921D01*
X145693117Y-109065671D01*
X145675393Y-109049607D01*
X145659329Y-109031883D01*
X145645079Y-109012670D01*
X145632782Y-108992153D01*
X145622554Y-108970529D01*
X145614496Y-108948007D01*
X145608684Y-108924803D01*
X145605174Y-108901142D01*
X145604000Y-108877250D01*
X145604000Y-108389750D01*
X145605174Y-108365858D01*
X145608684Y-108342197D01*
X145614496Y-108318993D01*
X145622554Y-108296471D01*
X145632782Y-108274847D01*
X145645079Y-108254330D01*
X145659329Y-108235117D01*
X145675393Y-108217393D01*
X145693117Y-108201329D01*
X145712330Y-108187079D01*
X145732847Y-108174782D01*
X145754471Y-108164554D01*
X145776993Y-108156496D01*
X145800197Y-108150684D01*
X145823858Y-108147174D01*
X145847750Y-108146000D01*
X146760250Y-108146000D01*
X146784142Y-108147174D01*
G37*
G36*
X160805691Y-101900053D02*
G01*
X160826926Y-101903203D01*
X160847750Y-101908419D01*
X160867962Y-101915651D01*
X160887368Y-101924830D01*
X160905781Y-101935866D01*
X160923024Y-101948654D01*
X160938930Y-101963070D01*
X160953346Y-101978976D01*
X160966134Y-101996219D01*
X160977170Y-102014632D01*
X160986349Y-102034038D01*
X160993581Y-102054250D01*
X160998797Y-102075074D01*
X161001947Y-102096309D01*
X161003000Y-102117750D01*
X161003000Y-102555250D01*
X161001947Y-102576691D01*
X160998797Y-102597926D01*
X160993581Y-102618750D01*
X160986349Y-102638962D01*
X160977170Y-102658368D01*
X160966134Y-102676781D01*
X160953346Y-102694024D01*
X160938930Y-102709930D01*
X160923024Y-102724346D01*
X160905781Y-102737134D01*
X160887368Y-102748170D01*
X160867962Y-102757349D01*
X160847750Y-102764581D01*
X160826926Y-102769797D01*
X160805691Y-102772947D01*
X160784250Y-102774000D01*
X160271750Y-102774000D01*
X160250309Y-102772947D01*
X160229074Y-102769797D01*
X160208250Y-102764581D01*
X160188038Y-102757349D01*
X160168632Y-102748170D01*
X160150219Y-102737134D01*
X160132976Y-102724346D01*
X160117070Y-102709930D01*
X160102654Y-102694024D01*
X160089866Y-102676781D01*
X160078830Y-102658368D01*
X160069651Y-102638962D01*
X160062419Y-102618750D01*
X160057203Y-102597926D01*
X160054053Y-102576691D01*
X160053000Y-102555250D01*
X160053000Y-102117750D01*
X160054053Y-102096309D01*
X160057203Y-102075074D01*
X160062419Y-102054250D01*
X160069651Y-102034038D01*
X160078830Y-102014632D01*
X160089866Y-101996219D01*
X160102654Y-101978976D01*
X160117070Y-101963070D01*
X160132976Y-101948654D01*
X160150219Y-101935866D01*
X160168632Y-101924830D01*
X160188038Y-101915651D01*
X160208250Y-101908419D01*
X160229074Y-101903203D01*
X160250309Y-101900053D01*
X160271750Y-101899000D01*
X160784250Y-101899000D01*
X160805691Y-101900053D01*
G37*
G36*
X160805691Y-103475053D02*
G01*
X160826926Y-103478203D01*
X160847750Y-103483419D01*
X160867962Y-103490651D01*
X160887368Y-103499830D01*
X160905781Y-103510866D01*
X160923024Y-103523654D01*
X160938930Y-103538070D01*
X160953346Y-103553976D01*
X160966134Y-103571219D01*
X160977170Y-103589632D01*
X160986349Y-103609038D01*
X160993581Y-103629250D01*
X160998797Y-103650074D01*
X161001947Y-103671309D01*
X161003000Y-103692750D01*
X161003000Y-104130250D01*
X161001947Y-104151691D01*
X160998797Y-104172926D01*
X160993581Y-104193750D01*
X160986349Y-104213962D01*
X160977170Y-104233368D01*
X160966134Y-104251781D01*
X160953346Y-104269024D01*
X160938930Y-104284930D01*
X160923024Y-104299346D01*
X160905781Y-104312134D01*
X160887368Y-104323170D01*
X160867962Y-104332349D01*
X160847750Y-104339581D01*
X160826926Y-104344797D01*
X160805691Y-104347947D01*
X160784250Y-104349000D01*
X160271750Y-104349000D01*
X160250309Y-104347947D01*
X160229074Y-104344797D01*
X160208250Y-104339581D01*
X160188038Y-104332349D01*
X160168632Y-104323170D01*
X160150219Y-104312134D01*
X160132976Y-104299346D01*
X160117070Y-104284930D01*
X160102654Y-104269024D01*
X160089866Y-104251781D01*
X160078830Y-104233368D01*
X160069651Y-104213962D01*
X160062419Y-104193750D01*
X160057203Y-104172926D01*
X160054053Y-104151691D01*
X160053000Y-104130250D01*
X160053000Y-103692750D01*
X160054053Y-103671309D01*
X160057203Y-103650074D01*
X160062419Y-103629250D01*
X160069651Y-103609038D01*
X160078830Y-103589632D01*
X160089866Y-103571219D01*
X160102654Y-103553976D01*
X160117070Y-103538070D01*
X160132976Y-103523654D01*
X160150219Y-103510866D01*
X160168632Y-103499830D01*
X160188038Y-103490651D01*
X160208250Y-103483419D01*
X160229074Y-103478203D01*
X160250309Y-103475053D01*
X160271750Y-103474000D01*
X160784250Y-103474000D01*
X160805691Y-103475053D01*
G37*
G36*
X166393691Y-103475053D02*
G01*
X166414926Y-103478203D01*
X166435750Y-103483419D01*
X166455962Y-103490651D01*
X166475368Y-103499830D01*
X166493781Y-103510866D01*
X166511024Y-103523654D01*
X166526930Y-103538070D01*
X166541346Y-103553976D01*
X166554134Y-103571219D01*
X166565170Y-103589632D01*
X166574349Y-103609038D01*
X166581581Y-103629250D01*
X166586797Y-103650074D01*
X166589947Y-103671309D01*
X166591000Y-103692750D01*
X166591000Y-104130250D01*
X166589947Y-104151691D01*
X166586797Y-104172926D01*
X166581581Y-104193750D01*
X166574349Y-104213962D01*
X166565170Y-104233368D01*
X166554134Y-104251781D01*
X166541346Y-104269024D01*
X166526930Y-104284930D01*
X166511024Y-104299346D01*
X166493781Y-104312134D01*
X166475368Y-104323170D01*
X166455962Y-104332349D01*
X166435750Y-104339581D01*
X166414926Y-104344797D01*
X166393691Y-104347947D01*
X166372250Y-104349000D01*
X165859750Y-104349000D01*
X165838309Y-104347947D01*
X165817074Y-104344797D01*
X165796250Y-104339581D01*
X165776038Y-104332349D01*
X165756632Y-104323170D01*
X165738219Y-104312134D01*
X165720976Y-104299346D01*
X165705070Y-104284930D01*
X165690654Y-104269024D01*
X165677866Y-104251781D01*
X165666830Y-104233368D01*
X165657651Y-104213962D01*
X165650419Y-104193750D01*
X165645203Y-104172926D01*
X165642053Y-104151691D01*
X165641000Y-104130250D01*
X165641000Y-103692750D01*
X165642053Y-103671309D01*
X165645203Y-103650074D01*
X165650419Y-103629250D01*
X165657651Y-103609038D01*
X165666830Y-103589632D01*
X165677866Y-103571219D01*
X165690654Y-103553976D01*
X165705070Y-103538070D01*
X165720976Y-103523654D01*
X165738219Y-103510866D01*
X165756632Y-103499830D01*
X165776038Y-103490651D01*
X165796250Y-103483419D01*
X165817074Y-103478203D01*
X165838309Y-103475053D01*
X165859750Y-103474000D01*
X166372250Y-103474000D01*
X166393691Y-103475053D01*
G37*
G36*
X166393691Y-101900053D02*
G01*
X166414926Y-101903203D01*
X166435750Y-101908419D01*
X166455962Y-101915651D01*
X166475368Y-101924830D01*
X166493781Y-101935866D01*
X166511024Y-101948654D01*
X166526930Y-101963070D01*
X166541346Y-101978976D01*
X166554134Y-101996219D01*
X166565170Y-102014632D01*
X166574349Y-102034038D01*
X166581581Y-102054250D01*
X166586797Y-102075074D01*
X166589947Y-102096309D01*
X166591000Y-102117750D01*
X166591000Y-102555250D01*
X166589947Y-102576691D01*
X166586797Y-102597926D01*
X166581581Y-102618750D01*
X166574349Y-102638962D01*
X166565170Y-102658368D01*
X166554134Y-102676781D01*
X166541346Y-102694024D01*
X166526930Y-102709930D01*
X166511024Y-102724346D01*
X166493781Y-102737134D01*
X166475368Y-102748170D01*
X166455962Y-102757349D01*
X166435750Y-102764581D01*
X166414926Y-102769797D01*
X166393691Y-102772947D01*
X166372250Y-102774000D01*
X165859750Y-102774000D01*
X165838309Y-102772947D01*
X165817074Y-102769797D01*
X165796250Y-102764581D01*
X165776038Y-102757349D01*
X165756632Y-102748170D01*
X165738219Y-102737134D01*
X165720976Y-102724346D01*
X165705070Y-102709930D01*
X165690654Y-102694024D01*
X165677866Y-102676781D01*
X165666830Y-102658368D01*
X165657651Y-102638962D01*
X165650419Y-102618750D01*
X165645203Y-102597926D01*
X165642053Y-102576691D01*
X165641000Y-102555250D01*
X165641000Y-102117750D01*
X165642053Y-102096309D01*
X165645203Y-102075074D01*
X165650419Y-102054250D01*
X165657651Y-102034038D01*
X165666830Y-102014632D01*
X165677866Y-101996219D01*
X165690654Y-101978976D01*
X165705070Y-101963070D01*
X165720976Y-101948654D01*
X165738219Y-101935866D01*
X165756632Y-101924830D01*
X165776038Y-101915651D01*
X165796250Y-101908419D01*
X165817074Y-101903203D01*
X165838309Y-101900053D01*
X165859750Y-101899000D01*
X166372250Y-101899000D01*
X166393691Y-101900053D01*
G37*
M02*
