G04 #@! TF.GenerationSoftware,KiCad,Pcbnew,(5.1.6)-1*
G04 #@! TF.CreationDate,2020-08-30T12:06:01+10:00*
G04 #@! TF.ProjectId,ESP32-S2-Breakout,45535033-322d-4533-922d-427265616b6f,rev?*
G04 #@! TF.SameCoordinates,Original*
G04 #@! TF.FileFunction,Copper,L1,Top*
G04 #@! TF.FilePolarity,Positive*
%FSLAX46Y46*%
G04 Gerber Fmt 4.6, Leading zero omitted, Abs format (unit mm)*
G04 Created by KiCad (PCBNEW (5.1.6)-1) date 2020-08-30 12:06:01*
%MOMM*%
%LPD*%
G01*
G04 APERTURE LIST*
G04 #@! TA.AperFunction,EtchedComponent*
%ADD10C,0.200000*%
G04 #@! TD*
G04 #@! TA.AperFunction,SMDPad,CuDef*
%ADD11R,1.060000X0.650000*%
G04 #@! TD*
G04 #@! TA.AperFunction,ComponentPad*
%ADD12O,1.700000X1.700000*%
G04 #@! TD*
G04 #@! TA.AperFunction,ComponentPad*
%ADD13R,1.700000X1.700000*%
G04 #@! TD*
G04 #@! TA.AperFunction,SMDPad,CuDef*
%ADD14C,0.100000*%
G04 #@! TD*
G04 #@! TA.AperFunction,SMDPad,CuDef*
%ADD15R,0.900000X1.500000*%
G04 #@! TD*
G04 #@! TA.AperFunction,SMDPad,CuDef*
%ADD16R,1.500000X0.900000*%
G04 #@! TD*
G04 #@! TA.AperFunction,SMDPad,CuDef*
%ADD17R,1.100000X1.100000*%
G04 #@! TD*
G04 #@! TA.AperFunction,SMDPad,CuDef*
%ADD18R,1.800000X1.000000*%
G04 #@! TD*
G04 #@! TA.AperFunction,SMDPad,CuDef*
%ADD19R,1.900000X1.200000*%
G04 #@! TD*
G04 #@! TA.AperFunction,ComponentPad*
%ADD20O,1.900000X1.200000*%
G04 #@! TD*
G04 #@! TA.AperFunction,SMDPad,CuDef*
%ADD21R,1.900000X1.500000*%
G04 #@! TD*
G04 #@! TA.AperFunction,ComponentPad*
%ADD22C,1.450000*%
G04 #@! TD*
G04 #@! TA.AperFunction,SMDPad,CuDef*
%ADD23R,1.350000X0.400000*%
G04 #@! TD*
G04 #@! TA.AperFunction,ViaPad*
%ADD24C,0.600000*%
G04 #@! TD*
G04 #@! TA.AperFunction,Conductor*
%ADD25C,0.203200*%
G04 #@! TD*
G04 #@! TA.AperFunction,Conductor*
%ADD26C,0.304800*%
G04 #@! TD*
G04 #@! TA.AperFunction,Conductor*
%ADD27C,0.200000*%
G04 #@! TD*
G04 #@! TA.AperFunction,Conductor*
%ADD28C,0.254000*%
G04 #@! TD*
G04 APERTURE END LIST*
D10*
G36*
X163199000Y-96693000D02*
G01*
X163699000Y-96693000D01*
X163699000Y-96093000D01*
X163199000Y-96093000D01*
X163199000Y-96693000D01*
G37*
X163199000Y-96693000D02*
X163699000Y-96693000D01*
X163699000Y-96093000D01*
X163199000Y-96093000D01*
X163199000Y-96693000D01*
D11*
X168191000Y-99377500D03*
X168191000Y-100327500D03*
X168191000Y-98427500D03*
X170391000Y-98427500D03*
X170391000Y-99377500D03*
X170391000Y-100327500D03*
G04 #@! TA.AperFunction,SMDPad,CuDef*
G36*
G01*
X168841000Y-101778750D02*
X168841000Y-102691250D01*
G75*
G02*
X168597250Y-102935000I-243750J0D01*
G01*
X168109750Y-102935000D01*
G75*
G02*
X167866000Y-102691250I0J243750D01*
G01*
X167866000Y-101778750D01*
G75*
G02*
X168109750Y-101535000I243750J0D01*
G01*
X168597250Y-101535000D01*
G75*
G02*
X168841000Y-101778750I0J-243750D01*
G01*
G37*
G04 #@! TD.AperFunction*
G04 #@! TA.AperFunction,SMDPad,CuDef*
G36*
G01*
X170716000Y-101778750D02*
X170716000Y-102691250D01*
G75*
G02*
X170472250Y-102935000I-243750J0D01*
G01*
X169984750Y-102935000D01*
G75*
G02*
X169741000Y-102691250I0J243750D01*
G01*
X169741000Y-101778750D01*
G75*
G02*
X169984750Y-101535000I243750J0D01*
G01*
X170472250Y-101535000D01*
G75*
G02*
X170716000Y-101778750I0J-243750D01*
G01*
G37*
G04 #@! TD.AperFunction*
G04 #@! TA.AperFunction,SMDPad,CuDef*
G36*
G01*
X163899000Y-94563250D02*
X163899000Y-93650750D01*
G75*
G02*
X164142750Y-93407000I243750J0D01*
G01*
X164630250Y-93407000D01*
G75*
G02*
X164874000Y-93650750I0J-243750D01*
G01*
X164874000Y-94563250D01*
G75*
G02*
X164630250Y-94807000I-243750J0D01*
G01*
X164142750Y-94807000D01*
G75*
G02*
X163899000Y-94563250I0J243750D01*
G01*
G37*
G04 #@! TD.AperFunction*
G04 #@! TA.AperFunction,SMDPad,CuDef*
G36*
G01*
X162024000Y-94563250D02*
X162024000Y-93650750D01*
G75*
G02*
X162267750Y-93407000I243750J0D01*
G01*
X162755250Y-93407000D01*
G75*
G02*
X162999000Y-93650750I0J-243750D01*
G01*
X162999000Y-94563250D01*
G75*
G02*
X162755250Y-94807000I-243750J0D01*
G01*
X162267750Y-94807000D01*
G75*
G02*
X162024000Y-94563250I0J243750D01*
G01*
G37*
G04 #@! TD.AperFunction*
G04 #@! TA.AperFunction,SMDPad,CuDef*
G36*
G01*
X144838000Y-91745750D02*
X144838000Y-92658250D01*
G75*
G02*
X144594250Y-92902000I-243750J0D01*
G01*
X144106750Y-92902000D01*
G75*
G02*
X143863000Y-92658250I0J243750D01*
G01*
X143863000Y-91745750D01*
G75*
G02*
X144106750Y-91502000I243750J0D01*
G01*
X144594250Y-91502000D01*
G75*
G02*
X144838000Y-91745750I0J-243750D01*
G01*
G37*
G04 #@! TD.AperFunction*
G04 #@! TA.AperFunction,SMDPad,CuDef*
G36*
G01*
X146713000Y-91745750D02*
X146713000Y-92658250D01*
G75*
G02*
X146469250Y-92902000I-243750J0D01*
G01*
X145981750Y-92902000D01*
G75*
G02*
X145738000Y-92658250I0J243750D01*
G01*
X145738000Y-91745750D01*
G75*
G02*
X145981750Y-91502000I243750J0D01*
G01*
X146469250Y-91502000D01*
G75*
G02*
X146713000Y-91745750I0J-243750D01*
G01*
G37*
G04 #@! TD.AperFunction*
G04 #@! TA.AperFunction,SMDPad,CuDef*
G36*
G01*
X144838000Y-97841750D02*
X144838000Y-98754250D01*
G75*
G02*
X144594250Y-98998000I-243750J0D01*
G01*
X144106750Y-98998000D01*
G75*
G02*
X143863000Y-98754250I0J243750D01*
G01*
X143863000Y-97841750D01*
G75*
G02*
X144106750Y-97598000I243750J0D01*
G01*
X144594250Y-97598000D01*
G75*
G02*
X144838000Y-97841750I0J-243750D01*
G01*
G37*
G04 #@! TD.AperFunction*
G04 #@! TA.AperFunction,SMDPad,CuDef*
G36*
G01*
X146713000Y-97841750D02*
X146713000Y-98754250D01*
G75*
G02*
X146469250Y-98998000I-243750J0D01*
G01*
X145981750Y-98998000D01*
G75*
G02*
X145738000Y-98754250I0J243750D01*
G01*
X145738000Y-97841750D01*
G75*
G02*
X145981750Y-97598000I243750J0D01*
G01*
X146469250Y-97598000D01*
G75*
G02*
X146713000Y-97841750I0J-243750D01*
G01*
G37*
G04 #@! TD.AperFunction*
G04 #@! TA.AperFunction,SMDPad,CuDef*
G36*
G01*
X144838000Y-95936750D02*
X144838000Y-96849250D01*
G75*
G02*
X144594250Y-97093000I-243750J0D01*
G01*
X144106750Y-97093000D01*
G75*
G02*
X143863000Y-96849250I0J243750D01*
G01*
X143863000Y-95936750D01*
G75*
G02*
X144106750Y-95693000I243750J0D01*
G01*
X144594250Y-95693000D01*
G75*
G02*
X144838000Y-95936750I0J-243750D01*
G01*
G37*
G04 #@! TD.AperFunction*
G04 #@! TA.AperFunction,SMDPad,CuDef*
G36*
G01*
X146713000Y-95936750D02*
X146713000Y-96849250D01*
G75*
G02*
X146469250Y-97093000I-243750J0D01*
G01*
X145981750Y-97093000D01*
G75*
G02*
X145738000Y-96849250I0J243750D01*
G01*
X145738000Y-95936750D01*
G75*
G02*
X145981750Y-95693000I243750J0D01*
G01*
X146469250Y-95693000D01*
G75*
G02*
X146713000Y-95936750I0J-243750D01*
G01*
G37*
G04 #@! TD.AperFunction*
G04 #@! TA.AperFunction,SMDPad,CuDef*
G36*
G01*
X161191000Y-93650750D02*
X161191000Y-94563250D01*
G75*
G02*
X160947250Y-94807000I-243750J0D01*
G01*
X160459750Y-94807000D01*
G75*
G02*
X160216000Y-94563250I0J243750D01*
G01*
X160216000Y-93650750D01*
G75*
G02*
X160459750Y-93407000I243750J0D01*
G01*
X160947250Y-93407000D01*
G75*
G02*
X161191000Y-93650750I0J-243750D01*
G01*
G37*
G04 #@! TD.AperFunction*
G04 #@! TA.AperFunction,SMDPad,CuDef*
G36*
G01*
X159316000Y-93650750D02*
X159316000Y-94563250D01*
G75*
G02*
X159072250Y-94807000I-243750J0D01*
G01*
X158584750Y-94807000D01*
G75*
G02*
X158341000Y-94563250I0J243750D01*
G01*
X158341000Y-93650750D01*
G75*
G02*
X158584750Y-93407000I243750J0D01*
G01*
X159072250Y-93407000D01*
G75*
G02*
X159316000Y-93650750I0J-243750D01*
G01*
G37*
G04 #@! TD.AperFunction*
G04 #@! TA.AperFunction,SMDPad,CuDef*
G36*
G01*
X158039750Y-101699000D02*
X158952250Y-101699000D01*
G75*
G02*
X159196000Y-101942750I0J-243750D01*
G01*
X159196000Y-102430250D01*
G75*
G02*
X158952250Y-102674000I-243750J0D01*
G01*
X158039750Y-102674000D01*
G75*
G02*
X157796000Y-102430250I0J243750D01*
G01*
X157796000Y-101942750D01*
G75*
G02*
X158039750Y-101699000I243750J0D01*
G01*
G37*
G04 #@! TD.AperFunction*
G04 #@! TA.AperFunction,SMDPad,CuDef*
G36*
G01*
X158039750Y-103574000D02*
X158952250Y-103574000D01*
G75*
G02*
X159196000Y-103817750I0J-243750D01*
G01*
X159196000Y-104305250D01*
G75*
G02*
X158952250Y-104549000I-243750J0D01*
G01*
X158039750Y-104549000D01*
G75*
G02*
X157796000Y-104305250I0J243750D01*
G01*
X157796000Y-103817750D01*
G75*
G02*
X158039750Y-103574000I243750J0D01*
G01*
G37*
G04 #@! TD.AperFunction*
G04 #@! TA.AperFunction,SMDPad,CuDef*
G36*
G01*
X145738000Y-102881750D02*
X145738000Y-101969250D01*
G75*
G02*
X145981750Y-101725500I243750J0D01*
G01*
X146469250Y-101725500D01*
G75*
G02*
X146713000Y-101969250I0J-243750D01*
G01*
X146713000Y-102881750D01*
G75*
G02*
X146469250Y-103125500I-243750J0D01*
G01*
X145981750Y-103125500D01*
G75*
G02*
X145738000Y-102881750I0J243750D01*
G01*
G37*
G04 #@! TD.AperFunction*
G04 #@! TA.AperFunction,SMDPad,CuDef*
G36*
G01*
X143863000Y-102881750D02*
X143863000Y-101969250D01*
G75*
G02*
X144106750Y-101725500I243750J0D01*
G01*
X144594250Y-101725500D01*
G75*
G02*
X144838000Y-101969250I0J-243750D01*
G01*
X144838000Y-102881750D01*
G75*
G02*
X144594250Y-103125500I-243750J0D01*
G01*
X144106750Y-103125500D01*
G75*
G02*
X143863000Y-102881750I0J243750D01*
G01*
G37*
G04 #@! TD.AperFunction*
G04 #@! TA.AperFunction,SMDPad,CuDef*
G36*
G01*
X144838000Y-103874250D02*
X144838000Y-104786750D01*
G75*
G02*
X144594250Y-105030500I-243750J0D01*
G01*
X144106750Y-105030500D01*
G75*
G02*
X143863000Y-104786750I0J243750D01*
G01*
X143863000Y-103874250D01*
G75*
G02*
X144106750Y-103630500I243750J0D01*
G01*
X144594250Y-103630500D01*
G75*
G02*
X144838000Y-103874250I0J-243750D01*
G01*
G37*
G04 #@! TD.AperFunction*
G04 #@! TA.AperFunction,SMDPad,CuDef*
G36*
G01*
X146713000Y-103874250D02*
X146713000Y-104786750D01*
G75*
G02*
X146469250Y-105030500I-243750J0D01*
G01*
X145981750Y-105030500D01*
G75*
G02*
X145738000Y-104786750I0J243750D01*
G01*
X145738000Y-103874250D01*
G75*
G02*
X145981750Y-103630500I243750J0D01*
G01*
X146469250Y-103630500D01*
G75*
G02*
X146713000Y-103874250I0J-243750D01*
G01*
G37*
G04 #@! TD.AperFunction*
G04 #@! TA.AperFunction,SMDPad,CuDef*
G36*
G01*
X147498750Y-103828000D02*
X148411250Y-103828000D01*
G75*
G02*
X148655000Y-104071750I0J-243750D01*
G01*
X148655000Y-104559250D01*
G75*
G02*
X148411250Y-104803000I-243750J0D01*
G01*
X147498750Y-104803000D01*
G75*
G02*
X147255000Y-104559250I0J243750D01*
G01*
X147255000Y-104071750D01*
G75*
G02*
X147498750Y-103828000I243750J0D01*
G01*
G37*
G04 #@! TD.AperFunction*
G04 #@! TA.AperFunction,SMDPad,CuDef*
G36*
G01*
X147498750Y-101953000D02*
X148411250Y-101953000D01*
G75*
G02*
X148655000Y-102196750I0J-243750D01*
G01*
X148655000Y-102684250D01*
G75*
G02*
X148411250Y-102928000I-243750J0D01*
G01*
X147498750Y-102928000D01*
G75*
G02*
X147255000Y-102684250I0J243750D01*
G01*
X147255000Y-102196750D01*
G75*
G02*
X147498750Y-101953000I243750J0D01*
G01*
G37*
G04 #@! TD.AperFunction*
G04 #@! TA.AperFunction,SMDPad,CuDef*
G36*
G01*
X169741000Y-104596250D02*
X169741000Y-103683750D01*
G75*
G02*
X169984750Y-103440000I243750J0D01*
G01*
X170472250Y-103440000D01*
G75*
G02*
X170716000Y-103683750I0J-243750D01*
G01*
X170716000Y-104596250D01*
G75*
G02*
X170472250Y-104840000I-243750J0D01*
G01*
X169984750Y-104840000D01*
G75*
G02*
X169741000Y-104596250I0J243750D01*
G01*
G37*
G04 #@! TD.AperFunction*
G04 #@! TA.AperFunction,SMDPad,CuDef*
G36*
G01*
X167866000Y-104596250D02*
X167866000Y-103683750D01*
G75*
G02*
X168109750Y-103440000I243750J0D01*
G01*
X168597250Y-103440000D01*
G75*
G02*
X168841000Y-103683750I0J-243750D01*
G01*
X168841000Y-104596250D01*
G75*
G02*
X168597250Y-104840000I-243750J0D01*
G01*
X168109750Y-104840000D01*
G75*
G02*
X167866000Y-104596250I0J243750D01*
G01*
G37*
G04 #@! TD.AperFunction*
G04 #@! TA.AperFunction,SMDPad,CuDef*
G36*
G01*
X169741000Y-96976250D02*
X169741000Y-96063750D01*
G75*
G02*
X169984750Y-95820000I243750J0D01*
G01*
X170472250Y-95820000D01*
G75*
G02*
X170716000Y-96063750I0J-243750D01*
G01*
X170716000Y-96976250D01*
G75*
G02*
X170472250Y-97220000I-243750J0D01*
G01*
X169984750Y-97220000D01*
G75*
G02*
X169741000Y-96976250I0J243750D01*
G01*
G37*
G04 #@! TD.AperFunction*
G04 #@! TA.AperFunction,SMDPad,CuDef*
G36*
G01*
X167866000Y-96976250D02*
X167866000Y-96063750D01*
G75*
G02*
X168109750Y-95820000I243750J0D01*
G01*
X168597250Y-95820000D01*
G75*
G02*
X168841000Y-96063750I0J-243750D01*
G01*
X168841000Y-96976250D01*
G75*
G02*
X168597250Y-97220000I-243750J0D01*
G01*
X168109750Y-97220000D01*
G75*
G02*
X167866000Y-96976250I0J243750D01*
G01*
G37*
G04 #@! TD.AperFunction*
G04 #@! TA.AperFunction,SMDPad,CuDef*
G36*
G01*
X163899000Y-92531250D02*
X163899000Y-91618750D01*
G75*
G02*
X164142750Y-91375000I243750J0D01*
G01*
X164630250Y-91375000D01*
G75*
G02*
X164874000Y-91618750I0J-243750D01*
G01*
X164874000Y-92531250D01*
G75*
G02*
X164630250Y-92775000I-243750J0D01*
G01*
X164142750Y-92775000D01*
G75*
G02*
X163899000Y-92531250I0J243750D01*
G01*
G37*
G04 #@! TD.AperFunction*
G04 #@! TA.AperFunction,SMDPad,CuDef*
G36*
G01*
X162024000Y-92531250D02*
X162024000Y-91618750D01*
G75*
G02*
X162267750Y-91375000I243750J0D01*
G01*
X162755250Y-91375000D01*
G75*
G02*
X162999000Y-91618750I0J-243750D01*
G01*
X162999000Y-92531250D01*
G75*
G02*
X162755250Y-92775000I-243750J0D01*
G01*
X162267750Y-92775000D01*
G75*
G02*
X162024000Y-92531250I0J243750D01*
G01*
G37*
G04 #@! TD.AperFunction*
G04 #@! TA.AperFunction,SMDPad,CuDef*
G36*
G01*
X160216000Y-92531250D02*
X160216000Y-91618750D01*
G75*
G02*
X160459750Y-91375000I243750J0D01*
G01*
X160947250Y-91375000D01*
G75*
G02*
X161191000Y-91618750I0J-243750D01*
G01*
X161191000Y-92531250D01*
G75*
G02*
X160947250Y-92775000I-243750J0D01*
G01*
X160459750Y-92775000D01*
G75*
G02*
X160216000Y-92531250I0J243750D01*
G01*
G37*
G04 #@! TD.AperFunction*
G04 #@! TA.AperFunction,SMDPad,CuDef*
G36*
G01*
X158341000Y-92531250D02*
X158341000Y-91618750D01*
G75*
G02*
X158584750Y-91375000I243750J0D01*
G01*
X159072250Y-91375000D01*
G75*
G02*
X159316000Y-91618750I0J-243750D01*
G01*
X159316000Y-92531250D01*
G75*
G02*
X159072250Y-92775000I-243750J0D01*
G01*
X158584750Y-92775000D01*
G75*
G02*
X158341000Y-92531250I0J243750D01*
G01*
G37*
G04 #@! TD.AperFunction*
G04 #@! TA.AperFunction,SMDPad,CuDef*
G36*
G01*
X153485000Y-102564250D02*
X153485000Y-101651750D01*
G75*
G02*
X153728750Y-101408000I243750J0D01*
G01*
X154216250Y-101408000D01*
G75*
G02*
X154460000Y-101651750I0J-243750D01*
G01*
X154460000Y-102564250D01*
G75*
G02*
X154216250Y-102808000I-243750J0D01*
G01*
X153728750Y-102808000D01*
G75*
G02*
X153485000Y-102564250I0J243750D01*
G01*
G37*
G04 #@! TD.AperFunction*
G04 #@! TA.AperFunction,SMDPad,CuDef*
G36*
G01*
X151610000Y-102564250D02*
X151610000Y-101651750D01*
G75*
G02*
X151853750Y-101408000I243750J0D01*
G01*
X152341250Y-101408000D01*
G75*
G02*
X152585000Y-101651750I0J-243750D01*
G01*
X152585000Y-102564250D01*
G75*
G02*
X152341250Y-102808000I-243750J0D01*
G01*
X151853750Y-102808000D01*
G75*
G02*
X151610000Y-102564250I0J243750D01*
G01*
G37*
G04 #@! TD.AperFunction*
G04 #@! TA.AperFunction,SMDPad,CuDef*
G36*
G01*
X153485000Y-105104250D02*
X153485000Y-104191750D01*
G75*
G02*
X153728750Y-103948000I243750J0D01*
G01*
X154216250Y-103948000D01*
G75*
G02*
X154460000Y-104191750I0J-243750D01*
G01*
X154460000Y-105104250D01*
G75*
G02*
X154216250Y-105348000I-243750J0D01*
G01*
X153728750Y-105348000D01*
G75*
G02*
X153485000Y-105104250I0J243750D01*
G01*
G37*
G04 #@! TD.AperFunction*
G04 #@! TA.AperFunction,SMDPad,CuDef*
G36*
G01*
X151610000Y-105104250D02*
X151610000Y-104191750D01*
G75*
G02*
X151853750Y-103948000I243750J0D01*
G01*
X152341250Y-103948000D01*
G75*
G02*
X152585000Y-104191750I0J-243750D01*
G01*
X152585000Y-105104250D01*
G75*
G02*
X152341250Y-105348000I-243750J0D01*
G01*
X151853750Y-105348000D01*
G75*
G02*
X151610000Y-105104250I0J243750D01*
G01*
G37*
G04 #@! TD.AperFunction*
G04 #@! TA.AperFunction,SMDPad,CuDef*
G36*
G01*
X149802000Y-99516250D02*
X149802000Y-98603750D01*
G75*
G02*
X150045750Y-98360000I243750J0D01*
G01*
X150533250Y-98360000D01*
G75*
G02*
X150777000Y-98603750I0J-243750D01*
G01*
X150777000Y-99516250D01*
G75*
G02*
X150533250Y-99760000I-243750J0D01*
G01*
X150045750Y-99760000D01*
G75*
G02*
X149802000Y-99516250I0J243750D01*
G01*
G37*
G04 #@! TD.AperFunction*
G04 #@! TA.AperFunction,SMDPad,CuDef*
G36*
G01*
X147927000Y-99516250D02*
X147927000Y-98603750D01*
G75*
G02*
X148170750Y-98360000I243750J0D01*
G01*
X148658250Y-98360000D01*
G75*
G02*
X148902000Y-98603750I0J-243750D01*
G01*
X148902000Y-99516250D01*
G75*
G02*
X148658250Y-99760000I-243750J0D01*
G01*
X148170750Y-99760000D01*
G75*
G02*
X147927000Y-99516250I0J243750D01*
G01*
G37*
G04 #@! TD.AperFunction*
G04 #@! TA.AperFunction,SMDPad,CuDef*
G36*
G01*
X148902000Y-95301750D02*
X148902000Y-96214250D01*
G75*
G02*
X148658250Y-96458000I-243750J0D01*
G01*
X148170750Y-96458000D01*
G75*
G02*
X147927000Y-96214250I0J243750D01*
G01*
X147927000Y-95301750D01*
G75*
G02*
X148170750Y-95058000I243750J0D01*
G01*
X148658250Y-95058000D01*
G75*
G02*
X148902000Y-95301750I0J-243750D01*
G01*
G37*
G04 #@! TD.AperFunction*
G04 #@! TA.AperFunction,SMDPad,CuDef*
G36*
G01*
X150777000Y-95301750D02*
X150777000Y-96214250D01*
G75*
G02*
X150533250Y-96458000I-243750J0D01*
G01*
X150045750Y-96458000D01*
G75*
G02*
X149802000Y-96214250I0J243750D01*
G01*
X149802000Y-95301750D01*
G75*
G02*
X150045750Y-95058000I243750J0D01*
G01*
X150533250Y-95058000D01*
G75*
G02*
X150777000Y-95301750I0J-243750D01*
G01*
G37*
G04 #@! TD.AperFunction*
G04 #@! TA.AperFunction,SMDPad,CuDef*
G36*
G01*
X160857250Y-102674000D02*
X159944750Y-102674000D01*
G75*
G02*
X159701000Y-102430250I0J243750D01*
G01*
X159701000Y-101942750D01*
G75*
G02*
X159944750Y-101699000I243750J0D01*
G01*
X160857250Y-101699000D01*
G75*
G02*
X161101000Y-101942750I0J-243750D01*
G01*
X161101000Y-102430250D01*
G75*
G02*
X160857250Y-102674000I-243750J0D01*
G01*
G37*
G04 #@! TD.AperFunction*
G04 #@! TA.AperFunction,SMDPad,CuDef*
G36*
G01*
X160857250Y-104549000D02*
X159944750Y-104549000D01*
G75*
G02*
X159701000Y-104305250I0J243750D01*
G01*
X159701000Y-103817750D01*
G75*
G02*
X159944750Y-103574000I243750J0D01*
G01*
X160857250Y-103574000D01*
G75*
G02*
X161101000Y-103817750I0J-243750D01*
G01*
X161101000Y-104305250D01*
G75*
G02*
X160857250Y-104549000I-243750J0D01*
G01*
G37*
G04 #@! TD.AperFunction*
G04 #@! TA.AperFunction,SMDPad,CuDef*
G36*
G01*
X166699250Y-102674000D02*
X165786750Y-102674000D01*
G75*
G02*
X165543000Y-102430250I0J243750D01*
G01*
X165543000Y-101942750D01*
G75*
G02*
X165786750Y-101699000I243750J0D01*
G01*
X166699250Y-101699000D01*
G75*
G02*
X166943000Y-101942750I0J-243750D01*
G01*
X166943000Y-102430250D01*
G75*
G02*
X166699250Y-102674000I-243750J0D01*
G01*
G37*
G04 #@! TD.AperFunction*
G04 #@! TA.AperFunction,SMDPad,CuDef*
G36*
G01*
X166699250Y-104549000D02*
X165786750Y-104549000D01*
G75*
G02*
X165543000Y-104305250I0J243750D01*
G01*
X165543000Y-103817750D01*
G75*
G02*
X165786750Y-103574000I243750J0D01*
G01*
X166699250Y-103574000D01*
G75*
G02*
X166943000Y-103817750I0J-243750D01*
G01*
X166943000Y-104305250D01*
G75*
G02*
X166699250Y-104549000I-243750J0D01*
G01*
G37*
G04 #@! TD.AperFunction*
G04 #@! TA.AperFunction,SMDPad,CuDef*
G36*
G01*
X169366250Y-106865000D02*
X168453750Y-106865000D01*
G75*
G02*
X168210000Y-106621250I0J243750D01*
G01*
X168210000Y-106133750D01*
G75*
G02*
X168453750Y-105890000I243750J0D01*
G01*
X169366250Y-105890000D01*
G75*
G02*
X169610000Y-106133750I0J-243750D01*
G01*
X169610000Y-106621250D01*
G75*
G02*
X169366250Y-106865000I-243750J0D01*
G01*
G37*
G04 #@! TD.AperFunction*
G04 #@! TA.AperFunction,SMDPad,CuDef*
G36*
G01*
X169366250Y-108740000D02*
X168453750Y-108740000D01*
G75*
G02*
X168210000Y-108496250I0J243750D01*
G01*
X168210000Y-108008750D01*
G75*
G02*
X168453750Y-107765000I243750J0D01*
G01*
X169366250Y-107765000D01*
G75*
G02*
X169610000Y-108008750I0J-243750D01*
G01*
X169610000Y-108496250D01*
G75*
G02*
X169366250Y-108740000I-243750J0D01*
G01*
G37*
G04 #@! TD.AperFunction*
G04 #@! TA.AperFunction,SMDPad,CuDef*
G36*
G01*
X168453750Y-91128000D02*
X169366250Y-91128000D01*
G75*
G02*
X169610000Y-91371750I0J-243750D01*
G01*
X169610000Y-91859250D01*
G75*
G02*
X169366250Y-92103000I-243750J0D01*
G01*
X168453750Y-92103000D01*
G75*
G02*
X168210000Y-91859250I0J243750D01*
G01*
X168210000Y-91371750D01*
G75*
G02*
X168453750Y-91128000I243750J0D01*
G01*
G37*
G04 #@! TD.AperFunction*
G04 #@! TA.AperFunction,SMDPad,CuDef*
G36*
G01*
X168453750Y-89253000D02*
X169366250Y-89253000D01*
G75*
G02*
X169610000Y-89496750I0J-243750D01*
G01*
X169610000Y-89984250D01*
G75*
G02*
X169366250Y-90228000I-243750J0D01*
G01*
X168453750Y-90228000D01*
G75*
G02*
X168210000Y-89984250I0J243750D01*
G01*
X168210000Y-89496750D01*
G75*
G02*
X168453750Y-89253000I243750J0D01*
G01*
G37*
G04 #@! TD.AperFunction*
G04 #@! TA.AperFunction,SMDPad,CuDef*
G36*
G01*
X145738000Y-90753250D02*
X145738000Y-89840750D01*
G75*
G02*
X145981750Y-89597000I243750J0D01*
G01*
X146469250Y-89597000D01*
G75*
G02*
X146713000Y-89840750I0J-243750D01*
G01*
X146713000Y-90753250D01*
G75*
G02*
X146469250Y-90997000I-243750J0D01*
G01*
X145981750Y-90997000D01*
G75*
G02*
X145738000Y-90753250I0J243750D01*
G01*
G37*
G04 #@! TD.AperFunction*
G04 #@! TA.AperFunction,SMDPad,CuDef*
G36*
G01*
X143863000Y-90753250D02*
X143863000Y-89840750D01*
G75*
G02*
X144106750Y-89597000I243750J0D01*
G01*
X144594250Y-89597000D01*
G75*
G02*
X144838000Y-89840750I0J-243750D01*
G01*
X144838000Y-90753250D01*
G75*
G02*
X144594250Y-90997000I-243750J0D01*
G01*
X144106750Y-90997000D01*
G75*
G02*
X143863000Y-90753250I0J243750D01*
G01*
G37*
G04 #@! TD.AperFunction*
G04 #@! TA.AperFunction,SMDPad,CuDef*
G36*
G01*
X144982250Y-107246000D02*
X144069750Y-107246000D01*
G75*
G02*
X143826000Y-107002250I0J243750D01*
G01*
X143826000Y-106514750D01*
G75*
G02*
X144069750Y-106271000I243750J0D01*
G01*
X144982250Y-106271000D01*
G75*
G02*
X145226000Y-106514750I0J-243750D01*
G01*
X145226000Y-107002250D01*
G75*
G02*
X144982250Y-107246000I-243750J0D01*
G01*
G37*
G04 #@! TD.AperFunction*
G04 #@! TA.AperFunction,SMDPad,CuDef*
G36*
G01*
X144982250Y-109121000D02*
X144069750Y-109121000D01*
G75*
G02*
X143826000Y-108877250I0J243750D01*
G01*
X143826000Y-108389750D01*
G75*
G02*
X144069750Y-108146000I243750J0D01*
G01*
X144982250Y-108146000D01*
G75*
G02*
X145226000Y-108389750I0J-243750D01*
G01*
X145226000Y-108877250D01*
G75*
G02*
X144982250Y-109121000I-243750J0D01*
G01*
G37*
G04 #@! TD.AperFunction*
G04 #@! TA.AperFunction,SMDPad,CuDef*
G36*
G01*
X168841000Y-94158750D02*
X168841000Y-95071250D01*
G75*
G02*
X168597250Y-95315000I-243750J0D01*
G01*
X168109750Y-95315000D01*
G75*
G02*
X167866000Y-95071250I0J243750D01*
G01*
X167866000Y-94158750D01*
G75*
G02*
X168109750Y-93915000I243750J0D01*
G01*
X168597250Y-93915000D01*
G75*
G02*
X168841000Y-94158750I0J-243750D01*
G01*
G37*
G04 #@! TD.AperFunction*
G04 #@! TA.AperFunction,SMDPad,CuDef*
G36*
G01*
X170716000Y-94158750D02*
X170716000Y-95071250D01*
G75*
G02*
X170472250Y-95315000I-243750J0D01*
G01*
X169984750Y-95315000D01*
G75*
G02*
X169741000Y-95071250I0J243750D01*
G01*
X169741000Y-94158750D01*
G75*
G02*
X169984750Y-93915000I243750J0D01*
G01*
X170472250Y-93915000D01*
G75*
G02*
X170716000Y-94158750I0J-243750D01*
G01*
G37*
G04 #@! TD.AperFunction*
D12*
X175260000Y-86360000D03*
X172720000Y-86360000D03*
X170180000Y-86360000D03*
X167640000Y-86360000D03*
X165100000Y-86360000D03*
X162560000Y-86360000D03*
X160020000Y-86360000D03*
X157480000Y-86360000D03*
X154940000Y-86360000D03*
X152400000Y-86360000D03*
X149860000Y-86360000D03*
X147320000Y-86360000D03*
X144780000Y-86360000D03*
X142240000Y-86360000D03*
X139700000Y-86360000D03*
X137160000Y-86360000D03*
X134620000Y-86360000D03*
X132080000Y-86360000D03*
X129540000Y-86360000D03*
X127000000Y-86360000D03*
X124460000Y-86360000D03*
X121920000Y-86360000D03*
D13*
X119380000Y-86360000D03*
D12*
X175260000Y-111760000D03*
X172720000Y-111760000D03*
X170180000Y-111760000D03*
X167640000Y-111760000D03*
X165100000Y-111760000D03*
X162560000Y-111760000D03*
X160020000Y-111760000D03*
X157480000Y-111760000D03*
X154940000Y-111760000D03*
X152400000Y-111760000D03*
X149860000Y-111760000D03*
X147320000Y-111760000D03*
X144780000Y-111760000D03*
X142240000Y-111760000D03*
X139700000Y-111760000D03*
X137160000Y-111760000D03*
X134620000Y-111760000D03*
X132080000Y-111760000D03*
X129540000Y-111760000D03*
X127000000Y-111760000D03*
X124460000Y-111760000D03*
X121920000Y-111760000D03*
D13*
X119380000Y-111760000D03*
G04 #@! TA.AperFunction,SMDPad,CuDef*
D14*
G36*
X163599000Y-95643000D02*
G01*
X164099000Y-95643000D01*
X164099000Y-95643602D01*
X164123534Y-95643602D01*
X164172365Y-95648412D01*
X164220490Y-95657984D01*
X164267445Y-95672228D01*
X164312778Y-95691005D01*
X164356051Y-95714136D01*
X164396850Y-95741396D01*
X164434779Y-95772524D01*
X164469476Y-95807221D01*
X164500604Y-95845150D01*
X164527864Y-95885949D01*
X164550995Y-95929222D01*
X164569772Y-95974555D01*
X164584016Y-96021510D01*
X164593588Y-96069635D01*
X164598398Y-96118466D01*
X164598398Y-96143000D01*
X164599000Y-96143000D01*
X164599000Y-96643000D01*
X164598398Y-96643000D01*
X164598398Y-96667534D01*
X164593588Y-96716365D01*
X164584016Y-96764490D01*
X164569772Y-96811445D01*
X164550995Y-96856778D01*
X164527864Y-96900051D01*
X164500604Y-96940850D01*
X164469476Y-96978779D01*
X164434779Y-97013476D01*
X164396850Y-97044604D01*
X164356051Y-97071864D01*
X164312778Y-97094995D01*
X164267445Y-97113772D01*
X164220490Y-97128016D01*
X164172365Y-97137588D01*
X164123534Y-97142398D01*
X164099000Y-97142398D01*
X164099000Y-97143000D01*
X163599000Y-97143000D01*
X163599000Y-95643000D01*
G37*
G04 #@! TD.AperFunction*
G04 #@! TA.AperFunction,SMDPad,CuDef*
G36*
X162799000Y-97142398D02*
G01*
X162774466Y-97142398D01*
X162725635Y-97137588D01*
X162677510Y-97128016D01*
X162630555Y-97113772D01*
X162585222Y-97094995D01*
X162541949Y-97071864D01*
X162501150Y-97044604D01*
X162463221Y-97013476D01*
X162428524Y-96978779D01*
X162397396Y-96940850D01*
X162370136Y-96900051D01*
X162347005Y-96856778D01*
X162328228Y-96811445D01*
X162313984Y-96764490D01*
X162304412Y-96716365D01*
X162299602Y-96667534D01*
X162299602Y-96643000D01*
X162299000Y-96643000D01*
X162299000Y-96143000D01*
X162299602Y-96143000D01*
X162299602Y-96118466D01*
X162304412Y-96069635D01*
X162313984Y-96021510D01*
X162328228Y-95974555D01*
X162347005Y-95929222D01*
X162370136Y-95885949D01*
X162397396Y-95845150D01*
X162428524Y-95807221D01*
X162463221Y-95772524D01*
X162501150Y-95741396D01*
X162541949Y-95714136D01*
X162585222Y-95691005D01*
X162630555Y-95672228D01*
X162677510Y-95657984D01*
X162725635Y-95648412D01*
X162774466Y-95643602D01*
X162799000Y-95643602D01*
X162799000Y-95643000D01*
X163299000Y-95643000D01*
X163299000Y-97143000D01*
X162799000Y-97143000D01*
X162799000Y-97142398D01*
G37*
G04 #@! TD.AperFunction*
D15*
X118460000Y-107700000D03*
X119960000Y-107700000D03*
X122960000Y-107700000D03*
X121460000Y-107700000D03*
X125960000Y-107700000D03*
X124460000Y-107700000D03*
X128960000Y-107700000D03*
X127460000Y-107700000D03*
X131960000Y-107700000D03*
X130460000Y-107700000D03*
X134960000Y-107700000D03*
X133460000Y-107700000D03*
X137960000Y-107700000D03*
X136460000Y-107700000D03*
X140960000Y-107700000D03*
X139460000Y-107700000D03*
D16*
X141710000Y-105700000D03*
X141710000Y-104200000D03*
X141710000Y-101200000D03*
X141710000Y-102700000D03*
X141710000Y-98200000D03*
X141710000Y-99700000D03*
X141710000Y-95200000D03*
X141710000Y-96700000D03*
X141710000Y-92200000D03*
X141710000Y-93700000D03*
D15*
X121460000Y-90200000D03*
X122960000Y-90200000D03*
X128960000Y-90200000D03*
X131960000Y-90200000D03*
X127460000Y-90200000D03*
X124460000Y-90200000D03*
X137960000Y-90200000D03*
X125960000Y-90200000D03*
X133460000Y-90200000D03*
X139460000Y-90200000D03*
X130460000Y-90200000D03*
X136460000Y-90200000D03*
X119960000Y-90200000D03*
X140960000Y-90200000D03*
X118460000Y-90200000D03*
X134960000Y-90200000D03*
D17*
X126510000Y-100140000D03*
X125010000Y-100140000D03*
X128010000Y-100140000D03*
X128010000Y-98640000D03*
X126510000Y-98640000D03*
X125010000Y-98640000D03*
X128010000Y-101640000D03*
X126510000Y-101640000D03*
X125010000Y-101640000D03*
G04 #@! TA.AperFunction,SMDPad,CuDef*
G36*
G01*
X175220000Y-106515000D02*
X175220000Y-108115000D01*
G75*
G02*
X175020000Y-108315000I-200000J0D01*
G01*
X174620000Y-108315000D01*
G75*
G02*
X174420000Y-108115000I0J200000D01*
G01*
X174420000Y-106515000D01*
G75*
G02*
X174620000Y-106315000I200000J0D01*
G01*
X175020000Y-106315000D01*
G75*
G02*
X175220000Y-106515000I0J-200000D01*
G01*
G37*
G04 #@! TD.AperFunction*
G04 #@! TA.AperFunction,SMDPad,CuDef*
G36*
G01*
X171020000Y-106515000D02*
X171020000Y-108115000D01*
G75*
G02*
X170820000Y-108315000I-200000J0D01*
G01*
X170420000Y-108315000D01*
G75*
G02*
X170220000Y-108115000I0J200000D01*
G01*
X170220000Y-106515000D01*
G75*
G02*
X170420000Y-106315000I200000J0D01*
G01*
X170820000Y-106315000D01*
G75*
G02*
X171020000Y-106515000I0J-200000D01*
G01*
G37*
G04 #@! TD.AperFunction*
G04 #@! TA.AperFunction,SMDPad,CuDef*
G36*
G01*
X175220000Y-89878000D02*
X175220000Y-91478000D01*
G75*
G02*
X175020000Y-91678000I-200000J0D01*
G01*
X174620000Y-91678000D01*
G75*
G02*
X174420000Y-91478000I0J200000D01*
G01*
X174420000Y-89878000D01*
G75*
G02*
X174620000Y-89678000I200000J0D01*
G01*
X175020000Y-89678000D01*
G75*
G02*
X175220000Y-89878000I0J-200000D01*
G01*
G37*
G04 #@! TD.AperFunction*
G04 #@! TA.AperFunction,SMDPad,CuDef*
G36*
G01*
X171020000Y-89878000D02*
X171020000Y-91478000D01*
G75*
G02*
X170820000Y-91678000I-200000J0D01*
G01*
X170420000Y-91678000D01*
G75*
G02*
X170220000Y-91478000I0J200000D01*
G01*
X170220000Y-89878000D01*
G75*
G02*
X170420000Y-89678000I200000J0D01*
G01*
X170820000Y-89678000D01*
G75*
G02*
X171020000Y-89878000I0J-200000D01*
G01*
G37*
G04 #@! TD.AperFunction*
D18*
X150114000Y-102128000D03*
X150114000Y-104628000D03*
D11*
X162222000Y-104074000D03*
X162222000Y-102174000D03*
X164422000Y-102174000D03*
X164422000Y-103124000D03*
X164422000Y-104074000D03*
D19*
X176055000Y-101960000D03*
X176055000Y-96160000D03*
D20*
X176055000Y-95560000D03*
X176055000Y-102560000D03*
D21*
X176055000Y-100060000D03*
D22*
X173355000Y-96560000D03*
D23*
X173355000Y-99060000D03*
X173355000Y-98410000D03*
X173355000Y-97760000D03*
X173355000Y-100360000D03*
X173355000Y-99710000D03*
D22*
X173355000Y-101560000D03*
D21*
X176055000Y-98060000D03*
G04 #@! TA.AperFunction,SMDPad,CuDef*
G36*
G01*
X146887250Y-107246000D02*
X145974750Y-107246000D01*
G75*
G02*
X145731000Y-107002250I0J243750D01*
G01*
X145731000Y-106514750D01*
G75*
G02*
X145974750Y-106271000I243750J0D01*
G01*
X146887250Y-106271000D01*
G75*
G02*
X147131000Y-106514750I0J-243750D01*
G01*
X147131000Y-107002250D01*
G75*
G02*
X146887250Y-107246000I-243750J0D01*
G01*
G37*
G04 #@! TD.AperFunction*
G04 #@! TA.AperFunction,SMDPad,CuDef*
G36*
G01*
X146887250Y-109121000D02*
X145974750Y-109121000D01*
G75*
G02*
X145731000Y-108877250I0J243750D01*
G01*
X145731000Y-108389750D01*
G75*
G02*
X145974750Y-108146000I243750J0D01*
G01*
X146887250Y-108146000D01*
G75*
G02*
X147131000Y-108389750I0J-243750D01*
G01*
X147131000Y-108877250D01*
G75*
G02*
X146887250Y-109121000I-243750J0D01*
G01*
G37*
G04 #@! TD.AperFunction*
D24*
X129540000Y-97028000D03*
X123444000Y-97028000D03*
X123444000Y-103124000D03*
X129540000Y-103124000D03*
X129540000Y-98552000D03*
X129540000Y-101600000D03*
X123444000Y-101600000D03*
X123444000Y-98552000D03*
X153924000Y-103378000D03*
X124968000Y-103124000D03*
X124968000Y-97028000D03*
X126492000Y-103124000D03*
X126492000Y-97028000D03*
X128016000Y-103124000D03*
X128016000Y-97028000D03*
X173228000Y-107315000D03*
X173228000Y-90678000D03*
X149352000Y-90678000D03*
X123444000Y-100076000D03*
X129540000Y-100076000D03*
X171704000Y-97282000D03*
X147828000Y-106679996D03*
X168402000Y-93217994D03*
X166243000Y-100838000D03*
X151638000Y-95758000D03*
X151638000Y-99060000D03*
X162433000Y-90551000D03*
X157353000Y-92075000D03*
X139954000Y-92202000D03*
X160401000Y-100584000D03*
X167386000Y-106299000D03*
X167386000Y-91694000D03*
X121920000Y-93218000D03*
X153543000Y-92202000D03*
X155194008Y-94742000D03*
X158496000Y-100584000D03*
X158496000Y-98298006D03*
X156464000Y-104140000D03*
X156464000Y-105029000D03*
X156464000Y-105918000D03*
X156464000Y-106807000D03*
X156464000Y-107696000D03*
X136652000Y-106172000D03*
X135128000Y-106172000D03*
X133604000Y-106172000D03*
X132080000Y-106172000D03*
X140208000Y-98044000D03*
X140208000Y-96520000D03*
X133604000Y-91694000D03*
X132080000Y-91694000D03*
X130556000Y-91694000D03*
X129032000Y-91694000D03*
X164084000Y-100584000D03*
X164084000Y-98298000D03*
D25*
X121498000Y-108798000D02*
X124460000Y-111760000D01*
X121498000Y-107700000D02*
X121498000Y-108798000D01*
X169682500Y-108252500D02*
X170620000Y-107315000D01*
X167591500Y-108252500D02*
X169682500Y-108252500D01*
X165608000Y-113284000D02*
X166370000Y-112522000D01*
X166370000Y-109474000D02*
X167591500Y-108252500D01*
X166370000Y-112522000D02*
X166370000Y-109474000D01*
X125984000Y-113284000D02*
X165608000Y-113284000D01*
X124460000Y-111760000D02*
X125984000Y-113284000D01*
D26*
X118498000Y-87242000D02*
X119380000Y-86360000D01*
X118498000Y-90200000D02*
X118498000Y-87242000D01*
X118498000Y-110878000D02*
X119380000Y-111760000D01*
X118498000Y-107700000D02*
X118498000Y-110878000D01*
D25*
X153949500Y-102108000D02*
X153949500Y-103352500D01*
X153949500Y-103352500D02*
X153924000Y-103378000D01*
X153949500Y-104648000D02*
X153949500Y-103403500D01*
X153949500Y-103403500D02*
X153924000Y-103378000D01*
X173228000Y-107315000D02*
X174820000Y-107315000D01*
X174820000Y-90678000D02*
X173228000Y-90678000D01*
X146225500Y-90297000D02*
X146606500Y-90678000D01*
X146606500Y-90678000D02*
X149352000Y-90678000D01*
D26*
X173355000Y-97760000D02*
X172182000Y-97760000D01*
X172182000Y-97760000D02*
X171704000Y-97282000D01*
X147749496Y-106758500D02*
X147828000Y-106679996D01*
X144526000Y-106758500D02*
X147749496Y-106758500D01*
X168353500Y-96520000D02*
X168353500Y-93266494D01*
X168353500Y-93266494D02*
X168402000Y-93217994D01*
X166243000Y-102209500D02*
X166243000Y-100838000D01*
X160528000Y-102336500D02*
X160401000Y-102209500D01*
D25*
X150289500Y-95758000D02*
X151638000Y-95758000D01*
X150289500Y-99060000D02*
X151638000Y-99060000D01*
X162511500Y-90629500D02*
X162433000Y-90551000D01*
X162511500Y-92075000D02*
X162511500Y-90629500D01*
X158828500Y-92075000D02*
X157353000Y-92075000D01*
X140378264Y-92202000D02*
X139954000Y-92202000D01*
X141746000Y-92202000D02*
X140378264Y-92202000D01*
X141748000Y-92200000D02*
X141746000Y-92202000D01*
D26*
X160401000Y-102186500D02*
X160401000Y-100838000D01*
X160401000Y-100838000D02*
X160401000Y-100584000D01*
X165305500Y-103124000D02*
X166243000Y-102186500D01*
X164422000Y-103124000D02*
X165305500Y-103124000D01*
D25*
X167464500Y-106377500D02*
X167386000Y-106299000D01*
X168910000Y-106377500D02*
X167464500Y-106377500D01*
X167464500Y-91615500D02*
X167386000Y-91694000D01*
X168910000Y-91615500D02*
X167464500Y-91615500D01*
D26*
X166291500Y-102235000D02*
X166243000Y-102186500D01*
X168353500Y-102235000D02*
X166291500Y-102235000D01*
X169227500Y-97394000D02*
X168353500Y-96520000D01*
X169227500Y-98753322D02*
X169227500Y-97394000D01*
X170391000Y-99377500D02*
X169851678Y-99377500D01*
X169851678Y-99377500D02*
X169227500Y-98753322D01*
X172103500Y-100360000D02*
X170228500Y-102235000D01*
X173355000Y-100360000D02*
X172103500Y-100360000D01*
X170228500Y-102235000D02*
X170228500Y-104140000D01*
X169227500Y-101234000D02*
X170228500Y-102235000D01*
X168191000Y-99377500D02*
X168730322Y-99377500D01*
X169227500Y-99874678D02*
X169227500Y-101234000D01*
X168730322Y-99377500D02*
X169227500Y-99874678D01*
X119998000Y-109838000D02*
X121920000Y-111760000D01*
X119998000Y-107700000D02*
X119998000Y-109838000D01*
X119998000Y-106645200D02*
X121123601Y-105519599D01*
X121123601Y-105519599D02*
X121920000Y-104723200D01*
X121920000Y-104723200D02*
X121920000Y-104648004D01*
X119998000Y-107700000D02*
X119998000Y-106645200D01*
X121920000Y-104648004D02*
X121920000Y-93218000D01*
X160413500Y-104074000D02*
X160401000Y-104061500D01*
X162222000Y-104074000D02*
X160413500Y-104074000D01*
X160401000Y-105918000D02*
X160401000Y-104061500D01*
X157685500Y-108633500D02*
X160401000Y-105918000D01*
X144526000Y-108633500D02*
X157685500Y-108633500D01*
X121920000Y-104648004D02*
X137668004Y-104648004D01*
X142445500Y-106553000D02*
X144526000Y-108633500D01*
X139573000Y-106553000D02*
X142445500Y-106553000D01*
X137668004Y-104648004D02*
X139573000Y-106553000D01*
D25*
X146225500Y-92202000D02*
X153543000Y-92202000D01*
X160371000Y-104061500D02*
X160401000Y-104061500D01*
X158496000Y-102186500D02*
X160371000Y-104061500D01*
X158496000Y-102186500D02*
X158496000Y-100584000D01*
X155194008Y-94996014D02*
X158496000Y-98298006D01*
X155194008Y-94742000D02*
X155194008Y-94996014D01*
X144350500Y-92202000D02*
X144350500Y-90297000D01*
X119998000Y-89246800D02*
X121733199Y-87511601D01*
X119998000Y-91153200D02*
X119998000Y-89246800D01*
X121140401Y-92295601D02*
X119998000Y-91153200D01*
X123308399Y-87511601D02*
X124460000Y-86360000D01*
X139573000Y-91313000D02*
X138590399Y-92295601D01*
X138590399Y-92295601D02*
X121140401Y-92295601D01*
X144350500Y-90297000D02*
X143383000Y-90297000D01*
X142367000Y-91313000D02*
X139573000Y-91313000D01*
X121733199Y-87511601D02*
X123308399Y-87511601D01*
X143383000Y-90297000D02*
X142367000Y-91313000D01*
X166370000Y-85507815D02*
X166370000Y-87200500D01*
X166370000Y-87200500D02*
X168910000Y-89740500D01*
X165698185Y-84836000D02*
X166370000Y-85507815D01*
X125984000Y-84836000D02*
X165698185Y-84836000D01*
X124460000Y-86360000D02*
X125984000Y-84836000D01*
X169682500Y-89740500D02*
X170620000Y-90678000D01*
X168910000Y-89740500D02*
X169682500Y-89740500D01*
X151973500Y-104628000D02*
X151993500Y-104648000D01*
X147955000Y-104315500D02*
X148267500Y-104628000D01*
X148267500Y-104628000D02*
X151973500Y-104628000D01*
X147940000Y-104330500D02*
X147955000Y-104315500D01*
X146225500Y-104330500D02*
X147940000Y-104330500D01*
X152097500Y-102108000D02*
X151612500Y-102108000D01*
X152077500Y-102128000D02*
X152097500Y-102108000D01*
X150114000Y-102128000D02*
X152077500Y-102128000D01*
X150114000Y-102128000D02*
X149987000Y-102128000D01*
X148267500Y-102128000D02*
X150114000Y-102128000D01*
X147955000Y-102440500D02*
X148267500Y-102128000D01*
X146240500Y-102440500D02*
X147955000Y-102440500D01*
X146225500Y-102425500D02*
X146240500Y-102440500D01*
X147779500Y-96393000D02*
X148414500Y-95758000D01*
X146225500Y-96393000D02*
X147779500Y-96393000D01*
D27*
X152493200Y-97184000D02*
X149840500Y-97184000D01*
X149840500Y-97184000D02*
X148414500Y-95758000D01*
X154461700Y-99152500D02*
X152493200Y-97184000D01*
X167395999Y-98427500D02*
X166670999Y-99152500D01*
X168191000Y-98427500D02*
X167395999Y-98427500D01*
X166670999Y-99152500D02*
X154461700Y-99152500D01*
D25*
X147652500Y-98298000D02*
X148414500Y-99060000D01*
X146225500Y-98298000D02*
X147652500Y-98298000D01*
D27*
X149840500Y-97634000D02*
X148414500Y-99060000D01*
X167395999Y-100327500D02*
X166670999Y-99602500D01*
X168191000Y-100327500D02*
X167395999Y-100327500D01*
X166670999Y-99602500D02*
X154275300Y-99602500D01*
X154275300Y-99602500D02*
X152306800Y-97634000D01*
X152306800Y-97634000D02*
X149840500Y-97634000D01*
D25*
X141748000Y-99700000D02*
X143007000Y-99700000D01*
X143007000Y-99700000D02*
X143465580Y-100158580D01*
X143465580Y-100158580D02*
X155020034Y-100158582D01*
X155020034Y-100158582D02*
X156464000Y-101602548D01*
X156464000Y-101981000D02*
X156464000Y-104140000D01*
X156464000Y-101602548D02*
X156464000Y-101981000D01*
X158417500Y-104140000D02*
X158496000Y-104061500D01*
X156464000Y-104140000D02*
X158417500Y-104140000D01*
X141748000Y-101200000D02*
X142386209Y-100561791D01*
X142386209Y-100561791D02*
X154853018Y-100561792D01*
X155862399Y-104427399D02*
X156164001Y-104729001D01*
X156164001Y-104729001D02*
X156464000Y-105029000D01*
X154853018Y-100561792D02*
X155862399Y-101571173D01*
X155862399Y-101571173D02*
X155862399Y-104427399D01*
X156164001Y-105618001D02*
X156464000Y-105918000D01*
X154686002Y-100965002D02*
X155194000Y-101473000D01*
X155194000Y-104648000D02*
X156164001Y-105618001D01*
X145795998Y-100965002D02*
X154686002Y-100965002D01*
X144335500Y-102425500D02*
X145795998Y-100965002D01*
X142022500Y-102425500D02*
X144335500Y-102425500D01*
X155194000Y-101473000D02*
X155194000Y-104648000D01*
X141748000Y-102700000D02*
X142022500Y-102425500D01*
X149606000Y-106807000D02*
X156039736Y-106807000D01*
X148186789Y-105387789D02*
X149606000Y-106807000D01*
X145407789Y-105387789D02*
X148186789Y-105387789D01*
X156039736Y-106807000D02*
X156464000Y-106807000D01*
X141878500Y-104330500D02*
X144350500Y-104330500D01*
X144350500Y-104330500D02*
X145407789Y-105387789D01*
X141748000Y-104200000D02*
X141878500Y-104330500D01*
X141748000Y-105700000D02*
X141839000Y-105791000D01*
X156039736Y-107696000D02*
X156464000Y-107696000D01*
X141839000Y-105791000D02*
X147955000Y-105791000D01*
X149860000Y-107696000D02*
X156039736Y-107696000D01*
X147955000Y-105791000D02*
X149860000Y-107696000D01*
X156630001Y-110910001D02*
X157480000Y-111760000D01*
X143099979Y-109801979D02*
X155521979Y-109801979D01*
X155521979Y-109801979D02*
X156630001Y-110910001D01*
X140998000Y-107700000D02*
X143099979Y-109801979D01*
X153385189Y-110205189D02*
X154090001Y-110910001D01*
X154090001Y-110910001D02*
X154940000Y-111760000D01*
X141049989Y-110205189D02*
X153385189Y-110205189D01*
X139498000Y-108653200D02*
X141049989Y-110205189D01*
X139498000Y-107700000D02*
X139498000Y-108653200D01*
X151550001Y-110910001D02*
X152400000Y-111760000D01*
X139953199Y-110608399D02*
X151248399Y-110608399D01*
X151248399Y-110608399D02*
X151550001Y-110910001D01*
X137998000Y-108653200D02*
X139953199Y-110608399D01*
X137998000Y-107700000D02*
X137998000Y-108653200D01*
X136498000Y-106326000D02*
X136652000Y-106172000D01*
X136498000Y-107700000D02*
X136498000Y-106326000D01*
X134998000Y-106302000D02*
X135128000Y-106172000D01*
X134998000Y-107700000D02*
X134998000Y-106302000D01*
X133498000Y-106278000D02*
X133604000Y-106172000D01*
X133498000Y-107700000D02*
X133498000Y-106278000D01*
X131998000Y-106254000D02*
X132080000Y-106172000D01*
X131998000Y-107700000D02*
X131998000Y-106254000D01*
X138850001Y-110910001D02*
X139700000Y-111760000D01*
X136935559Y-108995559D02*
X138850001Y-110910001D01*
X130840359Y-108995559D02*
X136935559Y-108995559D01*
X130498000Y-108653200D02*
X130840359Y-108995559D01*
X130498000Y-107700000D02*
X130498000Y-108653200D01*
X136310001Y-110910001D02*
X137160000Y-111760000D01*
X129743569Y-109398769D02*
X134798769Y-109398769D01*
X128998000Y-108653200D02*
X129743569Y-109398769D01*
X134798769Y-109398769D02*
X136310001Y-110910001D01*
X128998000Y-107700000D02*
X128998000Y-108653200D01*
X133770001Y-110910001D02*
X134620000Y-111760000D01*
X128646779Y-109801979D02*
X132661979Y-109801979D01*
X132661979Y-109801979D02*
X133770001Y-110910001D01*
X127498000Y-108653200D02*
X128646779Y-109801979D01*
X127498000Y-107700000D02*
X127498000Y-108653200D01*
X131230001Y-110910001D02*
X132080000Y-111760000D01*
X130525189Y-110205189D02*
X131230001Y-110910001D01*
X125998000Y-108653200D02*
X127549989Y-110205189D01*
X127549989Y-110205189D02*
X130525189Y-110205189D01*
X125998000Y-107700000D02*
X125998000Y-108653200D01*
X128388399Y-110608399D02*
X128690001Y-110910001D01*
X126453199Y-110608399D02*
X128388399Y-110608399D01*
X128690001Y-110910001D02*
X129540000Y-111760000D01*
X124498000Y-108653200D02*
X126453199Y-110608399D01*
X124498000Y-107700000D02*
X124498000Y-108653200D01*
X125254801Y-110910001D02*
X126150001Y-110910001D01*
X126150001Y-110910001D02*
X127000000Y-111760000D01*
X122998000Y-108653200D02*
X125254801Y-110910001D01*
X122998000Y-107700000D02*
X122998000Y-108653200D01*
X144252500Y-98200000D02*
X144350500Y-98298000D01*
X140364000Y-98200000D02*
X144252500Y-98200000D01*
X140208000Y-98044000D02*
X140364000Y-98200000D01*
X144066500Y-96700000D02*
X144500500Y-96266000D01*
X140388000Y-96700000D02*
X144066500Y-96700000D01*
X140208000Y-96520000D02*
X140388000Y-96700000D01*
X149352000Y-94107000D02*
X158828500Y-94107000D01*
X157816580Y-89960420D02*
X153670000Y-94107000D01*
X153670000Y-94107000D02*
X149352000Y-94107000D01*
X161499580Y-89960420D02*
X157816580Y-89960420D01*
X165100000Y-86360000D02*
X161499580Y-89960420D01*
X144272000Y-94107000D02*
X143179000Y-95200000D01*
X143179000Y-95200000D02*
X141710000Y-95200000D01*
X149352000Y-94107000D02*
X144272000Y-94107000D01*
X141748000Y-93700000D02*
X141710000Y-93700000D01*
X159362790Y-89557210D02*
X161163000Y-87757000D01*
X161163000Y-87757000D02*
X162560000Y-86360000D01*
X153442000Y-93700000D02*
X157584790Y-89557210D01*
X157584790Y-89557210D02*
X159362790Y-89557210D01*
X141710000Y-93700000D02*
X153442000Y-93700000D01*
X157226000Y-89154000D02*
X160020000Y-86360000D01*
X142044000Y-89154000D02*
X157226000Y-89154000D01*
X140998000Y-90200000D02*
X142044000Y-89154000D01*
X156630001Y-87209999D02*
X157480000Y-86360000D01*
X140023569Y-88721231D02*
X155118769Y-88721231D01*
X139498000Y-89246800D02*
X140023569Y-88721231D01*
X155118769Y-88721231D02*
X156630001Y-87209999D01*
X139498000Y-90200000D02*
X139498000Y-89246800D01*
X138926779Y-88318021D02*
X152981979Y-88318021D01*
X154090001Y-87209999D02*
X154940000Y-86360000D01*
X137998000Y-89246800D02*
X138926779Y-88318021D01*
X152981979Y-88318021D02*
X154090001Y-87209999D01*
X137998000Y-90200000D02*
X137998000Y-89246800D01*
X151550001Y-87209999D02*
X152400000Y-86360000D01*
X150845189Y-87914811D02*
X151550001Y-87209999D01*
X137829989Y-87914811D02*
X150845189Y-87914811D01*
X136498000Y-89246800D02*
X137829989Y-87914811D01*
X136498000Y-90200000D02*
X136498000Y-89246800D01*
X149010001Y-87209999D02*
X149860000Y-86360000D01*
X148708399Y-87511601D02*
X149010001Y-87209999D01*
X137024399Y-87511601D02*
X148708399Y-87511601D01*
X134998000Y-89538000D02*
X137024399Y-87511601D01*
X134998000Y-90200000D02*
X134998000Y-89538000D01*
X133498000Y-91588000D02*
X133604000Y-91694000D01*
X133498000Y-90200000D02*
X133498000Y-91588000D01*
X131998000Y-91612000D02*
X132080000Y-91694000D01*
X131998000Y-90200000D02*
X131998000Y-91612000D01*
X130498000Y-91636000D02*
X130556000Y-91694000D01*
X130498000Y-90200000D02*
X130498000Y-91636000D01*
X128998000Y-91660000D02*
X129032000Y-91694000D01*
X128998000Y-90200000D02*
X128998000Y-91660000D01*
X127620359Y-89124441D02*
X134395559Y-89124441D01*
X127498000Y-89246800D02*
X127620359Y-89124441D01*
X136310001Y-87209999D02*
X137160000Y-86360000D01*
X134395559Y-89124441D02*
X136310001Y-87209999D01*
X127498000Y-90200000D02*
X127498000Y-89246800D01*
X126523569Y-88721231D02*
X132258769Y-88721231D01*
X125998000Y-89246800D02*
X126523569Y-88721231D01*
X133770001Y-87209999D02*
X134620000Y-86360000D01*
X132258769Y-88721231D02*
X133770001Y-87209999D01*
X125998000Y-90200000D02*
X125998000Y-89246800D01*
X131230001Y-87209999D02*
X132080000Y-86360000D01*
X130121979Y-88318021D02*
X131230001Y-87209999D01*
X124498000Y-89246800D02*
X125426779Y-88318021D01*
X125426779Y-88318021D02*
X130121979Y-88318021D01*
X124498000Y-90200000D02*
X124498000Y-89246800D01*
X128690001Y-87209999D02*
X129540000Y-86360000D01*
X127985189Y-87914811D02*
X128690001Y-87209999D01*
X122998000Y-89246800D02*
X124329989Y-87914811D01*
X124329989Y-87914811D02*
X127985189Y-87914811D01*
X122998000Y-90200000D02*
X122998000Y-89246800D01*
X126150001Y-87209999D02*
X127000000Y-86360000D01*
X123886399Y-87511601D02*
X125848399Y-87511601D01*
X125848399Y-87511601D02*
X126150001Y-87209999D01*
X121498000Y-89900000D02*
X123886399Y-87511601D01*
X121498000Y-90200000D02*
X121498000Y-89900000D01*
X160703500Y-94107000D02*
X160703500Y-92075000D01*
D26*
X176055000Y-101960000D02*
X176055000Y-95560000D01*
X170228500Y-96520000D02*
X170228500Y-94615000D01*
X173315000Y-96520000D02*
X170228500Y-96520000D01*
X173355000Y-96560000D02*
X173315000Y-96520000D01*
D25*
X164386500Y-92456000D02*
X164386500Y-94107000D01*
X162511500Y-96105500D02*
X162799000Y-96393000D01*
X162511500Y-94107000D02*
X162511500Y-96105500D01*
X164422000Y-102174000D02*
X164422000Y-100922000D01*
X164422000Y-100922000D02*
X164084000Y-100584000D01*
X164099000Y-96393000D02*
X164099000Y-98283000D01*
X164099000Y-98283000D02*
X164084000Y-98298000D01*
D26*
X163981599Y-104074000D02*
X164422000Y-104074000D01*
X163449000Y-102607678D02*
X163449000Y-103541401D01*
X163449000Y-103541401D02*
X163981599Y-104074000D01*
X163882678Y-102174000D02*
X163449000Y-102607678D01*
X164422000Y-102174000D02*
X163882678Y-102174000D01*
X164434500Y-104061500D02*
X164422000Y-104074000D01*
X166243000Y-104061500D02*
X164434500Y-104061500D01*
X166321500Y-104140000D02*
X166243000Y-104061500D01*
X168353500Y-104140000D02*
X166321500Y-104140000D01*
X175387000Y-105410000D02*
X176022000Y-106045000D01*
X176022000Y-108585000D02*
X172847000Y-111760000D01*
X176022000Y-106045000D02*
X176022000Y-108585000D01*
X172847000Y-111760000D02*
X172720000Y-111760000D01*
X167591500Y-105410000D02*
X166243000Y-104061500D01*
X175387000Y-105410000D02*
X167591500Y-105410000D01*
X174561500Y-105346500D02*
X174625000Y-105410000D01*
X173101000Y-86360000D02*
X176022000Y-89281000D01*
X172720000Y-86360000D02*
X173101000Y-86360000D01*
X176022000Y-89281000D02*
X176022000Y-92075000D01*
X174561500Y-93535500D02*
X174561500Y-105346500D01*
X176022000Y-92075000D02*
X174561500Y-93535500D01*
D25*
X171450000Y-99060000D02*
X173355000Y-99060000D01*
X170391000Y-98427500D02*
X170817500Y-98427500D01*
X170817500Y-98427500D02*
X171450000Y-99060000D01*
X170838882Y-100327500D02*
X170391000Y-100327500D01*
X171456382Y-99710000D02*
X170838882Y-100327500D01*
X173355000Y-99710000D02*
X171456382Y-99710000D01*
D28*
G36*
X130175000Y-103759000D02*
G01*
X122809000Y-103759000D01*
X122809000Y-96393000D01*
X130175000Y-96393000D01*
X130175000Y-103759000D01*
G37*
X130175000Y-103759000D02*
X122809000Y-103759000D01*
X122809000Y-96393000D01*
X130175000Y-96393000D01*
X130175000Y-103759000D01*
M02*
