G04 #@! TF.GenerationSoftware,KiCad,Pcbnew,(5.1.5)-3*
G04 #@! TF.CreationDate,2020-03-16T18:22:55+10:00*
G04 #@! TF.ProjectId,ESP32-S2-Breakout,45535033-322d-4533-922d-427265616b6f,rev?*
G04 #@! TF.SameCoordinates,Original*
G04 #@! TF.FileFunction,Soldermask,Top*
G04 #@! TF.FilePolarity,Negative*
%FSLAX46Y46*%
G04 Gerber Fmt 4.6, Leading zero omitted, Abs format (unit mm)*
G04 Created by KiCad (PCBNEW (5.1.5)-3) date 2020-03-16 18:22:55*
%MOMM*%
%LPD*%
G04 APERTURE LIST*
%ADD10C,0.100000*%
G04 APERTURE END LIST*
D10*
G36*
X175373512Y-110863927D02*
G01*
X175522812Y-110893624D01*
X175686784Y-110961544D01*
X175834354Y-111060147D01*
X175959853Y-111185646D01*
X176058456Y-111333216D01*
X176126376Y-111497188D01*
X176161000Y-111671259D01*
X176161000Y-111848741D01*
X176126376Y-112022812D01*
X176058456Y-112186784D01*
X175959853Y-112334354D01*
X175834354Y-112459853D01*
X175686784Y-112558456D01*
X175522812Y-112626376D01*
X175373512Y-112656073D01*
X175348742Y-112661000D01*
X175171258Y-112661000D01*
X175146488Y-112656073D01*
X174997188Y-112626376D01*
X174833216Y-112558456D01*
X174685646Y-112459853D01*
X174560147Y-112334354D01*
X174461544Y-112186784D01*
X174393624Y-112022812D01*
X174359000Y-111848741D01*
X174359000Y-111671259D01*
X174393624Y-111497188D01*
X174461544Y-111333216D01*
X174560147Y-111185646D01*
X174685646Y-111060147D01*
X174833216Y-110961544D01*
X174997188Y-110893624D01*
X175146488Y-110863927D01*
X175171258Y-110859000D01*
X175348742Y-110859000D01*
X175373512Y-110863927D01*
G37*
G36*
X147433512Y-110863927D02*
G01*
X147582812Y-110893624D01*
X147746784Y-110961544D01*
X147894354Y-111060147D01*
X148019853Y-111185646D01*
X148118456Y-111333216D01*
X148186376Y-111497188D01*
X148221000Y-111671259D01*
X148221000Y-111848741D01*
X148186376Y-112022812D01*
X148118456Y-112186784D01*
X148019853Y-112334354D01*
X147894354Y-112459853D01*
X147746784Y-112558456D01*
X147582812Y-112626376D01*
X147433512Y-112656073D01*
X147408742Y-112661000D01*
X147231258Y-112661000D01*
X147206488Y-112656073D01*
X147057188Y-112626376D01*
X146893216Y-112558456D01*
X146745646Y-112459853D01*
X146620147Y-112334354D01*
X146521544Y-112186784D01*
X146453624Y-112022812D01*
X146419000Y-111848741D01*
X146419000Y-111671259D01*
X146453624Y-111497188D01*
X146521544Y-111333216D01*
X146620147Y-111185646D01*
X146745646Y-111060147D01*
X146893216Y-110961544D01*
X147057188Y-110893624D01*
X147206488Y-110863927D01*
X147231258Y-110859000D01*
X147408742Y-110859000D01*
X147433512Y-110863927D01*
G37*
G36*
X170293512Y-110863927D02*
G01*
X170442812Y-110893624D01*
X170606784Y-110961544D01*
X170754354Y-111060147D01*
X170879853Y-111185646D01*
X170978456Y-111333216D01*
X171046376Y-111497188D01*
X171081000Y-111671259D01*
X171081000Y-111848741D01*
X171046376Y-112022812D01*
X170978456Y-112186784D01*
X170879853Y-112334354D01*
X170754354Y-112459853D01*
X170606784Y-112558456D01*
X170442812Y-112626376D01*
X170293512Y-112656073D01*
X170268742Y-112661000D01*
X170091258Y-112661000D01*
X170066488Y-112656073D01*
X169917188Y-112626376D01*
X169753216Y-112558456D01*
X169605646Y-112459853D01*
X169480147Y-112334354D01*
X169381544Y-112186784D01*
X169313624Y-112022812D01*
X169279000Y-111848741D01*
X169279000Y-111671259D01*
X169313624Y-111497188D01*
X169381544Y-111333216D01*
X169480147Y-111185646D01*
X169605646Y-111060147D01*
X169753216Y-110961544D01*
X169917188Y-110893624D01*
X170066488Y-110863927D01*
X170091258Y-110859000D01*
X170268742Y-110859000D01*
X170293512Y-110863927D01*
G37*
G36*
X167753512Y-110863927D02*
G01*
X167902812Y-110893624D01*
X168066784Y-110961544D01*
X168214354Y-111060147D01*
X168339853Y-111185646D01*
X168438456Y-111333216D01*
X168506376Y-111497188D01*
X168541000Y-111671259D01*
X168541000Y-111848741D01*
X168506376Y-112022812D01*
X168438456Y-112186784D01*
X168339853Y-112334354D01*
X168214354Y-112459853D01*
X168066784Y-112558456D01*
X167902812Y-112626376D01*
X167753512Y-112656073D01*
X167728742Y-112661000D01*
X167551258Y-112661000D01*
X167526488Y-112656073D01*
X167377188Y-112626376D01*
X167213216Y-112558456D01*
X167065646Y-112459853D01*
X166940147Y-112334354D01*
X166841544Y-112186784D01*
X166773624Y-112022812D01*
X166739000Y-111848741D01*
X166739000Y-111671259D01*
X166773624Y-111497188D01*
X166841544Y-111333216D01*
X166940147Y-111185646D01*
X167065646Y-111060147D01*
X167213216Y-110961544D01*
X167377188Y-110893624D01*
X167526488Y-110863927D01*
X167551258Y-110859000D01*
X167728742Y-110859000D01*
X167753512Y-110863927D01*
G37*
G36*
X165213512Y-110863927D02*
G01*
X165362812Y-110893624D01*
X165526784Y-110961544D01*
X165674354Y-111060147D01*
X165799853Y-111185646D01*
X165898456Y-111333216D01*
X165966376Y-111497188D01*
X166001000Y-111671259D01*
X166001000Y-111848741D01*
X165966376Y-112022812D01*
X165898456Y-112186784D01*
X165799853Y-112334354D01*
X165674354Y-112459853D01*
X165526784Y-112558456D01*
X165362812Y-112626376D01*
X165213512Y-112656073D01*
X165188742Y-112661000D01*
X165011258Y-112661000D01*
X164986488Y-112656073D01*
X164837188Y-112626376D01*
X164673216Y-112558456D01*
X164525646Y-112459853D01*
X164400147Y-112334354D01*
X164301544Y-112186784D01*
X164233624Y-112022812D01*
X164199000Y-111848741D01*
X164199000Y-111671259D01*
X164233624Y-111497188D01*
X164301544Y-111333216D01*
X164400147Y-111185646D01*
X164525646Y-111060147D01*
X164673216Y-110961544D01*
X164837188Y-110893624D01*
X164986488Y-110863927D01*
X165011258Y-110859000D01*
X165188742Y-110859000D01*
X165213512Y-110863927D01*
G37*
G36*
X162673512Y-110863927D02*
G01*
X162822812Y-110893624D01*
X162986784Y-110961544D01*
X163134354Y-111060147D01*
X163259853Y-111185646D01*
X163358456Y-111333216D01*
X163426376Y-111497188D01*
X163461000Y-111671259D01*
X163461000Y-111848741D01*
X163426376Y-112022812D01*
X163358456Y-112186784D01*
X163259853Y-112334354D01*
X163134354Y-112459853D01*
X162986784Y-112558456D01*
X162822812Y-112626376D01*
X162673512Y-112656073D01*
X162648742Y-112661000D01*
X162471258Y-112661000D01*
X162446488Y-112656073D01*
X162297188Y-112626376D01*
X162133216Y-112558456D01*
X161985646Y-112459853D01*
X161860147Y-112334354D01*
X161761544Y-112186784D01*
X161693624Y-112022812D01*
X161659000Y-111848741D01*
X161659000Y-111671259D01*
X161693624Y-111497188D01*
X161761544Y-111333216D01*
X161860147Y-111185646D01*
X161985646Y-111060147D01*
X162133216Y-110961544D01*
X162297188Y-110893624D01*
X162446488Y-110863927D01*
X162471258Y-110859000D01*
X162648742Y-110859000D01*
X162673512Y-110863927D01*
G37*
G36*
X160133512Y-110863927D02*
G01*
X160282812Y-110893624D01*
X160446784Y-110961544D01*
X160594354Y-111060147D01*
X160719853Y-111185646D01*
X160818456Y-111333216D01*
X160886376Y-111497188D01*
X160921000Y-111671259D01*
X160921000Y-111848741D01*
X160886376Y-112022812D01*
X160818456Y-112186784D01*
X160719853Y-112334354D01*
X160594354Y-112459853D01*
X160446784Y-112558456D01*
X160282812Y-112626376D01*
X160133512Y-112656073D01*
X160108742Y-112661000D01*
X159931258Y-112661000D01*
X159906488Y-112656073D01*
X159757188Y-112626376D01*
X159593216Y-112558456D01*
X159445646Y-112459853D01*
X159320147Y-112334354D01*
X159221544Y-112186784D01*
X159153624Y-112022812D01*
X159119000Y-111848741D01*
X159119000Y-111671259D01*
X159153624Y-111497188D01*
X159221544Y-111333216D01*
X159320147Y-111185646D01*
X159445646Y-111060147D01*
X159593216Y-110961544D01*
X159757188Y-110893624D01*
X159906488Y-110863927D01*
X159931258Y-110859000D01*
X160108742Y-110859000D01*
X160133512Y-110863927D01*
G37*
G36*
X157593512Y-110863927D02*
G01*
X157742812Y-110893624D01*
X157906784Y-110961544D01*
X158054354Y-111060147D01*
X158179853Y-111185646D01*
X158278456Y-111333216D01*
X158346376Y-111497188D01*
X158381000Y-111671259D01*
X158381000Y-111848741D01*
X158346376Y-112022812D01*
X158278456Y-112186784D01*
X158179853Y-112334354D01*
X158054354Y-112459853D01*
X157906784Y-112558456D01*
X157742812Y-112626376D01*
X157593512Y-112656073D01*
X157568742Y-112661000D01*
X157391258Y-112661000D01*
X157366488Y-112656073D01*
X157217188Y-112626376D01*
X157053216Y-112558456D01*
X156905646Y-112459853D01*
X156780147Y-112334354D01*
X156681544Y-112186784D01*
X156613624Y-112022812D01*
X156579000Y-111848741D01*
X156579000Y-111671259D01*
X156613624Y-111497188D01*
X156681544Y-111333216D01*
X156780147Y-111185646D01*
X156905646Y-111060147D01*
X157053216Y-110961544D01*
X157217188Y-110893624D01*
X157366488Y-110863927D01*
X157391258Y-110859000D01*
X157568742Y-110859000D01*
X157593512Y-110863927D01*
G37*
G36*
X155053512Y-110863927D02*
G01*
X155202812Y-110893624D01*
X155366784Y-110961544D01*
X155514354Y-111060147D01*
X155639853Y-111185646D01*
X155738456Y-111333216D01*
X155806376Y-111497188D01*
X155841000Y-111671259D01*
X155841000Y-111848741D01*
X155806376Y-112022812D01*
X155738456Y-112186784D01*
X155639853Y-112334354D01*
X155514354Y-112459853D01*
X155366784Y-112558456D01*
X155202812Y-112626376D01*
X155053512Y-112656073D01*
X155028742Y-112661000D01*
X154851258Y-112661000D01*
X154826488Y-112656073D01*
X154677188Y-112626376D01*
X154513216Y-112558456D01*
X154365646Y-112459853D01*
X154240147Y-112334354D01*
X154141544Y-112186784D01*
X154073624Y-112022812D01*
X154039000Y-111848741D01*
X154039000Y-111671259D01*
X154073624Y-111497188D01*
X154141544Y-111333216D01*
X154240147Y-111185646D01*
X154365646Y-111060147D01*
X154513216Y-110961544D01*
X154677188Y-110893624D01*
X154826488Y-110863927D01*
X154851258Y-110859000D01*
X155028742Y-110859000D01*
X155053512Y-110863927D01*
G37*
G36*
X152513512Y-110863927D02*
G01*
X152662812Y-110893624D01*
X152826784Y-110961544D01*
X152974354Y-111060147D01*
X153099853Y-111185646D01*
X153198456Y-111333216D01*
X153266376Y-111497188D01*
X153301000Y-111671259D01*
X153301000Y-111848741D01*
X153266376Y-112022812D01*
X153198456Y-112186784D01*
X153099853Y-112334354D01*
X152974354Y-112459853D01*
X152826784Y-112558456D01*
X152662812Y-112626376D01*
X152513512Y-112656073D01*
X152488742Y-112661000D01*
X152311258Y-112661000D01*
X152286488Y-112656073D01*
X152137188Y-112626376D01*
X151973216Y-112558456D01*
X151825646Y-112459853D01*
X151700147Y-112334354D01*
X151601544Y-112186784D01*
X151533624Y-112022812D01*
X151499000Y-111848741D01*
X151499000Y-111671259D01*
X151533624Y-111497188D01*
X151601544Y-111333216D01*
X151700147Y-111185646D01*
X151825646Y-111060147D01*
X151973216Y-110961544D01*
X152137188Y-110893624D01*
X152286488Y-110863927D01*
X152311258Y-110859000D01*
X152488742Y-110859000D01*
X152513512Y-110863927D01*
G37*
G36*
X149973512Y-110863927D02*
G01*
X150122812Y-110893624D01*
X150286784Y-110961544D01*
X150434354Y-111060147D01*
X150559853Y-111185646D01*
X150658456Y-111333216D01*
X150726376Y-111497188D01*
X150761000Y-111671259D01*
X150761000Y-111848741D01*
X150726376Y-112022812D01*
X150658456Y-112186784D01*
X150559853Y-112334354D01*
X150434354Y-112459853D01*
X150286784Y-112558456D01*
X150122812Y-112626376D01*
X149973512Y-112656073D01*
X149948742Y-112661000D01*
X149771258Y-112661000D01*
X149746488Y-112656073D01*
X149597188Y-112626376D01*
X149433216Y-112558456D01*
X149285646Y-112459853D01*
X149160147Y-112334354D01*
X149061544Y-112186784D01*
X148993624Y-112022812D01*
X148959000Y-111848741D01*
X148959000Y-111671259D01*
X148993624Y-111497188D01*
X149061544Y-111333216D01*
X149160147Y-111185646D01*
X149285646Y-111060147D01*
X149433216Y-110961544D01*
X149597188Y-110893624D01*
X149746488Y-110863927D01*
X149771258Y-110859000D01*
X149948742Y-110859000D01*
X149973512Y-110863927D01*
G37*
G36*
X172833512Y-110863927D02*
G01*
X172982812Y-110893624D01*
X173146784Y-110961544D01*
X173294354Y-111060147D01*
X173419853Y-111185646D01*
X173518456Y-111333216D01*
X173586376Y-111497188D01*
X173621000Y-111671259D01*
X173621000Y-111848741D01*
X173586376Y-112022812D01*
X173518456Y-112186784D01*
X173419853Y-112334354D01*
X173294354Y-112459853D01*
X173146784Y-112558456D01*
X172982812Y-112626376D01*
X172833512Y-112656073D01*
X172808742Y-112661000D01*
X172631258Y-112661000D01*
X172606488Y-112656073D01*
X172457188Y-112626376D01*
X172293216Y-112558456D01*
X172145646Y-112459853D01*
X172020147Y-112334354D01*
X171921544Y-112186784D01*
X171853624Y-112022812D01*
X171819000Y-111848741D01*
X171819000Y-111671259D01*
X171853624Y-111497188D01*
X171921544Y-111333216D01*
X172020147Y-111185646D01*
X172145646Y-111060147D01*
X172293216Y-110961544D01*
X172457188Y-110893624D01*
X172606488Y-110863927D01*
X172631258Y-110859000D01*
X172808742Y-110859000D01*
X172833512Y-110863927D01*
G37*
G36*
X142353512Y-110863927D02*
G01*
X142502812Y-110893624D01*
X142666784Y-110961544D01*
X142814354Y-111060147D01*
X142939853Y-111185646D01*
X143038456Y-111333216D01*
X143106376Y-111497188D01*
X143141000Y-111671259D01*
X143141000Y-111848741D01*
X143106376Y-112022812D01*
X143038456Y-112186784D01*
X142939853Y-112334354D01*
X142814354Y-112459853D01*
X142666784Y-112558456D01*
X142502812Y-112626376D01*
X142353512Y-112656073D01*
X142328742Y-112661000D01*
X142151258Y-112661000D01*
X142126488Y-112656073D01*
X141977188Y-112626376D01*
X141813216Y-112558456D01*
X141665646Y-112459853D01*
X141540147Y-112334354D01*
X141441544Y-112186784D01*
X141373624Y-112022812D01*
X141339000Y-111848741D01*
X141339000Y-111671259D01*
X141373624Y-111497188D01*
X141441544Y-111333216D01*
X141540147Y-111185646D01*
X141665646Y-111060147D01*
X141813216Y-110961544D01*
X141977188Y-110893624D01*
X142126488Y-110863927D01*
X142151258Y-110859000D01*
X142328742Y-110859000D01*
X142353512Y-110863927D01*
G37*
G36*
X144893512Y-110863927D02*
G01*
X145042812Y-110893624D01*
X145206784Y-110961544D01*
X145354354Y-111060147D01*
X145479853Y-111185646D01*
X145578456Y-111333216D01*
X145646376Y-111497188D01*
X145681000Y-111671259D01*
X145681000Y-111848741D01*
X145646376Y-112022812D01*
X145578456Y-112186784D01*
X145479853Y-112334354D01*
X145354354Y-112459853D01*
X145206784Y-112558456D01*
X145042812Y-112626376D01*
X144893512Y-112656073D01*
X144868742Y-112661000D01*
X144691258Y-112661000D01*
X144666488Y-112656073D01*
X144517188Y-112626376D01*
X144353216Y-112558456D01*
X144205646Y-112459853D01*
X144080147Y-112334354D01*
X143981544Y-112186784D01*
X143913624Y-112022812D01*
X143879000Y-111848741D01*
X143879000Y-111671259D01*
X143913624Y-111497188D01*
X143981544Y-111333216D01*
X144080147Y-111185646D01*
X144205646Y-111060147D01*
X144353216Y-110961544D01*
X144517188Y-110893624D01*
X144666488Y-110863927D01*
X144691258Y-110859000D01*
X144868742Y-110859000D01*
X144893512Y-110863927D01*
G37*
G36*
X120281000Y-112661000D02*
G01*
X118479000Y-112661000D01*
X118479000Y-110859000D01*
X120281000Y-110859000D01*
X120281000Y-112661000D01*
G37*
G36*
X122033512Y-110863927D02*
G01*
X122182812Y-110893624D01*
X122346784Y-110961544D01*
X122494354Y-111060147D01*
X122619853Y-111185646D01*
X122718456Y-111333216D01*
X122786376Y-111497188D01*
X122821000Y-111671259D01*
X122821000Y-111848741D01*
X122786376Y-112022812D01*
X122718456Y-112186784D01*
X122619853Y-112334354D01*
X122494354Y-112459853D01*
X122346784Y-112558456D01*
X122182812Y-112626376D01*
X122033512Y-112656073D01*
X122008742Y-112661000D01*
X121831258Y-112661000D01*
X121806488Y-112656073D01*
X121657188Y-112626376D01*
X121493216Y-112558456D01*
X121345646Y-112459853D01*
X121220147Y-112334354D01*
X121121544Y-112186784D01*
X121053624Y-112022812D01*
X121019000Y-111848741D01*
X121019000Y-111671259D01*
X121053624Y-111497188D01*
X121121544Y-111333216D01*
X121220147Y-111185646D01*
X121345646Y-111060147D01*
X121493216Y-110961544D01*
X121657188Y-110893624D01*
X121806488Y-110863927D01*
X121831258Y-110859000D01*
X122008742Y-110859000D01*
X122033512Y-110863927D01*
G37*
G36*
X124573512Y-110863927D02*
G01*
X124722812Y-110893624D01*
X124886784Y-110961544D01*
X125034354Y-111060147D01*
X125159853Y-111185646D01*
X125258456Y-111333216D01*
X125326376Y-111497188D01*
X125361000Y-111671259D01*
X125361000Y-111848741D01*
X125326376Y-112022812D01*
X125258456Y-112186784D01*
X125159853Y-112334354D01*
X125034354Y-112459853D01*
X124886784Y-112558456D01*
X124722812Y-112626376D01*
X124573512Y-112656073D01*
X124548742Y-112661000D01*
X124371258Y-112661000D01*
X124346488Y-112656073D01*
X124197188Y-112626376D01*
X124033216Y-112558456D01*
X123885646Y-112459853D01*
X123760147Y-112334354D01*
X123661544Y-112186784D01*
X123593624Y-112022812D01*
X123559000Y-111848741D01*
X123559000Y-111671259D01*
X123593624Y-111497188D01*
X123661544Y-111333216D01*
X123760147Y-111185646D01*
X123885646Y-111060147D01*
X124033216Y-110961544D01*
X124197188Y-110893624D01*
X124346488Y-110863927D01*
X124371258Y-110859000D01*
X124548742Y-110859000D01*
X124573512Y-110863927D01*
G37*
G36*
X127113512Y-110863927D02*
G01*
X127262812Y-110893624D01*
X127426784Y-110961544D01*
X127574354Y-111060147D01*
X127699853Y-111185646D01*
X127798456Y-111333216D01*
X127866376Y-111497188D01*
X127901000Y-111671259D01*
X127901000Y-111848741D01*
X127866376Y-112022812D01*
X127798456Y-112186784D01*
X127699853Y-112334354D01*
X127574354Y-112459853D01*
X127426784Y-112558456D01*
X127262812Y-112626376D01*
X127113512Y-112656073D01*
X127088742Y-112661000D01*
X126911258Y-112661000D01*
X126886488Y-112656073D01*
X126737188Y-112626376D01*
X126573216Y-112558456D01*
X126425646Y-112459853D01*
X126300147Y-112334354D01*
X126201544Y-112186784D01*
X126133624Y-112022812D01*
X126099000Y-111848741D01*
X126099000Y-111671259D01*
X126133624Y-111497188D01*
X126201544Y-111333216D01*
X126300147Y-111185646D01*
X126425646Y-111060147D01*
X126573216Y-110961544D01*
X126737188Y-110893624D01*
X126886488Y-110863927D01*
X126911258Y-110859000D01*
X127088742Y-110859000D01*
X127113512Y-110863927D01*
G37*
G36*
X132193512Y-110863927D02*
G01*
X132342812Y-110893624D01*
X132506784Y-110961544D01*
X132654354Y-111060147D01*
X132779853Y-111185646D01*
X132878456Y-111333216D01*
X132946376Y-111497188D01*
X132981000Y-111671259D01*
X132981000Y-111848741D01*
X132946376Y-112022812D01*
X132878456Y-112186784D01*
X132779853Y-112334354D01*
X132654354Y-112459853D01*
X132506784Y-112558456D01*
X132342812Y-112626376D01*
X132193512Y-112656073D01*
X132168742Y-112661000D01*
X131991258Y-112661000D01*
X131966488Y-112656073D01*
X131817188Y-112626376D01*
X131653216Y-112558456D01*
X131505646Y-112459853D01*
X131380147Y-112334354D01*
X131281544Y-112186784D01*
X131213624Y-112022812D01*
X131179000Y-111848741D01*
X131179000Y-111671259D01*
X131213624Y-111497188D01*
X131281544Y-111333216D01*
X131380147Y-111185646D01*
X131505646Y-111060147D01*
X131653216Y-110961544D01*
X131817188Y-110893624D01*
X131966488Y-110863927D01*
X131991258Y-110859000D01*
X132168742Y-110859000D01*
X132193512Y-110863927D01*
G37*
G36*
X134733512Y-110863927D02*
G01*
X134882812Y-110893624D01*
X135046784Y-110961544D01*
X135194354Y-111060147D01*
X135319853Y-111185646D01*
X135418456Y-111333216D01*
X135486376Y-111497188D01*
X135521000Y-111671259D01*
X135521000Y-111848741D01*
X135486376Y-112022812D01*
X135418456Y-112186784D01*
X135319853Y-112334354D01*
X135194354Y-112459853D01*
X135046784Y-112558456D01*
X134882812Y-112626376D01*
X134733512Y-112656073D01*
X134708742Y-112661000D01*
X134531258Y-112661000D01*
X134506488Y-112656073D01*
X134357188Y-112626376D01*
X134193216Y-112558456D01*
X134045646Y-112459853D01*
X133920147Y-112334354D01*
X133821544Y-112186784D01*
X133753624Y-112022812D01*
X133719000Y-111848741D01*
X133719000Y-111671259D01*
X133753624Y-111497188D01*
X133821544Y-111333216D01*
X133920147Y-111185646D01*
X134045646Y-111060147D01*
X134193216Y-110961544D01*
X134357188Y-110893624D01*
X134506488Y-110863927D01*
X134531258Y-110859000D01*
X134708742Y-110859000D01*
X134733512Y-110863927D01*
G37*
G36*
X137273512Y-110863927D02*
G01*
X137422812Y-110893624D01*
X137586784Y-110961544D01*
X137734354Y-111060147D01*
X137859853Y-111185646D01*
X137958456Y-111333216D01*
X138026376Y-111497188D01*
X138061000Y-111671259D01*
X138061000Y-111848741D01*
X138026376Y-112022812D01*
X137958456Y-112186784D01*
X137859853Y-112334354D01*
X137734354Y-112459853D01*
X137586784Y-112558456D01*
X137422812Y-112626376D01*
X137273512Y-112656073D01*
X137248742Y-112661000D01*
X137071258Y-112661000D01*
X137046488Y-112656073D01*
X136897188Y-112626376D01*
X136733216Y-112558456D01*
X136585646Y-112459853D01*
X136460147Y-112334354D01*
X136361544Y-112186784D01*
X136293624Y-112022812D01*
X136259000Y-111848741D01*
X136259000Y-111671259D01*
X136293624Y-111497188D01*
X136361544Y-111333216D01*
X136460147Y-111185646D01*
X136585646Y-111060147D01*
X136733216Y-110961544D01*
X136897188Y-110893624D01*
X137046488Y-110863927D01*
X137071258Y-110859000D01*
X137248742Y-110859000D01*
X137273512Y-110863927D01*
G37*
G36*
X139813512Y-110863927D02*
G01*
X139962812Y-110893624D01*
X140126784Y-110961544D01*
X140274354Y-111060147D01*
X140399853Y-111185646D01*
X140498456Y-111333216D01*
X140566376Y-111497188D01*
X140601000Y-111671259D01*
X140601000Y-111848741D01*
X140566376Y-112022812D01*
X140498456Y-112186784D01*
X140399853Y-112334354D01*
X140274354Y-112459853D01*
X140126784Y-112558456D01*
X139962812Y-112626376D01*
X139813512Y-112656073D01*
X139788742Y-112661000D01*
X139611258Y-112661000D01*
X139586488Y-112656073D01*
X139437188Y-112626376D01*
X139273216Y-112558456D01*
X139125646Y-112459853D01*
X139000147Y-112334354D01*
X138901544Y-112186784D01*
X138833624Y-112022812D01*
X138799000Y-111848741D01*
X138799000Y-111671259D01*
X138833624Y-111497188D01*
X138901544Y-111333216D01*
X139000147Y-111185646D01*
X139125646Y-111060147D01*
X139273216Y-110961544D01*
X139437188Y-110893624D01*
X139586488Y-110863927D01*
X139611258Y-110859000D01*
X139788742Y-110859000D01*
X139813512Y-110863927D01*
G37*
G36*
X129653512Y-110863927D02*
G01*
X129802812Y-110893624D01*
X129966784Y-110961544D01*
X130114354Y-111060147D01*
X130239853Y-111185646D01*
X130338456Y-111333216D01*
X130406376Y-111497188D01*
X130441000Y-111671259D01*
X130441000Y-111848741D01*
X130406376Y-112022812D01*
X130338456Y-112186784D01*
X130239853Y-112334354D01*
X130114354Y-112459853D01*
X129966784Y-112558456D01*
X129802812Y-112626376D01*
X129653512Y-112656073D01*
X129628742Y-112661000D01*
X129451258Y-112661000D01*
X129426488Y-112656073D01*
X129277188Y-112626376D01*
X129113216Y-112558456D01*
X128965646Y-112459853D01*
X128840147Y-112334354D01*
X128741544Y-112186784D01*
X128673624Y-112022812D01*
X128639000Y-111848741D01*
X128639000Y-111671259D01*
X128673624Y-111497188D01*
X128741544Y-111333216D01*
X128840147Y-111185646D01*
X128965646Y-111060147D01*
X129113216Y-110961544D01*
X129277188Y-110893624D01*
X129426488Y-110863927D01*
X129451258Y-110859000D01*
X129628742Y-110859000D01*
X129653512Y-110863927D01*
G37*
G36*
X146888468Y-108099565D02*
G01*
X146927138Y-108111296D01*
X146962777Y-108130346D01*
X146994017Y-108155983D01*
X147019654Y-108187223D01*
X147038704Y-108222862D01*
X147050435Y-108261532D01*
X147055000Y-108307888D01*
X147055000Y-108959112D01*
X147050435Y-109005468D01*
X147038704Y-109044138D01*
X147019654Y-109079777D01*
X146994017Y-109111017D01*
X146962777Y-109136654D01*
X146927138Y-109155704D01*
X146888468Y-109167435D01*
X146842112Y-109172000D01*
X145765888Y-109172000D01*
X145719532Y-109167435D01*
X145680862Y-109155704D01*
X145645223Y-109136654D01*
X145613983Y-109111017D01*
X145588346Y-109079777D01*
X145569296Y-109044138D01*
X145557565Y-109005468D01*
X145553000Y-108959112D01*
X145553000Y-108307888D01*
X145557565Y-108261532D01*
X145569296Y-108222862D01*
X145588346Y-108187223D01*
X145613983Y-108155983D01*
X145645223Y-108130346D01*
X145680862Y-108111296D01*
X145719532Y-108099565D01*
X145765888Y-108095000D01*
X146842112Y-108095000D01*
X146888468Y-108099565D01*
G37*
G36*
X144905591Y-107999085D02*
G01*
X144939569Y-108009393D01*
X144970890Y-108026134D01*
X144998339Y-108048661D01*
X145020866Y-108076110D01*
X145037607Y-108107431D01*
X145047915Y-108141409D01*
X145052000Y-108182890D01*
X145052000Y-108784110D01*
X145047915Y-108825591D01*
X145037607Y-108859569D01*
X145020866Y-108890890D01*
X144998339Y-108918339D01*
X144970890Y-108940866D01*
X144939569Y-108957607D01*
X144905591Y-108967915D01*
X144864110Y-108972000D01*
X144187890Y-108972000D01*
X144146409Y-108967915D01*
X144112431Y-108957607D01*
X144081110Y-108940866D01*
X144053661Y-108918339D01*
X144031134Y-108890890D01*
X144014393Y-108859569D01*
X144004085Y-108825591D01*
X144000000Y-108784110D01*
X144000000Y-108182890D01*
X144004085Y-108141409D01*
X144014393Y-108107431D01*
X144031134Y-108076110D01*
X144053661Y-108048661D01*
X144081110Y-108026134D01*
X144112431Y-108009393D01*
X144146409Y-107999085D01*
X144187890Y-107995000D01*
X144864110Y-107995000D01*
X144905591Y-107999085D01*
G37*
G36*
X132461000Y-108501000D02*
G01*
X131459000Y-108501000D01*
X131459000Y-106899000D01*
X132461000Y-106899000D01*
X132461000Y-108501000D01*
G37*
G36*
X121961000Y-108501000D02*
G01*
X120959000Y-108501000D01*
X120959000Y-106899000D01*
X121961000Y-106899000D01*
X121961000Y-108501000D01*
G37*
G36*
X123461000Y-108501000D02*
G01*
X122459000Y-108501000D01*
X122459000Y-106899000D01*
X123461000Y-106899000D01*
X123461000Y-108501000D01*
G37*
G36*
X120461000Y-108501000D02*
G01*
X119459000Y-108501000D01*
X119459000Y-106899000D01*
X120461000Y-106899000D01*
X120461000Y-108501000D01*
G37*
G36*
X118961000Y-108501000D02*
G01*
X117959000Y-108501000D01*
X117959000Y-106899000D01*
X118961000Y-106899000D01*
X118961000Y-108501000D01*
G37*
G36*
X136961000Y-108501000D02*
G01*
X135959000Y-108501000D01*
X135959000Y-106899000D01*
X136961000Y-106899000D01*
X136961000Y-108501000D01*
G37*
G36*
X135461000Y-108501000D02*
G01*
X134459000Y-108501000D01*
X134459000Y-106899000D01*
X135461000Y-106899000D01*
X135461000Y-108501000D01*
G37*
G36*
X133961000Y-108501000D02*
G01*
X132959000Y-108501000D01*
X132959000Y-106899000D01*
X133961000Y-106899000D01*
X133961000Y-108501000D01*
G37*
G36*
X139961000Y-108501000D02*
G01*
X138959000Y-108501000D01*
X138959000Y-106899000D01*
X139961000Y-106899000D01*
X139961000Y-108501000D01*
G37*
G36*
X141461000Y-108501000D02*
G01*
X140459000Y-108501000D01*
X140459000Y-106899000D01*
X141461000Y-106899000D01*
X141461000Y-108501000D01*
G37*
G36*
X130961000Y-108501000D02*
G01*
X129959000Y-108501000D01*
X129959000Y-106899000D01*
X130961000Y-106899000D01*
X130961000Y-108501000D01*
G37*
G36*
X129461000Y-108501000D02*
G01*
X128459000Y-108501000D01*
X128459000Y-106899000D01*
X129461000Y-106899000D01*
X129461000Y-108501000D01*
G37*
G36*
X124961000Y-108501000D02*
G01*
X123959000Y-108501000D01*
X123959000Y-106899000D01*
X124961000Y-106899000D01*
X124961000Y-108501000D01*
G37*
G36*
X126461000Y-108501000D02*
G01*
X125459000Y-108501000D01*
X125459000Y-106899000D01*
X126461000Y-106899000D01*
X126461000Y-108501000D01*
G37*
G36*
X138461000Y-108501000D02*
G01*
X137459000Y-108501000D01*
X137459000Y-106899000D01*
X138461000Y-106899000D01*
X138461000Y-108501000D01*
G37*
G36*
X127961000Y-108501000D02*
G01*
X126959000Y-108501000D01*
X126959000Y-106899000D01*
X127961000Y-106899000D01*
X127961000Y-108501000D01*
G37*
G36*
X169543591Y-107364085D02*
G01*
X169577569Y-107374393D01*
X169608890Y-107391134D01*
X169636339Y-107413661D01*
X169658866Y-107441110D01*
X169675607Y-107472431D01*
X169685915Y-107506409D01*
X169690000Y-107547890D01*
X169690000Y-108149110D01*
X169685915Y-108190591D01*
X169675607Y-108224569D01*
X169658866Y-108255890D01*
X169636339Y-108283339D01*
X169608890Y-108305866D01*
X169577569Y-108322607D01*
X169543591Y-108332915D01*
X169502110Y-108337000D01*
X168825890Y-108337000D01*
X168784409Y-108332915D01*
X168750431Y-108322607D01*
X168719110Y-108305866D01*
X168691661Y-108283339D01*
X168669134Y-108255890D01*
X168652393Y-108224569D01*
X168642085Y-108190591D01*
X168638000Y-108149110D01*
X168638000Y-107547890D01*
X168642085Y-107506409D01*
X168652393Y-107472431D01*
X168669134Y-107441110D01*
X168691661Y-107413661D01*
X168719110Y-107391134D01*
X168750431Y-107374393D01*
X168784409Y-107364085D01*
X168825890Y-107360000D01*
X169502110Y-107360000D01*
X169543591Y-107364085D01*
G37*
G36*
X175139683Y-106013725D02*
G01*
X175170143Y-106022966D01*
X175198223Y-106037974D01*
X175222831Y-106058169D01*
X175243026Y-106082777D01*
X175258034Y-106110857D01*
X175267275Y-106141317D01*
X175271000Y-106179140D01*
X175271000Y-107942860D01*
X175267275Y-107980683D01*
X175258034Y-108011143D01*
X175243026Y-108039223D01*
X175222831Y-108063831D01*
X175198223Y-108084026D01*
X175170143Y-108099034D01*
X175139683Y-108108275D01*
X175101860Y-108112000D01*
X174538140Y-108112000D01*
X174500317Y-108108275D01*
X174469857Y-108099034D01*
X174441777Y-108084026D01*
X174417169Y-108063831D01*
X174396974Y-108039223D01*
X174381966Y-108011143D01*
X174372725Y-107980683D01*
X174369000Y-107942860D01*
X174369000Y-106179140D01*
X174372725Y-106141317D01*
X174381966Y-106110857D01*
X174396974Y-106082777D01*
X174417169Y-106058169D01*
X174441777Y-106037974D01*
X174469857Y-106022966D01*
X174500317Y-106013725D01*
X174538140Y-106010000D01*
X175101860Y-106010000D01*
X175139683Y-106013725D01*
G37*
G36*
X170939683Y-106013725D02*
G01*
X170970143Y-106022966D01*
X170998223Y-106037974D01*
X171022831Y-106058169D01*
X171043026Y-106082777D01*
X171058034Y-106110857D01*
X171067275Y-106141317D01*
X171071000Y-106179140D01*
X171071000Y-107942860D01*
X171067275Y-107980683D01*
X171058034Y-108011143D01*
X171043026Y-108039223D01*
X171022831Y-108063831D01*
X170998223Y-108084026D01*
X170970143Y-108099034D01*
X170939683Y-108108275D01*
X170901860Y-108112000D01*
X170338140Y-108112000D01*
X170300317Y-108108275D01*
X170269857Y-108099034D01*
X170241777Y-108084026D01*
X170217169Y-108063831D01*
X170196974Y-108039223D01*
X170181966Y-108011143D01*
X170172725Y-107980683D01*
X170169000Y-107942860D01*
X170169000Y-106179140D01*
X170172725Y-106141317D01*
X170181966Y-106110857D01*
X170196974Y-106082777D01*
X170217169Y-106058169D01*
X170241777Y-106037974D01*
X170269857Y-106022966D01*
X170300317Y-106013725D01*
X170338140Y-106010000D01*
X170901860Y-106010000D01*
X170939683Y-106013725D01*
G37*
G36*
X144905591Y-106424085D02*
G01*
X144939569Y-106434393D01*
X144970890Y-106451134D01*
X144998339Y-106473661D01*
X145020866Y-106501110D01*
X145037607Y-106532431D01*
X145047915Y-106566409D01*
X145052000Y-106607890D01*
X145052000Y-107209110D01*
X145047915Y-107250591D01*
X145037607Y-107284569D01*
X145020866Y-107315890D01*
X144998339Y-107343339D01*
X144970890Y-107365866D01*
X144939569Y-107382607D01*
X144905591Y-107392915D01*
X144864110Y-107397000D01*
X144187890Y-107397000D01*
X144146409Y-107392915D01*
X144112431Y-107382607D01*
X144081110Y-107365866D01*
X144053661Y-107343339D01*
X144031134Y-107315890D01*
X144014393Y-107284569D01*
X144004085Y-107250591D01*
X144000000Y-107209110D01*
X144000000Y-106607890D01*
X144004085Y-106566409D01*
X144014393Y-106532431D01*
X144031134Y-106501110D01*
X144053661Y-106473661D01*
X144081110Y-106451134D01*
X144112431Y-106434393D01*
X144146409Y-106424085D01*
X144187890Y-106420000D01*
X144864110Y-106420000D01*
X144905591Y-106424085D01*
G37*
G36*
X146888468Y-106224565D02*
G01*
X146927138Y-106236296D01*
X146962777Y-106255346D01*
X146994017Y-106280983D01*
X147019654Y-106312223D01*
X147038704Y-106347862D01*
X147050435Y-106386532D01*
X147055000Y-106432888D01*
X147055000Y-107084112D01*
X147050435Y-107130468D01*
X147038704Y-107169138D01*
X147019654Y-107204777D01*
X146994017Y-107236017D01*
X146962777Y-107261654D01*
X146927138Y-107280704D01*
X146888468Y-107292435D01*
X146842112Y-107297000D01*
X145765888Y-107297000D01*
X145719532Y-107292435D01*
X145680862Y-107280704D01*
X145645223Y-107261654D01*
X145613983Y-107236017D01*
X145588346Y-107204777D01*
X145569296Y-107169138D01*
X145557565Y-107130468D01*
X145553000Y-107084112D01*
X145553000Y-106432888D01*
X145557565Y-106386532D01*
X145569296Y-106347862D01*
X145588346Y-106312223D01*
X145613983Y-106280983D01*
X145645223Y-106255346D01*
X145680862Y-106236296D01*
X145719532Y-106224565D01*
X145765888Y-106220000D01*
X146842112Y-106220000D01*
X146888468Y-106224565D01*
G37*
G36*
X169543591Y-105789085D02*
G01*
X169577569Y-105799393D01*
X169608890Y-105816134D01*
X169636339Y-105838661D01*
X169658866Y-105866110D01*
X169675607Y-105897431D01*
X169685915Y-105931409D01*
X169690000Y-105972890D01*
X169690000Y-106574110D01*
X169685915Y-106615591D01*
X169675607Y-106649569D01*
X169658866Y-106680890D01*
X169636339Y-106708339D01*
X169608890Y-106730866D01*
X169577569Y-106747607D01*
X169543591Y-106757915D01*
X169502110Y-106762000D01*
X168825890Y-106762000D01*
X168784409Y-106757915D01*
X168750431Y-106747607D01*
X168719110Y-106730866D01*
X168691661Y-106708339D01*
X168669134Y-106680890D01*
X168652393Y-106649569D01*
X168642085Y-106615591D01*
X168638000Y-106574110D01*
X168638000Y-105972890D01*
X168642085Y-105931409D01*
X168652393Y-105897431D01*
X168669134Y-105866110D01*
X168691661Y-105838661D01*
X168719110Y-105816134D01*
X168750431Y-105799393D01*
X168784409Y-105789085D01*
X168825890Y-105785000D01*
X169502110Y-105785000D01*
X169543591Y-105789085D01*
G37*
G36*
X142511000Y-106201000D02*
G01*
X140909000Y-106201000D01*
X140909000Y-105199000D01*
X142511000Y-105199000D01*
X142511000Y-106201000D01*
G37*
G36*
X150557000Y-105179000D02*
G01*
X148655000Y-105179000D01*
X148655000Y-104077000D01*
X150557000Y-104077000D01*
X150557000Y-105179000D01*
G37*
G36*
X151954591Y-104126085D02*
G01*
X151988569Y-104136393D01*
X152019890Y-104153134D01*
X152047339Y-104175661D01*
X152069866Y-104203110D01*
X152086607Y-104234431D01*
X152096915Y-104268409D01*
X152101000Y-104309890D01*
X152101000Y-104986110D01*
X152096915Y-105027591D01*
X152086607Y-105061569D01*
X152069866Y-105092890D01*
X152047339Y-105120339D01*
X152019890Y-105142866D01*
X151988569Y-105159607D01*
X151954591Y-105169915D01*
X151913110Y-105174000D01*
X151311890Y-105174000D01*
X151270409Y-105169915D01*
X151236431Y-105159607D01*
X151205110Y-105142866D01*
X151177661Y-105120339D01*
X151155134Y-105092890D01*
X151138393Y-105061569D01*
X151128085Y-105027591D01*
X151124000Y-104986110D01*
X151124000Y-104309890D01*
X151128085Y-104268409D01*
X151138393Y-104234431D01*
X151155134Y-104203110D01*
X151177661Y-104175661D01*
X151205110Y-104153134D01*
X151236431Y-104136393D01*
X151270409Y-104126085D01*
X151311890Y-104122000D01*
X151913110Y-104122000D01*
X151954591Y-104126085D01*
G37*
G36*
X153529591Y-104126085D02*
G01*
X153563569Y-104136393D01*
X153594890Y-104153134D01*
X153622339Y-104175661D01*
X153644866Y-104203110D01*
X153661607Y-104234431D01*
X153671915Y-104268409D01*
X153676000Y-104309890D01*
X153676000Y-104986110D01*
X153671915Y-105027591D01*
X153661607Y-105061569D01*
X153644866Y-105092890D01*
X153622339Y-105120339D01*
X153594890Y-105142866D01*
X153563569Y-105159607D01*
X153529591Y-105169915D01*
X153488110Y-105174000D01*
X152886890Y-105174000D01*
X152845409Y-105169915D01*
X152811431Y-105159607D01*
X152780110Y-105142866D01*
X152752661Y-105120339D01*
X152730134Y-105092890D01*
X152713393Y-105061569D01*
X152703085Y-105027591D01*
X152699000Y-104986110D01*
X152699000Y-104309890D01*
X152703085Y-104268409D01*
X152713393Y-104234431D01*
X152730134Y-104203110D01*
X152752661Y-104175661D01*
X152780110Y-104153134D01*
X152811431Y-104136393D01*
X152845409Y-104126085D01*
X152886890Y-104122000D01*
X153488110Y-104122000D01*
X153529591Y-104126085D01*
G37*
G36*
X142511000Y-104701000D02*
G01*
X140909000Y-104701000D01*
X140909000Y-103699000D01*
X142511000Y-103699000D01*
X142511000Y-104701000D01*
G37*
G36*
X144842591Y-103618085D02*
G01*
X144876569Y-103628393D01*
X144907890Y-103645134D01*
X144935339Y-103667661D01*
X144957866Y-103695110D01*
X144974607Y-103726431D01*
X144984915Y-103760409D01*
X144989000Y-103801890D01*
X144989000Y-104478110D01*
X144984915Y-104519591D01*
X144974607Y-104553569D01*
X144957866Y-104584890D01*
X144935339Y-104612339D01*
X144907890Y-104634866D01*
X144876569Y-104651607D01*
X144842591Y-104661915D01*
X144801110Y-104666000D01*
X144199890Y-104666000D01*
X144158409Y-104661915D01*
X144124431Y-104651607D01*
X144093110Y-104634866D01*
X144065661Y-104612339D01*
X144043134Y-104584890D01*
X144026393Y-104553569D01*
X144016085Y-104519591D01*
X144012000Y-104478110D01*
X144012000Y-103801890D01*
X144016085Y-103760409D01*
X144026393Y-103726431D01*
X144043134Y-103695110D01*
X144065661Y-103667661D01*
X144093110Y-103645134D01*
X144124431Y-103628393D01*
X144158409Y-103618085D01*
X144199890Y-103614000D01*
X144801110Y-103614000D01*
X144842591Y-103618085D01*
G37*
G36*
X146417591Y-103618085D02*
G01*
X146451569Y-103628393D01*
X146482890Y-103645134D01*
X146510339Y-103667661D01*
X146532866Y-103695110D01*
X146549607Y-103726431D01*
X146559915Y-103760409D01*
X146564000Y-103801890D01*
X146564000Y-104478110D01*
X146559915Y-104519591D01*
X146549607Y-104553569D01*
X146532866Y-104584890D01*
X146510339Y-104612339D01*
X146482890Y-104634866D01*
X146451569Y-104651607D01*
X146417591Y-104661915D01*
X146376110Y-104666000D01*
X145774890Y-104666000D01*
X145733409Y-104661915D01*
X145699431Y-104651607D01*
X145668110Y-104634866D01*
X145640661Y-104612339D01*
X145618134Y-104584890D01*
X145601393Y-104553569D01*
X145591085Y-104519591D01*
X145587000Y-104478110D01*
X145587000Y-103801890D01*
X145591085Y-103760409D01*
X145601393Y-103726431D01*
X145618134Y-103695110D01*
X145640661Y-103667661D01*
X145668110Y-103645134D01*
X145699431Y-103628393D01*
X145733409Y-103618085D01*
X145774890Y-103614000D01*
X146376110Y-103614000D01*
X146417591Y-103618085D01*
G37*
G36*
X147953591Y-103681085D02*
G01*
X147987569Y-103691393D01*
X148018890Y-103708134D01*
X148046339Y-103730661D01*
X148068866Y-103758110D01*
X148085607Y-103789431D01*
X148095915Y-103823409D01*
X148100000Y-103864890D01*
X148100000Y-104466110D01*
X148095915Y-104507591D01*
X148085607Y-104541569D01*
X148068866Y-104572890D01*
X148046339Y-104600339D01*
X148018890Y-104622866D01*
X147987569Y-104639607D01*
X147953591Y-104649915D01*
X147912110Y-104654000D01*
X147235890Y-104654000D01*
X147194409Y-104649915D01*
X147160431Y-104639607D01*
X147129110Y-104622866D01*
X147101661Y-104600339D01*
X147079134Y-104572890D01*
X147062393Y-104541569D01*
X147052085Y-104507591D01*
X147048000Y-104466110D01*
X147048000Y-103864890D01*
X147052085Y-103823409D01*
X147062393Y-103789431D01*
X147079134Y-103758110D01*
X147101661Y-103730661D01*
X147129110Y-103708134D01*
X147160431Y-103691393D01*
X147194409Y-103681085D01*
X147235890Y-103677000D01*
X147912110Y-103677000D01*
X147953591Y-103681085D01*
G37*
G36*
X162803000Y-104450000D02*
G01*
X161641000Y-104450000D01*
X161641000Y-103698000D01*
X162803000Y-103698000D01*
X162803000Y-104450000D01*
G37*
G36*
X165003000Y-104450000D02*
G01*
X163841000Y-104450000D01*
X163841000Y-101798000D01*
X165003000Y-101798000D01*
X165003000Y-104450000D01*
G37*
G36*
X160907591Y-103427085D02*
G01*
X160941569Y-103437393D01*
X160972890Y-103454134D01*
X161000339Y-103476661D01*
X161022866Y-103504110D01*
X161039607Y-103535431D01*
X161049915Y-103569409D01*
X161054000Y-103610890D01*
X161054000Y-104212110D01*
X161049915Y-104253591D01*
X161039607Y-104287569D01*
X161022866Y-104318890D01*
X161000339Y-104346339D01*
X160972890Y-104368866D01*
X160941569Y-104385607D01*
X160907591Y-104395915D01*
X160866110Y-104400000D01*
X160189890Y-104400000D01*
X160148409Y-104395915D01*
X160114431Y-104385607D01*
X160083110Y-104368866D01*
X160055661Y-104346339D01*
X160033134Y-104318890D01*
X160016393Y-104287569D01*
X160006085Y-104253591D01*
X160002000Y-104212110D01*
X160002000Y-103610890D01*
X160006085Y-103569409D01*
X160016393Y-103535431D01*
X160033134Y-103504110D01*
X160055661Y-103476661D01*
X160083110Y-103454134D01*
X160114431Y-103437393D01*
X160148409Y-103427085D01*
X160189890Y-103423000D01*
X160866110Y-103423000D01*
X160907591Y-103427085D01*
G37*
G36*
X166495591Y-103427085D02*
G01*
X166529569Y-103437393D01*
X166560890Y-103454134D01*
X166588339Y-103476661D01*
X166610866Y-103504110D01*
X166627607Y-103535431D01*
X166637915Y-103569409D01*
X166642000Y-103610890D01*
X166642000Y-104212110D01*
X166637915Y-104253591D01*
X166627607Y-104287569D01*
X166610866Y-104318890D01*
X166588339Y-104346339D01*
X166560890Y-104368866D01*
X166529569Y-104385607D01*
X166495591Y-104395915D01*
X166454110Y-104400000D01*
X165777890Y-104400000D01*
X165736409Y-104395915D01*
X165702431Y-104385607D01*
X165671110Y-104368866D01*
X165643661Y-104346339D01*
X165621134Y-104318890D01*
X165604393Y-104287569D01*
X165594085Y-104253591D01*
X165590000Y-104212110D01*
X165590000Y-103610890D01*
X165594085Y-103569409D01*
X165604393Y-103535431D01*
X165621134Y-103504110D01*
X165643661Y-103476661D01*
X165671110Y-103454134D01*
X165702431Y-103437393D01*
X165736409Y-103427085D01*
X165777890Y-103423000D01*
X166454110Y-103423000D01*
X166495591Y-103427085D01*
G37*
G36*
X177056000Y-102521886D02*
G01*
X177056602Y-102534138D01*
X177059149Y-102560000D01*
X177056602Y-102585862D01*
X177056000Y-102598114D01*
X177056000Y-102671406D01*
X177047043Y-102688164D01*
X177042915Y-102699701D01*
X177021183Y-102771339D01*
X177009354Y-102810336D01*
X176948906Y-102923425D01*
X176867554Y-103022554D01*
X176768425Y-103103906D01*
X176655336Y-103164354D01*
X176623404Y-103174040D01*
X176532618Y-103201580D01*
X176468855Y-103207860D01*
X176436974Y-103211000D01*
X175673026Y-103211000D01*
X175641145Y-103207860D01*
X175577382Y-103201580D01*
X175486596Y-103174040D01*
X175454664Y-103164354D01*
X175341575Y-103103906D01*
X175242446Y-103022554D01*
X175161094Y-102923425D01*
X175100646Y-102810336D01*
X175088817Y-102771339D01*
X175067087Y-102699708D01*
X175057713Y-102677075D01*
X175054000Y-102671518D01*
X175054000Y-102598114D01*
X175053398Y-102585862D01*
X175050851Y-102560000D01*
X175053398Y-102534138D01*
X175054000Y-102521886D01*
X175054000Y-101309000D01*
X177056000Y-101309000D01*
X177056000Y-102521886D01*
G37*
G36*
X142511000Y-103201000D02*
G01*
X140909000Y-103201000D01*
X140909000Y-102199000D01*
X142511000Y-102199000D01*
X142511000Y-103201000D01*
G37*
G36*
X146417591Y-102094085D02*
G01*
X146451569Y-102104393D01*
X146482890Y-102121134D01*
X146510339Y-102143661D01*
X146532866Y-102171110D01*
X146549607Y-102202431D01*
X146559915Y-102236409D01*
X146564000Y-102277890D01*
X146564000Y-102954110D01*
X146559915Y-102995591D01*
X146549607Y-103029569D01*
X146532866Y-103060890D01*
X146510339Y-103088339D01*
X146482890Y-103110866D01*
X146451569Y-103127607D01*
X146417591Y-103137915D01*
X146376110Y-103142000D01*
X145774890Y-103142000D01*
X145733409Y-103137915D01*
X145699431Y-103127607D01*
X145668110Y-103110866D01*
X145640661Y-103088339D01*
X145618134Y-103060890D01*
X145601393Y-103029569D01*
X145591085Y-102995591D01*
X145587000Y-102954110D01*
X145587000Y-102277890D01*
X145591085Y-102236409D01*
X145601393Y-102202431D01*
X145618134Y-102171110D01*
X145640661Y-102143661D01*
X145668110Y-102121134D01*
X145699431Y-102104393D01*
X145733409Y-102094085D01*
X145774890Y-102090000D01*
X146376110Y-102090000D01*
X146417591Y-102094085D01*
G37*
G36*
X144842591Y-102094085D02*
G01*
X144876569Y-102104393D01*
X144907890Y-102121134D01*
X144935339Y-102143661D01*
X144957866Y-102171110D01*
X144974607Y-102202431D01*
X144984915Y-102236409D01*
X144989000Y-102277890D01*
X144989000Y-102954110D01*
X144984915Y-102995591D01*
X144974607Y-103029569D01*
X144957866Y-103060890D01*
X144935339Y-103088339D01*
X144907890Y-103110866D01*
X144876569Y-103127607D01*
X144842591Y-103137915D01*
X144801110Y-103142000D01*
X144199890Y-103142000D01*
X144158409Y-103137915D01*
X144124431Y-103127607D01*
X144093110Y-103110866D01*
X144065661Y-103088339D01*
X144043134Y-103060890D01*
X144026393Y-103029569D01*
X144016085Y-102995591D01*
X144012000Y-102954110D01*
X144012000Y-102277890D01*
X144016085Y-102236409D01*
X144026393Y-102202431D01*
X144043134Y-102171110D01*
X144065661Y-102143661D01*
X144093110Y-102121134D01*
X144124431Y-102104393D01*
X144158409Y-102094085D01*
X144199890Y-102090000D01*
X144801110Y-102090000D01*
X144842591Y-102094085D01*
G37*
G36*
X147953591Y-102106085D02*
G01*
X147987569Y-102116393D01*
X148018890Y-102133134D01*
X148046339Y-102155661D01*
X148068866Y-102183110D01*
X148085607Y-102214431D01*
X148095915Y-102248409D01*
X148100000Y-102289890D01*
X148100000Y-102891110D01*
X148095915Y-102932591D01*
X148085607Y-102966569D01*
X148068866Y-102997890D01*
X148046339Y-103025339D01*
X148018890Y-103047866D01*
X147987569Y-103064607D01*
X147953591Y-103074915D01*
X147912110Y-103079000D01*
X147235890Y-103079000D01*
X147194409Y-103074915D01*
X147160431Y-103064607D01*
X147129110Y-103047866D01*
X147101661Y-103025339D01*
X147079134Y-102997890D01*
X147062393Y-102966569D01*
X147052085Y-102932591D01*
X147048000Y-102891110D01*
X147048000Y-102289890D01*
X147052085Y-102248409D01*
X147062393Y-102214431D01*
X147079134Y-102183110D01*
X147101661Y-102155661D01*
X147129110Y-102133134D01*
X147160431Y-102116393D01*
X147194409Y-102106085D01*
X147235890Y-102102000D01*
X147912110Y-102102000D01*
X147953591Y-102106085D01*
G37*
G36*
X160907591Y-101852085D02*
G01*
X160941569Y-101862393D01*
X160972890Y-101879134D01*
X161000339Y-101901661D01*
X161022866Y-101929110D01*
X161039607Y-101960431D01*
X161049915Y-101994409D01*
X161054000Y-102035890D01*
X161054000Y-102637110D01*
X161049915Y-102678591D01*
X161039607Y-102712569D01*
X161022866Y-102743890D01*
X161000339Y-102771339D01*
X160972890Y-102793866D01*
X160941569Y-102810607D01*
X160907591Y-102820915D01*
X160866110Y-102825000D01*
X160189890Y-102825000D01*
X160148409Y-102820915D01*
X160114431Y-102810607D01*
X160083110Y-102793866D01*
X160055661Y-102771339D01*
X160033134Y-102743890D01*
X160016393Y-102712569D01*
X160006085Y-102678591D01*
X160002000Y-102637110D01*
X160002000Y-102035890D01*
X160006085Y-101994409D01*
X160016393Y-101960431D01*
X160033134Y-101929110D01*
X160055661Y-101901661D01*
X160083110Y-101879134D01*
X160114431Y-101862393D01*
X160148409Y-101852085D01*
X160189890Y-101848000D01*
X160866110Y-101848000D01*
X160907591Y-101852085D01*
G37*
G36*
X166495591Y-101852085D02*
G01*
X166529569Y-101862393D01*
X166560890Y-101879134D01*
X166588339Y-101901661D01*
X166610866Y-101929110D01*
X166627607Y-101960431D01*
X166637915Y-101994409D01*
X166642000Y-102035890D01*
X166642000Y-102637110D01*
X166637915Y-102678591D01*
X166627607Y-102712569D01*
X166610866Y-102743890D01*
X166588339Y-102771339D01*
X166560890Y-102793866D01*
X166529569Y-102810607D01*
X166495591Y-102820915D01*
X166454110Y-102825000D01*
X165777890Y-102825000D01*
X165736409Y-102820915D01*
X165702431Y-102810607D01*
X165671110Y-102793866D01*
X165643661Y-102771339D01*
X165621134Y-102743890D01*
X165604393Y-102712569D01*
X165594085Y-102678591D01*
X165590000Y-102637110D01*
X165590000Y-102035890D01*
X165594085Y-101994409D01*
X165604393Y-101960431D01*
X165621134Y-101929110D01*
X165643661Y-101901661D01*
X165671110Y-101879134D01*
X165702431Y-101862393D01*
X165736409Y-101852085D01*
X165777890Y-101848000D01*
X166454110Y-101848000D01*
X166495591Y-101852085D01*
G37*
G36*
X170484091Y-101649585D02*
G01*
X170518069Y-101659893D01*
X170549390Y-101676634D01*
X170576839Y-101699161D01*
X170599366Y-101726610D01*
X170616107Y-101757931D01*
X170626415Y-101791909D01*
X170630500Y-101833390D01*
X170630500Y-102509610D01*
X170626415Y-102551091D01*
X170616107Y-102585069D01*
X170599366Y-102616390D01*
X170576839Y-102643839D01*
X170549390Y-102666366D01*
X170518069Y-102683107D01*
X170484091Y-102693415D01*
X170442610Y-102697500D01*
X169841390Y-102697500D01*
X169799909Y-102693415D01*
X169765931Y-102683107D01*
X169734610Y-102666366D01*
X169707161Y-102643839D01*
X169684634Y-102616390D01*
X169667893Y-102585069D01*
X169657585Y-102551091D01*
X169653500Y-102509610D01*
X169653500Y-101833390D01*
X169657585Y-101791909D01*
X169667893Y-101757931D01*
X169684634Y-101726610D01*
X169707161Y-101699161D01*
X169734610Y-101676634D01*
X169765931Y-101659893D01*
X169799909Y-101649585D01*
X169841390Y-101645500D01*
X170442610Y-101645500D01*
X170484091Y-101649585D01*
G37*
G36*
X168909091Y-101649585D02*
G01*
X168943069Y-101659893D01*
X168974390Y-101676634D01*
X169001839Y-101699161D01*
X169024366Y-101726610D01*
X169041107Y-101757931D01*
X169051415Y-101791909D01*
X169055500Y-101833390D01*
X169055500Y-102509610D01*
X169051415Y-102551091D01*
X169041107Y-102585069D01*
X169024366Y-102616390D01*
X169001839Y-102643839D01*
X168974390Y-102666366D01*
X168943069Y-102683107D01*
X168909091Y-102693415D01*
X168867610Y-102697500D01*
X168266390Y-102697500D01*
X168224909Y-102693415D01*
X168190931Y-102683107D01*
X168159610Y-102666366D01*
X168132161Y-102643839D01*
X168109634Y-102616390D01*
X168092893Y-102585069D01*
X168082585Y-102551091D01*
X168078500Y-102509610D01*
X168078500Y-101833390D01*
X168082585Y-101791909D01*
X168092893Y-101757931D01*
X168109634Y-101726610D01*
X168132161Y-101699161D01*
X168159610Y-101676634D01*
X168190931Y-101659893D01*
X168224909Y-101649585D01*
X168266390Y-101645500D01*
X168867610Y-101645500D01*
X168909091Y-101649585D01*
G37*
G36*
X150557000Y-102679000D02*
G01*
X148655000Y-102679000D01*
X148655000Y-101577000D01*
X150557000Y-101577000D01*
X150557000Y-102679000D01*
G37*
G36*
X153529591Y-101586085D02*
G01*
X153563569Y-101596393D01*
X153594890Y-101613134D01*
X153622339Y-101635661D01*
X153644866Y-101663110D01*
X153661607Y-101694431D01*
X153671915Y-101728409D01*
X153676000Y-101769890D01*
X153676000Y-102446110D01*
X153671915Y-102487591D01*
X153661607Y-102521569D01*
X153644866Y-102552890D01*
X153622339Y-102580339D01*
X153594890Y-102602866D01*
X153563569Y-102619607D01*
X153529591Y-102629915D01*
X153488110Y-102634000D01*
X152886890Y-102634000D01*
X152845409Y-102629915D01*
X152811431Y-102619607D01*
X152780110Y-102602866D01*
X152752661Y-102580339D01*
X152730134Y-102552890D01*
X152713393Y-102521569D01*
X152703085Y-102487591D01*
X152699000Y-102446110D01*
X152699000Y-101769890D01*
X152703085Y-101728409D01*
X152713393Y-101694431D01*
X152730134Y-101663110D01*
X152752661Y-101635661D01*
X152780110Y-101613134D01*
X152811431Y-101596393D01*
X152845409Y-101586085D01*
X152886890Y-101582000D01*
X153488110Y-101582000D01*
X153529591Y-101586085D01*
G37*
G36*
X151954591Y-101586085D02*
G01*
X151988569Y-101596393D01*
X152019890Y-101613134D01*
X152047339Y-101635661D01*
X152069866Y-101663110D01*
X152086607Y-101694431D01*
X152096915Y-101728409D01*
X152101000Y-101769890D01*
X152101000Y-102446110D01*
X152096915Y-102487591D01*
X152086607Y-102521569D01*
X152069866Y-102552890D01*
X152047339Y-102580339D01*
X152019890Y-102602866D01*
X151988569Y-102619607D01*
X151954591Y-102629915D01*
X151913110Y-102634000D01*
X151311890Y-102634000D01*
X151270409Y-102629915D01*
X151236431Y-102619607D01*
X151205110Y-102602866D01*
X151177661Y-102580339D01*
X151155134Y-102552890D01*
X151138393Y-102521569D01*
X151128085Y-102487591D01*
X151124000Y-102446110D01*
X151124000Y-101769890D01*
X151128085Y-101728409D01*
X151138393Y-101694431D01*
X151155134Y-101663110D01*
X151177661Y-101635661D01*
X151205110Y-101613134D01*
X151236431Y-101596393D01*
X151270409Y-101586085D01*
X151311890Y-101582000D01*
X151913110Y-101582000D01*
X151954591Y-101586085D01*
G37*
G36*
X162803000Y-102550000D02*
G01*
X161641000Y-102550000D01*
X161641000Y-101798000D01*
X162803000Y-101798000D01*
X162803000Y-102550000D01*
G37*
G36*
X173581348Y-95813820D02*
G01*
X173581350Y-95813821D01*
X173581351Y-95813821D01*
X173722574Y-95872317D01*
X173722577Y-95872319D01*
X173849669Y-95957239D01*
X173957761Y-96065331D01*
X174035643Y-96181890D01*
X174042683Y-96192426D01*
X174081695Y-96286610D01*
X174101180Y-96333652D01*
X174131000Y-96483569D01*
X174131000Y-96636431D01*
X174102919Y-96777607D01*
X174101179Y-96786351D01*
X174042683Y-96927574D01*
X174042681Y-96927577D01*
X173957761Y-97054669D01*
X173849669Y-97162761D01*
X173801641Y-97194852D01*
X173722574Y-97247683D01*
X173672272Y-97268519D01*
X173650664Y-97280068D01*
X173631722Y-97295614D01*
X173616177Y-97314556D01*
X173604626Y-97336166D01*
X173597513Y-97359615D01*
X173595111Y-97384001D01*
X173597513Y-97408387D01*
X173604626Y-97431836D01*
X173616177Y-97453447D01*
X173631723Y-97472389D01*
X173650665Y-97487934D01*
X173672275Y-97499485D01*
X173695724Y-97506598D01*
X173720110Y-97509000D01*
X174081000Y-97509000D01*
X174081000Y-100611000D01*
X173720110Y-100611000D01*
X173695724Y-100613402D01*
X173672275Y-100620515D01*
X173650664Y-100632066D01*
X173631722Y-100647611D01*
X173616177Y-100666553D01*
X173604626Y-100688164D01*
X173597513Y-100711613D01*
X173595111Y-100735999D01*
X173597513Y-100760385D01*
X173604626Y-100783834D01*
X173616177Y-100805445D01*
X173631722Y-100824387D01*
X173650664Y-100839932D01*
X173672272Y-100851481D01*
X173722574Y-100872317D01*
X173722575Y-100872318D01*
X173849669Y-100957239D01*
X173957761Y-101065331D01*
X174042681Y-101192423D01*
X174042683Y-101192426D01*
X174090969Y-101309000D01*
X174101180Y-101333652D01*
X174131000Y-101483569D01*
X174131000Y-101636431D01*
X174104454Y-101769890D01*
X174101179Y-101786351D01*
X174042683Y-101927574D01*
X174042681Y-101927577D01*
X173957761Y-102054669D01*
X173849669Y-102162761D01*
X173772339Y-102214431D01*
X173722574Y-102247683D01*
X173581351Y-102306179D01*
X173581350Y-102306179D01*
X173581348Y-102306180D01*
X173431431Y-102336000D01*
X173278569Y-102336000D01*
X173128652Y-102306180D01*
X173128650Y-102306179D01*
X173128649Y-102306179D01*
X172987426Y-102247683D01*
X172937661Y-102214431D01*
X172860331Y-102162761D01*
X172752239Y-102054669D01*
X172667319Y-101927577D01*
X172667317Y-101927574D01*
X172608821Y-101786351D01*
X172605547Y-101769890D01*
X172579000Y-101636431D01*
X172579000Y-101483569D01*
X172608820Y-101333652D01*
X172619031Y-101309000D01*
X172667317Y-101192426D01*
X172667319Y-101192423D01*
X172752239Y-101065331D01*
X172860331Y-100957239D01*
X172987425Y-100872318D01*
X172987426Y-100872317D01*
X173037728Y-100851481D01*
X173059336Y-100839932D01*
X173078278Y-100824386D01*
X173093823Y-100805444D01*
X173105374Y-100783834D01*
X173112487Y-100760385D01*
X173114889Y-100735999D01*
X173112487Y-100711613D01*
X173105374Y-100688164D01*
X173093823Y-100666553D01*
X173078277Y-100647611D01*
X173059335Y-100632066D01*
X173037725Y-100620515D01*
X173014276Y-100613402D01*
X172989890Y-100611000D01*
X172629000Y-100611000D01*
X172629000Y-97509000D01*
X172989890Y-97509000D01*
X173014276Y-97506598D01*
X173037725Y-97499485D01*
X173059336Y-97487934D01*
X173078278Y-97472389D01*
X173093823Y-97453447D01*
X173105374Y-97431836D01*
X173112487Y-97408387D01*
X173114889Y-97384001D01*
X173112487Y-97359615D01*
X173105374Y-97336166D01*
X173093823Y-97314555D01*
X173078278Y-97295613D01*
X173059336Y-97280068D01*
X173037728Y-97268519D01*
X172987426Y-97247683D01*
X172908359Y-97194852D01*
X172860331Y-97162761D01*
X172752239Y-97054669D01*
X172667319Y-96927577D01*
X172667317Y-96927574D01*
X172608821Y-96786351D01*
X172607082Y-96777607D01*
X172579000Y-96636431D01*
X172579000Y-96483569D01*
X172608820Y-96333652D01*
X172628305Y-96286610D01*
X172667317Y-96192426D01*
X172674357Y-96181890D01*
X172752239Y-96065331D01*
X172860331Y-95957239D01*
X172987423Y-95872319D01*
X172987426Y-95872317D01*
X173128649Y-95813821D01*
X173128650Y-95813821D01*
X173128652Y-95813820D01*
X173278569Y-95784000D01*
X173431431Y-95784000D01*
X173581348Y-95813820D01*
G37*
G36*
X125611000Y-102241000D02*
G01*
X124409000Y-102241000D01*
X124409000Y-101039000D01*
X125611000Y-101039000D01*
X125611000Y-102241000D01*
G37*
G36*
X128611000Y-102241000D02*
G01*
X127409000Y-102241000D01*
X127409000Y-101039000D01*
X128611000Y-101039000D01*
X128611000Y-102241000D01*
G37*
G36*
X127111000Y-102241000D02*
G01*
X125909000Y-102241000D01*
X125909000Y-101039000D01*
X127111000Y-101039000D01*
X127111000Y-102241000D01*
G37*
G36*
X142511000Y-101701000D02*
G01*
X140909000Y-101701000D01*
X140909000Y-100699000D01*
X142511000Y-100699000D01*
X142511000Y-101701000D01*
G37*
G36*
X170617000Y-101058500D02*
G01*
X167965000Y-101058500D01*
X167965000Y-99896500D01*
X170617000Y-99896500D01*
X170617000Y-101058500D01*
G37*
G36*
X177056000Y-100861000D02*
G01*
X175054000Y-100861000D01*
X175054000Y-99259000D01*
X177056000Y-99259000D01*
X177056000Y-100861000D01*
G37*
G36*
X128611000Y-100741000D02*
G01*
X127409000Y-100741000D01*
X127409000Y-99539000D01*
X128611000Y-99539000D01*
X128611000Y-100741000D01*
G37*
G36*
X127111000Y-100741000D02*
G01*
X125909000Y-100741000D01*
X125909000Y-99539000D01*
X127111000Y-99539000D01*
X127111000Y-100741000D01*
G37*
G36*
X125611000Y-100741000D02*
G01*
X124409000Y-100741000D01*
X124409000Y-99539000D01*
X125611000Y-99539000D01*
X125611000Y-100741000D01*
G37*
G36*
X142511000Y-100201000D02*
G01*
X140909000Y-100201000D01*
X140909000Y-99199000D01*
X142511000Y-99199000D01*
X142511000Y-100201000D01*
G37*
G36*
X144842591Y-98792085D02*
G01*
X144876569Y-98802393D01*
X144907890Y-98819134D01*
X144935339Y-98841661D01*
X144957866Y-98869110D01*
X144974607Y-98900431D01*
X144984915Y-98934409D01*
X144989000Y-98975890D01*
X144989000Y-99652110D01*
X144984915Y-99693591D01*
X144974607Y-99727569D01*
X144957866Y-99758890D01*
X144935339Y-99786339D01*
X144907890Y-99808866D01*
X144876569Y-99825607D01*
X144842591Y-99835915D01*
X144801110Y-99840000D01*
X144199890Y-99840000D01*
X144158409Y-99835915D01*
X144124431Y-99825607D01*
X144093110Y-99808866D01*
X144065661Y-99786339D01*
X144043134Y-99758890D01*
X144026393Y-99727569D01*
X144016085Y-99693591D01*
X144012000Y-99652110D01*
X144012000Y-98975890D01*
X144016085Y-98934409D01*
X144026393Y-98900431D01*
X144043134Y-98869110D01*
X144065661Y-98841661D01*
X144093110Y-98819134D01*
X144124431Y-98802393D01*
X144158409Y-98792085D01*
X144199890Y-98788000D01*
X144801110Y-98788000D01*
X144842591Y-98792085D01*
G37*
G36*
X146417591Y-98792085D02*
G01*
X146451569Y-98802393D01*
X146482890Y-98819134D01*
X146510339Y-98841661D01*
X146532866Y-98869110D01*
X146549607Y-98900431D01*
X146559915Y-98934409D01*
X146564000Y-98975890D01*
X146564000Y-99652110D01*
X146559915Y-99693591D01*
X146549607Y-99727569D01*
X146532866Y-99758890D01*
X146510339Y-99786339D01*
X146482890Y-99808866D01*
X146451569Y-99825607D01*
X146417591Y-99835915D01*
X146376110Y-99840000D01*
X145774890Y-99840000D01*
X145733409Y-99835915D01*
X145699431Y-99825607D01*
X145668110Y-99808866D01*
X145640661Y-99786339D01*
X145618134Y-99758890D01*
X145601393Y-99727569D01*
X145591085Y-99693591D01*
X145587000Y-99652110D01*
X145587000Y-98975890D01*
X145591085Y-98934409D01*
X145601393Y-98900431D01*
X145618134Y-98869110D01*
X145640661Y-98841661D01*
X145668110Y-98819134D01*
X145699431Y-98802393D01*
X145733409Y-98792085D01*
X145774890Y-98788000D01*
X146376110Y-98788000D01*
X146417591Y-98792085D01*
G37*
G36*
X128611000Y-99241000D02*
G01*
X127409000Y-99241000D01*
X127409000Y-98039000D01*
X128611000Y-98039000D01*
X128611000Y-99241000D01*
G37*
G36*
X125611000Y-99241000D02*
G01*
X124409000Y-99241000D01*
X124409000Y-98039000D01*
X125611000Y-98039000D01*
X125611000Y-99241000D01*
G37*
G36*
X127111000Y-99241000D02*
G01*
X125909000Y-99241000D01*
X125909000Y-98039000D01*
X127111000Y-98039000D01*
X127111000Y-99241000D01*
G37*
G36*
X177056000Y-98861000D02*
G01*
X175054000Y-98861000D01*
X175054000Y-97259000D01*
X177056000Y-97259000D01*
X177056000Y-98861000D01*
G37*
G36*
X170617000Y-98858500D02*
G01*
X167965000Y-98858500D01*
X167965000Y-97696500D01*
X170617000Y-97696500D01*
X170617000Y-98858500D01*
G37*
G36*
X142511000Y-98701000D02*
G01*
X140909000Y-98701000D01*
X140909000Y-97699000D01*
X142511000Y-97699000D01*
X142511000Y-98701000D01*
G37*
G36*
X152640591Y-97585585D02*
G01*
X152674569Y-97595893D01*
X152705890Y-97612634D01*
X152733339Y-97635161D01*
X152755866Y-97662610D01*
X152772607Y-97693931D01*
X152782915Y-97727909D01*
X152787000Y-97769390D01*
X152787000Y-98445610D01*
X152782915Y-98487091D01*
X152772607Y-98521069D01*
X152755866Y-98552390D01*
X152733339Y-98579839D01*
X152705890Y-98602366D01*
X152674569Y-98619107D01*
X152640591Y-98629415D01*
X152599110Y-98633500D01*
X151997890Y-98633500D01*
X151956409Y-98629415D01*
X151922431Y-98619107D01*
X151891110Y-98602366D01*
X151863661Y-98579839D01*
X151841134Y-98552390D01*
X151824393Y-98521069D01*
X151814085Y-98487091D01*
X151810000Y-98445610D01*
X151810000Y-97769390D01*
X151814085Y-97727909D01*
X151824393Y-97693931D01*
X151841134Y-97662610D01*
X151863661Y-97635161D01*
X151891110Y-97612634D01*
X151922431Y-97595893D01*
X151956409Y-97585585D01*
X151997890Y-97581500D01*
X152599110Y-97581500D01*
X152640591Y-97585585D01*
G37*
G36*
X151065591Y-97585585D02*
G01*
X151099569Y-97595893D01*
X151130890Y-97612634D01*
X151158339Y-97635161D01*
X151180866Y-97662610D01*
X151197607Y-97693931D01*
X151207915Y-97727909D01*
X151212000Y-97769390D01*
X151212000Y-98445610D01*
X151207915Y-98487091D01*
X151197607Y-98521069D01*
X151180866Y-98552390D01*
X151158339Y-98579839D01*
X151130890Y-98602366D01*
X151099569Y-98619107D01*
X151065591Y-98629415D01*
X151024110Y-98633500D01*
X150422890Y-98633500D01*
X150381409Y-98629415D01*
X150347431Y-98619107D01*
X150316110Y-98602366D01*
X150288661Y-98579839D01*
X150266134Y-98552390D01*
X150249393Y-98521069D01*
X150239085Y-98487091D01*
X150235000Y-98445610D01*
X150235000Y-97769390D01*
X150239085Y-97727909D01*
X150249393Y-97693931D01*
X150266134Y-97662610D01*
X150288661Y-97635161D01*
X150316110Y-97612634D01*
X150347431Y-97595893D01*
X150381409Y-97585585D01*
X150422890Y-97581500D01*
X151024110Y-97581500D01*
X151065591Y-97585585D01*
G37*
G36*
X146417591Y-97268085D02*
G01*
X146451569Y-97278393D01*
X146482890Y-97295134D01*
X146510339Y-97317661D01*
X146532866Y-97345110D01*
X146549607Y-97376431D01*
X146559915Y-97410409D01*
X146564000Y-97451890D01*
X146564000Y-98128110D01*
X146559915Y-98169591D01*
X146549607Y-98203569D01*
X146532866Y-98234890D01*
X146510339Y-98262339D01*
X146482890Y-98284866D01*
X146451569Y-98301607D01*
X146417591Y-98311915D01*
X146376110Y-98316000D01*
X145774890Y-98316000D01*
X145733409Y-98311915D01*
X145699431Y-98301607D01*
X145668110Y-98284866D01*
X145640661Y-98262339D01*
X145618134Y-98234890D01*
X145601393Y-98203569D01*
X145591085Y-98169591D01*
X145587000Y-98128110D01*
X145587000Y-97451890D01*
X145591085Y-97410409D01*
X145601393Y-97376431D01*
X145618134Y-97345110D01*
X145640661Y-97317661D01*
X145668110Y-97295134D01*
X145699431Y-97278393D01*
X145733409Y-97268085D01*
X145774890Y-97264000D01*
X146376110Y-97264000D01*
X146417591Y-97268085D01*
G37*
G36*
X144842591Y-97268085D02*
G01*
X144876569Y-97278393D01*
X144907890Y-97295134D01*
X144935339Y-97317661D01*
X144957866Y-97345110D01*
X144974607Y-97376431D01*
X144984915Y-97410409D01*
X144989000Y-97451890D01*
X144989000Y-98128110D01*
X144984915Y-98169591D01*
X144974607Y-98203569D01*
X144957866Y-98234890D01*
X144935339Y-98262339D01*
X144907890Y-98284866D01*
X144876569Y-98301607D01*
X144842591Y-98311915D01*
X144801110Y-98316000D01*
X144199890Y-98316000D01*
X144158409Y-98311915D01*
X144124431Y-98301607D01*
X144093110Y-98284866D01*
X144065661Y-98262339D01*
X144043134Y-98234890D01*
X144026393Y-98203569D01*
X144016085Y-98169591D01*
X144012000Y-98128110D01*
X144012000Y-97451890D01*
X144016085Y-97410409D01*
X144026393Y-97376431D01*
X144043134Y-97345110D01*
X144065661Y-97317661D01*
X144093110Y-97295134D01*
X144124431Y-97278393D01*
X144158409Y-97268085D01*
X144199890Y-97264000D01*
X144801110Y-97264000D01*
X144842591Y-97268085D01*
G37*
G36*
X142511000Y-97201000D02*
G01*
X140909000Y-97201000D01*
X140909000Y-96199000D01*
X142511000Y-96199000D01*
X142511000Y-97201000D01*
G37*
G36*
X163308999Y-95592737D02*
G01*
X163318608Y-95595652D01*
X163327472Y-95600390D01*
X163335237Y-95606763D01*
X163345448Y-95619206D01*
X163352378Y-95629575D01*
X163369705Y-95646902D01*
X163390080Y-95660515D01*
X163412720Y-95669891D01*
X163436753Y-95674671D01*
X163461257Y-95674670D01*
X163485290Y-95669888D01*
X163507929Y-95660510D01*
X163528302Y-95646895D01*
X163545629Y-95629568D01*
X163552558Y-95619198D01*
X163562763Y-95606763D01*
X163570528Y-95600390D01*
X163579392Y-95595652D01*
X163589001Y-95592737D01*
X163605140Y-95591148D01*
X164092861Y-95591148D01*
X164111199Y-95592954D01*
X164123450Y-95593556D01*
X164141869Y-95593556D01*
X164164149Y-95595750D01*
X164248233Y-95612476D01*
X164269660Y-95618976D01*
X164348858Y-95651780D01*
X164354303Y-95654691D01*
X164354309Y-95654693D01*
X164363169Y-95659429D01*
X164363173Y-95659432D01*
X164368614Y-95662340D01*
X164439899Y-95709971D01*
X164457204Y-95724172D01*
X164517828Y-95784796D01*
X164532029Y-95802101D01*
X164579660Y-95873386D01*
X164582568Y-95878827D01*
X164582571Y-95878831D01*
X164587307Y-95887691D01*
X164587309Y-95887697D01*
X164590220Y-95893142D01*
X164623024Y-95972340D01*
X164629524Y-95993767D01*
X164646250Y-96077851D01*
X164648444Y-96100131D01*
X164648444Y-96118550D01*
X164649046Y-96130801D01*
X164650852Y-96149139D01*
X164650852Y-96636862D01*
X164649046Y-96655199D01*
X164648444Y-96667450D01*
X164648444Y-96685869D01*
X164646250Y-96708149D01*
X164629524Y-96792233D01*
X164623024Y-96813660D01*
X164590220Y-96892858D01*
X164587309Y-96898303D01*
X164587307Y-96898309D01*
X164582571Y-96907169D01*
X164582568Y-96907173D01*
X164579660Y-96912614D01*
X164532029Y-96983899D01*
X164517828Y-97001204D01*
X164457204Y-97061828D01*
X164439899Y-97076029D01*
X164368614Y-97123660D01*
X164363173Y-97126568D01*
X164363169Y-97126571D01*
X164354309Y-97131307D01*
X164354303Y-97131309D01*
X164348858Y-97134220D01*
X164269660Y-97167024D01*
X164248233Y-97173524D01*
X164164149Y-97190250D01*
X164141869Y-97192444D01*
X164123450Y-97192444D01*
X164111199Y-97193046D01*
X164092862Y-97194852D01*
X163605140Y-97194852D01*
X163589001Y-97193263D01*
X163579392Y-97190348D01*
X163570528Y-97185610D01*
X163562763Y-97179237D01*
X163552552Y-97166794D01*
X163545622Y-97156425D01*
X163528295Y-97139098D01*
X163507920Y-97125485D01*
X163485280Y-97116109D01*
X163461247Y-97111329D01*
X163436743Y-97111330D01*
X163412710Y-97116112D01*
X163390071Y-97125490D01*
X163369698Y-97139105D01*
X163352371Y-97156432D01*
X163345442Y-97166802D01*
X163335237Y-97179237D01*
X163327472Y-97185610D01*
X163318608Y-97190348D01*
X163308999Y-97193263D01*
X163292860Y-97194852D01*
X162805138Y-97194852D01*
X162786801Y-97193046D01*
X162774550Y-97192444D01*
X162756131Y-97192444D01*
X162733851Y-97190250D01*
X162649767Y-97173524D01*
X162628340Y-97167024D01*
X162549142Y-97134220D01*
X162543697Y-97131309D01*
X162543691Y-97131307D01*
X162534831Y-97126571D01*
X162534827Y-97126568D01*
X162529386Y-97123660D01*
X162458101Y-97076029D01*
X162440796Y-97061828D01*
X162380172Y-97001204D01*
X162365971Y-96983899D01*
X162318340Y-96912614D01*
X162315432Y-96907173D01*
X162315429Y-96907169D01*
X162310693Y-96898309D01*
X162310691Y-96898303D01*
X162307780Y-96892858D01*
X162274976Y-96813660D01*
X162268476Y-96792233D01*
X162251750Y-96708149D01*
X162249556Y-96685869D01*
X162249556Y-96667450D01*
X162248954Y-96655199D01*
X162247148Y-96636862D01*
X162247148Y-96149139D01*
X162248954Y-96130801D01*
X162249556Y-96118550D01*
X162249556Y-96100131D01*
X162251750Y-96077851D01*
X162268476Y-95993767D01*
X162274976Y-95972340D01*
X162307780Y-95893142D01*
X162310691Y-95887697D01*
X162310693Y-95887691D01*
X162315429Y-95878831D01*
X162315432Y-95878827D01*
X162318340Y-95873386D01*
X162365971Y-95802101D01*
X162380172Y-95784796D01*
X162440796Y-95724172D01*
X162458101Y-95709971D01*
X162529386Y-95662340D01*
X162534827Y-95659432D01*
X162534831Y-95659429D01*
X162543691Y-95654693D01*
X162543697Y-95654691D01*
X162549142Y-95651780D01*
X162628340Y-95618976D01*
X162649767Y-95612476D01*
X162733851Y-95595750D01*
X162756131Y-95593556D01*
X162774550Y-95593556D01*
X162786801Y-95592954D01*
X162805139Y-95591148D01*
X163292860Y-95591148D01*
X163308999Y-95592737D01*
G37*
G36*
X170420591Y-95998085D02*
G01*
X170454569Y-96008393D01*
X170485890Y-96025134D01*
X170513339Y-96047661D01*
X170535866Y-96075110D01*
X170552607Y-96106431D01*
X170562915Y-96140409D01*
X170567000Y-96181890D01*
X170567000Y-96858110D01*
X170562915Y-96899591D01*
X170552607Y-96933569D01*
X170535866Y-96964890D01*
X170513339Y-96992339D01*
X170485890Y-97014866D01*
X170454569Y-97031607D01*
X170420591Y-97041915D01*
X170379110Y-97046000D01*
X169777890Y-97046000D01*
X169736409Y-97041915D01*
X169702431Y-97031607D01*
X169671110Y-97014866D01*
X169643661Y-96992339D01*
X169621134Y-96964890D01*
X169604393Y-96933569D01*
X169594085Y-96899591D01*
X169590000Y-96858110D01*
X169590000Y-96181890D01*
X169594085Y-96140409D01*
X169604393Y-96106431D01*
X169621134Y-96075110D01*
X169643661Y-96047661D01*
X169671110Y-96025134D01*
X169702431Y-96008393D01*
X169736409Y-95998085D01*
X169777890Y-95994000D01*
X170379110Y-95994000D01*
X170420591Y-95998085D01*
G37*
G36*
X168845591Y-95998085D02*
G01*
X168879569Y-96008393D01*
X168910890Y-96025134D01*
X168938339Y-96047661D01*
X168960866Y-96075110D01*
X168977607Y-96106431D01*
X168987915Y-96140409D01*
X168992000Y-96181890D01*
X168992000Y-96858110D01*
X168987915Y-96899591D01*
X168977607Y-96933569D01*
X168960866Y-96964890D01*
X168938339Y-96992339D01*
X168910890Y-97014866D01*
X168879569Y-97031607D01*
X168845591Y-97041915D01*
X168804110Y-97046000D01*
X168202890Y-97046000D01*
X168161409Y-97041915D01*
X168127431Y-97031607D01*
X168096110Y-97014866D01*
X168068661Y-96992339D01*
X168046134Y-96964890D01*
X168029393Y-96933569D01*
X168019085Y-96899591D01*
X168015000Y-96858110D01*
X168015000Y-96181890D01*
X168019085Y-96140409D01*
X168029393Y-96106431D01*
X168046134Y-96075110D01*
X168068661Y-96047661D01*
X168096110Y-96025134D01*
X168127431Y-96008393D01*
X168161409Y-95998085D01*
X168202890Y-95994000D01*
X168804110Y-95994000D01*
X168845591Y-95998085D01*
G37*
G36*
X176468855Y-94912140D02*
G01*
X176532618Y-94918420D01*
X176623404Y-94945960D01*
X176655336Y-94955646D01*
X176768425Y-95016094D01*
X176867554Y-95097446D01*
X176948906Y-95196575D01*
X177009354Y-95309664D01*
X177009355Y-95309668D01*
X177042913Y-95420292D01*
X177052287Y-95442925D01*
X177056000Y-95448482D01*
X177056000Y-95521886D01*
X177056602Y-95534138D01*
X177059149Y-95560000D01*
X177056602Y-95585862D01*
X177056000Y-95598114D01*
X177056000Y-96811000D01*
X175054000Y-96811000D01*
X175054000Y-95598114D01*
X175053398Y-95585862D01*
X175050851Y-95560000D01*
X175053398Y-95534138D01*
X175054000Y-95521886D01*
X175054000Y-95448594D01*
X175062957Y-95431836D01*
X175067085Y-95420299D01*
X175100645Y-95309668D01*
X175100646Y-95309664D01*
X175161094Y-95196575D01*
X175242446Y-95097446D01*
X175341575Y-95016094D01*
X175454664Y-94955646D01*
X175486596Y-94945960D01*
X175577382Y-94918420D01*
X175641145Y-94912140D01*
X175673026Y-94909000D01*
X176436974Y-94909000D01*
X176468855Y-94912140D01*
G37*
G36*
X146417591Y-95744085D02*
G01*
X146451569Y-95754393D01*
X146482890Y-95771134D01*
X146510339Y-95793661D01*
X146532866Y-95821110D01*
X146549607Y-95852431D01*
X146559915Y-95886409D01*
X146564000Y-95927890D01*
X146564000Y-96604110D01*
X146559915Y-96645591D01*
X146549607Y-96679569D01*
X146532866Y-96710890D01*
X146510339Y-96738339D01*
X146482890Y-96760866D01*
X146451569Y-96777607D01*
X146417591Y-96787915D01*
X146376110Y-96792000D01*
X145774890Y-96792000D01*
X145733409Y-96787915D01*
X145699431Y-96777607D01*
X145668110Y-96760866D01*
X145640661Y-96738339D01*
X145618134Y-96710890D01*
X145601393Y-96679569D01*
X145591085Y-96645591D01*
X145587000Y-96604110D01*
X145587000Y-95927890D01*
X145591085Y-95886409D01*
X145601393Y-95852431D01*
X145618134Y-95821110D01*
X145640661Y-95793661D01*
X145668110Y-95771134D01*
X145699431Y-95754393D01*
X145733409Y-95744085D01*
X145774890Y-95740000D01*
X146376110Y-95740000D01*
X146417591Y-95744085D01*
G37*
G36*
X144842591Y-95744085D02*
G01*
X144876569Y-95754393D01*
X144907890Y-95771134D01*
X144935339Y-95793661D01*
X144957866Y-95821110D01*
X144974607Y-95852431D01*
X144984915Y-95886409D01*
X144989000Y-95927890D01*
X144989000Y-96604110D01*
X144984915Y-96645591D01*
X144974607Y-96679569D01*
X144957866Y-96710890D01*
X144935339Y-96738339D01*
X144907890Y-96760866D01*
X144876569Y-96777607D01*
X144842591Y-96787915D01*
X144801110Y-96792000D01*
X144199890Y-96792000D01*
X144158409Y-96787915D01*
X144124431Y-96777607D01*
X144093110Y-96760866D01*
X144065661Y-96738339D01*
X144043134Y-96710890D01*
X144026393Y-96679569D01*
X144016085Y-96645591D01*
X144012000Y-96604110D01*
X144012000Y-95927890D01*
X144016085Y-95886409D01*
X144026393Y-95852431D01*
X144043134Y-95821110D01*
X144065661Y-95793661D01*
X144093110Y-95771134D01*
X144124431Y-95754393D01*
X144158409Y-95744085D01*
X144199890Y-95740000D01*
X144801110Y-95740000D01*
X144842591Y-95744085D01*
G37*
G36*
X151065591Y-95426585D02*
G01*
X151099569Y-95436893D01*
X151130890Y-95453634D01*
X151158339Y-95476161D01*
X151180866Y-95503610D01*
X151197607Y-95534931D01*
X151207915Y-95568909D01*
X151212000Y-95610390D01*
X151212000Y-96286610D01*
X151207915Y-96328091D01*
X151197607Y-96362069D01*
X151180866Y-96393390D01*
X151158339Y-96420839D01*
X151130890Y-96443366D01*
X151099569Y-96460107D01*
X151065591Y-96470415D01*
X151024110Y-96474500D01*
X150422890Y-96474500D01*
X150381409Y-96470415D01*
X150347431Y-96460107D01*
X150316110Y-96443366D01*
X150288661Y-96420839D01*
X150266134Y-96393390D01*
X150249393Y-96362069D01*
X150239085Y-96328091D01*
X150235000Y-96286610D01*
X150235000Y-95610390D01*
X150239085Y-95568909D01*
X150249393Y-95534931D01*
X150266134Y-95503610D01*
X150288661Y-95476161D01*
X150316110Y-95453634D01*
X150347431Y-95436893D01*
X150381409Y-95426585D01*
X150422890Y-95422500D01*
X151024110Y-95422500D01*
X151065591Y-95426585D01*
G37*
G36*
X152640591Y-95426585D02*
G01*
X152674569Y-95436893D01*
X152705890Y-95453634D01*
X152733339Y-95476161D01*
X152755866Y-95503610D01*
X152772607Y-95534931D01*
X152782915Y-95568909D01*
X152787000Y-95610390D01*
X152787000Y-96286610D01*
X152782915Y-96328091D01*
X152772607Y-96362069D01*
X152755866Y-96393390D01*
X152733339Y-96420839D01*
X152705890Y-96443366D01*
X152674569Y-96460107D01*
X152640591Y-96470415D01*
X152599110Y-96474500D01*
X151997890Y-96474500D01*
X151956409Y-96470415D01*
X151922431Y-96460107D01*
X151891110Y-96443366D01*
X151863661Y-96420839D01*
X151841134Y-96393390D01*
X151824393Y-96362069D01*
X151814085Y-96328091D01*
X151810000Y-96286610D01*
X151810000Y-95610390D01*
X151814085Y-95568909D01*
X151824393Y-95534931D01*
X151841134Y-95503610D01*
X151863661Y-95476161D01*
X151891110Y-95453634D01*
X151922431Y-95436893D01*
X151956409Y-95426585D01*
X151997890Y-95422500D01*
X152599110Y-95422500D01*
X152640591Y-95426585D01*
G37*
G36*
X142511000Y-95701000D02*
G01*
X140909000Y-95701000D01*
X140909000Y-94699000D01*
X142511000Y-94699000D01*
X142511000Y-95701000D01*
G37*
G36*
X168845591Y-94474085D02*
G01*
X168879569Y-94484393D01*
X168910890Y-94501134D01*
X168938339Y-94523661D01*
X168960866Y-94551110D01*
X168977607Y-94582431D01*
X168987915Y-94616409D01*
X168992000Y-94657890D01*
X168992000Y-95334110D01*
X168987915Y-95375591D01*
X168977607Y-95409569D01*
X168960866Y-95440890D01*
X168938339Y-95468339D01*
X168910890Y-95490866D01*
X168879569Y-95507607D01*
X168845591Y-95517915D01*
X168804110Y-95522000D01*
X168202890Y-95522000D01*
X168161409Y-95517915D01*
X168127431Y-95507607D01*
X168096110Y-95490866D01*
X168068661Y-95468339D01*
X168046134Y-95440890D01*
X168029393Y-95409569D01*
X168019085Y-95375591D01*
X168015000Y-95334110D01*
X168015000Y-94657890D01*
X168019085Y-94616409D01*
X168029393Y-94582431D01*
X168046134Y-94551110D01*
X168068661Y-94523661D01*
X168096110Y-94501134D01*
X168127431Y-94484393D01*
X168161409Y-94474085D01*
X168202890Y-94470000D01*
X168804110Y-94470000D01*
X168845591Y-94474085D01*
G37*
G36*
X170420591Y-94474085D02*
G01*
X170454569Y-94484393D01*
X170485890Y-94501134D01*
X170513339Y-94523661D01*
X170535866Y-94551110D01*
X170552607Y-94582431D01*
X170562915Y-94616409D01*
X170567000Y-94657890D01*
X170567000Y-95334110D01*
X170562915Y-95375591D01*
X170552607Y-95409569D01*
X170535866Y-95440890D01*
X170513339Y-95468339D01*
X170485890Y-95490866D01*
X170454569Y-95507607D01*
X170420591Y-95517915D01*
X170379110Y-95522000D01*
X169777890Y-95522000D01*
X169736409Y-95517915D01*
X169702431Y-95507607D01*
X169671110Y-95490866D01*
X169643661Y-95468339D01*
X169621134Y-95440890D01*
X169604393Y-95409569D01*
X169594085Y-95375591D01*
X169590000Y-95334110D01*
X169590000Y-94657890D01*
X169594085Y-94616409D01*
X169604393Y-94582431D01*
X169621134Y-94551110D01*
X169643661Y-94523661D01*
X169671110Y-94501134D01*
X169702431Y-94484393D01*
X169736409Y-94474085D01*
X169777890Y-94470000D01*
X170379110Y-94470000D01*
X170420591Y-94474085D01*
G37*
G36*
X147890591Y-94220085D02*
G01*
X147924569Y-94230393D01*
X147955890Y-94247134D01*
X147983339Y-94269661D01*
X148005866Y-94297110D01*
X148022607Y-94328431D01*
X148032915Y-94362409D01*
X148037000Y-94403890D01*
X148037000Y-95080110D01*
X148032915Y-95121591D01*
X148022607Y-95155569D01*
X148005866Y-95186890D01*
X147983339Y-95214339D01*
X147955890Y-95236866D01*
X147924569Y-95253607D01*
X147890591Y-95263915D01*
X147849110Y-95268000D01*
X147247890Y-95268000D01*
X147206409Y-95263915D01*
X147172431Y-95253607D01*
X147141110Y-95236866D01*
X147113661Y-95214339D01*
X147091134Y-95186890D01*
X147074393Y-95155569D01*
X147064085Y-95121591D01*
X147060000Y-95080110D01*
X147060000Y-94403890D01*
X147064085Y-94362409D01*
X147074393Y-94328431D01*
X147091134Y-94297110D01*
X147113661Y-94269661D01*
X147141110Y-94247134D01*
X147172431Y-94230393D01*
X147206409Y-94220085D01*
X147247890Y-94216000D01*
X147849110Y-94216000D01*
X147890591Y-94220085D01*
G37*
G36*
X144842591Y-94220085D02*
G01*
X144876569Y-94230393D01*
X144907890Y-94247134D01*
X144935339Y-94269661D01*
X144957866Y-94297110D01*
X144974607Y-94328431D01*
X144984915Y-94362409D01*
X144989000Y-94403890D01*
X144989000Y-95080110D01*
X144984915Y-95121591D01*
X144974607Y-95155569D01*
X144957866Y-95186890D01*
X144935339Y-95214339D01*
X144907890Y-95236866D01*
X144876569Y-95253607D01*
X144842591Y-95263915D01*
X144801110Y-95268000D01*
X144199890Y-95268000D01*
X144158409Y-95263915D01*
X144124431Y-95253607D01*
X144093110Y-95236866D01*
X144065661Y-95214339D01*
X144043134Y-95186890D01*
X144026393Y-95155569D01*
X144016085Y-95121591D01*
X144012000Y-95080110D01*
X144012000Y-94403890D01*
X144016085Y-94362409D01*
X144026393Y-94328431D01*
X144043134Y-94297110D01*
X144065661Y-94269661D01*
X144093110Y-94247134D01*
X144124431Y-94230393D01*
X144158409Y-94220085D01*
X144199890Y-94216000D01*
X144801110Y-94216000D01*
X144842591Y-94220085D01*
G37*
G36*
X146417591Y-94220085D02*
G01*
X146451569Y-94230393D01*
X146482890Y-94247134D01*
X146510339Y-94269661D01*
X146532866Y-94297110D01*
X146549607Y-94328431D01*
X146559915Y-94362409D01*
X146564000Y-94403890D01*
X146564000Y-95080110D01*
X146559915Y-95121591D01*
X146549607Y-95155569D01*
X146532866Y-95186890D01*
X146510339Y-95214339D01*
X146482890Y-95236866D01*
X146451569Y-95253607D01*
X146417591Y-95263915D01*
X146376110Y-95268000D01*
X145774890Y-95268000D01*
X145733409Y-95263915D01*
X145699431Y-95253607D01*
X145668110Y-95236866D01*
X145640661Y-95214339D01*
X145618134Y-95186890D01*
X145601393Y-95155569D01*
X145591085Y-95121591D01*
X145587000Y-95080110D01*
X145587000Y-94403890D01*
X145591085Y-94362409D01*
X145601393Y-94328431D01*
X145618134Y-94297110D01*
X145640661Y-94269661D01*
X145668110Y-94247134D01*
X145699431Y-94230393D01*
X145733409Y-94220085D01*
X145774890Y-94216000D01*
X146376110Y-94216000D01*
X146417591Y-94220085D01*
G37*
G36*
X149465591Y-94220085D02*
G01*
X149499569Y-94230393D01*
X149530890Y-94247134D01*
X149558339Y-94269661D01*
X149580866Y-94297110D01*
X149597607Y-94328431D01*
X149607915Y-94362409D01*
X149612000Y-94403890D01*
X149612000Y-95080110D01*
X149607915Y-95121591D01*
X149597607Y-95155569D01*
X149580866Y-95186890D01*
X149558339Y-95214339D01*
X149530890Y-95236866D01*
X149499569Y-95253607D01*
X149465591Y-95263915D01*
X149424110Y-95268000D01*
X148822890Y-95268000D01*
X148781409Y-95263915D01*
X148747431Y-95253607D01*
X148716110Y-95236866D01*
X148688661Y-95214339D01*
X148666134Y-95186890D01*
X148649393Y-95155569D01*
X148639085Y-95121591D01*
X148635000Y-95080110D01*
X148635000Y-94403890D01*
X148639085Y-94362409D01*
X148649393Y-94328431D01*
X148666134Y-94297110D01*
X148688661Y-94269661D01*
X148716110Y-94247134D01*
X148747431Y-94230393D01*
X148781409Y-94220085D01*
X148822890Y-94216000D01*
X149424110Y-94216000D01*
X149465591Y-94220085D01*
G37*
G36*
X163003591Y-93585085D02*
G01*
X163037569Y-93595393D01*
X163068890Y-93612134D01*
X163096339Y-93634661D01*
X163118866Y-93662110D01*
X163135607Y-93693431D01*
X163145915Y-93727409D01*
X163150000Y-93768890D01*
X163150000Y-94445110D01*
X163145915Y-94486591D01*
X163135607Y-94520569D01*
X163118866Y-94551890D01*
X163096339Y-94579339D01*
X163068890Y-94601866D01*
X163037569Y-94618607D01*
X163003591Y-94628915D01*
X162962110Y-94633000D01*
X162360890Y-94633000D01*
X162319409Y-94628915D01*
X162285431Y-94618607D01*
X162254110Y-94601866D01*
X162226661Y-94579339D01*
X162204134Y-94551890D01*
X162187393Y-94520569D01*
X162177085Y-94486591D01*
X162173000Y-94445110D01*
X162173000Y-93768890D01*
X162177085Y-93727409D01*
X162187393Y-93693431D01*
X162204134Y-93662110D01*
X162226661Y-93634661D01*
X162254110Y-93612134D01*
X162285431Y-93595393D01*
X162319409Y-93585085D01*
X162360890Y-93581000D01*
X162962110Y-93581000D01*
X163003591Y-93585085D01*
G37*
G36*
X164578591Y-93585085D02*
G01*
X164612569Y-93595393D01*
X164643890Y-93612134D01*
X164671339Y-93634661D01*
X164693866Y-93662110D01*
X164710607Y-93693431D01*
X164720915Y-93727409D01*
X164725000Y-93768890D01*
X164725000Y-94445110D01*
X164720915Y-94486591D01*
X164710607Y-94520569D01*
X164693866Y-94551890D01*
X164671339Y-94579339D01*
X164643890Y-94601866D01*
X164612569Y-94618607D01*
X164578591Y-94628915D01*
X164537110Y-94633000D01*
X163935890Y-94633000D01*
X163894409Y-94628915D01*
X163860431Y-94618607D01*
X163829110Y-94601866D01*
X163801661Y-94579339D01*
X163779134Y-94551890D01*
X163762393Y-94520569D01*
X163752085Y-94486591D01*
X163748000Y-94445110D01*
X163748000Y-93768890D01*
X163752085Y-93727409D01*
X163762393Y-93693431D01*
X163779134Y-93662110D01*
X163801661Y-93634661D01*
X163829110Y-93612134D01*
X163860431Y-93595393D01*
X163894409Y-93585085D01*
X163935890Y-93581000D01*
X164537110Y-93581000D01*
X164578591Y-93585085D01*
G37*
G36*
X142511000Y-94201000D02*
G01*
X140909000Y-94201000D01*
X140909000Y-93199000D01*
X142511000Y-93199000D01*
X142511000Y-94201000D01*
G37*
G36*
X163003591Y-91934085D02*
G01*
X163037569Y-91944393D01*
X163068890Y-91961134D01*
X163096339Y-91983661D01*
X163118866Y-92011110D01*
X163135607Y-92042431D01*
X163145915Y-92076409D01*
X163150000Y-92117890D01*
X163150000Y-92794110D01*
X163145915Y-92835591D01*
X163135607Y-92869569D01*
X163118866Y-92900890D01*
X163096339Y-92928339D01*
X163068890Y-92950866D01*
X163037569Y-92967607D01*
X163003591Y-92977915D01*
X162962110Y-92982000D01*
X162360890Y-92982000D01*
X162319409Y-92977915D01*
X162285431Y-92967607D01*
X162254110Y-92950866D01*
X162226661Y-92928339D01*
X162204134Y-92900890D01*
X162187393Y-92869569D01*
X162177085Y-92835591D01*
X162173000Y-92794110D01*
X162173000Y-92117890D01*
X162177085Y-92076409D01*
X162187393Y-92042431D01*
X162204134Y-92011110D01*
X162226661Y-91983661D01*
X162254110Y-91961134D01*
X162285431Y-91944393D01*
X162319409Y-91934085D01*
X162360890Y-91930000D01*
X162962110Y-91930000D01*
X163003591Y-91934085D01*
G37*
G36*
X164578591Y-91934085D02*
G01*
X164612569Y-91944393D01*
X164643890Y-91961134D01*
X164671339Y-91983661D01*
X164693866Y-92011110D01*
X164710607Y-92042431D01*
X164720915Y-92076409D01*
X164725000Y-92117890D01*
X164725000Y-92794110D01*
X164720915Y-92835591D01*
X164710607Y-92869569D01*
X164693866Y-92900890D01*
X164671339Y-92928339D01*
X164643890Y-92950866D01*
X164612569Y-92967607D01*
X164578591Y-92977915D01*
X164537110Y-92982000D01*
X163935890Y-92982000D01*
X163894409Y-92977915D01*
X163860431Y-92967607D01*
X163829110Y-92950866D01*
X163801661Y-92928339D01*
X163779134Y-92900890D01*
X163762393Y-92869569D01*
X163752085Y-92835591D01*
X163748000Y-92794110D01*
X163748000Y-92117890D01*
X163752085Y-92076409D01*
X163762393Y-92042431D01*
X163779134Y-92011110D01*
X163801661Y-91983661D01*
X163829110Y-91961134D01*
X163860431Y-91944393D01*
X163894409Y-91934085D01*
X163935890Y-91930000D01*
X164537110Y-91930000D01*
X164578591Y-91934085D01*
G37*
G36*
X144842591Y-91680085D02*
G01*
X144876569Y-91690393D01*
X144907890Y-91707134D01*
X144935339Y-91729661D01*
X144957866Y-91757110D01*
X144974607Y-91788431D01*
X144984915Y-91822409D01*
X144989000Y-91863890D01*
X144989000Y-92540110D01*
X144984915Y-92581591D01*
X144974607Y-92615569D01*
X144957866Y-92646890D01*
X144935339Y-92674339D01*
X144907890Y-92696866D01*
X144876569Y-92713607D01*
X144842591Y-92723915D01*
X144801110Y-92728000D01*
X144199890Y-92728000D01*
X144158409Y-92723915D01*
X144124431Y-92713607D01*
X144093110Y-92696866D01*
X144065661Y-92674339D01*
X144043134Y-92646890D01*
X144026393Y-92615569D01*
X144016085Y-92581591D01*
X144012000Y-92540110D01*
X144012000Y-91863890D01*
X144016085Y-91822409D01*
X144026393Y-91788431D01*
X144043134Y-91757110D01*
X144065661Y-91729661D01*
X144093110Y-91707134D01*
X144124431Y-91690393D01*
X144158409Y-91680085D01*
X144199890Y-91676000D01*
X144801110Y-91676000D01*
X144842591Y-91680085D01*
G37*
G36*
X146417591Y-91680085D02*
G01*
X146451569Y-91690393D01*
X146482890Y-91707134D01*
X146510339Y-91729661D01*
X146532866Y-91757110D01*
X146549607Y-91788431D01*
X146559915Y-91822409D01*
X146564000Y-91863890D01*
X146564000Y-92540110D01*
X146559915Y-92581591D01*
X146549607Y-92615569D01*
X146532866Y-92646890D01*
X146510339Y-92674339D01*
X146482890Y-92696866D01*
X146451569Y-92713607D01*
X146417591Y-92723915D01*
X146376110Y-92728000D01*
X145774890Y-92728000D01*
X145733409Y-92723915D01*
X145699431Y-92713607D01*
X145668110Y-92696866D01*
X145640661Y-92674339D01*
X145618134Y-92646890D01*
X145601393Y-92615569D01*
X145591085Y-92581591D01*
X145587000Y-92540110D01*
X145587000Y-91863890D01*
X145591085Y-91822409D01*
X145601393Y-91788431D01*
X145618134Y-91757110D01*
X145640661Y-91729661D01*
X145668110Y-91707134D01*
X145699431Y-91690393D01*
X145733409Y-91680085D01*
X145774890Y-91676000D01*
X146376110Y-91676000D01*
X146417591Y-91680085D01*
G37*
G36*
X142511000Y-92701000D02*
G01*
X140909000Y-92701000D01*
X140909000Y-91699000D01*
X142511000Y-91699000D01*
X142511000Y-92701000D01*
G37*
G36*
X169543591Y-91235085D02*
G01*
X169577569Y-91245393D01*
X169608890Y-91262134D01*
X169636339Y-91284661D01*
X169658866Y-91312110D01*
X169675607Y-91343431D01*
X169685915Y-91377409D01*
X169690000Y-91418890D01*
X169690000Y-92020110D01*
X169685915Y-92061591D01*
X169675607Y-92095569D01*
X169658866Y-92126890D01*
X169636339Y-92154339D01*
X169608890Y-92176866D01*
X169577569Y-92193607D01*
X169543591Y-92203915D01*
X169502110Y-92208000D01*
X168825890Y-92208000D01*
X168784409Y-92203915D01*
X168750431Y-92193607D01*
X168719110Y-92176866D01*
X168691661Y-92154339D01*
X168669134Y-92126890D01*
X168652393Y-92095569D01*
X168642085Y-92061591D01*
X168638000Y-92020110D01*
X168638000Y-91418890D01*
X168642085Y-91377409D01*
X168652393Y-91343431D01*
X168669134Y-91312110D01*
X168691661Y-91284661D01*
X168719110Y-91262134D01*
X168750431Y-91245393D01*
X168784409Y-91235085D01*
X168825890Y-91231000D01*
X169502110Y-91231000D01*
X169543591Y-91235085D01*
G37*
G36*
X170939683Y-89884725D02*
G01*
X170970143Y-89893966D01*
X170998223Y-89908974D01*
X171022831Y-89929169D01*
X171043026Y-89953777D01*
X171058034Y-89981857D01*
X171067275Y-90012317D01*
X171071000Y-90050140D01*
X171071000Y-91813860D01*
X171067275Y-91851683D01*
X171058034Y-91882143D01*
X171043026Y-91910223D01*
X171022831Y-91934831D01*
X170998223Y-91955026D01*
X170970143Y-91970034D01*
X170939683Y-91979275D01*
X170901860Y-91983000D01*
X170338140Y-91983000D01*
X170300317Y-91979275D01*
X170269857Y-91970034D01*
X170241777Y-91955026D01*
X170217169Y-91934831D01*
X170196974Y-91910223D01*
X170181966Y-91882143D01*
X170172725Y-91851683D01*
X170169000Y-91813860D01*
X170169000Y-90050140D01*
X170172725Y-90012317D01*
X170181966Y-89981857D01*
X170196974Y-89953777D01*
X170217169Y-89929169D01*
X170241777Y-89908974D01*
X170269857Y-89893966D01*
X170300317Y-89884725D01*
X170338140Y-89881000D01*
X170901860Y-89881000D01*
X170939683Y-89884725D01*
G37*
G36*
X175139683Y-89884725D02*
G01*
X175170143Y-89893966D01*
X175198223Y-89908974D01*
X175222831Y-89929169D01*
X175243026Y-89953777D01*
X175258034Y-89981857D01*
X175267275Y-90012317D01*
X175271000Y-90050140D01*
X175271000Y-91813860D01*
X175267275Y-91851683D01*
X175258034Y-91882143D01*
X175243026Y-91910223D01*
X175222831Y-91934831D01*
X175198223Y-91955026D01*
X175170143Y-91970034D01*
X175139683Y-91979275D01*
X175101860Y-91983000D01*
X174538140Y-91983000D01*
X174500317Y-91979275D01*
X174469857Y-91970034D01*
X174441777Y-91955026D01*
X174417169Y-91934831D01*
X174396974Y-91910223D01*
X174381966Y-91882143D01*
X174372725Y-91851683D01*
X174369000Y-91813860D01*
X174369000Y-90050140D01*
X174372725Y-90012317D01*
X174381966Y-89981857D01*
X174396974Y-89953777D01*
X174417169Y-89929169D01*
X174441777Y-89908974D01*
X174469857Y-89893966D01*
X174500317Y-89884725D01*
X174538140Y-89881000D01*
X175101860Y-89881000D01*
X175139683Y-89884725D01*
G37*
G36*
X144842591Y-90156085D02*
G01*
X144876569Y-90166393D01*
X144907890Y-90183134D01*
X144935339Y-90205661D01*
X144957866Y-90233110D01*
X144974607Y-90264431D01*
X144984915Y-90298409D01*
X144989000Y-90339890D01*
X144989000Y-91016110D01*
X144984915Y-91057591D01*
X144974607Y-91091569D01*
X144957866Y-91122890D01*
X144935339Y-91150339D01*
X144907890Y-91172866D01*
X144876569Y-91189607D01*
X144842591Y-91199915D01*
X144801110Y-91204000D01*
X144199890Y-91204000D01*
X144158409Y-91199915D01*
X144124431Y-91189607D01*
X144093110Y-91172866D01*
X144065661Y-91150339D01*
X144043134Y-91122890D01*
X144026393Y-91091569D01*
X144016085Y-91057591D01*
X144012000Y-91016110D01*
X144012000Y-90339890D01*
X144016085Y-90298409D01*
X144026393Y-90264431D01*
X144043134Y-90233110D01*
X144065661Y-90205661D01*
X144093110Y-90183134D01*
X144124431Y-90166393D01*
X144158409Y-90156085D01*
X144199890Y-90152000D01*
X144801110Y-90152000D01*
X144842591Y-90156085D01*
G37*
G36*
X146417591Y-90156085D02*
G01*
X146451569Y-90166393D01*
X146482890Y-90183134D01*
X146510339Y-90205661D01*
X146532866Y-90233110D01*
X146549607Y-90264431D01*
X146559915Y-90298409D01*
X146564000Y-90339890D01*
X146564000Y-91016110D01*
X146559915Y-91057591D01*
X146549607Y-91091569D01*
X146532866Y-91122890D01*
X146510339Y-91150339D01*
X146482890Y-91172866D01*
X146451569Y-91189607D01*
X146417591Y-91199915D01*
X146376110Y-91204000D01*
X145774890Y-91204000D01*
X145733409Y-91199915D01*
X145699431Y-91189607D01*
X145668110Y-91172866D01*
X145640661Y-91150339D01*
X145618134Y-91122890D01*
X145601393Y-91091569D01*
X145591085Y-91057591D01*
X145587000Y-91016110D01*
X145587000Y-90339890D01*
X145591085Y-90298409D01*
X145601393Y-90264431D01*
X145618134Y-90233110D01*
X145640661Y-90205661D01*
X145668110Y-90183134D01*
X145699431Y-90166393D01*
X145733409Y-90156085D01*
X145774890Y-90152000D01*
X146376110Y-90152000D01*
X146417591Y-90156085D01*
G37*
G36*
X120461000Y-91001000D02*
G01*
X119459000Y-91001000D01*
X119459000Y-89399000D01*
X120461000Y-89399000D01*
X120461000Y-91001000D01*
G37*
G36*
X135461000Y-91001000D02*
G01*
X134459000Y-91001000D01*
X134459000Y-89399000D01*
X135461000Y-89399000D01*
X135461000Y-91001000D01*
G37*
G36*
X141461000Y-91001000D02*
G01*
X140459000Y-91001000D01*
X140459000Y-89399000D01*
X141461000Y-89399000D01*
X141461000Y-91001000D01*
G37*
G36*
X136961000Y-91001000D02*
G01*
X135959000Y-91001000D01*
X135959000Y-89399000D01*
X136961000Y-89399000D01*
X136961000Y-91001000D01*
G37*
G36*
X139961000Y-91001000D02*
G01*
X138959000Y-91001000D01*
X138959000Y-89399000D01*
X139961000Y-89399000D01*
X139961000Y-91001000D01*
G37*
G36*
X138461000Y-91001000D02*
G01*
X137459000Y-91001000D01*
X137459000Y-89399000D01*
X138461000Y-89399000D01*
X138461000Y-91001000D01*
G37*
G36*
X133961000Y-91001000D02*
G01*
X132959000Y-91001000D01*
X132959000Y-89399000D01*
X133961000Y-89399000D01*
X133961000Y-91001000D01*
G37*
G36*
X132461000Y-91001000D02*
G01*
X131459000Y-91001000D01*
X131459000Y-89399000D01*
X132461000Y-89399000D01*
X132461000Y-91001000D01*
G37*
G36*
X129461000Y-91001000D02*
G01*
X128459000Y-91001000D01*
X128459000Y-89399000D01*
X129461000Y-89399000D01*
X129461000Y-91001000D01*
G37*
G36*
X127961000Y-91001000D02*
G01*
X126959000Y-91001000D01*
X126959000Y-89399000D01*
X127961000Y-89399000D01*
X127961000Y-91001000D01*
G37*
G36*
X126461000Y-91001000D02*
G01*
X125459000Y-91001000D01*
X125459000Y-89399000D01*
X126461000Y-89399000D01*
X126461000Y-91001000D01*
G37*
G36*
X124961000Y-91001000D02*
G01*
X123959000Y-91001000D01*
X123959000Y-89399000D01*
X124961000Y-89399000D01*
X124961000Y-91001000D01*
G37*
G36*
X123461000Y-91001000D02*
G01*
X122459000Y-91001000D01*
X122459000Y-89399000D01*
X123461000Y-89399000D01*
X123461000Y-91001000D01*
G37*
G36*
X121961000Y-91001000D02*
G01*
X120959000Y-91001000D01*
X120959000Y-89399000D01*
X121961000Y-89399000D01*
X121961000Y-91001000D01*
G37*
G36*
X118961000Y-91001000D02*
G01*
X117959000Y-91001000D01*
X117959000Y-89399000D01*
X118961000Y-89399000D01*
X118961000Y-91001000D01*
G37*
G36*
X130961000Y-91001000D02*
G01*
X129959000Y-91001000D01*
X129959000Y-89399000D01*
X130961000Y-89399000D01*
X130961000Y-91001000D01*
G37*
G36*
X169543591Y-89660085D02*
G01*
X169577569Y-89670393D01*
X169608890Y-89687134D01*
X169636339Y-89709661D01*
X169658866Y-89737110D01*
X169675607Y-89768431D01*
X169685915Y-89802409D01*
X169690000Y-89843890D01*
X169690000Y-90445110D01*
X169685915Y-90486591D01*
X169675607Y-90520569D01*
X169658866Y-90551890D01*
X169636339Y-90579339D01*
X169608890Y-90601866D01*
X169577569Y-90618607D01*
X169543591Y-90628915D01*
X169502110Y-90633000D01*
X168825890Y-90633000D01*
X168784409Y-90628915D01*
X168750431Y-90618607D01*
X168719110Y-90601866D01*
X168691661Y-90579339D01*
X168669134Y-90551890D01*
X168652393Y-90520569D01*
X168642085Y-90486591D01*
X168638000Y-90445110D01*
X168638000Y-89843890D01*
X168642085Y-89802409D01*
X168652393Y-89768431D01*
X168669134Y-89737110D01*
X168691661Y-89709661D01*
X168719110Y-89687134D01*
X168750431Y-89670393D01*
X168784409Y-89660085D01*
X168825890Y-89656000D01*
X169502110Y-89656000D01*
X169543591Y-89660085D01*
G37*
G36*
X170293512Y-85463927D02*
G01*
X170442812Y-85493624D01*
X170606784Y-85561544D01*
X170754354Y-85660147D01*
X170879853Y-85785646D01*
X170978456Y-85933216D01*
X171046376Y-86097188D01*
X171081000Y-86271259D01*
X171081000Y-86448741D01*
X171046376Y-86622812D01*
X170978456Y-86786784D01*
X170879853Y-86934354D01*
X170754354Y-87059853D01*
X170606784Y-87158456D01*
X170442812Y-87226376D01*
X170293512Y-87256073D01*
X170268742Y-87261000D01*
X170091258Y-87261000D01*
X170066488Y-87256073D01*
X169917188Y-87226376D01*
X169753216Y-87158456D01*
X169605646Y-87059853D01*
X169480147Y-86934354D01*
X169381544Y-86786784D01*
X169313624Y-86622812D01*
X169279000Y-86448741D01*
X169279000Y-86271259D01*
X169313624Y-86097188D01*
X169381544Y-85933216D01*
X169480147Y-85785646D01*
X169605646Y-85660147D01*
X169753216Y-85561544D01*
X169917188Y-85493624D01*
X170066488Y-85463927D01*
X170091258Y-85459000D01*
X170268742Y-85459000D01*
X170293512Y-85463927D01*
G37*
G36*
X172833512Y-85463927D02*
G01*
X172982812Y-85493624D01*
X173146784Y-85561544D01*
X173294354Y-85660147D01*
X173419853Y-85785646D01*
X173518456Y-85933216D01*
X173586376Y-86097188D01*
X173621000Y-86271259D01*
X173621000Y-86448741D01*
X173586376Y-86622812D01*
X173518456Y-86786784D01*
X173419853Y-86934354D01*
X173294354Y-87059853D01*
X173146784Y-87158456D01*
X172982812Y-87226376D01*
X172833512Y-87256073D01*
X172808742Y-87261000D01*
X172631258Y-87261000D01*
X172606488Y-87256073D01*
X172457188Y-87226376D01*
X172293216Y-87158456D01*
X172145646Y-87059853D01*
X172020147Y-86934354D01*
X171921544Y-86786784D01*
X171853624Y-86622812D01*
X171819000Y-86448741D01*
X171819000Y-86271259D01*
X171853624Y-86097188D01*
X171921544Y-85933216D01*
X172020147Y-85785646D01*
X172145646Y-85660147D01*
X172293216Y-85561544D01*
X172457188Y-85493624D01*
X172606488Y-85463927D01*
X172631258Y-85459000D01*
X172808742Y-85459000D01*
X172833512Y-85463927D01*
G37*
G36*
X175373512Y-85463927D02*
G01*
X175522812Y-85493624D01*
X175686784Y-85561544D01*
X175834354Y-85660147D01*
X175959853Y-85785646D01*
X176058456Y-85933216D01*
X176126376Y-86097188D01*
X176161000Y-86271259D01*
X176161000Y-86448741D01*
X176126376Y-86622812D01*
X176058456Y-86786784D01*
X175959853Y-86934354D01*
X175834354Y-87059853D01*
X175686784Y-87158456D01*
X175522812Y-87226376D01*
X175373512Y-87256073D01*
X175348742Y-87261000D01*
X175171258Y-87261000D01*
X175146488Y-87256073D01*
X174997188Y-87226376D01*
X174833216Y-87158456D01*
X174685646Y-87059853D01*
X174560147Y-86934354D01*
X174461544Y-86786784D01*
X174393624Y-86622812D01*
X174359000Y-86448741D01*
X174359000Y-86271259D01*
X174393624Y-86097188D01*
X174461544Y-85933216D01*
X174560147Y-85785646D01*
X174685646Y-85660147D01*
X174833216Y-85561544D01*
X174997188Y-85493624D01*
X175146488Y-85463927D01*
X175171258Y-85459000D01*
X175348742Y-85459000D01*
X175373512Y-85463927D01*
G37*
G36*
X120281000Y-87261000D02*
G01*
X118479000Y-87261000D01*
X118479000Y-85459000D01*
X120281000Y-85459000D01*
X120281000Y-87261000D01*
G37*
G36*
X127113512Y-85463927D02*
G01*
X127262812Y-85493624D01*
X127426784Y-85561544D01*
X127574354Y-85660147D01*
X127699853Y-85785646D01*
X127798456Y-85933216D01*
X127866376Y-86097188D01*
X127901000Y-86271259D01*
X127901000Y-86448741D01*
X127866376Y-86622812D01*
X127798456Y-86786784D01*
X127699853Y-86934354D01*
X127574354Y-87059853D01*
X127426784Y-87158456D01*
X127262812Y-87226376D01*
X127113512Y-87256073D01*
X127088742Y-87261000D01*
X126911258Y-87261000D01*
X126886488Y-87256073D01*
X126737188Y-87226376D01*
X126573216Y-87158456D01*
X126425646Y-87059853D01*
X126300147Y-86934354D01*
X126201544Y-86786784D01*
X126133624Y-86622812D01*
X126099000Y-86448741D01*
X126099000Y-86271259D01*
X126133624Y-86097188D01*
X126201544Y-85933216D01*
X126300147Y-85785646D01*
X126425646Y-85660147D01*
X126573216Y-85561544D01*
X126737188Y-85493624D01*
X126886488Y-85463927D01*
X126911258Y-85459000D01*
X127088742Y-85459000D01*
X127113512Y-85463927D01*
G37*
G36*
X132193512Y-85463927D02*
G01*
X132342812Y-85493624D01*
X132506784Y-85561544D01*
X132654354Y-85660147D01*
X132779853Y-85785646D01*
X132878456Y-85933216D01*
X132946376Y-86097188D01*
X132981000Y-86271259D01*
X132981000Y-86448741D01*
X132946376Y-86622812D01*
X132878456Y-86786784D01*
X132779853Y-86934354D01*
X132654354Y-87059853D01*
X132506784Y-87158456D01*
X132342812Y-87226376D01*
X132193512Y-87256073D01*
X132168742Y-87261000D01*
X131991258Y-87261000D01*
X131966488Y-87256073D01*
X131817188Y-87226376D01*
X131653216Y-87158456D01*
X131505646Y-87059853D01*
X131380147Y-86934354D01*
X131281544Y-86786784D01*
X131213624Y-86622812D01*
X131179000Y-86448741D01*
X131179000Y-86271259D01*
X131213624Y-86097188D01*
X131281544Y-85933216D01*
X131380147Y-85785646D01*
X131505646Y-85660147D01*
X131653216Y-85561544D01*
X131817188Y-85493624D01*
X131966488Y-85463927D01*
X131991258Y-85459000D01*
X132168742Y-85459000D01*
X132193512Y-85463927D01*
G37*
G36*
X134733512Y-85463927D02*
G01*
X134882812Y-85493624D01*
X135046784Y-85561544D01*
X135194354Y-85660147D01*
X135319853Y-85785646D01*
X135418456Y-85933216D01*
X135486376Y-86097188D01*
X135521000Y-86271259D01*
X135521000Y-86448741D01*
X135486376Y-86622812D01*
X135418456Y-86786784D01*
X135319853Y-86934354D01*
X135194354Y-87059853D01*
X135046784Y-87158456D01*
X134882812Y-87226376D01*
X134733512Y-87256073D01*
X134708742Y-87261000D01*
X134531258Y-87261000D01*
X134506488Y-87256073D01*
X134357188Y-87226376D01*
X134193216Y-87158456D01*
X134045646Y-87059853D01*
X133920147Y-86934354D01*
X133821544Y-86786784D01*
X133753624Y-86622812D01*
X133719000Y-86448741D01*
X133719000Y-86271259D01*
X133753624Y-86097188D01*
X133821544Y-85933216D01*
X133920147Y-85785646D01*
X134045646Y-85660147D01*
X134193216Y-85561544D01*
X134357188Y-85493624D01*
X134506488Y-85463927D01*
X134531258Y-85459000D01*
X134708742Y-85459000D01*
X134733512Y-85463927D01*
G37*
G36*
X137273512Y-85463927D02*
G01*
X137422812Y-85493624D01*
X137586784Y-85561544D01*
X137734354Y-85660147D01*
X137859853Y-85785646D01*
X137958456Y-85933216D01*
X138026376Y-86097188D01*
X138061000Y-86271259D01*
X138061000Y-86448741D01*
X138026376Y-86622812D01*
X137958456Y-86786784D01*
X137859853Y-86934354D01*
X137734354Y-87059853D01*
X137586784Y-87158456D01*
X137422812Y-87226376D01*
X137273512Y-87256073D01*
X137248742Y-87261000D01*
X137071258Y-87261000D01*
X137046488Y-87256073D01*
X136897188Y-87226376D01*
X136733216Y-87158456D01*
X136585646Y-87059853D01*
X136460147Y-86934354D01*
X136361544Y-86786784D01*
X136293624Y-86622812D01*
X136259000Y-86448741D01*
X136259000Y-86271259D01*
X136293624Y-86097188D01*
X136361544Y-85933216D01*
X136460147Y-85785646D01*
X136585646Y-85660147D01*
X136733216Y-85561544D01*
X136897188Y-85493624D01*
X137046488Y-85463927D01*
X137071258Y-85459000D01*
X137248742Y-85459000D01*
X137273512Y-85463927D01*
G37*
G36*
X139813512Y-85463927D02*
G01*
X139962812Y-85493624D01*
X140126784Y-85561544D01*
X140274354Y-85660147D01*
X140399853Y-85785646D01*
X140498456Y-85933216D01*
X140566376Y-86097188D01*
X140601000Y-86271259D01*
X140601000Y-86448741D01*
X140566376Y-86622812D01*
X140498456Y-86786784D01*
X140399853Y-86934354D01*
X140274354Y-87059853D01*
X140126784Y-87158456D01*
X139962812Y-87226376D01*
X139813512Y-87256073D01*
X139788742Y-87261000D01*
X139611258Y-87261000D01*
X139586488Y-87256073D01*
X139437188Y-87226376D01*
X139273216Y-87158456D01*
X139125646Y-87059853D01*
X139000147Y-86934354D01*
X138901544Y-86786784D01*
X138833624Y-86622812D01*
X138799000Y-86448741D01*
X138799000Y-86271259D01*
X138833624Y-86097188D01*
X138901544Y-85933216D01*
X139000147Y-85785646D01*
X139125646Y-85660147D01*
X139273216Y-85561544D01*
X139437188Y-85493624D01*
X139586488Y-85463927D01*
X139611258Y-85459000D01*
X139788742Y-85459000D01*
X139813512Y-85463927D01*
G37*
G36*
X122033512Y-85463927D02*
G01*
X122182812Y-85493624D01*
X122346784Y-85561544D01*
X122494354Y-85660147D01*
X122619853Y-85785646D01*
X122718456Y-85933216D01*
X122786376Y-86097188D01*
X122821000Y-86271259D01*
X122821000Y-86448741D01*
X122786376Y-86622812D01*
X122718456Y-86786784D01*
X122619853Y-86934354D01*
X122494354Y-87059853D01*
X122346784Y-87158456D01*
X122182812Y-87226376D01*
X122033512Y-87256073D01*
X122008742Y-87261000D01*
X121831258Y-87261000D01*
X121806488Y-87256073D01*
X121657188Y-87226376D01*
X121493216Y-87158456D01*
X121345646Y-87059853D01*
X121220147Y-86934354D01*
X121121544Y-86786784D01*
X121053624Y-86622812D01*
X121019000Y-86448741D01*
X121019000Y-86271259D01*
X121053624Y-86097188D01*
X121121544Y-85933216D01*
X121220147Y-85785646D01*
X121345646Y-85660147D01*
X121493216Y-85561544D01*
X121657188Y-85493624D01*
X121806488Y-85463927D01*
X121831258Y-85459000D01*
X122008742Y-85459000D01*
X122033512Y-85463927D01*
G37*
G36*
X124573512Y-85463927D02*
G01*
X124722812Y-85493624D01*
X124886784Y-85561544D01*
X125034354Y-85660147D01*
X125159853Y-85785646D01*
X125258456Y-85933216D01*
X125326376Y-86097188D01*
X125361000Y-86271259D01*
X125361000Y-86448741D01*
X125326376Y-86622812D01*
X125258456Y-86786784D01*
X125159853Y-86934354D01*
X125034354Y-87059853D01*
X124886784Y-87158456D01*
X124722812Y-87226376D01*
X124573512Y-87256073D01*
X124548742Y-87261000D01*
X124371258Y-87261000D01*
X124346488Y-87256073D01*
X124197188Y-87226376D01*
X124033216Y-87158456D01*
X123885646Y-87059853D01*
X123760147Y-86934354D01*
X123661544Y-86786784D01*
X123593624Y-86622812D01*
X123559000Y-86448741D01*
X123559000Y-86271259D01*
X123593624Y-86097188D01*
X123661544Y-85933216D01*
X123760147Y-85785646D01*
X123885646Y-85660147D01*
X124033216Y-85561544D01*
X124197188Y-85493624D01*
X124346488Y-85463927D01*
X124371258Y-85459000D01*
X124548742Y-85459000D01*
X124573512Y-85463927D01*
G37*
G36*
X167753512Y-85463927D02*
G01*
X167902812Y-85493624D01*
X168066784Y-85561544D01*
X168214354Y-85660147D01*
X168339853Y-85785646D01*
X168438456Y-85933216D01*
X168506376Y-86097188D01*
X168541000Y-86271259D01*
X168541000Y-86448741D01*
X168506376Y-86622812D01*
X168438456Y-86786784D01*
X168339853Y-86934354D01*
X168214354Y-87059853D01*
X168066784Y-87158456D01*
X167902812Y-87226376D01*
X167753512Y-87256073D01*
X167728742Y-87261000D01*
X167551258Y-87261000D01*
X167526488Y-87256073D01*
X167377188Y-87226376D01*
X167213216Y-87158456D01*
X167065646Y-87059853D01*
X166940147Y-86934354D01*
X166841544Y-86786784D01*
X166773624Y-86622812D01*
X166739000Y-86448741D01*
X166739000Y-86271259D01*
X166773624Y-86097188D01*
X166841544Y-85933216D01*
X166940147Y-85785646D01*
X167065646Y-85660147D01*
X167213216Y-85561544D01*
X167377188Y-85493624D01*
X167526488Y-85463927D01*
X167551258Y-85459000D01*
X167728742Y-85459000D01*
X167753512Y-85463927D01*
G37*
G36*
X165213512Y-85463927D02*
G01*
X165362812Y-85493624D01*
X165526784Y-85561544D01*
X165674354Y-85660147D01*
X165799853Y-85785646D01*
X165898456Y-85933216D01*
X165966376Y-86097188D01*
X166001000Y-86271259D01*
X166001000Y-86448741D01*
X165966376Y-86622812D01*
X165898456Y-86786784D01*
X165799853Y-86934354D01*
X165674354Y-87059853D01*
X165526784Y-87158456D01*
X165362812Y-87226376D01*
X165213512Y-87256073D01*
X165188742Y-87261000D01*
X165011258Y-87261000D01*
X164986488Y-87256073D01*
X164837188Y-87226376D01*
X164673216Y-87158456D01*
X164525646Y-87059853D01*
X164400147Y-86934354D01*
X164301544Y-86786784D01*
X164233624Y-86622812D01*
X164199000Y-86448741D01*
X164199000Y-86271259D01*
X164233624Y-86097188D01*
X164301544Y-85933216D01*
X164400147Y-85785646D01*
X164525646Y-85660147D01*
X164673216Y-85561544D01*
X164837188Y-85493624D01*
X164986488Y-85463927D01*
X165011258Y-85459000D01*
X165188742Y-85459000D01*
X165213512Y-85463927D01*
G37*
G36*
X162673512Y-85463927D02*
G01*
X162822812Y-85493624D01*
X162986784Y-85561544D01*
X163134354Y-85660147D01*
X163259853Y-85785646D01*
X163358456Y-85933216D01*
X163426376Y-86097188D01*
X163461000Y-86271259D01*
X163461000Y-86448741D01*
X163426376Y-86622812D01*
X163358456Y-86786784D01*
X163259853Y-86934354D01*
X163134354Y-87059853D01*
X162986784Y-87158456D01*
X162822812Y-87226376D01*
X162673512Y-87256073D01*
X162648742Y-87261000D01*
X162471258Y-87261000D01*
X162446488Y-87256073D01*
X162297188Y-87226376D01*
X162133216Y-87158456D01*
X161985646Y-87059853D01*
X161860147Y-86934354D01*
X161761544Y-86786784D01*
X161693624Y-86622812D01*
X161659000Y-86448741D01*
X161659000Y-86271259D01*
X161693624Y-86097188D01*
X161761544Y-85933216D01*
X161860147Y-85785646D01*
X161985646Y-85660147D01*
X162133216Y-85561544D01*
X162297188Y-85493624D01*
X162446488Y-85463927D01*
X162471258Y-85459000D01*
X162648742Y-85459000D01*
X162673512Y-85463927D01*
G37*
G36*
X160133512Y-85463927D02*
G01*
X160282812Y-85493624D01*
X160446784Y-85561544D01*
X160594354Y-85660147D01*
X160719853Y-85785646D01*
X160818456Y-85933216D01*
X160886376Y-86097188D01*
X160921000Y-86271259D01*
X160921000Y-86448741D01*
X160886376Y-86622812D01*
X160818456Y-86786784D01*
X160719853Y-86934354D01*
X160594354Y-87059853D01*
X160446784Y-87158456D01*
X160282812Y-87226376D01*
X160133512Y-87256073D01*
X160108742Y-87261000D01*
X159931258Y-87261000D01*
X159906488Y-87256073D01*
X159757188Y-87226376D01*
X159593216Y-87158456D01*
X159445646Y-87059853D01*
X159320147Y-86934354D01*
X159221544Y-86786784D01*
X159153624Y-86622812D01*
X159119000Y-86448741D01*
X159119000Y-86271259D01*
X159153624Y-86097188D01*
X159221544Y-85933216D01*
X159320147Y-85785646D01*
X159445646Y-85660147D01*
X159593216Y-85561544D01*
X159757188Y-85493624D01*
X159906488Y-85463927D01*
X159931258Y-85459000D01*
X160108742Y-85459000D01*
X160133512Y-85463927D01*
G37*
G36*
X142353512Y-85463927D02*
G01*
X142502812Y-85493624D01*
X142666784Y-85561544D01*
X142814354Y-85660147D01*
X142939853Y-85785646D01*
X143038456Y-85933216D01*
X143106376Y-86097188D01*
X143141000Y-86271259D01*
X143141000Y-86448741D01*
X143106376Y-86622812D01*
X143038456Y-86786784D01*
X142939853Y-86934354D01*
X142814354Y-87059853D01*
X142666784Y-87158456D01*
X142502812Y-87226376D01*
X142353512Y-87256073D01*
X142328742Y-87261000D01*
X142151258Y-87261000D01*
X142126488Y-87256073D01*
X141977188Y-87226376D01*
X141813216Y-87158456D01*
X141665646Y-87059853D01*
X141540147Y-86934354D01*
X141441544Y-86786784D01*
X141373624Y-86622812D01*
X141339000Y-86448741D01*
X141339000Y-86271259D01*
X141373624Y-86097188D01*
X141441544Y-85933216D01*
X141540147Y-85785646D01*
X141665646Y-85660147D01*
X141813216Y-85561544D01*
X141977188Y-85493624D01*
X142126488Y-85463927D01*
X142151258Y-85459000D01*
X142328742Y-85459000D01*
X142353512Y-85463927D01*
G37*
G36*
X144893512Y-85463927D02*
G01*
X145042812Y-85493624D01*
X145206784Y-85561544D01*
X145354354Y-85660147D01*
X145479853Y-85785646D01*
X145578456Y-85933216D01*
X145646376Y-86097188D01*
X145681000Y-86271259D01*
X145681000Y-86448741D01*
X145646376Y-86622812D01*
X145578456Y-86786784D01*
X145479853Y-86934354D01*
X145354354Y-87059853D01*
X145206784Y-87158456D01*
X145042812Y-87226376D01*
X144893512Y-87256073D01*
X144868742Y-87261000D01*
X144691258Y-87261000D01*
X144666488Y-87256073D01*
X144517188Y-87226376D01*
X144353216Y-87158456D01*
X144205646Y-87059853D01*
X144080147Y-86934354D01*
X143981544Y-86786784D01*
X143913624Y-86622812D01*
X143879000Y-86448741D01*
X143879000Y-86271259D01*
X143913624Y-86097188D01*
X143981544Y-85933216D01*
X144080147Y-85785646D01*
X144205646Y-85660147D01*
X144353216Y-85561544D01*
X144517188Y-85493624D01*
X144666488Y-85463927D01*
X144691258Y-85459000D01*
X144868742Y-85459000D01*
X144893512Y-85463927D01*
G37*
G36*
X147433512Y-85463927D02*
G01*
X147582812Y-85493624D01*
X147746784Y-85561544D01*
X147894354Y-85660147D01*
X148019853Y-85785646D01*
X148118456Y-85933216D01*
X148186376Y-86097188D01*
X148221000Y-86271259D01*
X148221000Y-86448741D01*
X148186376Y-86622812D01*
X148118456Y-86786784D01*
X148019853Y-86934354D01*
X147894354Y-87059853D01*
X147746784Y-87158456D01*
X147582812Y-87226376D01*
X147433512Y-87256073D01*
X147408742Y-87261000D01*
X147231258Y-87261000D01*
X147206488Y-87256073D01*
X147057188Y-87226376D01*
X146893216Y-87158456D01*
X146745646Y-87059853D01*
X146620147Y-86934354D01*
X146521544Y-86786784D01*
X146453624Y-86622812D01*
X146419000Y-86448741D01*
X146419000Y-86271259D01*
X146453624Y-86097188D01*
X146521544Y-85933216D01*
X146620147Y-85785646D01*
X146745646Y-85660147D01*
X146893216Y-85561544D01*
X147057188Y-85493624D01*
X147206488Y-85463927D01*
X147231258Y-85459000D01*
X147408742Y-85459000D01*
X147433512Y-85463927D01*
G37*
G36*
X149973512Y-85463927D02*
G01*
X150122812Y-85493624D01*
X150286784Y-85561544D01*
X150434354Y-85660147D01*
X150559853Y-85785646D01*
X150658456Y-85933216D01*
X150726376Y-86097188D01*
X150761000Y-86271259D01*
X150761000Y-86448741D01*
X150726376Y-86622812D01*
X150658456Y-86786784D01*
X150559853Y-86934354D01*
X150434354Y-87059853D01*
X150286784Y-87158456D01*
X150122812Y-87226376D01*
X149973512Y-87256073D01*
X149948742Y-87261000D01*
X149771258Y-87261000D01*
X149746488Y-87256073D01*
X149597188Y-87226376D01*
X149433216Y-87158456D01*
X149285646Y-87059853D01*
X149160147Y-86934354D01*
X149061544Y-86786784D01*
X148993624Y-86622812D01*
X148959000Y-86448741D01*
X148959000Y-86271259D01*
X148993624Y-86097188D01*
X149061544Y-85933216D01*
X149160147Y-85785646D01*
X149285646Y-85660147D01*
X149433216Y-85561544D01*
X149597188Y-85493624D01*
X149746488Y-85463927D01*
X149771258Y-85459000D01*
X149948742Y-85459000D01*
X149973512Y-85463927D01*
G37*
G36*
X152513512Y-85463927D02*
G01*
X152662812Y-85493624D01*
X152826784Y-85561544D01*
X152974354Y-85660147D01*
X153099853Y-85785646D01*
X153198456Y-85933216D01*
X153266376Y-86097188D01*
X153301000Y-86271259D01*
X153301000Y-86448741D01*
X153266376Y-86622812D01*
X153198456Y-86786784D01*
X153099853Y-86934354D01*
X152974354Y-87059853D01*
X152826784Y-87158456D01*
X152662812Y-87226376D01*
X152513512Y-87256073D01*
X152488742Y-87261000D01*
X152311258Y-87261000D01*
X152286488Y-87256073D01*
X152137188Y-87226376D01*
X151973216Y-87158456D01*
X151825646Y-87059853D01*
X151700147Y-86934354D01*
X151601544Y-86786784D01*
X151533624Y-86622812D01*
X151499000Y-86448741D01*
X151499000Y-86271259D01*
X151533624Y-86097188D01*
X151601544Y-85933216D01*
X151700147Y-85785646D01*
X151825646Y-85660147D01*
X151973216Y-85561544D01*
X152137188Y-85493624D01*
X152286488Y-85463927D01*
X152311258Y-85459000D01*
X152488742Y-85459000D01*
X152513512Y-85463927D01*
G37*
G36*
X155053512Y-85463927D02*
G01*
X155202812Y-85493624D01*
X155366784Y-85561544D01*
X155514354Y-85660147D01*
X155639853Y-85785646D01*
X155738456Y-85933216D01*
X155806376Y-86097188D01*
X155841000Y-86271259D01*
X155841000Y-86448741D01*
X155806376Y-86622812D01*
X155738456Y-86786784D01*
X155639853Y-86934354D01*
X155514354Y-87059853D01*
X155366784Y-87158456D01*
X155202812Y-87226376D01*
X155053512Y-87256073D01*
X155028742Y-87261000D01*
X154851258Y-87261000D01*
X154826488Y-87256073D01*
X154677188Y-87226376D01*
X154513216Y-87158456D01*
X154365646Y-87059853D01*
X154240147Y-86934354D01*
X154141544Y-86786784D01*
X154073624Y-86622812D01*
X154039000Y-86448741D01*
X154039000Y-86271259D01*
X154073624Y-86097188D01*
X154141544Y-85933216D01*
X154240147Y-85785646D01*
X154365646Y-85660147D01*
X154513216Y-85561544D01*
X154677188Y-85493624D01*
X154826488Y-85463927D01*
X154851258Y-85459000D01*
X155028742Y-85459000D01*
X155053512Y-85463927D01*
G37*
G36*
X129653512Y-85463927D02*
G01*
X129802812Y-85493624D01*
X129966784Y-85561544D01*
X130114354Y-85660147D01*
X130239853Y-85785646D01*
X130338456Y-85933216D01*
X130406376Y-86097188D01*
X130441000Y-86271259D01*
X130441000Y-86448741D01*
X130406376Y-86622812D01*
X130338456Y-86786784D01*
X130239853Y-86934354D01*
X130114354Y-87059853D01*
X129966784Y-87158456D01*
X129802812Y-87226376D01*
X129653512Y-87256073D01*
X129628742Y-87261000D01*
X129451258Y-87261000D01*
X129426488Y-87256073D01*
X129277188Y-87226376D01*
X129113216Y-87158456D01*
X128965646Y-87059853D01*
X128840147Y-86934354D01*
X128741544Y-86786784D01*
X128673624Y-86622812D01*
X128639000Y-86448741D01*
X128639000Y-86271259D01*
X128673624Y-86097188D01*
X128741544Y-85933216D01*
X128840147Y-85785646D01*
X128965646Y-85660147D01*
X129113216Y-85561544D01*
X129277188Y-85493624D01*
X129426488Y-85463927D01*
X129451258Y-85459000D01*
X129628742Y-85459000D01*
X129653512Y-85463927D01*
G37*
G36*
X157593512Y-85463927D02*
G01*
X157742812Y-85493624D01*
X157906784Y-85561544D01*
X158054354Y-85660147D01*
X158179853Y-85785646D01*
X158278456Y-85933216D01*
X158346376Y-86097188D01*
X158381000Y-86271259D01*
X158381000Y-86448741D01*
X158346376Y-86622812D01*
X158278456Y-86786784D01*
X158179853Y-86934354D01*
X158054354Y-87059853D01*
X157906784Y-87158456D01*
X157742812Y-87226376D01*
X157593512Y-87256073D01*
X157568742Y-87261000D01*
X157391258Y-87261000D01*
X157366488Y-87256073D01*
X157217188Y-87226376D01*
X157053216Y-87158456D01*
X156905646Y-87059853D01*
X156780147Y-86934354D01*
X156681544Y-86786784D01*
X156613624Y-86622812D01*
X156579000Y-86448741D01*
X156579000Y-86271259D01*
X156613624Y-86097188D01*
X156681544Y-85933216D01*
X156780147Y-85785646D01*
X156905646Y-85660147D01*
X157053216Y-85561544D01*
X157217188Y-85493624D01*
X157366488Y-85463927D01*
X157391258Y-85459000D01*
X157568742Y-85459000D01*
X157593512Y-85463927D01*
G37*
M02*
