M48
; DRILL file {KiCad (5.1.5)-3} date 16/03/2020 2:14:43 PM
; FORMAT={2:4/ absolute / inch / suppress leading zeros}
; #@! TF.CreationDate,2020-03-16T14:14:43+10:00
; #@! TF.GenerationSoftware,Kicad,Pcbnew,(5.1.5)-3
; #@! TF.FileFunction,Plated,1,2,PTH
FMAT,2
INCH,TZ
T1C0.0118
T2C0.0157
T3C0.0236
T4C0.0335
T5C0.0394
T6C0.0866
%
G90
G05
T1
X48000Y-36700
X48400Y-40800
X48400Y-41600
X48700Y-39400
X49200Y-38300
X49200Y-40500
X49800Y-38300
X49800Y-40500
X50400Y-38300
X50400Y-40500
X50800Y-36100
X51000Y-39400
X51400Y-36100
X52000Y-36100
X52000Y-41800
X52600Y-36100
X52600Y-41800
X53200Y-41800
X53800Y-41800
X55200Y-38000
X55200Y-38600
X55200Y-39500
X56400Y-36300
X58100Y-38700
X58200Y-42000
X58800Y-35700
X58800Y-36300
X58800Y-39100
X59200Y-37300
X60300Y-40700
X61350Y-41000
X61350Y-41350
X61350Y-41700
X61350Y-42050
X61350Y-42400
X61600Y-35900
X61600Y-38200
X62500Y-40550
X62900Y-40300
X63500Y-37400
X64600Y-36800
X64700Y-42150
X65300Y-41750
X65700Y-38400
T2
X65950Y-36100
X66141Y-35641
X66141Y-36559
X66600Y-35450
X66600Y-36750
X67059Y-35641
X67059Y-36559
X67250Y-36100
X65950Y-41900
X66141Y-41441
X66141Y-42359
X66600Y-41250
X66600Y-42550
X67059Y-41441
X67059Y-42359
X67250Y-41900
T4
X66324Y-38016
X66324Y-39984
T5
X47000Y-34000
X48000Y-34000
X49000Y-34000
X50000Y-34000
X51000Y-34000
X52000Y-34000
X53000Y-34000
X54000Y-34000
X55000Y-34000
X56000Y-34000
X57000Y-34000
X58000Y-34000
X59000Y-34000
X60000Y-34000
X61000Y-34000
X62000Y-34000
X63000Y-34000
X64000Y-34000
X65000Y-34000
X66000Y-34000
X67000Y-34000
X47000Y-44000
X48000Y-44000
X49000Y-44000
X50000Y-44000
X51000Y-44000
X52000Y-44000
X53000Y-44000
X54000Y-44000
X55000Y-44000
X56000Y-44000
X57000Y-44000
X58000Y-44000
X59000Y-44000
X60000Y-44000
X61000Y-44000
X62000Y-44000
X63000Y-44000
X64000Y-44000
X65000Y-44000
X66000Y-44000
X67000Y-44000
T6
X66600Y-36100
X66600Y-41900
T3
G00X67249Y-37622
M15
G01X67525Y-37622
M16
G05
G00X67525Y-40378
M15
G01X67249Y-40378
M16
G05
T0
M30
