G04 #@! TF.GenerationSoftware,KiCad,Pcbnew,(5.1.5)-3*
G04 #@! TF.CreationDate,2020-03-16T15:29:39+10:00*
G04 #@! TF.ProjectId,ESP32-S2-Breakout,45535033-322d-4533-922d-427265616b6f,rev?*
G04 #@! TF.SameCoordinates,Original*
G04 #@! TF.FileFunction,Legend,Bot*
G04 #@! TF.FilePolarity,Positive*
%FSLAX46Y46*%
G04 Gerber Fmt 4.6, Leading zero omitted, Abs format (unit mm)*
G04 Created by KiCad (PCBNEW (5.1.5)-3) date 2020-03-16 15:29:39*
%MOMM*%
%LPD*%
G04 APERTURE LIST*
%ADD10C,0.150000*%
%ADD11C,0.120000*%
G04 APERTURE END LIST*
D10*
X124488571Y-109526428D02*
X124431428Y-109526428D01*
X124374285Y-109555000D01*
X124345714Y-109583571D01*
X124317142Y-109640714D01*
X124288571Y-109755000D01*
X124288571Y-109897857D01*
X124317142Y-110012142D01*
X124345714Y-110069285D01*
X124374285Y-110097857D01*
X124431428Y-110126428D01*
X124488571Y-110126428D01*
X124545714Y-110097857D01*
X124574285Y-110069285D01*
X124602857Y-110012142D01*
X124631428Y-109897857D01*
X124631428Y-109755000D01*
X124602857Y-109640714D01*
X124574285Y-109583571D01*
X124545714Y-109555000D01*
X124488571Y-109526428D01*
X155054285Y-110126428D02*
X155397142Y-110126428D01*
X155225714Y-110126428D02*
X155225714Y-109526428D01*
X155282857Y-109612142D01*
X155340000Y-109669285D01*
X155397142Y-109697857D01*
X154825714Y-109583571D02*
X154797142Y-109555000D01*
X154740000Y-109526428D01*
X154597142Y-109526428D01*
X154540000Y-109555000D01*
X154511428Y-109583571D01*
X154482857Y-109640714D01*
X154482857Y-109697857D01*
X154511428Y-109783571D01*
X154854285Y-110126428D01*
X154482857Y-110126428D01*
X152514285Y-110126428D02*
X152857142Y-110126428D01*
X152685714Y-110126428D02*
X152685714Y-109526428D01*
X152742857Y-109612142D01*
X152800000Y-109669285D01*
X152857142Y-109697857D01*
X151942857Y-110126428D02*
X152285714Y-110126428D01*
X152114285Y-110126428D02*
X152114285Y-109526428D01*
X152171428Y-109612142D01*
X152228571Y-109669285D01*
X152285714Y-109697857D01*
X160134285Y-110126428D02*
X160477142Y-110126428D01*
X160305714Y-110126428D02*
X160305714Y-109526428D01*
X160362857Y-109612142D01*
X160420000Y-109669285D01*
X160477142Y-109697857D01*
X159620000Y-109726428D02*
X159620000Y-110126428D01*
X159762857Y-109497857D02*
X159905714Y-109926428D01*
X159534285Y-109926428D01*
X157594285Y-110126428D02*
X157937142Y-110126428D01*
X157765714Y-110126428D02*
X157765714Y-109526428D01*
X157822857Y-109612142D01*
X157880000Y-109669285D01*
X157937142Y-109697857D01*
X157394285Y-109526428D02*
X157022857Y-109526428D01*
X157222857Y-109755000D01*
X157137142Y-109755000D01*
X157080000Y-109783571D01*
X157051428Y-109812142D01*
X157022857Y-109869285D01*
X157022857Y-110012142D01*
X157051428Y-110069285D01*
X157080000Y-110097857D01*
X157137142Y-110126428D01*
X157308571Y-110126428D01*
X157365714Y-110097857D01*
X157394285Y-110069285D01*
X147434285Y-110126428D02*
X147320000Y-110126428D01*
X147262857Y-110097857D01*
X147234285Y-110069285D01*
X147177142Y-109983571D01*
X147148571Y-109869285D01*
X147148571Y-109640714D01*
X147177142Y-109583571D01*
X147205714Y-109555000D01*
X147262857Y-109526428D01*
X147377142Y-109526428D01*
X147434285Y-109555000D01*
X147462857Y-109583571D01*
X147491428Y-109640714D01*
X147491428Y-109783571D01*
X147462857Y-109840714D01*
X147434285Y-109869285D01*
X147377142Y-109897857D01*
X147262857Y-109897857D01*
X147205714Y-109869285D01*
X147177142Y-109840714D01*
X147148571Y-109783571D01*
X129711428Y-109583571D02*
X129682857Y-109555000D01*
X129625714Y-109526428D01*
X129482857Y-109526428D01*
X129425714Y-109555000D01*
X129397142Y-109583571D01*
X129368571Y-109640714D01*
X129368571Y-109697857D01*
X129397142Y-109783571D01*
X129740000Y-110126428D01*
X129368571Y-110126428D01*
X144837142Y-109783571D02*
X144894285Y-109755000D01*
X144922857Y-109726428D01*
X144951428Y-109669285D01*
X144951428Y-109640714D01*
X144922857Y-109583571D01*
X144894285Y-109555000D01*
X144837142Y-109526428D01*
X144722857Y-109526428D01*
X144665714Y-109555000D01*
X144637142Y-109583571D01*
X144608571Y-109640714D01*
X144608571Y-109669285D01*
X144637142Y-109726428D01*
X144665714Y-109755000D01*
X144722857Y-109783571D01*
X144837142Y-109783571D01*
X144894285Y-109812142D01*
X144922857Y-109840714D01*
X144951428Y-109897857D01*
X144951428Y-110012142D01*
X144922857Y-110069285D01*
X144894285Y-110097857D01*
X144837142Y-110126428D01*
X144722857Y-110126428D01*
X144665714Y-110097857D01*
X144637142Y-110069285D01*
X144608571Y-110012142D01*
X144608571Y-109897857D01*
X144637142Y-109840714D01*
X144665714Y-109812142D01*
X144722857Y-109783571D01*
X162674285Y-110126428D02*
X163017142Y-110126428D01*
X162845714Y-110126428D02*
X162845714Y-109526428D01*
X162902857Y-109612142D01*
X162960000Y-109669285D01*
X163017142Y-109697857D01*
X162131428Y-109526428D02*
X162417142Y-109526428D01*
X162445714Y-109812142D01*
X162417142Y-109783571D01*
X162360000Y-109755000D01*
X162217142Y-109755000D01*
X162160000Y-109783571D01*
X162131428Y-109812142D01*
X162102857Y-109869285D01*
X162102857Y-110012142D01*
X162131428Y-110069285D01*
X162160000Y-110097857D01*
X162217142Y-110126428D01*
X162360000Y-110126428D01*
X162417142Y-110097857D01*
X162445714Y-110069285D01*
X170294285Y-110126428D02*
X170637142Y-110126428D01*
X170465714Y-110126428D02*
X170465714Y-109526428D01*
X170522857Y-109612142D01*
X170580000Y-109669285D01*
X170637142Y-109697857D01*
X169951428Y-109783571D02*
X170008571Y-109755000D01*
X170037142Y-109726428D01*
X170065714Y-109669285D01*
X170065714Y-109640714D01*
X170037142Y-109583571D01*
X170008571Y-109555000D01*
X169951428Y-109526428D01*
X169837142Y-109526428D01*
X169780000Y-109555000D01*
X169751428Y-109583571D01*
X169722857Y-109640714D01*
X169722857Y-109669285D01*
X169751428Y-109726428D01*
X169780000Y-109755000D01*
X169837142Y-109783571D01*
X169951428Y-109783571D01*
X170008571Y-109812142D01*
X170037142Y-109840714D01*
X170065714Y-109897857D01*
X170065714Y-110012142D01*
X170037142Y-110069285D01*
X170008571Y-110097857D01*
X169951428Y-110126428D01*
X169837142Y-110126428D01*
X169780000Y-110097857D01*
X169751428Y-110069285D01*
X169722857Y-110012142D01*
X169722857Y-109897857D01*
X169751428Y-109840714D01*
X169780000Y-109812142D01*
X169837142Y-109783571D01*
X132280000Y-109526428D02*
X131908571Y-109526428D01*
X132108571Y-109755000D01*
X132022857Y-109755000D01*
X131965714Y-109783571D01*
X131937142Y-109812142D01*
X131908571Y-109869285D01*
X131908571Y-110012142D01*
X131937142Y-110069285D01*
X131965714Y-110097857D01*
X132022857Y-110126428D01*
X132194285Y-110126428D01*
X132251428Y-110097857D01*
X132280000Y-110069285D01*
X119837142Y-109555000D02*
X119894285Y-109526428D01*
X119980000Y-109526428D01*
X120065714Y-109555000D01*
X120122857Y-109612142D01*
X120151428Y-109669285D01*
X120180000Y-109783571D01*
X120180000Y-109869285D01*
X120151428Y-109983571D01*
X120122857Y-110040714D01*
X120065714Y-110097857D01*
X119980000Y-110126428D01*
X119922857Y-110126428D01*
X119837142Y-110097857D01*
X119808571Y-110069285D01*
X119808571Y-109869285D01*
X119922857Y-109869285D01*
X119551428Y-110126428D02*
X119551428Y-109526428D01*
X119208571Y-110126428D01*
X119208571Y-109526428D01*
X118922857Y-110126428D02*
X118922857Y-109526428D01*
X118780000Y-109526428D01*
X118694285Y-109555000D01*
X118637142Y-109612142D01*
X118608571Y-109669285D01*
X118580000Y-109783571D01*
X118580000Y-109869285D01*
X118608571Y-109983571D01*
X118637142Y-110040714D01*
X118694285Y-110097857D01*
X118780000Y-110126428D01*
X118922857Y-110126428D01*
X122662857Y-109526428D02*
X122291428Y-109526428D01*
X122491428Y-109755000D01*
X122405714Y-109755000D01*
X122348571Y-109783571D01*
X122320000Y-109812142D01*
X122291428Y-109869285D01*
X122291428Y-110012142D01*
X122320000Y-110069285D01*
X122348571Y-110097857D01*
X122405714Y-110126428D01*
X122577142Y-110126428D01*
X122634285Y-110097857D01*
X122662857Y-110069285D01*
X122120000Y-109526428D02*
X121920000Y-110126428D01*
X121720000Y-109526428D01*
X121577142Y-109526428D02*
X121205714Y-109526428D01*
X121405714Y-109755000D01*
X121320000Y-109755000D01*
X121262857Y-109783571D01*
X121234285Y-109812142D01*
X121205714Y-109869285D01*
X121205714Y-110012142D01*
X121234285Y-110069285D01*
X121262857Y-110097857D01*
X121320000Y-110126428D01*
X121491428Y-110126428D01*
X121548571Y-110097857D01*
X121577142Y-110069285D01*
X126828571Y-110126428D02*
X127171428Y-110126428D01*
X127000000Y-110126428D02*
X127000000Y-109526428D01*
X127057142Y-109612142D01*
X127114285Y-109669285D01*
X127171428Y-109697857D01*
X149974285Y-110126428D02*
X150317142Y-110126428D01*
X150145714Y-110126428D02*
X150145714Y-109526428D01*
X150202857Y-109612142D01*
X150260000Y-109669285D01*
X150317142Y-109697857D01*
X149602857Y-109526428D02*
X149545714Y-109526428D01*
X149488571Y-109555000D01*
X149460000Y-109583571D01*
X149431428Y-109640714D01*
X149402857Y-109755000D01*
X149402857Y-109897857D01*
X149431428Y-110012142D01*
X149460000Y-110069285D01*
X149488571Y-110097857D01*
X149545714Y-110126428D01*
X149602857Y-110126428D01*
X149660000Y-110097857D01*
X149688571Y-110069285D01*
X149717142Y-110012142D01*
X149745714Y-109897857D01*
X149745714Y-109755000D01*
X149717142Y-109640714D01*
X149688571Y-109583571D01*
X149660000Y-109555000D01*
X149602857Y-109526428D01*
X134505714Y-109726428D02*
X134505714Y-110126428D01*
X134648571Y-109497857D02*
X134791428Y-109926428D01*
X134420000Y-109926428D01*
X137017142Y-109526428D02*
X137302857Y-109526428D01*
X137331428Y-109812142D01*
X137302857Y-109783571D01*
X137245714Y-109755000D01*
X137102857Y-109755000D01*
X137045714Y-109783571D01*
X137017142Y-109812142D01*
X136988571Y-109869285D01*
X136988571Y-110012142D01*
X137017142Y-110069285D01*
X137045714Y-110097857D01*
X137102857Y-110126428D01*
X137245714Y-110126428D01*
X137302857Y-110097857D01*
X137331428Y-110069285D01*
X139585714Y-109526428D02*
X139700000Y-109526428D01*
X139757142Y-109555000D01*
X139785714Y-109583571D01*
X139842857Y-109669285D01*
X139871428Y-109783571D01*
X139871428Y-110012142D01*
X139842857Y-110069285D01*
X139814285Y-110097857D01*
X139757142Y-110126428D01*
X139642857Y-110126428D01*
X139585714Y-110097857D01*
X139557142Y-110069285D01*
X139528571Y-110012142D01*
X139528571Y-109869285D01*
X139557142Y-109812142D01*
X139585714Y-109783571D01*
X139642857Y-109755000D01*
X139757142Y-109755000D01*
X139814285Y-109783571D01*
X139842857Y-109812142D01*
X139871428Y-109869285D01*
X142440000Y-109526428D02*
X142040000Y-109526428D01*
X142297142Y-110126428D01*
X167754285Y-110126428D02*
X168097142Y-110126428D01*
X167925714Y-110126428D02*
X167925714Y-109526428D01*
X167982857Y-109612142D01*
X168040000Y-109669285D01*
X168097142Y-109697857D01*
X167554285Y-109526428D02*
X167154285Y-109526428D01*
X167411428Y-110126428D01*
X165214285Y-110126428D02*
X165557142Y-110126428D01*
X165385714Y-110126428D02*
X165385714Y-109526428D01*
X165442857Y-109612142D01*
X165500000Y-109669285D01*
X165557142Y-109697857D01*
X164700000Y-109526428D02*
X164814285Y-109526428D01*
X164871428Y-109555000D01*
X164900000Y-109583571D01*
X164957142Y-109669285D01*
X164985714Y-109783571D01*
X164985714Y-110012142D01*
X164957142Y-110069285D01*
X164928571Y-110097857D01*
X164871428Y-110126428D01*
X164757142Y-110126428D01*
X164700000Y-110097857D01*
X164671428Y-110069285D01*
X164642857Y-110012142D01*
X164642857Y-109869285D01*
X164671428Y-109812142D01*
X164700000Y-109783571D01*
X164757142Y-109755000D01*
X164871428Y-109755000D01*
X164928571Y-109783571D01*
X164957142Y-109812142D01*
X164985714Y-109869285D01*
X124017142Y-88307857D02*
X124217142Y-88307857D01*
X124302857Y-87993571D02*
X124017142Y-87993571D01*
X124017142Y-88593571D01*
X124302857Y-88593571D01*
X124560000Y-87993571D02*
X124560000Y-88593571D01*
X124902857Y-87993571D01*
X124902857Y-88593571D01*
X144294285Y-88593571D02*
X144665714Y-88593571D01*
X144465714Y-88365000D01*
X144551428Y-88365000D01*
X144608571Y-88336428D01*
X144637142Y-88307857D01*
X144665714Y-88250714D01*
X144665714Y-88107857D01*
X144637142Y-88050714D01*
X144608571Y-88022142D01*
X144551428Y-87993571D01*
X144380000Y-87993571D01*
X144322857Y-88022142D01*
X144294285Y-88050714D01*
X144951428Y-87993571D02*
X145065714Y-87993571D01*
X145122857Y-88022142D01*
X145151428Y-88050714D01*
X145208571Y-88136428D01*
X145237142Y-88250714D01*
X145237142Y-88479285D01*
X145208571Y-88536428D01*
X145180000Y-88565000D01*
X145122857Y-88593571D01*
X145008571Y-88593571D01*
X144951428Y-88565000D01*
X144922857Y-88536428D01*
X144894285Y-88479285D01*
X144894285Y-88336428D01*
X144922857Y-88279285D01*
X144951428Y-88250714D01*
X145008571Y-88222142D01*
X145122857Y-88222142D01*
X145180000Y-88250714D01*
X145208571Y-88279285D01*
X145237142Y-88336428D01*
X151914285Y-88593571D02*
X152285714Y-88593571D01*
X152085714Y-88365000D01*
X152171428Y-88365000D01*
X152228571Y-88336428D01*
X152257142Y-88307857D01*
X152285714Y-88250714D01*
X152285714Y-88107857D01*
X152257142Y-88050714D01*
X152228571Y-88022142D01*
X152171428Y-87993571D01*
X152000000Y-87993571D01*
X151942857Y-88022142D01*
X151914285Y-88050714D01*
X152800000Y-88593571D02*
X152685714Y-88593571D01*
X152628571Y-88565000D01*
X152600000Y-88536428D01*
X152542857Y-88450714D01*
X152514285Y-88336428D01*
X152514285Y-88107857D01*
X152542857Y-88050714D01*
X152571428Y-88022142D01*
X152628571Y-87993571D01*
X152742857Y-87993571D01*
X152800000Y-88022142D01*
X152828571Y-88050714D01*
X152857142Y-88107857D01*
X152857142Y-88250714D01*
X152828571Y-88307857D01*
X152800000Y-88336428D01*
X152742857Y-88365000D01*
X152628571Y-88365000D01*
X152571428Y-88336428D01*
X152542857Y-88307857D01*
X152514285Y-88250714D01*
X156994285Y-88593571D02*
X157365714Y-88593571D01*
X157165714Y-88365000D01*
X157251428Y-88365000D01*
X157308571Y-88336428D01*
X157337142Y-88307857D01*
X157365714Y-88250714D01*
X157365714Y-88107857D01*
X157337142Y-88050714D01*
X157308571Y-88022142D01*
X157251428Y-87993571D01*
X157080000Y-87993571D01*
X157022857Y-88022142D01*
X156994285Y-88050714D01*
X157880000Y-88393571D02*
X157880000Y-87993571D01*
X157737142Y-88622142D02*
X157594285Y-88193571D01*
X157965714Y-88193571D01*
X154454285Y-88593571D02*
X154825714Y-88593571D01*
X154625714Y-88365000D01*
X154711428Y-88365000D01*
X154768571Y-88336428D01*
X154797142Y-88307857D01*
X154825714Y-88250714D01*
X154825714Y-88107857D01*
X154797142Y-88050714D01*
X154768571Y-88022142D01*
X154711428Y-87993571D01*
X154540000Y-87993571D01*
X154482857Y-88022142D01*
X154454285Y-88050714D01*
X155368571Y-88593571D02*
X155082857Y-88593571D01*
X155054285Y-88307857D01*
X155082857Y-88336428D01*
X155140000Y-88365000D01*
X155282857Y-88365000D01*
X155340000Y-88336428D01*
X155368571Y-88307857D01*
X155397142Y-88250714D01*
X155397142Y-88107857D01*
X155368571Y-88050714D01*
X155340000Y-88022142D01*
X155282857Y-87993571D01*
X155140000Y-87993571D01*
X155082857Y-88022142D01*
X155054285Y-88050714D01*
X134162857Y-88593571D02*
X134505714Y-88593571D01*
X134334285Y-87993571D02*
X134334285Y-88593571D01*
X134648571Y-88593571D02*
X135048571Y-87993571D01*
X135048571Y-88593571D02*
X134648571Y-87993571D01*
X118922857Y-88565000D02*
X118865714Y-88593571D01*
X118780000Y-88593571D01*
X118694285Y-88565000D01*
X118637142Y-88507857D01*
X118608571Y-88450714D01*
X118580000Y-88336428D01*
X118580000Y-88250714D01*
X118608571Y-88136428D01*
X118637142Y-88079285D01*
X118694285Y-88022142D01*
X118780000Y-87993571D01*
X118837142Y-87993571D01*
X118922857Y-88022142D01*
X118951428Y-88050714D01*
X118951428Y-88250714D01*
X118837142Y-88250714D01*
X119208571Y-87993571D02*
X119208571Y-88593571D01*
X119551428Y-87993571D01*
X119551428Y-88593571D01*
X119837142Y-87993571D02*
X119837142Y-88593571D01*
X119980000Y-88593571D01*
X120065714Y-88565000D01*
X120122857Y-88507857D01*
X120151428Y-88450714D01*
X120180000Y-88336428D01*
X120180000Y-88250714D01*
X120151428Y-88136428D01*
X120122857Y-88079285D01*
X120065714Y-88022142D01*
X119980000Y-87993571D01*
X119837142Y-87993571D01*
X149374285Y-88593571D02*
X149745714Y-88593571D01*
X149545714Y-88365000D01*
X149631428Y-88365000D01*
X149688571Y-88336428D01*
X149717142Y-88307857D01*
X149745714Y-88250714D01*
X149745714Y-88107857D01*
X149717142Y-88050714D01*
X149688571Y-88022142D01*
X149631428Y-87993571D01*
X149460000Y-87993571D01*
X149402857Y-88022142D01*
X149374285Y-88050714D01*
X149945714Y-88593571D02*
X150345714Y-88593571D01*
X150088571Y-87993571D01*
X126828571Y-88393571D02*
X126828571Y-87993571D01*
X126685714Y-88622142D02*
X126542857Y-88193571D01*
X126914285Y-88193571D01*
X127400000Y-88593571D02*
X127285714Y-88593571D01*
X127228571Y-88565000D01*
X127200000Y-88536428D01*
X127142857Y-88450714D01*
X127114285Y-88336428D01*
X127114285Y-88107857D01*
X127142857Y-88050714D01*
X127171428Y-88022142D01*
X127228571Y-87993571D01*
X127342857Y-87993571D01*
X127400000Y-88022142D01*
X127428571Y-88050714D01*
X127457142Y-88107857D01*
X127457142Y-88250714D01*
X127428571Y-88307857D01*
X127400000Y-88336428D01*
X127342857Y-88365000D01*
X127228571Y-88365000D01*
X127171428Y-88336428D01*
X127142857Y-88307857D01*
X127114285Y-88250714D01*
X139528571Y-88393571D02*
X139528571Y-87993571D01*
X139385714Y-88622142D02*
X139242857Y-88193571D01*
X139614285Y-88193571D01*
X140157142Y-87993571D02*
X139814285Y-87993571D01*
X139985714Y-87993571D02*
X139985714Y-88593571D01*
X139928571Y-88507857D01*
X139871428Y-88450714D01*
X139814285Y-88422142D01*
X146834285Y-88593571D02*
X147205714Y-88593571D01*
X147005714Y-88365000D01*
X147091428Y-88365000D01*
X147148571Y-88336428D01*
X147177142Y-88307857D01*
X147205714Y-88250714D01*
X147205714Y-88107857D01*
X147177142Y-88050714D01*
X147148571Y-88022142D01*
X147091428Y-87993571D01*
X146920000Y-87993571D01*
X146862857Y-88022142D01*
X146834285Y-88050714D01*
X147548571Y-88336428D02*
X147491428Y-88365000D01*
X147462857Y-88393571D01*
X147434285Y-88450714D01*
X147434285Y-88479285D01*
X147462857Y-88536428D01*
X147491428Y-88565000D01*
X147548571Y-88593571D01*
X147662857Y-88593571D01*
X147720000Y-88565000D01*
X147748571Y-88536428D01*
X147777142Y-88479285D01*
X147777142Y-88450714D01*
X147748571Y-88393571D01*
X147720000Y-88365000D01*
X147662857Y-88336428D01*
X147548571Y-88336428D01*
X147491428Y-88307857D01*
X147462857Y-88279285D01*
X147434285Y-88222142D01*
X147434285Y-88107857D01*
X147462857Y-88050714D01*
X147491428Y-88022142D01*
X147548571Y-87993571D01*
X147662857Y-87993571D01*
X147720000Y-88022142D01*
X147748571Y-88050714D01*
X147777142Y-88107857D01*
X147777142Y-88222142D01*
X147748571Y-88279285D01*
X147720000Y-88307857D01*
X147662857Y-88336428D01*
X129368571Y-88393571D02*
X129368571Y-87993571D01*
X129225714Y-88622142D02*
X129082857Y-88193571D01*
X129454285Y-88193571D01*
X129968571Y-88593571D02*
X129682857Y-88593571D01*
X129654285Y-88307857D01*
X129682857Y-88336428D01*
X129740000Y-88365000D01*
X129882857Y-88365000D01*
X129940000Y-88336428D01*
X129968571Y-88307857D01*
X129997142Y-88250714D01*
X129997142Y-88107857D01*
X129968571Y-88050714D01*
X129940000Y-88022142D01*
X129882857Y-87993571D01*
X129740000Y-87993571D01*
X129682857Y-88022142D01*
X129654285Y-88050714D01*
X142068571Y-88393571D02*
X142068571Y-87993571D01*
X141925714Y-88622142D02*
X141782857Y-88193571D01*
X142154285Y-88193571D01*
X142497142Y-88593571D02*
X142554285Y-88593571D01*
X142611428Y-88565000D01*
X142640000Y-88536428D01*
X142668571Y-88479285D01*
X142697142Y-88365000D01*
X142697142Y-88222142D01*
X142668571Y-88107857D01*
X142640000Y-88050714D01*
X142611428Y-88022142D01*
X142554285Y-87993571D01*
X142497142Y-87993571D01*
X142440000Y-88022142D01*
X142411428Y-88050714D01*
X142382857Y-88107857D01*
X142354285Y-88222142D01*
X142354285Y-88365000D01*
X142382857Y-88479285D01*
X142411428Y-88536428D01*
X142440000Y-88565000D01*
X142497142Y-88593571D01*
X136988571Y-88393571D02*
X136988571Y-87993571D01*
X136845714Y-88622142D02*
X136702857Y-88193571D01*
X137074285Y-88193571D01*
X137274285Y-88536428D02*
X137302857Y-88565000D01*
X137360000Y-88593571D01*
X137502857Y-88593571D01*
X137560000Y-88565000D01*
X137588571Y-88536428D01*
X137617142Y-88479285D01*
X137617142Y-88422142D01*
X137588571Y-88336428D01*
X137245714Y-87993571D01*
X137617142Y-87993571D01*
X121177142Y-88593571D02*
X121548571Y-88593571D01*
X121348571Y-88365000D01*
X121434285Y-88365000D01*
X121491428Y-88336428D01*
X121520000Y-88307857D01*
X121548571Y-88250714D01*
X121548571Y-88107857D01*
X121520000Y-88050714D01*
X121491428Y-88022142D01*
X121434285Y-87993571D01*
X121262857Y-87993571D01*
X121205714Y-88022142D01*
X121177142Y-88050714D01*
X121720000Y-88593571D02*
X121920000Y-87993571D01*
X122120000Y-88593571D01*
X122262857Y-88593571D02*
X122634285Y-88593571D01*
X122434285Y-88365000D01*
X122520000Y-88365000D01*
X122577142Y-88336428D01*
X122605714Y-88307857D01*
X122634285Y-88250714D01*
X122634285Y-88107857D01*
X122605714Y-88050714D01*
X122577142Y-88022142D01*
X122520000Y-87993571D01*
X122348571Y-87993571D01*
X122291428Y-88022142D01*
X122262857Y-88050714D01*
X131980000Y-87993571D02*
X131780000Y-88279285D01*
X131637142Y-87993571D02*
X131637142Y-88593571D01*
X131865714Y-88593571D01*
X131922857Y-88565000D01*
X131951428Y-88536428D01*
X131980000Y-88479285D01*
X131980000Y-88393571D01*
X131951428Y-88336428D01*
X131922857Y-88307857D01*
X131865714Y-88279285D01*
X131637142Y-88279285D01*
X132180000Y-88593571D02*
X132580000Y-87993571D01*
X132580000Y-88593571D02*
X132180000Y-87993571D01*
X159534285Y-88593571D02*
X159905714Y-88593571D01*
X159705714Y-88365000D01*
X159791428Y-88365000D01*
X159848571Y-88336428D01*
X159877142Y-88307857D01*
X159905714Y-88250714D01*
X159905714Y-88107857D01*
X159877142Y-88050714D01*
X159848571Y-88022142D01*
X159791428Y-87993571D01*
X159620000Y-87993571D01*
X159562857Y-88022142D01*
X159534285Y-88050714D01*
X160105714Y-88593571D02*
X160477142Y-88593571D01*
X160277142Y-88365000D01*
X160362857Y-88365000D01*
X160420000Y-88336428D01*
X160448571Y-88307857D01*
X160477142Y-88250714D01*
X160477142Y-88107857D01*
X160448571Y-88050714D01*
X160420000Y-88022142D01*
X160362857Y-87993571D01*
X160191428Y-87993571D01*
X160134285Y-88022142D01*
X160105714Y-88050714D01*
X162102857Y-88536428D02*
X162131428Y-88565000D01*
X162188571Y-88593571D01*
X162331428Y-88593571D01*
X162388571Y-88565000D01*
X162417142Y-88536428D01*
X162445714Y-88479285D01*
X162445714Y-88422142D01*
X162417142Y-88336428D01*
X162074285Y-87993571D01*
X162445714Y-87993571D01*
X162960000Y-88593571D02*
X162845714Y-88593571D01*
X162788571Y-88565000D01*
X162760000Y-88536428D01*
X162702857Y-88450714D01*
X162674285Y-88336428D01*
X162674285Y-88107857D01*
X162702857Y-88050714D01*
X162731428Y-88022142D01*
X162788571Y-87993571D01*
X162902857Y-87993571D01*
X162960000Y-88022142D01*
X162988571Y-88050714D01*
X163017142Y-88107857D01*
X163017142Y-88250714D01*
X162988571Y-88307857D01*
X162960000Y-88336428D01*
X162902857Y-88365000D01*
X162788571Y-88365000D01*
X162731428Y-88336428D01*
X162702857Y-88307857D01*
X162674285Y-88250714D01*
X164642857Y-88536428D02*
X164671428Y-88565000D01*
X164728571Y-88593571D01*
X164871428Y-88593571D01*
X164928571Y-88565000D01*
X164957142Y-88536428D01*
X164985714Y-88479285D01*
X164985714Y-88422142D01*
X164957142Y-88336428D01*
X164614285Y-87993571D01*
X164985714Y-87993571D01*
X165557142Y-87993571D02*
X165214285Y-87993571D01*
X165385714Y-87993571D02*
X165385714Y-88593571D01*
X165328571Y-88507857D01*
X165271428Y-88450714D01*
X165214285Y-88422142D01*
X167182857Y-88536428D02*
X167211428Y-88565000D01*
X167268571Y-88593571D01*
X167411428Y-88593571D01*
X167468571Y-88565000D01*
X167497142Y-88536428D01*
X167525714Y-88479285D01*
X167525714Y-88422142D01*
X167497142Y-88336428D01*
X167154285Y-87993571D01*
X167525714Y-87993571D01*
X167897142Y-88593571D02*
X167954285Y-88593571D01*
X168011428Y-88565000D01*
X168040000Y-88536428D01*
X168068571Y-88479285D01*
X168097142Y-88365000D01*
X168097142Y-88222142D01*
X168068571Y-88107857D01*
X168040000Y-88050714D01*
X168011428Y-88022142D01*
X167954285Y-87993571D01*
X167897142Y-87993571D01*
X167840000Y-88022142D01*
X167811428Y-88050714D01*
X167782857Y-88107857D01*
X167754285Y-88222142D01*
X167754285Y-88365000D01*
X167782857Y-88479285D01*
X167811428Y-88536428D01*
X167840000Y-88565000D01*
X167897142Y-88593571D01*
X170065714Y-87993571D02*
X169722857Y-87993571D01*
X169894285Y-87993571D02*
X169894285Y-88593571D01*
X169837142Y-88507857D01*
X169780000Y-88450714D01*
X169722857Y-88422142D01*
X170351428Y-87993571D02*
X170465714Y-87993571D01*
X170522857Y-88022142D01*
X170551428Y-88050714D01*
X170608571Y-88136428D01*
X170637142Y-88250714D01*
X170637142Y-88479285D01*
X170608571Y-88536428D01*
X170580000Y-88565000D01*
X170522857Y-88593571D01*
X170408571Y-88593571D01*
X170351428Y-88565000D01*
X170322857Y-88536428D01*
X170294285Y-88479285D01*
X170294285Y-88336428D01*
X170322857Y-88279285D01*
X170351428Y-88250714D01*
X170408571Y-88222142D01*
X170522857Y-88222142D01*
X170580000Y-88250714D01*
X170608571Y-88279285D01*
X170637142Y-88336428D01*
X159882857Y-93409238D02*
X159882857Y-93675904D01*
X160301904Y-93790190D02*
X160301904Y-93409238D01*
X159501904Y-93409238D01*
X159501904Y-93790190D01*
X160263809Y-94094952D02*
X160301904Y-94209238D01*
X160301904Y-94399714D01*
X160263809Y-94475904D01*
X160225714Y-94514000D01*
X160149523Y-94552095D01*
X160073333Y-94552095D01*
X159997142Y-94514000D01*
X159959047Y-94475904D01*
X159920952Y-94399714D01*
X159882857Y-94247333D01*
X159844761Y-94171142D01*
X159806666Y-94133047D01*
X159730476Y-94094952D01*
X159654285Y-94094952D01*
X159578095Y-94133047D01*
X159540000Y-94171142D01*
X159501904Y-94247333D01*
X159501904Y-94437809D01*
X159540000Y-94552095D01*
X160301904Y-94894952D02*
X159501904Y-94894952D01*
X159501904Y-95199714D01*
X159540000Y-95275904D01*
X159578095Y-95314000D01*
X159654285Y-95352095D01*
X159768571Y-95352095D01*
X159844761Y-95314000D01*
X159882857Y-95275904D01*
X159920952Y-95199714D01*
X159920952Y-94894952D01*
X159501904Y-95618761D02*
X159501904Y-96114000D01*
X159806666Y-95847333D01*
X159806666Y-95961619D01*
X159844761Y-96037809D01*
X159882857Y-96075904D01*
X159959047Y-96114000D01*
X160149523Y-96114000D01*
X160225714Y-96075904D01*
X160263809Y-96037809D01*
X160301904Y-95961619D01*
X160301904Y-95733047D01*
X160263809Y-95656857D01*
X160225714Y-95618761D01*
X159578095Y-96418761D02*
X159540000Y-96456857D01*
X159501904Y-96533047D01*
X159501904Y-96723523D01*
X159540000Y-96799714D01*
X159578095Y-96837809D01*
X159654285Y-96875904D01*
X159730476Y-96875904D01*
X159844761Y-96837809D01*
X160301904Y-96380666D01*
X160301904Y-96875904D01*
X159997142Y-97218761D02*
X159997142Y-97828285D01*
X160263809Y-98171142D02*
X160301904Y-98285428D01*
X160301904Y-98475904D01*
X160263809Y-98552095D01*
X160225714Y-98590190D01*
X160149523Y-98628285D01*
X160073333Y-98628285D01*
X159997142Y-98590190D01*
X159959047Y-98552095D01*
X159920952Y-98475904D01*
X159882857Y-98323523D01*
X159844761Y-98247333D01*
X159806666Y-98209238D01*
X159730476Y-98171142D01*
X159654285Y-98171142D01*
X159578095Y-98209238D01*
X159540000Y-98247333D01*
X159501904Y-98323523D01*
X159501904Y-98514000D01*
X159540000Y-98628285D01*
X159578095Y-98933047D02*
X159540000Y-98971142D01*
X159501904Y-99047333D01*
X159501904Y-99237809D01*
X159540000Y-99314000D01*
X159578095Y-99352095D01*
X159654285Y-99390190D01*
X159730476Y-99390190D01*
X159844761Y-99352095D01*
X160301904Y-98894952D01*
X160301904Y-99390190D01*
X159882857Y-100609238D02*
X159920952Y-100723523D01*
X159959047Y-100761619D01*
X160035238Y-100799714D01*
X160149523Y-100799714D01*
X160225714Y-100761619D01*
X160263809Y-100723523D01*
X160301904Y-100647333D01*
X160301904Y-100342571D01*
X159501904Y-100342571D01*
X159501904Y-100609238D01*
X159540000Y-100685428D01*
X159578095Y-100723523D01*
X159654285Y-100761619D01*
X159730476Y-100761619D01*
X159806666Y-100723523D01*
X159844761Y-100685428D01*
X159882857Y-100609238D01*
X159882857Y-100342571D01*
X160301904Y-101142571D02*
X159768571Y-101142571D01*
X159920952Y-101142571D02*
X159844761Y-101180666D01*
X159806666Y-101218761D01*
X159768571Y-101294952D01*
X159768571Y-101371142D01*
X160263809Y-101942571D02*
X160301904Y-101866380D01*
X160301904Y-101714000D01*
X160263809Y-101637809D01*
X160187619Y-101599714D01*
X159882857Y-101599714D01*
X159806666Y-101637809D01*
X159768571Y-101714000D01*
X159768571Y-101866380D01*
X159806666Y-101942571D01*
X159882857Y-101980666D01*
X159959047Y-101980666D01*
X160035238Y-101599714D01*
X160301904Y-102666380D02*
X159882857Y-102666380D01*
X159806666Y-102628285D01*
X159768571Y-102552095D01*
X159768571Y-102399714D01*
X159806666Y-102323523D01*
X160263809Y-102666380D02*
X160301904Y-102590190D01*
X160301904Y-102399714D01*
X160263809Y-102323523D01*
X160187619Y-102285428D01*
X160111428Y-102285428D01*
X160035238Y-102323523D01*
X159997142Y-102399714D01*
X159997142Y-102590190D01*
X159959047Y-102666380D01*
X160301904Y-103047333D02*
X159501904Y-103047333D01*
X159997142Y-103123523D02*
X160301904Y-103352095D01*
X159768571Y-103352095D02*
X160073333Y-103047333D01*
X160301904Y-103809238D02*
X160263809Y-103733047D01*
X160225714Y-103694952D01*
X160149523Y-103656857D01*
X159920952Y-103656857D01*
X159844761Y-103694952D01*
X159806666Y-103733047D01*
X159768571Y-103809238D01*
X159768571Y-103923523D01*
X159806666Y-103999714D01*
X159844761Y-104037809D01*
X159920952Y-104075904D01*
X160149523Y-104075904D01*
X160225714Y-104037809D01*
X160263809Y-103999714D01*
X160301904Y-103923523D01*
X160301904Y-103809238D01*
X159768571Y-104761619D02*
X160301904Y-104761619D01*
X159768571Y-104418761D02*
X160187619Y-104418761D01*
X160263809Y-104456857D01*
X160301904Y-104533047D01*
X160301904Y-104647333D01*
X160263809Y-104723523D01*
X160225714Y-104761619D01*
X159768571Y-105028285D02*
X159768571Y-105333047D01*
X159501904Y-105142571D02*
X160187619Y-105142571D01*
X160263809Y-105180666D01*
X160301904Y-105256857D01*
X160301904Y-105333047D01*
X161118571Y-94114000D02*
X161766190Y-94114000D01*
X161842380Y-94075904D01*
X161880476Y-94037809D01*
X161918571Y-93961619D01*
X161918571Y-93847333D01*
X161880476Y-93771142D01*
X161613809Y-94114000D02*
X161651904Y-94037809D01*
X161651904Y-93885428D01*
X161613809Y-93809238D01*
X161575714Y-93771142D01*
X161499523Y-93733047D01*
X161270952Y-93733047D01*
X161194761Y-93771142D01*
X161156666Y-93809238D01*
X161118571Y-93885428D01*
X161118571Y-94037809D01*
X161156666Y-94114000D01*
X161651904Y-94494952D02*
X161118571Y-94494952D01*
X160851904Y-94494952D02*
X160890000Y-94456857D01*
X160928095Y-94494952D01*
X160890000Y-94533047D01*
X160851904Y-94494952D01*
X160928095Y-94494952D01*
X161118571Y-94761619D02*
X161118571Y-95066380D01*
X160851904Y-94875904D02*
X161537619Y-94875904D01*
X161613809Y-94914000D01*
X161651904Y-94990190D01*
X161651904Y-95066380D01*
X161651904Y-95333047D02*
X160851904Y-95333047D01*
X161651904Y-95675904D02*
X161232857Y-95675904D01*
X161156666Y-95637809D01*
X161118571Y-95561619D01*
X161118571Y-95447333D01*
X161156666Y-95371142D01*
X161194761Y-95333047D01*
X161118571Y-96399714D02*
X161651904Y-96399714D01*
X161118571Y-96056857D02*
X161537619Y-96056857D01*
X161613809Y-96094952D01*
X161651904Y-96171142D01*
X161651904Y-96285428D01*
X161613809Y-96361619D01*
X161575714Y-96399714D01*
X161651904Y-96780666D02*
X160851904Y-96780666D01*
X161156666Y-96780666D02*
X161118571Y-96856857D01*
X161118571Y-97009238D01*
X161156666Y-97085428D01*
X161194761Y-97123523D01*
X161270952Y-97161619D01*
X161499523Y-97161619D01*
X161575714Y-97123523D01*
X161613809Y-97085428D01*
X161651904Y-97009238D01*
X161651904Y-96856857D01*
X161613809Y-96780666D01*
X160813809Y-98075904D02*
X161842380Y-97390190D01*
X161613809Y-98647333D02*
X161651904Y-98571142D01*
X161651904Y-98418761D01*
X161613809Y-98342571D01*
X161537619Y-98304476D01*
X161232857Y-98304476D01*
X161156666Y-98342571D01*
X161118571Y-98418761D01*
X161118571Y-98571142D01*
X161156666Y-98647333D01*
X161232857Y-98685428D01*
X161309047Y-98685428D01*
X161385238Y-98304476D01*
X161118571Y-99371142D02*
X161766190Y-99371142D01*
X161842380Y-99333047D01*
X161880476Y-99294952D01*
X161918571Y-99218761D01*
X161918571Y-99104476D01*
X161880476Y-99028285D01*
X161613809Y-99371142D02*
X161651904Y-99294952D01*
X161651904Y-99142571D01*
X161613809Y-99066380D01*
X161575714Y-99028285D01*
X161499523Y-98990190D01*
X161270952Y-98990190D01*
X161194761Y-99028285D01*
X161156666Y-99066380D01*
X161118571Y-99142571D01*
X161118571Y-99294952D01*
X161156666Y-99371142D01*
X161118571Y-100094952D02*
X161766190Y-100094952D01*
X161842380Y-100056857D01*
X161880476Y-100018761D01*
X161918571Y-99942571D01*
X161918571Y-99828285D01*
X161880476Y-99752095D01*
X161613809Y-100094952D02*
X161651904Y-100018761D01*
X161651904Y-99866380D01*
X161613809Y-99790190D01*
X161575714Y-99752095D01*
X161499523Y-99714000D01*
X161270952Y-99714000D01*
X161194761Y-99752095D01*
X161156666Y-99790190D01*
X161118571Y-99866380D01*
X161118571Y-100018761D01*
X161156666Y-100094952D01*
X161613809Y-100437809D02*
X161651904Y-100514000D01*
X161651904Y-100666380D01*
X161613809Y-100742571D01*
X161537619Y-100780666D01*
X161499523Y-100780666D01*
X161423333Y-100742571D01*
X161385238Y-100666380D01*
X161385238Y-100552095D01*
X161347142Y-100475904D01*
X161270952Y-100437809D01*
X161232857Y-100437809D01*
X161156666Y-100475904D01*
X161118571Y-100552095D01*
X161118571Y-100666380D01*
X161156666Y-100742571D01*
X161651904Y-101466380D02*
X161232857Y-101466380D01*
X161156666Y-101428285D01*
X161118571Y-101352095D01*
X161118571Y-101199714D01*
X161156666Y-101123523D01*
X161613809Y-101466380D02*
X161651904Y-101390190D01*
X161651904Y-101199714D01*
X161613809Y-101123523D01*
X161537619Y-101085428D01*
X161461428Y-101085428D01*
X161385238Y-101123523D01*
X161347142Y-101199714D01*
X161347142Y-101390190D01*
X161309047Y-101466380D01*
X161651904Y-101847333D02*
X161118571Y-101847333D01*
X161194761Y-101847333D02*
X161156666Y-101885428D01*
X161118571Y-101961619D01*
X161118571Y-102075904D01*
X161156666Y-102152095D01*
X161232857Y-102190190D01*
X161651904Y-102190190D01*
X161232857Y-102190190D02*
X161156666Y-102228285D01*
X161118571Y-102304476D01*
X161118571Y-102418761D01*
X161156666Y-102494952D01*
X161232857Y-102533047D01*
X161651904Y-102533047D01*
X161118571Y-102914000D02*
X161918571Y-102914000D01*
X161156666Y-102914000D02*
X161118571Y-102990190D01*
X161118571Y-103142571D01*
X161156666Y-103218761D01*
X161194761Y-103256857D01*
X161270952Y-103294952D01*
X161499523Y-103294952D01*
X161575714Y-103256857D01*
X161613809Y-103218761D01*
X161651904Y-103142571D01*
X161651904Y-102990190D01*
X161613809Y-102914000D01*
X161651904Y-103752095D02*
X161613809Y-103675904D01*
X161537619Y-103637809D01*
X160851904Y-103637809D01*
X161613809Y-104361619D02*
X161651904Y-104285428D01*
X161651904Y-104133047D01*
X161613809Y-104056857D01*
X161537619Y-104018761D01*
X161232857Y-104018761D01*
X161156666Y-104056857D01*
X161118571Y-104133047D01*
X161118571Y-104285428D01*
X161156666Y-104361619D01*
X161232857Y-104399714D01*
X161309047Y-104399714D01*
X161385238Y-104018761D01*
X161651904Y-104742571D02*
X161118571Y-104742571D01*
X161270952Y-104742571D02*
X161194761Y-104780666D01*
X161156666Y-104818761D01*
X161118571Y-104894952D01*
X161118571Y-104971142D01*
X162468571Y-96418761D02*
X163001904Y-96609238D01*
X162468571Y-96799714D01*
X163001904Y-97523523D02*
X163001904Y-97066380D01*
X163001904Y-97294952D02*
X162201904Y-97294952D01*
X162316190Y-97218761D01*
X162392380Y-97142571D01*
X162430476Y-97066380D01*
X162201904Y-98628285D02*
X162201904Y-98704476D01*
X162240000Y-98780666D01*
X162278095Y-98818761D01*
X162354285Y-98856857D01*
X162506666Y-98894952D01*
X162697142Y-98894952D01*
X162849523Y-98856857D01*
X162925714Y-98818761D01*
X162963809Y-98780666D01*
X163001904Y-98704476D01*
X163001904Y-98628285D01*
X162963809Y-98552095D01*
X162925714Y-98514000D01*
X162849523Y-98475904D01*
X162697142Y-98437809D01*
X162506666Y-98437809D01*
X162354285Y-98475904D01*
X162278095Y-98514000D01*
X162240000Y-98552095D01*
X162201904Y-98628285D01*
X162201904Y-99161619D02*
X162201904Y-99656857D01*
X162506666Y-99390190D01*
X162506666Y-99504476D01*
X162544761Y-99580666D01*
X162582857Y-99618761D01*
X162659047Y-99656857D01*
X162849523Y-99656857D01*
X162925714Y-99618761D01*
X162963809Y-99580666D01*
X163001904Y-99504476D01*
X163001904Y-99275904D01*
X162963809Y-99199714D01*
X162925714Y-99161619D01*
X162697142Y-99999714D02*
X162697142Y-100609238D01*
X162278095Y-100952095D02*
X162240000Y-100990190D01*
X162201904Y-101066380D01*
X162201904Y-101256857D01*
X162240000Y-101333047D01*
X162278095Y-101371142D01*
X162354285Y-101409238D01*
X162430476Y-101409238D01*
X162544761Y-101371142D01*
X163001904Y-100914000D01*
X163001904Y-101409238D01*
X162201904Y-101904476D02*
X162201904Y-101980666D01*
X162240000Y-102056857D01*
X162278095Y-102094952D01*
X162354285Y-102133047D01*
X162506666Y-102171142D01*
X162697142Y-102171142D01*
X162849523Y-102133047D01*
X162925714Y-102094952D01*
X162963809Y-102056857D01*
X163001904Y-101980666D01*
X163001904Y-101904476D01*
X162963809Y-101828285D01*
X162925714Y-101790190D01*
X162849523Y-101752095D01*
X162697142Y-101714000D01*
X162506666Y-101714000D01*
X162354285Y-101752095D01*
X162278095Y-101790190D01*
X162240000Y-101828285D01*
X162201904Y-101904476D01*
D11*
X118050000Y-85030000D02*
X118050000Y-86360000D01*
X119380000Y-85030000D02*
X118050000Y-85030000D01*
X120650000Y-85030000D02*
X120650000Y-87690000D01*
X120650000Y-87690000D02*
X171510000Y-87690000D01*
X120650000Y-85030000D02*
X171510000Y-85030000D01*
X171510000Y-85030000D02*
X171510000Y-87690000D01*
X118050000Y-110430000D02*
X118050000Y-111760000D01*
X119380000Y-110430000D02*
X118050000Y-110430000D01*
X120650000Y-110430000D02*
X120650000Y-113090000D01*
X120650000Y-113090000D02*
X171510000Y-113090000D01*
X120650000Y-110430000D02*
X171510000Y-110430000D01*
X171510000Y-110430000D02*
X171510000Y-113090000D01*
M02*
