G04 #@! TF.GenerationSoftware,KiCad,Pcbnew,(5.1.6)-1*
G04 #@! TF.CreationDate,2020-08-30T12:06:01+10:00*
G04 #@! TF.ProjectId,ESP32-S2-Breakout,45535033-322d-4533-922d-427265616b6f,rev?*
G04 #@! TF.SameCoordinates,Original*
G04 #@! TF.FileFunction,Soldermask,Top*
G04 #@! TF.FilePolarity,Negative*
%FSLAX46Y46*%
G04 Gerber Fmt 4.6, Leading zero omitted, Abs format (unit mm)*
G04 Created by KiCad (PCBNEW (5.1.6)-1) date 2020-08-30 12:06:01*
%MOMM*%
%LPD*%
G01*
G04 APERTURE LIST*
%ADD10C,0.100000*%
G04 APERTURE END LIST*
D10*
G36*
X120281000Y-112661000D02*
G01*
X118479000Y-112661000D01*
X118479000Y-110859000D01*
X120281000Y-110859000D01*
X120281000Y-112661000D01*
G37*
G36*
X147433512Y-110863927D02*
G01*
X147582812Y-110893624D01*
X147746784Y-110961544D01*
X147894354Y-111060147D01*
X148019853Y-111185646D01*
X148118456Y-111333216D01*
X148186376Y-111497188D01*
X148221000Y-111671259D01*
X148221000Y-111848741D01*
X148186376Y-112022812D01*
X148118456Y-112186784D01*
X148019853Y-112334354D01*
X147894354Y-112459853D01*
X147746784Y-112558456D01*
X147582812Y-112626376D01*
X147433512Y-112656073D01*
X147408742Y-112661000D01*
X147231258Y-112661000D01*
X147206488Y-112656073D01*
X147057188Y-112626376D01*
X146893216Y-112558456D01*
X146745646Y-112459853D01*
X146620147Y-112334354D01*
X146521544Y-112186784D01*
X146453624Y-112022812D01*
X146419000Y-111848741D01*
X146419000Y-111671259D01*
X146453624Y-111497188D01*
X146521544Y-111333216D01*
X146620147Y-111185646D01*
X146745646Y-111060147D01*
X146893216Y-110961544D01*
X147057188Y-110893624D01*
X147206488Y-110863927D01*
X147231258Y-110859000D01*
X147408742Y-110859000D01*
X147433512Y-110863927D01*
G37*
G36*
X175373512Y-110863927D02*
G01*
X175522812Y-110893624D01*
X175686784Y-110961544D01*
X175834354Y-111060147D01*
X175959853Y-111185646D01*
X176058456Y-111333216D01*
X176126376Y-111497188D01*
X176161000Y-111671259D01*
X176161000Y-111848741D01*
X176126376Y-112022812D01*
X176058456Y-112186784D01*
X175959853Y-112334354D01*
X175834354Y-112459853D01*
X175686784Y-112558456D01*
X175522812Y-112626376D01*
X175373512Y-112656073D01*
X175348742Y-112661000D01*
X175171258Y-112661000D01*
X175146488Y-112656073D01*
X174997188Y-112626376D01*
X174833216Y-112558456D01*
X174685646Y-112459853D01*
X174560147Y-112334354D01*
X174461544Y-112186784D01*
X174393624Y-112022812D01*
X174359000Y-111848741D01*
X174359000Y-111671259D01*
X174393624Y-111497188D01*
X174461544Y-111333216D01*
X174560147Y-111185646D01*
X174685646Y-111060147D01*
X174833216Y-110961544D01*
X174997188Y-110893624D01*
X175146488Y-110863927D01*
X175171258Y-110859000D01*
X175348742Y-110859000D01*
X175373512Y-110863927D01*
G37*
G36*
X170293512Y-110863927D02*
G01*
X170442812Y-110893624D01*
X170606784Y-110961544D01*
X170754354Y-111060147D01*
X170879853Y-111185646D01*
X170978456Y-111333216D01*
X171046376Y-111497188D01*
X171081000Y-111671259D01*
X171081000Y-111848741D01*
X171046376Y-112022812D01*
X170978456Y-112186784D01*
X170879853Y-112334354D01*
X170754354Y-112459853D01*
X170606784Y-112558456D01*
X170442812Y-112626376D01*
X170293512Y-112656073D01*
X170268742Y-112661000D01*
X170091258Y-112661000D01*
X170066488Y-112656073D01*
X169917188Y-112626376D01*
X169753216Y-112558456D01*
X169605646Y-112459853D01*
X169480147Y-112334354D01*
X169381544Y-112186784D01*
X169313624Y-112022812D01*
X169279000Y-111848741D01*
X169279000Y-111671259D01*
X169313624Y-111497188D01*
X169381544Y-111333216D01*
X169480147Y-111185646D01*
X169605646Y-111060147D01*
X169753216Y-110961544D01*
X169917188Y-110893624D01*
X170066488Y-110863927D01*
X170091258Y-110859000D01*
X170268742Y-110859000D01*
X170293512Y-110863927D01*
G37*
G36*
X167753512Y-110863927D02*
G01*
X167902812Y-110893624D01*
X168066784Y-110961544D01*
X168214354Y-111060147D01*
X168339853Y-111185646D01*
X168438456Y-111333216D01*
X168506376Y-111497188D01*
X168541000Y-111671259D01*
X168541000Y-111848741D01*
X168506376Y-112022812D01*
X168438456Y-112186784D01*
X168339853Y-112334354D01*
X168214354Y-112459853D01*
X168066784Y-112558456D01*
X167902812Y-112626376D01*
X167753512Y-112656073D01*
X167728742Y-112661000D01*
X167551258Y-112661000D01*
X167526488Y-112656073D01*
X167377188Y-112626376D01*
X167213216Y-112558456D01*
X167065646Y-112459853D01*
X166940147Y-112334354D01*
X166841544Y-112186784D01*
X166773624Y-112022812D01*
X166739000Y-111848741D01*
X166739000Y-111671259D01*
X166773624Y-111497188D01*
X166841544Y-111333216D01*
X166940147Y-111185646D01*
X167065646Y-111060147D01*
X167213216Y-110961544D01*
X167377188Y-110893624D01*
X167526488Y-110863927D01*
X167551258Y-110859000D01*
X167728742Y-110859000D01*
X167753512Y-110863927D01*
G37*
G36*
X165213512Y-110863927D02*
G01*
X165362812Y-110893624D01*
X165526784Y-110961544D01*
X165674354Y-111060147D01*
X165799853Y-111185646D01*
X165898456Y-111333216D01*
X165966376Y-111497188D01*
X166001000Y-111671259D01*
X166001000Y-111848741D01*
X165966376Y-112022812D01*
X165898456Y-112186784D01*
X165799853Y-112334354D01*
X165674354Y-112459853D01*
X165526784Y-112558456D01*
X165362812Y-112626376D01*
X165213512Y-112656073D01*
X165188742Y-112661000D01*
X165011258Y-112661000D01*
X164986488Y-112656073D01*
X164837188Y-112626376D01*
X164673216Y-112558456D01*
X164525646Y-112459853D01*
X164400147Y-112334354D01*
X164301544Y-112186784D01*
X164233624Y-112022812D01*
X164199000Y-111848741D01*
X164199000Y-111671259D01*
X164233624Y-111497188D01*
X164301544Y-111333216D01*
X164400147Y-111185646D01*
X164525646Y-111060147D01*
X164673216Y-110961544D01*
X164837188Y-110893624D01*
X164986488Y-110863927D01*
X165011258Y-110859000D01*
X165188742Y-110859000D01*
X165213512Y-110863927D01*
G37*
G36*
X162673512Y-110863927D02*
G01*
X162822812Y-110893624D01*
X162986784Y-110961544D01*
X163134354Y-111060147D01*
X163259853Y-111185646D01*
X163358456Y-111333216D01*
X163426376Y-111497188D01*
X163461000Y-111671259D01*
X163461000Y-111848741D01*
X163426376Y-112022812D01*
X163358456Y-112186784D01*
X163259853Y-112334354D01*
X163134354Y-112459853D01*
X162986784Y-112558456D01*
X162822812Y-112626376D01*
X162673512Y-112656073D01*
X162648742Y-112661000D01*
X162471258Y-112661000D01*
X162446488Y-112656073D01*
X162297188Y-112626376D01*
X162133216Y-112558456D01*
X161985646Y-112459853D01*
X161860147Y-112334354D01*
X161761544Y-112186784D01*
X161693624Y-112022812D01*
X161659000Y-111848741D01*
X161659000Y-111671259D01*
X161693624Y-111497188D01*
X161761544Y-111333216D01*
X161860147Y-111185646D01*
X161985646Y-111060147D01*
X162133216Y-110961544D01*
X162297188Y-110893624D01*
X162446488Y-110863927D01*
X162471258Y-110859000D01*
X162648742Y-110859000D01*
X162673512Y-110863927D01*
G37*
G36*
X160133512Y-110863927D02*
G01*
X160282812Y-110893624D01*
X160446784Y-110961544D01*
X160594354Y-111060147D01*
X160719853Y-111185646D01*
X160818456Y-111333216D01*
X160886376Y-111497188D01*
X160921000Y-111671259D01*
X160921000Y-111848741D01*
X160886376Y-112022812D01*
X160818456Y-112186784D01*
X160719853Y-112334354D01*
X160594354Y-112459853D01*
X160446784Y-112558456D01*
X160282812Y-112626376D01*
X160133512Y-112656073D01*
X160108742Y-112661000D01*
X159931258Y-112661000D01*
X159906488Y-112656073D01*
X159757188Y-112626376D01*
X159593216Y-112558456D01*
X159445646Y-112459853D01*
X159320147Y-112334354D01*
X159221544Y-112186784D01*
X159153624Y-112022812D01*
X159119000Y-111848741D01*
X159119000Y-111671259D01*
X159153624Y-111497188D01*
X159221544Y-111333216D01*
X159320147Y-111185646D01*
X159445646Y-111060147D01*
X159593216Y-110961544D01*
X159757188Y-110893624D01*
X159906488Y-110863927D01*
X159931258Y-110859000D01*
X160108742Y-110859000D01*
X160133512Y-110863927D01*
G37*
G36*
X157593512Y-110863927D02*
G01*
X157742812Y-110893624D01*
X157906784Y-110961544D01*
X158054354Y-111060147D01*
X158179853Y-111185646D01*
X158278456Y-111333216D01*
X158346376Y-111497188D01*
X158381000Y-111671259D01*
X158381000Y-111848741D01*
X158346376Y-112022812D01*
X158278456Y-112186784D01*
X158179853Y-112334354D01*
X158054354Y-112459853D01*
X157906784Y-112558456D01*
X157742812Y-112626376D01*
X157593512Y-112656073D01*
X157568742Y-112661000D01*
X157391258Y-112661000D01*
X157366488Y-112656073D01*
X157217188Y-112626376D01*
X157053216Y-112558456D01*
X156905646Y-112459853D01*
X156780147Y-112334354D01*
X156681544Y-112186784D01*
X156613624Y-112022812D01*
X156579000Y-111848741D01*
X156579000Y-111671259D01*
X156613624Y-111497188D01*
X156681544Y-111333216D01*
X156780147Y-111185646D01*
X156905646Y-111060147D01*
X157053216Y-110961544D01*
X157217188Y-110893624D01*
X157366488Y-110863927D01*
X157391258Y-110859000D01*
X157568742Y-110859000D01*
X157593512Y-110863927D01*
G37*
G36*
X155053512Y-110863927D02*
G01*
X155202812Y-110893624D01*
X155366784Y-110961544D01*
X155514354Y-111060147D01*
X155639853Y-111185646D01*
X155738456Y-111333216D01*
X155806376Y-111497188D01*
X155841000Y-111671259D01*
X155841000Y-111848741D01*
X155806376Y-112022812D01*
X155738456Y-112186784D01*
X155639853Y-112334354D01*
X155514354Y-112459853D01*
X155366784Y-112558456D01*
X155202812Y-112626376D01*
X155053512Y-112656073D01*
X155028742Y-112661000D01*
X154851258Y-112661000D01*
X154826488Y-112656073D01*
X154677188Y-112626376D01*
X154513216Y-112558456D01*
X154365646Y-112459853D01*
X154240147Y-112334354D01*
X154141544Y-112186784D01*
X154073624Y-112022812D01*
X154039000Y-111848741D01*
X154039000Y-111671259D01*
X154073624Y-111497188D01*
X154141544Y-111333216D01*
X154240147Y-111185646D01*
X154365646Y-111060147D01*
X154513216Y-110961544D01*
X154677188Y-110893624D01*
X154826488Y-110863927D01*
X154851258Y-110859000D01*
X155028742Y-110859000D01*
X155053512Y-110863927D01*
G37*
G36*
X152513512Y-110863927D02*
G01*
X152662812Y-110893624D01*
X152826784Y-110961544D01*
X152974354Y-111060147D01*
X153099853Y-111185646D01*
X153198456Y-111333216D01*
X153266376Y-111497188D01*
X153301000Y-111671259D01*
X153301000Y-111848741D01*
X153266376Y-112022812D01*
X153198456Y-112186784D01*
X153099853Y-112334354D01*
X152974354Y-112459853D01*
X152826784Y-112558456D01*
X152662812Y-112626376D01*
X152513512Y-112656073D01*
X152488742Y-112661000D01*
X152311258Y-112661000D01*
X152286488Y-112656073D01*
X152137188Y-112626376D01*
X151973216Y-112558456D01*
X151825646Y-112459853D01*
X151700147Y-112334354D01*
X151601544Y-112186784D01*
X151533624Y-112022812D01*
X151499000Y-111848741D01*
X151499000Y-111671259D01*
X151533624Y-111497188D01*
X151601544Y-111333216D01*
X151700147Y-111185646D01*
X151825646Y-111060147D01*
X151973216Y-110961544D01*
X152137188Y-110893624D01*
X152286488Y-110863927D01*
X152311258Y-110859000D01*
X152488742Y-110859000D01*
X152513512Y-110863927D01*
G37*
G36*
X149973512Y-110863927D02*
G01*
X150122812Y-110893624D01*
X150286784Y-110961544D01*
X150434354Y-111060147D01*
X150559853Y-111185646D01*
X150658456Y-111333216D01*
X150726376Y-111497188D01*
X150761000Y-111671259D01*
X150761000Y-111848741D01*
X150726376Y-112022812D01*
X150658456Y-112186784D01*
X150559853Y-112334354D01*
X150434354Y-112459853D01*
X150286784Y-112558456D01*
X150122812Y-112626376D01*
X149973512Y-112656073D01*
X149948742Y-112661000D01*
X149771258Y-112661000D01*
X149746488Y-112656073D01*
X149597188Y-112626376D01*
X149433216Y-112558456D01*
X149285646Y-112459853D01*
X149160147Y-112334354D01*
X149061544Y-112186784D01*
X148993624Y-112022812D01*
X148959000Y-111848741D01*
X148959000Y-111671259D01*
X148993624Y-111497188D01*
X149061544Y-111333216D01*
X149160147Y-111185646D01*
X149285646Y-111060147D01*
X149433216Y-110961544D01*
X149597188Y-110893624D01*
X149746488Y-110863927D01*
X149771258Y-110859000D01*
X149948742Y-110859000D01*
X149973512Y-110863927D01*
G37*
G36*
X144893512Y-110863927D02*
G01*
X145042812Y-110893624D01*
X145206784Y-110961544D01*
X145354354Y-111060147D01*
X145479853Y-111185646D01*
X145578456Y-111333216D01*
X145646376Y-111497188D01*
X145681000Y-111671259D01*
X145681000Y-111848741D01*
X145646376Y-112022812D01*
X145578456Y-112186784D01*
X145479853Y-112334354D01*
X145354354Y-112459853D01*
X145206784Y-112558456D01*
X145042812Y-112626376D01*
X144893512Y-112656073D01*
X144868742Y-112661000D01*
X144691258Y-112661000D01*
X144666488Y-112656073D01*
X144517188Y-112626376D01*
X144353216Y-112558456D01*
X144205646Y-112459853D01*
X144080147Y-112334354D01*
X143981544Y-112186784D01*
X143913624Y-112022812D01*
X143879000Y-111848741D01*
X143879000Y-111671259D01*
X143913624Y-111497188D01*
X143981544Y-111333216D01*
X144080147Y-111185646D01*
X144205646Y-111060147D01*
X144353216Y-110961544D01*
X144517188Y-110893624D01*
X144666488Y-110863927D01*
X144691258Y-110859000D01*
X144868742Y-110859000D01*
X144893512Y-110863927D01*
G37*
G36*
X172833512Y-110863927D02*
G01*
X172982812Y-110893624D01*
X173146784Y-110961544D01*
X173294354Y-111060147D01*
X173419853Y-111185646D01*
X173518456Y-111333216D01*
X173586376Y-111497188D01*
X173621000Y-111671259D01*
X173621000Y-111848741D01*
X173586376Y-112022812D01*
X173518456Y-112186784D01*
X173419853Y-112334354D01*
X173294354Y-112459853D01*
X173146784Y-112558456D01*
X172982812Y-112626376D01*
X172833512Y-112656073D01*
X172808742Y-112661000D01*
X172631258Y-112661000D01*
X172606488Y-112656073D01*
X172457188Y-112626376D01*
X172293216Y-112558456D01*
X172145646Y-112459853D01*
X172020147Y-112334354D01*
X171921544Y-112186784D01*
X171853624Y-112022812D01*
X171819000Y-111848741D01*
X171819000Y-111671259D01*
X171853624Y-111497188D01*
X171921544Y-111333216D01*
X172020147Y-111185646D01*
X172145646Y-111060147D01*
X172293216Y-110961544D01*
X172457188Y-110893624D01*
X172606488Y-110863927D01*
X172631258Y-110859000D01*
X172808742Y-110859000D01*
X172833512Y-110863927D01*
G37*
G36*
X122033512Y-110863927D02*
G01*
X122182812Y-110893624D01*
X122346784Y-110961544D01*
X122494354Y-111060147D01*
X122619853Y-111185646D01*
X122718456Y-111333216D01*
X122786376Y-111497188D01*
X122821000Y-111671259D01*
X122821000Y-111848741D01*
X122786376Y-112022812D01*
X122718456Y-112186784D01*
X122619853Y-112334354D01*
X122494354Y-112459853D01*
X122346784Y-112558456D01*
X122182812Y-112626376D01*
X122033512Y-112656073D01*
X122008742Y-112661000D01*
X121831258Y-112661000D01*
X121806488Y-112656073D01*
X121657188Y-112626376D01*
X121493216Y-112558456D01*
X121345646Y-112459853D01*
X121220147Y-112334354D01*
X121121544Y-112186784D01*
X121053624Y-112022812D01*
X121019000Y-111848741D01*
X121019000Y-111671259D01*
X121053624Y-111497188D01*
X121121544Y-111333216D01*
X121220147Y-111185646D01*
X121345646Y-111060147D01*
X121493216Y-110961544D01*
X121657188Y-110893624D01*
X121806488Y-110863927D01*
X121831258Y-110859000D01*
X122008742Y-110859000D01*
X122033512Y-110863927D01*
G37*
G36*
X124573512Y-110863927D02*
G01*
X124722812Y-110893624D01*
X124886784Y-110961544D01*
X125034354Y-111060147D01*
X125159853Y-111185646D01*
X125258456Y-111333216D01*
X125326376Y-111497188D01*
X125361000Y-111671259D01*
X125361000Y-111848741D01*
X125326376Y-112022812D01*
X125258456Y-112186784D01*
X125159853Y-112334354D01*
X125034354Y-112459853D01*
X124886784Y-112558456D01*
X124722812Y-112626376D01*
X124573512Y-112656073D01*
X124548742Y-112661000D01*
X124371258Y-112661000D01*
X124346488Y-112656073D01*
X124197188Y-112626376D01*
X124033216Y-112558456D01*
X123885646Y-112459853D01*
X123760147Y-112334354D01*
X123661544Y-112186784D01*
X123593624Y-112022812D01*
X123559000Y-111848741D01*
X123559000Y-111671259D01*
X123593624Y-111497188D01*
X123661544Y-111333216D01*
X123760147Y-111185646D01*
X123885646Y-111060147D01*
X124033216Y-110961544D01*
X124197188Y-110893624D01*
X124346488Y-110863927D01*
X124371258Y-110859000D01*
X124548742Y-110859000D01*
X124573512Y-110863927D01*
G37*
G36*
X127113512Y-110863927D02*
G01*
X127262812Y-110893624D01*
X127426784Y-110961544D01*
X127574354Y-111060147D01*
X127699853Y-111185646D01*
X127798456Y-111333216D01*
X127866376Y-111497188D01*
X127901000Y-111671259D01*
X127901000Y-111848741D01*
X127866376Y-112022812D01*
X127798456Y-112186784D01*
X127699853Y-112334354D01*
X127574354Y-112459853D01*
X127426784Y-112558456D01*
X127262812Y-112626376D01*
X127113512Y-112656073D01*
X127088742Y-112661000D01*
X126911258Y-112661000D01*
X126886488Y-112656073D01*
X126737188Y-112626376D01*
X126573216Y-112558456D01*
X126425646Y-112459853D01*
X126300147Y-112334354D01*
X126201544Y-112186784D01*
X126133624Y-112022812D01*
X126099000Y-111848741D01*
X126099000Y-111671259D01*
X126133624Y-111497188D01*
X126201544Y-111333216D01*
X126300147Y-111185646D01*
X126425646Y-111060147D01*
X126573216Y-110961544D01*
X126737188Y-110893624D01*
X126886488Y-110863927D01*
X126911258Y-110859000D01*
X127088742Y-110859000D01*
X127113512Y-110863927D01*
G37*
G36*
X129653512Y-110863927D02*
G01*
X129802812Y-110893624D01*
X129966784Y-110961544D01*
X130114354Y-111060147D01*
X130239853Y-111185646D01*
X130338456Y-111333216D01*
X130406376Y-111497188D01*
X130441000Y-111671259D01*
X130441000Y-111848741D01*
X130406376Y-112022812D01*
X130338456Y-112186784D01*
X130239853Y-112334354D01*
X130114354Y-112459853D01*
X129966784Y-112558456D01*
X129802812Y-112626376D01*
X129653512Y-112656073D01*
X129628742Y-112661000D01*
X129451258Y-112661000D01*
X129426488Y-112656073D01*
X129277188Y-112626376D01*
X129113216Y-112558456D01*
X128965646Y-112459853D01*
X128840147Y-112334354D01*
X128741544Y-112186784D01*
X128673624Y-112022812D01*
X128639000Y-111848741D01*
X128639000Y-111671259D01*
X128673624Y-111497188D01*
X128741544Y-111333216D01*
X128840147Y-111185646D01*
X128965646Y-111060147D01*
X129113216Y-110961544D01*
X129277188Y-110893624D01*
X129426488Y-110863927D01*
X129451258Y-110859000D01*
X129628742Y-110859000D01*
X129653512Y-110863927D01*
G37*
G36*
X134733512Y-110863927D02*
G01*
X134882812Y-110893624D01*
X135046784Y-110961544D01*
X135194354Y-111060147D01*
X135319853Y-111185646D01*
X135418456Y-111333216D01*
X135486376Y-111497188D01*
X135521000Y-111671259D01*
X135521000Y-111848741D01*
X135486376Y-112022812D01*
X135418456Y-112186784D01*
X135319853Y-112334354D01*
X135194354Y-112459853D01*
X135046784Y-112558456D01*
X134882812Y-112626376D01*
X134733512Y-112656073D01*
X134708742Y-112661000D01*
X134531258Y-112661000D01*
X134506488Y-112656073D01*
X134357188Y-112626376D01*
X134193216Y-112558456D01*
X134045646Y-112459853D01*
X133920147Y-112334354D01*
X133821544Y-112186784D01*
X133753624Y-112022812D01*
X133719000Y-111848741D01*
X133719000Y-111671259D01*
X133753624Y-111497188D01*
X133821544Y-111333216D01*
X133920147Y-111185646D01*
X134045646Y-111060147D01*
X134193216Y-110961544D01*
X134357188Y-110893624D01*
X134506488Y-110863927D01*
X134531258Y-110859000D01*
X134708742Y-110859000D01*
X134733512Y-110863927D01*
G37*
G36*
X137273512Y-110863927D02*
G01*
X137422812Y-110893624D01*
X137586784Y-110961544D01*
X137734354Y-111060147D01*
X137859853Y-111185646D01*
X137958456Y-111333216D01*
X138026376Y-111497188D01*
X138061000Y-111671259D01*
X138061000Y-111848741D01*
X138026376Y-112022812D01*
X137958456Y-112186784D01*
X137859853Y-112334354D01*
X137734354Y-112459853D01*
X137586784Y-112558456D01*
X137422812Y-112626376D01*
X137273512Y-112656073D01*
X137248742Y-112661000D01*
X137071258Y-112661000D01*
X137046488Y-112656073D01*
X136897188Y-112626376D01*
X136733216Y-112558456D01*
X136585646Y-112459853D01*
X136460147Y-112334354D01*
X136361544Y-112186784D01*
X136293624Y-112022812D01*
X136259000Y-111848741D01*
X136259000Y-111671259D01*
X136293624Y-111497188D01*
X136361544Y-111333216D01*
X136460147Y-111185646D01*
X136585646Y-111060147D01*
X136733216Y-110961544D01*
X136897188Y-110893624D01*
X137046488Y-110863927D01*
X137071258Y-110859000D01*
X137248742Y-110859000D01*
X137273512Y-110863927D01*
G37*
G36*
X139813512Y-110863927D02*
G01*
X139962812Y-110893624D01*
X140126784Y-110961544D01*
X140274354Y-111060147D01*
X140399853Y-111185646D01*
X140498456Y-111333216D01*
X140566376Y-111497188D01*
X140601000Y-111671259D01*
X140601000Y-111848741D01*
X140566376Y-112022812D01*
X140498456Y-112186784D01*
X140399853Y-112334354D01*
X140274354Y-112459853D01*
X140126784Y-112558456D01*
X139962812Y-112626376D01*
X139813512Y-112656073D01*
X139788742Y-112661000D01*
X139611258Y-112661000D01*
X139586488Y-112656073D01*
X139437188Y-112626376D01*
X139273216Y-112558456D01*
X139125646Y-112459853D01*
X139000147Y-112334354D01*
X138901544Y-112186784D01*
X138833624Y-112022812D01*
X138799000Y-111848741D01*
X138799000Y-111671259D01*
X138833624Y-111497188D01*
X138901544Y-111333216D01*
X139000147Y-111185646D01*
X139125646Y-111060147D01*
X139273216Y-110961544D01*
X139437188Y-110893624D01*
X139586488Y-110863927D01*
X139611258Y-110859000D01*
X139788742Y-110859000D01*
X139813512Y-110863927D01*
G37*
G36*
X142353512Y-110863927D02*
G01*
X142502812Y-110893624D01*
X142666784Y-110961544D01*
X142814354Y-111060147D01*
X142939853Y-111185646D01*
X143038456Y-111333216D01*
X143106376Y-111497188D01*
X143141000Y-111671259D01*
X143141000Y-111848741D01*
X143106376Y-112022812D01*
X143038456Y-112186784D01*
X142939853Y-112334354D01*
X142814354Y-112459853D01*
X142666784Y-112558456D01*
X142502812Y-112626376D01*
X142353512Y-112656073D01*
X142328742Y-112661000D01*
X142151258Y-112661000D01*
X142126488Y-112656073D01*
X141977188Y-112626376D01*
X141813216Y-112558456D01*
X141665646Y-112459853D01*
X141540147Y-112334354D01*
X141441544Y-112186784D01*
X141373624Y-112022812D01*
X141339000Y-111848741D01*
X141339000Y-111671259D01*
X141373624Y-111497188D01*
X141441544Y-111333216D01*
X141540147Y-111185646D01*
X141665646Y-111060147D01*
X141813216Y-110961544D01*
X141977188Y-110893624D01*
X142126488Y-110863927D01*
X142151258Y-110859000D01*
X142328742Y-110859000D01*
X142353512Y-110863927D01*
G37*
G36*
X132193512Y-110863927D02*
G01*
X132342812Y-110893624D01*
X132506784Y-110961544D01*
X132654354Y-111060147D01*
X132779853Y-111185646D01*
X132878456Y-111333216D01*
X132946376Y-111497188D01*
X132981000Y-111671259D01*
X132981000Y-111848741D01*
X132946376Y-112022812D01*
X132878456Y-112186784D01*
X132779853Y-112334354D01*
X132654354Y-112459853D01*
X132506784Y-112558456D01*
X132342812Y-112626376D01*
X132193512Y-112656073D01*
X132168742Y-112661000D01*
X131991258Y-112661000D01*
X131966488Y-112656073D01*
X131817188Y-112626376D01*
X131653216Y-112558456D01*
X131505646Y-112459853D01*
X131380147Y-112334354D01*
X131281544Y-112186784D01*
X131213624Y-112022812D01*
X131179000Y-111848741D01*
X131179000Y-111671259D01*
X131213624Y-111497188D01*
X131281544Y-111333216D01*
X131380147Y-111185646D01*
X131505646Y-111060147D01*
X131653216Y-110961544D01*
X131817188Y-110893624D01*
X131966488Y-110863927D01*
X131991258Y-110859000D01*
X132168742Y-110859000D01*
X132193512Y-110863927D01*
G37*
G36*
X147015468Y-108099565D02*
G01*
X147054138Y-108111296D01*
X147089777Y-108130346D01*
X147121017Y-108155983D01*
X147146654Y-108187223D01*
X147165704Y-108222862D01*
X147177435Y-108261532D01*
X147182000Y-108307888D01*
X147182000Y-108959112D01*
X147177435Y-109005468D01*
X147165704Y-109044138D01*
X147146654Y-109079777D01*
X147121017Y-109111017D01*
X147089777Y-109136654D01*
X147054138Y-109155704D01*
X147015468Y-109167435D01*
X146969112Y-109172000D01*
X145892888Y-109172000D01*
X145846532Y-109167435D01*
X145807862Y-109155704D01*
X145772223Y-109136654D01*
X145740983Y-109111017D01*
X145715346Y-109079777D01*
X145696296Y-109044138D01*
X145684565Y-109005468D01*
X145680000Y-108959112D01*
X145680000Y-108307888D01*
X145684565Y-108261532D01*
X145696296Y-108222862D01*
X145715346Y-108187223D01*
X145740983Y-108155983D01*
X145772223Y-108130346D01*
X145807862Y-108111296D01*
X145846532Y-108099565D01*
X145892888Y-108095000D01*
X146969112Y-108095000D01*
X147015468Y-108099565D01*
G37*
G36*
X145110468Y-108099565D02*
G01*
X145149138Y-108111296D01*
X145184777Y-108130346D01*
X145216017Y-108155983D01*
X145241654Y-108187223D01*
X145260704Y-108222862D01*
X145272435Y-108261532D01*
X145277000Y-108307888D01*
X145277000Y-108959112D01*
X145272435Y-109005468D01*
X145260704Y-109044138D01*
X145241654Y-109079777D01*
X145216017Y-109111017D01*
X145184777Y-109136654D01*
X145149138Y-109155704D01*
X145110468Y-109167435D01*
X145064112Y-109172000D01*
X143987888Y-109172000D01*
X143941532Y-109167435D01*
X143902862Y-109155704D01*
X143867223Y-109136654D01*
X143835983Y-109111017D01*
X143810346Y-109079777D01*
X143791296Y-109044138D01*
X143779565Y-109005468D01*
X143775000Y-108959112D01*
X143775000Y-108307888D01*
X143779565Y-108261532D01*
X143791296Y-108222862D01*
X143810346Y-108187223D01*
X143835983Y-108155983D01*
X143867223Y-108130346D01*
X143902862Y-108111296D01*
X143941532Y-108099565D01*
X143987888Y-108095000D01*
X145064112Y-108095000D01*
X145110468Y-108099565D01*
G37*
G36*
X169494468Y-107718565D02*
G01*
X169533138Y-107730296D01*
X169568777Y-107749346D01*
X169600017Y-107774983D01*
X169625654Y-107806223D01*
X169644704Y-107841862D01*
X169656435Y-107880532D01*
X169661000Y-107926888D01*
X169661000Y-108578112D01*
X169656435Y-108624468D01*
X169644704Y-108663138D01*
X169625654Y-108698777D01*
X169600017Y-108730017D01*
X169568777Y-108755654D01*
X169533138Y-108774704D01*
X169494468Y-108786435D01*
X169448112Y-108791000D01*
X168371888Y-108791000D01*
X168325532Y-108786435D01*
X168286862Y-108774704D01*
X168251223Y-108755654D01*
X168219983Y-108730017D01*
X168194346Y-108698777D01*
X168175296Y-108663138D01*
X168163565Y-108624468D01*
X168159000Y-108578112D01*
X168159000Y-107926888D01*
X168163565Y-107880532D01*
X168175296Y-107841862D01*
X168194346Y-107806223D01*
X168219983Y-107774983D01*
X168251223Y-107749346D01*
X168286862Y-107730296D01*
X168325532Y-107718565D01*
X168371888Y-107714000D01*
X169448112Y-107714000D01*
X169494468Y-107718565D01*
G37*
G36*
X132461000Y-108501000D02*
G01*
X131459000Y-108501000D01*
X131459000Y-106899000D01*
X132461000Y-106899000D01*
X132461000Y-108501000D01*
G37*
G36*
X120461000Y-108501000D02*
G01*
X119459000Y-108501000D01*
X119459000Y-106899000D01*
X120461000Y-106899000D01*
X120461000Y-108501000D01*
G37*
G36*
X121961000Y-108501000D02*
G01*
X120959000Y-108501000D01*
X120959000Y-106899000D01*
X121961000Y-106899000D01*
X121961000Y-108501000D01*
G37*
G36*
X123461000Y-108501000D02*
G01*
X122459000Y-108501000D01*
X122459000Y-106899000D01*
X123461000Y-106899000D01*
X123461000Y-108501000D01*
G37*
G36*
X124961000Y-108501000D02*
G01*
X123959000Y-108501000D01*
X123959000Y-106899000D01*
X124961000Y-106899000D01*
X124961000Y-108501000D01*
G37*
G36*
X126461000Y-108501000D02*
G01*
X125459000Y-108501000D01*
X125459000Y-106899000D01*
X126461000Y-106899000D01*
X126461000Y-108501000D01*
G37*
G36*
X127961000Y-108501000D02*
G01*
X126959000Y-108501000D01*
X126959000Y-106899000D01*
X127961000Y-106899000D01*
X127961000Y-108501000D01*
G37*
G36*
X129461000Y-108501000D02*
G01*
X128459000Y-108501000D01*
X128459000Y-106899000D01*
X129461000Y-106899000D01*
X129461000Y-108501000D01*
G37*
G36*
X130961000Y-108501000D02*
G01*
X129959000Y-108501000D01*
X129959000Y-106899000D01*
X130961000Y-106899000D01*
X130961000Y-108501000D01*
G37*
G36*
X133961000Y-108501000D02*
G01*
X132959000Y-108501000D01*
X132959000Y-106899000D01*
X133961000Y-106899000D01*
X133961000Y-108501000D01*
G37*
G36*
X135461000Y-108501000D02*
G01*
X134459000Y-108501000D01*
X134459000Y-106899000D01*
X135461000Y-106899000D01*
X135461000Y-108501000D01*
G37*
G36*
X136961000Y-108501000D02*
G01*
X135959000Y-108501000D01*
X135959000Y-106899000D01*
X136961000Y-106899000D01*
X136961000Y-108501000D01*
G37*
G36*
X138461000Y-108501000D02*
G01*
X137459000Y-108501000D01*
X137459000Y-106899000D01*
X138461000Y-106899000D01*
X138461000Y-108501000D01*
G37*
G36*
X141461000Y-108501000D02*
G01*
X140459000Y-108501000D01*
X140459000Y-106899000D01*
X141461000Y-106899000D01*
X141461000Y-108501000D01*
G37*
G36*
X139961000Y-108501000D02*
G01*
X138959000Y-108501000D01*
X138959000Y-106899000D01*
X139961000Y-106899000D01*
X139961000Y-108501000D01*
G37*
G36*
X118961000Y-108501000D02*
G01*
X117959000Y-108501000D01*
X117959000Y-106899000D01*
X118961000Y-106899000D01*
X118961000Y-108501000D01*
G37*
G36*
X175139683Y-106267725D02*
G01*
X175170143Y-106276966D01*
X175198223Y-106291974D01*
X175222831Y-106312169D01*
X175243026Y-106336777D01*
X175258034Y-106364857D01*
X175267275Y-106395317D01*
X175271000Y-106433140D01*
X175271000Y-108196860D01*
X175267275Y-108234683D01*
X175258034Y-108265143D01*
X175243026Y-108293223D01*
X175222831Y-108317831D01*
X175198223Y-108338026D01*
X175170143Y-108353034D01*
X175139683Y-108362275D01*
X175101860Y-108366000D01*
X174538140Y-108366000D01*
X174500317Y-108362275D01*
X174469857Y-108353034D01*
X174441777Y-108338026D01*
X174417169Y-108317831D01*
X174396974Y-108293223D01*
X174381966Y-108265143D01*
X174372725Y-108234683D01*
X174369000Y-108196860D01*
X174369000Y-106433140D01*
X174372725Y-106395317D01*
X174381966Y-106364857D01*
X174396974Y-106336777D01*
X174417169Y-106312169D01*
X174441777Y-106291974D01*
X174469857Y-106276966D01*
X174500317Y-106267725D01*
X174538140Y-106264000D01*
X175101860Y-106264000D01*
X175139683Y-106267725D01*
G37*
G36*
X170939683Y-106267725D02*
G01*
X170970143Y-106276966D01*
X170998223Y-106291974D01*
X171022831Y-106312169D01*
X171043026Y-106336777D01*
X171058034Y-106364857D01*
X171067275Y-106395317D01*
X171071000Y-106433140D01*
X171071000Y-108196860D01*
X171067275Y-108234683D01*
X171058034Y-108265143D01*
X171043026Y-108293223D01*
X171022831Y-108317831D01*
X170998223Y-108338026D01*
X170970143Y-108353034D01*
X170939683Y-108362275D01*
X170901860Y-108366000D01*
X170338140Y-108366000D01*
X170300317Y-108362275D01*
X170269857Y-108353034D01*
X170241777Y-108338026D01*
X170217169Y-108317831D01*
X170196974Y-108293223D01*
X170181966Y-108265143D01*
X170172725Y-108234683D01*
X170169000Y-108196860D01*
X170169000Y-106433140D01*
X170172725Y-106395317D01*
X170181966Y-106364857D01*
X170196974Y-106336777D01*
X170217169Y-106312169D01*
X170241777Y-106291974D01*
X170269857Y-106276966D01*
X170300317Y-106267725D01*
X170338140Y-106264000D01*
X170901860Y-106264000D01*
X170939683Y-106267725D01*
G37*
G36*
X147015468Y-106224565D02*
G01*
X147054138Y-106236296D01*
X147089777Y-106255346D01*
X147121017Y-106280983D01*
X147146654Y-106312223D01*
X147165704Y-106347862D01*
X147177435Y-106386532D01*
X147182000Y-106432888D01*
X147182000Y-107084112D01*
X147177435Y-107130468D01*
X147165704Y-107169138D01*
X147146654Y-107204777D01*
X147121017Y-107236017D01*
X147089777Y-107261654D01*
X147054138Y-107280704D01*
X147015468Y-107292435D01*
X146969112Y-107297000D01*
X145892888Y-107297000D01*
X145846532Y-107292435D01*
X145807862Y-107280704D01*
X145772223Y-107261654D01*
X145740983Y-107236017D01*
X145715346Y-107204777D01*
X145696296Y-107169138D01*
X145684565Y-107130468D01*
X145680000Y-107084112D01*
X145680000Y-106432888D01*
X145684565Y-106386532D01*
X145696296Y-106347862D01*
X145715346Y-106312223D01*
X145740983Y-106280983D01*
X145772223Y-106255346D01*
X145807862Y-106236296D01*
X145846532Y-106224565D01*
X145892888Y-106220000D01*
X146969112Y-106220000D01*
X147015468Y-106224565D01*
G37*
G36*
X145110468Y-106224565D02*
G01*
X145149138Y-106236296D01*
X145184777Y-106255346D01*
X145216017Y-106280983D01*
X145241654Y-106312223D01*
X145260704Y-106347862D01*
X145272435Y-106386532D01*
X145277000Y-106432888D01*
X145277000Y-107084112D01*
X145272435Y-107130468D01*
X145260704Y-107169138D01*
X145241654Y-107204777D01*
X145216017Y-107236017D01*
X145184777Y-107261654D01*
X145149138Y-107280704D01*
X145110468Y-107292435D01*
X145064112Y-107297000D01*
X143987888Y-107297000D01*
X143941532Y-107292435D01*
X143902862Y-107280704D01*
X143867223Y-107261654D01*
X143835983Y-107236017D01*
X143810346Y-107204777D01*
X143791296Y-107169138D01*
X143779565Y-107130468D01*
X143775000Y-107084112D01*
X143775000Y-106432888D01*
X143779565Y-106386532D01*
X143791296Y-106347862D01*
X143810346Y-106312223D01*
X143835983Y-106280983D01*
X143867223Y-106255346D01*
X143902862Y-106236296D01*
X143941532Y-106224565D01*
X143987888Y-106220000D01*
X145064112Y-106220000D01*
X145110468Y-106224565D01*
G37*
G36*
X169494468Y-105843565D02*
G01*
X169533138Y-105855296D01*
X169568777Y-105874346D01*
X169600017Y-105899983D01*
X169625654Y-105931223D01*
X169644704Y-105966862D01*
X169656435Y-106005532D01*
X169661000Y-106051888D01*
X169661000Y-106703112D01*
X169656435Y-106749468D01*
X169644704Y-106788138D01*
X169625654Y-106823777D01*
X169600017Y-106855017D01*
X169568777Y-106880654D01*
X169533138Y-106899704D01*
X169494468Y-106911435D01*
X169448112Y-106916000D01*
X168371888Y-106916000D01*
X168325532Y-106911435D01*
X168286862Y-106899704D01*
X168251223Y-106880654D01*
X168219983Y-106855017D01*
X168194346Y-106823777D01*
X168175296Y-106788138D01*
X168163565Y-106749468D01*
X168159000Y-106703112D01*
X168159000Y-106051888D01*
X168163565Y-106005532D01*
X168175296Y-105966862D01*
X168194346Y-105931223D01*
X168219983Y-105899983D01*
X168251223Y-105874346D01*
X168286862Y-105855296D01*
X168325532Y-105843565D01*
X168371888Y-105839000D01*
X169448112Y-105839000D01*
X169494468Y-105843565D01*
G37*
G36*
X142511000Y-106201000D02*
G01*
X140909000Y-106201000D01*
X140909000Y-105199000D01*
X142511000Y-105199000D01*
X142511000Y-106201000D01*
G37*
G36*
X154344468Y-103901565D02*
G01*
X154383138Y-103913296D01*
X154418777Y-103932346D01*
X154450017Y-103957983D01*
X154475654Y-103989223D01*
X154494704Y-104024862D01*
X154506435Y-104063532D01*
X154511000Y-104109888D01*
X154511000Y-105186112D01*
X154506435Y-105232468D01*
X154494704Y-105271138D01*
X154475654Y-105306777D01*
X154450017Y-105338017D01*
X154418777Y-105363654D01*
X154383138Y-105382704D01*
X154344468Y-105394435D01*
X154298112Y-105399000D01*
X153646888Y-105399000D01*
X153600532Y-105394435D01*
X153561862Y-105382704D01*
X153526223Y-105363654D01*
X153494983Y-105338017D01*
X153469346Y-105306777D01*
X153450296Y-105271138D01*
X153438565Y-105232468D01*
X153434000Y-105186112D01*
X153434000Y-104109888D01*
X153438565Y-104063532D01*
X153450296Y-104024862D01*
X153469346Y-103989223D01*
X153494983Y-103957983D01*
X153526223Y-103932346D01*
X153561862Y-103913296D01*
X153600532Y-103901565D01*
X153646888Y-103897000D01*
X154298112Y-103897000D01*
X154344468Y-103901565D01*
G37*
G36*
X152469468Y-103901565D02*
G01*
X152508138Y-103913296D01*
X152543777Y-103932346D01*
X152575017Y-103957983D01*
X152600654Y-103989223D01*
X152619704Y-104024862D01*
X152631435Y-104063532D01*
X152636000Y-104109888D01*
X152636000Y-105186112D01*
X152631435Y-105232468D01*
X152619704Y-105271138D01*
X152600654Y-105306777D01*
X152575017Y-105338017D01*
X152543777Y-105363654D01*
X152508138Y-105382704D01*
X152469468Y-105394435D01*
X152423112Y-105399000D01*
X151771888Y-105399000D01*
X151725532Y-105394435D01*
X151686862Y-105382704D01*
X151651223Y-105363654D01*
X151619983Y-105338017D01*
X151594346Y-105306777D01*
X151575296Y-105271138D01*
X151563565Y-105232468D01*
X151559000Y-105186112D01*
X151559000Y-104109888D01*
X151563565Y-104063532D01*
X151575296Y-104024862D01*
X151594346Y-103989223D01*
X151619983Y-103957983D01*
X151651223Y-103932346D01*
X151686862Y-103913296D01*
X151725532Y-103901565D01*
X151771888Y-103897000D01*
X152423112Y-103897000D01*
X152469468Y-103901565D01*
G37*
G36*
X151065000Y-105179000D02*
G01*
X149163000Y-105179000D01*
X149163000Y-104077000D01*
X151065000Y-104077000D01*
X151065000Y-105179000D01*
G37*
G36*
X144722468Y-103584065D02*
G01*
X144761138Y-103595796D01*
X144796777Y-103614846D01*
X144828017Y-103640483D01*
X144853654Y-103671723D01*
X144872704Y-103707362D01*
X144884435Y-103746032D01*
X144889000Y-103792388D01*
X144889000Y-104868612D01*
X144884435Y-104914968D01*
X144872704Y-104953638D01*
X144853654Y-104989277D01*
X144828017Y-105020517D01*
X144796777Y-105046154D01*
X144761138Y-105065204D01*
X144722468Y-105076935D01*
X144676112Y-105081500D01*
X144024888Y-105081500D01*
X143978532Y-105076935D01*
X143939862Y-105065204D01*
X143904223Y-105046154D01*
X143872983Y-105020517D01*
X143847346Y-104989277D01*
X143828296Y-104953638D01*
X143816565Y-104914968D01*
X143812000Y-104868612D01*
X143812000Y-103792388D01*
X143816565Y-103746032D01*
X143828296Y-103707362D01*
X143847346Y-103671723D01*
X143872983Y-103640483D01*
X143904223Y-103614846D01*
X143939862Y-103595796D01*
X143978532Y-103584065D01*
X144024888Y-103579500D01*
X144676112Y-103579500D01*
X144722468Y-103584065D01*
G37*
G36*
X146597468Y-103584065D02*
G01*
X146636138Y-103595796D01*
X146671777Y-103614846D01*
X146703017Y-103640483D01*
X146728654Y-103671723D01*
X146747704Y-103707362D01*
X146759435Y-103746032D01*
X146764000Y-103792388D01*
X146764000Y-104868612D01*
X146759435Y-104914968D01*
X146747704Y-104953638D01*
X146728654Y-104989277D01*
X146703017Y-105020517D01*
X146671777Y-105046154D01*
X146636138Y-105065204D01*
X146597468Y-105076935D01*
X146551112Y-105081500D01*
X145899888Y-105081500D01*
X145853532Y-105076935D01*
X145814862Y-105065204D01*
X145779223Y-105046154D01*
X145747983Y-105020517D01*
X145722346Y-104989277D01*
X145703296Y-104953638D01*
X145691565Y-104914968D01*
X145687000Y-104868612D01*
X145687000Y-103792388D01*
X145691565Y-103746032D01*
X145703296Y-103707362D01*
X145722346Y-103671723D01*
X145747983Y-103640483D01*
X145779223Y-103614846D01*
X145814862Y-103595796D01*
X145853532Y-103584065D01*
X145899888Y-103579500D01*
X146551112Y-103579500D01*
X146597468Y-103584065D01*
G37*
G36*
X168725468Y-103393565D02*
G01*
X168764138Y-103405296D01*
X168799777Y-103424346D01*
X168831017Y-103449983D01*
X168856654Y-103481223D01*
X168875704Y-103516862D01*
X168887435Y-103555532D01*
X168892000Y-103601888D01*
X168892000Y-104678112D01*
X168887435Y-104724468D01*
X168875704Y-104763138D01*
X168856654Y-104798777D01*
X168831017Y-104830017D01*
X168799777Y-104855654D01*
X168764138Y-104874704D01*
X168725468Y-104886435D01*
X168679112Y-104891000D01*
X168027888Y-104891000D01*
X167981532Y-104886435D01*
X167942862Y-104874704D01*
X167907223Y-104855654D01*
X167875983Y-104830017D01*
X167850346Y-104798777D01*
X167831296Y-104763138D01*
X167819565Y-104724468D01*
X167815000Y-104678112D01*
X167815000Y-103601888D01*
X167819565Y-103555532D01*
X167831296Y-103516862D01*
X167850346Y-103481223D01*
X167875983Y-103449983D01*
X167907223Y-103424346D01*
X167942862Y-103405296D01*
X167981532Y-103393565D01*
X168027888Y-103389000D01*
X168679112Y-103389000D01*
X168725468Y-103393565D01*
G37*
G36*
X170600468Y-103393565D02*
G01*
X170639138Y-103405296D01*
X170674777Y-103424346D01*
X170706017Y-103449983D01*
X170731654Y-103481223D01*
X170750704Y-103516862D01*
X170762435Y-103555532D01*
X170767000Y-103601888D01*
X170767000Y-104678112D01*
X170762435Y-104724468D01*
X170750704Y-104763138D01*
X170731654Y-104798777D01*
X170706017Y-104830017D01*
X170674777Y-104855654D01*
X170639138Y-104874704D01*
X170600468Y-104886435D01*
X170554112Y-104891000D01*
X169902888Y-104891000D01*
X169856532Y-104886435D01*
X169817862Y-104874704D01*
X169782223Y-104855654D01*
X169750983Y-104830017D01*
X169725346Y-104798777D01*
X169706296Y-104763138D01*
X169694565Y-104724468D01*
X169690000Y-104678112D01*
X169690000Y-103601888D01*
X169694565Y-103555532D01*
X169706296Y-103516862D01*
X169725346Y-103481223D01*
X169750983Y-103449983D01*
X169782223Y-103424346D01*
X169817862Y-103405296D01*
X169856532Y-103393565D01*
X169902888Y-103389000D01*
X170554112Y-103389000D01*
X170600468Y-103393565D01*
G37*
G36*
X148539468Y-103781565D02*
G01*
X148578138Y-103793296D01*
X148613777Y-103812346D01*
X148645017Y-103837983D01*
X148670654Y-103869223D01*
X148689704Y-103904862D01*
X148701435Y-103943532D01*
X148706000Y-103989888D01*
X148706000Y-104641112D01*
X148701435Y-104687468D01*
X148689704Y-104726138D01*
X148670654Y-104761777D01*
X148645017Y-104793017D01*
X148613777Y-104818654D01*
X148578138Y-104837704D01*
X148539468Y-104849435D01*
X148493112Y-104854000D01*
X147416888Y-104854000D01*
X147370532Y-104849435D01*
X147331862Y-104837704D01*
X147296223Y-104818654D01*
X147264983Y-104793017D01*
X147239346Y-104761777D01*
X147220296Y-104726138D01*
X147208565Y-104687468D01*
X147204000Y-104641112D01*
X147204000Y-103989888D01*
X147208565Y-103943532D01*
X147220296Y-103904862D01*
X147239346Y-103869223D01*
X147264983Y-103837983D01*
X147296223Y-103812346D01*
X147331862Y-103793296D01*
X147370532Y-103781565D01*
X147416888Y-103777000D01*
X148493112Y-103777000D01*
X148539468Y-103781565D01*
G37*
G36*
X142511000Y-104701000D02*
G01*
X140909000Y-104701000D01*
X140909000Y-103699000D01*
X142511000Y-103699000D01*
X142511000Y-104701000D01*
G37*
G36*
X159080468Y-103527565D02*
G01*
X159119138Y-103539296D01*
X159154777Y-103558346D01*
X159186017Y-103583983D01*
X159211654Y-103615223D01*
X159230704Y-103650862D01*
X159242435Y-103689532D01*
X159247000Y-103735888D01*
X159247000Y-104387112D01*
X159242435Y-104433468D01*
X159230704Y-104472138D01*
X159211654Y-104507777D01*
X159186017Y-104539017D01*
X159154777Y-104564654D01*
X159119138Y-104583704D01*
X159080468Y-104595435D01*
X159034112Y-104600000D01*
X157957888Y-104600000D01*
X157911532Y-104595435D01*
X157872862Y-104583704D01*
X157837223Y-104564654D01*
X157805983Y-104539017D01*
X157780346Y-104507777D01*
X157761296Y-104472138D01*
X157749565Y-104433468D01*
X157745000Y-104387112D01*
X157745000Y-103735888D01*
X157749565Y-103689532D01*
X157761296Y-103650862D01*
X157780346Y-103615223D01*
X157805983Y-103583983D01*
X157837223Y-103558346D01*
X157872862Y-103539296D01*
X157911532Y-103527565D01*
X157957888Y-103523000D01*
X159034112Y-103523000D01*
X159080468Y-103527565D01*
G37*
G36*
X160985468Y-103527565D02*
G01*
X161024138Y-103539296D01*
X161059777Y-103558346D01*
X161091017Y-103583983D01*
X161116654Y-103615223D01*
X161135704Y-103650862D01*
X161147435Y-103689532D01*
X161152000Y-103735888D01*
X161152000Y-104387112D01*
X161147435Y-104433468D01*
X161135704Y-104472138D01*
X161116654Y-104507777D01*
X161091017Y-104539017D01*
X161059777Y-104564654D01*
X161024138Y-104583704D01*
X160985468Y-104595435D01*
X160939112Y-104600000D01*
X159862888Y-104600000D01*
X159816532Y-104595435D01*
X159777862Y-104583704D01*
X159742223Y-104564654D01*
X159710983Y-104539017D01*
X159685346Y-104507777D01*
X159666296Y-104472138D01*
X159654565Y-104433468D01*
X159650000Y-104387112D01*
X159650000Y-103735888D01*
X159654565Y-103689532D01*
X159666296Y-103650862D01*
X159685346Y-103615223D01*
X159710983Y-103583983D01*
X159742223Y-103558346D01*
X159777862Y-103539296D01*
X159816532Y-103527565D01*
X159862888Y-103523000D01*
X160939112Y-103523000D01*
X160985468Y-103527565D01*
G37*
G36*
X166827468Y-103527565D02*
G01*
X166866138Y-103539296D01*
X166901777Y-103558346D01*
X166933017Y-103583983D01*
X166958654Y-103615223D01*
X166977704Y-103650862D01*
X166989435Y-103689532D01*
X166994000Y-103735888D01*
X166994000Y-104387112D01*
X166989435Y-104433468D01*
X166977704Y-104472138D01*
X166958654Y-104507777D01*
X166933017Y-104539017D01*
X166901777Y-104564654D01*
X166866138Y-104583704D01*
X166827468Y-104595435D01*
X166781112Y-104600000D01*
X165704888Y-104600000D01*
X165658532Y-104595435D01*
X165619862Y-104583704D01*
X165584223Y-104564654D01*
X165552983Y-104539017D01*
X165527346Y-104507777D01*
X165508296Y-104472138D01*
X165496565Y-104433468D01*
X165492000Y-104387112D01*
X165492000Y-103735888D01*
X165496565Y-103689532D01*
X165508296Y-103650862D01*
X165527346Y-103615223D01*
X165552983Y-103583983D01*
X165584223Y-103558346D01*
X165619862Y-103539296D01*
X165658532Y-103527565D01*
X165704888Y-103523000D01*
X166781112Y-103523000D01*
X166827468Y-103527565D01*
G37*
G36*
X165003000Y-104450000D02*
G01*
X163841000Y-104450000D01*
X163841000Y-101798000D01*
X165003000Y-101798000D01*
X165003000Y-104450000D01*
G37*
G36*
X162803000Y-104450000D02*
G01*
X161641000Y-104450000D01*
X161641000Y-103698000D01*
X162803000Y-103698000D01*
X162803000Y-104450000D01*
G37*
G36*
X177056000Y-102521886D02*
G01*
X177056602Y-102534138D01*
X177059149Y-102560000D01*
X177056602Y-102585862D01*
X177056000Y-102598114D01*
X177056000Y-102671406D01*
X177047043Y-102688164D01*
X177042915Y-102699701D01*
X177036625Y-102720435D01*
X177009354Y-102810336D01*
X176948906Y-102923425D01*
X176867554Y-103022554D01*
X176768425Y-103103906D01*
X176655336Y-103164354D01*
X176632352Y-103171326D01*
X176532618Y-103201580D01*
X176468855Y-103207860D01*
X176436974Y-103211000D01*
X175673026Y-103211000D01*
X175641145Y-103207860D01*
X175577382Y-103201580D01*
X175477648Y-103171326D01*
X175454664Y-103164354D01*
X175341575Y-103103906D01*
X175242446Y-103022554D01*
X175161094Y-102923425D01*
X175100646Y-102810336D01*
X175073375Y-102720435D01*
X175067087Y-102699708D01*
X175057713Y-102677075D01*
X175054000Y-102671518D01*
X175054000Y-102598114D01*
X175053398Y-102585862D01*
X175050851Y-102560000D01*
X175053398Y-102534138D01*
X175054000Y-102521886D01*
X175054000Y-101309000D01*
X177056000Y-101309000D01*
X177056000Y-102521886D01*
G37*
G36*
X142511000Y-103201000D02*
G01*
X140909000Y-103201000D01*
X140909000Y-102199000D01*
X142511000Y-102199000D01*
X142511000Y-103201000D01*
G37*
G36*
X144722468Y-101679065D02*
G01*
X144761138Y-101690796D01*
X144796777Y-101709846D01*
X144828017Y-101735483D01*
X144853654Y-101766723D01*
X144872704Y-101802362D01*
X144884435Y-101841032D01*
X144889000Y-101887388D01*
X144889000Y-102963612D01*
X144884435Y-103009968D01*
X144872704Y-103048638D01*
X144853654Y-103084277D01*
X144828017Y-103115517D01*
X144796777Y-103141154D01*
X144761138Y-103160204D01*
X144722468Y-103171935D01*
X144676112Y-103176500D01*
X144024888Y-103176500D01*
X143978532Y-103171935D01*
X143939862Y-103160204D01*
X143904223Y-103141154D01*
X143872983Y-103115517D01*
X143847346Y-103084277D01*
X143828296Y-103048638D01*
X143816565Y-103009968D01*
X143812000Y-102963612D01*
X143812000Y-101887388D01*
X143816565Y-101841032D01*
X143828296Y-101802362D01*
X143847346Y-101766723D01*
X143872983Y-101735483D01*
X143904223Y-101709846D01*
X143939862Y-101690796D01*
X143978532Y-101679065D01*
X144024888Y-101674500D01*
X144676112Y-101674500D01*
X144722468Y-101679065D01*
G37*
G36*
X146597468Y-101679065D02*
G01*
X146636138Y-101690796D01*
X146671777Y-101709846D01*
X146703017Y-101735483D01*
X146728654Y-101766723D01*
X146747704Y-101802362D01*
X146759435Y-101841032D01*
X146764000Y-101887388D01*
X146764000Y-102963612D01*
X146759435Y-103009968D01*
X146747704Y-103048638D01*
X146728654Y-103084277D01*
X146703017Y-103115517D01*
X146671777Y-103141154D01*
X146636138Y-103160204D01*
X146597468Y-103171935D01*
X146551112Y-103176500D01*
X145899888Y-103176500D01*
X145853532Y-103171935D01*
X145814862Y-103160204D01*
X145779223Y-103141154D01*
X145747983Y-103115517D01*
X145722346Y-103084277D01*
X145703296Y-103048638D01*
X145691565Y-103009968D01*
X145687000Y-102963612D01*
X145687000Y-101887388D01*
X145691565Y-101841032D01*
X145703296Y-101802362D01*
X145722346Y-101766723D01*
X145747983Y-101735483D01*
X145779223Y-101709846D01*
X145814862Y-101690796D01*
X145853532Y-101679065D01*
X145899888Y-101674500D01*
X146551112Y-101674500D01*
X146597468Y-101679065D01*
G37*
G36*
X170600468Y-101488565D02*
G01*
X170639138Y-101500296D01*
X170674777Y-101519346D01*
X170706017Y-101544983D01*
X170731654Y-101576223D01*
X170750704Y-101611862D01*
X170762435Y-101650532D01*
X170767000Y-101696888D01*
X170767000Y-102773112D01*
X170762435Y-102819468D01*
X170750704Y-102858138D01*
X170731654Y-102893777D01*
X170706017Y-102925017D01*
X170674777Y-102950654D01*
X170639138Y-102969704D01*
X170600468Y-102981435D01*
X170554112Y-102986000D01*
X169902888Y-102986000D01*
X169856532Y-102981435D01*
X169817862Y-102969704D01*
X169782223Y-102950654D01*
X169750983Y-102925017D01*
X169725346Y-102893777D01*
X169706296Y-102858138D01*
X169694565Y-102819468D01*
X169690000Y-102773112D01*
X169690000Y-101696888D01*
X169694565Y-101650532D01*
X169706296Y-101611862D01*
X169725346Y-101576223D01*
X169750983Y-101544983D01*
X169782223Y-101519346D01*
X169817862Y-101500296D01*
X169856532Y-101488565D01*
X169902888Y-101484000D01*
X170554112Y-101484000D01*
X170600468Y-101488565D01*
G37*
G36*
X168725468Y-101488565D02*
G01*
X168764138Y-101500296D01*
X168799777Y-101519346D01*
X168831017Y-101544983D01*
X168856654Y-101576223D01*
X168875704Y-101611862D01*
X168887435Y-101650532D01*
X168892000Y-101696888D01*
X168892000Y-102773112D01*
X168887435Y-102819468D01*
X168875704Y-102858138D01*
X168856654Y-102893777D01*
X168831017Y-102925017D01*
X168799777Y-102950654D01*
X168764138Y-102969704D01*
X168725468Y-102981435D01*
X168679112Y-102986000D01*
X168027888Y-102986000D01*
X167981532Y-102981435D01*
X167942862Y-102969704D01*
X167907223Y-102950654D01*
X167875983Y-102925017D01*
X167850346Y-102893777D01*
X167831296Y-102858138D01*
X167819565Y-102819468D01*
X167815000Y-102773112D01*
X167815000Y-101696888D01*
X167819565Y-101650532D01*
X167831296Y-101611862D01*
X167850346Y-101576223D01*
X167875983Y-101544983D01*
X167907223Y-101519346D01*
X167942862Y-101500296D01*
X167981532Y-101488565D01*
X168027888Y-101484000D01*
X168679112Y-101484000D01*
X168725468Y-101488565D01*
G37*
G36*
X148539468Y-101906565D02*
G01*
X148578138Y-101918296D01*
X148613777Y-101937346D01*
X148645017Y-101962983D01*
X148670654Y-101994223D01*
X148689704Y-102029862D01*
X148701435Y-102068532D01*
X148706000Y-102114888D01*
X148706000Y-102766112D01*
X148701435Y-102812468D01*
X148689704Y-102851138D01*
X148670654Y-102886777D01*
X148645017Y-102918017D01*
X148613777Y-102943654D01*
X148578138Y-102962704D01*
X148539468Y-102974435D01*
X148493112Y-102979000D01*
X147416888Y-102979000D01*
X147370532Y-102974435D01*
X147331862Y-102962704D01*
X147296223Y-102943654D01*
X147264983Y-102918017D01*
X147239346Y-102886777D01*
X147220296Y-102851138D01*
X147208565Y-102812468D01*
X147204000Y-102766112D01*
X147204000Y-102114888D01*
X147208565Y-102068532D01*
X147220296Y-102029862D01*
X147239346Y-101994223D01*
X147264983Y-101962983D01*
X147296223Y-101937346D01*
X147331862Y-101918296D01*
X147370532Y-101906565D01*
X147416888Y-101902000D01*
X148493112Y-101902000D01*
X148539468Y-101906565D01*
G37*
G36*
X152469468Y-101361565D02*
G01*
X152508138Y-101373296D01*
X152543777Y-101392346D01*
X152575017Y-101417983D01*
X152600654Y-101449223D01*
X152619704Y-101484862D01*
X152631435Y-101523532D01*
X152636000Y-101569888D01*
X152636000Y-102646112D01*
X152631435Y-102692468D01*
X152619704Y-102731138D01*
X152600654Y-102766777D01*
X152575017Y-102798017D01*
X152543777Y-102823654D01*
X152508138Y-102842704D01*
X152469468Y-102854435D01*
X152423112Y-102859000D01*
X151771888Y-102859000D01*
X151725532Y-102854435D01*
X151686862Y-102842704D01*
X151651223Y-102823654D01*
X151619983Y-102798017D01*
X151594346Y-102766777D01*
X151575296Y-102731138D01*
X151563565Y-102692468D01*
X151559000Y-102646112D01*
X151559000Y-101569888D01*
X151563565Y-101523532D01*
X151575296Y-101484862D01*
X151594346Y-101449223D01*
X151619983Y-101417983D01*
X151651223Y-101392346D01*
X151686862Y-101373296D01*
X151725532Y-101361565D01*
X151771888Y-101357000D01*
X152423112Y-101357000D01*
X152469468Y-101361565D01*
G37*
G36*
X154344468Y-101361565D02*
G01*
X154383138Y-101373296D01*
X154418777Y-101392346D01*
X154450017Y-101417983D01*
X154475654Y-101449223D01*
X154494704Y-101484862D01*
X154506435Y-101523532D01*
X154511000Y-101569888D01*
X154511000Y-102646112D01*
X154506435Y-102692468D01*
X154494704Y-102731138D01*
X154475654Y-102766777D01*
X154450017Y-102798017D01*
X154418777Y-102823654D01*
X154383138Y-102842704D01*
X154344468Y-102854435D01*
X154298112Y-102859000D01*
X153646888Y-102859000D01*
X153600532Y-102854435D01*
X153561862Y-102842704D01*
X153526223Y-102823654D01*
X153494983Y-102798017D01*
X153469346Y-102766777D01*
X153450296Y-102731138D01*
X153438565Y-102692468D01*
X153434000Y-102646112D01*
X153434000Y-101569888D01*
X153438565Y-101523532D01*
X153450296Y-101484862D01*
X153469346Y-101449223D01*
X153494983Y-101417983D01*
X153526223Y-101392346D01*
X153561862Y-101373296D01*
X153600532Y-101361565D01*
X153646888Y-101357000D01*
X154298112Y-101357000D01*
X154344468Y-101361565D01*
G37*
G36*
X159080468Y-101652565D02*
G01*
X159119138Y-101664296D01*
X159154777Y-101683346D01*
X159186017Y-101708983D01*
X159211654Y-101740223D01*
X159230704Y-101775862D01*
X159242435Y-101814532D01*
X159247000Y-101860888D01*
X159247000Y-102512112D01*
X159242435Y-102558468D01*
X159230704Y-102597138D01*
X159211654Y-102632777D01*
X159186017Y-102664017D01*
X159154777Y-102689654D01*
X159119138Y-102708704D01*
X159080468Y-102720435D01*
X159034112Y-102725000D01*
X157957888Y-102725000D01*
X157911532Y-102720435D01*
X157872862Y-102708704D01*
X157837223Y-102689654D01*
X157805983Y-102664017D01*
X157780346Y-102632777D01*
X157761296Y-102597138D01*
X157749565Y-102558468D01*
X157745000Y-102512112D01*
X157745000Y-101860888D01*
X157749565Y-101814532D01*
X157761296Y-101775862D01*
X157780346Y-101740223D01*
X157805983Y-101708983D01*
X157837223Y-101683346D01*
X157872862Y-101664296D01*
X157911532Y-101652565D01*
X157957888Y-101648000D01*
X159034112Y-101648000D01*
X159080468Y-101652565D01*
G37*
G36*
X166827468Y-101652565D02*
G01*
X166866138Y-101664296D01*
X166901777Y-101683346D01*
X166933017Y-101708983D01*
X166958654Y-101740223D01*
X166977704Y-101775862D01*
X166989435Y-101814532D01*
X166994000Y-101860888D01*
X166994000Y-102512112D01*
X166989435Y-102558468D01*
X166977704Y-102597138D01*
X166958654Y-102632777D01*
X166933017Y-102664017D01*
X166901777Y-102689654D01*
X166866138Y-102708704D01*
X166827468Y-102720435D01*
X166781112Y-102725000D01*
X165704888Y-102725000D01*
X165658532Y-102720435D01*
X165619862Y-102708704D01*
X165584223Y-102689654D01*
X165552983Y-102664017D01*
X165527346Y-102632777D01*
X165508296Y-102597138D01*
X165496565Y-102558468D01*
X165492000Y-102512112D01*
X165492000Y-101860888D01*
X165496565Y-101814532D01*
X165508296Y-101775862D01*
X165527346Y-101740223D01*
X165552983Y-101708983D01*
X165584223Y-101683346D01*
X165619862Y-101664296D01*
X165658532Y-101652565D01*
X165704888Y-101648000D01*
X166781112Y-101648000D01*
X166827468Y-101652565D01*
G37*
G36*
X160985468Y-101652565D02*
G01*
X161024138Y-101664296D01*
X161059777Y-101683346D01*
X161091017Y-101708983D01*
X161116654Y-101740223D01*
X161135704Y-101775862D01*
X161147435Y-101814532D01*
X161152000Y-101860888D01*
X161152000Y-102512112D01*
X161147435Y-102558468D01*
X161135704Y-102597138D01*
X161116654Y-102632777D01*
X161091017Y-102664017D01*
X161059777Y-102689654D01*
X161024138Y-102708704D01*
X160985468Y-102720435D01*
X160939112Y-102725000D01*
X159862888Y-102725000D01*
X159816532Y-102720435D01*
X159777862Y-102708704D01*
X159742223Y-102689654D01*
X159710983Y-102664017D01*
X159685346Y-102632777D01*
X159666296Y-102597138D01*
X159654565Y-102558468D01*
X159650000Y-102512112D01*
X159650000Y-101860888D01*
X159654565Y-101814532D01*
X159666296Y-101775862D01*
X159685346Y-101740223D01*
X159710983Y-101708983D01*
X159742223Y-101683346D01*
X159777862Y-101664296D01*
X159816532Y-101652565D01*
X159862888Y-101648000D01*
X160939112Y-101648000D01*
X160985468Y-101652565D01*
G37*
G36*
X151065000Y-102679000D02*
G01*
X149163000Y-102679000D01*
X149163000Y-101577000D01*
X151065000Y-101577000D01*
X151065000Y-102679000D01*
G37*
G36*
X162803000Y-102550000D02*
G01*
X161641000Y-102550000D01*
X161641000Y-101798000D01*
X162803000Y-101798000D01*
X162803000Y-102550000D01*
G37*
G36*
X173581348Y-95813820D02*
G01*
X173581350Y-95813821D01*
X173581351Y-95813821D01*
X173722574Y-95872317D01*
X173722577Y-95872319D01*
X173849669Y-95957239D01*
X173957761Y-96065331D01*
X174042681Y-96192423D01*
X174042683Y-96192426D01*
X174101179Y-96333649D01*
X174101180Y-96333652D01*
X174131000Y-96483569D01*
X174131000Y-96636431D01*
X174116735Y-96708149D01*
X174101179Y-96786351D01*
X174042683Y-96927574D01*
X174042681Y-96927577D01*
X173957761Y-97054669D01*
X173849669Y-97162761D01*
X173801641Y-97194852D01*
X173722574Y-97247683D01*
X173672272Y-97268519D01*
X173650664Y-97280068D01*
X173631722Y-97295614D01*
X173616177Y-97314556D01*
X173604626Y-97336166D01*
X173597513Y-97359615D01*
X173595111Y-97384001D01*
X173597513Y-97408387D01*
X173604626Y-97431836D01*
X173616177Y-97453447D01*
X173631723Y-97472389D01*
X173650665Y-97487934D01*
X173672275Y-97499485D01*
X173695724Y-97506598D01*
X173720110Y-97509000D01*
X174081000Y-97509000D01*
X174081000Y-100611000D01*
X173720110Y-100611000D01*
X173695724Y-100613402D01*
X173672275Y-100620515D01*
X173650664Y-100632066D01*
X173631722Y-100647611D01*
X173616177Y-100666553D01*
X173604626Y-100688164D01*
X173597513Y-100711613D01*
X173595111Y-100735999D01*
X173597513Y-100760385D01*
X173604626Y-100783834D01*
X173616177Y-100805445D01*
X173631722Y-100824387D01*
X173650664Y-100839932D01*
X173672272Y-100851481D01*
X173722574Y-100872317D01*
X173722575Y-100872318D01*
X173849669Y-100957239D01*
X173957761Y-101065331D01*
X174042681Y-101192423D01*
X174042683Y-101192426D01*
X174090969Y-101309000D01*
X174101180Y-101333652D01*
X174131000Y-101483569D01*
X174131000Y-101636431D01*
X174103266Y-101775862D01*
X174101179Y-101786351D01*
X174042683Y-101927574D01*
X174042681Y-101927577D01*
X173957761Y-102054669D01*
X173849669Y-102162761D01*
X173799064Y-102196574D01*
X173722574Y-102247683D01*
X173581351Y-102306179D01*
X173581350Y-102306179D01*
X173581348Y-102306180D01*
X173431431Y-102336000D01*
X173278569Y-102336000D01*
X173128652Y-102306180D01*
X173128650Y-102306179D01*
X173128649Y-102306179D01*
X172987426Y-102247683D01*
X172910936Y-102196574D01*
X172860331Y-102162761D01*
X172752239Y-102054669D01*
X172667319Y-101927577D01*
X172667317Y-101927574D01*
X172608821Y-101786351D01*
X172606735Y-101775862D01*
X172579000Y-101636431D01*
X172579000Y-101483569D01*
X172608820Y-101333652D01*
X172619031Y-101309000D01*
X172667317Y-101192426D01*
X172667319Y-101192423D01*
X172752239Y-101065331D01*
X172860331Y-100957239D01*
X172987425Y-100872318D01*
X172987426Y-100872317D01*
X173037728Y-100851481D01*
X173059336Y-100839932D01*
X173078278Y-100824386D01*
X173093823Y-100805444D01*
X173105374Y-100783834D01*
X173112487Y-100760385D01*
X173114889Y-100735999D01*
X173112487Y-100711613D01*
X173105374Y-100688164D01*
X173093823Y-100666553D01*
X173078277Y-100647611D01*
X173059335Y-100632066D01*
X173037725Y-100620515D01*
X173014276Y-100613402D01*
X172989890Y-100611000D01*
X172629000Y-100611000D01*
X172629000Y-97509000D01*
X172989890Y-97509000D01*
X173014276Y-97506598D01*
X173037725Y-97499485D01*
X173059336Y-97487934D01*
X173078278Y-97472389D01*
X173093823Y-97453447D01*
X173105374Y-97431836D01*
X173112487Y-97408387D01*
X173114889Y-97384001D01*
X173112487Y-97359615D01*
X173105374Y-97336166D01*
X173093823Y-97314555D01*
X173078278Y-97295613D01*
X173059336Y-97280068D01*
X173037728Y-97268519D01*
X172987426Y-97247683D01*
X172908359Y-97194852D01*
X172860331Y-97162761D01*
X172752239Y-97054669D01*
X172667319Y-96927577D01*
X172667317Y-96927574D01*
X172608821Y-96786351D01*
X172593266Y-96708149D01*
X172579000Y-96636431D01*
X172579000Y-96483569D01*
X172608820Y-96333652D01*
X172608821Y-96333649D01*
X172667317Y-96192426D01*
X172667319Y-96192423D01*
X172752239Y-96065331D01*
X172860331Y-95957239D01*
X172987423Y-95872319D01*
X172987426Y-95872317D01*
X173128649Y-95813821D01*
X173128650Y-95813821D01*
X173128652Y-95813820D01*
X173278569Y-95784000D01*
X173431431Y-95784000D01*
X173581348Y-95813820D01*
G37*
G36*
X125611000Y-102241000D02*
G01*
X124409000Y-102241000D01*
X124409000Y-101039000D01*
X125611000Y-101039000D01*
X125611000Y-102241000D01*
G37*
G36*
X127111000Y-102241000D02*
G01*
X125909000Y-102241000D01*
X125909000Y-101039000D01*
X127111000Y-101039000D01*
X127111000Y-102241000D01*
G37*
G36*
X128611000Y-102241000D02*
G01*
X127409000Y-102241000D01*
X127409000Y-101039000D01*
X128611000Y-101039000D01*
X128611000Y-102241000D01*
G37*
G36*
X142511000Y-101701000D02*
G01*
X140909000Y-101701000D01*
X140909000Y-100699000D01*
X142511000Y-100699000D01*
X142511000Y-101701000D01*
G37*
G36*
X177056000Y-100861000D02*
G01*
X175054000Y-100861000D01*
X175054000Y-99259000D01*
X177056000Y-99259000D01*
X177056000Y-100861000D01*
G37*
G36*
X127111000Y-100741000D02*
G01*
X125909000Y-100741000D01*
X125909000Y-99539000D01*
X127111000Y-99539000D01*
X127111000Y-100741000D01*
G37*
G36*
X128611000Y-100741000D02*
G01*
X127409000Y-100741000D01*
X127409000Y-99539000D01*
X128611000Y-99539000D01*
X128611000Y-100741000D01*
G37*
G36*
X125611000Y-100741000D02*
G01*
X124409000Y-100741000D01*
X124409000Y-99539000D01*
X125611000Y-99539000D01*
X125611000Y-100741000D01*
G37*
G36*
X168772000Y-100703500D02*
G01*
X167610000Y-100703500D01*
X167610000Y-98051500D01*
X168772000Y-98051500D01*
X168772000Y-100703500D01*
G37*
G36*
X170972000Y-100703500D02*
G01*
X169810000Y-100703500D01*
X169810000Y-98051500D01*
X170972000Y-98051500D01*
X170972000Y-100703500D01*
G37*
G36*
X142511000Y-100201000D02*
G01*
X140909000Y-100201000D01*
X140909000Y-99199000D01*
X142511000Y-99199000D01*
X142511000Y-100201000D01*
G37*
G36*
X150661468Y-98313565D02*
G01*
X150700138Y-98325296D01*
X150735777Y-98344346D01*
X150767017Y-98369983D01*
X150792654Y-98401223D01*
X150811704Y-98436862D01*
X150823435Y-98475532D01*
X150828000Y-98521888D01*
X150828000Y-99598112D01*
X150823435Y-99644468D01*
X150811704Y-99683138D01*
X150792654Y-99718777D01*
X150767017Y-99750017D01*
X150735777Y-99775654D01*
X150700138Y-99794704D01*
X150661468Y-99806435D01*
X150615112Y-99811000D01*
X149963888Y-99811000D01*
X149917532Y-99806435D01*
X149878862Y-99794704D01*
X149843223Y-99775654D01*
X149811983Y-99750017D01*
X149786346Y-99718777D01*
X149767296Y-99683138D01*
X149755565Y-99644468D01*
X149751000Y-99598112D01*
X149751000Y-98521888D01*
X149755565Y-98475532D01*
X149767296Y-98436862D01*
X149786346Y-98401223D01*
X149811983Y-98369983D01*
X149843223Y-98344346D01*
X149878862Y-98325296D01*
X149917532Y-98313565D01*
X149963888Y-98309000D01*
X150615112Y-98309000D01*
X150661468Y-98313565D01*
G37*
G36*
X148786468Y-98313565D02*
G01*
X148825138Y-98325296D01*
X148860777Y-98344346D01*
X148892017Y-98369983D01*
X148917654Y-98401223D01*
X148936704Y-98436862D01*
X148948435Y-98475532D01*
X148953000Y-98521888D01*
X148953000Y-99598112D01*
X148948435Y-99644468D01*
X148936704Y-99683138D01*
X148917654Y-99718777D01*
X148892017Y-99750017D01*
X148860777Y-99775654D01*
X148825138Y-99794704D01*
X148786468Y-99806435D01*
X148740112Y-99811000D01*
X148088888Y-99811000D01*
X148042532Y-99806435D01*
X148003862Y-99794704D01*
X147968223Y-99775654D01*
X147936983Y-99750017D01*
X147911346Y-99718777D01*
X147892296Y-99683138D01*
X147880565Y-99644468D01*
X147876000Y-99598112D01*
X147876000Y-98521888D01*
X147880565Y-98475532D01*
X147892296Y-98436862D01*
X147911346Y-98401223D01*
X147936983Y-98369983D01*
X147968223Y-98344346D01*
X148003862Y-98325296D01*
X148042532Y-98313565D01*
X148088888Y-98309000D01*
X148740112Y-98309000D01*
X148786468Y-98313565D01*
G37*
G36*
X127111000Y-99241000D02*
G01*
X125909000Y-99241000D01*
X125909000Y-98039000D01*
X127111000Y-98039000D01*
X127111000Y-99241000D01*
G37*
G36*
X128611000Y-99241000D02*
G01*
X127409000Y-99241000D01*
X127409000Y-98039000D01*
X128611000Y-98039000D01*
X128611000Y-99241000D01*
G37*
G36*
X125611000Y-99241000D02*
G01*
X124409000Y-99241000D01*
X124409000Y-98039000D01*
X125611000Y-98039000D01*
X125611000Y-99241000D01*
G37*
G36*
X146597468Y-97551565D02*
G01*
X146636138Y-97563296D01*
X146671777Y-97582346D01*
X146703017Y-97607983D01*
X146728654Y-97639223D01*
X146747704Y-97674862D01*
X146759435Y-97713532D01*
X146764000Y-97759888D01*
X146764000Y-98836112D01*
X146759435Y-98882468D01*
X146747704Y-98921138D01*
X146728654Y-98956777D01*
X146703017Y-98988017D01*
X146671777Y-99013654D01*
X146636138Y-99032704D01*
X146597468Y-99044435D01*
X146551112Y-99049000D01*
X145899888Y-99049000D01*
X145853532Y-99044435D01*
X145814862Y-99032704D01*
X145779223Y-99013654D01*
X145747983Y-98988017D01*
X145722346Y-98956777D01*
X145703296Y-98921138D01*
X145691565Y-98882468D01*
X145687000Y-98836112D01*
X145687000Y-97759888D01*
X145691565Y-97713532D01*
X145703296Y-97674862D01*
X145722346Y-97639223D01*
X145747983Y-97607983D01*
X145779223Y-97582346D01*
X145814862Y-97563296D01*
X145853532Y-97551565D01*
X145899888Y-97547000D01*
X146551112Y-97547000D01*
X146597468Y-97551565D01*
G37*
G36*
X144722468Y-97551565D02*
G01*
X144761138Y-97563296D01*
X144796777Y-97582346D01*
X144828017Y-97607983D01*
X144853654Y-97639223D01*
X144872704Y-97674862D01*
X144884435Y-97713532D01*
X144889000Y-97759888D01*
X144889000Y-98836112D01*
X144884435Y-98882468D01*
X144872704Y-98921138D01*
X144853654Y-98956777D01*
X144828017Y-98988017D01*
X144796777Y-99013654D01*
X144761138Y-99032704D01*
X144722468Y-99044435D01*
X144676112Y-99049000D01*
X144024888Y-99049000D01*
X143978532Y-99044435D01*
X143939862Y-99032704D01*
X143904223Y-99013654D01*
X143872983Y-98988017D01*
X143847346Y-98956777D01*
X143828296Y-98921138D01*
X143816565Y-98882468D01*
X143812000Y-98836112D01*
X143812000Y-97759888D01*
X143816565Y-97713532D01*
X143828296Y-97674862D01*
X143847346Y-97639223D01*
X143872983Y-97607983D01*
X143904223Y-97582346D01*
X143939862Y-97563296D01*
X143978532Y-97551565D01*
X144024888Y-97547000D01*
X144676112Y-97547000D01*
X144722468Y-97551565D01*
G37*
G36*
X177056000Y-98861000D02*
G01*
X175054000Y-98861000D01*
X175054000Y-97259000D01*
X177056000Y-97259000D01*
X177056000Y-98861000D01*
G37*
G36*
X142511000Y-98701000D02*
G01*
X140909000Y-98701000D01*
X140909000Y-97699000D01*
X142511000Y-97699000D01*
X142511000Y-98701000D01*
G37*
G36*
X168725468Y-95773565D02*
G01*
X168764138Y-95785296D01*
X168799777Y-95804346D01*
X168831017Y-95829983D01*
X168856654Y-95861223D01*
X168875704Y-95896862D01*
X168887435Y-95935532D01*
X168892000Y-95981888D01*
X168892000Y-97058112D01*
X168887435Y-97104468D01*
X168875704Y-97143138D01*
X168856654Y-97178777D01*
X168831017Y-97210017D01*
X168799777Y-97235654D01*
X168764138Y-97254704D01*
X168725468Y-97266435D01*
X168679112Y-97271000D01*
X168027888Y-97271000D01*
X167981532Y-97266435D01*
X167942862Y-97254704D01*
X167907223Y-97235654D01*
X167875983Y-97210017D01*
X167850346Y-97178777D01*
X167831296Y-97143138D01*
X167819565Y-97104468D01*
X167815000Y-97058112D01*
X167815000Y-95981888D01*
X167819565Y-95935532D01*
X167831296Y-95896862D01*
X167850346Y-95861223D01*
X167875983Y-95829983D01*
X167907223Y-95804346D01*
X167942862Y-95785296D01*
X167981532Y-95773565D01*
X168027888Y-95769000D01*
X168679112Y-95769000D01*
X168725468Y-95773565D01*
G37*
G36*
X170600468Y-95773565D02*
G01*
X170639138Y-95785296D01*
X170674777Y-95804346D01*
X170706017Y-95829983D01*
X170731654Y-95861223D01*
X170750704Y-95896862D01*
X170762435Y-95935532D01*
X170767000Y-95981888D01*
X170767000Y-97058112D01*
X170762435Y-97104468D01*
X170750704Y-97143138D01*
X170731654Y-97178777D01*
X170706017Y-97210017D01*
X170674777Y-97235654D01*
X170639138Y-97254704D01*
X170600468Y-97266435D01*
X170554112Y-97271000D01*
X169902888Y-97271000D01*
X169856532Y-97266435D01*
X169817862Y-97254704D01*
X169782223Y-97235654D01*
X169750983Y-97210017D01*
X169725346Y-97178777D01*
X169706296Y-97143138D01*
X169694565Y-97104468D01*
X169690000Y-97058112D01*
X169690000Y-95981888D01*
X169694565Y-95935532D01*
X169706296Y-95896862D01*
X169725346Y-95861223D01*
X169750983Y-95829983D01*
X169782223Y-95804346D01*
X169817862Y-95785296D01*
X169856532Y-95773565D01*
X169902888Y-95769000D01*
X170554112Y-95769000D01*
X170600468Y-95773565D01*
G37*
G36*
X142511000Y-97201000D02*
G01*
X140909000Y-97201000D01*
X140909000Y-96199000D01*
X142511000Y-96199000D01*
X142511000Y-97201000D01*
G37*
G36*
X163308999Y-95592737D02*
G01*
X163318608Y-95595652D01*
X163327472Y-95600390D01*
X163335237Y-95606763D01*
X163345448Y-95619206D01*
X163352378Y-95629575D01*
X163369705Y-95646902D01*
X163390080Y-95660515D01*
X163412720Y-95669891D01*
X163436753Y-95674671D01*
X163461257Y-95674670D01*
X163485290Y-95669888D01*
X163507929Y-95660510D01*
X163528302Y-95646895D01*
X163545629Y-95629568D01*
X163552558Y-95619198D01*
X163562763Y-95606763D01*
X163570528Y-95600390D01*
X163579392Y-95595652D01*
X163589001Y-95592737D01*
X163605140Y-95591148D01*
X164092861Y-95591148D01*
X164111199Y-95592954D01*
X164123450Y-95593556D01*
X164141869Y-95593556D01*
X164164149Y-95595750D01*
X164248233Y-95612476D01*
X164269660Y-95618976D01*
X164348858Y-95651780D01*
X164354303Y-95654691D01*
X164354309Y-95654693D01*
X164363169Y-95659429D01*
X164363173Y-95659432D01*
X164368614Y-95662340D01*
X164439899Y-95709971D01*
X164457204Y-95724172D01*
X164517828Y-95784796D01*
X164532029Y-95802101D01*
X164579660Y-95873386D01*
X164582568Y-95878827D01*
X164582571Y-95878831D01*
X164587307Y-95887691D01*
X164587309Y-95887697D01*
X164590220Y-95893142D01*
X164623024Y-95972340D01*
X164629524Y-95993767D01*
X164646250Y-96077851D01*
X164648444Y-96100131D01*
X164648444Y-96118550D01*
X164649046Y-96130801D01*
X164650852Y-96149139D01*
X164650852Y-96636862D01*
X164649046Y-96655199D01*
X164648444Y-96667450D01*
X164648444Y-96685869D01*
X164646250Y-96708149D01*
X164629524Y-96792233D01*
X164623024Y-96813660D01*
X164590220Y-96892858D01*
X164587309Y-96898303D01*
X164587307Y-96898309D01*
X164582571Y-96907169D01*
X164582568Y-96907173D01*
X164579660Y-96912614D01*
X164532029Y-96983899D01*
X164517828Y-97001204D01*
X164457204Y-97061828D01*
X164439899Y-97076029D01*
X164368614Y-97123660D01*
X164363173Y-97126568D01*
X164363169Y-97126571D01*
X164354309Y-97131307D01*
X164354303Y-97131309D01*
X164348858Y-97134220D01*
X164269660Y-97167024D01*
X164248233Y-97173524D01*
X164164149Y-97190250D01*
X164141869Y-97192444D01*
X164123450Y-97192444D01*
X164111199Y-97193046D01*
X164092862Y-97194852D01*
X163605140Y-97194852D01*
X163589001Y-97193263D01*
X163579392Y-97190348D01*
X163570528Y-97185610D01*
X163562763Y-97179237D01*
X163552552Y-97166794D01*
X163545622Y-97156425D01*
X163528295Y-97139098D01*
X163507920Y-97125485D01*
X163485280Y-97116109D01*
X163461247Y-97111329D01*
X163436743Y-97111330D01*
X163412710Y-97116112D01*
X163390071Y-97125490D01*
X163369698Y-97139105D01*
X163352371Y-97156432D01*
X163345442Y-97166802D01*
X163335237Y-97179237D01*
X163327472Y-97185610D01*
X163318608Y-97190348D01*
X163308999Y-97193263D01*
X163292860Y-97194852D01*
X162805138Y-97194852D01*
X162786801Y-97193046D01*
X162774550Y-97192444D01*
X162756131Y-97192444D01*
X162733851Y-97190250D01*
X162649767Y-97173524D01*
X162628340Y-97167024D01*
X162549142Y-97134220D01*
X162543697Y-97131309D01*
X162543691Y-97131307D01*
X162534831Y-97126571D01*
X162534827Y-97126568D01*
X162529386Y-97123660D01*
X162458101Y-97076029D01*
X162440796Y-97061828D01*
X162380172Y-97001204D01*
X162365971Y-96983899D01*
X162318340Y-96912614D01*
X162315432Y-96907173D01*
X162315429Y-96907169D01*
X162310693Y-96898309D01*
X162310691Y-96898303D01*
X162307780Y-96892858D01*
X162274976Y-96813660D01*
X162268476Y-96792233D01*
X162251750Y-96708149D01*
X162249556Y-96685869D01*
X162249556Y-96667450D01*
X162248954Y-96655199D01*
X162247148Y-96636862D01*
X162247148Y-96149139D01*
X162248954Y-96130801D01*
X162249556Y-96118550D01*
X162249556Y-96100131D01*
X162251750Y-96077851D01*
X162268476Y-95993767D01*
X162274976Y-95972340D01*
X162307780Y-95893142D01*
X162310691Y-95887697D01*
X162310693Y-95887691D01*
X162315429Y-95878831D01*
X162315432Y-95878827D01*
X162318340Y-95873386D01*
X162365971Y-95802101D01*
X162380172Y-95784796D01*
X162440796Y-95724172D01*
X162458101Y-95709971D01*
X162529386Y-95662340D01*
X162534827Y-95659432D01*
X162534831Y-95659429D01*
X162543691Y-95654693D01*
X162543697Y-95654691D01*
X162549142Y-95651780D01*
X162628340Y-95618976D01*
X162649767Y-95612476D01*
X162733851Y-95595750D01*
X162756131Y-95593556D01*
X162774550Y-95593556D01*
X162786801Y-95592954D01*
X162805139Y-95591148D01*
X163292860Y-95591148D01*
X163308999Y-95592737D01*
G37*
G36*
X144722468Y-95646565D02*
G01*
X144761138Y-95658296D01*
X144796777Y-95677346D01*
X144828017Y-95702983D01*
X144853654Y-95734223D01*
X144872704Y-95769862D01*
X144884435Y-95808532D01*
X144889000Y-95854888D01*
X144889000Y-96931112D01*
X144884435Y-96977468D01*
X144872704Y-97016138D01*
X144853654Y-97051777D01*
X144828017Y-97083017D01*
X144796777Y-97108654D01*
X144761138Y-97127704D01*
X144722468Y-97139435D01*
X144676112Y-97144000D01*
X144024888Y-97144000D01*
X143978532Y-97139435D01*
X143939862Y-97127704D01*
X143904223Y-97108654D01*
X143872983Y-97083017D01*
X143847346Y-97051777D01*
X143828296Y-97016138D01*
X143816565Y-96977468D01*
X143812000Y-96931112D01*
X143812000Y-95854888D01*
X143816565Y-95808532D01*
X143828296Y-95769862D01*
X143847346Y-95734223D01*
X143872983Y-95702983D01*
X143904223Y-95677346D01*
X143939862Y-95658296D01*
X143978532Y-95646565D01*
X144024888Y-95642000D01*
X144676112Y-95642000D01*
X144722468Y-95646565D01*
G37*
G36*
X146597468Y-95646565D02*
G01*
X146636138Y-95658296D01*
X146671777Y-95677346D01*
X146703017Y-95702983D01*
X146728654Y-95734223D01*
X146747704Y-95769862D01*
X146759435Y-95808532D01*
X146764000Y-95854888D01*
X146764000Y-96931112D01*
X146759435Y-96977468D01*
X146747704Y-97016138D01*
X146728654Y-97051777D01*
X146703017Y-97083017D01*
X146671777Y-97108654D01*
X146636138Y-97127704D01*
X146597468Y-97139435D01*
X146551112Y-97144000D01*
X145899888Y-97144000D01*
X145853532Y-97139435D01*
X145814862Y-97127704D01*
X145779223Y-97108654D01*
X145747983Y-97083017D01*
X145722346Y-97051777D01*
X145703296Y-97016138D01*
X145691565Y-96977468D01*
X145687000Y-96931112D01*
X145687000Y-95854888D01*
X145691565Y-95808532D01*
X145703296Y-95769862D01*
X145722346Y-95734223D01*
X145747983Y-95702983D01*
X145779223Y-95677346D01*
X145814862Y-95658296D01*
X145853532Y-95646565D01*
X145899888Y-95642000D01*
X146551112Y-95642000D01*
X146597468Y-95646565D01*
G37*
G36*
X176468855Y-94912140D02*
G01*
X176532618Y-94918420D01*
X176623404Y-94945960D01*
X176655336Y-94955646D01*
X176768425Y-95016094D01*
X176867554Y-95097446D01*
X176948906Y-95196575D01*
X177009354Y-95309664D01*
X177009355Y-95309668D01*
X177042913Y-95420292D01*
X177052287Y-95442925D01*
X177056000Y-95448482D01*
X177056000Y-95521886D01*
X177056602Y-95534138D01*
X177059149Y-95560000D01*
X177056602Y-95585862D01*
X177056000Y-95598114D01*
X177056000Y-96811000D01*
X175054000Y-96811000D01*
X175054000Y-95598114D01*
X175053398Y-95585862D01*
X175050851Y-95560000D01*
X175053398Y-95534138D01*
X175054000Y-95521886D01*
X175054000Y-95448594D01*
X175062957Y-95431836D01*
X175067085Y-95420299D01*
X175100645Y-95309668D01*
X175100646Y-95309664D01*
X175161094Y-95196575D01*
X175242446Y-95097446D01*
X175341575Y-95016094D01*
X175454664Y-94955646D01*
X175486596Y-94945960D01*
X175577382Y-94918420D01*
X175641145Y-94912140D01*
X175673026Y-94909000D01*
X176436974Y-94909000D01*
X176468855Y-94912140D01*
G37*
G36*
X150661468Y-95011565D02*
G01*
X150700138Y-95023296D01*
X150735777Y-95042346D01*
X150767017Y-95067983D01*
X150792654Y-95099223D01*
X150811704Y-95134862D01*
X150823435Y-95173532D01*
X150828000Y-95219888D01*
X150828000Y-96296112D01*
X150823435Y-96342468D01*
X150811704Y-96381138D01*
X150792654Y-96416777D01*
X150767017Y-96448017D01*
X150735777Y-96473654D01*
X150700138Y-96492704D01*
X150661468Y-96504435D01*
X150615112Y-96509000D01*
X149963888Y-96509000D01*
X149917532Y-96504435D01*
X149878862Y-96492704D01*
X149843223Y-96473654D01*
X149811983Y-96448017D01*
X149786346Y-96416777D01*
X149767296Y-96381138D01*
X149755565Y-96342468D01*
X149751000Y-96296112D01*
X149751000Y-95219888D01*
X149755565Y-95173532D01*
X149767296Y-95134862D01*
X149786346Y-95099223D01*
X149811983Y-95067983D01*
X149843223Y-95042346D01*
X149878862Y-95023296D01*
X149917532Y-95011565D01*
X149963888Y-95007000D01*
X150615112Y-95007000D01*
X150661468Y-95011565D01*
G37*
G36*
X148786468Y-95011565D02*
G01*
X148825138Y-95023296D01*
X148860777Y-95042346D01*
X148892017Y-95067983D01*
X148917654Y-95099223D01*
X148936704Y-95134862D01*
X148948435Y-95173532D01*
X148953000Y-95219888D01*
X148953000Y-96296112D01*
X148948435Y-96342468D01*
X148936704Y-96381138D01*
X148917654Y-96416777D01*
X148892017Y-96448017D01*
X148860777Y-96473654D01*
X148825138Y-96492704D01*
X148786468Y-96504435D01*
X148740112Y-96509000D01*
X148088888Y-96509000D01*
X148042532Y-96504435D01*
X148003862Y-96492704D01*
X147968223Y-96473654D01*
X147936983Y-96448017D01*
X147911346Y-96416777D01*
X147892296Y-96381138D01*
X147880565Y-96342468D01*
X147876000Y-96296112D01*
X147876000Y-95219888D01*
X147880565Y-95173532D01*
X147892296Y-95134862D01*
X147911346Y-95099223D01*
X147936983Y-95067983D01*
X147968223Y-95042346D01*
X148003862Y-95023296D01*
X148042532Y-95011565D01*
X148088888Y-95007000D01*
X148740112Y-95007000D01*
X148786468Y-95011565D01*
G37*
G36*
X142511000Y-95701000D02*
G01*
X140909000Y-95701000D01*
X140909000Y-94699000D01*
X142511000Y-94699000D01*
X142511000Y-95701000D01*
G37*
G36*
X170600468Y-93868565D02*
G01*
X170639138Y-93880296D01*
X170674777Y-93899346D01*
X170706017Y-93924983D01*
X170731654Y-93956223D01*
X170750704Y-93991862D01*
X170762435Y-94030532D01*
X170767000Y-94076888D01*
X170767000Y-95153112D01*
X170762435Y-95199468D01*
X170750704Y-95238138D01*
X170731654Y-95273777D01*
X170706017Y-95305017D01*
X170674777Y-95330654D01*
X170639138Y-95349704D01*
X170600468Y-95361435D01*
X170554112Y-95366000D01*
X169902888Y-95366000D01*
X169856532Y-95361435D01*
X169817862Y-95349704D01*
X169782223Y-95330654D01*
X169750983Y-95305017D01*
X169725346Y-95273777D01*
X169706296Y-95238138D01*
X169694565Y-95199468D01*
X169690000Y-95153112D01*
X169690000Y-94076888D01*
X169694565Y-94030532D01*
X169706296Y-93991862D01*
X169725346Y-93956223D01*
X169750983Y-93924983D01*
X169782223Y-93899346D01*
X169817862Y-93880296D01*
X169856532Y-93868565D01*
X169902888Y-93864000D01*
X170554112Y-93864000D01*
X170600468Y-93868565D01*
G37*
G36*
X168725468Y-93868565D02*
G01*
X168764138Y-93880296D01*
X168799777Y-93899346D01*
X168831017Y-93924983D01*
X168856654Y-93956223D01*
X168875704Y-93991862D01*
X168887435Y-94030532D01*
X168892000Y-94076888D01*
X168892000Y-95153112D01*
X168887435Y-95199468D01*
X168875704Y-95238138D01*
X168856654Y-95273777D01*
X168831017Y-95305017D01*
X168799777Y-95330654D01*
X168764138Y-95349704D01*
X168725468Y-95361435D01*
X168679112Y-95366000D01*
X168027888Y-95366000D01*
X167981532Y-95361435D01*
X167942862Y-95349704D01*
X167907223Y-95330654D01*
X167875983Y-95305017D01*
X167850346Y-95273777D01*
X167831296Y-95238138D01*
X167819565Y-95199468D01*
X167815000Y-95153112D01*
X167815000Y-94076888D01*
X167819565Y-94030532D01*
X167831296Y-93991862D01*
X167850346Y-93956223D01*
X167875983Y-93924983D01*
X167907223Y-93899346D01*
X167942862Y-93880296D01*
X167981532Y-93868565D01*
X168027888Y-93864000D01*
X168679112Y-93864000D01*
X168725468Y-93868565D01*
G37*
G36*
X164758468Y-93360565D02*
G01*
X164797138Y-93372296D01*
X164832777Y-93391346D01*
X164864017Y-93416983D01*
X164889654Y-93448223D01*
X164908704Y-93483862D01*
X164920435Y-93522532D01*
X164925000Y-93568888D01*
X164925000Y-94645112D01*
X164920435Y-94691468D01*
X164908704Y-94730138D01*
X164889654Y-94765777D01*
X164864017Y-94797017D01*
X164832777Y-94822654D01*
X164797138Y-94841704D01*
X164758468Y-94853435D01*
X164712112Y-94858000D01*
X164060888Y-94858000D01*
X164014532Y-94853435D01*
X163975862Y-94841704D01*
X163940223Y-94822654D01*
X163908983Y-94797017D01*
X163883346Y-94765777D01*
X163864296Y-94730138D01*
X163852565Y-94691468D01*
X163848000Y-94645112D01*
X163848000Y-93568888D01*
X163852565Y-93522532D01*
X163864296Y-93483862D01*
X163883346Y-93448223D01*
X163908983Y-93416983D01*
X163940223Y-93391346D01*
X163975862Y-93372296D01*
X164014532Y-93360565D01*
X164060888Y-93356000D01*
X164712112Y-93356000D01*
X164758468Y-93360565D01*
G37*
G36*
X162883468Y-93360565D02*
G01*
X162922138Y-93372296D01*
X162957777Y-93391346D01*
X162989017Y-93416983D01*
X163014654Y-93448223D01*
X163033704Y-93483862D01*
X163045435Y-93522532D01*
X163050000Y-93568888D01*
X163050000Y-94645112D01*
X163045435Y-94691468D01*
X163033704Y-94730138D01*
X163014654Y-94765777D01*
X162989017Y-94797017D01*
X162957777Y-94822654D01*
X162922138Y-94841704D01*
X162883468Y-94853435D01*
X162837112Y-94858000D01*
X162185888Y-94858000D01*
X162139532Y-94853435D01*
X162100862Y-94841704D01*
X162065223Y-94822654D01*
X162033983Y-94797017D01*
X162008346Y-94765777D01*
X161989296Y-94730138D01*
X161977565Y-94691468D01*
X161973000Y-94645112D01*
X161973000Y-93568888D01*
X161977565Y-93522532D01*
X161989296Y-93483862D01*
X162008346Y-93448223D01*
X162033983Y-93416983D01*
X162065223Y-93391346D01*
X162100862Y-93372296D01*
X162139532Y-93360565D01*
X162185888Y-93356000D01*
X162837112Y-93356000D01*
X162883468Y-93360565D01*
G37*
G36*
X161075468Y-93360565D02*
G01*
X161114138Y-93372296D01*
X161149777Y-93391346D01*
X161181017Y-93416983D01*
X161206654Y-93448223D01*
X161225704Y-93483862D01*
X161237435Y-93522532D01*
X161242000Y-93568888D01*
X161242000Y-94645112D01*
X161237435Y-94691468D01*
X161225704Y-94730138D01*
X161206654Y-94765777D01*
X161181017Y-94797017D01*
X161149777Y-94822654D01*
X161114138Y-94841704D01*
X161075468Y-94853435D01*
X161029112Y-94858000D01*
X160377888Y-94858000D01*
X160331532Y-94853435D01*
X160292862Y-94841704D01*
X160257223Y-94822654D01*
X160225983Y-94797017D01*
X160200346Y-94765777D01*
X160181296Y-94730138D01*
X160169565Y-94691468D01*
X160165000Y-94645112D01*
X160165000Y-93568888D01*
X160169565Y-93522532D01*
X160181296Y-93483862D01*
X160200346Y-93448223D01*
X160225983Y-93416983D01*
X160257223Y-93391346D01*
X160292862Y-93372296D01*
X160331532Y-93360565D01*
X160377888Y-93356000D01*
X161029112Y-93356000D01*
X161075468Y-93360565D01*
G37*
G36*
X159200468Y-93360565D02*
G01*
X159239138Y-93372296D01*
X159274777Y-93391346D01*
X159306017Y-93416983D01*
X159331654Y-93448223D01*
X159350704Y-93483862D01*
X159362435Y-93522532D01*
X159367000Y-93568888D01*
X159367000Y-94645112D01*
X159362435Y-94691468D01*
X159350704Y-94730138D01*
X159331654Y-94765777D01*
X159306017Y-94797017D01*
X159274777Y-94822654D01*
X159239138Y-94841704D01*
X159200468Y-94853435D01*
X159154112Y-94858000D01*
X158502888Y-94858000D01*
X158456532Y-94853435D01*
X158417862Y-94841704D01*
X158382223Y-94822654D01*
X158350983Y-94797017D01*
X158325346Y-94765777D01*
X158306296Y-94730138D01*
X158294565Y-94691468D01*
X158290000Y-94645112D01*
X158290000Y-93568888D01*
X158294565Y-93522532D01*
X158306296Y-93483862D01*
X158325346Y-93448223D01*
X158350983Y-93416983D01*
X158382223Y-93391346D01*
X158417862Y-93372296D01*
X158456532Y-93360565D01*
X158502888Y-93356000D01*
X159154112Y-93356000D01*
X159200468Y-93360565D01*
G37*
G36*
X142511000Y-94201000D02*
G01*
X140909000Y-94201000D01*
X140909000Y-93199000D01*
X142511000Y-93199000D01*
X142511000Y-94201000D01*
G37*
G36*
X144722468Y-91455565D02*
G01*
X144761138Y-91467296D01*
X144796777Y-91486346D01*
X144828017Y-91511983D01*
X144853654Y-91543223D01*
X144872704Y-91578862D01*
X144884435Y-91617532D01*
X144889000Y-91663888D01*
X144889000Y-92740112D01*
X144884435Y-92786468D01*
X144872704Y-92825138D01*
X144853654Y-92860777D01*
X144828017Y-92892017D01*
X144796777Y-92917654D01*
X144761138Y-92936704D01*
X144722468Y-92948435D01*
X144676112Y-92953000D01*
X144024888Y-92953000D01*
X143978532Y-92948435D01*
X143939862Y-92936704D01*
X143904223Y-92917654D01*
X143872983Y-92892017D01*
X143847346Y-92860777D01*
X143828296Y-92825138D01*
X143816565Y-92786468D01*
X143812000Y-92740112D01*
X143812000Y-91663888D01*
X143816565Y-91617532D01*
X143828296Y-91578862D01*
X143847346Y-91543223D01*
X143872983Y-91511983D01*
X143904223Y-91486346D01*
X143939862Y-91467296D01*
X143978532Y-91455565D01*
X144024888Y-91451000D01*
X144676112Y-91451000D01*
X144722468Y-91455565D01*
G37*
G36*
X146597468Y-91455565D02*
G01*
X146636138Y-91467296D01*
X146671777Y-91486346D01*
X146703017Y-91511983D01*
X146728654Y-91543223D01*
X146747704Y-91578862D01*
X146759435Y-91617532D01*
X146764000Y-91663888D01*
X146764000Y-92740112D01*
X146759435Y-92786468D01*
X146747704Y-92825138D01*
X146728654Y-92860777D01*
X146703017Y-92892017D01*
X146671777Y-92917654D01*
X146636138Y-92936704D01*
X146597468Y-92948435D01*
X146551112Y-92953000D01*
X145899888Y-92953000D01*
X145853532Y-92948435D01*
X145814862Y-92936704D01*
X145779223Y-92917654D01*
X145747983Y-92892017D01*
X145722346Y-92860777D01*
X145703296Y-92825138D01*
X145691565Y-92786468D01*
X145687000Y-92740112D01*
X145687000Y-91663888D01*
X145691565Y-91617532D01*
X145703296Y-91578862D01*
X145722346Y-91543223D01*
X145747983Y-91511983D01*
X145779223Y-91486346D01*
X145814862Y-91467296D01*
X145853532Y-91455565D01*
X145899888Y-91451000D01*
X146551112Y-91451000D01*
X146597468Y-91455565D01*
G37*
G36*
X164758468Y-91328565D02*
G01*
X164797138Y-91340296D01*
X164832777Y-91359346D01*
X164864017Y-91384983D01*
X164889654Y-91416223D01*
X164908704Y-91451862D01*
X164920435Y-91490532D01*
X164925000Y-91536888D01*
X164925000Y-92613112D01*
X164920435Y-92659468D01*
X164908704Y-92698138D01*
X164889654Y-92733777D01*
X164864017Y-92765017D01*
X164832777Y-92790654D01*
X164797138Y-92809704D01*
X164758468Y-92821435D01*
X164712112Y-92826000D01*
X164060888Y-92826000D01*
X164014532Y-92821435D01*
X163975862Y-92809704D01*
X163940223Y-92790654D01*
X163908983Y-92765017D01*
X163883346Y-92733777D01*
X163864296Y-92698138D01*
X163852565Y-92659468D01*
X163848000Y-92613112D01*
X163848000Y-91536888D01*
X163852565Y-91490532D01*
X163864296Y-91451862D01*
X163883346Y-91416223D01*
X163908983Y-91384983D01*
X163940223Y-91359346D01*
X163975862Y-91340296D01*
X164014532Y-91328565D01*
X164060888Y-91324000D01*
X164712112Y-91324000D01*
X164758468Y-91328565D01*
G37*
G36*
X162883468Y-91328565D02*
G01*
X162922138Y-91340296D01*
X162957777Y-91359346D01*
X162989017Y-91384983D01*
X163014654Y-91416223D01*
X163033704Y-91451862D01*
X163045435Y-91490532D01*
X163050000Y-91536888D01*
X163050000Y-92613112D01*
X163045435Y-92659468D01*
X163033704Y-92698138D01*
X163014654Y-92733777D01*
X162989017Y-92765017D01*
X162957777Y-92790654D01*
X162922138Y-92809704D01*
X162883468Y-92821435D01*
X162837112Y-92826000D01*
X162185888Y-92826000D01*
X162139532Y-92821435D01*
X162100862Y-92809704D01*
X162065223Y-92790654D01*
X162033983Y-92765017D01*
X162008346Y-92733777D01*
X161989296Y-92698138D01*
X161977565Y-92659468D01*
X161973000Y-92613112D01*
X161973000Y-91536888D01*
X161977565Y-91490532D01*
X161989296Y-91451862D01*
X162008346Y-91416223D01*
X162033983Y-91384983D01*
X162065223Y-91359346D01*
X162100862Y-91340296D01*
X162139532Y-91328565D01*
X162185888Y-91324000D01*
X162837112Y-91324000D01*
X162883468Y-91328565D01*
G37*
G36*
X161075468Y-91328565D02*
G01*
X161114138Y-91340296D01*
X161149777Y-91359346D01*
X161181017Y-91384983D01*
X161206654Y-91416223D01*
X161225704Y-91451862D01*
X161237435Y-91490532D01*
X161242000Y-91536888D01*
X161242000Y-92613112D01*
X161237435Y-92659468D01*
X161225704Y-92698138D01*
X161206654Y-92733777D01*
X161181017Y-92765017D01*
X161149777Y-92790654D01*
X161114138Y-92809704D01*
X161075468Y-92821435D01*
X161029112Y-92826000D01*
X160377888Y-92826000D01*
X160331532Y-92821435D01*
X160292862Y-92809704D01*
X160257223Y-92790654D01*
X160225983Y-92765017D01*
X160200346Y-92733777D01*
X160181296Y-92698138D01*
X160169565Y-92659468D01*
X160165000Y-92613112D01*
X160165000Y-91536888D01*
X160169565Y-91490532D01*
X160181296Y-91451862D01*
X160200346Y-91416223D01*
X160225983Y-91384983D01*
X160257223Y-91359346D01*
X160292862Y-91340296D01*
X160331532Y-91328565D01*
X160377888Y-91324000D01*
X161029112Y-91324000D01*
X161075468Y-91328565D01*
G37*
G36*
X159200468Y-91328565D02*
G01*
X159239138Y-91340296D01*
X159274777Y-91359346D01*
X159306017Y-91384983D01*
X159331654Y-91416223D01*
X159350704Y-91451862D01*
X159362435Y-91490532D01*
X159367000Y-91536888D01*
X159367000Y-92613112D01*
X159362435Y-92659468D01*
X159350704Y-92698138D01*
X159331654Y-92733777D01*
X159306017Y-92765017D01*
X159274777Y-92790654D01*
X159239138Y-92809704D01*
X159200468Y-92821435D01*
X159154112Y-92826000D01*
X158502888Y-92826000D01*
X158456532Y-92821435D01*
X158417862Y-92809704D01*
X158382223Y-92790654D01*
X158350983Y-92765017D01*
X158325346Y-92733777D01*
X158306296Y-92698138D01*
X158294565Y-92659468D01*
X158290000Y-92613112D01*
X158290000Y-91536888D01*
X158294565Y-91490532D01*
X158306296Y-91451862D01*
X158325346Y-91416223D01*
X158350983Y-91384983D01*
X158382223Y-91359346D01*
X158417862Y-91340296D01*
X158456532Y-91328565D01*
X158502888Y-91324000D01*
X159154112Y-91324000D01*
X159200468Y-91328565D01*
G37*
G36*
X142511000Y-92701000D02*
G01*
X140909000Y-92701000D01*
X140909000Y-91699000D01*
X142511000Y-91699000D01*
X142511000Y-92701000D01*
G37*
G36*
X169494468Y-91081565D02*
G01*
X169533138Y-91093296D01*
X169568777Y-91112346D01*
X169600017Y-91137983D01*
X169625654Y-91169223D01*
X169644704Y-91204862D01*
X169656435Y-91243532D01*
X169661000Y-91289888D01*
X169661000Y-91941112D01*
X169656435Y-91987468D01*
X169644704Y-92026138D01*
X169625654Y-92061777D01*
X169600017Y-92093017D01*
X169568777Y-92118654D01*
X169533138Y-92137704D01*
X169494468Y-92149435D01*
X169448112Y-92154000D01*
X168371888Y-92154000D01*
X168325532Y-92149435D01*
X168286862Y-92137704D01*
X168251223Y-92118654D01*
X168219983Y-92093017D01*
X168194346Y-92061777D01*
X168175296Y-92026138D01*
X168163565Y-91987468D01*
X168159000Y-91941112D01*
X168159000Y-91289888D01*
X168163565Y-91243532D01*
X168175296Y-91204862D01*
X168194346Y-91169223D01*
X168219983Y-91137983D01*
X168251223Y-91112346D01*
X168286862Y-91093296D01*
X168325532Y-91081565D01*
X168371888Y-91077000D01*
X169448112Y-91077000D01*
X169494468Y-91081565D01*
G37*
G36*
X175139683Y-89630725D02*
G01*
X175170143Y-89639966D01*
X175198223Y-89654974D01*
X175222831Y-89675169D01*
X175243026Y-89699777D01*
X175258034Y-89727857D01*
X175267275Y-89758317D01*
X175271000Y-89796140D01*
X175271000Y-91559860D01*
X175267275Y-91597683D01*
X175258034Y-91628143D01*
X175243026Y-91656223D01*
X175222831Y-91680831D01*
X175198223Y-91701026D01*
X175170143Y-91716034D01*
X175139683Y-91725275D01*
X175101860Y-91729000D01*
X174538140Y-91729000D01*
X174500317Y-91725275D01*
X174469857Y-91716034D01*
X174441777Y-91701026D01*
X174417169Y-91680831D01*
X174396974Y-91656223D01*
X174381966Y-91628143D01*
X174372725Y-91597683D01*
X174369000Y-91559860D01*
X174369000Y-89796140D01*
X174372725Y-89758317D01*
X174381966Y-89727857D01*
X174396974Y-89699777D01*
X174417169Y-89675169D01*
X174441777Y-89654974D01*
X174469857Y-89639966D01*
X174500317Y-89630725D01*
X174538140Y-89627000D01*
X175101860Y-89627000D01*
X175139683Y-89630725D01*
G37*
G36*
X170939683Y-89630725D02*
G01*
X170970143Y-89639966D01*
X170998223Y-89654974D01*
X171022831Y-89675169D01*
X171043026Y-89699777D01*
X171058034Y-89727857D01*
X171067275Y-89758317D01*
X171071000Y-89796140D01*
X171071000Y-91559860D01*
X171067275Y-91597683D01*
X171058034Y-91628143D01*
X171043026Y-91656223D01*
X171022831Y-91680831D01*
X170998223Y-91701026D01*
X170970143Y-91716034D01*
X170939683Y-91725275D01*
X170901860Y-91729000D01*
X170338140Y-91729000D01*
X170300317Y-91725275D01*
X170269857Y-91716034D01*
X170241777Y-91701026D01*
X170217169Y-91680831D01*
X170196974Y-91656223D01*
X170181966Y-91628143D01*
X170172725Y-91597683D01*
X170169000Y-91559860D01*
X170169000Y-89796140D01*
X170172725Y-89758317D01*
X170181966Y-89727857D01*
X170196974Y-89699777D01*
X170217169Y-89675169D01*
X170241777Y-89654974D01*
X170269857Y-89639966D01*
X170300317Y-89630725D01*
X170338140Y-89627000D01*
X170901860Y-89627000D01*
X170939683Y-89630725D01*
G37*
G36*
X146597468Y-89550565D02*
G01*
X146636138Y-89562296D01*
X146671777Y-89581346D01*
X146703017Y-89606983D01*
X146728654Y-89638223D01*
X146747704Y-89673862D01*
X146759435Y-89712532D01*
X146764000Y-89758888D01*
X146764000Y-90835112D01*
X146759435Y-90881468D01*
X146747704Y-90920138D01*
X146728654Y-90955777D01*
X146703017Y-90987017D01*
X146671777Y-91012654D01*
X146636138Y-91031704D01*
X146597468Y-91043435D01*
X146551112Y-91048000D01*
X145899888Y-91048000D01*
X145853532Y-91043435D01*
X145814862Y-91031704D01*
X145779223Y-91012654D01*
X145747983Y-90987017D01*
X145722346Y-90955777D01*
X145703296Y-90920138D01*
X145691565Y-90881468D01*
X145687000Y-90835112D01*
X145687000Y-89758888D01*
X145691565Y-89712532D01*
X145703296Y-89673862D01*
X145722346Y-89638223D01*
X145747983Y-89606983D01*
X145779223Y-89581346D01*
X145814862Y-89562296D01*
X145853532Y-89550565D01*
X145899888Y-89546000D01*
X146551112Y-89546000D01*
X146597468Y-89550565D01*
G37*
G36*
X144722468Y-89550565D02*
G01*
X144761138Y-89562296D01*
X144796777Y-89581346D01*
X144828017Y-89606983D01*
X144853654Y-89638223D01*
X144872704Y-89673862D01*
X144884435Y-89712532D01*
X144889000Y-89758888D01*
X144889000Y-90835112D01*
X144884435Y-90881468D01*
X144872704Y-90920138D01*
X144853654Y-90955777D01*
X144828017Y-90987017D01*
X144796777Y-91012654D01*
X144761138Y-91031704D01*
X144722468Y-91043435D01*
X144676112Y-91048000D01*
X144024888Y-91048000D01*
X143978532Y-91043435D01*
X143939862Y-91031704D01*
X143904223Y-91012654D01*
X143872983Y-90987017D01*
X143847346Y-90955777D01*
X143828296Y-90920138D01*
X143816565Y-90881468D01*
X143812000Y-90835112D01*
X143812000Y-89758888D01*
X143816565Y-89712532D01*
X143828296Y-89673862D01*
X143847346Y-89638223D01*
X143872983Y-89606983D01*
X143904223Y-89581346D01*
X143939862Y-89562296D01*
X143978532Y-89550565D01*
X144024888Y-89546000D01*
X144676112Y-89546000D01*
X144722468Y-89550565D01*
G37*
G36*
X127961000Y-91001000D02*
G01*
X126959000Y-91001000D01*
X126959000Y-89399000D01*
X127961000Y-89399000D01*
X127961000Y-91001000D01*
G37*
G36*
X135461000Y-91001000D02*
G01*
X134459000Y-91001000D01*
X134459000Y-89399000D01*
X135461000Y-89399000D01*
X135461000Y-91001000D01*
G37*
G36*
X123461000Y-91001000D02*
G01*
X122459000Y-91001000D01*
X122459000Y-89399000D01*
X123461000Y-89399000D01*
X123461000Y-91001000D01*
G37*
G36*
X132461000Y-91001000D02*
G01*
X131459000Y-91001000D01*
X131459000Y-89399000D01*
X132461000Y-89399000D01*
X132461000Y-91001000D01*
G37*
G36*
X121961000Y-91001000D02*
G01*
X120959000Y-91001000D01*
X120959000Y-89399000D01*
X121961000Y-89399000D01*
X121961000Y-91001000D01*
G37*
G36*
X124961000Y-91001000D02*
G01*
X123959000Y-91001000D01*
X123959000Y-89399000D01*
X124961000Y-89399000D01*
X124961000Y-91001000D01*
G37*
G36*
X118961000Y-91001000D02*
G01*
X117959000Y-91001000D01*
X117959000Y-89399000D01*
X118961000Y-89399000D01*
X118961000Y-91001000D01*
G37*
G36*
X138461000Y-91001000D02*
G01*
X137459000Y-91001000D01*
X137459000Y-89399000D01*
X138461000Y-89399000D01*
X138461000Y-91001000D01*
G37*
G36*
X133961000Y-91001000D02*
G01*
X132959000Y-91001000D01*
X132959000Y-89399000D01*
X133961000Y-89399000D01*
X133961000Y-91001000D01*
G37*
G36*
X139961000Y-91001000D02*
G01*
X138959000Y-91001000D01*
X138959000Y-89399000D01*
X139961000Y-89399000D01*
X139961000Y-91001000D01*
G37*
G36*
X130961000Y-91001000D02*
G01*
X129959000Y-91001000D01*
X129959000Y-89399000D01*
X130961000Y-89399000D01*
X130961000Y-91001000D01*
G37*
G36*
X126461000Y-91001000D02*
G01*
X125459000Y-91001000D01*
X125459000Y-89399000D01*
X126461000Y-89399000D01*
X126461000Y-91001000D01*
G37*
G36*
X136961000Y-91001000D02*
G01*
X135959000Y-91001000D01*
X135959000Y-89399000D01*
X136961000Y-89399000D01*
X136961000Y-91001000D01*
G37*
G36*
X120461000Y-91001000D02*
G01*
X119459000Y-91001000D01*
X119459000Y-89399000D01*
X120461000Y-89399000D01*
X120461000Y-91001000D01*
G37*
G36*
X129461000Y-91001000D02*
G01*
X128459000Y-91001000D01*
X128459000Y-89399000D01*
X129461000Y-89399000D01*
X129461000Y-91001000D01*
G37*
G36*
X141461000Y-91001000D02*
G01*
X140459000Y-91001000D01*
X140459000Y-89399000D01*
X141461000Y-89399000D01*
X141461000Y-91001000D01*
G37*
G36*
X169494468Y-89206565D02*
G01*
X169533138Y-89218296D01*
X169568777Y-89237346D01*
X169600017Y-89262983D01*
X169625654Y-89294223D01*
X169644704Y-89329862D01*
X169656435Y-89368532D01*
X169661000Y-89414888D01*
X169661000Y-90066112D01*
X169656435Y-90112468D01*
X169644704Y-90151138D01*
X169625654Y-90186777D01*
X169600017Y-90218017D01*
X169568777Y-90243654D01*
X169533138Y-90262704D01*
X169494468Y-90274435D01*
X169448112Y-90279000D01*
X168371888Y-90279000D01*
X168325532Y-90274435D01*
X168286862Y-90262704D01*
X168251223Y-90243654D01*
X168219983Y-90218017D01*
X168194346Y-90186777D01*
X168175296Y-90151138D01*
X168163565Y-90112468D01*
X168159000Y-90066112D01*
X168159000Y-89414888D01*
X168163565Y-89368532D01*
X168175296Y-89329862D01*
X168194346Y-89294223D01*
X168219983Y-89262983D01*
X168251223Y-89237346D01*
X168286862Y-89218296D01*
X168325532Y-89206565D01*
X168371888Y-89202000D01*
X169448112Y-89202000D01*
X169494468Y-89206565D01*
G37*
G36*
X132193512Y-85463927D02*
G01*
X132342812Y-85493624D01*
X132506784Y-85561544D01*
X132654354Y-85660147D01*
X132779853Y-85785646D01*
X132878456Y-85933216D01*
X132946376Y-86097188D01*
X132981000Y-86271259D01*
X132981000Y-86448741D01*
X132946376Y-86622812D01*
X132878456Y-86786784D01*
X132779853Y-86934354D01*
X132654354Y-87059853D01*
X132506784Y-87158456D01*
X132342812Y-87226376D01*
X132193512Y-87256073D01*
X132168742Y-87261000D01*
X131991258Y-87261000D01*
X131966488Y-87256073D01*
X131817188Y-87226376D01*
X131653216Y-87158456D01*
X131505646Y-87059853D01*
X131380147Y-86934354D01*
X131281544Y-86786784D01*
X131213624Y-86622812D01*
X131179000Y-86448741D01*
X131179000Y-86271259D01*
X131213624Y-86097188D01*
X131281544Y-85933216D01*
X131380147Y-85785646D01*
X131505646Y-85660147D01*
X131653216Y-85561544D01*
X131817188Y-85493624D01*
X131966488Y-85463927D01*
X131991258Y-85459000D01*
X132168742Y-85459000D01*
X132193512Y-85463927D01*
G37*
G36*
X134733512Y-85463927D02*
G01*
X134882812Y-85493624D01*
X135046784Y-85561544D01*
X135194354Y-85660147D01*
X135319853Y-85785646D01*
X135418456Y-85933216D01*
X135486376Y-86097188D01*
X135521000Y-86271259D01*
X135521000Y-86448741D01*
X135486376Y-86622812D01*
X135418456Y-86786784D01*
X135319853Y-86934354D01*
X135194354Y-87059853D01*
X135046784Y-87158456D01*
X134882812Y-87226376D01*
X134733512Y-87256073D01*
X134708742Y-87261000D01*
X134531258Y-87261000D01*
X134506488Y-87256073D01*
X134357188Y-87226376D01*
X134193216Y-87158456D01*
X134045646Y-87059853D01*
X133920147Y-86934354D01*
X133821544Y-86786784D01*
X133753624Y-86622812D01*
X133719000Y-86448741D01*
X133719000Y-86271259D01*
X133753624Y-86097188D01*
X133821544Y-85933216D01*
X133920147Y-85785646D01*
X134045646Y-85660147D01*
X134193216Y-85561544D01*
X134357188Y-85493624D01*
X134506488Y-85463927D01*
X134531258Y-85459000D01*
X134708742Y-85459000D01*
X134733512Y-85463927D01*
G37*
G36*
X137273512Y-85463927D02*
G01*
X137422812Y-85493624D01*
X137586784Y-85561544D01*
X137734354Y-85660147D01*
X137859853Y-85785646D01*
X137958456Y-85933216D01*
X138026376Y-86097188D01*
X138061000Y-86271259D01*
X138061000Y-86448741D01*
X138026376Y-86622812D01*
X137958456Y-86786784D01*
X137859853Y-86934354D01*
X137734354Y-87059853D01*
X137586784Y-87158456D01*
X137422812Y-87226376D01*
X137273512Y-87256073D01*
X137248742Y-87261000D01*
X137071258Y-87261000D01*
X137046488Y-87256073D01*
X136897188Y-87226376D01*
X136733216Y-87158456D01*
X136585646Y-87059853D01*
X136460147Y-86934354D01*
X136361544Y-86786784D01*
X136293624Y-86622812D01*
X136259000Y-86448741D01*
X136259000Y-86271259D01*
X136293624Y-86097188D01*
X136361544Y-85933216D01*
X136460147Y-85785646D01*
X136585646Y-85660147D01*
X136733216Y-85561544D01*
X136897188Y-85493624D01*
X137046488Y-85463927D01*
X137071258Y-85459000D01*
X137248742Y-85459000D01*
X137273512Y-85463927D01*
G37*
G36*
X139813512Y-85463927D02*
G01*
X139962812Y-85493624D01*
X140126784Y-85561544D01*
X140274354Y-85660147D01*
X140399853Y-85785646D01*
X140498456Y-85933216D01*
X140566376Y-86097188D01*
X140601000Y-86271259D01*
X140601000Y-86448741D01*
X140566376Y-86622812D01*
X140498456Y-86786784D01*
X140399853Y-86934354D01*
X140274354Y-87059853D01*
X140126784Y-87158456D01*
X139962812Y-87226376D01*
X139813512Y-87256073D01*
X139788742Y-87261000D01*
X139611258Y-87261000D01*
X139586488Y-87256073D01*
X139437188Y-87226376D01*
X139273216Y-87158456D01*
X139125646Y-87059853D01*
X139000147Y-86934354D01*
X138901544Y-86786784D01*
X138833624Y-86622812D01*
X138799000Y-86448741D01*
X138799000Y-86271259D01*
X138833624Y-86097188D01*
X138901544Y-85933216D01*
X139000147Y-85785646D01*
X139125646Y-85660147D01*
X139273216Y-85561544D01*
X139437188Y-85493624D01*
X139586488Y-85463927D01*
X139611258Y-85459000D01*
X139788742Y-85459000D01*
X139813512Y-85463927D01*
G37*
G36*
X142353512Y-85463927D02*
G01*
X142502812Y-85493624D01*
X142666784Y-85561544D01*
X142814354Y-85660147D01*
X142939853Y-85785646D01*
X143038456Y-85933216D01*
X143106376Y-86097188D01*
X143141000Y-86271259D01*
X143141000Y-86448741D01*
X143106376Y-86622812D01*
X143038456Y-86786784D01*
X142939853Y-86934354D01*
X142814354Y-87059853D01*
X142666784Y-87158456D01*
X142502812Y-87226376D01*
X142353512Y-87256073D01*
X142328742Y-87261000D01*
X142151258Y-87261000D01*
X142126488Y-87256073D01*
X141977188Y-87226376D01*
X141813216Y-87158456D01*
X141665646Y-87059853D01*
X141540147Y-86934354D01*
X141441544Y-86786784D01*
X141373624Y-86622812D01*
X141339000Y-86448741D01*
X141339000Y-86271259D01*
X141373624Y-86097188D01*
X141441544Y-85933216D01*
X141540147Y-85785646D01*
X141665646Y-85660147D01*
X141813216Y-85561544D01*
X141977188Y-85493624D01*
X142126488Y-85463927D01*
X142151258Y-85459000D01*
X142328742Y-85459000D01*
X142353512Y-85463927D01*
G37*
G36*
X144893512Y-85463927D02*
G01*
X145042812Y-85493624D01*
X145206784Y-85561544D01*
X145354354Y-85660147D01*
X145479853Y-85785646D01*
X145578456Y-85933216D01*
X145646376Y-86097188D01*
X145681000Y-86271259D01*
X145681000Y-86448741D01*
X145646376Y-86622812D01*
X145578456Y-86786784D01*
X145479853Y-86934354D01*
X145354354Y-87059853D01*
X145206784Y-87158456D01*
X145042812Y-87226376D01*
X144893512Y-87256073D01*
X144868742Y-87261000D01*
X144691258Y-87261000D01*
X144666488Y-87256073D01*
X144517188Y-87226376D01*
X144353216Y-87158456D01*
X144205646Y-87059853D01*
X144080147Y-86934354D01*
X143981544Y-86786784D01*
X143913624Y-86622812D01*
X143879000Y-86448741D01*
X143879000Y-86271259D01*
X143913624Y-86097188D01*
X143981544Y-85933216D01*
X144080147Y-85785646D01*
X144205646Y-85660147D01*
X144353216Y-85561544D01*
X144517188Y-85493624D01*
X144666488Y-85463927D01*
X144691258Y-85459000D01*
X144868742Y-85459000D01*
X144893512Y-85463927D01*
G37*
G36*
X147433512Y-85463927D02*
G01*
X147582812Y-85493624D01*
X147746784Y-85561544D01*
X147894354Y-85660147D01*
X148019853Y-85785646D01*
X148118456Y-85933216D01*
X148186376Y-86097188D01*
X148221000Y-86271259D01*
X148221000Y-86448741D01*
X148186376Y-86622812D01*
X148118456Y-86786784D01*
X148019853Y-86934354D01*
X147894354Y-87059853D01*
X147746784Y-87158456D01*
X147582812Y-87226376D01*
X147433512Y-87256073D01*
X147408742Y-87261000D01*
X147231258Y-87261000D01*
X147206488Y-87256073D01*
X147057188Y-87226376D01*
X146893216Y-87158456D01*
X146745646Y-87059853D01*
X146620147Y-86934354D01*
X146521544Y-86786784D01*
X146453624Y-86622812D01*
X146419000Y-86448741D01*
X146419000Y-86271259D01*
X146453624Y-86097188D01*
X146521544Y-85933216D01*
X146620147Y-85785646D01*
X146745646Y-85660147D01*
X146893216Y-85561544D01*
X147057188Y-85493624D01*
X147206488Y-85463927D01*
X147231258Y-85459000D01*
X147408742Y-85459000D01*
X147433512Y-85463927D01*
G37*
G36*
X149973512Y-85463927D02*
G01*
X150122812Y-85493624D01*
X150286784Y-85561544D01*
X150434354Y-85660147D01*
X150559853Y-85785646D01*
X150658456Y-85933216D01*
X150726376Y-86097188D01*
X150761000Y-86271259D01*
X150761000Y-86448741D01*
X150726376Y-86622812D01*
X150658456Y-86786784D01*
X150559853Y-86934354D01*
X150434354Y-87059853D01*
X150286784Y-87158456D01*
X150122812Y-87226376D01*
X149973512Y-87256073D01*
X149948742Y-87261000D01*
X149771258Y-87261000D01*
X149746488Y-87256073D01*
X149597188Y-87226376D01*
X149433216Y-87158456D01*
X149285646Y-87059853D01*
X149160147Y-86934354D01*
X149061544Y-86786784D01*
X148993624Y-86622812D01*
X148959000Y-86448741D01*
X148959000Y-86271259D01*
X148993624Y-86097188D01*
X149061544Y-85933216D01*
X149160147Y-85785646D01*
X149285646Y-85660147D01*
X149433216Y-85561544D01*
X149597188Y-85493624D01*
X149746488Y-85463927D01*
X149771258Y-85459000D01*
X149948742Y-85459000D01*
X149973512Y-85463927D01*
G37*
G36*
X152513512Y-85463927D02*
G01*
X152662812Y-85493624D01*
X152826784Y-85561544D01*
X152974354Y-85660147D01*
X153099853Y-85785646D01*
X153198456Y-85933216D01*
X153266376Y-86097188D01*
X153301000Y-86271259D01*
X153301000Y-86448741D01*
X153266376Y-86622812D01*
X153198456Y-86786784D01*
X153099853Y-86934354D01*
X152974354Y-87059853D01*
X152826784Y-87158456D01*
X152662812Y-87226376D01*
X152513512Y-87256073D01*
X152488742Y-87261000D01*
X152311258Y-87261000D01*
X152286488Y-87256073D01*
X152137188Y-87226376D01*
X151973216Y-87158456D01*
X151825646Y-87059853D01*
X151700147Y-86934354D01*
X151601544Y-86786784D01*
X151533624Y-86622812D01*
X151499000Y-86448741D01*
X151499000Y-86271259D01*
X151533624Y-86097188D01*
X151601544Y-85933216D01*
X151700147Y-85785646D01*
X151825646Y-85660147D01*
X151973216Y-85561544D01*
X152137188Y-85493624D01*
X152286488Y-85463927D01*
X152311258Y-85459000D01*
X152488742Y-85459000D01*
X152513512Y-85463927D01*
G37*
G36*
X155053512Y-85463927D02*
G01*
X155202812Y-85493624D01*
X155366784Y-85561544D01*
X155514354Y-85660147D01*
X155639853Y-85785646D01*
X155738456Y-85933216D01*
X155806376Y-86097188D01*
X155841000Y-86271259D01*
X155841000Y-86448741D01*
X155806376Y-86622812D01*
X155738456Y-86786784D01*
X155639853Y-86934354D01*
X155514354Y-87059853D01*
X155366784Y-87158456D01*
X155202812Y-87226376D01*
X155053512Y-87256073D01*
X155028742Y-87261000D01*
X154851258Y-87261000D01*
X154826488Y-87256073D01*
X154677188Y-87226376D01*
X154513216Y-87158456D01*
X154365646Y-87059853D01*
X154240147Y-86934354D01*
X154141544Y-86786784D01*
X154073624Y-86622812D01*
X154039000Y-86448741D01*
X154039000Y-86271259D01*
X154073624Y-86097188D01*
X154141544Y-85933216D01*
X154240147Y-85785646D01*
X154365646Y-85660147D01*
X154513216Y-85561544D01*
X154677188Y-85493624D01*
X154826488Y-85463927D01*
X154851258Y-85459000D01*
X155028742Y-85459000D01*
X155053512Y-85463927D01*
G37*
G36*
X157593512Y-85463927D02*
G01*
X157742812Y-85493624D01*
X157906784Y-85561544D01*
X158054354Y-85660147D01*
X158179853Y-85785646D01*
X158278456Y-85933216D01*
X158346376Y-86097188D01*
X158381000Y-86271259D01*
X158381000Y-86448741D01*
X158346376Y-86622812D01*
X158278456Y-86786784D01*
X158179853Y-86934354D01*
X158054354Y-87059853D01*
X157906784Y-87158456D01*
X157742812Y-87226376D01*
X157593512Y-87256073D01*
X157568742Y-87261000D01*
X157391258Y-87261000D01*
X157366488Y-87256073D01*
X157217188Y-87226376D01*
X157053216Y-87158456D01*
X156905646Y-87059853D01*
X156780147Y-86934354D01*
X156681544Y-86786784D01*
X156613624Y-86622812D01*
X156579000Y-86448741D01*
X156579000Y-86271259D01*
X156613624Y-86097188D01*
X156681544Y-85933216D01*
X156780147Y-85785646D01*
X156905646Y-85660147D01*
X157053216Y-85561544D01*
X157217188Y-85493624D01*
X157366488Y-85463927D01*
X157391258Y-85459000D01*
X157568742Y-85459000D01*
X157593512Y-85463927D01*
G37*
G36*
X127113512Y-85463927D02*
G01*
X127262812Y-85493624D01*
X127426784Y-85561544D01*
X127574354Y-85660147D01*
X127699853Y-85785646D01*
X127798456Y-85933216D01*
X127866376Y-86097188D01*
X127901000Y-86271259D01*
X127901000Y-86448741D01*
X127866376Y-86622812D01*
X127798456Y-86786784D01*
X127699853Y-86934354D01*
X127574354Y-87059853D01*
X127426784Y-87158456D01*
X127262812Y-87226376D01*
X127113512Y-87256073D01*
X127088742Y-87261000D01*
X126911258Y-87261000D01*
X126886488Y-87256073D01*
X126737188Y-87226376D01*
X126573216Y-87158456D01*
X126425646Y-87059853D01*
X126300147Y-86934354D01*
X126201544Y-86786784D01*
X126133624Y-86622812D01*
X126099000Y-86448741D01*
X126099000Y-86271259D01*
X126133624Y-86097188D01*
X126201544Y-85933216D01*
X126300147Y-85785646D01*
X126425646Y-85660147D01*
X126573216Y-85561544D01*
X126737188Y-85493624D01*
X126886488Y-85463927D01*
X126911258Y-85459000D01*
X127088742Y-85459000D01*
X127113512Y-85463927D01*
G37*
G36*
X124573512Y-85463927D02*
G01*
X124722812Y-85493624D01*
X124886784Y-85561544D01*
X125034354Y-85660147D01*
X125159853Y-85785646D01*
X125258456Y-85933216D01*
X125326376Y-86097188D01*
X125361000Y-86271259D01*
X125361000Y-86448741D01*
X125326376Y-86622812D01*
X125258456Y-86786784D01*
X125159853Y-86934354D01*
X125034354Y-87059853D01*
X124886784Y-87158456D01*
X124722812Y-87226376D01*
X124573512Y-87256073D01*
X124548742Y-87261000D01*
X124371258Y-87261000D01*
X124346488Y-87256073D01*
X124197188Y-87226376D01*
X124033216Y-87158456D01*
X123885646Y-87059853D01*
X123760147Y-86934354D01*
X123661544Y-86786784D01*
X123593624Y-86622812D01*
X123559000Y-86448741D01*
X123559000Y-86271259D01*
X123593624Y-86097188D01*
X123661544Y-85933216D01*
X123760147Y-85785646D01*
X123885646Y-85660147D01*
X124033216Y-85561544D01*
X124197188Y-85493624D01*
X124346488Y-85463927D01*
X124371258Y-85459000D01*
X124548742Y-85459000D01*
X124573512Y-85463927D01*
G37*
G36*
X122033512Y-85463927D02*
G01*
X122182812Y-85493624D01*
X122346784Y-85561544D01*
X122494354Y-85660147D01*
X122619853Y-85785646D01*
X122718456Y-85933216D01*
X122786376Y-86097188D01*
X122821000Y-86271259D01*
X122821000Y-86448741D01*
X122786376Y-86622812D01*
X122718456Y-86786784D01*
X122619853Y-86934354D01*
X122494354Y-87059853D01*
X122346784Y-87158456D01*
X122182812Y-87226376D01*
X122033512Y-87256073D01*
X122008742Y-87261000D01*
X121831258Y-87261000D01*
X121806488Y-87256073D01*
X121657188Y-87226376D01*
X121493216Y-87158456D01*
X121345646Y-87059853D01*
X121220147Y-86934354D01*
X121121544Y-86786784D01*
X121053624Y-86622812D01*
X121019000Y-86448741D01*
X121019000Y-86271259D01*
X121053624Y-86097188D01*
X121121544Y-85933216D01*
X121220147Y-85785646D01*
X121345646Y-85660147D01*
X121493216Y-85561544D01*
X121657188Y-85493624D01*
X121806488Y-85463927D01*
X121831258Y-85459000D01*
X122008742Y-85459000D01*
X122033512Y-85463927D01*
G37*
G36*
X120281000Y-87261000D02*
G01*
X118479000Y-87261000D01*
X118479000Y-85459000D01*
X120281000Y-85459000D01*
X120281000Y-87261000D01*
G37*
G36*
X160133512Y-85463927D02*
G01*
X160282812Y-85493624D01*
X160446784Y-85561544D01*
X160594354Y-85660147D01*
X160719853Y-85785646D01*
X160818456Y-85933216D01*
X160886376Y-86097188D01*
X160921000Y-86271259D01*
X160921000Y-86448741D01*
X160886376Y-86622812D01*
X160818456Y-86786784D01*
X160719853Y-86934354D01*
X160594354Y-87059853D01*
X160446784Y-87158456D01*
X160282812Y-87226376D01*
X160133512Y-87256073D01*
X160108742Y-87261000D01*
X159931258Y-87261000D01*
X159906488Y-87256073D01*
X159757188Y-87226376D01*
X159593216Y-87158456D01*
X159445646Y-87059853D01*
X159320147Y-86934354D01*
X159221544Y-86786784D01*
X159153624Y-86622812D01*
X159119000Y-86448741D01*
X159119000Y-86271259D01*
X159153624Y-86097188D01*
X159221544Y-85933216D01*
X159320147Y-85785646D01*
X159445646Y-85660147D01*
X159593216Y-85561544D01*
X159757188Y-85493624D01*
X159906488Y-85463927D01*
X159931258Y-85459000D01*
X160108742Y-85459000D01*
X160133512Y-85463927D01*
G37*
G36*
X162673512Y-85463927D02*
G01*
X162822812Y-85493624D01*
X162986784Y-85561544D01*
X163134354Y-85660147D01*
X163259853Y-85785646D01*
X163358456Y-85933216D01*
X163426376Y-86097188D01*
X163461000Y-86271259D01*
X163461000Y-86448741D01*
X163426376Y-86622812D01*
X163358456Y-86786784D01*
X163259853Y-86934354D01*
X163134354Y-87059853D01*
X162986784Y-87158456D01*
X162822812Y-87226376D01*
X162673512Y-87256073D01*
X162648742Y-87261000D01*
X162471258Y-87261000D01*
X162446488Y-87256073D01*
X162297188Y-87226376D01*
X162133216Y-87158456D01*
X161985646Y-87059853D01*
X161860147Y-86934354D01*
X161761544Y-86786784D01*
X161693624Y-86622812D01*
X161659000Y-86448741D01*
X161659000Y-86271259D01*
X161693624Y-86097188D01*
X161761544Y-85933216D01*
X161860147Y-85785646D01*
X161985646Y-85660147D01*
X162133216Y-85561544D01*
X162297188Y-85493624D01*
X162446488Y-85463927D01*
X162471258Y-85459000D01*
X162648742Y-85459000D01*
X162673512Y-85463927D01*
G37*
G36*
X165213512Y-85463927D02*
G01*
X165362812Y-85493624D01*
X165526784Y-85561544D01*
X165674354Y-85660147D01*
X165799853Y-85785646D01*
X165898456Y-85933216D01*
X165966376Y-86097188D01*
X166001000Y-86271259D01*
X166001000Y-86448741D01*
X165966376Y-86622812D01*
X165898456Y-86786784D01*
X165799853Y-86934354D01*
X165674354Y-87059853D01*
X165526784Y-87158456D01*
X165362812Y-87226376D01*
X165213512Y-87256073D01*
X165188742Y-87261000D01*
X165011258Y-87261000D01*
X164986488Y-87256073D01*
X164837188Y-87226376D01*
X164673216Y-87158456D01*
X164525646Y-87059853D01*
X164400147Y-86934354D01*
X164301544Y-86786784D01*
X164233624Y-86622812D01*
X164199000Y-86448741D01*
X164199000Y-86271259D01*
X164233624Y-86097188D01*
X164301544Y-85933216D01*
X164400147Y-85785646D01*
X164525646Y-85660147D01*
X164673216Y-85561544D01*
X164837188Y-85493624D01*
X164986488Y-85463927D01*
X165011258Y-85459000D01*
X165188742Y-85459000D01*
X165213512Y-85463927D01*
G37*
G36*
X167753512Y-85463927D02*
G01*
X167902812Y-85493624D01*
X168066784Y-85561544D01*
X168214354Y-85660147D01*
X168339853Y-85785646D01*
X168438456Y-85933216D01*
X168506376Y-86097188D01*
X168541000Y-86271259D01*
X168541000Y-86448741D01*
X168506376Y-86622812D01*
X168438456Y-86786784D01*
X168339853Y-86934354D01*
X168214354Y-87059853D01*
X168066784Y-87158456D01*
X167902812Y-87226376D01*
X167753512Y-87256073D01*
X167728742Y-87261000D01*
X167551258Y-87261000D01*
X167526488Y-87256073D01*
X167377188Y-87226376D01*
X167213216Y-87158456D01*
X167065646Y-87059853D01*
X166940147Y-86934354D01*
X166841544Y-86786784D01*
X166773624Y-86622812D01*
X166739000Y-86448741D01*
X166739000Y-86271259D01*
X166773624Y-86097188D01*
X166841544Y-85933216D01*
X166940147Y-85785646D01*
X167065646Y-85660147D01*
X167213216Y-85561544D01*
X167377188Y-85493624D01*
X167526488Y-85463927D01*
X167551258Y-85459000D01*
X167728742Y-85459000D01*
X167753512Y-85463927D01*
G37*
G36*
X172833512Y-85463927D02*
G01*
X172982812Y-85493624D01*
X173146784Y-85561544D01*
X173294354Y-85660147D01*
X173419853Y-85785646D01*
X173518456Y-85933216D01*
X173586376Y-86097188D01*
X173621000Y-86271259D01*
X173621000Y-86448741D01*
X173586376Y-86622812D01*
X173518456Y-86786784D01*
X173419853Y-86934354D01*
X173294354Y-87059853D01*
X173146784Y-87158456D01*
X172982812Y-87226376D01*
X172833512Y-87256073D01*
X172808742Y-87261000D01*
X172631258Y-87261000D01*
X172606488Y-87256073D01*
X172457188Y-87226376D01*
X172293216Y-87158456D01*
X172145646Y-87059853D01*
X172020147Y-86934354D01*
X171921544Y-86786784D01*
X171853624Y-86622812D01*
X171819000Y-86448741D01*
X171819000Y-86271259D01*
X171853624Y-86097188D01*
X171921544Y-85933216D01*
X172020147Y-85785646D01*
X172145646Y-85660147D01*
X172293216Y-85561544D01*
X172457188Y-85493624D01*
X172606488Y-85463927D01*
X172631258Y-85459000D01*
X172808742Y-85459000D01*
X172833512Y-85463927D01*
G37*
G36*
X175373512Y-85463927D02*
G01*
X175522812Y-85493624D01*
X175686784Y-85561544D01*
X175834354Y-85660147D01*
X175959853Y-85785646D01*
X176058456Y-85933216D01*
X176126376Y-86097188D01*
X176161000Y-86271259D01*
X176161000Y-86448741D01*
X176126376Y-86622812D01*
X176058456Y-86786784D01*
X175959853Y-86934354D01*
X175834354Y-87059853D01*
X175686784Y-87158456D01*
X175522812Y-87226376D01*
X175373512Y-87256073D01*
X175348742Y-87261000D01*
X175171258Y-87261000D01*
X175146488Y-87256073D01*
X174997188Y-87226376D01*
X174833216Y-87158456D01*
X174685646Y-87059853D01*
X174560147Y-86934354D01*
X174461544Y-86786784D01*
X174393624Y-86622812D01*
X174359000Y-86448741D01*
X174359000Y-86271259D01*
X174393624Y-86097188D01*
X174461544Y-85933216D01*
X174560147Y-85785646D01*
X174685646Y-85660147D01*
X174833216Y-85561544D01*
X174997188Y-85493624D01*
X175146488Y-85463927D01*
X175171258Y-85459000D01*
X175348742Y-85459000D01*
X175373512Y-85463927D01*
G37*
G36*
X129653512Y-85463927D02*
G01*
X129802812Y-85493624D01*
X129966784Y-85561544D01*
X130114354Y-85660147D01*
X130239853Y-85785646D01*
X130338456Y-85933216D01*
X130406376Y-86097188D01*
X130441000Y-86271259D01*
X130441000Y-86448741D01*
X130406376Y-86622812D01*
X130338456Y-86786784D01*
X130239853Y-86934354D01*
X130114354Y-87059853D01*
X129966784Y-87158456D01*
X129802812Y-87226376D01*
X129653512Y-87256073D01*
X129628742Y-87261000D01*
X129451258Y-87261000D01*
X129426488Y-87256073D01*
X129277188Y-87226376D01*
X129113216Y-87158456D01*
X128965646Y-87059853D01*
X128840147Y-86934354D01*
X128741544Y-86786784D01*
X128673624Y-86622812D01*
X128639000Y-86448741D01*
X128639000Y-86271259D01*
X128673624Y-86097188D01*
X128741544Y-85933216D01*
X128840147Y-85785646D01*
X128965646Y-85660147D01*
X129113216Y-85561544D01*
X129277188Y-85493624D01*
X129426488Y-85463927D01*
X129451258Y-85459000D01*
X129628742Y-85459000D01*
X129653512Y-85463927D01*
G37*
G36*
X170293512Y-85463927D02*
G01*
X170442812Y-85493624D01*
X170606784Y-85561544D01*
X170754354Y-85660147D01*
X170879853Y-85785646D01*
X170978456Y-85933216D01*
X171046376Y-86097188D01*
X171081000Y-86271259D01*
X171081000Y-86448741D01*
X171046376Y-86622812D01*
X170978456Y-86786784D01*
X170879853Y-86934354D01*
X170754354Y-87059853D01*
X170606784Y-87158456D01*
X170442812Y-87226376D01*
X170293512Y-87256073D01*
X170268742Y-87261000D01*
X170091258Y-87261000D01*
X170066488Y-87256073D01*
X169917188Y-87226376D01*
X169753216Y-87158456D01*
X169605646Y-87059853D01*
X169480147Y-86934354D01*
X169381544Y-86786784D01*
X169313624Y-86622812D01*
X169279000Y-86448741D01*
X169279000Y-86271259D01*
X169313624Y-86097188D01*
X169381544Y-85933216D01*
X169480147Y-85785646D01*
X169605646Y-85660147D01*
X169753216Y-85561544D01*
X169917188Y-85493624D01*
X170066488Y-85463927D01*
X170091258Y-85459000D01*
X170268742Y-85459000D01*
X170293512Y-85463927D01*
G37*
M02*
