G04 #@! TF.GenerationSoftware,KiCad,Pcbnew,(5.1.5)-3*
G04 #@! TF.CreationDate,2020-03-16T14:14:39+10:00*
G04 #@! TF.ProjectId,ESP32-S2-Breakout,45535033-322d-4533-922d-427265616b6f,rev?*
G04 #@! TF.SameCoordinates,Original*
G04 #@! TF.FileFunction,Copper,L2,Bot*
G04 #@! TF.FilePolarity,Positive*
%FSLAX46Y46*%
G04 Gerber Fmt 4.6, Leading zero omitted, Abs format (unit mm)*
G04 Created by KiCad (PCBNEW (5.1.5)-3) date 2020-03-16 14:14:39*
%MOMM*%
%LPD*%
G04 APERTURE LIST*
%ADD10C,0.700000*%
%ADD11C,4.400000*%
%ADD12O,1.700000X1.700000*%
%ADD13R,1.700000X1.700000*%
%ADD14O,1.900000X1.200000*%
%ADD15C,1.450000*%
%ADD16C,0.600000*%
%ADD17C,0.203200*%
%ADD18C,0.304800*%
%ADD19C,0.254000*%
G04 APERTURE END LIST*
D10*
X167997274Y-90527274D03*
X167514000Y-91694000D03*
X167997274Y-92860726D03*
X169164000Y-93344000D03*
X170330726Y-92860726D03*
X170814000Y-91694000D03*
X170330726Y-90527274D03*
X169164000Y-90044000D03*
D11*
X169164000Y-91694000D03*
D10*
X167997274Y-105259274D03*
X167514000Y-106426000D03*
X167997274Y-107592726D03*
X169164000Y-108076000D03*
X170330726Y-107592726D03*
X170814000Y-106426000D03*
X170330726Y-105259274D03*
X169164000Y-104776000D03*
D11*
X169164000Y-106426000D03*
D12*
X170180000Y-86360000D03*
X167640000Y-86360000D03*
X165100000Y-86360000D03*
X162560000Y-86360000D03*
X160020000Y-86360000D03*
X157480000Y-86360000D03*
X154940000Y-86360000D03*
X152400000Y-86360000D03*
X149860000Y-86360000D03*
X147320000Y-86360000D03*
X144780000Y-86360000D03*
X142240000Y-86360000D03*
X139700000Y-86360000D03*
X137160000Y-86360000D03*
X134620000Y-86360000D03*
X132080000Y-86360000D03*
X129540000Y-86360000D03*
X127000000Y-86360000D03*
X124460000Y-86360000D03*
X121920000Y-86360000D03*
D13*
X119380000Y-86360000D03*
D12*
X170180000Y-111760000D03*
X167640000Y-111760000D03*
X165100000Y-111760000D03*
X162560000Y-111760000D03*
X160020000Y-111760000D03*
X157480000Y-111760000D03*
X154940000Y-111760000D03*
X152400000Y-111760000D03*
X149860000Y-111760000D03*
X147320000Y-111760000D03*
X144780000Y-111760000D03*
X142240000Y-111760000D03*
X139700000Y-111760000D03*
X137160000Y-111760000D03*
X134620000Y-111760000D03*
X132080000Y-111760000D03*
X129540000Y-111760000D03*
X127000000Y-111760000D03*
X124460000Y-111760000D03*
X121920000Y-111760000D03*
D13*
X119380000Y-111760000D03*
D14*
X171163500Y-95560000D03*
X171163500Y-102560000D03*
D15*
X168463500Y-96560000D03*
X168463500Y-101560000D03*
D16*
X122936000Y-105664000D03*
X122936000Y-103632000D03*
X147574000Y-98298000D03*
X140208000Y-100330000D03*
X143256008Y-92202000D03*
X164338000Y-107061000D03*
X158750000Y-102997000D03*
X153162000Y-103378000D03*
X124968000Y-102870000D03*
X124968000Y-97282000D03*
X126492000Y-102870000D03*
X126492000Y-97282000D03*
X128016000Y-102870000D03*
X128016000Y-97282000D03*
X156464000Y-97028000D03*
X156464000Y-91186000D03*
X149352000Y-90678000D03*
X147828000Y-106680000D03*
X150367996Y-94742000D03*
X123698000Y-100076000D03*
X129540000Y-100076000D03*
X164084000Y-93472000D03*
X166878000Y-97536000D03*
X159766000Y-102362000D03*
X161290000Y-94996000D03*
X165862000Y-106045000D03*
X149352000Y-99314000D03*
X149352000Y-92202000D03*
X121920000Y-93218000D03*
X155829000Y-104140000D03*
X155829000Y-105029000D03*
X155829000Y-105918000D03*
X155829000Y-106807000D03*
X155829000Y-107696000D03*
X136652000Y-106172000D03*
X135128000Y-106172000D03*
X133604000Y-106172000D03*
X132080000Y-106172000D03*
X140208000Y-98044000D03*
X140208000Y-96520000D03*
X133604000Y-91694000D03*
X132080000Y-91694000D03*
X130556000Y-91694000D03*
X129032000Y-91694000D03*
D17*
X147574000Y-98298000D02*
X145542000Y-100330000D01*
X145542000Y-100330000D02*
X140208000Y-100330000D01*
X122936000Y-105664000D02*
X122936000Y-103632000D01*
D18*
X149352000Y-99314000D02*
X149352000Y-92202000D01*
X121920000Y-86360000D02*
X121920000Y-93218000D01*
D17*
X156253264Y-104140000D02*
X155829000Y-104140000D01*
X170180000Y-111760000D02*
X169545000Y-111760000D01*
X169545000Y-111760000D02*
X167513000Y-109728000D01*
X167513000Y-109728000D02*
X162476264Y-109728000D01*
X162476264Y-109728000D02*
X156888264Y-104140000D01*
X156888264Y-104140000D02*
X156253264Y-104140000D01*
X162318452Y-110205188D02*
X157142264Y-105029000D01*
X156253264Y-105029000D02*
X155829000Y-105029000D01*
X157142264Y-105029000D02*
X156253264Y-105029000D01*
X166085188Y-110205188D02*
X162318452Y-110205188D01*
X167640000Y-111760000D02*
X166085188Y-110205188D01*
X162086663Y-110608399D02*
X157396264Y-105918000D01*
X165100000Y-111760000D02*
X163948399Y-110608399D01*
X163948399Y-110608399D02*
X162086663Y-110608399D01*
X156253264Y-105918000D02*
X155829000Y-105918000D01*
X157396264Y-105918000D02*
X156253264Y-105918000D01*
X162560000Y-111760000D02*
X157607000Y-106807000D01*
X157607000Y-106807000D02*
X155829000Y-106807000D01*
X157734000Y-107696000D02*
X155829000Y-107696000D01*
X160020000Y-111760000D02*
X160020000Y-109982000D01*
X160020000Y-109982000D02*
X157734000Y-107696000D01*
X139827000Y-109347000D02*
X147447000Y-109347000D01*
X136652000Y-106172000D02*
X139827000Y-109347000D01*
X147447000Y-109347000D02*
X149860000Y-111760000D01*
X146470001Y-110910001D02*
X147320000Y-111760000D01*
X145310211Y-109750211D02*
X146470001Y-110910001D01*
X138706211Y-109750211D02*
X145310211Y-109750211D01*
X135128000Y-106172000D02*
X138706211Y-109750211D01*
X133604000Y-106172000D02*
X137585422Y-110153422D01*
X143930001Y-110910001D02*
X144780000Y-111760000D01*
X137585422Y-110153422D02*
X143173422Y-110153422D01*
X143173422Y-110153422D02*
X143930001Y-110910001D01*
X136464633Y-110556633D02*
X141036633Y-110556633D01*
X141390001Y-110910001D02*
X142240000Y-111760000D01*
X141036633Y-110556633D02*
X141390001Y-110910001D01*
X132080000Y-106172000D02*
X136464633Y-110556633D01*
X168625189Y-87914811D02*
X169330001Y-87209999D01*
X150337189Y-87914811D02*
X168625189Y-87914811D01*
X169330001Y-87209999D02*
X170180000Y-86360000D01*
X140208000Y-98044000D02*
X150337189Y-87914811D01*
X166488399Y-87511601D02*
X166790001Y-87209999D01*
X166790001Y-87209999D02*
X167640000Y-86360000D01*
X149640663Y-87511601D02*
X166488399Y-87511601D01*
X140632264Y-96520000D02*
X149640663Y-87511601D01*
X140208000Y-96520000D02*
X140632264Y-96520000D01*
X146470001Y-87209999D02*
X147320000Y-86360000D01*
X144907000Y-88773000D02*
X146470001Y-87209999D01*
X136525000Y-88773000D02*
X144907000Y-88773000D01*
X133604000Y-91694000D02*
X136525000Y-88773000D01*
X143930001Y-87209999D02*
X144780000Y-86360000D01*
X142770211Y-88369789D02*
X143930001Y-87209999D01*
X135404211Y-88369789D02*
X142770211Y-88369789D01*
X132080000Y-91694000D02*
X135404211Y-88369789D01*
X140633422Y-87966578D02*
X141390001Y-87209999D01*
X141390001Y-87209999D02*
X142240000Y-86360000D01*
X130556000Y-91694000D02*
X134283422Y-87966578D01*
X134283422Y-87966578D02*
X140633422Y-87966578D01*
X138496633Y-87563367D02*
X138850001Y-87209999D01*
X133162633Y-87563367D02*
X138496633Y-87563367D01*
X129032000Y-91694000D02*
X133162633Y-87563367D01*
X138850001Y-87209999D02*
X139700000Y-86360000D01*
D19*
G36*
X172314001Y-94989054D02*
G01*
X172210528Y-94862972D01*
X172061151Y-94740382D01*
X171890729Y-94649289D01*
X171705810Y-94593195D01*
X171561687Y-94579000D01*
X170765313Y-94579000D01*
X170621190Y-94593195D01*
X170436271Y-94649289D01*
X170265849Y-94740382D01*
X170116472Y-94862972D01*
X169993882Y-95012349D01*
X169902789Y-95182771D01*
X169846695Y-95367690D01*
X169827754Y-95560000D01*
X169846695Y-95752310D01*
X169902789Y-95937229D01*
X169993882Y-96107651D01*
X170116472Y-96257028D01*
X170265849Y-96379618D01*
X170436271Y-96470711D01*
X170621190Y-96526805D01*
X170765313Y-96541000D01*
X171561687Y-96541000D01*
X171705810Y-96526805D01*
X171890729Y-96470711D01*
X172061151Y-96379618D01*
X172210528Y-96257028D01*
X172314001Y-96130946D01*
X172314000Y-101989054D01*
X172210528Y-101862972D01*
X172061151Y-101740382D01*
X171890729Y-101649289D01*
X171705810Y-101593195D01*
X171561687Y-101579000D01*
X170765313Y-101579000D01*
X170621190Y-101593195D01*
X170436271Y-101649289D01*
X170265849Y-101740382D01*
X170116472Y-101862972D01*
X169993882Y-102012349D01*
X169902789Y-102182771D01*
X169846695Y-102367690D01*
X169827754Y-102560000D01*
X169846695Y-102752310D01*
X169902789Y-102937229D01*
X169993882Y-103107651D01*
X170116472Y-103257028D01*
X170265849Y-103379618D01*
X170436271Y-103470711D01*
X170621190Y-103526805D01*
X170765313Y-103541000D01*
X171561687Y-103541000D01*
X171705810Y-103526805D01*
X171890729Y-103470711D01*
X172061151Y-103379618D01*
X172210528Y-103257028D01*
X172314000Y-103130946D01*
X172314000Y-113894000D01*
X117246000Y-113894000D01*
X117246000Y-112610000D01*
X117891928Y-112610000D01*
X117904188Y-112734482D01*
X117940498Y-112854180D01*
X117999463Y-112964494D01*
X118078815Y-113061185D01*
X118175506Y-113140537D01*
X118285820Y-113199502D01*
X118405518Y-113235812D01*
X118530000Y-113248072D01*
X119094250Y-113245000D01*
X119253000Y-113086250D01*
X119253000Y-111887000D01*
X118053750Y-111887000D01*
X117895000Y-112045750D01*
X117891928Y-112610000D01*
X117246000Y-112610000D01*
X117246000Y-110910000D01*
X117891928Y-110910000D01*
X117895000Y-111474250D01*
X118053750Y-111633000D01*
X119253000Y-111633000D01*
X119253000Y-110433750D01*
X119507000Y-110433750D01*
X119507000Y-111633000D01*
X119527000Y-111633000D01*
X119527000Y-111887000D01*
X119507000Y-111887000D01*
X119507000Y-113086250D01*
X119665750Y-113245000D01*
X120230000Y-113248072D01*
X120354482Y-113235812D01*
X120474180Y-113199502D01*
X120584494Y-113140537D01*
X120681185Y-113061185D01*
X120760537Y-112964494D01*
X120819502Y-112854180D01*
X120855812Y-112734482D01*
X120868072Y-112610000D01*
X120866927Y-112399706D01*
X120963820Y-112544717D01*
X121135283Y-112716180D01*
X121336903Y-112850898D01*
X121560931Y-112943693D01*
X121798757Y-112991000D01*
X122041243Y-112991000D01*
X122279069Y-112943693D01*
X122503097Y-112850898D01*
X122704717Y-112716180D01*
X122876180Y-112544717D01*
X123010898Y-112343097D01*
X123103693Y-112119069D01*
X123151000Y-111881243D01*
X123151000Y-111638757D01*
X123229000Y-111638757D01*
X123229000Y-111881243D01*
X123276307Y-112119069D01*
X123369102Y-112343097D01*
X123503820Y-112544717D01*
X123675283Y-112716180D01*
X123876903Y-112850898D01*
X124100931Y-112943693D01*
X124338757Y-112991000D01*
X124581243Y-112991000D01*
X124819069Y-112943693D01*
X125043097Y-112850898D01*
X125244717Y-112716180D01*
X125416180Y-112544717D01*
X125550898Y-112343097D01*
X125643693Y-112119069D01*
X125691000Y-111881243D01*
X125691000Y-111638757D01*
X125769000Y-111638757D01*
X125769000Y-111881243D01*
X125816307Y-112119069D01*
X125909102Y-112343097D01*
X126043820Y-112544717D01*
X126215283Y-112716180D01*
X126416903Y-112850898D01*
X126640931Y-112943693D01*
X126878757Y-112991000D01*
X127121243Y-112991000D01*
X127359069Y-112943693D01*
X127583097Y-112850898D01*
X127784717Y-112716180D01*
X127956180Y-112544717D01*
X128090898Y-112343097D01*
X128183693Y-112119069D01*
X128231000Y-111881243D01*
X128231000Y-111638757D01*
X128309000Y-111638757D01*
X128309000Y-111881243D01*
X128356307Y-112119069D01*
X128449102Y-112343097D01*
X128583820Y-112544717D01*
X128755283Y-112716180D01*
X128956903Y-112850898D01*
X129180931Y-112943693D01*
X129418757Y-112991000D01*
X129661243Y-112991000D01*
X129899069Y-112943693D01*
X130123097Y-112850898D01*
X130324717Y-112716180D01*
X130496180Y-112544717D01*
X130630898Y-112343097D01*
X130723693Y-112119069D01*
X130771000Y-111881243D01*
X130771000Y-111638757D01*
X130849000Y-111638757D01*
X130849000Y-111881243D01*
X130896307Y-112119069D01*
X130989102Y-112343097D01*
X131123820Y-112544717D01*
X131295283Y-112716180D01*
X131496903Y-112850898D01*
X131720931Y-112943693D01*
X131958757Y-112991000D01*
X132201243Y-112991000D01*
X132439069Y-112943693D01*
X132663097Y-112850898D01*
X132864717Y-112716180D01*
X133036180Y-112544717D01*
X133170898Y-112343097D01*
X133263693Y-112119069D01*
X133311000Y-111881243D01*
X133311000Y-111638757D01*
X133389000Y-111638757D01*
X133389000Y-111881243D01*
X133436307Y-112119069D01*
X133529102Y-112343097D01*
X133663820Y-112544717D01*
X133835283Y-112716180D01*
X134036903Y-112850898D01*
X134260931Y-112943693D01*
X134498757Y-112991000D01*
X134741243Y-112991000D01*
X134979069Y-112943693D01*
X135203097Y-112850898D01*
X135404717Y-112716180D01*
X135576180Y-112544717D01*
X135710898Y-112343097D01*
X135803693Y-112119069D01*
X135851000Y-111881243D01*
X135851000Y-111638757D01*
X135803693Y-111400931D01*
X135710898Y-111176903D01*
X135576180Y-110975283D01*
X135404717Y-110803820D01*
X135203097Y-110669102D01*
X134979069Y-110576307D01*
X134741243Y-110529000D01*
X134498757Y-110529000D01*
X134260931Y-110576307D01*
X134036903Y-110669102D01*
X133835283Y-110803820D01*
X133663820Y-110975283D01*
X133529102Y-111176903D01*
X133436307Y-111400931D01*
X133389000Y-111638757D01*
X133311000Y-111638757D01*
X133263693Y-111400931D01*
X133170898Y-111176903D01*
X133036180Y-110975283D01*
X132864717Y-110803820D01*
X132663097Y-110669102D01*
X132439069Y-110576307D01*
X132201243Y-110529000D01*
X131958757Y-110529000D01*
X131720931Y-110576307D01*
X131496903Y-110669102D01*
X131295283Y-110803820D01*
X131123820Y-110975283D01*
X130989102Y-111176903D01*
X130896307Y-111400931D01*
X130849000Y-111638757D01*
X130771000Y-111638757D01*
X130723693Y-111400931D01*
X130630898Y-111176903D01*
X130496180Y-110975283D01*
X130324717Y-110803820D01*
X130123097Y-110669102D01*
X129899069Y-110576307D01*
X129661243Y-110529000D01*
X129418757Y-110529000D01*
X129180931Y-110576307D01*
X128956903Y-110669102D01*
X128755283Y-110803820D01*
X128583820Y-110975283D01*
X128449102Y-111176903D01*
X128356307Y-111400931D01*
X128309000Y-111638757D01*
X128231000Y-111638757D01*
X128183693Y-111400931D01*
X128090898Y-111176903D01*
X127956180Y-110975283D01*
X127784717Y-110803820D01*
X127583097Y-110669102D01*
X127359069Y-110576307D01*
X127121243Y-110529000D01*
X126878757Y-110529000D01*
X126640931Y-110576307D01*
X126416903Y-110669102D01*
X126215283Y-110803820D01*
X126043820Y-110975283D01*
X125909102Y-111176903D01*
X125816307Y-111400931D01*
X125769000Y-111638757D01*
X125691000Y-111638757D01*
X125643693Y-111400931D01*
X125550898Y-111176903D01*
X125416180Y-110975283D01*
X125244717Y-110803820D01*
X125043097Y-110669102D01*
X124819069Y-110576307D01*
X124581243Y-110529000D01*
X124338757Y-110529000D01*
X124100931Y-110576307D01*
X123876903Y-110669102D01*
X123675283Y-110803820D01*
X123503820Y-110975283D01*
X123369102Y-111176903D01*
X123276307Y-111400931D01*
X123229000Y-111638757D01*
X123151000Y-111638757D01*
X123103693Y-111400931D01*
X123010898Y-111176903D01*
X122876180Y-110975283D01*
X122704717Y-110803820D01*
X122503097Y-110669102D01*
X122279069Y-110576307D01*
X122041243Y-110529000D01*
X121798757Y-110529000D01*
X121560931Y-110576307D01*
X121336903Y-110669102D01*
X121135283Y-110803820D01*
X120963820Y-110975283D01*
X120866927Y-111120294D01*
X120868072Y-110910000D01*
X120855812Y-110785518D01*
X120819502Y-110665820D01*
X120760537Y-110555506D01*
X120681185Y-110458815D01*
X120584494Y-110379463D01*
X120474180Y-110320498D01*
X120354482Y-110284188D01*
X120230000Y-110271928D01*
X119665750Y-110275000D01*
X119507000Y-110433750D01*
X119253000Y-110433750D01*
X119094250Y-110275000D01*
X118530000Y-110271928D01*
X118405518Y-110284188D01*
X118285820Y-110320498D01*
X118175506Y-110379463D01*
X118078815Y-110458815D01*
X117999463Y-110555506D01*
X117940498Y-110665820D01*
X117904188Y-110785518D01*
X117891928Y-110910000D01*
X117246000Y-110910000D01*
X117246000Y-103564927D01*
X122255000Y-103564927D01*
X122255000Y-103699073D01*
X122281171Y-103830640D01*
X122332506Y-103954574D01*
X122407033Y-104066112D01*
X122453401Y-104112480D01*
X122453400Y-105183521D01*
X122407033Y-105229888D01*
X122332506Y-105341426D01*
X122281171Y-105465360D01*
X122255000Y-105596927D01*
X122255000Y-105731073D01*
X122281171Y-105862640D01*
X122332506Y-105986574D01*
X122407033Y-106098112D01*
X122501888Y-106192967D01*
X122613426Y-106267494D01*
X122737360Y-106318829D01*
X122868927Y-106345000D01*
X123003073Y-106345000D01*
X123134640Y-106318829D01*
X123258574Y-106267494D01*
X123370112Y-106192967D01*
X123458152Y-106104927D01*
X131399000Y-106104927D01*
X131399000Y-106239073D01*
X131425171Y-106370640D01*
X131476506Y-106494574D01*
X131551033Y-106606112D01*
X131645888Y-106700967D01*
X131757426Y-106775494D01*
X131881360Y-106826829D01*
X132012927Y-106853000D01*
X132078501Y-106853000D01*
X136106616Y-110881115D01*
X136121732Y-110899534D01*
X136195218Y-110959842D01*
X136210886Y-110968217D01*
X136203820Y-110975283D01*
X136069102Y-111176903D01*
X135976307Y-111400931D01*
X135929000Y-111638757D01*
X135929000Y-111881243D01*
X135976307Y-112119069D01*
X136069102Y-112343097D01*
X136203820Y-112544717D01*
X136375283Y-112716180D01*
X136576903Y-112850898D01*
X136800931Y-112943693D01*
X137038757Y-112991000D01*
X137281243Y-112991000D01*
X137519069Y-112943693D01*
X137743097Y-112850898D01*
X137944717Y-112716180D01*
X138116180Y-112544717D01*
X138250898Y-112343097D01*
X138343693Y-112119069D01*
X138391000Y-111881243D01*
X138391000Y-111638757D01*
X138343693Y-111400931D01*
X138250898Y-111176903D01*
X138158910Y-111039233D01*
X138701090Y-111039233D01*
X138609102Y-111176903D01*
X138516307Y-111400931D01*
X138469000Y-111638757D01*
X138469000Y-111881243D01*
X138516307Y-112119069D01*
X138609102Y-112343097D01*
X138743820Y-112544717D01*
X138915283Y-112716180D01*
X139116903Y-112850898D01*
X139340931Y-112943693D01*
X139578757Y-112991000D01*
X139821243Y-112991000D01*
X140059069Y-112943693D01*
X140283097Y-112850898D01*
X140484717Y-112716180D01*
X140656180Y-112544717D01*
X140790898Y-112343097D01*
X140883693Y-112119069D01*
X140931000Y-111881243D01*
X140931000Y-111638757D01*
X140883693Y-111400931D01*
X140790898Y-111176903D01*
X140698910Y-111039233D01*
X140836734Y-111039233D01*
X141065514Y-111268014D01*
X141065519Y-111268018D01*
X141097934Y-111300433D01*
X141056307Y-111400931D01*
X141009000Y-111638757D01*
X141009000Y-111881243D01*
X141056307Y-112119069D01*
X141149102Y-112343097D01*
X141283820Y-112544717D01*
X141455283Y-112716180D01*
X141656903Y-112850898D01*
X141880931Y-112943693D01*
X142118757Y-112991000D01*
X142361243Y-112991000D01*
X142599069Y-112943693D01*
X142823097Y-112850898D01*
X143024717Y-112716180D01*
X143196180Y-112544717D01*
X143330898Y-112343097D01*
X143423693Y-112119069D01*
X143471000Y-111881243D01*
X143471000Y-111638757D01*
X143423693Y-111400931D01*
X143330898Y-111176903D01*
X143196180Y-110975283D01*
X143024717Y-110803820D01*
X142823097Y-110669102D01*
X142743234Y-110636022D01*
X142973523Y-110636022D01*
X143637934Y-111300433D01*
X143596307Y-111400931D01*
X143549000Y-111638757D01*
X143549000Y-111881243D01*
X143596307Y-112119069D01*
X143689102Y-112343097D01*
X143823820Y-112544717D01*
X143995283Y-112716180D01*
X144196903Y-112850898D01*
X144420931Y-112943693D01*
X144658757Y-112991000D01*
X144901243Y-112991000D01*
X145139069Y-112943693D01*
X145363097Y-112850898D01*
X145564717Y-112716180D01*
X145736180Y-112544717D01*
X145870898Y-112343097D01*
X145963693Y-112119069D01*
X146011000Y-111881243D01*
X146011000Y-111638757D01*
X145963693Y-111400931D01*
X145870898Y-111176903D01*
X145736180Y-110975283D01*
X145564717Y-110803820D01*
X145363097Y-110669102D01*
X145139069Y-110576307D01*
X144901243Y-110529000D01*
X144658757Y-110529000D01*
X144420931Y-110576307D01*
X144320433Y-110617934D01*
X143935310Y-110232811D01*
X145110312Y-110232811D01*
X146145514Y-111268014D01*
X146145519Y-111268018D01*
X146177934Y-111300433D01*
X146136307Y-111400931D01*
X146089000Y-111638757D01*
X146089000Y-111881243D01*
X146136307Y-112119069D01*
X146229102Y-112343097D01*
X146363820Y-112544717D01*
X146535283Y-112716180D01*
X146736903Y-112850898D01*
X146960931Y-112943693D01*
X147198757Y-112991000D01*
X147441243Y-112991000D01*
X147679069Y-112943693D01*
X147903097Y-112850898D01*
X148104717Y-112716180D01*
X148276180Y-112544717D01*
X148410898Y-112343097D01*
X148503693Y-112119069D01*
X148551000Y-111881243D01*
X148551000Y-111638757D01*
X148503693Y-111400931D01*
X148410898Y-111176903D01*
X148276180Y-110975283D01*
X148104717Y-110803820D01*
X147903097Y-110669102D01*
X147679069Y-110576307D01*
X147441243Y-110529000D01*
X147198757Y-110529000D01*
X146960931Y-110576307D01*
X146860433Y-110617934D01*
X146828018Y-110585519D01*
X146828014Y-110585514D01*
X146072099Y-109829600D01*
X147247101Y-109829600D01*
X148717934Y-111300433D01*
X148676307Y-111400931D01*
X148629000Y-111638757D01*
X148629000Y-111881243D01*
X148676307Y-112119069D01*
X148769102Y-112343097D01*
X148903820Y-112544717D01*
X149075283Y-112716180D01*
X149276903Y-112850898D01*
X149500931Y-112943693D01*
X149738757Y-112991000D01*
X149981243Y-112991000D01*
X150219069Y-112943693D01*
X150443097Y-112850898D01*
X150644717Y-112716180D01*
X150816180Y-112544717D01*
X150950898Y-112343097D01*
X151043693Y-112119069D01*
X151091000Y-111881243D01*
X151091000Y-111638757D01*
X151169000Y-111638757D01*
X151169000Y-111881243D01*
X151216307Y-112119069D01*
X151309102Y-112343097D01*
X151443820Y-112544717D01*
X151615283Y-112716180D01*
X151816903Y-112850898D01*
X152040931Y-112943693D01*
X152278757Y-112991000D01*
X152521243Y-112991000D01*
X152759069Y-112943693D01*
X152983097Y-112850898D01*
X153184717Y-112716180D01*
X153356180Y-112544717D01*
X153490898Y-112343097D01*
X153583693Y-112119069D01*
X153631000Y-111881243D01*
X153631000Y-111638757D01*
X153709000Y-111638757D01*
X153709000Y-111881243D01*
X153756307Y-112119069D01*
X153849102Y-112343097D01*
X153983820Y-112544717D01*
X154155283Y-112716180D01*
X154356903Y-112850898D01*
X154580931Y-112943693D01*
X154818757Y-112991000D01*
X155061243Y-112991000D01*
X155299069Y-112943693D01*
X155523097Y-112850898D01*
X155724717Y-112716180D01*
X155896180Y-112544717D01*
X156030898Y-112343097D01*
X156123693Y-112119069D01*
X156171000Y-111881243D01*
X156171000Y-111638757D01*
X156249000Y-111638757D01*
X156249000Y-111881243D01*
X156296307Y-112119069D01*
X156389102Y-112343097D01*
X156523820Y-112544717D01*
X156695283Y-112716180D01*
X156896903Y-112850898D01*
X157120931Y-112943693D01*
X157358757Y-112991000D01*
X157601243Y-112991000D01*
X157839069Y-112943693D01*
X158063097Y-112850898D01*
X158264717Y-112716180D01*
X158436180Y-112544717D01*
X158570898Y-112343097D01*
X158663693Y-112119069D01*
X158711000Y-111881243D01*
X158711000Y-111638757D01*
X158663693Y-111400931D01*
X158570898Y-111176903D01*
X158436180Y-110975283D01*
X158264717Y-110803820D01*
X158063097Y-110669102D01*
X157839069Y-110576307D01*
X157601243Y-110529000D01*
X157358757Y-110529000D01*
X157120931Y-110576307D01*
X156896903Y-110669102D01*
X156695283Y-110803820D01*
X156523820Y-110975283D01*
X156389102Y-111176903D01*
X156296307Y-111400931D01*
X156249000Y-111638757D01*
X156171000Y-111638757D01*
X156123693Y-111400931D01*
X156030898Y-111176903D01*
X155896180Y-110975283D01*
X155724717Y-110803820D01*
X155523097Y-110669102D01*
X155299069Y-110576307D01*
X155061243Y-110529000D01*
X154818757Y-110529000D01*
X154580931Y-110576307D01*
X154356903Y-110669102D01*
X154155283Y-110803820D01*
X153983820Y-110975283D01*
X153849102Y-111176903D01*
X153756307Y-111400931D01*
X153709000Y-111638757D01*
X153631000Y-111638757D01*
X153583693Y-111400931D01*
X153490898Y-111176903D01*
X153356180Y-110975283D01*
X153184717Y-110803820D01*
X152983097Y-110669102D01*
X152759069Y-110576307D01*
X152521243Y-110529000D01*
X152278757Y-110529000D01*
X152040931Y-110576307D01*
X151816903Y-110669102D01*
X151615283Y-110803820D01*
X151443820Y-110975283D01*
X151309102Y-111176903D01*
X151216307Y-111400931D01*
X151169000Y-111638757D01*
X151091000Y-111638757D01*
X151043693Y-111400931D01*
X150950898Y-111176903D01*
X150816180Y-110975283D01*
X150644717Y-110803820D01*
X150443097Y-110669102D01*
X150219069Y-110576307D01*
X149981243Y-110529000D01*
X149738757Y-110529000D01*
X149500931Y-110576307D01*
X149400433Y-110617934D01*
X147805017Y-109022518D01*
X147789901Y-109004099D01*
X147716415Y-108943791D01*
X147632577Y-108898978D01*
X147541606Y-108871383D01*
X147470707Y-108864400D01*
X147470705Y-108864400D01*
X147447000Y-108862065D01*
X147423295Y-108864400D01*
X140026900Y-108864400D01*
X137333000Y-106170501D01*
X137333000Y-106104927D01*
X137306829Y-105973360D01*
X137255494Y-105849426D01*
X137180967Y-105737888D01*
X137086112Y-105643033D01*
X136974574Y-105568506D01*
X136850640Y-105517171D01*
X136719073Y-105491000D01*
X136584927Y-105491000D01*
X136453360Y-105517171D01*
X136329426Y-105568506D01*
X136217888Y-105643033D01*
X136123033Y-105737888D01*
X136048506Y-105849426D01*
X135997171Y-105973360D01*
X135971000Y-106104927D01*
X135971000Y-106239073D01*
X135994199Y-106355700D01*
X135809000Y-106170501D01*
X135809000Y-106104927D01*
X135782829Y-105973360D01*
X135731494Y-105849426D01*
X135656967Y-105737888D01*
X135562112Y-105643033D01*
X135450574Y-105568506D01*
X135326640Y-105517171D01*
X135195073Y-105491000D01*
X135060927Y-105491000D01*
X134929360Y-105517171D01*
X134805426Y-105568506D01*
X134693888Y-105643033D01*
X134599033Y-105737888D01*
X134524506Y-105849426D01*
X134473171Y-105973360D01*
X134447000Y-106104927D01*
X134447000Y-106239073D01*
X134470199Y-106355700D01*
X134285000Y-106170501D01*
X134285000Y-106104927D01*
X134258829Y-105973360D01*
X134207494Y-105849426D01*
X134132967Y-105737888D01*
X134038112Y-105643033D01*
X133926574Y-105568506D01*
X133802640Y-105517171D01*
X133671073Y-105491000D01*
X133536927Y-105491000D01*
X133405360Y-105517171D01*
X133281426Y-105568506D01*
X133169888Y-105643033D01*
X133075033Y-105737888D01*
X133000506Y-105849426D01*
X132949171Y-105973360D01*
X132923000Y-106104927D01*
X132923000Y-106239073D01*
X132946199Y-106355700D01*
X132761000Y-106170501D01*
X132761000Y-106104927D01*
X132734829Y-105973360D01*
X132683494Y-105849426D01*
X132608967Y-105737888D01*
X132514112Y-105643033D01*
X132402574Y-105568506D01*
X132278640Y-105517171D01*
X132147073Y-105491000D01*
X132012927Y-105491000D01*
X131881360Y-105517171D01*
X131757426Y-105568506D01*
X131645888Y-105643033D01*
X131551033Y-105737888D01*
X131476506Y-105849426D01*
X131425171Y-105973360D01*
X131399000Y-106104927D01*
X123458152Y-106104927D01*
X123464967Y-106098112D01*
X123539494Y-105986574D01*
X123590829Y-105862640D01*
X123617000Y-105731073D01*
X123617000Y-105596927D01*
X123590829Y-105465360D01*
X123539494Y-105341426D01*
X123464967Y-105229888D01*
X123418600Y-105183521D01*
X123418600Y-104112479D01*
X123458152Y-104072927D01*
X155148000Y-104072927D01*
X155148000Y-104207073D01*
X155174171Y-104338640D01*
X155225506Y-104462574D01*
X155300033Y-104574112D01*
X155310421Y-104584500D01*
X155300033Y-104594888D01*
X155225506Y-104706426D01*
X155174171Y-104830360D01*
X155148000Y-104961927D01*
X155148000Y-105096073D01*
X155174171Y-105227640D01*
X155225506Y-105351574D01*
X155300033Y-105463112D01*
X155310421Y-105473500D01*
X155300033Y-105483888D01*
X155225506Y-105595426D01*
X155174171Y-105719360D01*
X155148000Y-105850927D01*
X155148000Y-105985073D01*
X155174171Y-106116640D01*
X155225506Y-106240574D01*
X155300033Y-106352112D01*
X155310421Y-106362500D01*
X155300033Y-106372888D01*
X155225506Y-106484426D01*
X155174171Y-106608360D01*
X155148000Y-106739927D01*
X155148000Y-106874073D01*
X155174171Y-107005640D01*
X155225506Y-107129574D01*
X155300033Y-107241112D01*
X155310421Y-107251500D01*
X155300033Y-107261888D01*
X155225506Y-107373426D01*
X155174171Y-107497360D01*
X155148000Y-107628927D01*
X155148000Y-107763073D01*
X155174171Y-107894640D01*
X155225506Y-108018574D01*
X155300033Y-108130112D01*
X155394888Y-108224967D01*
X155506426Y-108299494D01*
X155630360Y-108350829D01*
X155761927Y-108377000D01*
X155896073Y-108377000D01*
X156027640Y-108350829D01*
X156151574Y-108299494D01*
X156263112Y-108224967D01*
X156309479Y-108178600D01*
X157534101Y-108178600D01*
X159537401Y-110181900D01*
X159537401Y-110627475D01*
X159436903Y-110669102D01*
X159235283Y-110803820D01*
X159063820Y-110975283D01*
X158929102Y-111176903D01*
X158836307Y-111400931D01*
X158789000Y-111638757D01*
X158789000Y-111881243D01*
X158836307Y-112119069D01*
X158929102Y-112343097D01*
X159063820Y-112544717D01*
X159235283Y-112716180D01*
X159436903Y-112850898D01*
X159660931Y-112943693D01*
X159898757Y-112991000D01*
X160141243Y-112991000D01*
X160379069Y-112943693D01*
X160603097Y-112850898D01*
X160804717Y-112716180D01*
X160976180Y-112544717D01*
X161110898Y-112343097D01*
X161203693Y-112119069D01*
X161251000Y-111881243D01*
X161251000Y-111638757D01*
X161203693Y-111400931D01*
X161110898Y-111176903D01*
X160976180Y-110975283D01*
X160804717Y-110803820D01*
X160603097Y-110669102D01*
X160502600Y-110627475D01*
X160502600Y-110385100D01*
X161417934Y-111300434D01*
X161376307Y-111400931D01*
X161329000Y-111638757D01*
X161329000Y-111881243D01*
X161376307Y-112119069D01*
X161469102Y-112343097D01*
X161603820Y-112544717D01*
X161775283Y-112716180D01*
X161976903Y-112850898D01*
X162200931Y-112943693D01*
X162438757Y-112991000D01*
X162681243Y-112991000D01*
X162919069Y-112943693D01*
X163143097Y-112850898D01*
X163344717Y-112716180D01*
X163516180Y-112544717D01*
X163650898Y-112343097D01*
X163743693Y-112119069D01*
X163791000Y-111881243D01*
X163791000Y-111638757D01*
X163743693Y-111400931D01*
X163650898Y-111176903D01*
X163593499Y-111090999D01*
X163748500Y-111090999D01*
X163957934Y-111300434D01*
X163916307Y-111400931D01*
X163869000Y-111638757D01*
X163869000Y-111881243D01*
X163916307Y-112119069D01*
X164009102Y-112343097D01*
X164143820Y-112544717D01*
X164315283Y-112716180D01*
X164516903Y-112850898D01*
X164740931Y-112943693D01*
X164978757Y-112991000D01*
X165221243Y-112991000D01*
X165459069Y-112943693D01*
X165683097Y-112850898D01*
X165884717Y-112716180D01*
X166056180Y-112544717D01*
X166190898Y-112343097D01*
X166283693Y-112119069D01*
X166331000Y-111881243D01*
X166331000Y-111638757D01*
X166283693Y-111400931D01*
X166190898Y-111176903D01*
X166056180Y-110975283D01*
X165884717Y-110803820D01*
X165711063Y-110687788D01*
X165885289Y-110687788D01*
X166497934Y-111300433D01*
X166456307Y-111400931D01*
X166409000Y-111638757D01*
X166409000Y-111881243D01*
X166456307Y-112119069D01*
X166549102Y-112343097D01*
X166683820Y-112544717D01*
X166855283Y-112716180D01*
X167056903Y-112850898D01*
X167280931Y-112943693D01*
X167518757Y-112991000D01*
X167761243Y-112991000D01*
X167999069Y-112943693D01*
X168223097Y-112850898D01*
X168424717Y-112716180D01*
X168596180Y-112544717D01*
X168730898Y-112343097D01*
X168823693Y-112119069D01*
X168871000Y-111881243D01*
X168871000Y-111768500D01*
X168949000Y-111846500D01*
X168949000Y-111881243D01*
X168996307Y-112119069D01*
X169089102Y-112343097D01*
X169223820Y-112544717D01*
X169395283Y-112716180D01*
X169596903Y-112850898D01*
X169820931Y-112943693D01*
X170058757Y-112991000D01*
X170301243Y-112991000D01*
X170539069Y-112943693D01*
X170763097Y-112850898D01*
X170964717Y-112716180D01*
X171136180Y-112544717D01*
X171270898Y-112343097D01*
X171363693Y-112119069D01*
X171411000Y-111881243D01*
X171411000Y-111638757D01*
X171363693Y-111400931D01*
X171270898Y-111176903D01*
X171136180Y-110975283D01*
X170964717Y-110803820D01*
X170763097Y-110669102D01*
X170539069Y-110576307D01*
X170301243Y-110529000D01*
X170058757Y-110529000D01*
X169820931Y-110576307D01*
X169596903Y-110669102D01*
X169395283Y-110803820D01*
X169333301Y-110865802D01*
X167871017Y-109403518D01*
X167855901Y-109385099D01*
X167782415Y-109324791D01*
X167698577Y-109279978D01*
X167607606Y-109252383D01*
X167536707Y-109245400D01*
X167536705Y-109245400D01*
X167513000Y-109243065D01*
X167489295Y-109245400D01*
X162676163Y-109245400D01*
X159602557Y-106171794D01*
X166583000Y-106171794D01*
X166583000Y-106680206D01*
X166682187Y-107178850D01*
X166876748Y-107648562D01*
X167159207Y-108071291D01*
X167518709Y-108430793D01*
X167941438Y-108713252D01*
X168411150Y-108907813D01*
X168909794Y-109007000D01*
X169418206Y-109007000D01*
X169916850Y-108907813D01*
X170386562Y-108713252D01*
X170809291Y-108430793D01*
X171168793Y-108071291D01*
X171451252Y-107648562D01*
X171645813Y-107178850D01*
X171745000Y-106680206D01*
X171745000Y-106171794D01*
X171645813Y-105673150D01*
X171451252Y-105203438D01*
X171168793Y-104780709D01*
X170809291Y-104421207D01*
X170386562Y-104138748D01*
X169916850Y-103944187D01*
X169418206Y-103845000D01*
X168909794Y-103845000D01*
X168411150Y-103944187D01*
X167941438Y-104138748D01*
X167518709Y-104421207D01*
X167159207Y-104780709D01*
X166876748Y-105203438D01*
X166682187Y-105673150D01*
X166583000Y-106171794D01*
X159602557Y-106171794D01*
X157246281Y-103815518D01*
X157231165Y-103797099D01*
X157157679Y-103736791D01*
X157073841Y-103691978D01*
X156982870Y-103664383D01*
X156911971Y-103657400D01*
X156911969Y-103657400D01*
X156888264Y-103655065D01*
X156864559Y-103657400D01*
X156309479Y-103657400D01*
X156263112Y-103611033D01*
X156151574Y-103536506D01*
X156027640Y-103485171D01*
X155896073Y-103459000D01*
X155761927Y-103459000D01*
X155630360Y-103485171D01*
X155506426Y-103536506D01*
X155394888Y-103611033D01*
X155300033Y-103705888D01*
X155225506Y-103817426D01*
X155174171Y-103941360D01*
X155148000Y-104072927D01*
X123458152Y-104072927D01*
X123464967Y-104066112D01*
X123539494Y-103954574D01*
X123590829Y-103830640D01*
X123617000Y-103699073D01*
X123617000Y-103564927D01*
X123590829Y-103433360D01*
X123539494Y-103309426D01*
X123464967Y-103197888D01*
X123370112Y-103103033D01*
X123258574Y-103028506D01*
X123134640Y-102977171D01*
X123003073Y-102951000D01*
X122868927Y-102951000D01*
X122737360Y-102977171D01*
X122613426Y-103028506D01*
X122501888Y-103103033D01*
X122407033Y-103197888D01*
X122332506Y-103309426D01*
X122281171Y-103433360D01*
X122255000Y-103564927D01*
X117246000Y-103564927D01*
X117246000Y-101451069D01*
X167357500Y-101451069D01*
X167357500Y-101668931D01*
X167400003Y-101882608D01*
X167483376Y-102083887D01*
X167604414Y-102265034D01*
X167758466Y-102419086D01*
X167939613Y-102540124D01*
X168140892Y-102623497D01*
X168354569Y-102666000D01*
X168572431Y-102666000D01*
X168786108Y-102623497D01*
X168987387Y-102540124D01*
X169168534Y-102419086D01*
X169322586Y-102265034D01*
X169443624Y-102083887D01*
X169526997Y-101882608D01*
X169569500Y-101668931D01*
X169569500Y-101451069D01*
X169526997Y-101237392D01*
X169443624Y-101036113D01*
X169322586Y-100854966D01*
X169168534Y-100700914D01*
X168987387Y-100579876D01*
X168786108Y-100496503D01*
X168572431Y-100454000D01*
X168354569Y-100454000D01*
X168140892Y-100496503D01*
X167939613Y-100579876D01*
X167758466Y-100700914D01*
X167604414Y-100854966D01*
X167483376Y-101036113D01*
X167400003Y-101237392D01*
X167357500Y-101451069D01*
X117246000Y-101451069D01*
X117246000Y-100262927D01*
X139527000Y-100262927D01*
X139527000Y-100397073D01*
X139553171Y-100528640D01*
X139604506Y-100652574D01*
X139679033Y-100764112D01*
X139773888Y-100858967D01*
X139885426Y-100933494D01*
X140009360Y-100984829D01*
X140140927Y-101011000D01*
X140275073Y-101011000D01*
X140406640Y-100984829D01*
X140530574Y-100933494D01*
X140642112Y-100858967D01*
X140688479Y-100812600D01*
X145518295Y-100812600D01*
X145542000Y-100814935D01*
X145565705Y-100812600D01*
X145565707Y-100812600D01*
X145636606Y-100805617D01*
X145727577Y-100778022D01*
X145811415Y-100733209D01*
X145884901Y-100672901D01*
X145900017Y-100654482D01*
X147575500Y-98979000D01*
X147641073Y-98979000D01*
X147772640Y-98952829D01*
X147896574Y-98901494D01*
X148008112Y-98826967D01*
X148102967Y-98732112D01*
X148177494Y-98620574D01*
X148228829Y-98496640D01*
X148255000Y-98365073D01*
X148255000Y-98230927D01*
X148228829Y-98099360D01*
X148177494Y-97975426D01*
X148102967Y-97863888D01*
X148008112Y-97769033D01*
X147896574Y-97694506D01*
X147772640Y-97643171D01*
X147641073Y-97617000D01*
X147506927Y-97617000D01*
X147375360Y-97643171D01*
X147251426Y-97694506D01*
X147139888Y-97769033D01*
X147045033Y-97863888D01*
X146970506Y-97975426D01*
X146919171Y-98099360D01*
X146893000Y-98230927D01*
X146893000Y-98296500D01*
X145342101Y-99847400D01*
X140688479Y-99847400D01*
X140642112Y-99801033D01*
X140530574Y-99726506D01*
X140406640Y-99675171D01*
X140275073Y-99649000D01*
X140140927Y-99649000D01*
X140009360Y-99675171D01*
X139885426Y-99726506D01*
X139773888Y-99801033D01*
X139679033Y-99895888D01*
X139604506Y-100007426D01*
X139553171Y-100131360D01*
X139527000Y-100262927D01*
X117246000Y-100262927D01*
X117246000Y-96452927D01*
X139527000Y-96452927D01*
X139527000Y-96587073D01*
X139553171Y-96718640D01*
X139604506Y-96842574D01*
X139679033Y-96954112D01*
X139773888Y-97048967D01*
X139885426Y-97123494D01*
X140009360Y-97174829D01*
X140140927Y-97201000D01*
X140275073Y-97201000D01*
X140391700Y-97177801D01*
X140206501Y-97363000D01*
X140140927Y-97363000D01*
X140009360Y-97389171D01*
X139885426Y-97440506D01*
X139773888Y-97515033D01*
X139679033Y-97609888D01*
X139604506Y-97721426D01*
X139553171Y-97845360D01*
X139527000Y-97976927D01*
X139527000Y-98111073D01*
X139553171Y-98242640D01*
X139604506Y-98366574D01*
X139679033Y-98478112D01*
X139773888Y-98572967D01*
X139885426Y-98647494D01*
X140009360Y-98698829D01*
X140140927Y-98725000D01*
X140275073Y-98725000D01*
X140406640Y-98698829D01*
X140530574Y-98647494D01*
X140642112Y-98572967D01*
X140736967Y-98478112D01*
X140811494Y-98366574D01*
X140862829Y-98242640D01*
X140889000Y-98111073D01*
X140889000Y-98045499D01*
X146799572Y-92134927D01*
X148671000Y-92134927D01*
X148671000Y-92269073D01*
X148697171Y-92400640D01*
X148748506Y-92524574D01*
X148818601Y-92629479D01*
X148818600Y-98886522D01*
X148748506Y-98991426D01*
X148697171Y-99115360D01*
X148671000Y-99246927D01*
X148671000Y-99381073D01*
X148697171Y-99512640D01*
X148748506Y-99636574D01*
X148823033Y-99748112D01*
X148917888Y-99842967D01*
X149029426Y-99917494D01*
X149153360Y-99968829D01*
X149284927Y-99995000D01*
X149419073Y-99995000D01*
X149550640Y-99968829D01*
X149674574Y-99917494D01*
X149786112Y-99842967D01*
X149880967Y-99748112D01*
X149955494Y-99636574D01*
X150006829Y-99512640D01*
X150033000Y-99381073D01*
X150033000Y-99246927D01*
X150006829Y-99115360D01*
X149955494Y-98991426D01*
X149885400Y-98886522D01*
X149885400Y-96451069D01*
X167357500Y-96451069D01*
X167357500Y-96668931D01*
X167400003Y-96882608D01*
X167483376Y-97083887D01*
X167604414Y-97265034D01*
X167758466Y-97419086D01*
X167939613Y-97540124D01*
X168140892Y-97623497D01*
X168354569Y-97666000D01*
X168572431Y-97666000D01*
X168786108Y-97623497D01*
X168987387Y-97540124D01*
X169168534Y-97419086D01*
X169322586Y-97265034D01*
X169443624Y-97083887D01*
X169526997Y-96882608D01*
X169569500Y-96668931D01*
X169569500Y-96451069D01*
X169526997Y-96237392D01*
X169443624Y-96036113D01*
X169322586Y-95854966D01*
X169168534Y-95700914D01*
X168987387Y-95579876D01*
X168786108Y-95496503D01*
X168572431Y-95454000D01*
X168354569Y-95454000D01*
X168140892Y-95496503D01*
X167939613Y-95579876D01*
X167758466Y-95700914D01*
X167604414Y-95854966D01*
X167483376Y-96036113D01*
X167400003Y-96237392D01*
X167357500Y-96451069D01*
X149885400Y-96451069D01*
X149885400Y-92629478D01*
X149955494Y-92524574D01*
X150006829Y-92400640D01*
X150033000Y-92269073D01*
X150033000Y-92134927D01*
X150006829Y-92003360D01*
X149955494Y-91879426D01*
X149880967Y-91767888D01*
X149786112Y-91673033D01*
X149674574Y-91598506D01*
X149550640Y-91547171D01*
X149419073Y-91521000D01*
X149284927Y-91521000D01*
X149153360Y-91547171D01*
X149029426Y-91598506D01*
X148917888Y-91673033D01*
X148823033Y-91767888D01*
X148748506Y-91879426D01*
X148697171Y-92003360D01*
X148671000Y-92134927D01*
X146799572Y-92134927D01*
X147494705Y-91439794D01*
X166583000Y-91439794D01*
X166583000Y-91948206D01*
X166682187Y-92446850D01*
X166876748Y-92916562D01*
X167159207Y-93339291D01*
X167518709Y-93698793D01*
X167941438Y-93981252D01*
X168411150Y-94175813D01*
X168909794Y-94275000D01*
X169418206Y-94275000D01*
X169916850Y-94175813D01*
X170386562Y-93981252D01*
X170809291Y-93698793D01*
X171168793Y-93339291D01*
X171451252Y-92916562D01*
X171645813Y-92446850D01*
X171745000Y-91948206D01*
X171745000Y-91439794D01*
X171645813Y-90941150D01*
X171451252Y-90471438D01*
X171168793Y-90048709D01*
X170809291Y-89689207D01*
X170386562Y-89406748D01*
X169916850Y-89212187D01*
X169418206Y-89113000D01*
X168909794Y-89113000D01*
X168411150Y-89212187D01*
X167941438Y-89406748D01*
X167518709Y-89689207D01*
X167159207Y-90048709D01*
X166876748Y-90471438D01*
X166682187Y-90941150D01*
X166583000Y-91439794D01*
X147494705Y-91439794D01*
X150537088Y-88397411D01*
X168601484Y-88397411D01*
X168625189Y-88399746D01*
X168648894Y-88397411D01*
X168648896Y-88397411D01*
X168719795Y-88390428D01*
X168810766Y-88362833D01*
X168894604Y-88318020D01*
X168968090Y-88257712D01*
X168983206Y-88239293D01*
X169688014Y-87534486D01*
X169688018Y-87534481D01*
X169720433Y-87502066D01*
X169820931Y-87543693D01*
X170058757Y-87591000D01*
X170301243Y-87591000D01*
X170539069Y-87543693D01*
X170763097Y-87450898D01*
X170964717Y-87316180D01*
X171136180Y-87144717D01*
X171270898Y-86943097D01*
X171363693Y-86719069D01*
X171411000Y-86481243D01*
X171411000Y-86238757D01*
X171363693Y-86000931D01*
X171270898Y-85776903D01*
X171136180Y-85575283D01*
X170964717Y-85403820D01*
X170763097Y-85269102D01*
X170539069Y-85176307D01*
X170301243Y-85129000D01*
X170058757Y-85129000D01*
X169820931Y-85176307D01*
X169596903Y-85269102D01*
X169395283Y-85403820D01*
X169223820Y-85575283D01*
X169089102Y-85776903D01*
X168996307Y-86000931D01*
X168949000Y-86238757D01*
X168949000Y-86481243D01*
X168996307Y-86719069D01*
X169037934Y-86819567D01*
X169005519Y-86851982D01*
X169005514Y-86851986D01*
X168425290Y-87432211D01*
X168251064Y-87432211D01*
X168424717Y-87316180D01*
X168596180Y-87144717D01*
X168730898Y-86943097D01*
X168823693Y-86719069D01*
X168871000Y-86481243D01*
X168871000Y-86238757D01*
X168823693Y-86000931D01*
X168730898Y-85776903D01*
X168596180Y-85575283D01*
X168424717Y-85403820D01*
X168223097Y-85269102D01*
X167999069Y-85176307D01*
X167761243Y-85129000D01*
X167518757Y-85129000D01*
X167280931Y-85176307D01*
X167056903Y-85269102D01*
X166855283Y-85403820D01*
X166683820Y-85575283D01*
X166549102Y-85776903D01*
X166456307Y-86000931D01*
X166409000Y-86238757D01*
X166409000Y-86481243D01*
X166456307Y-86719069D01*
X166497934Y-86819567D01*
X166288500Y-87029001D01*
X166133499Y-87029001D01*
X166190898Y-86943097D01*
X166283693Y-86719069D01*
X166331000Y-86481243D01*
X166331000Y-86238757D01*
X166283693Y-86000931D01*
X166190898Y-85776903D01*
X166056180Y-85575283D01*
X165884717Y-85403820D01*
X165683097Y-85269102D01*
X165459069Y-85176307D01*
X165221243Y-85129000D01*
X164978757Y-85129000D01*
X164740931Y-85176307D01*
X164516903Y-85269102D01*
X164315283Y-85403820D01*
X164143820Y-85575283D01*
X164009102Y-85776903D01*
X163916307Y-86000931D01*
X163869000Y-86238757D01*
X163869000Y-86481243D01*
X163916307Y-86719069D01*
X164009102Y-86943097D01*
X164066501Y-87029001D01*
X163593499Y-87029001D01*
X163650898Y-86943097D01*
X163743693Y-86719069D01*
X163791000Y-86481243D01*
X163791000Y-86238757D01*
X163743693Y-86000931D01*
X163650898Y-85776903D01*
X163516180Y-85575283D01*
X163344717Y-85403820D01*
X163143097Y-85269102D01*
X162919069Y-85176307D01*
X162681243Y-85129000D01*
X162438757Y-85129000D01*
X162200931Y-85176307D01*
X161976903Y-85269102D01*
X161775283Y-85403820D01*
X161603820Y-85575283D01*
X161469102Y-85776903D01*
X161376307Y-86000931D01*
X161329000Y-86238757D01*
X161329000Y-86481243D01*
X161376307Y-86719069D01*
X161469102Y-86943097D01*
X161526501Y-87029001D01*
X161053499Y-87029001D01*
X161110898Y-86943097D01*
X161203693Y-86719069D01*
X161251000Y-86481243D01*
X161251000Y-86238757D01*
X161203693Y-86000931D01*
X161110898Y-85776903D01*
X160976180Y-85575283D01*
X160804717Y-85403820D01*
X160603097Y-85269102D01*
X160379069Y-85176307D01*
X160141243Y-85129000D01*
X159898757Y-85129000D01*
X159660931Y-85176307D01*
X159436903Y-85269102D01*
X159235283Y-85403820D01*
X159063820Y-85575283D01*
X158929102Y-85776903D01*
X158836307Y-86000931D01*
X158789000Y-86238757D01*
X158789000Y-86481243D01*
X158836307Y-86719069D01*
X158929102Y-86943097D01*
X158986501Y-87029001D01*
X158513499Y-87029001D01*
X158570898Y-86943097D01*
X158663693Y-86719069D01*
X158711000Y-86481243D01*
X158711000Y-86238757D01*
X158663693Y-86000931D01*
X158570898Y-85776903D01*
X158436180Y-85575283D01*
X158264717Y-85403820D01*
X158063097Y-85269102D01*
X157839069Y-85176307D01*
X157601243Y-85129000D01*
X157358757Y-85129000D01*
X157120931Y-85176307D01*
X156896903Y-85269102D01*
X156695283Y-85403820D01*
X156523820Y-85575283D01*
X156389102Y-85776903D01*
X156296307Y-86000931D01*
X156249000Y-86238757D01*
X156249000Y-86481243D01*
X156296307Y-86719069D01*
X156389102Y-86943097D01*
X156446501Y-87029001D01*
X155973499Y-87029001D01*
X156030898Y-86943097D01*
X156123693Y-86719069D01*
X156171000Y-86481243D01*
X156171000Y-86238757D01*
X156123693Y-86000931D01*
X156030898Y-85776903D01*
X155896180Y-85575283D01*
X155724717Y-85403820D01*
X155523097Y-85269102D01*
X155299069Y-85176307D01*
X155061243Y-85129000D01*
X154818757Y-85129000D01*
X154580931Y-85176307D01*
X154356903Y-85269102D01*
X154155283Y-85403820D01*
X153983820Y-85575283D01*
X153849102Y-85776903D01*
X153756307Y-86000931D01*
X153709000Y-86238757D01*
X153709000Y-86481243D01*
X153756307Y-86719069D01*
X153849102Y-86943097D01*
X153906501Y-87029001D01*
X153433499Y-87029001D01*
X153490898Y-86943097D01*
X153583693Y-86719069D01*
X153631000Y-86481243D01*
X153631000Y-86238757D01*
X153583693Y-86000931D01*
X153490898Y-85776903D01*
X153356180Y-85575283D01*
X153184717Y-85403820D01*
X152983097Y-85269102D01*
X152759069Y-85176307D01*
X152521243Y-85129000D01*
X152278757Y-85129000D01*
X152040931Y-85176307D01*
X151816903Y-85269102D01*
X151615283Y-85403820D01*
X151443820Y-85575283D01*
X151309102Y-85776903D01*
X151216307Y-86000931D01*
X151169000Y-86238757D01*
X151169000Y-86481243D01*
X151216307Y-86719069D01*
X151309102Y-86943097D01*
X151366501Y-87029001D01*
X150893499Y-87029001D01*
X150950898Y-86943097D01*
X151043693Y-86719069D01*
X151091000Y-86481243D01*
X151091000Y-86238757D01*
X151043693Y-86000931D01*
X150950898Y-85776903D01*
X150816180Y-85575283D01*
X150644717Y-85403820D01*
X150443097Y-85269102D01*
X150219069Y-85176307D01*
X149981243Y-85129000D01*
X149738757Y-85129000D01*
X149500931Y-85176307D01*
X149276903Y-85269102D01*
X149075283Y-85403820D01*
X148903820Y-85575283D01*
X148769102Y-85776903D01*
X148676307Y-86000931D01*
X148629000Y-86238757D01*
X148629000Y-86481243D01*
X148676307Y-86719069D01*
X148769102Y-86943097D01*
X148903820Y-87144717D01*
X149075283Y-87316180D01*
X149122221Y-87347543D01*
X140544173Y-95925592D01*
X140530574Y-95916506D01*
X140406640Y-95865171D01*
X140275073Y-95839000D01*
X140140927Y-95839000D01*
X140009360Y-95865171D01*
X139885426Y-95916506D01*
X139773888Y-95991033D01*
X139679033Y-96085888D01*
X139604506Y-96197426D01*
X139553171Y-96321360D01*
X139527000Y-96452927D01*
X117246000Y-96452927D01*
X117246000Y-87210000D01*
X117891928Y-87210000D01*
X117904188Y-87334482D01*
X117940498Y-87454180D01*
X117999463Y-87564494D01*
X118078815Y-87661185D01*
X118175506Y-87740537D01*
X118285820Y-87799502D01*
X118405518Y-87835812D01*
X118530000Y-87848072D01*
X119094250Y-87845000D01*
X119253000Y-87686250D01*
X119253000Y-86487000D01*
X118053750Y-86487000D01*
X117895000Y-86645750D01*
X117891928Y-87210000D01*
X117246000Y-87210000D01*
X117246000Y-85510000D01*
X117891928Y-85510000D01*
X117895000Y-86074250D01*
X118053750Y-86233000D01*
X119253000Y-86233000D01*
X119253000Y-85033750D01*
X119507000Y-85033750D01*
X119507000Y-86233000D01*
X119527000Y-86233000D01*
X119527000Y-86487000D01*
X119507000Y-86487000D01*
X119507000Y-87686250D01*
X119665750Y-87845000D01*
X120230000Y-87848072D01*
X120354482Y-87835812D01*
X120474180Y-87799502D01*
X120584494Y-87740537D01*
X120681185Y-87661185D01*
X120760537Y-87564494D01*
X120819502Y-87454180D01*
X120855812Y-87334482D01*
X120868072Y-87210000D01*
X120866927Y-86999706D01*
X120963820Y-87144717D01*
X121135283Y-87316180D01*
X121336903Y-87450898D01*
X121386600Y-87471483D01*
X121386601Y-92790521D01*
X121316506Y-92895426D01*
X121265171Y-93019360D01*
X121239000Y-93150927D01*
X121239000Y-93285073D01*
X121265171Y-93416640D01*
X121316506Y-93540574D01*
X121391033Y-93652112D01*
X121485888Y-93746967D01*
X121597426Y-93821494D01*
X121721360Y-93872829D01*
X121852927Y-93899000D01*
X121987073Y-93899000D01*
X122118640Y-93872829D01*
X122242574Y-93821494D01*
X122354112Y-93746967D01*
X122448967Y-93652112D01*
X122523494Y-93540574D01*
X122574829Y-93416640D01*
X122601000Y-93285073D01*
X122601000Y-93150927D01*
X122574829Y-93019360D01*
X122523494Y-92895426D01*
X122453400Y-92790522D01*
X122453400Y-91626927D01*
X128351000Y-91626927D01*
X128351000Y-91761073D01*
X128377171Y-91892640D01*
X128428506Y-92016574D01*
X128503033Y-92128112D01*
X128597888Y-92222967D01*
X128709426Y-92297494D01*
X128833360Y-92348829D01*
X128964927Y-92375000D01*
X129099073Y-92375000D01*
X129230640Y-92348829D01*
X129354574Y-92297494D01*
X129466112Y-92222967D01*
X129560967Y-92128112D01*
X129635494Y-92016574D01*
X129686829Y-91892640D01*
X129713000Y-91761073D01*
X129713000Y-91695499D01*
X129898199Y-91510300D01*
X129875000Y-91626927D01*
X129875000Y-91761073D01*
X129901171Y-91892640D01*
X129952506Y-92016574D01*
X130027033Y-92128112D01*
X130121888Y-92222967D01*
X130233426Y-92297494D01*
X130357360Y-92348829D01*
X130488927Y-92375000D01*
X130623073Y-92375000D01*
X130754640Y-92348829D01*
X130878574Y-92297494D01*
X130990112Y-92222967D01*
X131084967Y-92128112D01*
X131159494Y-92016574D01*
X131210829Y-91892640D01*
X131237000Y-91761073D01*
X131237000Y-91695499D01*
X131422199Y-91510300D01*
X131399000Y-91626927D01*
X131399000Y-91761073D01*
X131425171Y-91892640D01*
X131476506Y-92016574D01*
X131551033Y-92128112D01*
X131645888Y-92222967D01*
X131757426Y-92297494D01*
X131881360Y-92348829D01*
X132012927Y-92375000D01*
X132147073Y-92375000D01*
X132278640Y-92348829D01*
X132402574Y-92297494D01*
X132514112Y-92222967D01*
X132608967Y-92128112D01*
X132683494Y-92016574D01*
X132734829Y-91892640D01*
X132761000Y-91761073D01*
X132761000Y-91695499D01*
X132946199Y-91510300D01*
X132923000Y-91626927D01*
X132923000Y-91761073D01*
X132949171Y-91892640D01*
X133000506Y-92016574D01*
X133075033Y-92128112D01*
X133169888Y-92222967D01*
X133281426Y-92297494D01*
X133405360Y-92348829D01*
X133536927Y-92375000D01*
X133671073Y-92375000D01*
X133802640Y-92348829D01*
X133926574Y-92297494D01*
X134038112Y-92222967D01*
X134132967Y-92128112D01*
X134207494Y-92016574D01*
X134258829Y-91892640D01*
X134285000Y-91761073D01*
X134285000Y-91695499D01*
X136724900Y-89255600D01*
X144883295Y-89255600D01*
X144907000Y-89257935D01*
X144930705Y-89255600D01*
X144930707Y-89255600D01*
X145001606Y-89248617D01*
X145092577Y-89221022D01*
X145176415Y-89176209D01*
X145249901Y-89115901D01*
X145265017Y-89097482D01*
X146860433Y-87502066D01*
X146960931Y-87543693D01*
X147198757Y-87591000D01*
X147441243Y-87591000D01*
X147679069Y-87543693D01*
X147903097Y-87450898D01*
X148104717Y-87316180D01*
X148276180Y-87144717D01*
X148410898Y-86943097D01*
X148503693Y-86719069D01*
X148551000Y-86481243D01*
X148551000Y-86238757D01*
X148503693Y-86000931D01*
X148410898Y-85776903D01*
X148276180Y-85575283D01*
X148104717Y-85403820D01*
X147903097Y-85269102D01*
X147679069Y-85176307D01*
X147441243Y-85129000D01*
X147198757Y-85129000D01*
X146960931Y-85176307D01*
X146736903Y-85269102D01*
X146535283Y-85403820D01*
X146363820Y-85575283D01*
X146229102Y-85776903D01*
X146136307Y-86000931D01*
X146089000Y-86238757D01*
X146089000Y-86481243D01*
X146136307Y-86719069D01*
X146177934Y-86819567D01*
X144707101Y-88290400D01*
X143532099Y-88290400D01*
X144288014Y-87534486D01*
X144288018Y-87534481D01*
X144320433Y-87502066D01*
X144420931Y-87543693D01*
X144658757Y-87591000D01*
X144901243Y-87591000D01*
X145139069Y-87543693D01*
X145363097Y-87450898D01*
X145564717Y-87316180D01*
X145736180Y-87144717D01*
X145870898Y-86943097D01*
X145963693Y-86719069D01*
X146011000Y-86481243D01*
X146011000Y-86238757D01*
X145963693Y-86000931D01*
X145870898Y-85776903D01*
X145736180Y-85575283D01*
X145564717Y-85403820D01*
X145363097Y-85269102D01*
X145139069Y-85176307D01*
X144901243Y-85129000D01*
X144658757Y-85129000D01*
X144420931Y-85176307D01*
X144196903Y-85269102D01*
X143995283Y-85403820D01*
X143823820Y-85575283D01*
X143689102Y-85776903D01*
X143596307Y-86000931D01*
X143549000Y-86238757D01*
X143549000Y-86481243D01*
X143596307Y-86719069D01*
X143637934Y-86819567D01*
X143605519Y-86851982D01*
X143605514Y-86851986D01*
X142570312Y-87887189D01*
X141395310Y-87887189D01*
X141780433Y-87502066D01*
X141880931Y-87543693D01*
X142118757Y-87591000D01*
X142361243Y-87591000D01*
X142599069Y-87543693D01*
X142823097Y-87450898D01*
X143024717Y-87316180D01*
X143196180Y-87144717D01*
X143330898Y-86943097D01*
X143423693Y-86719069D01*
X143471000Y-86481243D01*
X143471000Y-86238757D01*
X143423693Y-86000931D01*
X143330898Y-85776903D01*
X143196180Y-85575283D01*
X143024717Y-85403820D01*
X142823097Y-85269102D01*
X142599069Y-85176307D01*
X142361243Y-85129000D01*
X142118757Y-85129000D01*
X141880931Y-85176307D01*
X141656903Y-85269102D01*
X141455283Y-85403820D01*
X141283820Y-85575283D01*
X141149102Y-85776903D01*
X141056307Y-86000931D01*
X141009000Y-86238757D01*
X141009000Y-86481243D01*
X141056307Y-86719069D01*
X141097934Y-86819567D01*
X140433523Y-87483978D01*
X140203234Y-87483978D01*
X140283097Y-87450898D01*
X140484717Y-87316180D01*
X140656180Y-87144717D01*
X140790898Y-86943097D01*
X140883693Y-86719069D01*
X140931000Y-86481243D01*
X140931000Y-86238757D01*
X140883693Y-86000931D01*
X140790898Y-85776903D01*
X140656180Y-85575283D01*
X140484717Y-85403820D01*
X140283097Y-85269102D01*
X140059069Y-85176307D01*
X139821243Y-85129000D01*
X139578757Y-85129000D01*
X139340931Y-85176307D01*
X139116903Y-85269102D01*
X138915283Y-85403820D01*
X138743820Y-85575283D01*
X138609102Y-85776903D01*
X138516307Y-86000931D01*
X138469000Y-86238757D01*
X138469000Y-86481243D01*
X138516307Y-86719069D01*
X138557934Y-86819567D01*
X138525519Y-86851982D01*
X138525514Y-86851986D01*
X138296734Y-87080767D01*
X138158910Y-87080767D01*
X138250898Y-86943097D01*
X138343693Y-86719069D01*
X138391000Y-86481243D01*
X138391000Y-86238757D01*
X138343693Y-86000931D01*
X138250898Y-85776903D01*
X138116180Y-85575283D01*
X137944717Y-85403820D01*
X137743097Y-85269102D01*
X137519069Y-85176307D01*
X137281243Y-85129000D01*
X137038757Y-85129000D01*
X136800931Y-85176307D01*
X136576903Y-85269102D01*
X136375283Y-85403820D01*
X136203820Y-85575283D01*
X136069102Y-85776903D01*
X135976307Y-86000931D01*
X135929000Y-86238757D01*
X135929000Y-86481243D01*
X135976307Y-86719069D01*
X136069102Y-86943097D01*
X136161090Y-87080767D01*
X135618910Y-87080767D01*
X135710898Y-86943097D01*
X135803693Y-86719069D01*
X135851000Y-86481243D01*
X135851000Y-86238757D01*
X135803693Y-86000931D01*
X135710898Y-85776903D01*
X135576180Y-85575283D01*
X135404717Y-85403820D01*
X135203097Y-85269102D01*
X134979069Y-85176307D01*
X134741243Y-85129000D01*
X134498757Y-85129000D01*
X134260931Y-85176307D01*
X134036903Y-85269102D01*
X133835283Y-85403820D01*
X133663820Y-85575283D01*
X133529102Y-85776903D01*
X133436307Y-86000931D01*
X133389000Y-86238757D01*
X133389000Y-86481243D01*
X133436307Y-86719069D01*
X133529102Y-86943097D01*
X133621090Y-87080767D01*
X133186337Y-87080767D01*
X133162632Y-87078432D01*
X133138927Y-87080767D01*
X133138926Y-87080767D01*
X133074682Y-87087095D01*
X133170898Y-86943097D01*
X133263693Y-86719069D01*
X133311000Y-86481243D01*
X133311000Y-86238757D01*
X133263693Y-86000931D01*
X133170898Y-85776903D01*
X133036180Y-85575283D01*
X132864717Y-85403820D01*
X132663097Y-85269102D01*
X132439069Y-85176307D01*
X132201243Y-85129000D01*
X131958757Y-85129000D01*
X131720931Y-85176307D01*
X131496903Y-85269102D01*
X131295283Y-85403820D01*
X131123820Y-85575283D01*
X130989102Y-85776903D01*
X130896307Y-86000931D01*
X130849000Y-86238757D01*
X130849000Y-86481243D01*
X130896307Y-86719069D01*
X130989102Y-86943097D01*
X131123820Y-87144717D01*
X131295283Y-87316180D01*
X131496903Y-87450898D01*
X131720931Y-87543693D01*
X131958757Y-87591000D01*
X132201243Y-87591000D01*
X132439069Y-87543693D01*
X132542757Y-87500744D01*
X129030501Y-91013000D01*
X128964927Y-91013000D01*
X128833360Y-91039171D01*
X128709426Y-91090506D01*
X128597888Y-91165033D01*
X128503033Y-91259888D01*
X128428506Y-91371426D01*
X128377171Y-91495360D01*
X128351000Y-91626927D01*
X122453400Y-91626927D01*
X122453400Y-87471483D01*
X122503097Y-87450898D01*
X122704717Y-87316180D01*
X122876180Y-87144717D01*
X123010898Y-86943097D01*
X123103693Y-86719069D01*
X123151000Y-86481243D01*
X123151000Y-86238757D01*
X123229000Y-86238757D01*
X123229000Y-86481243D01*
X123276307Y-86719069D01*
X123369102Y-86943097D01*
X123503820Y-87144717D01*
X123675283Y-87316180D01*
X123876903Y-87450898D01*
X124100931Y-87543693D01*
X124338757Y-87591000D01*
X124581243Y-87591000D01*
X124819069Y-87543693D01*
X125043097Y-87450898D01*
X125244717Y-87316180D01*
X125416180Y-87144717D01*
X125550898Y-86943097D01*
X125643693Y-86719069D01*
X125691000Y-86481243D01*
X125691000Y-86238757D01*
X125769000Y-86238757D01*
X125769000Y-86481243D01*
X125816307Y-86719069D01*
X125909102Y-86943097D01*
X126043820Y-87144717D01*
X126215283Y-87316180D01*
X126416903Y-87450898D01*
X126640931Y-87543693D01*
X126878757Y-87591000D01*
X127121243Y-87591000D01*
X127359069Y-87543693D01*
X127583097Y-87450898D01*
X127784717Y-87316180D01*
X127956180Y-87144717D01*
X128090898Y-86943097D01*
X128183693Y-86719069D01*
X128231000Y-86481243D01*
X128231000Y-86238757D01*
X128309000Y-86238757D01*
X128309000Y-86481243D01*
X128356307Y-86719069D01*
X128449102Y-86943097D01*
X128583820Y-87144717D01*
X128755283Y-87316180D01*
X128956903Y-87450898D01*
X129180931Y-87543693D01*
X129418757Y-87591000D01*
X129661243Y-87591000D01*
X129899069Y-87543693D01*
X130123097Y-87450898D01*
X130324717Y-87316180D01*
X130496180Y-87144717D01*
X130630898Y-86943097D01*
X130723693Y-86719069D01*
X130771000Y-86481243D01*
X130771000Y-86238757D01*
X130723693Y-86000931D01*
X130630898Y-85776903D01*
X130496180Y-85575283D01*
X130324717Y-85403820D01*
X130123097Y-85269102D01*
X129899069Y-85176307D01*
X129661243Y-85129000D01*
X129418757Y-85129000D01*
X129180931Y-85176307D01*
X128956903Y-85269102D01*
X128755283Y-85403820D01*
X128583820Y-85575283D01*
X128449102Y-85776903D01*
X128356307Y-86000931D01*
X128309000Y-86238757D01*
X128231000Y-86238757D01*
X128183693Y-86000931D01*
X128090898Y-85776903D01*
X127956180Y-85575283D01*
X127784717Y-85403820D01*
X127583097Y-85269102D01*
X127359069Y-85176307D01*
X127121243Y-85129000D01*
X126878757Y-85129000D01*
X126640931Y-85176307D01*
X126416903Y-85269102D01*
X126215283Y-85403820D01*
X126043820Y-85575283D01*
X125909102Y-85776903D01*
X125816307Y-86000931D01*
X125769000Y-86238757D01*
X125691000Y-86238757D01*
X125643693Y-86000931D01*
X125550898Y-85776903D01*
X125416180Y-85575283D01*
X125244717Y-85403820D01*
X125043097Y-85269102D01*
X124819069Y-85176307D01*
X124581243Y-85129000D01*
X124338757Y-85129000D01*
X124100931Y-85176307D01*
X123876903Y-85269102D01*
X123675283Y-85403820D01*
X123503820Y-85575283D01*
X123369102Y-85776903D01*
X123276307Y-86000931D01*
X123229000Y-86238757D01*
X123151000Y-86238757D01*
X123103693Y-86000931D01*
X123010898Y-85776903D01*
X122876180Y-85575283D01*
X122704717Y-85403820D01*
X122503097Y-85269102D01*
X122279069Y-85176307D01*
X122041243Y-85129000D01*
X121798757Y-85129000D01*
X121560931Y-85176307D01*
X121336903Y-85269102D01*
X121135283Y-85403820D01*
X120963820Y-85575283D01*
X120866927Y-85720294D01*
X120868072Y-85510000D01*
X120855812Y-85385518D01*
X120819502Y-85265820D01*
X120760537Y-85155506D01*
X120681185Y-85058815D01*
X120584494Y-84979463D01*
X120474180Y-84920498D01*
X120354482Y-84884188D01*
X120230000Y-84871928D01*
X119665750Y-84875000D01*
X119507000Y-85033750D01*
X119253000Y-85033750D01*
X119094250Y-84875000D01*
X118530000Y-84871928D01*
X118405518Y-84884188D01*
X118285820Y-84920498D01*
X118175506Y-84979463D01*
X118078815Y-85058815D01*
X117999463Y-85155506D01*
X117940498Y-85265820D01*
X117904188Y-85385518D01*
X117891928Y-85510000D01*
X117246000Y-85510000D01*
X117246000Y-84226000D01*
X172314001Y-84226000D01*
X172314001Y-94989054D01*
G37*
X172314001Y-94989054D02*
X172210528Y-94862972D01*
X172061151Y-94740382D01*
X171890729Y-94649289D01*
X171705810Y-94593195D01*
X171561687Y-94579000D01*
X170765313Y-94579000D01*
X170621190Y-94593195D01*
X170436271Y-94649289D01*
X170265849Y-94740382D01*
X170116472Y-94862972D01*
X169993882Y-95012349D01*
X169902789Y-95182771D01*
X169846695Y-95367690D01*
X169827754Y-95560000D01*
X169846695Y-95752310D01*
X169902789Y-95937229D01*
X169993882Y-96107651D01*
X170116472Y-96257028D01*
X170265849Y-96379618D01*
X170436271Y-96470711D01*
X170621190Y-96526805D01*
X170765313Y-96541000D01*
X171561687Y-96541000D01*
X171705810Y-96526805D01*
X171890729Y-96470711D01*
X172061151Y-96379618D01*
X172210528Y-96257028D01*
X172314001Y-96130946D01*
X172314000Y-101989054D01*
X172210528Y-101862972D01*
X172061151Y-101740382D01*
X171890729Y-101649289D01*
X171705810Y-101593195D01*
X171561687Y-101579000D01*
X170765313Y-101579000D01*
X170621190Y-101593195D01*
X170436271Y-101649289D01*
X170265849Y-101740382D01*
X170116472Y-101862972D01*
X169993882Y-102012349D01*
X169902789Y-102182771D01*
X169846695Y-102367690D01*
X169827754Y-102560000D01*
X169846695Y-102752310D01*
X169902789Y-102937229D01*
X169993882Y-103107651D01*
X170116472Y-103257028D01*
X170265849Y-103379618D01*
X170436271Y-103470711D01*
X170621190Y-103526805D01*
X170765313Y-103541000D01*
X171561687Y-103541000D01*
X171705810Y-103526805D01*
X171890729Y-103470711D01*
X172061151Y-103379618D01*
X172210528Y-103257028D01*
X172314000Y-103130946D01*
X172314000Y-113894000D01*
X117246000Y-113894000D01*
X117246000Y-112610000D01*
X117891928Y-112610000D01*
X117904188Y-112734482D01*
X117940498Y-112854180D01*
X117999463Y-112964494D01*
X118078815Y-113061185D01*
X118175506Y-113140537D01*
X118285820Y-113199502D01*
X118405518Y-113235812D01*
X118530000Y-113248072D01*
X119094250Y-113245000D01*
X119253000Y-113086250D01*
X119253000Y-111887000D01*
X118053750Y-111887000D01*
X117895000Y-112045750D01*
X117891928Y-112610000D01*
X117246000Y-112610000D01*
X117246000Y-110910000D01*
X117891928Y-110910000D01*
X117895000Y-111474250D01*
X118053750Y-111633000D01*
X119253000Y-111633000D01*
X119253000Y-110433750D01*
X119507000Y-110433750D01*
X119507000Y-111633000D01*
X119527000Y-111633000D01*
X119527000Y-111887000D01*
X119507000Y-111887000D01*
X119507000Y-113086250D01*
X119665750Y-113245000D01*
X120230000Y-113248072D01*
X120354482Y-113235812D01*
X120474180Y-113199502D01*
X120584494Y-113140537D01*
X120681185Y-113061185D01*
X120760537Y-112964494D01*
X120819502Y-112854180D01*
X120855812Y-112734482D01*
X120868072Y-112610000D01*
X120866927Y-112399706D01*
X120963820Y-112544717D01*
X121135283Y-112716180D01*
X121336903Y-112850898D01*
X121560931Y-112943693D01*
X121798757Y-112991000D01*
X122041243Y-112991000D01*
X122279069Y-112943693D01*
X122503097Y-112850898D01*
X122704717Y-112716180D01*
X122876180Y-112544717D01*
X123010898Y-112343097D01*
X123103693Y-112119069D01*
X123151000Y-111881243D01*
X123151000Y-111638757D01*
X123229000Y-111638757D01*
X123229000Y-111881243D01*
X123276307Y-112119069D01*
X123369102Y-112343097D01*
X123503820Y-112544717D01*
X123675283Y-112716180D01*
X123876903Y-112850898D01*
X124100931Y-112943693D01*
X124338757Y-112991000D01*
X124581243Y-112991000D01*
X124819069Y-112943693D01*
X125043097Y-112850898D01*
X125244717Y-112716180D01*
X125416180Y-112544717D01*
X125550898Y-112343097D01*
X125643693Y-112119069D01*
X125691000Y-111881243D01*
X125691000Y-111638757D01*
X125769000Y-111638757D01*
X125769000Y-111881243D01*
X125816307Y-112119069D01*
X125909102Y-112343097D01*
X126043820Y-112544717D01*
X126215283Y-112716180D01*
X126416903Y-112850898D01*
X126640931Y-112943693D01*
X126878757Y-112991000D01*
X127121243Y-112991000D01*
X127359069Y-112943693D01*
X127583097Y-112850898D01*
X127784717Y-112716180D01*
X127956180Y-112544717D01*
X128090898Y-112343097D01*
X128183693Y-112119069D01*
X128231000Y-111881243D01*
X128231000Y-111638757D01*
X128309000Y-111638757D01*
X128309000Y-111881243D01*
X128356307Y-112119069D01*
X128449102Y-112343097D01*
X128583820Y-112544717D01*
X128755283Y-112716180D01*
X128956903Y-112850898D01*
X129180931Y-112943693D01*
X129418757Y-112991000D01*
X129661243Y-112991000D01*
X129899069Y-112943693D01*
X130123097Y-112850898D01*
X130324717Y-112716180D01*
X130496180Y-112544717D01*
X130630898Y-112343097D01*
X130723693Y-112119069D01*
X130771000Y-111881243D01*
X130771000Y-111638757D01*
X130849000Y-111638757D01*
X130849000Y-111881243D01*
X130896307Y-112119069D01*
X130989102Y-112343097D01*
X131123820Y-112544717D01*
X131295283Y-112716180D01*
X131496903Y-112850898D01*
X131720931Y-112943693D01*
X131958757Y-112991000D01*
X132201243Y-112991000D01*
X132439069Y-112943693D01*
X132663097Y-112850898D01*
X132864717Y-112716180D01*
X133036180Y-112544717D01*
X133170898Y-112343097D01*
X133263693Y-112119069D01*
X133311000Y-111881243D01*
X133311000Y-111638757D01*
X133389000Y-111638757D01*
X133389000Y-111881243D01*
X133436307Y-112119069D01*
X133529102Y-112343097D01*
X133663820Y-112544717D01*
X133835283Y-112716180D01*
X134036903Y-112850898D01*
X134260931Y-112943693D01*
X134498757Y-112991000D01*
X134741243Y-112991000D01*
X134979069Y-112943693D01*
X135203097Y-112850898D01*
X135404717Y-112716180D01*
X135576180Y-112544717D01*
X135710898Y-112343097D01*
X135803693Y-112119069D01*
X135851000Y-111881243D01*
X135851000Y-111638757D01*
X135803693Y-111400931D01*
X135710898Y-111176903D01*
X135576180Y-110975283D01*
X135404717Y-110803820D01*
X135203097Y-110669102D01*
X134979069Y-110576307D01*
X134741243Y-110529000D01*
X134498757Y-110529000D01*
X134260931Y-110576307D01*
X134036903Y-110669102D01*
X133835283Y-110803820D01*
X133663820Y-110975283D01*
X133529102Y-111176903D01*
X133436307Y-111400931D01*
X133389000Y-111638757D01*
X133311000Y-111638757D01*
X133263693Y-111400931D01*
X133170898Y-111176903D01*
X133036180Y-110975283D01*
X132864717Y-110803820D01*
X132663097Y-110669102D01*
X132439069Y-110576307D01*
X132201243Y-110529000D01*
X131958757Y-110529000D01*
X131720931Y-110576307D01*
X131496903Y-110669102D01*
X131295283Y-110803820D01*
X131123820Y-110975283D01*
X130989102Y-111176903D01*
X130896307Y-111400931D01*
X130849000Y-111638757D01*
X130771000Y-111638757D01*
X130723693Y-111400931D01*
X130630898Y-111176903D01*
X130496180Y-110975283D01*
X130324717Y-110803820D01*
X130123097Y-110669102D01*
X129899069Y-110576307D01*
X129661243Y-110529000D01*
X129418757Y-110529000D01*
X129180931Y-110576307D01*
X128956903Y-110669102D01*
X128755283Y-110803820D01*
X128583820Y-110975283D01*
X128449102Y-111176903D01*
X128356307Y-111400931D01*
X128309000Y-111638757D01*
X128231000Y-111638757D01*
X128183693Y-111400931D01*
X128090898Y-111176903D01*
X127956180Y-110975283D01*
X127784717Y-110803820D01*
X127583097Y-110669102D01*
X127359069Y-110576307D01*
X127121243Y-110529000D01*
X126878757Y-110529000D01*
X126640931Y-110576307D01*
X126416903Y-110669102D01*
X126215283Y-110803820D01*
X126043820Y-110975283D01*
X125909102Y-111176903D01*
X125816307Y-111400931D01*
X125769000Y-111638757D01*
X125691000Y-111638757D01*
X125643693Y-111400931D01*
X125550898Y-111176903D01*
X125416180Y-110975283D01*
X125244717Y-110803820D01*
X125043097Y-110669102D01*
X124819069Y-110576307D01*
X124581243Y-110529000D01*
X124338757Y-110529000D01*
X124100931Y-110576307D01*
X123876903Y-110669102D01*
X123675283Y-110803820D01*
X123503820Y-110975283D01*
X123369102Y-111176903D01*
X123276307Y-111400931D01*
X123229000Y-111638757D01*
X123151000Y-111638757D01*
X123103693Y-111400931D01*
X123010898Y-111176903D01*
X122876180Y-110975283D01*
X122704717Y-110803820D01*
X122503097Y-110669102D01*
X122279069Y-110576307D01*
X122041243Y-110529000D01*
X121798757Y-110529000D01*
X121560931Y-110576307D01*
X121336903Y-110669102D01*
X121135283Y-110803820D01*
X120963820Y-110975283D01*
X120866927Y-111120294D01*
X120868072Y-110910000D01*
X120855812Y-110785518D01*
X120819502Y-110665820D01*
X120760537Y-110555506D01*
X120681185Y-110458815D01*
X120584494Y-110379463D01*
X120474180Y-110320498D01*
X120354482Y-110284188D01*
X120230000Y-110271928D01*
X119665750Y-110275000D01*
X119507000Y-110433750D01*
X119253000Y-110433750D01*
X119094250Y-110275000D01*
X118530000Y-110271928D01*
X118405518Y-110284188D01*
X118285820Y-110320498D01*
X118175506Y-110379463D01*
X118078815Y-110458815D01*
X117999463Y-110555506D01*
X117940498Y-110665820D01*
X117904188Y-110785518D01*
X117891928Y-110910000D01*
X117246000Y-110910000D01*
X117246000Y-103564927D01*
X122255000Y-103564927D01*
X122255000Y-103699073D01*
X122281171Y-103830640D01*
X122332506Y-103954574D01*
X122407033Y-104066112D01*
X122453401Y-104112480D01*
X122453400Y-105183521D01*
X122407033Y-105229888D01*
X122332506Y-105341426D01*
X122281171Y-105465360D01*
X122255000Y-105596927D01*
X122255000Y-105731073D01*
X122281171Y-105862640D01*
X122332506Y-105986574D01*
X122407033Y-106098112D01*
X122501888Y-106192967D01*
X122613426Y-106267494D01*
X122737360Y-106318829D01*
X122868927Y-106345000D01*
X123003073Y-106345000D01*
X123134640Y-106318829D01*
X123258574Y-106267494D01*
X123370112Y-106192967D01*
X123458152Y-106104927D01*
X131399000Y-106104927D01*
X131399000Y-106239073D01*
X131425171Y-106370640D01*
X131476506Y-106494574D01*
X131551033Y-106606112D01*
X131645888Y-106700967D01*
X131757426Y-106775494D01*
X131881360Y-106826829D01*
X132012927Y-106853000D01*
X132078501Y-106853000D01*
X136106616Y-110881115D01*
X136121732Y-110899534D01*
X136195218Y-110959842D01*
X136210886Y-110968217D01*
X136203820Y-110975283D01*
X136069102Y-111176903D01*
X135976307Y-111400931D01*
X135929000Y-111638757D01*
X135929000Y-111881243D01*
X135976307Y-112119069D01*
X136069102Y-112343097D01*
X136203820Y-112544717D01*
X136375283Y-112716180D01*
X136576903Y-112850898D01*
X136800931Y-112943693D01*
X137038757Y-112991000D01*
X137281243Y-112991000D01*
X137519069Y-112943693D01*
X137743097Y-112850898D01*
X137944717Y-112716180D01*
X138116180Y-112544717D01*
X138250898Y-112343097D01*
X138343693Y-112119069D01*
X138391000Y-111881243D01*
X138391000Y-111638757D01*
X138343693Y-111400931D01*
X138250898Y-111176903D01*
X138158910Y-111039233D01*
X138701090Y-111039233D01*
X138609102Y-111176903D01*
X138516307Y-111400931D01*
X138469000Y-111638757D01*
X138469000Y-111881243D01*
X138516307Y-112119069D01*
X138609102Y-112343097D01*
X138743820Y-112544717D01*
X138915283Y-112716180D01*
X139116903Y-112850898D01*
X139340931Y-112943693D01*
X139578757Y-112991000D01*
X139821243Y-112991000D01*
X140059069Y-112943693D01*
X140283097Y-112850898D01*
X140484717Y-112716180D01*
X140656180Y-112544717D01*
X140790898Y-112343097D01*
X140883693Y-112119069D01*
X140931000Y-111881243D01*
X140931000Y-111638757D01*
X140883693Y-111400931D01*
X140790898Y-111176903D01*
X140698910Y-111039233D01*
X140836734Y-111039233D01*
X141065514Y-111268014D01*
X141065519Y-111268018D01*
X141097934Y-111300433D01*
X141056307Y-111400931D01*
X141009000Y-111638757D01*
X141009000Y-111881243D01*
X141056307Y-112119069D01*
X141149102Y-112343097D01*
X141283820Y-112544717D01*
X141455283Y-112716180D01*
X141656903Y-112850898D01*
X141880931Y-112943693D01*
X142118757Y-112991000D01*
X142361243Y-112991000D01*
X142599069Y-112943693D01*
X142823097Y-112850898D01*
X143024717Y-112716180D01*
X143196180Y-112544717D01*
X143330898Y-112343097D01*
X143423693Y-112119069D01*
X143471000Y-111881243D01*
X143471000Y-111638757D01*
X143423693Y-111400931D01*
X143330898Y-111176903D01*
X143196180Y-110975283D01*
X143024717Y-110803820D01*
X142823097Y-110669102D01*
X142743234Y-110636022D01*
X142973523Y-110636022D01*
X143637934Y-111300433D01*
X143596307Y-111400931D01*
X143549000Y-111638757D01*
X143549000Y-111881243D01*
X143596307Y-112119069D01*
X143689102Y-112343097D01*
X143823820Y-112544717D01*
X143995283Y-112716180D01*
X144196903Y-112850898D01*
X144420931Y-112943693D01*
X144658757Y-112991000D01*
X144901243Y-112991000D01*
X145139069Y-112943693D01*
X145363097Y-112850898D01*
X145564717Y-112716180D01*
X145736180Y-112544717D01*
X145870898Y-112343097D01*
X145963693Y-112119069D01*
X146011000Y-111881243D01*
X146011000Y-111638757D01*
X145963693Y-111400931D01*
X145870898Y-111176903D01*
X145736180Y-110975283D01*
X145564717Y-110803820D01*
X145363097Y-110669102D01*
X145139069Y-110576307D01*
X144901243Y-110529000D01*
X144658757Y-110529000D01*
X144420931Y-110576307D01*
X144320433Y-110617934D01*
X143935310Y-110232811D01*
X145110312Y-110232811D01*
X146145514Y-111268014D01*
X146145519Y-111268018D01*
X146177934Y-111300433D01*
X146136307Y-111400931D01*
X146089000Y-111638757D01*
X146089000Y-111881243D01*
X146136307Y-112119069D01*
X146229102Y-112343097D01*
X146363820Y-112544717D01*
X146535283Y-112716180D01*
X146736903Y-112850898D01*
X146960931Y-112943693D01*
X147198757Y-112991000D01*
X147441243Y-112991000D01*
X147679069Y-112943693D01*
X147903097Y-112850898D01*
X148104717Y-112716180D01*
X148276180Y-112544717D01*
X148410898Y-112343097D01*
X148503693Y-112119069D01*
X148551000Y-111881243D01*
X148551000Y-111638757D01*
X148503693Y-111400931D01*
X148410898Y-111176903D01*
X148276180Y-110975283D01*
X148104717Y-110803820D01*
X147903097Y-110669102D01*
X147679069Y-110576307D01*
X147441243Y-110529000D01*
X147198757Y-110529000D01*
X146960931Y-110576307D01*
X146860433Y-110617934D01*
X146828018Y-110585519D01*
X146828014Y-110585514D01*
X146072099Y-109829600D01*
X147247101Y-109829600D01*
X148717934Y-111300433D01*
X148676307Y-111400931D01*
X148629000Y-111638757D01*
X148629000Y-111881243D01*
X148676307Y-112119069D01*
X148769102Y-112343097D01*
X148903820Y-112544717D01*
X149075283Y-112716180D01*
X149276903Y-112850898D01*
X149500931Y-112943693D01*
X149738757Y-112991000D01*
X149981243Y-112991000D01*
X150219069Y-112943693D01*
X150443097Y-112850898D01*
X150644717Y-112716180D01*
X150816180Y-112544717D01*
X150950898Y-112343097D01*
X151043693Y-112119069D01*
X151091000Y-111881243D01*
X151091000Y-111638757D01*
X151169000Y-111638757D01*
X151169000Y-111881243D01*
X151216307Y-112119069D01*
X151309102Y-112343097D01*
X151443820Y-112544717D01*
X151615283Y-112716180D01*
X151816903Y-112850898D01*
X152040931Y-112943693D01*
X152278757Y-112991000D01*
X152521243Y-112991000D01*
X152759069Y-112943693D01*
X152983097Y-112850898D01*
X153184717Y-112716180D01*
X153356180Y-112544717D01*
X153490898Y-112343097D01*
X153583693Y-112119069D01*
X153631000Y-111881243D01*
X153631000Y-111638757D01*
X153709000Y-111638757D01*
X153709000Y-111881243D01*
X153756307Y-112119069D01*
X153849102Y-112343097D01*
X153983820Y-112544717D01*
X154155283Y-112716180D01*
X154356903Y-112850898D01*
X154580931Y-112943693D01*
X154818757Y-112991000D01*
X155061243Y-112991000D01*
X155299069Y-112943693D01*
X155523097Y-112850898D01*
X155724717Y-112716180D01*
X155896180Y-112544717D01*
X156030898Y-112343097D01*
X156123693Y-112119069D01*
X156171000Y-111881243D01*
X156171000Y-111638757D01*
X156249000Y-111638757D01*
X156249000Y-111881243D01*
X156296307Y-112119069D01*
X156389102Y-112343097D01*
X156523820Y-112544717D01*
X156695283Y-112716180D01*
X156896903Y-112850898D01*
X157120931Y-112943693D01*
X157358757Y-112991000D01*
X157601243Y-112991000D01*
X157839069Y-112943693D01*
X158063097Y-112850898D01*
X158264717Y-112716180D01*
X158436180Y-112544717D01*
X158570898Y-112343097D01*
X158663693Y-112119069D01*
X158711000Y-111881243D01*
X158711000Y-111638757D01*
X158663693Y-111400931D01*
X158570898Y-111176903D01*
X158436180Y-110975283D01*
X158264717Y-110803820D01*
X158063097Y-110669102D01*
X157839069Y-110576307D01*
X157601243Y-110529000D01*
X157358757Y-110529000D01*
X157120931Y-110576307D01*
X156896903Y-110669102D01*
X156695283Y-110803820D01*
X156523820Y-110975283D01*
X156389102Y-111176903D01*
X156296307Y-111400931D01*
X156249000Y-111638757D01*
X156171000Y-111638757D01*
X156123693Y-111400931D01*
X156030898Y-111176903D01*
X155896180Y-110975283D01*
X155724717Y-110803820D01*
X155523097Y-110669102D01*
X155299069Y-110576307D01*
X155061243Y-110529000D01*
X154818757Y-110529000D01*
X154580931Y-110576307D01*
X154356903Y-110669102D01*
X154155283Y-110803820D01*
X153983820Y-110975283D01*
X153849102Y-111176903D01*
X153756307Y-111400931D01*
X153709000Y-111638757D01*
X153631000Y-111638757D01*
X153583693Y-111400931D01*
X153490898Y-111176903D01*
X153356180Y-110975283D01*
X153184717Y-110803820D01*
X152983097Y-110669102D01*
X152759069Y-110576307D01*
X152521243Y-110529000D01*
X152278757Y-110529000D01*
X152040931Y-110576307D01*
X151816903Y-110669102D01*
X151615283Y-110803820D01*
X151443820Y-110975283D01*
X151309102Y-111176903D01*
X151216307Y-111400931D01*
X151169000Y-111638757D01*
X151091000Y-111638757D01*
X151043693Y-111400931D01*
X150950898Y-111176903D01*
X150816180Y-110975283D01*
X150644717Y-110803820D01*
X150443097Y-110669102D01*
X150219069Y-110576307D01*
X149981243Y-110529000D01*
X149738757Y-110529000D01*
X149500931Y-110576307D01*
X149400433Y-110617934D01*
X147805017Y-109022518D01*
X147789901Y-109004099D01*
X147716415Y-108943791D01*
X147632577Y-108898978D01*
X147541606Y-108871383D01*
X147470707Y-108864400D01*
X147470705Y-108864400D01*
X147447000Y-108862065D01*
X147423295Y-108864400D01*
X140026900Y-108864400D01*
X137333000Y-106170501D01*
X137333000Y-106104927D01*
X137306829Y-105973360D01*
X137255494Y-105849426D01*
X137180967Y-105737888D01*
X137086112Y-105643033D01*
X136974574Y-105568506D01*
X136850640Y-105517171D01*
X136719073Y-105491000D01*
X136584927Y-105491000D01*
X136453360Y-105517171D01*
X136329426Y-105568506D01*
X136217888Y-105643033D01*
X136123033Y-105737888D01*
X136048506Y-105849426D01*
X135997171Y-105973360D01*
X135971000Y-106104927D01*
X135971000Y-106239073D01*
X135994199Y-106355700D01*
X135809000Y-106170501D01*
X135809000Y-106104927D01*
X135782829Y-105973360D01*
X135731494Y-105849426D01*
X135656967Y-105737888D01*
X135562112Y-105643033D01*
X135450574Y-105568506D01*
X135326640Y-105517171D01*
X135195073Y-105491000D01*
X135060927Y-105491000D01*
X134929360Y-105517171D01*
X134805426Y-105568506D01*
X134693888Y-105643033D01*
X134599033Y-105737888D01*
X134524506Y-105849426D01*
X134473171Y-105973360D01*
X134447000Y-106104927D01*
X134447000Y-106239073D01*
X134470199Y-106355700D01*
X134285000Y-106170501D01*
X134285000Y-106104927D01*
X134258829Y-105973360D01*
X134207494Y-105849426D01*
X134132967Y-105737888D01*
X134038112Y-105643033D01*
X133926574Y-105568506D01*
X133802640Y-105517171D01*
X133671073Y-105491000D01*
X133536927Y-105491000D01*
X133405360Y-105517171D01*
X133281426Y-105568506D01*
X133169888Y-105643033D01*
X133075033Y-105737888D01*
X133000506Y-105849426D01*
X132949171Y-105973360D01*
X132923000Y-106104927D01*
X132923000Y-106239073D01*
X132946199Y-106355700D01*
X132761000Y-106170501D01*
X132761000Y-106104927D01*
X132734829Y-105973360D01*
X132683494Y-105849426D01*
X132608967Y-105737888D01*
X132514112Y-105643033D01*
X132402574Y-105568506D01*
X132278640Y-105517171D01*
X132147073Y-105491000D01*
X132012927Y-105491000D01*
X131881360Y-105517171D01*
X131757426Y-105568506D01*
X131645888Y-105643033D01*
X131551033Y-105737888D01*
X131476506Y-105849426D01*
X131425171Y-105973360D01*
X131399000Y-106104927D01*
X123458152Y-106104927D01*
X123464967Y-106098112D01*
X123539494Y-105986574D01*
X123590829Y-105862640D01*
X123617000Y-105731073D01*
X123617000Y-105596927D01*
X123590829Y-105465360D01*
X123539494Y-105341426D01*
X123464967Y-105229888D01*
X123418600Y-105183521D01*
X123418600Y-104112479D01*
X123458152Y-104072927D01*
X155148000Y-104072927D01*
X155148000Y-104207073D01*
X155174171Y-104338640D01*
X155225506Y-104462574D01*
X155300033Y-104574112D01*
X155310421Y-104584500D01*
X155300033Y-104594888D01*
X155225506Y-104706426D01*
X155174171Y-104830360D01*
X155148000Y-104961927D01*
X155148000Y-105096073D01*
X155174171Y-105227640D01*
X155225506Y-105351574D01*
X155300033Y-105463112D01*
X155310421Y-105473500D01*
X155300033Y-105483888D01*
X155225506Y-105595426D01*
X155174171Y-105719360D01*
X155148000Y-105850927D01*
X155148000Y-105985073D01*
X155174171Y-106116640D01*
X155225506Y-106240574D01*
X155300033Y-106352112D01*
X155310421Y-106362500D01*
X155300033Y-106372888D01*
X155225506Y-106484426D01*
X155174171Y-106608360D01*
X155148000Y-106739927D01*
X155148000Y-106874073D01*
X155174171Y-107005640D01*
X155225506Y-107129574D01*
X155300033Y-107241112D01*
X155310421Y-107251500D01*
X155300033Y-107261888D01*
X155225506Y-107373426D01*
X155174171Y-107497360D01*
X155148000Y-107628927D01*
X155148000Y-107763073D01*
X155174171Y-107894640D01*
X155225506Y-108018574D01*
X155300033Y-108130112D01*
X155394888Y-108224967D01*
X155506426Y-108299494D01*
X155630360Y-108350829D01*
X155761927Y-108377000D01*
X155896073Y-108377000D01*
X156027640Y-108350829D01*
X156151574Y-108299494D01*
X156263112Y-108224967D01*
X156309479Y-108178600D01*
X157534101Y-108178600D01*
X159537401Y-110181900D01*
X159537401Y-110627475D01*
X159436903Y-110669102D01*
X159235283Y-110803820D01*
X159063820Y-110975283D01*
X158929102Y-111176903D01*
X158836307Y-111400931D01*
X158789000Y-111638757D01*
X158789000Y-111881243D01*
X158836307Y-112119069D01*
X158929102Y-112343097D01*
X159063820Y-112544717D01*
X159235283Y-112716180D01*
X159436903Y-112850898D01*
X159660931Y-112943693D01*
X159898757Y-112991000D01*
X160141243Y-112991000D01*
X160379069Y-112943693D01*
X160603097Y-112850898D01*
X160804717Y-112716180D01*
X160976180Y-112544717D01*
X161110898Y-112343097D01*
X161203693Y-112119069D01*
X161251000Y-111881243D01*
X161251000Y-111638757D01*
X161203693Y-111400931D01*
X161110898Y-111176903D01*
X160976180Y-110975283D01*
X160804717Y-110803820D01*
X160603097Y-110669102D01*
X160502600Y-110627475D01*
X160502600Y-110385100D01*
X161417934Y-111300434D01*
X161376307Y-111400931D01*
X161329000Y-111638757D01*
X161329000Y-111881243D01*
X161376307Y-112119069D01*
X161469102Y-112343097D01*
X161603820Y-112544717D01*
X161775283Y-112716180D01*
X161976903Y-112850898D01*
X162200931Y-112943693D01*
X162438757Y-112991000D01*
X162681243Y-112991000D01*
X162919069Y-112943693D01*
X163143097Y-112850898D01*
X163344717Y-112716180D01*
X163516180Y-112544717D01*
X163650898Y-112343097D01*
X163743693Y-112119069D01*
X163791000Y-111881243D01*
X163791000Y-111638757D01*
X163743693Y-111400931D01*
X163650898Y-111176903D01*
X163593499Y-111090999D01*
X163748500Y-111090999D01*
X163957934Y-111300434D01*
X163916307Y-111400931D01*
X163869000Y-111638757D01*
X163869000Y-111881243D01*
X163916307Y-112119069D01*
X164009102Y-112343097D01*
X164143820Y-112544717D01*
X164315283Y-112716180D01*
X164516903Y-112850898D01*
X164740931Y-112943693D01*
X164978757Y-112991000D01*
X165221243Y-112991000D01*
X165459069Y-112943693D01*
X165683097Y-112850898D01*
X165884717Y-112716180D01*
X166056180Y-112544717D01*
X166190898Y-112343097D01*
X166283693Y-112119069D01*
X166331000Y-111881243D01*
X166331000Y-111638757D01*
X166283693Y-111400931D01*
X166190898Y-111176903D01*
X166056180Y-110975283D01*
X165884717Y-110803820D01*
X165711063Y-110687788D01*
X165885289Y-110687788D01*
X166497934Y-111300433D01*
X166456307Y-111400931D01*
X166409000Y-111638757D01*
X166409000Y-111881243D01*
X166456307Y-112119069D01*
X166549102Y-112343097D01*
X166683820Y-112544717D01*
X166855283Y-112716180D01*
X167056903Y-112850898D01*
X167280931Y-112943693D01*
X167518757Y-112991000D01*
X167761243Y-112991000D01*
X167999069Y-112943693D01*
X168223097Y-112850898D01*
X168424717Y-112716180D01*
X168596180Y-112544717D01*
X168730898Y-112343097D01*
X168823693Y-112119069D01*
X168871000Y-111881243D01*
X168871000Y-111768500D01*
X168949000Y-111846500D01*
X168949000Y-111881243D01*
X168996307Y-112119069D01*
X169089102Y-112343097D01*
X169223820Y-112544717D01*
X169395283Y-112716180D01*
X169596903Y-112850898D01*
X169820931Y-112943693D01*
X170058757Y-112991000D01*
X170301243Y-112991000D01*
X170539069Y-112943693D01*
X170763097Y-112850898D01*
X170964717Y-112716180D01*
X171136180Y-112544717D01*
X171270898Y-112343097D01*
X171363693Y-112119069D01*
X171411000Y-111881243D01*
X171411000Y-111638757D01*
X171363693Y-111400931D01*
X171270898Y-111176903D01*
X171136180Y-110975283D01*
X170964717Y-110803820D01*
X170763097Y-110669102D01*
X170539069Y-110576307D01*
X170301243Y-110529000D01*
X170058757Y-110529000D01*
X169820931Y-110576307D01*
X169596903Y-110669102D01*
X169395283Y-110803820D01*
X169333301Y-110865802D01*
X167871017Y-109403518D01*
X167855901Y-109385099D01*
X167782415Y-109324791D01*
X167698577Y-109279978D01*
X167607606Y-109252383D01*
X167536707Y-109245400D01*
X167536705Y-109245400D01*
X167513000Y-109243065D01*
X167489295Y-109245400D01*
X162676163Y-109245400D01*
X159602557Y-106171794D01*
X166583000Y-106171794D01*
X166583000Y-106680206D01*
X166682187Y-107178850D01*
X166876748Y-107648562D01*
X167159207Y-108071291D01*
X167518709Y-108430793D01*
X167941438Y-108713252D01*
X168411150Y-108907813D01*
X168909794Y-109007000D01*
X169418206Y-109007000D01*
X169916850Y-108907813D01*
X170386562Y-108713252D01*
X170809291Y-108430793D01*
X171168793Y-108071291D01*
X171451252Y-107648562D01*
X171645813Y-107178850D01*
X171745000Y-106680206D01*
X171745000Y-106171794D01*
X171645813Y-105673150D01*
X171451252Y-105203438D01*
X171168793Y-104780709D01*
X170809291Y-104421207D01*
X170386562Y-104138748D01*
X169916850Y-103944187D01*
X169418206Y-103845000D01*
X168909794Y-103845000D01*
X168411150Y-103944187D01*
X167941438Y-104138748D01*
X167518709Y-104421207D01*
X167159207Y-104780709D01*
X166876748Y-105203438D01*
X166682187Y-105673150D01*
X166583000Y-106171794D01*
X159602557Y-106171794D01*
X157246281Y-103815518D01*
X157231165Y-103797099D01*
X157157679Y-103736791D01*
X157073841Y-103691978D01*
X156982870Y-103664383D01*
X156911971Y-103657400D01*
X156911969Y-103657400D01*
X156888264Y-103655065D01*
X156864559Y-103657400D01*
X156309479Y-103657400D01*
X156263112Y-103611033D01*
X156151574Y-103536506D01*
X156027640Y-103485171D01*
X155896073Y-103459000D01*
X155761927Y-103459000D01*
X155630360Y-103485171D01*
X155506426Y-103536506D01*
X155394888Y-103611033D01*
X155300033Y-103705888D01*
X155225506Y-103817426D01*
X155174171Y-103941360D01*
X155148000Y-104072927D01*
X123458152Y-104072927D01*
X123464967Y-104066112D01*
X123539494Y-103954574D01*
X123590829Y-103830640D01*
X123617000Y-103699073D01*
X123617000Y-103564927D01*
X123590829Y-103433360D01*
X123539494Y-103309426D01*
X123464967Y-103197888D01*
X123370112Y-103103033D01*
X123258574Y-103028506D01*
X123134640Y-102977171D01*
X123003073Y-102951000D01*
X122868927Y-102951000D01*
X122737360Y-102977171D01*
X122613426Y-103028506D01*
X122501888Y-103103033D01*
X122407033Y-103197888D01*
X122332506Y-103309426D01*
X122281171Y-103433360D01*
X122255000Y-103564927D01*
X117246000Y-103564927D01*
X117246000Y-101451069D01*
X167357500Y-101451069D01*
X167357500Y-101668931D01*
X167400003Y-101882608D01*
X167483376Y-102083887D01*
X167604414Y-102265034D01*
X167758466Y-102419086D01*
X167939613Y-102540124D01*
X168140892Y-102623497D01*
X168354569Y-102666000D01*
X168572431Y-102666000D01*
X168786108Y-102623497D01*
X168987387Y-102540124D01*
X169168534Y-102419086D01*
X169322586Y-102265034D01*
X169443624Y-102083887D01*
X169526997Y-101882608D01*
X169569500Y-101668931D01*
X169569500Y-101451069D01*
X169526997Y-101237392D01*
X169443624Y-101036113D01*
X169322586Y-100854966D01*
X169168534Y-100700914D01*
X168987387Y-100579876D01*
X168786108Y-100496503D01*
X168572431Y-100454000D01*
X168354569Y-100454000D01*
X168140892Y-100496503D01*
X167939613Y-100579876D01*
X167758466Y-100700914D01*
X167604414Y-100854966D01*
X167483376Y-101036113D01*
X167400003Y-101237392D01*
X167357500Y-101451069D01*
X117246000Y-101451069D01*
X117246000Y-100262927D01*
X139527000Y-100262927D01*
X139527000Y-100397073D01*
X139553171Y-100528640D01*
X139604506Y-100652574D01*
X139679033Y-100764112D01*
X139773888Y-100858967D01*
X139885426Y-100933494D01*
X140009360Y-100984829D01*
X140140927Y-101011000D01*
X140275073Y-101011000D01*
X140406640Y-100984829D01*
X140530574Y-100933494D01*
X140642112Y-100858967D01*
X140688479Y-100812600D01*
X145518295Y-100812600D01*
X145542000Y-100814935D01*
X145565705Y-100812600D01*
X145565707Y-100812600D01*
X145636606Y-100805617D01*
X145727577Y-100778022D01*
X145811415Y-100733209D01*
X145884901Y-100672901D01*
X145900017Y-100654482D01*
X147575500Y-98979000D01*
X147641073Y-98979000D01*
X147772640Y-98952829D01*
X147896574Y-98901494D01*
X148008112Y-98826967D01*
X148102967Y-98732112D01*
X148177494Y-98620574D01*
X148228829Y-98496640D01*
X148255000Y-98365073D01*
X148255000Y-98230927D01*
X148228829Y-98099360D01*
X148177494Y-97975426D01*
X148102967Y-97863888D01*
X148008112Y-97769033D01*
X147896574Y-97694506D01*
X147772640Y-97643171D01*
X147641073Y-97617000D01*
X147506927Y-97617000D01*
X147375360Y-97643171D01*
X147251426Y-97694506D01*
X147139888Y-97769033D01*
X147045033Y-97863888D01*
X146970506Y-97975426D01*
X146919171Y-98099360D01*
X146893000Y-98230927D01*
X146893000Y-98296500D01*
X145342101Y-99847400D01*
X140688479Y-99847400D01*
X140642112Y-99801033D01*
X140530574Y-99726506D01*
X140406640Y-99675171D01*
X140275073Y-99649000D01*
X140140927Y-99649000D01*
X140009360Y-99675171D01*
X139885426Y-99726506D01*
X139773888Y-99801033D01*
X139679033Y-99895888D01*
X139604506Y-100007426D01*
X139553171Y-100131360D01*
X139527000Y-100262927D01*
X117246000Y-100262927D01*
X117246000Y-96452927D01*
X139527000Y-96452927D01*
X139527000Y-96587073D01*
X139553171Y-96718640D01*
X139604506Y-96842574D01*
X139679033Y-96954112D01*
X139773888Y-97048967D01*
X139885426Y-97123494D01*
X140009360Y-97174829D01*
X140140927Y-97201000D01*
X140275073Y-97201000D01*
X140391700Y-97177801D01*
X140206501Y-97363000D01*
X140140927Y-97363000D01*
X140009360Y-97389171D01*
X139885426Y-97440506D01*
X139773888Y-97515033D01*
X139679033Y-97609888D01*
X139604506Y-97721426D01*
X139553171Y-97845360D01*
X139527000Y-97976927D01*
X139527000Y-98111073D01*
X139553171Y-98242640D01*
X139604506Y-98366574D01*
X139679033Y-98478112D01*
X139773888Y-98572967D01*
X139885426Y-98647494D01*
X140009360Y-98698829D01*
X140140927Y-98725000D01*
X140275073Y-98725000D01*
X140406640Y-98698829D01*
X140530574Y-98647494D01*
X140642112Y-98572967D01*
X140736967Y-98478112D01*
X140811494Y-98366574D01*
X140862829Y-98242640D01*
X140889000Y-98111073D01*
X140889000Y-98045499D01*
X146799572Y-92134927D01*
X148671000Y-92134927D01*
X148671000Y-92269073D01*
X148697171Y-92400640D01*
X148748506Y-92524574D01*
X148818601Y-92629479D01*
X148818600Y-98886522D01*
X148748506Y-98991426D01*
X148697171Y-99115360D01*
X148671000Y-99246927D01*
X148671000Y-99381073D01*
X148697171Y-99512640D01*
X148748506Y-99636574D01*
X148823033Y-99748112D01*
X148917888Y-99842967D01*
X149029426Y-99917494D01*
X149153360Y-99968829D01*
X149284927Y-99995000D01*
X149419073Y-99995000D01*
X149550640Y-99968829D01*
X149674574Y-99917494D01*
X149786112Y-99842967D01*
X149880967Y-99748112D01*
X149955494Y-99636574D01*
X150006829Y-99512640D01*
X150033000Y-99381073D01*
X150033000Y-99246927D01*
X150006829Y-99115360D01*
X149955494Y-98991426D01*
X149885400Y-98886522D01*
X149885400Y-96451069D01*
X167357500Y-96451069D01*
X167357500Y-96668931D01*
X167400003Y-96882608D01*
X167483376Y-97083887D01*
X167604414Y-97265034D01*
X167758466Y-97419086D01*
X167939613Y-97540124D01*
X168140892Y-97623497D01*
X168354569Y-97666000D01*
X168572431Y-97666000D01*
X168786108Y-97623497D01*
X168987387Y-97540124D01*
X169168534Y-97419086D01*
X169322586Y-97265034D01*
X169443624Y-97083887D01*
X169526997Y-96882608D01*
X169569500Y-96668931D01*
X169569500Y-96451069D01*
X169526997Y-96237392D01*
X169443624Y-96036113D01*
X169322586Y-95854966D01*
X169168534Y-95700914D01*
X168987387Y-95579876D01*
X168786108Y-95496503D01*
X168572431Y-95454000D01*
X168354569Y-95454000D01*
X168140892Y-95496503D01*
X167939613Y-95579876D01*
X167758466Y-95700914D01*
X167604414Y-95854966D01*
X167483376Y-96036113D01*
X167400003Y-96237392D01*
X167357500Y-96451069D01*
X149885400Y-96451069D01*
X149885400Y-92629478D01*
X149955494Y-92524574D01*
X150006829Y-92400640D01*
X150033000Y-92269073D01*
X150033000Y-92134927D01*
X150006829Y-92003360D01*
X149955494Y-91879426D01*
X149880967Y-91767888D01*
X149786112Y-91673033D01*
X149674574Y-91598506D01*
X149550640Y-91547171D01*
X149419073Y-91521000D01*
X149284927Y-91521000D01*
X149153360Y-91547171D01*
X149029426Y-91598506D01*
X148917888Y-91673033D01*
X148823033Y-91767888D01*
X148748506Y-91879426D01*
X148697171Y-92003360D01*
X148671000Y-92134927D01*
X146799572Y-92134927D01*
X147494705Y-91439794D01*
X166583000Y-91439794D01*
X166583000Y-91948206D01*
X166682187Y-92446850D01*
X166876748Y-92916562D01*
X167159207Y-93339291D01*
X167518709Y-93698793D01*
X167941438Y-93981252D01*
X168411150Y-94175813D01*
X168909794Y-94275000D01*
X169418206Y-94275000D01*
X169916850Y-94175813D01*
X170386562Y-93981252D01*
X170809291Y-93698793D01*
X171168793Y-93339291D01*
X171451252Y-92916562D01*
X171645813Y-92446850D01*
X171745000Y-91948206D01*
X171745000Y-91439794D01*
X171645813Y-90941150D01*
X171451252Y-90471438D01*
X171168793Y-90048709D01*
X170809291Y-89689207D01*
X170386562Y-89406748D01*
X169916850Y-89212187D01*
X169418206Y-89113000D01*
X168909794Y-89113000D01*
X168411150Y-89212187D01*
X167941438Y-89406748D01*
X167518709Y-89689207D01*
X167159207Y-90048709D01*
X166876748Y-90471438D01*
X166682187Y-90941150D01*
X166583000Y-91439794D01*
X147494705Y-91439794D01*
X150537088Y-88397411D01*
X168601484Y-88397411D01*
X168625189Y-88399746D01*
X168648894Y-88397411D01*
X168648896Y-88397411D01*
X168719795Y-88390428D01*
X168810766Y-88362833D01*
X168894604Y-88318020D01*
X168968090Y-88257712D01*
X168983206Y-88239293D01*
X169688014Y-87534486D01*
X169688018Y-87534481D01*
X169720433Y-87502066D01*
X169820931Y-87543693D01*
X170058757Y-87591000D01*
X170301243Y-87591000D01*
X170539069Y-87543693D01*
X170763097Y-87450898D01*
X170964717Y-87316180D01*
X171136180Y-87144717D01*
X171270898Y-86943097D01*
X171363693Y-86719069D01*
X171411000Y-86481243D01*
X171411000Y-86238757D01*
X171363693Y-86000931D01*
X171270898Y-85776903D01*
X171136180Y-85575283D01*
X170964717Y-85403820D01*
X170763097Y-85269102D01*
X170539069Y-85176307D01*
X170301243Y-85129000D01*
X170058757Y-85129000D01*
X169820931Y-85176307D01*
X169596903Y-85269102D01*
X169395283Y-85403820D01*
X169223820Y-85575283D01*
X169089102Y-85776903D01*
X168996307Y-86000931D01*
X168949000Y-86238757D01*
X168949000Y-86481243D01*
X168996307Y-86719069D01*
X169037934Y-86819567D01*
X169005519Y-86851982D01*
X169005514Y-86851986D01*
X168425290Y-87432211D01*
X168251064Y-87432211D01*
X168424717Y-87316180D01*
X168596180Y-87144717D01*
X168730898Y-86943097D01*
X168823693Y-86719069D01*
X168871000Y-86481243D01*
X168871000Y-86238757D01*
X168823693Y-86000931D01*
X168730898Y-85776903D01*
X168596180Y-85575283D01*
X168424717Y-85403820D01*
X168223097Y-85269102D01*
X167999069Y-85176307D01*
X167761243Y-85129000D01*
X167518757Y-85129000D01*
X167280931Y-85176307D01*
X167056903Y-85269102D01*
X166855283Y-85403820D01*
X166683820Y-85575283D01*
X166549102Y-85776903D01*
X166456307Y-86000931D01*
X166409000Y-86238757D01*
X166409000Y-86481243D01*
X166456307Y-86719069D01*
X166497934Y-86819567D01*
X166288500Y-87029001D01*
X166133499Y-87029001D01*
X166190898Y-86943097D01*
X166283693Y-86719069D01*
X166331000Y-86481243D01*
X166331000Y-86238757D01*
X166283693Y-86000931D01*
X166190898Y-85776903D01*
X166056180Y-85575283D01*
X165884717Y-85403820D01*
X165683097Y-85269102D01*
X165459069Y-85176307D01*
X165221243Y-85129000D01*
X164978757Y-85129000D01*
X164740931Y-85176307D01*
X164516903Y-85269102D01*
X164315283Y-85403820D01*
X164143820Y-85575283D01*
X164009102Y-85776903D01*
X163916307Y-86000931D01*
X163869000Y-86238757D01*
X163869000Y-86481243D01*
X163916307Y-86719069D01*
X164009102Y-86943097D01*
X164066501Y-87029001D01*
X163593499Y-87029001D01*
X163650898Y-86943097D01*
X163743693Y-86719069D01*
X163791000Y-86481243D01*
X163791000Y-86238757D01*
X163743693Y-86000931D01*
X163650898Y-85776903D01*
X163516180Y-85575283D01*
X163344717Y-85403820D01*
X163143097Y-85269102D01*
X162919069Y-85176307D01*
X162681243Y-85129000D01*
X162438757Y-85129000D01*
X162200931Y-85176307D01*
X161976903Y-85269102D01*
X161775283Y-85403820D01*
X161603820Y-85575283D01*
X161469102Y-85776903D01*
X161376307Y-86000931D01*
X161329000Y-86238757D01*
X161329000Y-86481243D01*
X161376307Y-86719069D01*
X161469102Y-86943097D01*
X161526501Y-87029001D01*
X161053499Y-87029001D01*
X161110898Y-86943097D01*
X161203693Y-86719069D01*
X161251000Y-86481243D01*
X161251000Y-86238757D01*
X161203693Y-86000931D01*
X161110898Y-85776903D01*
X160976180Y-85575283D01*
X160804717Y-85403820D01*
X160603097Y-85269102D01*
X160379069Y-85176307D01*
X160141243Y-85129000D01*
X159898757Y-85129000D01*
X159660931Y-85176307D01*
X159436903Y-85269102D01*
X159235283Y-85403820D01*
X159063820Y-85575283D01*
X158929102Y-85776903D01*
X158836307Y-86000931D01*
X158789000Y-86238757D01*
X158789000Y-86481243D01*
X158836307Y-86719069D01*
X158929102Y-86943097D01*
X158986501Y-87029001D01*
X158513499Y-87029001D01*
X158570898Y-86943097D01*
X158663693Y-86719069D01*
X158711000Y-86481243D01*
X158711000Y-86238757D01*
X158663693Y-86000931D01*
X158570898Y-85776903D01*
X158436180Y-85575283D01*
X158264717Y-85403820D01*
X158063097Y-85269102D01*
X157839069Y-85176307D01*
X157601243Y-85129000D01*
X157358757Y-85129000D01*
X157120931Y-85176307D01*
X156896903Y-85269102D01*
X156695283Y-85403820D01*
X156523820Y-85575283D01*
X156389102Y-85776903D01*
X156296307Y-86000931D01*
X156249000Y-86238757D01*
X156249000Y-86481243D01*
X156296307Y-86719069D01*
X156389102Y-86943097D01*
X156446501Y-87029001D01*
X155973499Y-87029001D01*
X156030898Y-86943097D01*
X156123693Y-86719069D01*
X156171000Y-86481243D01*
X156171000Y-86238757D01*
X156123693Y-86000931D01*
X156030898Y-85776903D01*
X155896180Y-85575283D01*
X155724717Y-85403820D01*
X155523097Y-85269102D01*
X155299069Y-85176307D01*
X155061243Y-85129000D01*
X154818757Y-85129000D01*
X154580931Y-85176307D01*
X154356903Y-85269102D01*
X154155283Y-85403820D01*
X153983820Y-85575283D01*
X153849102Y-85776903D01*
X153756307Y-86000931D01*
X153709000Y-86238757D01*
X153709000Y-86481243D01*
X153756307Y-86719069D01*
X153849102Y-86943097D01*
X153906501Y-87029001D01*
X153433499Y-87029001D01*
X153490898Y-86943097D01*
X153583693Y-86719069D01*
X153631000Y-86481243D01*
X153631000Y-86238757D01*
X153583693Y-86000931D01*
X153490898Y-85776903D01*
X153356180Y-85575283D01*
X153184717Y-85403820D01*
X152983097Y-85269102D01*
X152759069Y-85176307D01*
X152521243Y-85129000D01*
X152278757Y-85129000D01*
X152040931Y-85176307D01*
X151816903Y-85269102D01*
X151615283Y-85403820D01*
X151443820Y-85575283D01*
X151309102Y-85776903D01*
X151216307Y-86000931D01*
X151169000Y-86238757D01*
X151169000Y-86481243D01*
X151216307Y-86719069D01*
X151309102Y-86943097D01*
X151366501Y-87029001D01*
X150893499Y-87029001D01*
X150950898Y-86943097D01*
X151043693Y-86719069D01*
X151091000Y-86481243D01*
X151091000Y-86238757D01*
X151043693Y-86000931D01*
X150950898Y-85776903D01*
X150816180Y-85575283D01*
X150644717Y-85403820D01*
X150443097Y-85269102D01*
X150219069Y-85176307D01*
X149981243Y-85129000D01*
X149738757Y-85129000D01*
X149500931Y-85176307D01*
X149276903Y-85269102D01*
X149075283Y-85403820D01*
X148903820Y-85575283D01*
X148769102Y-85776903D01*
X148676307Y-86000931D01*
X148629000Y-86238757D01*
X148629000Y-86481243D01*
X148676307Y-86719069D01*
X148769102Y-86943097D01*
X148903820Y-87144717D01*
X149075283Y-87316180D01*
X149122221Y-87347543D01*
X140544173Y-95925592D01*
X140530574Y-95916506D01*
X140406640Y-95865171D01*
X140275073Y-95839000D01*
X140140927Y-95839000D01*
X140009360Y-95865171D01*
X139885426Y-95916506D01*
X139773888Y-95991033D01*
X139679033Y-96085888D01*
X139604506Y-96197426D01*
X139553171Y-96321360D01*
X139527000Y-96452927D01*
X117246000Y-96452927D01*
X117246000Y-87210000D01*
X117891928Y-87210000D01*
X117904188Y-87334482D01*
X117940498Y-87454180D01*
X117999463Y-87564494D01*
X118078815Y-87661185D01*
X118175506Y-87740537D01*
X118285820Y-87799502D01*
X118405518Y-87835812D01*
X118530000Y-87848072D01*
X119094250Y-87845000D01*
X119253000Y-87686250D01*
X119253000Y-86487000D01*
X118053750Y-86487000D01*
X117895000Y-86645750D01*
X117891928Y-87210000D01*
X117246000Y-87210000D01*
X117246000Y-85510000D01*
X117891928Y-85510000D01*
X117895000Y-86074250D01*
X118053750Y-86233000D01*
X119253000Y-86233000D01*
X119253000Y-85033750D01*
X119507000Y-85033750D01*
X119507000Y-86233000D01*
X119527000Y-86233000D01*
X119527000Y-86487000D01*
X119507000Y-86487000D01*
X119507000Y-87686250D01*
X119665750Y-87845000D01*
X120230000Y-87848072D01*
X120354482Y-87835812D01*
X120474180Y-87799502D01*
X120584494Y-87740537D01*
X120681185Y-87661185D01*
X120760537Y-87564494D01*
X120819502Y-87454180D01*
X120855812Y-87334482D01*
X120868072Y-87210000D01*
X120866927Y-86999706D01*
X120963820Y-87144717D01*
X121135283Y-87316180D01*
X121336903Y-87450898D01*
X121386600Y-87471483D01*
X121386601Y-92790521D01*
X121316506Y-92895426D01*
X121265171Y-93019360D01*
X121239000Y-93150927D01*
X121239000Y-93285073D01*
X121265171Y-93416640D01*
X121316506Y-93540574D01*
X121391033Y-93652112D01*
X121485888Y-93746967D01*
X121597426Y-93821494D01*
X121721360Y-93872829D01*
X121852927Y-93899000D01*
X121987073Y-93899000D01*
X122118640Y-93872829D01*
X122242574Y-93821494D01*
X122354112Y-93746967D01*
X122448967Y-93652112D01*
X122523494Y-93540574D01*
X122574829Y-93416640D01*
X122601000Y-93285073D01*
X122601000Y-93150927D01*
X122574829Y-93019360D01*
X122523494Y-92895426D01*
X122453400Y-92790522D01*
X122453400Y-91626927D01*
X128351000Y-91626927D01*
X128351000Y-91761073D01*
X128377171Y-91892640D01*
X128428506Y-92016574D01*
X128503033Y-92128112D01*
X128597888Y-92222967D01*
X128709426Y-92297494D01*
X128833360Y-92348829D01*
X128964927Y-92375000D01*
X129099073Y-92375000D01*
X129230640Y-92348829D01*
X129354574Y-92297494D01*
X129466112Y-92222967D01*
X129560967Y-92128112D01*
X129635494Y-92016574D01*
X129686829Y-91892640D01*
X129713000Y-91761073D01*
X129713000Y-91695499D01*
X129898199Y-91510300D01*
X129875000Y-91626927D01*
X129875000Y-91761073D01*
X129901171Y-91892640D01*
X129952506Y-92016574D01*
X130027033Y-92128112D01*
X130121888Y-92222967D01*
X130233426Y-92297494D01*
X130357360Y-92348829D01*
X130488927Y-92375000D01*
X130623073Y-92375000D01*
X130754640Y-92348829D01*
X130878574Y-92297494D01*
X130990112Y-92222967D01*
X131084967Y-92128112D01*
X131159494Y-92016574D01*
X131210829Y-91892640D01*
X131237000Y-91761073D01*
X131237000Y-91695499D01*
X131422199Y-91510300D01*
X131399000Y-91626927D01*
X131399000Y-91761073D01*
X131425171Y-91892640D01*
X131476506Y-92016574D01*
X131551033Y-92128112D01*
X131645888Y-92222967D01*
X131757426Y-92297494D01*
X131881360Y-92348829D01*
X132012927Y-92375000D01*
X132147073Y-92375000D01*
X132278640Y-92348829D01*
X132402574Y-92297494D01*
X132514112Y-92222967D01*
X132608967Y-92128112D01*
X132683494Y-92016574D01*
X132734829Y-91892640D01*
X132761000Y-91761073D01*
X132761000Y-91695499D01*
X132946199Y-91510300D01*
X132923000Y-91626927D01*
X132923000Y-91761073D01*
X132949171Y-91892640D01*
X133000506Y-92016574D01*
X133075033Y-92128112D01*
X133169888Y-92222967D01*
X133281426Y-92297494D01*
X133405360Y-92348829D01*
X133536927Y-92375000D01*
X133671073Y-92375000D01*
X133802640Y-92348829D01*
X133926574Y-92297494D01*
X134038112Y-92222967D01*
X134132967Y-92128112D01*
X134207494Y-92016574D01*
X134258829Y-91892640D01*
X134285000Y-91761073D01*
X134285000Y-91695499D01*
X136724900Y-89255600D01*
X144883295Y-89255600D01*
X144907000Y-89257935D01*
X144930705Y-89255600D01*
X144930707Y-89255600D01*
X145001606Y-89248617D01*
X145092577Y-89221022D01*
X145176415Y-89176209D01*
X145249901Y-89115901D01*
X145265017Y-89097482D01*
X146860433Y-87502066D01*
X146960931Y-87543693D01*
X147198757Y-87591000D01*
X147441243Y-87591000D01*
X147679069Y-87543693D01*
X147903097Y-87450898D01*
X148104717Y-87316180D01*
X148276180Y-87144717D01*
X148410898Y-86943097D01*
X148503693Y-86719069D01*
X148551000Y-86481243D01*
X148551000Y-86238757D01*
X148503693Y-86000931D01*
X148410898Y-85776903D01*
X148276180Y-85575283D01*
X148104717Y-85403820D01*
X147903097Y-85269102D01*
X147679069Y-85176307D01*
X147441243Y-85129000D01*
X147198757Y-85129000D01*
X146960931Y-85176307D01*
X146736903Y-85269102D01*
X146535283Y-85403820D01*
X146363820Y-85575283D01*
X146229102Y-85776903D01*
X146136307Y-86000931D01*
X146089000Y-86238757D01*
X146089000Y-86481243D01*
X146136307Y-86719069D01*
X146177934Y-86819567D01*
X144707101Y-88290400D01*
X143532099Y-88290400D01*
X144288014Y-87534486D01*
X144288018Y-87534481D01*
X144320433Y-87502066D01*
X144420931Y-87543693D01*
X144658757Y-87591000D01*
X144901243Y-87591000D01*
X145139069Y-87543693D01*
X145363097Y-87450898D01*
X145564717Y-87316180D01*
X145736180Y-87144717D01*
X145870898Y-86943097D01*
X145963693Y-86719069D01*
X146011000Y-86481243D01*
X146011000Y-86238757D01*
X145963693Y-86000931D01*
X145870898Y-85776903D01*
X145736180Y-85575283D01*
X145564717Y-85403820D01*
X145363097Y-85269102D01*
X145139069Y-85176307D01*
X144901243Y-85129000D01*
X144658757Y-85129000D01*
X144420931Y-85176307D01*
X144196903Y-85269102D01*
X143995283Y-85403820D01*
X143823820Y-85575283D01*
X143689102Y-85776903D01*
X143596307Y-86000931D01*
X143549000Y-86238757D01*
X143549000Y-86481243D01*
X143596307Y-86719069D01*
X143637934Y-86819567D01*
X143605519Y-86851982D01*
X143605514Y-86851986D01*
X142570312Y-87887189D01*
X141395310Y-87887189D01*
X141780433Y-87502066D01*
X141880931Y-87543693D01*
X142118757Y-87591000D01*
X142361243Y-87591000D01*
X142599069Y-87543693D01*
X142823097Y-87450898D01*
X143024717Y-87316180D01*
X143196180Y-87144717D01*
X143330898Y-86943097D01*
X143423693Y-86719069D01*
X143471000Y-86481243D01*
X143471000Y-86238757D01*
X143423693Y-86000931D01*
X143330898Y-85776903D01*
X143196180Y-85575283D01*
X143024717Y-85403820D01*
X142823097Y-85269102D01*
X142599069Y-85176307D01*
X142361243Y-85129000D01*
X142118757Y-85129000D01*
X141880931Y-85176307D01*
X141656903Y-85269102D01*
X141455283Y-85403820D01*
X141283820Y-85575283D01*
X141149102Y-85776903D01*
X141056307Y-86000931D01*
X141009000Y-86238757D01*
X141009000Y-86481243D01*
X141056307Y-86719069D01*
X141097934Y-86819567D01*
X140433523Y-87483978D01*
X140203234Y-87483978D01*
X140283097Y-87450898D01*
X140484717Y-87316180D01*
X140656180Y-87144717D01*
X140790898Y-86943097D01*
X140883693Y-86719069D01*
X140931000Y-86481243D01*
X140931000Y-86238757D01*
X140883693Y-86000931D01*
X140790898Y-85776903D01*
X140656180Y-85575283D01*
X140484717Y-85403820D01*
X140283097Y-85269102D01*
X140059069Y-85176307D01*
X139821243Y-85129000D01*
X139578757Y-85129000D01*
X139340931Y-85176307D01*
X139116903Y-85269102D01*
X138915283Y-85403820D01*
X138743820Y-85575283D01*
X138609102Y-85776903D01*
X138516307Y-86000931D01*
X138469000Y-86238757D01*
X138469000Y-86481243D01*
X138516307Y-86719069D01*
X138557934Y-86819567D01*
X138525519Y-86851982D01*
X138525514Y-86851986D01*
X138296734Y-87080767D01*
X138158910Y-87080767D01*
X138250898Y-86943097D01*
X138343693Y-86719069D01*
X138391000Y-86481243D01*
X138391000Y-86238757D01*
X138343693Y-86000931D01*
X138250898Y-85776903D01*
X138116180Y-85575283D01*
X137944717Y-85403820D01*
X137743097Y-85269102D01*
X137519069Y-85176307D01*
X137281243Y-85129000D01*
X137038757Y-85129000D01*
X136800931Y-85176307D01*
X136576903Y-85269102D01*
X136375283Y-85403820D01*
X136203820Y-85575283D01*
X136069102Y-85776903D01*
X135976307Y-86000931D01*
X135929000Y-86238757D01*
X135929000Y-86481243D01*
X135976307Y-86719069D01*
X136069102Y-86943097D01*
X136161090Y-87080767D01*
X135618910Y-87080767D01*
X135710898Y-86943097D01*
X135803693Y-86719069D01*
X135851000Y-86481243D01*
X135851000Y-86238757D01*
X135803693Y-86000931D01*
X135710898Y-85776903D01*
X135576180Y-85575283D01*
X135404717Y-85403820D01*
X135203097Y-85269102D01*
X134979069Y-85176307D01*
X134741243Y-85129000D01*
X134498757Y-85129000D01*
X134260931Y-85176307D01*
X134036903Y-85269102D01*
X133835283Y-85403820D01*
X133663820Y-85575283D01*
X133529102Y-85776903D01*
X133436307Y-86000931D01*
X133389000Y-86238757D01*
X133389000Y-86481243D01*
X133436307Y-86719069D01*
X133529102Y-86943097D01*
X133621090Y-87080767D01*
X133186337Y-87080767D01*
X133162632Y-87078432D01*
X133138927Y-87080767D01*
X133138926Y-87080767D01*
X133074682Y-87087095D01*
X133170898Y-86943097D01*
X133263693Y-86719069D01*
X133311000Y-86481243D01*
X133311000Y-86238757D01*
X133263693Y-86000931D01*
X133170898Y-85776903D01*
X133036180Y-85575283D01*
X132864717Y-85403820D01*
X132663097Y-85269102D01*
X132439069Y-85176307D01*
X132201243Y-85129000D01*
X131958757Y-85129000D01*
X131720931Y-85176307D01*
X131496903Y-85269102D01*
X131295283Y-85403820D01*
X131123820Y-85575283D01*
X130989102Y-85776903D01*
X130896307Y-86000931D01*
X130849000Y-86238757D01*
X130849000Y-86481243D01*
X130896307Y-86719069D01*
X130989102Y-86943097D01*
X131123820Y-87144717D01*
X131295283Y-87316180D01*
X131496903Y-87450898D01*
X131720931Y-87543693D01*
X131958757Y-87591000D01*
X132201243Y-87591000D01*
X132439069Y-87543693D01*
X132542757Y-87500744D01*
X129030501Y-91013000D01*
X128964927Y-91013000D01*
X128833360Y-91039171D01*
X128709426Y-91090506D01*
X128597888Y-91165033D01*
X128503033Y-91259888D01*
X128428506Y-91371426D01*
X128377171Y-91495360D01*
X128351000Y-91626927D01*
X122453400Y-91626927D01*
X122453400Y-87471483D01*
X122503097Y-87450898D01*
X122704717Y-87316180D01*
X122876180Y-87144717D01*
X123010898Y-86943097D01*
X123103693Y-86719069D01*
X123151000Y-86481243D01*
X123151000Y-86238757D01*
X123229000Y-86238757D01*
X123229000Y-86481243D01*
X123276307Y-86719069D01*
X123369102Y-86943097D01*
X123503820Y-87144717D01*
X123675283Y-87316180D01*
X123876903Y-87450898D01*
X124100931Y-87543693D01*
X124338757Y-87591000D01*
X124581243Y-87591000D01*
X124819069Y-87543693D01*
X125043097Y-87450898D01*
X125244717Y-87316180D01*
X125416180Y-87144717D01*
X125550898Y-86943097D01*
X125643693Y-86719069D01*
X125691000Y-86481243D01*
X125691000Y-86238757D01*
X125769000Y-86238757D01*
X125769000Y-86481243D01*
X125816307Y-86719069D01*
X125909102Y-86943097D01*
X126043820Y-87144717D01*
X126215283Y-87316180D01*
X126416903Y-87450898D01*
X126640931Y-87543693D01*
X126878757Y-87591000D01*
X127121243Y-87591000D01*
X127359069Y-87543693D01*
X127583097Y-87450898D01*
X127784717Y-87316180D01*
X127956180Y-87144717D01*
X128090898Y-86943097D01*
X128183693Y-86719069D01*
X128231000Y-86481243D01*
X128231000Y-86238757D01*
X128309000Y-86238757D01*
X128309000Y-86481243D01*
X128356307Y-86719069D01*
X128449102Y-86943097D01*
X128583820Y-87144717D01*
X128755283Y-87316180D01*
X128956903Y-87450898D01*
X129180931Y-87543693D01*
X129418757Y-87591000D01*
X129661243Y-87591000D01*
X129899069Y-87543693D01*
X130123097Y-87450898D01*
X130324717Y-87316180D01*
X130496180Y-87144717D01*
X130630898Y-86943097D01*
X130723693Y-86719069D01*
X130771000Y-86481243D01*
X130771000Y-86238757D01*
X130723693Y-86000931D01*
X130630898Y-85776903D01*
X130496180Y-85575283D01*
X130324717Y-85403820D01*
X130123097Y-85269102D01*
X129899069Y-85176307D01*
X129661243Y-85129000D01*
X129418757Y-85129000D01*
X129180931Y-85176307D01*
X128956903Y-85269102D01*
X128755283Y-85403820D01*
X128583820Y-85575283D01*
X128449102Y-85776903D01*
X128356307Y-86000931D01*
X128309000Y-86238757D01*
X128231000Y-86238757D01*
X128183693Y-86000931D01*
X128090898Y-85776903D01*
X127956180Y-85575283D01*
X127784717Y-85403820D01*
X127583097Y-85269102D01*
X127359069Y-85176307D01*
X127121243Y-85129000D01*
X126878757Y-85129000D01*
X126640931Y-85176307D01*
X126416903Y-85269102D01*
X126215283Y-85403820D01*
X126043820Y-85575283D01*
X125909102Y-85776903D01*
X125816307Y-86000931D01*
X125769000Y-86238757D01*
X125691000Y-86238757D01*
X125643693Y-86000931D01*
X125550898Y-85776903D01*
X125416180Y-85575283D01*
X125244717Y-85403820D01*
X125043097Y-85269102D01*
X124819069Y-85176307D01*
X124581243Y-85129000D01*
X124338757Y-85129000D01*
X124100931Y-85176307D01*
X123876903Y-85269102D01*
X123675283Y-85403820D01*
X123503820Y-85575283D01*
X123369102Y-85776903D01*
X123276307Y-86000931D01*
X123229000Y-86238757D01*
X123151000Y-86238757D01*
X123103693Y-86000931D01*
X123010898Y-85776903D01*
X122876180Y-85575283D01*
X122704717Y-85403820D01*
X122503097Y-85269102D01*
X122279069Y-85176307D01*
X122041243Y-85129000D01*
X121798757Y-85129000D01*
X121560931Y-85176307D01*
X121336903Y-85269102D01*
X121135283Y-85403820D01*
X120963820Y-85575283D01*
X120866927Y-85720294D01*
X120868072Y-85510000D01*
X120855812Y-85385518D01*
X120819502Y-85265820D01*
X120760537Y-85155506D01*
X120681185Y-85058815D01*
X120584494Y-84979463D01*
X120474180Y-84920498D01*
X120354482Y-84884188D01*
X120230000Y-84871928D01*
X119665750Y-84875000D01*
X119507000Y-85033750D01*
X119253000Y-85033750D01*
X119094250Y-84875000D01*
X118530000Y-84871928D01*
X118405518Y-84884188D01*
X118285820Y-84920498D01*
X118175506Y-84979463D01*
X118078815Y-85058815D01*
X117999463Y-85155506D01*
X117940498Y-85265820D01*
X117904188Y-85385518D01*
X117891928Y-85510000D01*
X117246000Y-85510000D01*
X117246000Y-84226000D01*
X172314001Y-84226000D01*
X172314001Y-94989054D01*
M02*
